<?xml version="1.0" encoding="UTF-8" standalone="no"?>
<!DOCTYPE svg PUBLIC "-//W3C//DTD SVG 1.1//EN"
 "http://www.w3.org/Graphics/SVG/1.1/DTD/svg11.dtd">
<!-- Generated by graphviz version 2.43.0 (0)
 -->
<!-- Title: Program_ Pages: 1 -->
<svg width="1141pt" height="449pt"
 viewBox="0.00 0.00 1140.64 449.01" xmlns="http://www.w3.org/2000/svg" xmlns:xlink="http://www.w3.org/1999/xlink">
<g id="graph0" class="graph" transform="scale(1 1) rotate(0) translate(4 445.01)">
<title>Program_</title>
<polygon fill="white" stroke="transparent" points="-4,4 -4,-445.01 1136.64,-445.01 1136.64,4 -4,4"/>
<g id="clust1" class="cluster">
<title>cluster_dfg_Block0</title>
<polygon fill="none" stroke="black" points="245.64,-325.01 245.64,-433.01 459.64,-433.01 459.64,-325.01 245.64,-325.01"/>
<text text-anchor="start" x="331.04" y="-420.41" font-family="Monaco" font-size="12.00">Block0</text>
<text text-anchor="start" x="302.24" y="-408.41" font-family="Monaco" font-size="12.00">(i</text>
<text text-anchor="start" x="316.64" y="-408.41" font-family="Monaco" baseline-shift="sub" font-size="8.00" fill="#999999">a</text>
<text text-anchor="start" x="321.44" y="-408.41" font-family="Monaco" baseline-shift="super" font-size="8.00" fill="#00aa11">U10</text>
<text text-anchor="start" x="335.84" y="-408.41" font-family="Monaco" baseline-shift="super" font-size="8.00" fill="#3311ff">r0</text>
<text text-anchor="start" x="345.44" y="-408.41" font-family="Monaco" font-size="12.00">,acc</text>
<text text-anchor="start" x="374.25" y="-408.41" font-family="Monaco" baseline-shift="sub" font-size="8.00" fill="#999999">a</text>
<text text-anchor="start" x="379.05" y="-408.41" font-family="Monaco" baseline-shift="super" font-size="8.00" fill="#00aa11">S64</text>
<text text-anchor="start" x="393.45" y="-408.41" font-family="Monaco" baseline-shift="super" font-size="8.00" fill="#3311ff">r1</text>
<text text-anchor="start" x="345.44" y="-396.41" font-family="Monaco" font-size="12.00">=&gt;</text>
<text text-anchor="start" x="279.43" y="-384.41" font-family="Monaco" font-size="12.00">i</text>
<text text-anchor="start" x="286.63" y="-384.41" font-family="Monaco" baseline-shift="sub" font-size="8.00" fill="#999999">a</text>
<text text-anchor="start" x="291.43" y="-384.41" font-family="Monaco" baseline-shift="super" font-size="8.00" fill="#00aa11">U10</text>
<text text-anchor="start" x="305.84" y="-384.41" font-family="Monaco" baseline-shift="super" font-size="8.00" fill="#3311ff">r0</text>
<text text-anchor="start" x="315.44" y="-384.41" font-family="Monaco" font-size="12.00">,acc</text>
<text text-anchor="start" x="344.24" y="-384.41" font-family="Monaco" baseline-shift="sub" font-size="8.00" fill="#999999">a</text>
<text text-anchor="start" x="349.04" y="-384.41" font-family="Monaco" baseline-shift="super" font-size="8.00" fill="#00aa11">S64</text>
<text text-anchor="start" x="363.45" y="-384.41" font-family="Monaco" baseline-shift="super" font-size="8.00" fill="#3311ff">r1</text>
<text text-anchor="start" x="373.05" y="-384.41" font-family="Monaco" font-size="12.00">,@c</text>
<text text-anchor="start" x="394.65" y="-384.41" font-family="Monaco" baseline-shift="sub" font-size="8.00" fill="#999999">a</text>
<text text-anchor="start" x="399.45" y="-384.41" font-family="Monaco" baseline-shift="super" font-size="8.00" fill="#00aa11">U1</text>
<text text-anchor="start" x="409.05" y="-384.41" font-family="Monaco" baseline-shift="super" font-size="8.00" fill="#3311ff">r2</text>
<text text-anchor="start" x="418.65" y="-384.41" font-family="Monaco" font-size="12.00">)</text>
</g>
<g id="clust2" class="cluster">
<title>cluster_dfg_Block0_4</title>
<polygon fill="none" stroke="black" points="467.64,-165.34 467.64,-433.01 1008.64,-433.01 1008.64,-165.34 467.64,-165.34"/>
<text text-anchor="start" x="709.34" y="-420.41" font-family="Monaco" font-size="12.00">Block0_4</text>
<text text-anchor="start" x="687.74" y="-408.41" font-family="Monaco" font-size="12.00">(i</text>
<text text-anchor="start" x="702.14" y="-408.41" font-family="Monaco" baseline-shift="sub" font-size="8.00" fill="#999999">a</text>
<text text-anchor="start" x="706.94" y="-408.41" font-family="Monaco" baseline-shift="super" font-size="8.00" fill="#00aa11">U10</text>
<text text-anchor="start" x="721.34" y="-408.41" font-family="Monaco" baseline-shift="super" font-size="8.00" fill="#3311ff">r0</text>
<text text-anchor="start" x="730.94" y="-408.41" font-family="Monaco" font-size="12.00">,acc</text>
<text text-anchor="start" x="759.75" y="-408.41" font-family="Monaco" baseline-shift="sub" font-size="8.00" fill="#999999">a</text>
<text text-anchor="start" x="764.55" y="-408.41" font-family="Monaco" baseline-shift="super" font-size="8.00" fill="#00aa11">S64</text>
<text text-anchor="start" x="778.95" y="-408.41" font-family="Monaco" baseline-shift="super" font-size="8.00" fill="#3311ff">r1</text>
<text text-anchor="start" x="730.94" y="-396.41" font-family="Monaco" font-size="12.00">=&gt;</text>
<text text-anchor="start" x="668.53" y="-384.41" font-family="Monaco" font-size="12.00">b</text>
<text text-anchor="start" x="675.73" y="-384.41" font-family="Monaco" baseline-shift="sub" font-size="8.00" fill="#999999">a</text>
<text text-anchor="start" x="680.53" y="-384.41" font-family="Monaco" baseline-shift="super" font-size="8.00" fill="#00aa11">S64</text>
<text text-anchor="start" x="694.94" y="-384.41" font-family="Monaco" baseline-shift="super" font-size="8.00" fill="#3311ff">r1</text>
<text text-anchor="start" x="704.54" y="-384.41" font-family="Monaco" font-size="12.00">,@m</text>
<text text-anchor="start" x="726.14" y="-384.41" font-family="Monaco" baseline-shift="sub" font-size="8.00" fill="#999999">a</text>
<text text-anchor="start" x="730.94" y="-384.41" font-family="Monaco" baseline-shift="super" font-size="8.00" fill="#00aa11">U10</text>
<text text-anchor="start" x="745.34" y="-384.41" font-family="Monaco" baseline-shift="super" font-size="8.00" fill="#3311ff">r2</text>
<text text-anchor="start" x="754.95" y="-384.41" font-family="Monaco" font-size="12.00">,@c</text>
<text text-anchor="start" x="776.55" y="-384.41" font-family="Monaco" baseline-shift="sub" font-size="8.00" fill="#999999">b</text>
<text text-anchor="start" x="781.35" y="-384.41" font-family="Monaco" baseline-shift="super" font-size="8.00" fill="#00aa11">U1</text>
<text text-anchor="start" x="790.95" y="-384.41" font-family="Monaco" baseline-shift="super" font-size="8.00" fill="#3311ff">r0</text>
<text text-anchor="start" x="800.55" y="-384.41" font-family="Monaco" font-size="12.00">)</text>
</g>
<g id="clust3" class="cluster">
<title>cluster_dfg_Block1_5</title>
<polygon fill="none" stroke="black" points="1016.64,-325.01 1016.64,-433.01 1124.64,-433.01 1124.64,-325.01 1016.64,-325.01"/>
<text text-anchor="start" x="1041.84" y="-420.41" font-family="Monaco" font-size="12.00">Block1_5</text>
<text text-anchor="start" x="1067.04" y="-408.41" font-family="Monaco" font-size="12.00">(</text>
<text text-anchor="start" x="1063.44" y="-396.41" font-family="Monaco" font-size="12.00">=&gt;</text>
<text text-anchor="start" x="1050.24" y="-384.41" font-family="Monaco" font-size="12.00">@d</text>
<text text-anchor="start" x="1064.64" y="-384.41" font-family="Monaco" baseline-shift="super" font-size="8.00" fill="#00aa11">U1</text>
<text text-anchor="start" x="1074.24" y="-384.41" font-family="Monaco" baseline-shift="super" font-size="8.00" fill="#3311ff">r0</text>
<text text-anchor="start" x="1083.85" y="-384.41" font-family="Monaco" font-size="12.00">)</text>
</g>
<!-- Jump0 -->
<g id="node1" class="node">
<title>Jump0</title>
<polygon fill="none" stroke="black" points="235.76,-369.01 129.53,-369.01 129.53,-365.01 125.53,-365.01 125.53,-361.01 129.53,-361.01 129.53,-341.01 125.53,-341.01 125.53,-337.01 129.53,-337.01 129.53,-333.01 235.76,-333.01 235.76,-369.01"/>
<polyline fill="none" stroke="black" points="129.53,-365.01 133.53,-365.01 133.53,-361.01 129.53,-361.01 "/>
<polyline fill="none" stroke="black" points="129.53,-341.01 133.53,-341.01 133.53,-337.01 129.53,-337.01 "/>
<text text-anchor="start" x="144.84" y="-354.21" font-family="Monaco" baseline-shift="super" font-size="8.00" fill="#ff4411">q0</text>
<text text-anchor="start" x="154.44" y="-354.21" font-family="Monaco" font-size="11.00">StartFun.0</text>
<text text-anchor="start" x="137.34" y="-343.21" font-family="Monaco" font-size="11.00">i</text>
<text text-anchor="start" x="143.94" y="-343.21" font-family="Monaco" baseline-shift="sub" font-size="8.00" fill="#999999">a</text>
<text text-anchor="start" x="148.74" y="-343.21" font-family="Monaco" baseline-shift="super" font-size="8.00" fill="#00aa11">U10</text>
<text text-anchor="start" x="163.14" y="-343.21" font-family="Monaco" baseline-shift="super" font-size="8.00" fill="#3311ff">r0</text>
<text text-anchor="start" x="172.74" y="-343.21" font-family="Monaco" font-size="11.00">,acc</text>
<text text-anchor="start" x="199.15" y="-343.21" font-family="Monaco" baseline-shift="sub" font-size="8.00" fill="#999999">a</text>
<text text-anchor="start" x="203.95" y="-343.21" font-family="Monaco" baseline-shift="super" font-size="8.00" fill="#00aa11">S64</text>
<text text-anchor="start" x="218.35" y="-343.21" font-family="Monaco" baseline-shift="super" font-size="8.00" fill="#3311ff">r1</text>
</g>
<!-- Block0 -->
<g id="node2" class="node">
<title>Block0</title>
<polygon fill="none" stroke="black" points="210.25,-296.01 155.04,-296.01 155.04,-260.01 210.25,-260.01 210.25,-296.01"/>
<text text-anchor="middle" x="182.64" y="-276.54" font-family="Monaco" font-size="11.00">Block0</text>
</g>
<!-- Jump0&#45;&gt;Block0 -->
<g id="edge1" class="edge">
<title>Jump0&#45;&gt;Block0</title>
<path fill="none" stroke="black" d="M182.64,-332.82C182.64,-324.79 182.64,-315.05 182.64,-306.07"/>
<polygon fill="black" stroke="black" points="186.14,-306.03 182.64,-296.03 179.14,-306.03 186.14,-306.03"/>
</g>
<!-- Jump1_7 -->
<g id="node3" class="node">
<title>Jump1_7</title>
<polygon fill="#fbb4ae" stroke="black" points="276.42,-196.9 182.64,-209.34 88.87,-196.9 88.95,-176.77 276.33,-176.77 276.42,-196.9"/>
<text text-anchor="start" x="131.64" y="-190.87" font-family="Monaco" baseline-shift="super" font-size="8.00" fill="#ff4411">q1</text>
<text text-anchor="start" x="141.24" y="-190.87" font-family="Monaco" font-size="11.00">ForLoopTop.1_7</text>
</g>
<!-- Block0&#45;&gt;Jump1_7 -->
<g id="edge2" class="edge">
<title>Block0&#45;&gt;Jump1_7</title>
<path fill="none" stroke="black" d="M182.64,-259.87C182.64,-248.28 182.64,-232.73 182.64,-219.47"/>
<polygon fill="black" stroke="black" points="186.14,-219.45 182.64,-209.45 179.14,-219.45 186.14,-219.45"/>
<text text-anchor="start" x="182.64" y="-234.21" font-family="Monaco" font-size="11.00" fill="#fbb4ae">acc</text>
<text text-anchor="start" x="202.45" y="-234.21" font-family="Monaco" baseline-shift="sub" font-size="8.00" fill="#999999">a</text>
<text text-anchor="start" x="207.25" y="-234.21" font-family="Monaco" baseline-shift="super" font-size="8.00" fill="#00aa11">S64</text>
<text text-anchor="start" x="221.65" y="-234.21" font-family="Monaco" baseline-shift="super" font-size="8.00" fill="#3311ff">r1</text>
<text text-anchor="start" x="231.25" y="-234.21" font-family="Monaco" font-size="11.00" fill="#fbb4ae">,i</text>
<text text-anchor="start" x="244.45" y="-234.21" font-family="Monaco" baseline-shift="sub" font-size="8.00" fill="#999999">a</text>
<text text-anchor="start" x="249.25" y="-234.21" font-family="Monaco" baseline-shift="super" font-size="8.00" fill="#00aa11">U10</text>
<text text-anchor="start" x="263.66" y="-234.21" font-family="Monaco" baseline-shift="super" font-size="8.00" fill="#3311ff">r0</text>
<text text-anchor="start" x="273.26" y="-234.21" font-family="Monaco" font-size="11.00" fill="#fbb4ae">,@c</text>
<text text-anchor="start" x="293.06" y="-234.21" font-family="Monaco" baseline-shift="sub" font-size="8.00" fill="#999999">a</text>
<text text-anchor="start" x="297.86" y="-234.21" font-family="Monaco" baseline-shift="super" font-size="8.00" fill="#00aa11">U1</text>
<text text-anchor="start" x="307.46" y="-234.21" font-family="Monaco" baseline-shift="super" font-size="8.00" fill="#3311ff">r2</text>
</g>
<!-- Block0_4 -->
<g id="node4" class="node">
<title>Block0_4</title>
<polygon fill="none" stroke="black" points="173.95,-122.67 105.33,-122.67 105.33,-86.67 173.95,-86.67 173.95,-122.67"/>
<text text-anchor="middle" x="139.64" y="-103.2" font-family="Monaco" font-size="11.00">Block0_4</text>
</g>
<!-- Jump1_7&#45;&gt;Block0_4 -->
<g id="edge3" class="edge">
<title>Jump1_7&#45;&gt;Block0_4</title>
<path fill="none" stroke="black" d="M175.74,-176.73C169.62,-164.69 160.52,-146.78 152.99,-131.95"/>
<polygon fill="black" stroke="black" points="155.97,-130.08 148.32,-122.75 149.72,-133.25 155.97,-130.08"/>
<text text-anchor="start" x="164.64" y="-147.54" font-family="Monaco" font-size="11.00">!@c</text>
<text text-anchor="start" x="184.45" y="-147.54" font-family="Monaco" baseline-shift="sub" font-size="8.00" fill="#999999">a</text>
</g>
<!-- Block1_5 -->
<g id="node6" class="node">
<title>Block1_5</title>
<polygon fill="none" stroke="black" points="274.95,-122.67 206.33,-122.67 206.33,-86.67 274.95,-86.67 274.95,-122.67"/>
<text text-anchor="middle" x="240.64" y="-103.2" font-family="Monaco" font-size="11.00">Block1_5</text>
</g>
<!-- Jump1_7&#45;&gt;Block1_5 -->
<g id="edge5" class="edge">
<title>Jump1_7&#45;&gt;Block1_5</title>
<path fill="none" stroke="black" d="M191.96,-176.73C200.37,-164.46 212.95,-146.1 223.22,-131.11"/>
<polygon fill="black" stroke="black" points="226.18,-132.97 228.94,-122.75 220.41,-129.02 226.18,-132.97"/>
<text text-anchor="start" x="215.64" y="-147.54" font-family="Monaco" font-size="11.00">@c</text>
<text text-anchor="start" x="228.85" y="-147.54" font-family="Monaco" baseline-shift="sub" font-size="8.00" fill="#999999">a</text>
</g>
<!-- Jump1_8 -->
<g id="node5" class="node">
<title>Jump1_8</title>
<polygon fill="#fbb4ae" stroke="black" points="-0.14,-12.44 109.64,0 219.43,-12.44 219.33,-32.56 -0.04,-32.56 -0.14,-12.44"/>
<text text-anchor="start" x="48.73" y="-17.53" font-family="Monaco" baseline-shift="super" font-size="8.00" fill="#ff4411">q5</text>
<text text-anchor="start" x="58.34" y="-17.53" font-family="Monaco" font-size="11.00">ForLoopBottom.1_8</text>
</g>
<!-- Block0_4&#45;&gt;Jump1_8 -->
<g id="edge6" class="edge">
<title>Block0_4&#45;&gt;Jump1_8</title>
<path fill="none" stroke="black" d="M133.57,-86.53C129.05,-73.78 122.84,-56.23 117.87,-42.22"/>
<polygon fill="black" stroke="black" points="121.16,-41.01 114.52,-32.76 114.56,-43.35 121.16,-41.01"/>
<text text-anchor="start" x="126.64" y="-60.87" font-family="Monaco" font-size="11.00" fill="#fbb4ae">b</text>
<text text-anchor="start" x="133.24" y="-60.87" font-family="Monaco" baseline-shift="sub" font-size="8.00" fill="#999999">a</text>
<text text-anchor="start" x="138.05" y="-60.87" font-family="Monaco" baseline-shift="super" font-size="8.00" fill="#00aa11">S64</text>
<text text-anchor="start" x="152.45" y="-60.87" font-family="Monaco" baseline-shift="super" font-size="8.00" fill="#3311ff">r1</text>
<text text-anchor="start" x="162.05" y="-60.87" font-family="Monaco" font-size="11.00" fill="#fbb4ae">,@m</text>
<text text-anchor="start" x="181.85" y="-60.87" font-family="Monaco" baseline-shift="sub" font-size="8.00" fill="#999999">a</text>
<text text-anchor="start" x="186.65" y="-60.87" font-family="Monaco" baseline-shift="super" font-size="8.00" fill="#00aa11">U10</text>
<text text-anchor="start" x="201.06" y="-60.87" font-family="Monaco" baseline-shift="super" font-size="8.00" fill="#3311ff">r2</text>
<text text-anchor="start" x="210.66" y="-60.87" font-family="Monaco" font-size="11.00" fill="#fbb4ae">,@c</text>
<text text-anchor="start" x="230.46" y="-60.87" font-family="Monaco" baseline-shift="sub" font-size="8.00" fill="#999999">b</text>
<text text-anchor="start" x="235.26" y="-60.87" font-family="Monaco" baseline-shift="super" font-size="8.00" fill="#00aa11">U1</text>
<text text-anchor="start" x="244.86" y="-60.87" font-family="Monaco" baseline-shift="super" font-size="8.00" fill="#3311ff">r0</text>
</g>
<!-- Jump1_8&#45;&gt;Jump1_7 -->
<g id="edge4" class="edge">
<title>Jump1_8&#45;&gt;Jump1_7</title>
<path fill="none" stroke="#fbb4ae" d="M203.81,-32.64C242.17,-39.15 278.92,-47.02 284.64,-54 303.99,-77.6 297.9,-95.68 283.64,-122.67 271.84,-145.02 248.97,-161.27 227.98,-172.24"/>
<polygon fill="#fbb4ae" stroke="#fbb4ae" points="226.24,-169.19 218.82,-176.76 229.34,-175.47 226.24,-169.19"/>
</g>
<!-- Jump2_4_9 -->
<g id="node7" class="node">
<title>Jump2_4_9</title>
<polygon fill="none" stroke="black" points="341.96,-30 255.33,-30 255.33,-36 237.33,-18 255.33,0 255.33,-6 323.96,-6 323.96,0 341.96,0 341.96,-30"/>
<text text-anchor="start" x="245.24" y="-17.53" font-family="Monaco" baseline-shift="super" font-size="8.00" fill="#ff4411">q6</text>
<text text-anchor="start" x="254.84" y="-17.53" font-family="Monaco" font-size="11.00">Return.2_4_9</text>
</g>
<!-- Block1_5&#45;&gt;Jump2_4_9 -->
<g id="edge7" class="edge">
<title>Block1_5&#45;&gt;Jump2_4_9</title>
<path fill="none" stroke="black" d="M250.56,-86.53C257.47,-74.6 266.81,-58.46 274.62,-44.96"/>
<polygon fill="black" stroke="black" points="277.76,-46.52 279.74,-36.11 271.7,-43.01 277.76,-46.52"/>
<text text-anchor="start" x="267.64" y="-59.87" font-family="Monaco" font-size="11.00">@d</text>
</g>
<!-- 11 -->
<g id="node8" class="node">
<title>11</title>
<ellipse fill="none" stroke="black" cx="352.64" cy="-351.01" rx="99.26" ry="18"/>
<text text-anchor="start" x="283.63" y="-350.54" font-family="Monaco" baseline-shift="super" font-size="8.00" fill="#ff4411">q1</text>
<text text-anchor="start" x="293.23" y="-350.54" font-family="Monaco" font-size="11.00">@c</text>
<text text-anchor="start" x="306.44" y="-350.54" font-family="Monaco" baseline-shift="sub" font-size="8.00" fill="#999999">a</text>
<text text-anchor="start" x="311.24" y="-350.54" font-family="Monaco" baseline-shift="super" font-size="8.00" fill="#00aa11">U1</text>
<text text-anchor="start" x="320.84" y="-350.54" font-family="Monaco" baseline-shift="super" font-size="8.00" fill="#3311ff">r2</text>
<text text-anchor="start" x="330.44" y="-350.54" font-family="Monaco" font-size="11.00">:i</text>
<text text-anchor="start" x="343.64" y="-350.54" font-family="Monaco" baseline-shift="sub" font-size="8.00" fill="#999999">a</text>
<text text-anchor="start" x="348.44" y="-350.54" font-family="Monaco" font-size="11.00">==</text>
<text text-anchor="start" x="361.65" y="-350.54" font-family="Monaco" baseline-shift="super" font-size="8.00" fill="#3311ff">Bin0</text>
<text text-anchor="start" x="380.85" y="-350.54" font-family="Monaco" font-size="11.00">1000</text>
<text text-anchor="start" x="407.25" y="-350.54" font-family="Monaco" baseline-shift="super" font-size="8.00" fill="#00aa11">U10</text>
</g>
<!-- 14 -->
<g id="node9" class="node">
<title>14</title>
<ellipse fill="none" stroke="black" cx="912.64" cy="-351.01" rx="60.52" ry="18"/>
<text text-anchor="start" x="873.64" y="-350.54" font-family="Monaco" baseline-shift="super" font-size="8.00" fill="#ff4411">q3</text>
<text text-anchor="start" x="883.24" y="-350.54" font-family="Monaco" font-size="11.00">@g</text>
<text text-anchor="start" x="896.44" y="-350.54" font-family="Monaco" baseline-shift="sub" font-size="8.00" fill="#999999">a</text>
<text text-anchor="start" x="901.24" y="-350.54" font-family="Monaco" baseline-shift="super" font-size="8.00" fill="#00aa11">S64</text>
<text text-anchor="start" x="915.64" y="-350.54" font-family="Monaco" baseline-shift="super" font-size="8.00" fill="#3311ff">r3</text>
<text text-anchor="start" x="925.25" y="-350.54" font-family="Monaco" font-size="11.00">:a[]</text>
</g>
<!-- 15 -->
<g id="node14" class="node">
<title>15</title>
<ellipse fill="none" stroke="black" cx="912.64" cy="-278.01" rx="87.59" ry="18"/>
<text text-anchor="start" x="852.63" y="-277.54" font-family="Monaco" baseline-shift="super" font-size="8.00" fill="#ff4411">q4</text>
<text text-anchor="start" x="862.24" y="-277.54" font-family="Monaco" font-size="11.00">b</text>
<text text-anchor="start" x="868.84" y="-277.54" font-family="Monaco" baseline-shift="sub" font-size="8.00" fill="#999999">a</text>
<text text-anchor="start" x="873.64" y="-277.54" font-family="Monaco" baseline-shift="super" font-size="8.00" fill="#00aa11">S64</text>
<text text-anchor="start" x="888.04" y="-277.54" font-family="Monaco" baseline-shift="super" font-size="8.00" fill="#3311ff">r1</text>
<text text-anchor="start" x="897.64" y="-277.54" font-family="Monaco" font-size="11.00">:acc</text>
<text text-anchor="start" x="924.05" y="-277.54" font-family="Monaco" baseline-shift="sub" font-size="8.00" fill="#999999">a</text>
<text text-anchor="start" x="928.85" y="-277.54" font-family="Monaco" font-size="11.00">+</text>
<text text-anchor="start" x="935.45" y="-277.54" font-family="Monaco" baseline-shift="super" font-size="8.00" fill="#3311ff">Bin2</text>
<text text-anchor="start" x="954.65" y="-277.54" font-family="Monaco" font-size="11.00">@g</text>
<text text-anchor="start" x="967.85" y="-277.54" font-family="Monaco" baseline-shift="sub" font-size="8.00" fill="#999999">a</text>
</g>
<!-- 14&#45;&gt;15 -->
<g id="edge9" class="edge">
<title>14&#45;&gt;15</title>
<path fill="none" stroke="black" d="M912.64,-332.82C912.64,-324.79 912.64,-315.05 912.64,-306.07"/>
<polygon fill="black" stroke="black" points="916.14,-306.03 912.64,-296.03 909.14,-306.03 916.14,-306.03"/>
</g>
<!-- 13 -->
<g id="node10" class="node">
<title>13</title>
<ellipse fill="none" stroke="black" cx="753.64" cy="-278.01" rx="53.61" ry="18"/>
<text text-anchor="start" x="720.04" y="-277.54" font-family="Monaco" baseline-shift="super" font-size="8.00" fill="#ff4411">q2</text>
<text text-anchor="start" x="729.64" y="-277.54" font-family="Monaco" font-size="11.00">req a[i</text>
<text text-anchor="start" x="775.85" y="-277.54" font-family="Monaco" baseline-shift="sub" font-size="8.00" fill="#999999">a</text>
<text text-anchor="start" x="780.65" y="-277.54" font-family="Monaco" font-size="11.00">]</text>
</g>
<!-- 16 -->
<g id="node13" class="node">
<title>16</title>
<ellipse fill="none" stroke="black" cx="833.64" cy="-191.34" rx="48.3" ry="18"/>
<text text-anchor="start" x="804.24" y="-190.87" font-family="Monaco" baseline-shift="super" font-size="8.00" fill="#ff4411">q5</text>
<text text-anchor="start" x="813.84" y="-190.87" font-family="Monaco" font-size="11.00">a[i</text>
<text text-anchor="start" x="833.64" y="-190.87" font-family="Monaco" baseline-shift="sub" font-size="8.00" fill="#999999">a</text>
<text text-anchor="start" x="838.44" y="-190.87" font-family="Monaco" font-size="11.00">]=b</text>
<text text-anchor="start" x="858.25" y="-190.87" font-family="Monaco" baseline-shift="sub" font-size="8.00" fill="#999999">a</text>
</g>
<!-- 13&#45;&gt;16 -->
<g id="edge11" class="edge">
<title>13&#45;&gt;16</title>
<path fill="none" stroke="black" stroke-dasharray="1,5" d="M769.07,-260.68C781.02,-248.03 797.75,-230.32 811.19,-216.1"/>
<polygon fill="black" stroke="black" points="813.94,-218.28 818.27,-208.61 808.85,-213.48 813.94,-218.28"/>
</g>
<!-- 17 -->
<g id="node11" class="node">
<title>17</title>
<ellipse fill="none" stroke="black" cx="578.64" cy="-278.01" rx="103.26" ry="18"/>
<text text-anchor="start" x="506.33" y="-277.54" font-family="Monaco" baseline-shift="super" font-size="8.00" fill="#ff4411">q5</text>
<text text-anchor="start" x="515.93" y="-277.54" font-family="Monaco" font-size="11.00">@c</text>
<text text-anchor="start" x="529.14" y="-277.54" font-family="Monaco" baseline-shift="sub" font-size="8.00" fill="#999999">b</text>
<text text-anchor="start" x="533.94" y="-277.54" font-family="Monaco" baseline-shift="super" font-size="8.00" fill="#00aa11">U1</text>
<text text-anchor="start" x="543.54" y="-277.54" font-family="Monaco" baseline-shift="super" font-size="8.00" fill="#3311ff">r0</text>
<text text-anchor="start" x="553.14" y="-277.54" font-family="Monaco" font-size="11.00">:@m</text>
<text text-anchor="start" x="572.94" y="-277.54" font-family="Monaco" baseline-shift="sub" font-size="8.00" fill="#999999">a</text>
<text text-anchor="start" x="577.74" y="-277.54" font-family="Monaco" font-size="11.00">==</text>
<text text-anchor="start" x="590.95" y="-277.54" font-family="Monaco" baseline-shift="super" font-size="8.00" fill="#3311ff">Bin0</text>
<text text-anchor="start" x="610.15" y="-277.54" font-family="Monaco" font-size="11.00">1000</text>
<text text-anchor="start" x="636.55" y="-277.54" font-family="Monaco" baseline-shift="super" font-size="8.00" fill="#00aa11">U10</text>
</g>
<!-- 12 -->
<g id="node12" class="node">
<title>12</title>
<ellipse fill="none" stroke="black" cx="578.64" cy="-351.01" rx="82.28" ry="18"/>
<text text-anchor="start" x="522.83" y="-350.54" font-family="Monaco" baseline-shift="super" font-size="8.00" fill="#ff4411">q2</text>
<text text-anchor="start" x="532.44" y="-350.54" font-family="Monaco" font-size="11.00">@m</text>
<text text-anchor="start" x="545.64" y="-350.54" font-family="Monaco" baseline-shift="sub" font-size="8.00" fill="#999999">a</text>
<text text-anchor="start" x="550.44" y="-350.54" font-family="Monaco" baseline-shift="super" font-size="8.00" fill="#00aa11">U10</text>
<text text-anchor="start" x="564.84" y="-350.54" font-family="Monaco" baseline-shift="super" font-size="8.00" fill="#3311ff">r2</text>
<text text-anchor="start" x="574.44" y="-350.54" font-family="Monaco" font-size="11.00">:i</text>
<text text-anchor="start" x="587.65" y="-350.54" font-family="Monaco" baseline-shift="sub" font-size="8.00" fill="#999999">a</text>
<text text-anchor="start" x="592.45" y="-350.54" font-family="Monaco" font-size="11.00">+</text>
<text text-anchor="start" x="599.05" y="-350.54" font-family="Monaco" baseline-shift="super" font-size="8.00" fill="#3311ff">Bin1</text>
<text text-anchor="start" x="618.25" y="-350.54" font-family="Monaco" font-size="11.00">1</text>
<text text-anchor="start" x="624.85" y="-350.54" font-family="Monaco" baseline-shift="super" font-size="8.00" fill="#00aa11">U1</text>
</g>
<!-- 12&#45;&gt;17 -->
<g id="edge8" class="edge">
<title>12&#45;&gt;17</title>
<path fill="none" stroke="black" d="M578.64,-332.82C578.64,-324.79 578.64,-315.05 578.64,-306.07"/>
<polygon fill="black" stroke="black" points="582.14,-306.03 578.64,-296.03 575.14,-306.03 582.14,-306.03"/>
</g>
<!-- 15&#45;&gt;16 -->
<g id="edge10" class="edge">
<title>15&#45;&gt;16</title>
<path fill="none" stroke="black" d="M897.04,-260.28C885.2,-247.59 868.78,-229.99 855.61,-215.88"/>
<polygon fill="black" stroke="black" points="858.06,-213.38 848.68,-208.46 852.95,-218.15 858.06,-213.38"/>
</g>
<!-- 18 -->
<g id="node15" class="node">
<title>18</title>
<ellipse fill="none" stroke="black" cx="1070.64" cy="-351.01" rx="45.66" ry="18"/>
<text text-anchor="start" x="1043.04" y="-350.54" font-family="Monaco" baseline-shift="super" font-size="8.00" fill="#ff4411">q6</text>
<text text-anchor="start" x="1052.64" y="-350.54" font-family="Monaco" font-size="11.00">@d</text>
<text text-anchor="start" x="1065.84" y="-350.54" font-family="Monaco" baseline-shift="super" font-size="8.00" fill="#00aa11">U1</text>
<text text-anchor="start" x="1075.44" y="-350.54" font-family="Monaco" baseline-shift="super" font-size="8.00" fill="#3311ff">r0</text>
<text text-anchor="start" x="1085.05" y="-350.54" font-family="Monaco" font-size="11.00">:0</text>
</g>
</g>
</svg>
