<?xml version="1.0" encoding="UTF-8" standalone="no"?>
<!DOCTYPE svg PUBLIC "-//W3C//DTD SVG 1.1//EN"
 "http://www.w3.org/Graphics/SVG/1.1/DTD/svg11.dtd">
<!-- Generated by graphviz version 2.43.0 (0)
 -->
<!-- Title: Program_ Pages: 1 -->
<svg width="751pt" height="583pt"
 viewBox="0.00 0.00 751.37 582.59" xmlns="http://www.w3.org/2000/svg" xmlns:xlink="http://www.w3.org/1999/xlink">
<g id="graph0" class="graph" transform="scale(1 1) rotate(0) translate(4 578.59)">
<title>Program_</title>
<polygon fill="white" stroke="transparent" points="-4,4 -4,-578.59 747.37,-578.59 747.37,4 -4,4"/>
<g id="clust2" class="cluster">
<title>cluster_dfg_Block1</title>
<polygon fill="none" stroke="black" points="281.37,-490.59 281.37,-566.59 389.37,-566.59 389.37,-490.59 281.37,-490.59"/>
<text text-anchor="middle" x="335.37" y="-552.99" font-family="Monaco" font-size="12.00">Block1</text>
</g>
<g id="clust3" class="cluster">
<title>cluster_dfg_Block2</title>
<polygon fill="none" stroke="black" points="397.37,-344.59 397.37,-566.59 735.37,-566.59 735.37,-344.59 397.37,-344.59"/>
<text text-anchor="middle" x="566.37" y="-552.99" font-family="Monaco" font-size="12.00">Block2</text>
</g>
<g id="clust1" class="cluster">
<title>cluster_dfg_Block0</title>
<polygon fill="none" stroke="black" points="125.37,-417.59 125.37,-566.59 273.37,-566.59 273.37,-417.59 125.37,-417.59"/>
<text text-anchor="middle" x="199.37" y="-552.99" font-family="Monaco" font-size="12.00">Block0</text>
</g>
<!-- Jump0 -->
<g id="node1" class="node">
<title>Jump0</title>
<polygon fill="none" stroke="black" points="116.98,-534.59 25.76,-534.59 25.76,-530.59 21.76,-530.59 21.76,-526.59 25.76,-526.59 25.76,-506.59 21.76,-506.59 21.76,-502.59 25.76,-502.59 25.76,-498.59 116.98,-498.59 116.98,-534.59"/>
<polyline fill="none" stroke="black" points="25.76,-530.59 29.76,-530.59 29.76,-526.59 25.76,-526.59 "/>
<polyline fill="none" stroke="black" points="25.76,-506.59 29.76,-506.59 29.76,-502.59 25.76,-502.59 "/>
<text text-anchor="start" x="33.56" y="-519.79" font-family="Monaco" font-size="11.00">StartFun.0</text>
<text text-anchor="start" x="99.57" y="-519.79" font-family="Monaco" baseline-shift="super" font-size="8.00" fill="#ff4411">q?</text>
<text text-anchor="start" x="54.87" y="-508.79" font-family="Monaco" font-size="11.00">i,acc</text>
</g>
<!-- Block0 -->
<g id="node2" class="node">
<title>Block0</title>
<polygon fill="none" stroke="black" points="98.98,-461.59 43.76,-461.59 43.76,-425.59 98.98,-425.59 98.98,-461.59"/>
<text text-anchor="middle" x="71.37" y="-442.13" font-family="Monaco" font-size="11.00">Block0</text>
</g>
<!-- Jump0&#45;&gt;Block0 -->
<g id="edge1" class="edge">
<title>Jump0&#45;&gt;Block0</title>
<path fill="none" stroke="black" d="M71.37,-498.41C71.37,-490.38 71.37,-480.64 71.37,-471.66"/>
<polygon fill="black" stroke="black" points="74.87,-471.62 71.37,-461.62 67.87,-471.62 74.87,-471.62"/>
</g>
<!-- Jump1 -->
<g id="node3" class="node">
<title>Jump1</title>
<path fill="none" stroke="black" d="M100.98,-388.59C100.98,-388.59 41.76,-388.59 41.76,-388.59 35.76,-388.59 25.95,-383.96 22.14,-379.33 22.14,-379.33 7.76,-361.86 7.76,-361.86 3.94,-357.22 6.13,-352.59 12.13,-352.59 12.13,-352.59 130.61,-352.59 130.61,-352.59 136.61,-352.59 138.8,-357.22 134.98,-361.86 134.98,-361.86 120.6,-379.33 120.6,-379.33 116.79,-383.96 106.98,-388.59 100.98,-388.59"/>
<text text-anchor="start" x="40.17" y="-370.13" font-family="Monaco" font-size="11.00">Branch.1</text>
<text text-anchor="start" x="92.97" y="-370.13" font-family="Monaco" baseline-shift="super" font-size="8.00" fill="#ff4411">q?</text>
</g>
<!-- Block0&#45;&gt;Jump1 -->
<g id="edge2" class="edge">
<title>Block0&#45;&gt;Jump1</title>
<path fill="none" stroke="black" d="M71.37,-425.41C71.37,-417.38 71.37,-407.64 71.37,-398.66"/>
<polygon fill="black" stroke="black" points="74.87,-398.62 71.37,-388.62 67.87,-398.62 74.87,-398.62"/>
</g>
<!-- Block1 -->
<g id="node4" class="node">
<title>Block1</title>
<polygon fill="none" stroke="black" points="61.98,-301.92 6.76,-301.92 6.76,-265.92 61.98,-265.92 61.98,-301.92"/>
<text text-anchor="middle" x="34.37" y="-282.46" font-family="Monaco" font-size="11.00">Block1</text>
</g>
<!-- Jump1&#45;&gt;Block1 -->
<g id="edge3" class="edge">
<title>Jump1&#45;&gt;Block1</title>
<path fill="none" stroke="black" d="M63.88,-352.46C58.72,-340.64 51.75,-324.7 45.88,-311.27"/>
<polygon fill="black" stroke="black" points="49.06,-309.79 41.85,-302.03 42.64,-312.6 49.06,-309.79"/>
<text text-anchor="middle" x="61.97" y="-325.79" font-family="Monaco" font-size="11.00">@b</text>
</g>
<!-- Block2 -->
<g id="node5" class="node">
<title>Block2</title>
<polygon fill="none" stroke="black" points="135.98,-301.92 80.76,-301.92 80.76,-265.92 135.98,-265.92 135.98,-301.92"/>
<text text-anchor="middle" x="108.37" y="-282.46" font-family="Monaco" font-size="11.00">Block2</text>
</g>
<!-- Jump1&#45;&gt;Block2 -->
<g id="edge4" class="edge">
<title>Jump1&#45;&gt;Block2</title>
<path fill="none" stroke="black" d="M78.86,-352.46C84.02,-340.64 90.99,-324.7 96.86,-311.27"/>
<polygon fill="black" stroke="black" points="100.1,-312.6 100.89,-302.03 93.68,-309.79 100.1,-312.6"/>
<text text-anchor="middle" x="102.27" y="-325.79" font-family="Monaco" font-size="11.00">!@b</text>
</g>
<!-- Jump2 -->
<g id="node6" class="node">
<title>Jump2</title>
<path fill="none" stroke="black" d="M45.28,-179.26C45.28,-179.26 97.46,-179.26 97.46,-179.26 103.46,-179.26 113.07,-184.05 116.68,-188.84 116.68,-188.84 129.37,-205.67 129.37,-205.67 132.98,-210.46 130.59,-215.26 124.59,-215.26 124.59,-215.26 18.15,-215.26 18.15,-215.26 12.15,-215.26 9.76,-210.46 13.37,-205.67 13.37,-205.67 26.06,-188.84 26.06,-188.84 29.67,-184.05 39.28,-179.26 45.28,-179.26"/>
<text text-anchor="start" x="43.47" y="-196.79" font-family="Monaco" font-size="11.00">Merge.2</text>
<text text-anchor="start" x="89.67" y="-196.79" font-family="Monaco" baseline-shift="super" font-size="8.00" fill="#ff4411">q?</text>
</g>
<!-- Block1&#45;&gt;Jump2 -->
<g id="edge5" class="edge">
<title>Block1&#45;&gt;Jump2</title>
<path fill="none" stroke="black" d="M41.86,-265.79C47.02,-253.97 53.99,-238.03 59.86,-224.6"/>
<polygon fill="black" stroke="black" points="63.1,-225.93 63.89,-215.36 56.68,-223.13 63.1,-225.93"/>
<text text-anchor="middle" x="61.97" y="-239.12" font-family="Monaco" font-size="11.00">@c</text>
</g>
<!-- Block2&#45;&gt;Jump2 -->
<g id="edge6" class="edge">
<title>Block2&#45;&gt;Jump2</title>
<path fill="none" stroke="black" d="M100.88,-265.79C95.72,-253.97 88.75,-238.03 82.88,-224.6"/>
<polygon fill="black" stroke="black" points="86.06,-223.13 78.85,-215.36 79.64,-225.93 86.06,-223.13"/>
<text text-anchor="middle" x="98.97" y="-239.12" font-family="Monaco" font-size="11.00">@g</text>
</g>
<!-- Block3 -->
<g id="node7" class="node">
<title>Block3</title>
<polygon fill="none" stroke="black" points="98.98,-128.55 43.76,-128.55 43.76,-86.71 98.98,-86.71 98.98,-128.55"/>
<text text-anchor="start" x="51.57" y="-115.79" font-family="Monaco" font-size="11.00">Block3</text>
<text text-anchor="middle" x="71.37" y="-101.12" font-family="Monaco" font-size="11.00">(0行)</text>
</g>
<!-- Jump2&#45;&gt;Block3 -->
<g id="edge7" class="edge">
<title>Jump2&#45;&gt;Block3</title>
<path fill="none" stroke="black" d="M71.37,-178.94C71.37,-167.53 71.37,-152.27 71.37,-138.89"/>
<polygon fill="black" stroke="black" points="74.87,-138.66 71.37,-128.66 67.87,-138.66 74.87,-138.66"/>
<text text-anchor="middle" x="77.97" y="-152.46" font-family="Monaco" font-size="11.00">@h</text>
</g>
<!-- Jump3 -->
<g id="node8" class="node">
<title>Jump3</title>
<polygon fill="none" stroke="black" points="110.78,-30 49.96,-30 49.96,-36 31.96,-18 49.96,0 49.96,-6 92.78,-6 92.78,0 110.78,0 110.78,-30"/>
<text text-anchor="start" x="40.17" y="-17.53" font-family="Monaco" font-size="11.00">Return.3</text>
<text text-anchor="start" x="92.97" y="-17.53" font-family="Monaco" baseline-shift="super" font-size="8.00" fill="#ff4411">q?</text>
</g>
<!-- Block3&#45;&gt;Jump3 -->
<g id="edge8" class="edge">
<title>Block3&#45;&gt;Jump3</title>
<path fill="none" stroke="black" d="M71.37,-86.3C71.37,-74.45 71.37,-59.35 71.37,-46.45"/>
<polygon fill="black" stroke="black" points="74.87,-46.26 71.37,-36.26 67.87,-46.26 74.87,-46.26"/>
<text text-anchor="middle" x="77.97" y="-59.87" font-family="Monaco" font-size="11.00">@h</text>
</g>
<!-- ndBlock0_0 -->
<g id="node9" class="node">
<title>ndBlock0_0</title>
<ellipse fill="none" stroke="black" cx="199.37" cy="-516.59" rx="61.83" ry="18"/>
<text text-anchor="start" x="159.46" y="-516.13" font-family="Monaco" font-size="11.00">@a</text>
<text text-anchor="start" x="172.67" y="-516.13" font-family="Monaco" baseline-shift="super" font-size="8.00" fill="#00dd33">U10</text>
<text text-anchor="start" x="187.07" y="-516.13" font-family="Monaco" baseline-shift="super" font-size="8.00" fill="#3311ff">r?</text>
<text text-anchor="start" x="196.67" y="-516.13" font-family="Monaco" font-size="11.00">:1000</text>
<text text-anchor="start" x="229.68" y="-516.13" font-family="Monaco" baseline-shift="super" font-size="8.00" fill="#ff4411">q?</text>
</g>
<!-- ndBlock0_1 -->
<g id="node10" class="node">
<title>ndBlock0_1</title>
<ellipse fill="none" stroke="black" cx="199.37" cy="-443.59" rx="65.83" ry="18"/>
<text text-anchor="start" x="156.16" y="-443.13" font-family="Monaco" font-size="11.00">@b</text>
<text text-anchor="start" x="169.37" y="-443.13" font-family="Monaco" baseline-shift="super" font-size="8.00" fill="#00dd33">U1</text>
<text text-anchor="start" x="178.97" y="-443.13" font-family="Monaco" baseline-shift="super" font-size="8.00" fill="#3311ff">r?</text>
<text text-anchor="start" x="188.57" y="-443.13" font-family="Monaco" font-size="11.00">:i==</text>
<text text-anchor="start" x="214.97" y="-443.13" font-family="Monaco" baseline-shift="super" font-size="8.00" fill="#3311ff">?</text>
<text text-anchor="start" x="219.77" y="-443.13" font-family="Monaco" font-size="11.00">@a</text>
<text text-anchor="start" x="232.98" y="-443.13" font-family="Monaco" baseline-shift="super" font-size="8.00" fill="#ff4411">q?</text>
</g>
<!-- ndBlock0_0&#45;&gt;ndBlock0_1 -->
<g id="edge9" class="edge">
<title>ndBlock0_0&#45;&gt;ndBlock0_1</title>
<path fill="none" stroke="black" d="M199.37,-498.41C199.37,-490.38 199.37,-480.64 199.37,-471.66"/>
<polygon fill="black" stroke="black" points="202.87,-471.62 199.37,-461.62 195.87,-471.62 202.87,-471.62"/>
</g>
<!-- ndBlock1_0 -->
<g id="node11" class="node">
<title>ndBlock1_0</title>
<ellipse fill="none" stroke="black" cx="335.37" cy="-516.59" rx="45.66" ry="18"/>
<text text-anchor="start" x="307.77" y="-516.13" font-family="Monaco" font-size="11.00">@c</text>
<text text-anchor="start" x="320.97" y="-516.13" font-family="Monaco" baseline-shift="super" font-size="8.00" fill="#00dd33">U1</text>
<text text-anchor="start" x="330.57" y="-516.13" font-family="Monaco" baseline-shift="super" font-size="8.00" fill="#3311ff">r?</text>
<text text-anchor="start" x="340.17" y="-516.13" font-family="Monaco" font-size="11.00">:0</text>
<text text-anchor="start" x="353.37" y="-516.13" font-family="Monaco" baseline-shift="super" font-size="8.00" fill="#ff4411">q?</text>
</g>
<!-- ndBlock2_0 -->
<g id="node12" class="node">
<title>ndBlock2_0</title>
<ellipse fill="none" stroke="black" cx="654.37" cy="-516.59" rx="45.66" ry="18"/>
<text text-anchor="start" x="626.77" y="-516.13" font-family="Monaco" font-size="11.00">@e</text>
<text text-anchor="start" x="639.97" y="-516.13" font-family="Monaco" baseline-shift="super" font-size="8.00" fill="#00dd33">U1</text>
<text text-anchor="start" x="649.57" y="-516.13" font-family="Monaco" baseline-shift="super" font-size="8.00" fill="#3311ff">r?</text>
<text text-anchor="start" x="659.17" y="-516.13" font-family="Monaco" font-size="11.00">:1</text>
<text text-anchor="start" x="672.37" y="-516.13" font-family="Monaco" baseline-shift="super" font-size="8.00" fill="#ff4411">q?</text>
</g>
<!-- ndBlock2_4 -->
<g id="node16" class="node">
<title>ndBlock2_4</title>
<ellipse fill="none" stroke="black" cx="654.37" cy="-443.59" rx="64.52" ry="18"/>
<text text-anchor="start" x="612.06" y="-443.13" font-family="Monaco" font-size="11.00">@f</text>
<text text-anchor="start" x="625.27" y="-443.13" font-family="Monaco" baseline-shift="super" font-size="8.00" fill="#00dd33">U10</text>
<text text-anchor="start" x="639.67" y="-443.13" font-family="Monaco" baseline-shift="super" font-size="8.00" fill="#3311ff">r?</text>
<text text-anchor="start" x="649.27" y="-443.13" font-family="Monaco" font-size="11.00">:i+</text>
<text text-anchor="start" x="669.07" y="-443.13" font-family="Monaco" baseline-shift="super" font-size="8.00" fill="#3311ff">?</text>
<text text-anchor="start" x="673.87" y="-443.13" font-family="Monaco" font-size="11.00">@e</text>
<text text-anchor="start" x="687.08" y="-443.13" font-family="Monaco" baseline-shift="super" font-size="8.00" fill="#ff4411">q?</text>
</g>
<!-- ndBlock2_0&#45;&gt;ndBlock2_4 -->
<g id="edge14" class="edge">
<title>ndBlock2_0&#45;&gt;ndBlock2_4</title>
<path fill="none" stroke="black" d="M654.37,-498.41C654.37,-490.38 654.37,-480.64 654.37,-471.66"/>
<polygon fill="black" stroke="black" points="657.87,-471.62 654.37,-461.62 650.87,-471.62 657.87,-471.62"/>
</g>
<!-- ndBlock2_1 -->
<g id="node13" class="node">
<title>ndBlock2_1</title>
<ellipse fill="none" stroke="black" cx="478.37" cy="-516.59" rx="61.83" ry="18"/>
<text text-anchor="start" x="438.46" y="-516.13" font-family="Monaco" font-size="11.00">@d</text>
<text text-anchor="start" x="451.67" y="-516.13" font-family="Monaco" baseline-shift="super" font-size="8.00" fill="#00dd33">S32</text>
<text text-anchor="start" x="466.07" y="-516.13" font-family="Monaco" baseline-shift="super" font-size="8.00" fill="#3311ff">r?</text>
<text text-anchor="start" x="475.67" y="-516.13" font-family="Monaco" font-size="11.00">:a[i]</text>
<text text-anchor="start" x="508.68" y="-516.13" font-family="Monaco" baseline-shift="super" font-size="8.00" fill="#ff4411">q?</text>
</g>
<!-- ndBlock2_2 -->
<g id="node14" class="node">
<title>ndBlock2_2</title>
<ellipse fill="none" stroke="black" cx="447.37" cy="-370.59" rx="41.94" ry="18"/>
<text text-anchor="start" x="422.77" y="-370.13" font-family="Monaco" font-size="11.00">a[i]=b</text>
<text text-anchor="start" x="462.37" y="-370.13" font-family="Monaco" baseline-shift="super" font-size="8.00" fill="#ff4411">q?</text>
</g>
<!-- ndBlock2_1&#45;&gt;ndBlock2_2 -->
<g id="edge15" class="edge">
<title>ndBlock2_1&#45;&gt;ndBlock2_2</title>
<path fill="none" stroke="black" stroke-dasharray="1,5" d="M455.4,-499.67C443.74,-490.14 430.71,-476.9 424.37,-461.59 415.7,-440.66 423.47,-415.59 432.26,-397.23"/>
<polygon fill="black" stroke="black" points="435.39,-398.8 436.86,-388.3 429.17,-395.59 435.39,-398.8"/>
</g>
<!-- ndBlock2_5 -->
<g id="node17" class="node">
<title>ndBlock2_5</title>
<ellipse fill="none" stroke="black" cx="502.37" cy="-443.59" rx="69.01" ry="18"/>
<text text-anchor="start" x="456.76" y="-443.13" font-family="Monaco" font-size="11.00">b</text>
<text text-anchor="start" x="463.36" y="-443.13" font-family="Monaco" baseline-shift="super" font-size="8.00" fill="#00dd33">S64</text>
<text text-anchor="start" x="477.77" y="-443.13" font-family="Monaco" baseline-shift="super" font-size="8.00" fill="#3311ff">r?</text>
<text text-anchor="start" x="487.37" y="-443.13" font-family="Monaco" font-size="11.00">:acc+</text>
<text text-anchor="start" x="520.37" y="-443.13" font-family="Monaco" baseline-shift="super" font-size="8.00" fill="#3311ff">?</text>
<text text-anchor="start" x="525.17" y="-443.13" font-family="Monaco" font-size="11.00">@d</text>
<text text-anchor="start" x="538.38" y="-443.13" font-family="Monaco" baseline-shift="super" font-size="8.00" fill="#ff4411">q?</text>
</g>
<!-- ndBlock2_1&#45;&gt;ndBlock2_5 -->
<g id="edge11" class="edge">
<title>ndBlock2_1&#45;&gt;ndBlock2_5</title>
<path fill="none" stroke="black" d="M484.18,-498.41C486.92,-490.29 490.26,-480.43 493.32,-471.37"/>
<polygon fill="black" stroke="black" points="496.73,-472.22 496.61,-461.62 490.1,-469.97 496.73,-472.22"/>
</g>
<!-- ndBlock2_3 -->
<g id="node15" class="node">
<title>ndBlock2_3</title>
<ellipse fill="none" stroke="black" cx="617.37" cy="-370.59" rx="109.62" ry="18"/>
<text text-anchor="start" x="540.26" y="-370.13" font-family="Monaco" font-size="11.00">@g</text>
<text text-anchor="start" x="553.46" y="-370.13" font-family="Monaco" baseline-shift="super" font-size="8.00" fill="#00dd33">U1</text>
<text text-anchor="start" x="563.06" y="-370.13" font-family="Monaco" baseline-shift="super" font-size="8.00" fill="#3311ff">r?</text>
<text text-anchor="start" x="572.66" y="-370.13" font-family="Monaco" font-size="11.00">:accumulate(@f,b)</text>
<text text-anchor="start" x="684.88" y="-370.13" font-family="Monaco" baseline-shift="super" font-size="8.00" fill="#ff4411">q?</text>
</g>
<!-- ndBlock2_4&#45;&gt;ndBlock2_3 -->
<g id="edge12" class="edge">
<title>ndBlock2_4&#45;&gt;ndBlock2_3</title>
<path fill="none" stroke="black" d="M645.41,-425.41C641.05,-417.03 635.71,-406.79 630.87,-397.49"/>
<polygon fill="black" stroke="black" points="633.97,-395.87 626.24,-388.62 627.76,-399.11 633.97,-395.87"/>
</g>
<!-- ndBlock2_5&#45;&gt;ndBlock2_2 -->
<g id="edge10" class="edge">
<title>ndBlock2_5&#45;&gt;ndBlock2_2</title>
<path fill="none" stroke="black" d="M489.34,-425.77C482.39,-416.8 473.72,-405.6 466.06,-395.72"/>
<polygon fill="black" stroke="black" points="468.82,-393.57 459.93,-387.81 463.29,-397.86 468.82,-393.57"/>
</g>
<!-- ndBlock2_5&#45;&gt;ndBlock2_3 -->
<g id="edge13" class="edge">
<title>ndBlock2_5&#45;&gt;ndBlock2_3</title>
<path fill="none" stroke="black" d="M527.89,-426.84C543.67,-417.09 564.16,-404.44 581.55,-393.71"/>
<polygon fill="black" stroke="black" points="583.65,-396.53 590.32,-388.29 579.97,-390.57 583.65,-396.53"/>
</g>
</g>
</svg>
