<?xml version="1.0" encoding="UTF-8" standalone="no"?>
<!DOCTYPE svg PUBLIC "-//W3C//DTD SVG 1.1//EN"
 "http://www.w3.org/Graphics/SVG/1.1/DTD/svg11.dtd">
<!-- Generated by graphviz version 2.43.0 (0)
 -->
<!-- Title: Program_ Pages: 1 -->
<svg width="832pt" height="411pt"
 viewBox="0.00 0.00 831.81 411.34" xmlns="http://www.w3.org/2000/svg" xmlns:xlink="http://www.w3.org/1999/xlink">
<g id="graph0" class="graph" transform="scale(1 1) rotate(0) translate(4 407.34)">
<title>Program_</title>
<polygon fill="white" stroke="transparent" points="-4,4 -4,-407.34 827.81,-407.34 827.81,4 -4,4"/>
<g id="clust1" class="cluster">
<title>cluster_dfg_Block0</title>
<polygon fill="none" stroke="black" points="152.81,-311.34 152.81,-395.34 405.81,-395.34 405.81,-311.34 152.81,-311.34"/>
<text text-anchor="start" x="257.7" y="-382.74" font-family="Monaco" font-size="12.00">Block0</text>
<text text-anchor="start" x="160.49" y="-370.74" font-family="Monaco" font-size="12.00">(acc</text>
<text text-anchor="start" x="189.29" y="-370.74" font-family="Monaco" baseline-shift="super" font-size="8.00" fill="#00aa11">S64</text>
<text text-anchor="start" x="203.69" y="-370.74" font-family="Monaco" baseline-shift="super" font-size="8.00" fill="#3311ff">r1</text>
<text text-anchor="start" x="213.3" y="-370.74" font-family="Monaco" font-size="12.00">,i</text>
<text text-anchor="start" x="227.7" y="-370.74" font-family="Monaco" baseline-shift="super" font-size="8.00" fill="#00aa11">U10</text>
<text text-anchor="start" x="242.1" y="-370.74" font-family="Monaco" baseline-shift="super" font-size="8.00" fill="#3311ff">r0</text>
<text text-anchor="start" x="251.7" y="-370.74" font-family="Monaco" font-size="12.00">=&gt;acc</text>
<text text-anchor="start" x="287.71" y="-370.74" font-family="Monaco" baseline-shift="super" font-size="8.00" fill="#00aa11">S64</text>
<text text-anchor="start" x="302.11" y="-370.74" font-family="Monaco" baseline-shift="super" font-size="8.00" fill="#3311ff">r1</text>
<text text-anchor="start" x="311.71" y="-370.74" font-family="Monaco" font-size="12.00">,i</text>
<text text-anchor="start" x="326.11" y="-370.74" font-family="Monaco" baseline-shift="super" font-size="8.00" fill="#00aa11">U10</text>
<text text-anchor="start" x="340.52" y="-370.74" font-family="Monaco" baseline-shift="super" font-size="8.00" fill="#3311ff">r0</text>
<text text-anchor="start" x="350.12" y="-370.74" font-family="Monaco" font-size="12.00">,@b</text>
<text text-anchor="start" x="371.72" y="-370.74" font-family="Monaco" baseline-shift="super" font-size="8.00" fill="#00aa11">U1</text>
<text text-anchor="start" x="381.32" y="-370.74" font-family="Monaco" baseline-shift="super" font-size="8.00" fill="#3311ff">r2</text>
<text text-anchor="start" x="390.92" y="-370.74" font-family="Monaco" font-size="12.00">)</text>
</g>
<g id="clust2" class="cluster">
<title>cluster_dfg_Block1</title>
<polygon fill="none" stroke="black" points="413.81,-311.34 413.81,-395.34 521.81,-395.34 521.81,-311.34 413.81,-311.34"/>
<text text-anchor="start" x="446.2" y="-382.74" font-family="Monaco" font-size="12.00">Block1</text>
<text text-anchor="start" x="436.6" y="-370.74" font-family="Monaco" font-size="12.00">(=&gt;@c</text>
<text text-anchor="start" x="472.61" y="-370.74" font-family="Monaco" baseline-shift="super" font-size="8.00" fill="#00aa11">U1</text>
<text text-anchor="start" x="482.21" y="-370.74" font-family="Monaco" baseline-shift="super" font-size="8.00" fill="#3311ff">r0</text>
<text text-anchor="start" x="491.81" y="-370.74" font-family="Monaco" font-size="12.00">)</text>
</g>
<g id="clust3" class="cluster">
<title>cluster_dfg_Block2</title>
<polygon fill="none" stroke="black" points="529.81,-78.67 529.81,-395.34 815.81,-395.34 815.81,-78.67 529.81,-78.67"/>
<text text-anchor="start" x="651.2" y="-382.74" font-family="Monaco" font-size="12.00">Block2</text>
<text text-anchor="start" x="577.99" y="-370.74" font-family="Monaco" font-size="12.00">(acc</text>
<text text-anchor="start" x="606.8" y="-370.74" font-family="Monaco" baseline-shift="super" font-size="8.00" fill="#00aa11">S64</text>
<text text-anchor="start" x="621.2" y="-370.74" font-family="Monaco" baseline-shift="super" font-size="8.00" fill="#3311ff">r1</text>
<text text-anchor="start" x="630.8" y="-370.74" font-family="Monaco" font-size="12.00">,i</text>
<text text-anchor="start" x="645.2" y="-370.74" font-family="Monaco" baseline-shift="super" font-size="8.00" fill="#00aa11">U10</text>
<text text-anchor="start" x="659.6" y="-370.74" font-family="Monaco" baseline-shift="super" font-size="8.00" fill="#3311ff">r0</text>
<text text-anchor="start" x="669.21" y="-370.74" font-family="Monaco" font-size="12.00">=&gt;@f</text>
<text text-anchor="start" x="698.01" y="-370.74" font-family="Monaco" baseline-shift="super" font-size="8.00" fill="#00aa11">U10</text>
<text text-anchor="start" x="712.41" y="-370.74" font-family="Monaco" baseline-shift="super" font-size="8.00" fill="#3311ff">r2</text>
<text text-anchor="start" x="722.01" y="-370.74" font-family="Monaco" font-size="12.00">,b</text>
<text text-anchor="start" x="736.42" y="-370.74" font-family="Monaco" baseline-shift="super" font-size="8.00" fill="#00aa11">S64</text>
<text text-anchor="start" x="750.82" y="-370.74" font-family="Monaco" baseline-shift="super" font-size="8.00" fill="#3311ff">r1</text>
<text text-anchor="start" x="760.42" y="-370.74" font-family="Monaco" font-size="12.00">)</text>
</g>
<!-- Jump0 -->
<g id="node1" class="node">
<title>Jump0</title>
<polygon fill="none" stroke="black" points="144.32,-355.34 47.29,-355.34 47.29,-351.34 43.29,-351.34 43.29,-347.34 47.29,-347.34 47.29,-327.34 43.29,-327.34 43.29,-323.34 47.29,-323.34 47.29,-319.34 144.32,-319.34 144.32,-355.34"/>
<polyline fill="none" stroke="black" points="47.29,-351.34 51.29,-351.34 51.29,-347.34 47.29,-347.34 "/>
<polyline fill="none" stroke="black" points="47.29,-327.34 51.29,-327.34 51.29,-323.34 47.29,-323.34 "/>
<text text-anchor="start" x="58" y="-340.54" font-family="Monaco" baseline-shift="super" font-size="8.00" fill="#ff4411">q0</text>
<text text-anchor="start" x="67.6" y="-340.54" font-family="Monaco" font-size="11.00">StartFun.0</text>
<text text-anchor="start" x="55.3" y="-329.54" font-family="Monaco" font-size="11.00">i</text>
<text text-anchor="start" x="61.9" y="-329.54" font-family="Monaco" baseline-shift="super" font-size="8.00" fill="#00aa11">U10</text>
<text text-anchor="start" x="76.3" y="-329.54" font-family="Monaco" baseline-shift="super" font-size="8.00" fill="#3311ff">r0</text>
<text text-anchor="start" x="85.9" y="-329.54" font-family="Monaco" font-size="11.00">,acc</text>
<text text-anchor="start" x="112.31" y="-329.54" font-family="Monaco" baseline-shift="super" font-size="8.00" fill="#00aa11">S64</text>
<text text-anchor="start" x="126.71" y="-329.54" font-family="Monaco" baseline-shift="super" font-size="8.00" fill="#3311ff">r1</text>
</g>
<!-- Block0 -->
<g id="node2" class="node">
<title>Block0</title>
<polygon fill="none" stroke="black" points="123.41,-282.34 68.2,-282.34 68.2,-246.34 123.41,-246.34 123.41,-282.34"/>
<text text-anchor="middle" x="95.81" y="-262.87" font-family="Monaco" font-size="11.00">Block0</text>
</g>
<!-- Jump0&#45;&gt;Block0 -->
<g id="edge1" class="edge">
<title>Jump0&#45;&gt;Block0</title>
<path fill="none" stroke="black" d="M95.81,-319.15C95.81,-311.13 95.81,-301.38 95.81,-292.41"/>
<polygon fill="black" stroke="black" points="99.31,-292.37 95.81,-282.37 92.31,-292.37 99.31,-292.37"/>
</g>
<!-- Jump1 -->
<g id="node3" class="node">
<title>Jump1</title>
<path fill="none" stroke="black" d="M125.41,-209.34C125.41,-209.34 66.2,-209.34 66.2,-209.34 60.2,-209.34 50.39,-204.7 46.57,-200.07 46.57,-200.07 32.19,-182.6 32.19,-182.6 28.38,-177.97 30.57,-173.34 36.57,-173.34 36.57,-173.34 155.05,-173.34 155.05,-173.34 161.05,-173.34 163.23,-177.97 159.42,-182.6 159.42,-182.6 145.04,-200.07 145.04,-200.07 141.23,-204.7 131.41,-209.34 125.41,-209.34"/>
<text text-anchor="start" x="64.6" y="-190.87" font-family="Monaco" baseline-shift="super" font-size="8.00" fill="#ff4411">q1</text>
<text text-anchor="start" x="74.2" y="-190.87" font-family="Monaco" font-size="11.00">Branch.1</text>
</g>
<!-- Block0&#45;&gt;Jump1 -->
<g id="edge2" class="edge">
<title>Block0&#45;&gt;Jump1</title>
<path fill="none" stroke="black" d="M95.81,-246.15C95.81,-238.13 95.81,-228.38 95.81,-219.41"/>
<polygon fill="black" stroke="black" points="99.31,-219.37 95.81,-209.37 92.31,-219.37 99.31,-219.37"/>
</g>
<!-- Block1 -->
<g id="node4" class="node">
<title>Block1</title>
<polygon fill="none" stroke="black" points="86.41,-122.67 31.2,-122.67 31.2,-86.67 86.41,-86.67 86.41,-122.67"/>
<text text-anchor="middle" x="58.81" y="-103.2" font-family="Monaco" font-size="11.00">Block1</text>
</g>
<!-- Jump1&#45;&gt;Block1 -->
<g id="edge3" class="edge">
<title>Jump1&#45;&gt;Block1</title>
<path fill="none" stroke="black" d="M88.32,-173.2C83.15,-161.38 76.19,-145.44 70.32,-132.01"/>
<polygon fill="black" stroke="black" points="73.49,-130.54 66.28,-122.78 67.08,-133.34 73.49,-130.54"/>
<text text-anchor="middle" x="86.41" y="-146.54" font-family="Monaco" font-size="11.00">@b</text>
</g>
<!-- Block2 -->
<g id="node5" class="node">
<title>Block2</title>
<polygon fill="none" stroke="black" points="185.41,-122.67 130.2,-122.67 130.2,-86.67 185.41,-86.67 185.41,-122.67"/>
<text text-anchor="middle" x="157.81" y="-103.2" font-family="Monaco" font-size="11.00">Block2</text>
</g>
<!-- Jump1&#45;&gt;Block2 -->
<g id="edge4" class="edge">
<title>Jump1&#45;&gt;Block2</title>
<path fill="none" stroke="black" d="M108.35,-173.2C117.26,-161.04 129.36,-144.51 139.37,-130.85"/>
<polygon fill="black" stroke="black" points="142.19,-132.91 145.28,-122.78 136.55,-128.78 142.19,-132.91"/>
<text text-anchor="middle" x="140.71" y="-146.54" font-family="Monaco" font-size="11.00">!@b</text>
</g>
<!-- Jump2_4 -->
<g id="node6" class="node">
<title>Jump2_4</title>
<polygon fill="none" stroke="black" points="91.42,-30 18.19,-30 18.19,-36 0.19,-18 18.19,0 18.19,-6 73.42,-6 73.42,0 91.42,0 91.42,-30"/>
<text text-anchor="start" x="8" y="-17.53" font-family="Monaco" baseline-shift="super" font-size="8.00" fill="#ff4411">q3</text>
<text text-anchor="start" x="17.6" y="-17.53" font-family="Monaco" font-size="11.00">Return.2_4</text>
</g>
<!-- Block1&#45;&gt;Jump2_4 -->
<g id="edge5" class="edge">
<title>Block1&#45;&gt;Jump2_4</title>
<path fill="none" stroke="black" d="M56.18,-86.53C54.4,-74.94 52.01,-59.39 49.97,-46.13"/>
<polygon fill="black" stroke="black" points="53.41,-45.46 48.43,-36.11 46.49,-46.52 53.41,-45.46"/>
<text text-anchor="middle" x="60.41" y="-59.87" font-family="Monaco" font-size="11.00">@c</text>
</g>
<!-- Jump2_5_6 -->
<g id="node7" class="node">
<title>Jump2_5_6</title>
<polygon fill="none" stroke="black" points="231.42,-36 110.19,-36 110.19,-32 106.19,-32 106.19,-28 110.19,-28 110.19,-8 106.19,-8 106.19,-4 110.19,-4 110.19,0 231.42,0 231.42,-36"/>
<polyline fill="none" stroke="black" points="110.19,-32 114.19,-32 114.19,-28 110.19,-28 "/>
<polyline fill="none" stroke="black" points="110.19,-8 114.19,-8 114.19,-4 110.19,-4 "/>
<text text-anchor="start" x="119.8" y="-21.2" font-family="Monaco" baseline-shift="super" font-size="8.00" fill="#ff4411">q8</text>
<text text-anchor="start" x="129.4" y="-21.2" font-family="Monaco" font-size="11.00">TailCall.2_5_6</text>
<text text-anchor="start" x="118" y="-10.2" font-family="Monaco" font-size="11.00">accumulate(@f,b)</text>
</g>
<!-- Block2&#45;&gt;Jump2_5_6 -->
<g id="edge6" class="edge">
<title>Block2&#45;&gt;Jump2_5_6</title>
<path fill="none" stroke="black" d="M160.44,-86.53C162.22,-74.94 164.6,-59.39 166.64,-46.13"/>
<polygon fill="black" stroke="black" points="170.12,-46.52 168.18,-36.11 163.2,-45.46 170.12,-46.52"/>
</g>
<!-- 1 -->
<g id="node8" class="node">
<title>1</title>
<ellipse fill="none" stroke="black" cx="279.81" cy="-337.34" rx="92.9" ry="18"/>
<text text-anchor="start" x="215.6" y="-336.87" font-family="Monaco" baseline-shift="super" font-size="8.00" fill="#ff4411">q1</text>
<text text-anchor="start" x="225.2" y="-336.87" font-family="Monaco" font-size="11.00">@b</text>
<text text-anchor="start" x="238.4" y="-336.87" font-family="Monaco" baseline-shift="super" font-size="8.00" fill="#00aa11">U1</text>
<text text-anchor="start" x="248" y="-336.87" font-family="Monaco" baseline-shift="super" font-size="8.00" fill="#3311ff">r2</text>
<text text-anchor="start" x="257.6" y="-336.87" font-family="Monaco" font-size="11.00">:i==</text>
<text text-anchor="start" x="284.01" y="-336.87" font-family="Monaco" baseline-shift="super" font-size="8.00" fill="#3311ff">Bin0</text>
<text text-anchor="start" x="303.21" y="-336.87" font-family="Monaco" font-size="11.00">1000</text>
<text text-anchor="start" x="329.61" y="-336.87" font-family="Monaco" baseline-shift="super" font-size="8.00" fill="#00aa11">U10</text>
</g>
<!-- 2 -->
<g id="node9" class="node">
<title>2</title>
<ellipse fill="none" stroke="black" cx="467.81" cy="-337.34" rx="45.66" ry="18"/>
<text text-anchor="start" x="440.2" y="-336.87" font-family="Monaco" baseline-shift="super" font-size="8.00" fill="#ff4411">q2</text>
<text text-anchor="start" x="449.8" y="-336.87" font-family="Monaco" font-size="11.00">@c</text>
<text text-anchor="start" x="463.01" y="-336.87" font-family="Monaco" baseline-shift="super" font-size="8.00" fill="#00aa11">U1</text>
<text text-anchor="start" x="472.61" y="-336.87" font-family="Monaco" baseline-shift="super" font-size="8.00" fill="#3311ff">r0</text>
<text text-anchor="start" x="482.21" y="-336.87" font-family="Monaco" font-size="11.00">:0</text>
</g>
<!-- 5 -->
<g id="node10" class="node">
<title>5</title>
<ellipse fill="none" stroke="black" cx="685.81" cy="-191.34" rx="78.05" ry="18"/>
<text text-anchor="start" x="633" y="-190.87" font-family="Monaco" baseline-shift="super" font-size="8.00" fill="#ff4411">q6</text>
<text text-anchor="start" x="642.6" y="-190.87" font-family="Monaco" font-size="11.00">b</text>
<text text-anchor="start" x="649.2" y="-190.87" font-family="Monaco" baseline-shift="super" font-size="8.00" fill="#00aa11">S64</text>
<text text-anchor="start" x="663.6" y="-190.87" font-family="Monaco" baseline-shift="super" font-size="8.00" fill="#3311ff">r1</text>
<text text-anchor="start" x="673.2" y="-190.87" font-family="Monaco" font-size="11.00">:acc+</text>
<text text-anchor="start" x="706.21" y="-190.87" font-family="Monaco" baseline-shift="super" font-size="8.00" fill="#3311ff">Bin2</text>
<text text-anchor="start" x="725.41" y="-190.87" font-family="Monaco" font-size="11.00">@d</text>
</g>
<!-- 6 -->
<g id="node11" class="node">
<title>6</title>
<ellipse fill="none" stroke="black" cx="737.81" cy="-104.67" rx="41.94" ry="18"/>
<text text-anchor="start" x="713.2" y="-104.2" font-family="Monaco" baseline-shift="super" font-size="8.00" fill="#ff4411">q7</text>
<text text-anchor="start" x="722.8" y="-104.2" font-family="Monaco" font-size="11.00">a[i]=b</text>
</g>
<!-- 5&#45;&gt;6 -->
<g id="edge8" class="edge">
<title>5&#45;&gt;6</title>
<path fill="none" stroke="black" d="M696.33,-173.2C703.76,-161.11 713.83,-144.71 722.19,-131.09"/>
<polygon fill="black" stroke="black" points="725.4,-132.55 727.65,-122.2 719.44,-128.89 725.4,-132.55"/>
</g>
<!-- 3 -->
<g id="node12" class="node">
<title>3</title>
<ellipse fill="none" stroke="black" cx="757.81" cy="-337.34" rx="50.43" ry="18"/>
<text text-anchor="start" x="726.6" y="-336.87" font-family="Monaco" baseline-shift="super" font-size="8.00" fill="#ff4411">q4</text>
<text text-anchor="start" x="736.2" y="-336.87" font-family="Monaco" font-size="11.00">req a[i]</text>
</g>
<!-- 4 -->
<g id="node14" class="node">
<title>4</title>
<ellipse fill="none" stroke="black" cx="750.81" cy="-264.34" rx="57.34" ry="18"/>
<text text-anchor="start" x="714.2" y="-263.87" font-family="Monaco" baseline-shift="super" font-size="8.00" fill="#ff4411">q5</text>
<text text-anchor="start" x="723.8" y="-263.87" font-family="Monaco" font-size="11.00">@d</text>
<text text-anchor="start" x="737" y="-263.87" font-family="Monaco" baseline-shift="super" font-size="8.00" fill="#00aa11">S64</text>
<text text-anchor="start" x="751.41" y="-263.87" font-family="Monaco" baseline-shift="super" font-size="8.00" fill="#3311ff">r3</text>
<text text-anchor="start" x="761.01" y="-263.87" font-family="Monaco" font-size="11.00">:a[]</text>
</g>
<!-- 3&#45;&gt;4 -->
<g id="edge9" class="edge">
<title>3&#45;&gt;4</title>
<path fill="none" stroke="black" d="M756.11,-319.15C755.32,-311.13 754.36,-301.38 753.47,-292.41"/>
<polygon fill="black" stroke="black" points="756.95,-291.97 752.49,-282.37 749.98,-292.66 756.95,-291.97"/>
</g>
<!-- 8 -->
<g id="node13" class="node">
<title>8</title>
<ellipse fill="none" stroke="black" cx="613.81" cy="-337.34" rx="75.92" ry="18"/>
<text text-anchor="start" x="562.8" y="-336.87" font-family="Monaco" baseline-shift="super" font-size="8.00" fill="#ff4411">q4</text>
<text text-anchor="start" x="572.4" y="-336.87" font-family="Monaco" font-size="11.00">@f</text>
<text text-anchor="start" x="585.6" y="-336.87" font-family="Monaco" baseline-shift="super" font-size="8.00" fill="#00aa11">U10</text>
<text text-anchor="start" x="600" y="-336.87" font-family="Monaco" baseline-shift="super" font-size="8.00" fill="#3311ff">r2</text>
<text text-anchor="start" x="609.61" y="-336.87" font-family="Monaco" font-size="11.00">:i+</text>
<text text-anchor="start" x="629.41" y="-336.87" font-family="Monaco" baseline-shift="super" font-size="8.00" fill="#3311ff">Bin1</text>
<text text-anchor="start" x="648.61" y="-336.87" font-family="Monaco" font-size="11.00">1</text>
<text text-anchor="start" x="655.21" y="-336.87" font-family="Monaco" baseline-shift="super" font-size="8.00" fill="#00aa11">U1</text>
</g>
<!-- 4&#45;&gt;5 -->
<g id="edge7" class="edge">
<title>4&#45;&gt;5</title>
<path fill="none" stroke="black" d="M735.73,-246.87C727.56,-237.95 717.31,-226.75 708.23,-216.83"/>
<polygon fill="black" stroke="black" points="710.59,-214.22 701.25,-209.21 705.42,-218.95 710.59,-214.22"/>
</g>
<!-- 4&#45;&gt;6 -->
<g id="edge10" class="edge">
<title>4&#45;&gt;6</title>
<path fill="none" stroke="black" stroke-dasharray="1,5" d="M759.71,-246.36C764.64,-235.97 770.28,-222.25 772.81,-209.34 775.88,-193.64 776.59,-188.88 772.81,-173.34 769.17,-158.39 761.61,-143.05 754.44,-130.76"/>
<polygon fill="black" stroke="black" points="757.31,-128.74 749.11,-122.02 751.33,-132.38 757.31,-128.74"/>
</g>
</g>
</svg>
