<?xml version="1.0" encoding="UTF-8" standalone="no"?>
<!DOCTYPE svg PUBLIC "-//W3C//DTD SVG 1.1//EN"
 "http://www.w3.org/Graphics/SVG/1.1/DTD/svg11.dtd">
<!-- Generated by graphviz version 2.43.0 (0)
 -->
<!-- Title: Program_ Pages: 1 -->
<svg width="782pt" height="435pt"
 viewBox="0.00 0.00 781.81 435.34" xmlns="http://www.w3.org/2000/svg" xmlns:xlink="http://www.w3.org/1999/xlink">
<g id="graph0" class="graph" transform="scale(1 1) rotate(0) translate(4 431.34)">
<title>Program_</title>
<polygon fill="white" stroke="transparent" points="-4,4 -4,-431.34 777.81,-431.34 777.81,4 -4,4"/>
<g id="clust1" class="cluster">
<title>cluster_dfg_Block0</title>
<polygon fill="none" stroke="black" points="153.81,-311.34 153.81,-419.34 355.81,-419.34 355.81,-311.34 153.81,-311.34"/>
<text text-anchor="start" x="233.2" y="-406.74" font-family="Monaco" font-size="12.00">Block0</text>
<text text-anchor="start" x="209.2" y="-394.74" font-family="Monaco" font-size="12.00">(acc</text>
<text text-anchor="start" x="238" y="-394.74" font-family="Monaco" baseline-shift="super" font-size="8.00" fill="#00aa11">S64</text>
<text text-anchor="start" x="252.41" y="-394.74" font-family="Monaco" baseline-shift="super" font-size="8.00" fill="#3311ff">r1</text>
<text text-anchor="start" x="262.01" y="-394.74" font-family="Monaco" font-size="12.00">,i</text>
<text text-anchor="start" x="276.41" y="-394.74" font-family="Monaco" baseline-shift="super" font-size="8.00" fill="#00aa11">U10</text>
<text text-anchor="start" x="290.81" y="-394.74" font-family="Monaco" baseline-shift="super" font-size="8.00" fill="#3311ff">r0</text>
<text text-anchor="start" x="247.6" y="-382.74" font-family="Monaco" font-size="12.00">=&gt;</text>
<text text-anchor="start" x="188.8" y="-370.74" font-family="Monaco" font-size="12.00">acc</text>
<text text-anchor="start" x="210.4" y="-370.74" font-family="Monaco" baseline-shift="super" font-size="8.00" fill="#00aa11">S64</text>
<text text-anchor="start" x="224.8" y="-370.74" font-family="Monaco" baseline-shift="super" font-size="8.00" fill="#3311ff">r1</text>
<text text-anchor="start" x="234.4" y="-370.74" font-family="Monaco" font-size="12.00">,i</text>
<text text-anchor="start" x="248.81" y="-370.74" font-family="Monaco" baseline-shift="super" font-size="8.00" fill="#00aa11">U10</text>
<text text-anchor="start" x="263.21" y="-370.74" font-family="Monaco" baseline-shift="super" font-size="8.00" fill="#3311ff">r0</text>
<text text-anchor="start" x="272.81" y="-370.74" font-family="Monaco" font-size="12.00">,@c</text>
<text text-anchor="start" x="294.41" y="-370.74" font-family="Monaco" baseline-shift="super" font-size="8.00" fill="#00aa11">U1</text>
<text text-anchor="start" x="304.01" y="-370.74" font-family="Monaco" baseline-shift="super" font-size="8.00" fill="#3311ff">r2</text>
<text text-anchor="start" x="313.62" y="-370.74" font-family="Monaco" font-size="12.00">)</text>
</g>
<g id="clust2" class="cluster">
<title>cluster_dfg_Block1</title>
<polygon fill="none" stroke="black" points="363.81,-311.34 363.81,-419.34 471.81,-419.34 471.81,-311.34 363.81,-311.34"/>
<text text-anchor="start" x="396.2" y="-406.74" font-family="Monaco" font-size="12.00">Block1</text>
<text text-anchor="start" x="414.21" y="-394.74" font-family="Monaco" font-size="12.00">(</text>
<text text-anchor="start" x="410.6" y="-382.74" font-family="Monaco" font-size="12.00">=&gt;</text>
<text text-anchor="start" x="397.4" y="-370.74" font-family="Monaco" font-size="12.00">@d</text>
<text text-anchor="start" x="411.81" y="-370.74" font-family="Monaco" baseline-shift="super" font-size="8.00" fill="#00aa11">U1</text>
<text text-anchor="start" x="421.41" y="-370.74" font-family="Monaco" baseline-shift="super" font-size="8.00" fill="#3311ff">r0</text>
<text text-anchor="start" x="431.01" y="-370.74" font-family="Monaco" font-size="12.00">)</text>
</g>
<g id="clust3" class="cluster">
<title>cluster_dfg_Block2</title>
<polygon fill="none" stroke="black" points="479.81,-78.67 479.81,-419.34 765.81,-419.34 765.81,-78.67 479.81,-78.67"/>
<text text-anchor="start" x="601.2" y="-406.74" font-family="Monaco" font-size="12.00">Block2</text>
<text text-anchor="start" x="577.2" y="-394.74" font-family="Monaco" font-size="12.00">(acc</text>
<text text-anchor="start" x="606" y="-394.74" font-family="Monaco" baseline-shift="super" font-size="8.00" fill="#00aa11">S64</text>
<text text-anchor="start" x="620.41" y="-394.74" font-family="Monaco" baseline-shift="super" font-size="8.00" fill="#3311ff">r1</text>
<text text-anchor="start" x="630.01" y="-394.74" font-family="Monaco" font-size="12.00">,i</text>
<text text-anchor="start" x="644.41" y="-394.74" font-family="Monaco" baseline-shift="super" font-size="8.00" fill="#00aa11">U10</text>
<text text-anchor="start" x="658.81" y="-394.74" font-family="Monaco" baseline-shift="super" font-size="8.00" fill="#3311ff">r0</text>
<text text-anchor="start" x="615.6" y="-382.74" font-family="Monaco" font-size="12.00">=&gt;</text>
<text text-anchor="start" x="580.8" y="-370.74" font-family="Monaco" font-size="12.00">@m</text>
<text text-anchor="start" x="595.2" y="-370.74" font-family="Monaco" baseline-shift="super" font-size="8.00" fill="#00aa11">U10</text>
<text text-anchor="start" x="609.6" y="-370.74" font-family="Monaco" baseline-shift="super" font-size="8.00" fill="#3311ff">r2</text>
<text text-anchor="start" x="619.21" y="-370.74" font-family="Monaco" font-size="12.00">,b</text>
<text text-anchor="start" x="633.61" y="-370.74" font-family="Monaco" baseline-shift="super" font-size="8.00" fill="#00aa11">S64</text>
<text text-anchor="start" x="648.01" y="-370.74" font-family="Monaco" baseline-shift="super" font-size="8.00" fill="#3311ff">r1</text>
<text text-anchor="start" x="657.61" y="-370.74" font-family="Monaco" font-size="12.00">)</text>
</g>
<!-- Jump0 -->
<g id="node1" class="node">
<title>Jump0</title>
<polygon fill="none" stroke="black" points="144.32,-355.34 47.29,-355.34 47.29,-351.34 43.29,-351.34 43.29,-347.34 47.29,-347.34 47.29,-327.34 43.29,-327.34 43.29,-323.34 47.29,-323.34 47.29,-319.34 144.32,-319.34 144.32,-355.34"/>
<polyline fill="none" stroke="black" points="47.29,-351.34 51.29,-351.34 51.29,-347.34 47.29,-347.34 "/>
<polyline fill="none" stroke="black" points="47.29,-327.34 51.29,-327.34 51.29,-323.34 47.29,-323.34 "/>
<text text-anchor="start" x="58" y="-340.54" font-family="Monaco" baseline-shift="super" font-size="8.00" fill="#ff4411">q0</text>
<text text-anchor="start" x="67.6" y="-340.54" font-family="Monaco" font-size="11.00">StartFun.0</text>
<text text-anchor="start" x="55.3" y="-329.54" font-family="Monaco" font-size="11.00">i</text>
<text text-anchor="start" x="61.9" y="-329.54" font-family="Monaco" baseline-shift="super" font-size="8.00" fill="#00aa11">U10</text>
<text text-anchor="start" x="76.3" y="-329.54" font-family="Monaco" baseline-shift="super" font-size="8.00" fill="#3311ff">r0</text>
<text text-anchor="start" x="85.9" y="-329.54" font-family="Monaco" font-size="11.00">,acc</text>
<text text-anchor="start" x="112.31" y="-329.54" font-family="Monaco" baseline-shift="super" font-size="8.00" fill="#00aa11">S64</text>
<text text-anchor="start" x="126.71" y="-329.54" font-family="Monaco" baseline-shift="super" font-size="8.00" fill="#3311ff">r1</text>
</g>
<!-- Block0 -->
<g id="node2" class="node">
<title>Block0</title>
<polygon fill="none" stroke="black" points="123.41,-282.34 68.2,-282.34 68.2,-246.34 123.41,-246.34 123.41,-282.34"/>
<text text-anchor="middle" x="95.81" y="-262.87" font-family="Monaco" font-size="11.00">Block0</text>
</g>
<!-- Jump0&#45;&gt;Block0 -->
<g id="edge1" class="edge">
<title>Jump0&#45;&gt;Block0</title>
<path fill="none" stroke="black" d="M95.81,-319.15C95.81,-311.13 95.81,-301.38 95.81,-292.41"/>
<polygon fill="black" stroke="black" points="99.31,-292.37 95.81,-282.37 92.31,-292.37 99.31,-292.37"/>
</g>
<!-- Jump1 -->
<g id="node3" class="node">
<title>Jump1</title>
<path fill="none" stroke="black" d="M125.41,-209.34C125.41,-209.34 66.2,-209.34 66.2,-209.34 60.2,-209.34 50.39,-204.7 46.57,-200.07 46.57,-200.07 32.19,-182.6 32.19,-182.6 28.38,-177.97 30.57,-173.34 36.57,-173.34 36.57,-173.34 155.05,-173.34 155.05,-173.34 161.05,-173.34 163.23,-177.97 159.42,-182.6 159.42,-182.6 145.04,-200.07 145.04,-200.07 141.23,-204.7 131.41,-209.34 125.41,-209.34"/>
<text text-anchor="start" x="64.6" y="-190.87" font-family="Monaco" baseline-shift="super" font-size="8.00" fill="#ff4411">q1</text>
<text text-anchor="start" x="74.2" y="-190.87" font-family="Monaco" font-size="11.00">Branch.1</text>
</g>
<!-- Block0&#45;&gt;Jump1 -->
<g id="edge2" class="edge">
<title>Block0&#45;&gt;Jump1</title>
<path fill="none" stroke="black" d="M95.81,-246.15C95.81,-238.13 95.81,-228.38 95.81,-219.41"/>
<polygon fill="black" stroke="black" points="99.31,-219.37 95.81,-209.37 92.31,-219.37 99.31,-219.37"/>
</g>
<!-- Block1 -->
<g id="node4" class="node">
<title>Block1</title>
<polygon fill="none" stroke="black" points="86.41,-122.67 31.2,-122.67 31.2,-86.67 86.41,-86.67 86.41,-122.67"/>
<text text-anchor="middle" x="58.81" y="-103.2" font-family="Monaco" font-size="11.00">Block1</text>
</g>
<!-- Jump1&#45;&gt;Block1 -->
<g id="edge3" class="edge">
<title>Jump1&#45;&gt;Block1</title>
<path fill="none" stroke="black" d="M88.32,-173.2C83.15,-161.38 76.19,-145.44 70.32,-132.01"/>
<polygon fill="black" stroke="black" points="73.49,-130.54 66.28,-122.78 67.08,-133.34 73.49,-130.54"/>
<text text-anchor="start" x="79.81" y="-146.54" font-family="Monaco" font-size="11.00">@c</text>
</g>
<!-- Block2 -->
<g id="node5" class="node">
<title>Block2</title>
<polygon fill="none" stroke="black" points="185.41,-122.67 130.2,-122.67 130.2,-86.67 185.41,-86.67 185.41,-122.67"/>
<text text-anchor="middle" x="157.81" y="-103.2" font-family="Monaco" font-size="11.00">Block2</text>
</g>
<!-- Jump1&#45;&gt;Block2 -->
<g id="edge4" class="edge">
<title>Jump1&#45;&gt;Block2</title>
<path fill="none" stroke="black" d="M108.35,-173.2C117.26,-161.04 129.36,-144.51 139.37,-130.85"/>
<polygon fill="black" stroke="black" points="142.19,-132.91 145.28,-122.78 136.55,-128.78 142.19,-132.91"/>
<text text-anchor="start" x="130.81" y="-146.54" font-family="Monaco" font-size="11.00">!@c</text>
</g>
<!-- Jump2_4 -->
<g id="node6" class="node">
<title>Jump2_4</title>
<polygon fill="none" stroke="black" points="91.42,-30 18.19,-30 18.19,-36 0.19,-18 18.19,0 18.19,-6 73.42,-6 73.42,0 91.42,0 91.42,-30"/>
<text text-anchor="start" x="8" y="-17.53" font-family="Monaco" baseline-shift="super" font-size="8.00" fill="#ff4411">q2</text>
<text text-anchor="start" x="17.6" y="-17.53" font-family="Monaco" font-size="11.00">Return.2_4</text>
</g>
<!-- Block1&#45;&gt;Jump2_4 -->
<g id="edge5" class="edge">
<title>Block1&#45;&gt;Jump2_4</title>
<path fill="none" stroke="black" d="M56.18,-86.53C54.4,-74.94 52.01,-59.39 49.97,-46.13"/>
<polygon fill="black" stroke="black" points="53.41,-45.46 48.43,-36.11 46.49,-46.52 53.41,-45.46"/>
<text text-anchor="start" x="53.81" y="-59.87" font-family="Monaco" font-size="11.00">@d</text>
</g>
<!-- Jump2_5_6 -->
<g id="node7" class="node">
<title>Jump2_5_6</title>
<polygon fill="none" stroke="black" points="231.42,-36 110.19,-36 110.19,-32 106.19,-32 106.19,-28 110.19,-28 110.19,-8 106.19,-8 106.19,-4 110.19,-4 110.19,0 231.42,0 231.42,-36"/>
<polyline fill="none" stroke="black" points="110.19,-32 114.19,-32 114.19,-28 110.19,-28 "/>
<polyline fill="none" stroke="black" points="110.19,-8 114.19,-8 114.19,-4 110.19,-4 "/>
<text text-anchor="start" x="119.8" y="-21.2" font-family="Monaco" baseline-shift="super" font-size="8.00" fill="#ff4411">q6</text>
<text text-anchor="start" x="129.4" y="-21.2" font-family="Monaco" font-size="11.00">TailCall.2_5_6</text>
<text text-anchor="start" x="118" y="-10.2" font-family="Monaco" font-size="11.00">accumulate(@m,b)</text>
</g>
<!-- Block2&#45;&gt;Jump2_5_6 -->
<g id="edge6" class="edge">
<title>Block2&#45;&gt;Jump2_5_6</title>
<path fill="none" stroke="black" d="M160.44,-86.53C162.22,-74.94 164.6,-59.39 166.64,-46.13"/>
<polygon fill="black" stroke="black" points="170.12,-46.52 168.18,-36.11 163.2,-45.46 170.12,-46.52"/>
</g>
<!-- 1 -->
<g id="node8" class="node">
<title>1</title>
<ellipse fill="none" stroke="black" cx="254.81" cy="-337.34" rx="92.9" ry="18"/>
<text text-anchor="start" x="190.6" y="-336.87" font-family="Monaco" baseline-shift="super" font-size="8.00" fill="#ff4411">q1</text>
<text text-anchor="start" x="200.2" y="-336.87" font-family="Monaco" font-size="11.00">@c</text>
<text text-anchor="start" x="213.4" y="-336.87" font-family="Monaco" baseline-shift="super" font-size="8.00" fill="#00aa11">U1</text>
<text text-anchor="start" x="223" y="-336.87" font-family="Monaco" baseline-shift="super" font-size="8.00" fill="#3311ff">r2</text>
<text text-anchor="start" x="232.6" y="-336.87" font-family="Monaco" font-size="11.00">:i==</text>
<text text-anchor="start" x="259.01" y="-336.87" font-family="Monaco" baseline-shift="super" font-size="8.00" fill="#3311ff">Bin0</text>
<text text-anchor="start" x="278.21" y="-336.87" font-family="Monaco" font-size="11.00">1000</text>
<text text-anchor="start" x="304.61" y="-336.87" font-family="Monaco" baseline-shift="super" font-size="8.00" fill="#00aa11">U10</text>
</g>
<!-- 2 -->
<g id="node9" class="node">
<title>2</title>
<ellipse fill="none" stroke="black" cx="417.81" cy="-337.34" rx="45.66" ry="18"/>
<text text-anchor="start" x="390.2" y="-336.87" font-family="Monaco" baseline-shift="super" font-size="8.00" fill="#ff4411">q2</text>
<text text-anchor="start" x="399.8" y="-336.87" font-family="Monaco" font-size="11.00">@d</text>
<text text-anchor="start" x="413.01" y="-336.87" font-family="Monaco" baseline-shift="super" font-size="8.00" fill="#00aa11">U1</text>
<text text-anchor="start" x="422.61" y="-336.87" font-family="Monaco" baseline-shift="super" font-size="8.00" fill="#3311ff">r0</text>
<text text-anchor="start" x="432.21" y="-336.87" font-family="Monaco" font-size="11.00">:0</text>
</g>
<!-- 5 -->
<g id="node10" class="node">
<title>5</title>
<ellipse fill="none" stroke="black" cx="635.81" cy="-191.34" rx="78.05" ry="18"/>
<text text-anchor="start" x="583" y="-190.87" font-family="Monaco" baseline-shift="super" font-size="8.00" fill="#ff4411">q5</text>
<text text-anchor="start" x="592.6" y="-190.87" font-family="Monaco" font-size="11.00">b</text>
<text text-anchor="start" x="599.2" y="-190.87" font-family="Monaco" baseline-shift="super" font-size="8.00" fill="#00aa11">S64</text>
<text text-anchor="start" x="613.6" y="-190.87" font-family="Monaco" baseline-shift="super" font-size="8.00" fill="#3311ff">r1</text>
<text text-anchor="start" x="623.2" y="-190.87" font-family="Monaco" font-size="11.00">:acc+</text>
<text text-anchor="start" x="656.21" y="-190.87" font-family="Monaco" baseline-shift="super" font-size="8.00" fill="#3311ff">Bin2</text>
<text text-anchor="start" x="675.41" y="-190.87" font-family="Monaco" font-size="11.00">@g</text>
</g>
<!-- 6 -->
<g id="node11" class="node">
<title>6</title>
<ellipse fill="none" stroke="black" cx="687.81" cy="-104.67" rx="41.94" ry="18"/>
<text text-anchor="start" x="663.2" y="-104.2" font-family="Monaco" baseline-shift="super" font-size="8.00" fill="#ff4411">q6</text>
<text text-anchor="start" x="672.8" y="-104.2" font-family="Monaco" font-size="11.00">a[i]=b</text>
</g>
<!-- 5&#45;&gt;6 -->
<g id="edge8" class="edge">
<title>5&#45;&gt;6</title>
<path fill="none" stroke="black" d="M646.33,-173.2C653.76,-161.11 663.83,-144.71 672.19,-131.09"/>
<polygon fill="black" stroke="black" points="675.4,-132.55 677.65,-122.2 669.44,-128.89 675.4,-132.55"/>
</g>
<!-- 3 -->
<g id="node12" class="node">
<title>3</title>
<ellipse fill="none" stroke="black" cx="707.81" cy="-337.34" rx="50.43" ry="18"/>
<text text-anchor="start" x="676.6" y="-336.87" font-family="Monaco" baseline-shift="super" font-size="8.00" fill="#ff4411">q3</text>
<text text-anchor="start" x="686.2" y="-336.87" font-family="Monaco" font-size="11.00">req a[i]</text>
</g>
<!-- 4 -->
<g id="node14" class="node">
<title>4</title>
<ellipse fill="none" stroke="black" cx="700.81" cy="-264.34" rx="57.34" ry="18"/>
<text text-anchor="start" x="664.2" y="-263.87" font-family="Monaco" baseline-shift="super" font-size="8.00" fill="#ff4411">q4</text>
<text text-anchor="start" x="673.8" y="-263.87" font-family="Monaco" font-size="11.00">@g</text>
<text text-anchor="start" x="687" y="-263.87" font-family="Monaco" baseline-shift="super" font-size="8.00" fill="#00aa11">S64</text>
<text text-anchor="start" x="701.41" y="-263.87" font-family="Monaco" baseline-shift="super" font-size="8.00" fill="#3311ff">r3</text>
<text text-anchor="start" x="711.01" y="-263.87" font-family="Monaco" font-size="11.00">:a[]</text>
</g>
<!-- 3&#45;&gt;4 -->
<g id="edge9" class="edge">
<title>3&#45;&gt;4</title>
<path fill="none" stroke="black" d="M706.11,-319.15C705.32,-311.13 704.36,-301.38 703.47,-292.41"/>
<polygon fill="black" stroke="black" points="706.95,-291.97 702.49,-282.37 699.98,-292.66 706.95,-291.97"/>
</g>
<!-- 8 -->
<g id="node13" class="node">
<title>8</title>
<ellipse fill="none" stroke="black" cx="563.81" cy="-337.34" rx="75.92" ry="18"/>
<text text-anchor="start" x="512.8" y="-336.87" font-family="Monaco" baseline-shift="super" font-size="8.00" fill="#ff4411">q3</text>
<text text-anchor="start" x="522.4" y="-336.87" font-family="Monaco" font-size="11.00">@m</text>
<text text-anchor="start" x="535.6" y="-336.87" font-family="Monaco" baseline-shift="super" font-size="8.00" fill="#00aa11">U10</text>
<text text-anchor="start" x="550" y="-336.87" font-family="Monaco" baseline-shift="super" font-size="8.00" fill="#3311ff">r2</text>
<text text-anchor="start" x="559.61" y="-336.87" font-family="Monaco" font-size="11.00">:i+</text>
<text text-anchor="start" x="579.41" y="-336.87" font-family="Monaco" baseline-shift="super" font-size="8.00" fill="#3311ff">Bin1</text>
<text text-anchor="start" x="598.61" y="-336.87" font-family="Monaco" font-size="11.00">1</text>
<text text-anchor="start" x="605.21" y="-336.87" font-family="Monaco" baseline-shift="super" font-size="8.00" fill="#00aa11">U1</text>
</g>
<!-- 4&#45;&gt;5 -->
<g id="edge7" class="edge">
<title>4&#45;&gt;5</title>
<path fill="none" stroke="black" d="M685.73,-246.87C677.56,-237.95 667.31,-226.75 658.23,-216.83"/>
<polygon fill="black" stroke="black" points="660.59,-214.22 651.25,-209.21 655.42,-218.95 660.59,-214.22"/>
</g>
<!-- 4&#45;&gt;6 -->
<g id="edge10" class="edge">
<title>4&#45;&gt;6</title>
<path fill="none" stroke="black" stroke-dasharray="1,5" d="M709.71,-246.36C714.64,-235.97 720.28,-222.25 722.81,-209.34 725.88,-193.64 726.59,-188.88 722.81,-173.34 719.17,-158.39 711.61,-143.05 704.44,-130.76"/>
<polygon fill="black" stroke="black" points="707.31,-128.74 699.11,-122.02 701.33,-132.38 707.31,-128.74"/>
</g>
</g>
</svg>
