<?xml version="1.0" encoding="UTF-8" standalone="no"?>
<!DOCTYPE svg PUBLIC "-//W3C//DTD SVG 1.1//EN"
 "http://www.w3.org/Graphics/SVG/1.1/DTD/svg11.dtd">
<!-- Generated by graphviz version 2.43.0 (0)
 -->
<!-- Title: Program_ Pages: 1 -->
<svg width="1161pt" height="403pt"
 viewBox="0.00 0.00 1160.81 403.34" xmlns="http://www.w3.org/2000/svg" xmlns:xlink="http://www.w3.org/1999/xlink">
<g id="graph0" class="graph" transform="scale(1 1) rotate(0) translate(4 399.34)">
<title>Program_</title>
<polygon fill="white" stroke="transparent" points="-4,4 -4,-399.34 1156.81,-399.34 1156.81,4 -4,4"/>
<g id="clust1" class="cluster">
<title>cluster_dfg_Block0</title>
<polygon fill="none" stroke="black" points="174.81,-165.34 174.81,-387.34 562.81,-387.34 562.81,-165.34 174.81,-165.34"/>
<text text-anchor="middle" x="368.81" y="-373.74" font-family="Monaco" font-size="12.00">Block0</text>
</g>
<g id="clust2" class="cluster">
<title>cluster_dfg_Block1</title>
<polygon fill="none" stroke="black" points="570.81,-238.34 570.81,-387.34 678.81,-387.34 678.81,-238.34 570.81,-238.34"/>
<text text-anchor="middle" x="624.81" y="-373.74" font-family="Monaco" font-size="12.00">Block1</text>
</g>
<g id="clust3" class="cluster">
<title>cluster_dfg_Block2</title>
<polygon fill="none" stroke="black" points="686.81,-78.67 686.81,-387.34 1144.81,-387.34 1144.81,-78.67 686.81,-78.67"/>
<text text-anchor="middle" x="915.81" y="-373.74" font-family="Monaco" font-size="12.00">Block2</text>
</g>
<!-- Jump0 -->
<g id="node1" class="node">
<title>Jump0</title>
<polygon fill="none" stroke="black" points="141.42,-355.34 50.19,-355.34 50.19,-351.34 46.19,-351.34 46.19,-347.34 50.19,-347.34 50.19,-327.34 46.19,-327.34 46.19,-323.34 50.19,-323.34 50.19,-319.34 141.42,-319.34 141.42,-355.34"/>
<polyline fill="none" stroke="black" points="50.19,-351.34 54.19,-351.34 54.19,-347.34 50.19,-347.34 "/>
<polyline fill="none" stroke="black" points="50.19,-327.34 54.19,-327.34 54.19,-323.34 50.19,-323.34 "/>
<text text-anchor="start" x="58" y="-340.54" font-family="Monaco" font-size="11.00">StartFun.0</text>
<text text-anchor="start" x="124.01" y="-340.54" font-family="Monaco" baseline-shift="super" font-size="8.00" fill="#ff4411">q0</text>
<text text-anchor="start" x="79.3" y="-329.54" font-family="Monaco" font-size="11.00">i,acc</text>
</g>
<!-- Block0 -->
<g id="node2" class="node">
<title>Block0</title>
<polygon fill="none" stroke="black" points="123.41,-282.34 68.2,-282.34 68.2,-246.34 123.41,-246.34 123.41,-282.34"/>
<text text-anchor="middle" x="95.81" y="-262.87" font-family="Monaco" font-size="11.00">Block0</text>
</g>
<!-- Jump0&#45;&gt;Block0 -->
<g id="edge1" class="edge">
<title>Jump0&#45;&gt;Block0</title>
<path fill="none" stroke="black" d="M95.81,-319.15C95.81,-311.13 95.81,-301.38 95.81,-292.41"/>
<polygon fill="black" stroke="black" points="99.31,-292.37 95.81,-282.37 92.31,-292.37 99.31,-292.37"/>
</g>
<!-- Jump1 -->
<g id="node3" class="node">
<title>Jump1</title>
<path fill="none" stroke="black" d="M125.41,-209.34C125.41,-209.34 66.2,-209.34 66.2,-209.34 60.2,-209.34 50.39,-204.7 46.57,-200.07 46.57,-200.07 32.19,-182.6 32.19,-182.6 28.38,-177.97 30.57,-173.34 36.57,-173.34 36.57,-173.34 155.05,-173.34 155.05,-173.34 161.05,-173.34 163.23,-177.97 159.42,-182.6 159.42,-182.6 145.04,-200.07 145.04,-200.07 141.23,-204.7 131.41,-209.34 125.41,-209.34"/>
<text text-anchor="start" x="64.6" y="-190.87" font-family="Monaco" font-size="11.00">Branch.1</text>
<text text-anchor="start" x="117.41" y="-190.87" font-family="Monaco" baseline-shift="super" font-size="8.00" fill="#ff4411">q2</text>
</g>
<!-- Block0&#45;&gt;Jump1 -->
<g id="edge2" class="edge">
<title>Block0&#45;&gt;Jump1</title>
<path fill="none" stroke="black" d="M95.81,-246.15C95.81,-238.13 95.81,-228.38 95.81,-219.41"/>
<polygon fill="black" stroke="black" points="99.31,-219.37 95.81,-209.37 92.31,-219.37 99.31,-219.37"/>
</g>
<!-- Block1 -->
<g id="node4" class="node">
<title>Block1</title>
<polygon fill="none" stroke="black" points="86.41,-122.67 31.2,-122.67 31.2,-86.67 86.41,-86.67 86.41,-122.67"/>
<text text-anchor="middle" x="58.81" y="-103.2" font-family="Monaco" font-size="11.00">Block1</text>
</g>
<!-- Jump1&#45;&gt;Block1 -->
<g id="edge3" class="edge">
<title>Jump1&#45;&gt;Block1</title>
<path fill="none" stroke="black" d="M88.32,-173.2C83.15,-161.38 76.19,-145.44 70.32,-132.01"/>
<polygon fill="black" stroke="black" points="73.49,-130.54 66.28,-122.78 67.08,-133.34 73.49,-130.54"/>
<text text-anchor="middle" x="86.41" y="-146.54" font-family="Monaco" font-size="11.00">@b</text>
</g>
<!-- Block2 -->
<g id="node5" class="node">
<title>Block2</title>
<polygon fill="none" stroke="black" points="185.41,-122.67 130.2,-122.67 130.2,-86.67 185.41,-86.67 185.41,-122.67"/>
<text text-anchor="middle" x="157.81" y="-103.2" font-family="Monaco" font-size="11.00">Block2</text>
</g>
<!-- Jump1&#45;&gt;Block2 -->
<g id="edge4" class="edge">
<title>Jump1&#45;&gt;Block2</title>
<path fill="none" stroke="black" d="M108.35,-173.2C117.26,-161.04 129.36,-144.51 139.37,-130.85"/>
<polygon fill="black" stroke="black" points="142.19,-132.91 145.28,-122.78 136.55,-128.78 142.19,-132.91"/>
<text text-anchor="middle" x="140.71" y="-146.54" font-family="Monaco" font-size="11.00">!@b</text>
</g>
<!-- Jump2_4 -->
<g id="node6" class="node">
<title>Jump2_4</title>
<polygon fill="none" stroke="black" points="91.42,-30 18.19,-30 18.19,-36 0.19,-18 18.19,0 18.19,-6 73.42,-6 73.42,0 91.42,0 91.42,-30"/>
<text text-anchor="start" x="8" y="-17.53" font-family="Monaco" font-size="11.00">Return.2_4</text>
<text text-anchor="start" x="74.01" y="-17.53" font-family="Monaco" baseline-shift="super" font-size="8.00" fill="#ff4411">q4</text>
</g>
<!-- Block1&#45;&gt;Jump2_4 -->
<g id="edge5" class="edge">
<title>Block1&#45;&gt;Jump2_4</title>
<path fill="none" stroke="black" d="M56.18,-86.53C54.4,-74.94 52.01,-59.39 49.97,-46.13"/>
<polygon fill="black" stroke="black" points="53.41,-45.46 48.43,-36.11 46.49,-46.52 53.41,-45.46"/>
<text text-anchor="middle" x="60.41" y="-59.87" font-family="Monaco" font-size="11.00">@c</text>
</g>
<!-- Jump2_5_6 -->
<g id="node7" class="node">
<title>Jump2_5_6</title>
<polygon fill="none" stroke="black" points="231.42,-36 110.19,-36 110.19,-32 106.19,-32 106.19,-28 110.19,-28 110.19,-8 106.19,-8 106.19,-4 110.19,-4 110.19,0 231.42,0 231.42,-36"/>
<polyline fill="none" stroke="black" points="110.19,-32 114.19,-32 114.19,-28 110.19,-28 "/>
<polyline fill="none" stroke="black" points="110.19,-8 114.19,-8 114.19,-4 110.19,-4 "/>
<text text-anchor="start" x="119.8" y="-21.2" font-family="Monaco" font-size="11.00">TailCall.2_5_6</text>
<text text-anchor="start" x="212.21" y="-21.2" font-family="Monaco" baseline-shift="super" font-size="8.00" fill="#ff4411">q7</text>
<text text-anchor="start" x="118" y="-10.2" font-family="Monaco" font-size="11.00">accumulate(@f,b)</text>
</g>
<!-- Block2&#45;&gt;Jump2_5_6 -->
<g id="edge6" class="edge">
<title>Block2&#45;&gt;Jump2_5_6</title>
<path fill="none" stroke="black" d="M160.44,-86.53C162.22,-74.94 164.6,-59.39 166.64,-46.13"/>
<polygon fill="black" stroke="black" points="170.12,-46.52 168.18,-36.11 163.2,-45.46 170.12,-46.52"/>
</g>
<!-- ndBlock0_0 -->
<g id="node8" class="node">
<title>ndBlock0_0</title>
<ellipse fill="none" stroke="black" cx="503.81" cy="-264.34" rx="50.43" ry="18"/>
<text text-anchor="start" x="472.6" y="-263.87" font-family="Monaco" font-size="11.00">out(acc)</text>
<text text-anchor="start" x="525.41" y="-263.87" font-family="Monaco" baseline-shift="super" font-size="8.00" fill="#ff4411">q2</text>
</g>
<!-- ndBlock0_1 -->
<g id="node9" class="node">
<title>ndBlock0_1</title>
<ellipse fill="none" stroke="black" cx="497.81" cy="-337.34" rx="57.34" ry="18"/>
<text text-anchor="start" x="461.2" y="-336.87" font-family="Monaco" font-size="11.00">acc</text>
<text text-anchor="start" x="481" y="-336.87" font-family="Monaco" baseline-shift="super" font-size="8.00" fill="#00dd33">S64</text>
<text text-anchor="start" x="495.41" y="-336.87" font-family="Monaco" baseline-shift="super" font-size="8.00" fill="#3311ff">r1</text>
<text text-anchor="start" x="505.01" y="-336.87" font-family="Monaco" font-size="11.00">:in</text>
<text text-anchor="start" x="524.81" y="-336.87" font-family="Monaco" baseline-shift="super" font-size="8.00" fill="#ff4411">q0</text>
</g>
<!-- ndBlock0_1&#45;&gt;ndBlock0_0 -->
<g id="edge7" class="edge">
<title>ndBlock0_1&#45;&gt;ndBlock0_0</title>
<path fill="none" stroke="black" d="M499.26,-319.15C499.94,-311.13 500.76,-301.38 501.52,-292.41"/>
<polygon fill="black" stroke="black" points="505.01,-292.62 502.37,-282.37 498.04,-292.04 505.01,-292.62"/>
</g>
<!-- ndBlock0_2 -->
<g id="node10" class="node">
<title>ndBlock0_2</title>
<ellipse fill="none" stroke="black" cx="231.81" cy="-337.34" rx="48.84" ry="18"/>
<text text-anchor="start" x="201.8" y="-336.87" font-family="Monaco" font-size="11.00">i</text>
<text text-anchor="start" x="208.4" y="-336.87" font-family="Monaco" baseline-shift="super" font-size="8.00" fill="#00dd33">U10</text>
<text text-anchor="start" x="222.8" y="-336.87" font-family="Monaco" baseline-shift="super" font-size="8.00" fill="#3311ff">r0</text>
<text text-anchor="start" x="232.41" y="-336.87" font-family="Monaco" font-size="11.00">:in</text>
<text text-anchor="start" x="252.21" y="-336.87" font-family="Monaco" baseline-shift="super" font-size="8.00" fill="#ff4411">q0</text>
</g>
<!-- ndBlock0_5 -->
<g id="node13" class="node">
<title>ndBlock0_5</title>
<ellipse fill="none" stroke="black" cx="224.81" cy="-264.34" rx="41.94" ry="18"/>
<text text-anchor="start" x="200.2" y="-263.87" font-family="Monaco" font-size="11.00">out(i)</text>
<text text-anchor="start" x="239.81" y="-263.87" font-family="Monaco" baseline-shift="super" font-size="8.00" fill="#ff4411">q2</text>
</g>
<!-- ndBlock0_2&#45;&gt;ndBlock0_5 -->
<g id="edge9" class="edge">
<title>ndBlock0_2&#45;&gt;ndBlock0_5</title>
<path fill="none" stroke="black" d="M230.11,-319.15C229.32,-311.13 228.36,-301.38 227.47,-292.41"/>
<polygon fill="black" stroke="black" points="230.95,-291.97 226.49,-282.37 223.98,-292.66 230.95,-291.97"/>
</g>
<!-- ndBlock0_6 -->
<g id="node14" class="node">
<title>ndBlock0_6</title>
<ellipse fill="none" stroke="black" cx="359.81" cy="-264.34" rx="75.37" ry="18"/>
<text text-anchor="start" x="309.4" y="-263.87" font-family="Monaco" font-size="11.00">@b</text>
<text text-anchor="start" x="322.6" y="-263.87" font-family="Monaco" baseline-shift="super" font-size="8.00" fill="#00dd33">U1</text>
<text text-anchor="start" x="332.2" y="-263.87" font-family="Monaco" baseline-shift="super" font-size="8.00" fill="#3311ff">r2</text>
<text text-anchor="start" x="341.8" y="-263.87" font-family="Monaco" font-size="11.00">:i==</text>
<text text-anchor="start" x="368.21" y="-263.87" font-family="Monaco" baseline-shift="super" font-size="8.00" fill="#3311ff">Bin0</text>
<text text-anchor="start" x="387.41" y="-263.87" font-family="Monaco" font-size="11.00">@a</text>
<text text-anchor="start" x="400.61" y="-263.87" font-family="Monaco" baseline-shift="super" font-size="8.00" fill="#ff4411">q1</text>
</g>
<!-- ndBlock0_2&#45;&gt;ndBlock0_6 -->
<g id="edge10" class="edge">
<title>ndBlock0_2&#45;&gt;ndBlock0_6</title>
<path fill="none" stroke="black" d="M257.71,-321.97C276.29,-311.66 301.61,-297.62 322.38,-286.1"/>
<polygon fill="black" stroke="black" points="324.22,-289.08 331.27,-281.17 320.83,-282.96 324.22,-289.08"/>
</g>
<!-- ndBlock0_3 -->
<g id="node11" class="node">
<title>ndBlock0_3</title>
<ellipse fill="none" stroke="black" cx="359.81" cy="-191.34" rx="46.44" ry="18"/>
<text text-anchor="start" x="331.9" y="-190.87" font-family="Monaco" font-size="11.00">out(@b)</text>
<text text-anchor="start" x="378.11" y="-190.87" font-family="Monaco" baseline-shift="super" font-size="8.00" fill="#ff4411">q2</text>
</g>
<!-- ndBlock0_4 -->
<g id="node12" class="node">
<title>ndBlock0_4</title>
<ellipse fill="none" stroke="black" cx="360.81" cy="-337.34" rx="61.83" ry="18"/>
<text text-anchor="start" x="320.9" y="-336.87" font-family="Monaco" font-size="11.00">@a</text>
<text text-anchor="start" x="334.1" y="-336.87" font-family="Monaco" baseline-shift="super" font-size="8.00" fill="#00dd33">U10</text>
<text text-anchor="start" x="348.5" y="-336.87" font-family="Monaco" baseline-shift="super" font-size="8.00" fill="#3311ff">r2</text>
<text text-anchor="start" x="358.11" y="-336.87" font-family="Monaco" font-size="11.00">:1000</text>
<text text-anchor="start" x="391.11" y="-336.87" font-family="Monaco" baseline-shift="super" font-size="8.00" fill="#ff4411">q0</text>
</g>
<!-- ndBlock0_4&#45;&gt;ndBlock0_6 -->
<g id="edge11" class="edge">
<title>ndBlock0_4&#45;&gt;ndBlock0_6</title>
<path fill="none" stroke="black" d="M360.56,-319.15C360.45,-311.13 360.31,-301.38 360.19,-292.41"/>
<polygon fill="black" stroke="black" points="363.69,-292.32 360.05,-282.37 356.69,-292.41 363.69,-292.32"/>
</g>
<!-- ndBlock0_6&#45;&gt;ndBlock0_3 -->
<g id="edge8" class="edge">
<title>ndBlock0_6&#45;&gt;ndBlock0_3</title>
<path fill="none" stroke="black" d="M359.81,-246.15C359.81,-238.13 359.81,-228.38 359.81,-219.41"/>
<polygon fill="black" stroke="black" points="363.31,-219.37 359.81,-209.37 356.31,-219.37 363.31,-219.37"/>
</g>
<!-- ndBlock1_0 -->
<g id="node15" class="node">
<title>ndBlock1_0</title>
<ellipse fill="none" stroke="black" cx="624.81" cy="-337.34" rx="45.66" ry="18"/>
<text text-anchor="start" x="597.2" y="-336.87" font-family="Monaco" font-size="11.00">@c</text>
<text text-anchor="start" x="610.4" y="-336.87" font-family="Monaco" baseline-shift="super" font-size="8.00" fill="#00dd33">U1</text>
<text text-anchor="start" x="620.01" y="-336.87" font-family="Monaco" baseline-shift="super" font-size="8.00" fill="#3311ff">r0</text>
<text text-anchor="start" x="629.61" y="-336.87" font-family="Monaco" font-size="11.00">:0</text>
<text text-anchor="start" x="642.81" y="-336.87" font-family="Monaco" baseline-shift="super" font-size="8.00" fill="#ff4411">q2</text>
</g>
<!-- ndBlock1_1 -->
<g id="node16" class="node">
<title>ndBlock1_1</title>
<ellipse fill="none" stroke="black" cx="624.81" cy="-264.34" rx="46.44" ry="18"/>
<text text-anchor="start" x="596.9" y="-263.87" font-family="Monaco" font-size="11.00">out(@c)</text>
<text text-anchor="start" x="643.11" y="-263.87" font-family="Monaco" baseline-shift="super" font-size="8.00" fill="#ff4411">q4</text>
</g>
<!-- ndBlock1_0&#45;&gt;ndBlock1_1 -->
<g id="edge12" class="edge">
<title>ndBlock1_0&#45;&gt;ndBlock1_1</title>
<path fill="none" stroke="black" d="M624.81,-319.15C624.81,-311.13 624.81,-301.38 624.81,-292.41"/>
<polygon fill="black" stroke="black" points="628.31,-292.37 624.81,-282.37 621.31,-292.37 628.31,-292.37"/>
</g>
<!-- ndBlock2_0 -->
<g id="node17" class="node">
<title>ndBlock2_0</title>
<ellipse fill="none" stroke="black" cx="768.81" cy="-337.34" rx="45.66" ry="18"/>
<text text-anchor="start" x="741.2" y="-336.87" font-family="Monaco" font-size="11.00">@e</text>
<text text-anchor="start" x="754.4" y="-336.87" font-family="Monaco" baseline-shift="super" font-size="8.00" fill="#00dd33">U1</text>
<text text-anchor="start" x="764.01" y="-336.87" font-family="Monaco" baseline-shift="super" font-size="8.00" fill="#3311ff">r2</text>
<text text-anchor="start" x="773.61" y="-336.87" font-family="Monaco" font-size="11.00">:1</text>
<text text-anchor="start" x="786.81" y="-336.87" font-family="Monaco" baseline-shift="super" font-size="8.00" fill="#ff4411">q2</text>
</g>
<!-- ndBlock2_3 -->
<g id="node20" class="node">
<title>ndBlock2_3</title>
<ellipse fill="none" stroke="black" cx="768.81" cy="-264.34" rx="74.05" ry="18"/>
<text text-anchor="start" x="719.3" y="-263.87" font-family="Monaco" font-size="11.00">@f</text>
<text text-anchor="start" x="732.5" y="-263.87" font-family="Monaco" baseline-shift="super" font-size="8.00" fill="#00dd33">U10</text>
<text text-anchor="start" x="746.9" y="-263.87" font-family="Monaco" baseline-shift="super" font-size="8.00" fill="#3311ff">r3</text>
<text text-anchor="start" x="756.5" y="-263.87" font-family="Monaco" font-size="11.00">:i+</text>
<text text-anchor="start" x="776.31" y="-263.87" font-family="Monaco" baseline-shift="super" font-size="8.00" fill="#3311ff">Bin1</text>
<text text-anchor="start" x="795.51" y="-263.87" font-family="Monaco" font-size="11.00">@e</text>
<text text-anchor="start" x="808.71" y="-263.87" font-family="Monaco" baseline-shift="super" font-size="8.00" fill="#ff4411">q5</text>
</g>
<!-- ndBlock2_0&#45;&gt;ndBlock2_3 -->
<g id="edge17" class="edge">
<title>ndBlock2_0&#45;&gt;ndBlock2_3</title>
<path fill="none" stroke="black" d="M768.81,-319.15C768.81,-311.13 768.81,-301.38 768.81,-292.41"/>
<polygon fill="black" stroke="black" points="772.31,-292.37 768.81,-282.37 765.31,-292.37 772.31,-292.37"/>
</g>
<!-- ndBlock2_1 -->
<g id="node18" class="node">
<title>ndBlock2_1</title>
<ellipse fill="none" stroke="black" cx="972.81" cy="-104.67" rx="41.94" ry="18"/>
<text text-anchor="start" x="948.2" y="-104.2" font-family="Monaco" font-size="11.00">out(b)</text>
<text text-anchor="start" x="987.81" y="-104.2" font-family="Monaco" baseline-shift="super" font-size="8.00" fill="#ff4411">q7</text>
</g>
<!-- ndBlock2_2 -->
<g id="node19" class="node">
<title>ndBlock2_2</title>
<ellipse fill="none" stroke="black" cx="1074.81" cy="-104.67" rx="41.94" ry="18"/>
<text text-anchor="start" x="1050.2" y="-104.2" font-family="Monaco" font-size="11.00">a[i]=b</text>
<text text-anchor="start" x="1089.81" y="-104.2" font-family="Monaco" baseline-shift="super" font-size="8.00" fill="#ff4411">q7</text>
</g>
<!-- ndBlock2_4 -->
<g id="node21" class="node">
<title>ndBlock2_4</title>
<ellipse fill="none" stroke="black" cx="768.81" cy="-191.34" rx="46.44" ry="18"/>
<text text-anchor="start" x="740.9" y="-190.87" font-family="Monaco" font-size="11.00">out(@f)</text>
<text text-anchor="start" x="787.11" y="-190.87" font-family="Monaco" baseline-shift="super" font-size="8.00" fill="#ff4411">q7</text>
</g>
<!-- ndBlock2_3&#45;&gt;ndBlock2_4 -->
<g id="edge16" class="edge">
<title>ndBlock2_3&#45;&gt;ndBlock2_4</title>
<path fill="none" stroke="black" d="M768.81,-246.15C768.81,-238.13 768.81,-228.38 768.81,-219.41"/>
<polygon fill="black" stroke="black" points="772.31,-219.37 768.81,-209.37 765.31,-219.37 772.31,-219.37"/>
</g>
<!-- ndBlock2_5 -->
<g id="node22" class="node">
<title>ndBlock2_5</title>
<ellipse fill="none" stroke="black" cx="917.81" cy="-264.34" rx="57.34" ry="18"/>
<text text-anchor="start" x="881.2" y="-263.87" font-family="Monaco" font-size="11.00">acc</text>
<text text-anchor="start" x="901" y="-263.87" font-family="Monaco" baseline-shift="super" font-size="8.00" fill="#00dd33">S64</text>
<text text-anchor="start" x="915.41" y="-263.87" font-family="Monaco" baseline-shift="super" font-size="8.00" fill="#3311ff">r1</text>
<text text-anchor="start" x="925.01" y="-263.87" font-family="Monaco" font-size="11.00">:in</text>
<text text-anchor="start" x="944.81" y="-263.87" font-family="Monaco" baseline-shift="super" font-size="8.00" fill="#ff4411">q2</text>
</g>
<!-- ndBlock2_6 -->
<g id="node23" class="node">
<title>ndBlock2_6</title>
<ellipse fill="none" stroke="black" cx="975.81" cy="-191.34" rx="78.05" ry="18"/>
<text text-anchor="start" x="923" y="-190.87" font-family="Monaco" font-size="11.00">b</text>
<text text-anchor="start" x="929.6" y="-190.87" font-family="Monaco" baseline-shift="super" font-size="8.00" fill="#00dd33">S64</text>
<text text-anchor="start" x="944" y="-190.87" font-family="Monaco" baseline-shift="super" font-size="8.00" fill="#3311ff">r1</text>
<text text-anchor="start" x="953.6" y="-190.87" font-family="Monaco" font-size="11.00">:acc+</text>
<text text-anchor="start" x="986.61" y="-190.87" font-family="Monaco" baseline-shift="super" font-size="8.00" fill="#3311ff">Bin2</text>
<text text-anchor="start" x="1005.81" y="-190.87" font-family="Monaco" font-size="11.00">@d</text>
<text text-anchor="start" x="1019.01" y="-190.87" font-family="Monaco" baseline-shift="super" font-size="8.00" fill="#ff4411">q6</text>
</g>
<!-- ndBlock2_5&#45;&gt;ndBlock2_6 -->
<g id="edge19" class="edge">
<title>ndBlock2_5&#45;&gt;ndBlock2_6</title>
<path fill="none" stroke="black" d="M931.55,-246.51C938.67,-237.8 947.5,-226.98 955.4,-217.32"/>
<polygon fill="black" stroke="black" points="958.14,-219.49 961.76,-209.54 952.72,-215.07 958.14,-219.49"/>
</g>
<!-- ndBlock2_6&#45;&gt;ndBlock2_1 -->
<g id="edge21" class="edge">
<title>ndBlock2_6&#45;&gt;ndBlock2_1</title>
<path fill="none" stroke="black" d="M975.2,-173.2C974.79,-161.61 974.24,-146.06 973.77,-132.8"/>
<polygon fill="black" stroke="black" points="977.26,-132.65 973.41,-122.78 970.27,-132.89 977.26,-132.65"/>
</g>
<!-- ndBlock2_6&#45;&gt;ndBlock2_2 -->
<g id="edge14" class="edge">
<title>ndBlock2_6&#45;&gt;ndBlock2_2</title>
<path fill="none" stroke="black" d="M995.37,-173.61C1010.67,-160.52 1032.09,-142.2 1048.83,-127.89"/>
<polygon fill="black" stroke="black" points="1051.3,-130.38 1056.62,-121.22 1046.75,-125.06 1051.3,-130.38"/>
</g>
<!-- ndBlock2_7 -->
<g id="node24" class="node">
<title>ndBlock2_7</title>
<ellipse fill="none" stroke="black" cx="1054.81" cy="-337.34" rx="48.84" ry="18"/>
<text text-anchor="start" x="1024.8" y="-336.87" font-family="Monaco" font-size="11.00">i</text>
<text text-anchor="start" x="1031.4" y="-336.87" font-family="Monaco" baseline-shift="super" font-size="8.00" fill="#00dd33">U10</text>
<text text-anchor="start" x="1045.8" y="-336.87" font-family="Monaco" baseline-shift="super" font-size="8.00" fill="#3311ff">r0</text>
<text text-anchor="start" x="1055.41" y="-336.87" font-family="Monaco" font-size="11.00">:in</text>
<text text-anchor="start" x="1075.21" y="-336.87" font-family="Monaco" baseline-shift="super" font-size="8.00" fill="#ff4411">q2</text>
</g>
<!-- ndBlock2_7&#45;&gt;ndBlock2_2 -->
<g id="edge15" class="edge">
<title>ndBlock2_7&#45;&gt;ndBlock2_2</title>
<path fill="none" stroke="black" d="M1083.7,-322.66C1099.25,-313.6 1117,-300.1 1125.81,-282.34 1151.06,-231.4 1116.5,-165.84 1093.12,-130.65"/>
<polygon fill="black" stroke="black" points="1095.71,-128.24 1087.17,-121.97 1089.94,-132.2 1095.71,-128.24"/>
</g>
<!-- ndBlock2_7&#45;&gt;ndBlock2_3 -->
<g id="edge18" class="edge">
<title>ndBlock2_7&#45;&gt;ndBlock2_3</title>
<path fill="none" stroke="black" d="M1015.34,-326.54C966.98,-314.54 884.59,-294.08 828.48,-280.15"/>
<polygon fill="black" stroke="black" points="829.22,-276.73 818.67,-277.72 827.53,-283.52 829.22,-276.73"/>
</g>
<!-- ndBlock2_8 -->
<g id="node25" class="node">
<title>ndBlock2_8</title>
<ellipse fill="none" stroke="black" cx="1054.81" cy="-264.34" rx="61.83" ry="18"/>
<text text-anchor="start" x="1014.9" y="-263.87" font-family="Monaco" font-size="11.00">@d</text>
<text text-anchor="start" x="1028.1" y="-263.87" font-family="Monaco" baseline-shift="super" font-size="8.00" fill="#00dd33">S64</text>
<text text-anchor="start" x="1042.5" y="-263.87" font-family="Monaco" baseline-shift="super" font-size="8.00" fill="#3311ff">r2</text>
<text text-anchor="start" x="1052.11" y="-263.87" font-family="Monaco" font-size="11.00">:a[i]</text>
<text text-anchor="start" x="1085.11" y="-263.87" font-family="Monaco" baseline-shift="super" font-size="8.00" fill="#ff4411">q5</text>
</g>
<!-- ndBlock2_7&#45;&gt;ndBlock2_8 -->
<g id="edge13" class="edge">
<title>ndBlock2_7&#45;&gt;ndBlock2_8</title>
<path fill="none" stroke="black" d="M1054.81,-319.15C1054.81,-311.13 1054.81,-301.38 1054.81,-292.41"/>
<polygon fill="black" stroke="black" points="1058.31,-292.37 1054.81,-282.37 1051.31,-292.37 1058.31,-292.37"/>
</g>
<!-- ndBlock2_8&#45;&gt;ndBlock2_2 -->
<g id="edge22" class="edge">
<title>ndBlock2_8&#45;&gt;ndBlock2_2</title>
<path fill="none" stroke="black" stroke-dasharray="1,5" d="M1057.47,-246.33C1059.09,-235.71 1061.17,-221.74 1062.81,-209.34 1066.22,-183.49 1069.58,-153.94 1071.88,-133.02"/>
<polygon fill="black" stroke="black" points="1075.38,-133.25 1072.98,-122.93 1068.42,-132.49 1075.38,-133.25"/>
</g>
<!-- ndBlock2_8&#45;&gt;ndBlock2_6 -->
<g id="edge20" class="edge">
<title>ndBlock2_8&#45;&gt;ndBlock2_6</title>
<path fill="none" stroke="black" d="M1036.48,-246.87C1026.19,-237.62 1013.17,-225.91 1001.83,-215.72"/>
<polygon fill="black" stroke="black" points="1004.08,-213.04 994.3,-208.96 999.4,-218.25 1004.08,-213.04"/>
</g>
</g>
</svg>
