<?xml version="1.0" encoding="UTF-8" standalone="no"?>
<!DOCTYPE svg PUBLIC "-//W3C//DTD SVG 1.1//EN"
 "http://www.w3.org/Graphics/SVG/1.1/DTD/svg11.dtd">
<!-- Generated by graphviz version 2.43.0 (0)
 -->
<!-- Title: Program_ Pages: 1 -->
<svg width="1161pt" height="403pt"
 viewBox="0.00 0.00 1160.81 403.34" xmlns="http://www.w3.org/2000/svg" xmlns:xlink="http://www.w3.org/1999/xlink">
<g id="graph0" class="graph" transform="scale(1 1) rotate(0) translate(4 399.34)">
<title>Program_</title>
<polygon fill="white" stroke="transparent" points="-4,4 -4,-399.34 1156.81,-399.34 1156.81,4 -4,4"/>
<g id="clust1" class="cluster">
<title>cluster_dfg_Block0</title>
<polygon fill="none" stroke="black" points="174.81,-165.34 174.81,-387.34 562.81,-387.34 562.81,-165.34 174.81,-165.34"/>
<text text-anchor="middle" x="368.81" y="-373.74" font-family="Monaco" font-size="12.00">Block0</text>
</g>
<g id="clust2" class="cluster">
<title>cluster_dfg_Block1</title>
<polygon fill="none" stroke="black" points="570.81,-238.34 570.81,-387.34 678.81,-387.34 678.81,-238.34 570.81,-238.34"/>
<text text-anchor="middle" x="624.81" y="-373.74" font-family="Monaco" font-size="12.00">Block1</text>
</g>
<g id="clust3" class="cluster">
<title>cluster_dfg_Block2</title>
<polygon fill="none" stroke="black" points="686.81,-78.67 686.81,-387.34 1144.81,-387.34 1144.81,-78.67 686.81,-78.67"/>
<text text-anchor="middle" x="915.81" y="-373.74" font-family="Monaco" font-size="12.00">Block2</text>
</g>
<!-- Jump0 -->
<g id="node1" class="node">
<title>Jump0</title>
<polygon fill="none" stroke="black" points="141.42,-355.34 50.19,-355.34 50.19,-351.34 46.19,-351.34 46.19,-347.34 50.19,-347.34 50.19,-327.34 46.19,-327.34 46.19,-323.34 50.19,-323.34 50.19,-319.34 141.42,-319.34 141.42,-355.34"/>
<polyline fill="none" stroke="black" points="50.19,-351.34 54.19,-351.34 54.19,-347.34 50.19,-347.34 "/>
<polyline fill="none" stroke="black" points="50.19,-327.34 54.19,-327.34 54.19,-323.34 50.19,-323.34 "/>
<text text-anchor="start" x="58" y="-340.54" font-family="Monaco" font-size="11.00">StartFun.0</text>
<text text-anchor="start" x="124.01" y="-340.54" font-family="Monaco" baseline-shift="super" font-size="8.00" fill="#ff4411">q0</text>
<text text-anchor="start" x="79.3" y="-329.54" font-family="Monaco" font-size="11.00">i,acc</text>
</g>
<!-- Block0 -->
<g id="node2" class="node">
<title>Block0</title>
<polygon fill="none" stroke="black" points="123.41,-282.34 68.2,-282.34 68.2,-246.34 123.41,-246.34 123.41,-282.34"/>
<text text-anchor="middle" x="95.81" y="-262.87" font-family="Monaco" font-size="11.00">Block0</text>
</g>
<!-- Jump0&#45;&gt;Block0 -->
<g id="edge1" class="edge">
<title>Jump0&#45;&gt;Block0</title>
<path fill="none" stroke="black" d="M95.81,-319.15C95.81,-311.13 95.81,-301.38 95.81,-292.41"/>
<polygon fill="black" stroke="black" points="99.31,-292.37 95.81,-282.37 92.31,-292.37 99.31,-292.37"/>
</g>
<!-- Jump1 -->
<g id="node3" class="node">
<title>Jump1</title>
<path fill="none" stroke="black" d="M125.41,-209.34C125.41,-209.34 66.2,-209.34 66.2,-209.34 60.2,-209.34 50.39,-204.7 46.57,-200.07 46.57,-200.07 32.19,-182.6 32.19,-182.6 28.38,-177.97 30.57,-173.34 36.57,-173.34 36.57,-173.34 155.05,-173.34 155.05,-173.34 161.05,-173.34 163.23,-177.97 159.42,-182.6 159.42,-182.6 145.04,-200.07 145.04,-200.07 141.23,-204.7 131.41,-209.34 125.41,-209.34"/>
<text text-anchor="start" x="64.6" y="-190.87" font-family="Monaco" font-size="11.00">Branch.1</text>
<text text-anchor="start" x="117.41" y="-190.87" font-family="Monaco" baseline-shift="super" font-size="8.00" fill="#ff4411">q2</text>
</g>
<!-- Block0&#45;&gt;Jump1 -->
<g id="edge2" class="edge">
<title>Block0&#45;&gt;Jump1</title>
<path fill="none" stroke="black" d="M95.81,-246.15C95.81,-238.13 95.81,-228.38 95.81,-219.41"/>
<polygon fill="black" stroke="black" points="99.31,-219.37 95.81,-209.37 92.31,-219.37 99.31,-219.37"/>
</g>
<!-- Block1 -->
<g id="node4" class="node">
<title>Block1</title>
<polygon fill="none" stroke="black" points="86.41,-122.67 31.2,-122.67 31.2,-86.67 86.41,-86.67 86.41,-122.67"/>
<text text-anchor="middle" x="58.81" y="-103.2" font-family="Monaco" font-size="11.00">Block1</text>
</g>
<!-- Jump1&#45;&gt;Block1 -->
<g id="edge3" class="edge">
<title>Jump1&#45;&gt;Block1</title>
<path fill="none" stroke="black" d="M88.32,-173.2C83.15,-161.38 76.19,-145.44 70.32,-132.01"/>
<polygon fill="black" stroke="black" points="73.49,-130.54 66.28,-122.78 67.08,-133.34 73.49,-130.54"/>
<text text-anchor="middle" x="86.41" y="-146.54" font-family="Monaco" font-size="11.00">@b</text>
</g>
<!-- Block2 -->
<g id="node5" class="node">
<title>Block2</title>
<polygon fill="none" stroke="black" points="185.41,-122.67 130.2,-122.67 130.2,-86.67 185.41,-86.67 185.41,-122.67"/>
<text text-anchor="middle" x="157.81" y="-103.2" font-family="Monaco" font-size="11.00">Block2</text>
</g>
<!-- Jump1&#45;&gt;Block2 -->
<g id="edge4" class="edge">
<title>Jump1&#45;&gt;Block2</title>
<path fill="none" stroke="black" d="M108.35,-173.2C117.26,-161.04 129.36,-144.51 139.37,-130.85"/>
<polygon fill="black" stroke="black" points="142.19,-132.91 145.28,-122.78 136.55,-128.78 142.19,-132.91"/>
<text text-anchor="middle" x="140.71" y="-146.54" font-family="Monaco" font-size="11.00">!@b</text>
</g>
<!-- Jump2_4 -->
<g id="node6" class="node">
<title>Jump2_4</title>
<polygon fill="none" stroke="black" points="91.42,-30 18.19,-30 18.19,-36 0.19,-18 18.19,0 18.19,-6 73.42,-6 73.42,0 91.42,0 91.42,-30"/>
<text text-anchor="start" x="8" y="-17.53" font-family="Monaco" font-size="11.00">Return.2_4</text>
<text text-anchor="start" x="74.01" y="-17.53" font-family="Monaco" baseline-shift="super" font-size="8.00" fill="#ff4411">q4</text>
</g>
<!-- Block1&#45;&gt;Jump2_4 -->
<g id="edge5" class="edge">
<title>Block1&#45;&gt;Jump2_4</title>
<path fill="none" stroke="black" d="M56.18,-86.53C54.4,-74.94 52.01,-59.39 49.97,-46.13"/>
<polygon fill="black" stroke="black" points="53.41,-45.46 48.43,-36.11 46.49,-46.52 53.41,-45.46"/>
<text text-anchor="middle" x="60.41" y="-59.87" font-family="Monaco" font-size="11.00">@c</text>
</g>
<!-- Jump2_5_6 -->
<g id="node7" class="node">
<title>Jump2_5_6</title>
<polygon fill="none" stroke="black" points="231.42,-36 110.19,-36 110.19,-32 106.19,-32 106.19,-28 110.19,-28 110.19,-8 106.19,-8 106.19,-4 110.19,-4 110.19,0 231.42,0 231.42,-36"/>
<polyline fill="none" stroke="black" points="110.19,-32 114.19,-32 114.19,-28 110.19,-28 "/>
<polyline fill="none" stroke="black" points="110.19,-8 114.19,-8 114.19,-4 110.19,-4 "/>
<text text-anchor="start" x="119.8" y="-21.2" font-family="Monaco" font-size="11.00">TailCall.2_5_6</text>
<text text-anchor="start" x="212.21" y="-21.2" font-family="Monaco" baseline-shift="super" font-size="8.00" fill="#ff4411">q7</text>
<text text-anchor="start" x="118" y="-10.2" font-family="Monaco" font-size="11.00">accumulate(@f,b)</text>
</g>
<!-- Block2&#45;&gt;Jump2_5_6 -->
<g id="edge6" class="edge">
<title>Block2&#45;&gt;Jump2_5_6</title>
<path fill="none" stroke="black" d="M160.44,-86.53C162.22,-74.94 164.6,-59.39 166.64,-46.13"/>
<polygon fill="black" stroke="black" points="170.12,-46.52 168.18,-36.11 163.2,-45.46 170.12,-46.52"/>
</g>
<!-- 0 -->
<g id="node8" class="node">
<title>0</title>
<ellipse fill="none" stroke="black" cx="492.81" cy="-337.34" rx="61.83" ry="18"/>
<text text-anchor="start" x="452.9" y="-336.87" font-family="Monaco" font-size="11.00">@a</text>
<text text-anchor="start" x="466.1" y="-336.87" font-family="Monaco" baseline-shift="super" font-size="8.00" fill="#00aa11">U10</text>
<text text-anchor="start" x="480.5" y="-336.87" font-family="Monaco" baseline-shift="super" font-size="8.00" fill="#3311ff">r2</text>
<text text-anchor="start" x="490.11" y="-336.87" font-family="Monaco" font-size="11.00">:1000</text>
<text text-anchor="start" x="523.11" y="-336.87" font-family="Monaco" baseline-shift="super" font-size="8.00" fill="#ff4411">q0</text>
</g>
<!-- 1 -->
<g id="node9" class="node">
<title>1</title>
<ellipse fill="none" stroke="black" cx="479.81" cy="-264.34" rx="75.37" ry="18"/>
<text text-anchor="start" x="429.4" y="-263.87" font-family="Monaco" font-size="11.00">@b</text>
<text text-anchor="start" x="442.6" y="-263.87" font-family="Monaco" baseline-shift="super" font-size="8.00" fill="#00aa11">U1</text>
<text text-anchor="start" x="452.2" y="-263.87" font-family="Monaco" baseline-shift="super" font-size="8.00" fill="#3311ff">r2</text>
<text text-anchor="start" x="461.8" y="-263.87" font-family="Monaco" font-size="11.00">:i==</text>
<text text-anchor="start" x="488.21" y="-263.87" font-family="Monaco" baseline-shift="super" font-size="8.00" fill="#3311ff">Bin0</text>
<text text-anchor="start" x="507.41" y="-263.87" font-family="Monaco" font-size="11.00">@a</text>
<text text-anchor="start" x="520.61" y="-263.87" font-family="Monaco" baseline-shift="super" font-size="8.00" fill="#ff4411">q1</text>
</g>
<!-- 0&#45;&gt;1 -->
<g id="edge7" class="edge">
<title>0&#45;&gt;1</title>
<path fill="none" stroke="black" d="M489.66,-319.15C488.19,-311.13 486.41,-301.38 484.76,-292.41"/>
<polygon fill="black" stroke="black" points="488.17,-291.57 482.92,-282.37 481.28,-292.83 488.17,-291.57"/>
</g>
<!-- 19 -->
<g id="node13" class="node">
<title>19</title>
<ellipse fill="#ffffee" stroke="black" cx="479.81" cy="-191.34" rx="46.44" ry="18"/>
<text text-anchor="start" x="451.9" y="-190.87" font-family="Monaco" font-size="11.00">out(@b)</text>
<text text-anchor="start" x="498.11" y="-190.87" font-family="Monaco" baseline-shift="super" font-size="8.00" fill="#ff4411">q2</text>
</g>
<!-- 1&#45;&gt;19 -->
<g id="edge8" class="edge">
<title>1&#45;&gt;19</title>
<path fill="none" stroke="black" d="M479.81,-246.15C479.81,-238.13 479.81,-228.38 479.81,-219.41"/>
<polygon fill="black" stroke="black" points="483.31,-219.37 479.81,-209.37 476.31,-219.37 483.31,-219.37"/>
</g>
<!-- 17 -->
<g id="node10" class="node">
<title>17</title>
<ellipse fill="#ffffee" stroke="black" cx="234.81" cy="-264.34" rx="50.43" ry="18"/>
<text text-anchor="start" x="203.6" y="-263.87" font-family="Monaco" font-size="11.00">out(acc)</text>
<text text-anchor="start" x="256.41" y="-263.87" font-family="Monaco" baseline-shift="super" font-size="8.00" fill="#ff4411">q2</text>
</g>
<!-- 18 -->
<g id="node11" class="node">
<title>18</title>
<ellipse fill="#ffffee" stroke="black" cx="344.81" cy="-264.34" rx="41.94" ry="18"/>
<text text-anchor="start" x="320.2" y="-263.87" font-family="Monaco" font-size="11.00">out(i)</text>
<text text-anchor="start" x="359.81" y="-263.87" font-family="Monaco" baseline-shift="super" font-size="8.00" fill="#ff4411">q2</text>
</g>
<!-- 16 -->
<g id="node12" class="node">
<title>16</title>
<ellipse fill="#ffeeff" stroke="black" cx="363.81" cy="-337.34" rx="48.84" ry="18"/>
<text text-anchor="start" x="333.8" y="-336.87" font-family="Monaco" font-size="11.00">i</text>
<text text-anchor="start" x="340.4" y="-336.87" font-family="Monaco" baseline-shift="super" font-size="8.00" fill="#00aa11">U10</text>
<text text-anchor="start" x="354.8" y="-336.87" font-family="Monaco" baseline-shift="super" font-size="8.00" fill="#3311ff">r0</text>
<text text-anchor="start" x="364.41" y="-336.87" font-family="Monaco" font-size="11.00">:in</text>
<text text-anchor="start" x="384.21" y="-336.87" font-family="Monaco" baseline-shift="super" font-size="8.00" fill="#ff4411">q0</text>
</g>
<!-- 16&#45;&gt;1 -->
<g id="edge10" class="edge">
<title>16&#45;&gt;1</title>
<path fill="none" stroke="black" d="M387.84,-321.63C404.38,-311.5 426.61,-297.9 445.07,-286.6"/>
<polygon fill="black" stroke="black" points="447.08,-289.47 453.78,-281.26 443.43,-283.5 447.08,-289.47"/>
</g>
<!-- 16&#45;&gt;18 -->
<g id="edge11" class="edge">
<title>16&#45;&gt;18</title>
<path fill="none" stroke="black" d="M359.21,-319.15C357.04,-311.04 354.4,-301.17 351.97,-292.11"/>
<polygon fill="black" stroke="black" points="355.33,-291.12 349.36,-282.37 348.57,-292.93 355.33,-291.12"/>
</g>
<!-- 15 -->
<g id="node14" class="node">
<title>15</title>
<ellipse fill="#ffeeff" stroke="black" cx="239.81" cy="-337.34" rx="57.34" ry="18"/>
<text text-anchor="start" x="203.2" y="-336.87" font-family="Monaco" font-size="11.00">acc</text>
<text text-anchor="start" x="223" y="-336.87" font-family="Monaco" baseline-shift="super" font-size="8.00" fill="#00aa11">S64</text>
<text text-anchor="start" x="237.41" y="-336.87" font-family="Monaco" baseline-shift="super" font-size="8.00" fill="#3311ff">r1</text>
<text text-anchor="start" x="247.01" y="-336.87" font-family="Monaco" font-size="11.00">:in</text>
<text text-anchor="start" x="266.81" y="-336.87" font-family="Monaco" baseline-shift="super" font-size="8.00" fill="#ff4411">q0</text>
</g>
<!-- 15&#45;&gt;17 -->
<g id="edge9" class="edge">
<title>15&#45;&gt;17</title>
<path fill="none" stroke="black" d="M238.6,-319.15C238.03,-311.13 237.34,-301.38 236.71,-292.41"/>
<polygon fill="black" stroke="black" points="240.2,-292.1 236.01,-282.37 233.22,-292.59 240.2,-292.1"/>
</g>
<!-- 2 -->
<g id="node15" class="node">
<title>2</title>
<ellipse fill="none" stroke="black" cx="624.81" cy="-337.34" rx="45.66" ry="18"/>
<text text-anchor="start" x="597.2" y="-336.87" font-family="Monaco" font-size="11.00">@c</text>
<text text-anchor="start" x="610.4" y="-336.87" font-family="Monaco" baseline-shift="super" font-size="8.00" fill="#00aa11">U1</text>
<text text-anchor="start" x="620.01" y="-336.87" font-family="Monaco" baseline-shift="super" font-size="8.00" fill="#3311ff">r0</text>
<text text-anchor="start" x="629.61" y="-336.87" font-family="Monaco" font-size="11.00">:0</text>
<text text-anchor="start" x="642.81" y="-336.87" font-family="Monaco" baseline-shift="super" font-size="8.00" fill="#ff4411">q2</text>
</g>
<!-- 11 -->
<g id="node16" class="node">
<title>11</title>
<ellipse fill="#ffffee" stroke="black" cx="624.81" cy="-264.34" rx="46.44" ry="18"/>
<text text-anchor="start" x="596.9" y="-263.87" font-family="Monaco" font-size="11.00">out(@c)</text>
<text text-anchor="start" x="643.11" y="-263.87" font-family="Monaco" baseline-shift="super" font-size="8.00" fill="#ff4411">q4</text>
</g>
<!-- 2&#45;&gt;11 -->
<g id="edge12" class="edge">
<title>2&#45;&gt;11</title>
<path fill="none" stroke="black" d="M624.81,-319.15C624.81,-311.13 624.81,-301.38 624.81,-292.41"/>
<polygon fill="black" stroke="black" points="628.31,-292.37 624.81,-282.37 621.31,-292.37 628.31,-292.37"/>
</g>
<!-- 5 -->
<g id="node17" class="node">
<title>5</title>
<ellipse fill="none" stroke="black" cx="958.81" cy="-104.67" rx="41.94" ry="18"/>
<text text-anchor="start" x="934.2" y="-104.2" font-family="Monaco" font-size="11.00">a[i]=b</text>
<text text-anchor="start" x="973.81" y="-104.2" font-family="Monaco" baseline-shift="super" font-size="8.00" fill="#ff4411">q7</text>
</g>
<!-- 20 -->
<g id="node18" class="node">
<title>20</title>
<ellipse fill="#ffffee" stroke="black" cx="768.81" cy="-191.34" rx="46.44" ry="18"/>
<text text-anchor="start" x="740.9" y="-190.87" font-family="Monaco" font-size="11.00">out(@f)</text>
<text text-anchor="start" x="787.11" y="-190.87" font-family="Monaco" baseline-shift="super" font-size="8.00" fill="#ff4411">q7</text>
</g>
<!-- 6 -->
<g id="node19" class="node">
<title>6</title>
<ellipse fill="none" stroke="black" cx="753.81" cy="-337.34" rx="45.66" ry="18"/>
<text text-anchor="start" x="726.2" y="-336.87" font-family="Monaco" font-size="11.00">@e</text>
<text text-anchor="start" x="739.4" y="-336.87" font-family="Monaco" baseline-shift="super" font-size="8.00" fill="#00aa11">U1</text>
<text text-anchor="start" x="749.01" y="-336.87" font-family="Monaco" baseline-shift="super" font-size="8.00" fill="#3311ff">r2</text>
<text text-anchor="start" x="758.61" y="-336.87" font-family="Monaco" font-size="11.00">:1</text>
<text text-anchor="start" x="771.81" y="-336.87" font-family="Monaco" baseline-shift="super" font-size="8.00" fill="#ff4411">q2</text>
</g>
<!-- 7 -->
<g id="node23" class="node">
<title>7</title>
<ellipse fill="none" stroke="black" cx="768.81" cy="-264.34" rx="74.05" ry="18"/>
<text text-anchor="start" x="719.3" y="-263.87" font-family="Monaco" font-size="11.00">@f</text>
<text text-anchor="start" x="732.5" y="-263.87" font-family="Monaco" baseline-shift="super" font-size="8.00" fill="#00aa11">U10</text>
<text text-anchor="start" x="746.9" y="-263.87" font-family="Monaco" baseline-shift="super" font-size="8.00" fill="#3311ff">r2</text>
<text text-anchor="start" x="756.5" y="-263.87" font-family="Monaco" font-size="11.00">:i+</text>
<text text-anchor="start" x="776.31" y="-263.87" font-family="Monaco" baseline-shift="super" font-size="8.00" fill="#3311ff">Bin1</text>
<text text-anchor="start" x="795.51" y="-263.87" font-family="Monaco" font-size="11.00">@e</text>
<text text-anchor="start" x="808.71" y="-263.87" font-family="Monaco" baseline-shift="super" font-size="8.00" fill="#ff4411">q5</text>
</g>
<!-- 6&#45;&gt;7 -->
<g id="edge16" class="edge">
<title>6&#45;&gt;7</title>
<path fill="none" stroke="black" d="M757.44,-319.15C759.13,-311.13 761.19,-301.38 763.09,-292.41"/>
<polygon fill="black" stroke="black" points="766.57,-292.87 765.21,-282.37 759.72,-291.43 766.57,-292.87"/>
</g>
<!-- 21 -->
<g id="node20" class="node">
<title>21</title>
<ellipse fill="#ffffee" stroke="black" cx="854.81" cy="-104.67" rx="41.94" ry="18"/>
<text text-anchor="start" x="830.2" y="-104.2" font-family="Monaco" font-size="11.00">out(b)</text>
<text text-anchor="start" x="869.81" y="-104.2" font-family="Monaco" baseline-shift="super" font-size="8.00" fill="#ff4411">q7</text>
</g>
<!-- 13 -->
<g id="node21" class="node">
<title>13</title>
<ellipse fill="#ffeeff" stroke="black" cx="866.81" cy="-337.34" rx="48.84" ry="18"/>
<text text-anchor="start" x="836.8" y="-336.87" font-family="Monaco" font-size="11.00">i</text>
<text text-anchor="start" x="843.4" y="-336.87" font-family="Monaco" baseline-shift="super" font-size="8.00" fill="#00aa11">U10</text>
<text text-anchor="start" x="857.8" y="-336.87" font-family="Monaco" baseline-shift="super" font-size="8.00" fill="#3311ff">r0</text>
<text text-anchor="start" x="867.41" y="-336.87" font-family="Monaco" font-size="11.00">:in</text>
<text text-anchor="start" x="887.21" y="-336.87" font-family="Monaco" baseline-shift="super" font-size="8.00" fill="#ff4411">q2</text>
</g>
<!-- 13&#45;&gt;5 -->
<g id="edge20" class="edge">
<title>13&#45;&gt;5</title>
<path fill="none" stroke="black" d="M862.47,-319C855.34,-286.55 844.5,-215.4 871.81,-165.34 882.26,-146.17 901.85,-131.91 919.79,-122.15"/>
<polygon fill="black" stroke="black" points="921.66,-125.13 928.97,-117.45 918.47,-118.9 921.66,-125.13"/>
</g>
<!-- 13&#45;&gt;7 -->
<g id="edge21" class="edge">
<title>13&#45;&gt;7</title>
<path fill="none" stroke="black" d="M845.54,-320.93C832.18,-311.25 814.71,-298.59 799.81,-287.8"/>
<polygon fill="black" stroke="black" points="801.54,-284.73 791.39,-281.7 797.44,-290.4 801.54,-284.73"/>
</g>
<!-- 3 -->
<g id="node24" class="node">
<title>3</title>
<ellipse fill="none" stroke="black" cx="1074.81" cy="-264.34" rx="61.83" ry="18"/>
<text text-anchor="start" x="1034.9" y="-263.87" font-family="Monaco" font-size="11.00">@d</text>
<text text-anchor="start" x="1048.1" y="-263.87" font-family="Monaco" baseline-shift="super" font-size="8.00" fill="#00aa11">S64</text>
<text text-anchor="start" x="1062.5" y="-263.87" font-family="Monaco" baseline-shift="super" font-size="8.00" fill="#3311ff">r3</text>
<text text-anchor="start" x="1072.11" y="-263.87" font-family="Monaco" font-size="11.00">:a[i]</text>
<text text-anchor="start" x="1105.11" y="-263.87" font-family="Monaco" baseline-shift="super" font-size="8.00" fill="#ff4411">q5</text>
</g>
<!-- 13&#45;&gt;3 -->
<g id="edge19" class="edge">
<title>13&#45;&gt;3</title>
<path fill="none" stroke="black" d="M901.62,-324.45C935.81,-312.78 988.24,-294.89 1026.46,-281.84"/>
<polygon fill="black" stroke="black" points="1028.01,-285.01 1036.34,-278.47 1025.75,-278.38 1028.01,-285.01"/>
</g>
<!-- 12 -->
<g id="node22" class="node">
<title>12</title>
<ellipse fill="#ffeeff" stroke="black" cx="937.81" cy="-264.34" rx="57.34" ry="18"/>
<text text-anchor="start" x="901.2" y="-263.87" font-family="Monaco" font-size="11.00">acc</text>
<text text-anchor="start" x="921" y="-263.87" font-family="Monaco" baseline-shift="super" font-size="8.00" fill="#00aa11">S64</text>
<text text-anchor="start" x="935.41" y="-263.87" font-family="Monaco" baseline-shift="super" font-size="8.00" fill="#3311ff">r1</text>
<text text-anchor="start" x="945.01" y="-263.87" font-family="Monaco" font-size="11.00">:in</text>
<text text-anchor="start" x="964.81" y="-263.87" font-family="Monaco" baseline-shift="super" font-size="8.00" fill="#ff4411">q2</text>
</g>
<!-- 4 -->
<g id="node25" class="node">
<title>4</title>
<ellipse fill="none" stroke="black" cx="958.81" cy="-191.34" rx="78.05" ry="18"/>
<text text-anchor="start" x="906" y="-190.87" font-family="Monaco" font-size="11.00">b</text>
<text text-anchor="start" x="912.6" y="-190.87" font-family="Monaco" baseline-shift="super" font-size="8.00" fill="#00aa11">S64</text>
<text text-anchor="start" x="927" y="-190.87" font-family="Monaco" baseline-shift="super" font-size="8.00" fill="#3311ff">r1</text>
<text text-anchor="start" x="936.6" y="-190.87" font-family="Monaco" font-size="11.00">:acc+</text>
<text text-anchor="start" x="969.61" y="-190.87" font-family="Monaco" baseline-shift="super" font-size="8.00" fill="#3311ff">Bin2</text>
<text text-anchor="start" x="988.81" y="-190.87" font-family="Monaco" font-size="11.00">@d</text>
<text text-anchor="start" x="1002.01" y="-190.87" font-family="Monaco" baseline-shift="super" font-size="8.00" fill="#ff4411">q6</text>
</g>
<!-- 12&#45;&gt;4 -->
<g id="edge18" class="edge">
<title>12&#45;&gt;4</title>
<path fill="none" stroke="black" d="M942.89,-246.15C945.29,-238.04 948.21,-228.17 950.89,-219.11"/>
<polygon fill="black" stroke="black" points="954.29,-219.95 953.77,-209.37 947.58,-217.96 954.29,-219.95"/>
</g>
<!-- 7&#45;&gt;20 -->
<g id="edge17" class="edge">
<title>7&#45;&gt;20</title>
<path fill="none" stroke="black" d="M768.81,-246.15C768.81,-238.13 768.81,-228.38 768.81,-219.41"/>
<polygon fill="black" stroke="black" points="772.31,-219.37 768.81,-209.37 765.31,-219.37 772.31,-219.37"/>
</g>
<!-- 3&#45;&gt;5 -->
<g id="edge22" class="edge">
<title>3&#45;&gt;5</title>
<path fill="none" stroke="black" stroke-dasharray="1,5" d="M1073.24,-246.22C1070.59,-225.36 1063.65,-189.88 1045.81,-165.34 1032.87,-147.55 1012.93,-133.32 995.41,-123.23"/>
<polygon fill="black" stroke="black" points="996.96,-120.09 986.51,-118.33 993.58,-126.22 996.96,-120.09"/>
</g>
<!-- 3&#45;&gt;4 -->
<g id="edge13" class="edge">
<title>3&#45;&gt;4</title>
<path fill="none" stroke="black" d="M1049.35,-247.76C1033.11,-237.81 1011.83,-224.79 993.98,-213.87"/>
<polygon fill="black" stroke="black" points="995.36,-210.61 985.01,-208.37 991.71,-216.58 995.36,-210.61"/>
</g>
<!-- 4&#45;&gt;5 -->
<g id="edge14" class="edge">
<title>4&#45;&gt;5</title>
<path fill="none" stroke="black" d="M958.81,-173.2C958.81,-161.61 958.81,-146.06 958.81,-132.8"/>
<polygon fill="black" stroke="black" points="962.31,-132.78 958.81,-122.78 955.31,-132.78 962.31,-132.78"/>
</g>
<!-- 4&#45;&gt;21 -->
<g id="edge15" class="edge">
<title>4&#45;&gt;21</title>
<path fill="none" stroke="black" d="M938.26,-173.61C922.08,-160.44 899.4,-141.97 881.76,-127.62"/>
<polygon fill="black" stroke="black" points="883.53,-124.54 873.56,-120.94 879.11,-129.97 883.53,-124.54"/>
</g>
</g>
</svg>
