<?xml version="1.0" encoding="UTF-8" standalone="no"?>
<!DOCTYPE svg PUBLIC "-//W3C//DTD SVG 1.1//EN"
 "http://www.w3.org/Graphics/SVG/1.1/DTD/svg11.dtd">
<!-- Generated by graphviz version 2.43.0 (0)
 -->
<!-- Title: Program_ Pages: 1 -->
<svg width="842pt" height="411pt"
 viewBox="0.00 0.00 841.81 411.34" xmlns="http://www.w3.org/2000/svg" xmlns:xlink="http://www.w3.org/1999/xlink">
<g id="graph0" class="graph" transform="scale(1 1) rotate(0) translate(4 407.34)">
<title>Program_</title>
<polygon fill="white" stroke="transparent" points="-4,4 -4,-407.34 837.81,-407.34 837.81,4 -4,4"/>
<g id="clust1" class="cluster">
<title>cluster_dfg_Block0</title>
<polygon fill="none" stroke="black" points="152.81,-238.34 152.81,-395.34 405.81,-395.34 405.81,-238.34 152.81,-238.34"/>
<text text-anchor="start" x="257.7" y="-382.74" font-family="Monaco" font-size="12.00">Block0</text>
<text text-anchor="start" x="160.49" y="-370.74" font-family="Monaco" font-size="12.00">(acc</text>
<text text-anchor="start" x="189.29" y="-370.74" font-family="Monaco" baseline-shift="super" font-size="8.00" fill="#00aa11">S64</text>
<text text-anchor="start" x="203.69" y="-370.74" font-family="Monaco" baseline-shift="super" font-size="8.00" fill="#3311ff">r1</text>
<text text-anchor="start" x="213.3" y="-370.74" font-family="Monaco" font-size="12.00">,i</text>
<text text-anchor="start" x="227.7" y="-370.74" font-family="Monaco" baseline-shift="super" font-size="8.00" fill="#00aa11">U10</text>
<text text-anchor="start" x="242.1" y="-370.74" font-family="Monaco" baseline-shift="super" font-size="8.00" fill="#3311ff">r0</text>
<text text-anchor="start" x="251.7" y="-370.74" font-family="Monaco" font-size="12.00">=&gt;acc</text>
<text text-anchor="start" x="287.71" y="-370.74" font-family="Monaco" baseline-shift="super" font-size="8.00" fill="#00aa11">S64</text>
<text text-anchor="start" x="302.11" y="-370.74" font-family="Monaco" baseline-shift="super" font-size="8.00" fill="#3311ff">r1</text>
<text text-anchor="start" x="311.71" y="-370.74" font-family="Monaco" font-size="12.00">,i</text>
<text text-anchor="start" x="326.11" y="-370.74" font-family="Monaco" baseline-shift="super" font-size="8.00" fill="#00aa11">U10</text>
<text text-anchor="start" x="340.52" y="-370.74" font-family="Monaco" baseline-shift="super" font-size="8.00" fill="#3311ff">r0</text>
<text text-anchor="start" x="350.12" y="-370.74" font-family="Monaco" font-size="12.00">,@b</text>
<text text-anchor="start" x="371.72" y="-370.74" font-family="Monaco" baseline-shift="super" font-size="8.00" fill="#00aa11">U1</text>
<text text-anchor="start" x="381.32" y="-370.74" font-family="Monaco" baseline-shift="super" font-size="8.00" fill="#3311ff">r2</text>
<text text-anchor="start" x="390.92" y="-370.74" font-family="Monaco" font-size="12.00">)</text>
</g>
<g id="clust2" class="cluster">
<title>cluster_dfg_Block1</title>
<polygon fill="none" stroke="black" points="413.81,-311.34 413.81,-395.34 521.81,-395.34 521.81,-311.34 413.81,-311.34"/>
<text text-anchor="start" x="446.2" y="-382.74" font-family="Monaco" font-size="12.00">Block1</text>
<text text-anchor="start" x="436.6" y="-370.74" font-family="Monaco" font-size="12.00">(=&gt;@c</text>
<text text-anchor="start" x="472.61" y="-370.74" font-family="Monaco" baseline-shift="super" font-size="8.00" fill="#00aa11">U1</text>
<text text-anchor="start" x="482.21" y="-370.74" font-family="Monaco" baseline-shift="super" font-size="8.00" fill="#3311ff">r0</text>
<text text-anchor="start" x="491.81" y="-370.74" font-family="Monaco" font-size="12.00">)</text>
</g>
<g id="clust3" class="cluster">
<title>cluster_dfg_Block2</title>
<polygon fill="none" stroke="black" points="529.81,-78.67 529.81,-395.34 825.81,-395.34 825.81,-78.67 529.81,-78.67"/>
<text text-anchor="start" x="656.2" y="-382.74" font-family="Monaco" font-size="12.00">Block2</text>
<text text-anchor="start" x="582.99" y="-370.74" font-family="Monaco" font-size="12.00">(acc</text>
<text text-anchor="start" x="611.8" y="-370.74" font-family="Monaco" baseline-shift="super" font-size="8.00" fill="#00aa11">S64</text>
<text text-anchor="start" x="626.2" y="-370.74" font-family="Monaco" baseline-shift="super" font-size="8.00" fill="#3311ff">r1</text>
<text text-anchor="start" x="635.8" y="-370.74" font-family="Monaco" font-size="12.00">,i</text>
<text text-anchor="start" x="650.2" y="-370.74" font-family="Monaco" baseline-shift="super" font-size="8.00" fill="#00aa11">U10</text>
<text text-anchor="start" x="664.6" y="-370.74" font-family="Monaco" baseline-shift="super" font-size="8.00" fill="#3311ff">r0</text>
<text text-anchor="start" x="674.21" y="-370.74" font-family="Monaco" font-size="12.00">=&gt;@f</text>
<text text-anchor="start" x="703.01" y="-370.74" font-family="Monaco" baseline-shift="super" font-size="8.00" fill="#00aa11">U10</text>
<text text-anchor="start" x="717.41" y="-370.74" font-family="Monaco" baseline-shift="super" font-size="8.00" fill="#3311ff">r2</text>
<text text-anchor="start" x="727.01" y="-370.74" font-family="Monaco" font-size="12.00">,b</text>
<text text-anchor="start" x="741.42" y="-370.74" font-family="Monaco" baseline-shift="super" font-size="8.00" fill="#00aa11">S64</text>
<text text-anchor="start" x="755.82" y="-370.74" font-family="Monaco" baseline-shift="super" font-size="8.00" fill="#3311ff">r1</text>
<text text-anchor="start" x="765.42" y="-370.74" font-family="Monaco" font-size="12.00">)</text>
</g>
<!-- Jump0 -->
<g id="node1" class="node">
<title>Jump0</title>
<polygon fill="none" stroke="black" points="144.32,-355.34 47.29,-355.34 47.29,-351.34 43.29,-351.34 43.29,-347.34 47.29,-347.34 47.29,-327.34 43.29,-327.34 43.29,-323.34 47.29,-323.34 47.29,-319.34 144.32,-319.34 144.32,-355.34"/>
<polyline fill="none" stroke="black" points="47.29,-351.34 51.29,-351.34 51.29,-347.34 47.29,-347.34 "/>
<polyline fill="none" stroke="black" points="47.29,-327.34 51.29,-327.34 51.29,-323.34 47.29,-323.34 "/>
<text text-anchor="start" x="58" y="-340.54" font-family="Monaco" font-size="11.00">StartFun.0</text>
<text text-anchor="start" x="124.01" y="-340.54" font-family="Monaco" baseline-shift="super" font-size="8.00" fill="#ff4411">q0</text>
<text text-anchor="start" x="55.3" y="-329.54" font-family="Monaco" font-size="11.00">i</text>
<text text-anchor="start" x="61.9" y="-329.54" font-family="Monaco" baseline-shift="super" font-size="8.00" fill="#00aa11">U10</text>
<text text-anchor="start" x="76.3" y="-329.54" font-family="Monaco" baseline-shift="super" font-size="8.00" fill="#3311ff">r0</text>
<text text-anchor="start" x="85.9" y="-329.54" font-family="Monaco" font-size="11.00">,acc</text>
<text text-anchor="start" x="112.31" y="-329.54" font-family="Monaco" baseline-shift="super" font-size="8.00" fill="#00aa11">S64</text>
<text text-anchor="start" x="126.71" y="-329.54" font-family="Monaco" baseline-shift="super" font-size="8.00" fill="#3311ff">r1</text>
</g>
<!-- Block0 -->
<g id="node2" class="node">
<title>Block0</title>
<polygon fill="none" stroke="black" points="123.41,-282.34 68.2,-282.34 68.2,-246.34 123.41,-246.34 123.41,-282.34"/>
<text text-anchor="middle" x="95.81" y="-262.87" font-family="Monaco" font-size="11.00">Block0</text>
</g>
<!-- Jump0&#45;&gt;Block0 -->
<g id="edge1" class="edge">
<title>Jump0&#45;&gt;Block0</title>
<path fill="none" stroke="black" d="M95.81,-319.15C95.81,-311.13 95.81,-301.38 95.81,-292.41"/>
<polygon fill="black" stroke="black" points="99.31,-292.37 95.81,-282.37 92.31,-292.37 99.31,-292.37"/>
</g>
<!-- Jump1 -->
<g id="node3" class="node">
<title>Jump1</title>
<path fill="none" stroke="black" d="M125.41,-209.34C125.41,-209.34 66.2,-209.34 66.2,-209.34 60.2,-209.34 50.39,-204.7 46.57,-200.07 46.57,-200.07 32.19,-182.6 32.19,-182.6 28.38,-177.97 30.57,-173.34 36.57,-173.34 36.57,-173.34 155.05,-173.34 155.05,-173.34 161.05,-173.34 163.23,-177.97 159.42,-182.6 159.42,-182.6 145.04,-200.07 145.04,-200.07 141.23,-204.7 131.41,-209.34 125.41,-209.34"/>
<text text-anchor="start" x="64.6" y="-190.87" font-family="Monaco" font-size="11.00">Branch.1</text>
<text text-anchor="start" x="117.41" y="-190.87" font-family="Monaco" baseline-shift="super" font-size="8.00" fill="#ff4411">q3</text>
</g>
<!-- Block0&#45;&gt;Jump1 -->
<g id="edge2" class="edge">
<title>Block0&#45;&gt;Jump1</title>
<path fill="none" stroke="black" d="M95.81,-246.15C95.81,-238.13 95.81,-228.38 95.81,-219.41"/>
<polygon fill="black" stroke="black" points="99.31,-219.37 95.81,-209.37 92.31,-219.37 99.31,-219.37"/>
</g>
<!-- Block1 -->
<g id="node4" class="node">
<title>Block1</title>
<polygon fill="none" stroke="black" points="86.41,-122.67 31.2,-122.67 31.2,-86.67 86.41,-86.67 86.41,-122.67"/>
<text text-anchor="middle" x="58.81" y="-103.2" font-family="Monaco" font-size="11.00">Block1</text>
</g>
<!-- Jump1&#45;&gt;Block1 -->
<g id="edge3" class="edge">
<title>Jump1&#45;&gt;Block1</title>
<path fill="none" stroke="black" d="M88.32,-173.2C83.15,-161.38 76.19,-145.44 70.32,-132.01"/>
<polygon fill="black" stroke="black" points="73.49,-130.54 66.28,-122.78 67.08,-133.34 73.49,-130.54"/>
<text text-anchor="middle" x="86.41" y="-146.54" font-family="Monaco" font-size="11.00">@b</text>
</g>
<!-- Block2 -->
<g id="node5" class="node">
<title>Block2</title>
<polygon fill="none" stroke="black" points="185.41,-122.67 130.2,-122.67 130.2,-86.67 185.41,-86.67 185.41,-122.67"/>
<text text-anchor="middle" x="157.81" y="-103.2" font-family="Monaco" font-size="11.00">Block2</text>
</g>
<!-- Jump1&#45;&gt;Block2 -->
<g id="edge4" class="edge">
<title>Jump1&#45;&gt;Block2</title>
<path fill="none" stroke="black" d="M108.35,-173.2C117.26,-161.04 129.36,-144.51 139.37,-130.85"/>
<polygon fill="black" stroke="black" points="142.19,-132.91 145.28,-122.78 136.55,-128.78 142.19,-132.91"/>
<text text-anchor="middle" x="140.71" y="-146.54" font-family="Monaco" font-size="11.00">!@b</text>
</g>
<!-- Jump2_4 -->
<g id="node6" class="node">
<title>Jump2_4</title>
<polygon fill="none" stroke="black" points="91.42,-30 18.19,-30 18.19,-36 0.19,-18 18.19,0 18.19,-6 73.42,-6 73.42,0 91.42,0 91.42,-30"/>
<text text-anchor="start" x="8" y="-17.53" font-family="Monaco" font-size="11.00">Return.2_4</text>
<text text-anchor="start" x="74.01" y="-17.53" font-family="Monaco" baseline-shift="super" font-size="8.00" fill="#ff4411">q5</text>
</g>
<!-- Block1&#45;&gt;Jump2_4 -->
<g id="edge5" class="edge">
<title>Block1&#45;&gt;Jump2_4</title>
<path fill="none" stroke="black" d="M56.18,-86.53C54.4,-74.94 52.01,-59.39 49.97,-46.13"/>
<polygon fill="black" stroke="black" points="53.41,-45.46 48.43,-36.11 46.49,-46.52 53.41,-45.46"/>
<text text-anchor="middle" x="60.41" y="-59.87" font-family="Monaco" font-size="11.00">@c</text>
</g>
<!-- Jump2_5_6 -->
<g id="node7" class="node">
<title>Jump2_5_6</title>
<polygon fill="none" stroke="black" points="232.12,-36 109.49,-36 109.49,-32 105.49,-32 105.49,-28 109.49,-28 109.49,-8 105.49,-8 105.49,-4 109.49,-4 109.49,0 232.12,0 232.12,-36"/>
<polyline fill="none" stroke="black" points="109.49,-32 113.49,-32 113.49,-28 109.49,-28 "/>
<polyline fill="none" stroke="black" points="109.49,-8 113.49,-8 113.49,-4 109.49,-4 "/>
<text text-anchor="start" x="117.4" y="-21.2" font-family="Monaco" font-size="11.00">TailCall.2_5_6</text>
<text text-anchor="start" x="209.81" y="-21.2" font-family="Monaco" baseline-shift="super" font-size="8.00" fill="#ff4411">q10</text>
<text text-anchor="start" x="118" y="-10.2" font-family="Monaco" font-size="11.00">accumulate(@f,b)</text>
</g>
<!-- Block2&#45;&gt;Jump2_5_6 -->
<g id="edge6" class="edge">
<title>Block2&#45;&gt;Jump2_5_6</title>
<path fill="none" stroke="black" d="M160.44,-86.53C162.22,-74.94 164.6,-59.39 166.64,-46.13"/>
<polygon fill="black" stroke="black" points="170.12,-46.52 168.18,-36.11 163.2,-45.46 170.12,-46.52"/>
</g>
<!-- 0 -->
<g id="node8" class="node">
<title>0</title>
<ellipse fill="none" stroke="black" cx="278.81" cy="-337.34" rx="61.83" ry="18"/>
<text text-anchor="start" x="238.9" y="-336.87" font-family="Monaco" font-size="11.00">@a</text>
<text text-anchor="start" x="252.1" y="-336.87" font-family="Monaco" baseline-shift="super" font-size="8.00" fill="#00aa11">U10</text>
<text text-anchor="start" x="266.5" y="-336.87" font-family="Monaco" baseline-shift="super" font-size="8.00" fill="#3311ff">r2</text>
<text text-anchor="start" x="276.11" y="-336.87" font-family="Monaco" font-size="11.00">:1000</text>
<text text-anchor="start" x="309.11" y="-336.87" font-family="Monaco" baseline-shift="super" font-size="8.00" fill="#ff4411">q1</text>
</g>
<!-- 1 -->
<g id="node9" class="node">
<title>1</title>
<ellipse fill="none" stroke="black" cx="278.81" cy="-264.34" rx="75.37" ry="18"/>
<text text-anchor="start" x="228.4" y="-263.87" font-family="Monaco" font-size="11.00">@b</text>
<text text-anchor="start" x="241.6" y="-263.87" font-family="Monaco" baseline-shift="super" font-size="8.00" fill="#00aa11">U1</text>
<text text-anchor="start" x="251.2" y="-263.87" font-family="Monaco" baseline-shift="super" font-size="8.00" fill="#3311ff">r2</text>
<text text-anchor="start" x="260.8" y="-263.87" font-family="Monaco" font-size="11.00">:i==</text>
<text text-anchor="start" x="287.21" y="-263.87" font-family="Monaco" baseline-shift="super" font-size="8.00" fill="#3311ff">Bin0</text>
<text text-anchor="start" x="306.41" y="-263.87" font-family="Monaco" font-size="11.00">@a</text>
<text text-anchor="start" x="319.61" y="-263.87" font-family="Monaco" baseline-shift="super" font-size="8.00" fill="#ff4411">q2</text>
</g>
<!-- 0&#45;&gt;1 -->
<g id="edge7" class="edge">
<title>0&#45;&gt;1</title>
<path fill="none" stroke="black" d="M278.81,-319.15C278.81,-311.13 278.81,-301.38 278.81,-292.41"/>
<polygon fill="black" stroke="black" points="282.31,-292.37 278.81,-282.37 275.31,-292.37 282.31,-292.37"/>
</g>
<!-- 2 -->
<g id="node10" class="node">
<title>2</title>
<ellipse fill="none" stroke="black" cx="467.81" cy="-337.34" rx="45.66" ry="18"/>
<text text-anchor="start" x="440.2" y="-336.87" font-family="Monaco" font-size="11.00">@c</text>
<text text-anchor="start" x="453.4" y="-336.87" font-family="Monaco" baseline-shift="super" font-size="8.00" fill="#00aa11">U1</text>
<text text-anchor="start" x="463.01" y="-336.87" font-family="Monaco" baseline-shift="super" font-size="8.00" fill="#3311ff">r0</text>
<text text-anchor="start" x="472.61" y="-336.87" font-family="Monaco" font-size="11.00">:0</text>
<text text-anchor="start" x="485.81" y="-336.87" font-family="Monaco" baseline-shift="super" font-size="8.00" fill="#ff4411">q4</text>
</g>
<!-- 5 -->
<g id="node11" class="node">
<title>5</title>
<ellipse fill="none" stroke="black" cx="615.81" cy="-191.34" rx="78.05" ry="18"/>
<text text-anchor="start" x="563" y="-190.87" font-family="Monaco" font-size="11.00">b</text>
<text text-anchor="start" x="569.6" y="-190.87" font-family="Monaco" baseline-shift="super" font-size="8.00" fill="#00aa11">S64</text>
<text text-anchor="start" x="584" y="-190.87" font-family="Monaco" baseline-shift="super" font-size="8.00" fill="#3311ff">r1</text>
<text text-anchor="start" x="593.6" y="-190.87" font-family="Monaco" font-size="11.00">:acc+</text>
<text text-anchor="start" x="626.61" y="-190.87" font-family="Monaco" baseline-shift="super" font-size="8.00" fill="#3311ff">Bin2</text>
<text text-anchor="start" x="645.81" y="-190.87" font-family="Monaco" font-size="11.00">@d</text>
<text text-anchor="start" x="659.01" y="-190.87" font-family="Monaco" baseline-shift="super" font-size="8.00" fill="#ff4411">q8</text>
</g>
<!-- 6 -->
<g id="node12" class="node">
<title>6</title>
<ellipse fill="none" stroke="black" cx="664.81" cy="-104.67" rx="41.94" ry="18"/>
<text text-anchor="start" x="640.2" y="-104.2" font-family="Monaco" font-size="11.00">a[i]=b</text>
<text text-anchor="start" x="679.81" y="-104.2" font-family="Monaco" baseline-shift="super" font-size="8.00" fill="#ff4411">q9</text>
</g>
<!-- 5&#45;&gt;6 -->
<g id="edge9" class="edge">
<title>5&#45;&gt;6</title>
<path fill="none" stroke="black" d="M625.72,-173.2C632.72,-161.11 642.21,-144.71 650.09,-131.09"/>
<polygon fill="black" stroke="black" points="653.26,-132.61 655.24,-122.2 647.2,-129.1 653.26,-132.61"/>
</g>
<!-- 7 -->
<g id="node13" class="node">
<title>7</title>
<ellipse fill="none" stroke="black" cx="743.81" cy="-337.34" rx="45.66" ry="18"/>
<text text-anchor="start" x="716.2" y="-336.87" font-family="Monaco" font-size="11.00">@e</text>
<text text-anchor="start" x="729.4" y="-336.87" font-family="Monaco" baseline-shift="super" font-size="8.00" fill="#00aa11">U1</text>
<text text-anchor="start" x="739.01" y="-336.87" font-family="Monaco" baseline-shift="super" font-size="8.00" fill="#3311ff">r2</text>
<text text-anchor="start" x="748.61" y="-336.87" font-family="Monaco" font-size="11.00">:1</text>
<text text-anchor="start" x="761.81" y="-336.87" font-family="Monaco" baseline-shift="super" font-size="8.00" fill="#ff4411">q6</text>
</g>
<!-- 8 -->
<g id="node15" class="node">
<title>8</title>
<ellipse fill="none" stroke="black" cx="743.81" cy="-264.34" rx="74.05" ry="18"/>
<text text-anchor="start" x="694.3" y="-263.87" font-family="Monaco" font-size="11.00">@f</text>
<text text-anchor="start" x="707.5" y="-263.87" font-family="Monaco" baseline-shift="super" font-size="8.00" fill="#00aa11">U10</text>
<text text-anchor="start" x="721.9" y="-263.87" font-family="Monaco" baseline-shift="super" font-size="8.00" fill="#3311ff">r2</text>
<text text-anchor="start" x="731.5" y="-263.87" font-family="Monaco" font-size="11.00">:i+</text>
<text text-anchor="start" x="751.31" y="-263.87" font-family="Monaco" baseline-shift="super" font-size="8.00" fill="#3311ff">Bin1</text>
<text text-anchor="start" x="770.51" y="-263.87" font-family="Monaco" font-size="11.00">@e</text>
<text text-anchor="start" x="783.71" y="-263.87" font-family="Monaco" baseline-shift="super" font-size="8.00" fill="#ff4411">q7</text>
</g>
<!-- 7&#45;&gt;8 -->
<g id="edge10" class="edge">
<title>7&#45;&gt;8</title>
<path fill="none" stroke="black" d="M743.81,-319.15C743.81,-311.13 743.81,-301.38 743.81,-292.41"/>
<polygon fill="black" stroke="black" points="747.31,-292.37 743.81,-282.37 740.31,-292.37 747.31,-292.37"/>
</g>
<!-- 3 -->
<g id="node14" class="node">
<title>3</title>
<ellipse fill="none" stroke="black" cx="594.81" cy="-337.34" rx="50.43" ry="18"/>
<text text-anchor="start" x="563.6" y="-336.87" font-family="Monaco" font-size="11.00">req a[i]</text>
<text text-anchor="start" x="616.41" y="-336.87" font-family="Monaco" baseline-shift="super" font-size="8.00" fill="#ff4411">q6</text>
</g>
<!-- 4 -->
<g id="node16" class="node">
<title>4</title>
<ellipse fill="none" stroke="black" cx="594.81" cy="-264.34" rx="57.34" ry="18"/>
<text text-anchor="start" x="558.2" y="-263.87" font-family="Monaco" font-size="11.00">@d</text>
<text text-anchor="start" x="571.4" y="-263.87" font-family="Monaco" baseline-shift="super" font-size="8.00" fill="#00aa11">S64</text>
<text text-anchor="start" x="585.8" y="-263.87" font-family="Monaco" baseline-shift="super" font-size="8.00" fill="#3311ff">r3</text>
<text text-anchor="start" x="595.41" y="-263.87" font-family="Monaco" font-size="11.00">:a[]</text>
<text text-anchor="start" x="621.81" y="-263.87" font-family="Monaco" baseline-shift="super" font-size="8.00" fill="#ff4411">q7</text>
</g>
<!-- 3&#45;&gt;4 -->
<g id="edge11" class="edge">
<title>3&#45;&gt;4</title>
<path fill="none" stroke="black" d="M594.81,-319.15C594.81,-311.13 594.81,-301.38 594.81,-292.41"/>
<polygon fill="black" stroke="black" points="598.31,-292.37 594.81,-282.37 591.31,-292.37 598.31,-292.37"/>
</g>
<!-- 4&#45;&gt;5 -->
<g id="edge8" class="edge">
<title>4&#45;&gt;5</title>
<path fill="none" stroke="black" d="M599.89,-246.15C602.29,-238.04 605.21,-228.17 607.89,-219.11"/>
<polygon fill="black" stroke="black" points="611.29,-219.95 610.77,-209.37 604.58,-217.96 611.29,-219.95"/>
</g>
<!-- 4&#45;&gt;6 -->
<g id="edge12" class="edge">
<title>4&#45;&gt;6</title>
<path fill="none" stroke="black" stroke-dasharray="1,5" d="M630.49,-250.22C658.64,-239.06 694.51,-222.76 702.81,-209.34 718.38,-184.15 701.31,-151.6 685.34,-129.76"/>
<polygon fill="black" stroke="black" points="687.98,-127.46 679.11,-121.67 682.43,-131.73 687.98,-127.46"/>
</g>
</g>
</svg>
