<?xml version="1.0" encoding="UTF-8" standalone="no"?>
<!DOCTYPE svg PUBLIC "-//W3C//DTD SVG 1.1//EN"
 "http://www.w3.org/Graphics/SVG/1.1/DTD/svg11.dtd">
<!-- Generated by graphviz version 2.43.0 (0)
 -->
<!-- Title: Program_ Pages: 1 -->
<svg width="1097pt" height="419pt"
 viewBox="0.00 0.00 1096.81 419.34" xmlns="http://www.w3.org/2000/svg" xmlns:xlink="http://www.w3.org/1999/xlink">
<g id="graph0" class="graph" transform="scale(1 1) rotate(0) translate(4 415.34)">
<title>Program_</title>
<polygon fill="white" stroke="transparent" points="-4,4 -4,-415.34 1092.81,-415.34 1092.81,4 -4,4"/>
<g id="clust1" class="cluster">
<title>cluster_dfg_Block0</title>
<polygon fill="none" stroke="black" points="174.81,-181.34 174.81,-403.34 562.81,-403.34 562.81,-181.34 174.81,-181.34"/>
<text text-anchor="middle" x="368.81" y="-389.74" font-family="Monaco" font-size="12.00">Block0</text>
</g>
<g id="clust2" class="cluster">
<title>cluster_dfg_Block1</title>
<polygon fill="none" stroke="black" points="570.81,-254.34 570.81,-403.34 678.81,-403.34 678.81,-254.34 570.81,-254.34"/>
<text text-anchor="middle" x="624.81" y="-389.74" font-family="Monaco" font-size="12.00">Block1</text>
</g>
<g id="clust3" class="cluster">
<title>cluster_dfg_Block2</title>
<polygon fill="none" stroke="black" points="686.81,-8 686.81,-403.34 1080.81,-403.34 1080.81,-8 686.81,-8"/>
<text text-anchor="middle" x="883.81" y="-389.74" font-family="Monaco" font-size="12.00">Block2</text>
</g>
<!-- Jump0 -->
<g id="node1" class="node">
<title>Jump0</title>
<polygon fill="none" stroke="black" points="141.42,-371.34 50.19,-371.34 50.19,-367.34 46.19,-367.34 46.19,-363.34 50.19,-363.34 50.19,-343.34 46.19,-343.34 46.19,-339.34 50.19,-339.34 50.19,-335.34 141.42,-335.34 141.42,-371.34"/>
<polyline fill="none" stroke="black" points="50.19,-367.34 54.19,-367.34 54.19,-363.34 50.19,-363.34 "/>
<polyline fill="none" stroke="black" points="50.19,-343.34 54.19,-343.34 54.19,-339.34 50.19,-339.34 "/>
<text text-anchor="start" x="58" y="-356.54" font-family="Monaco" font-size="11.00">StartFun.0</text>
<text text-anchor="start" x="124.01" y="-356.54" font-family="Monaco" baseline-shift="super" font-size="8.00" fill="#ff4411">q0</text>
<text text-anchor="start" x="79.3" y="-345.54" font-family="Monaco" font-size="11.00">i,acc</text>
</g>
<!-- Block0 -->
<g id="node2" class="node">
<title>Block0</title>
<polygon fill="none" stroke="black" points="123.41,-298.34 68.2,-298.34 68.2,-262.34 123.41,-262.34 123.41,-298.34"/>
<text text-anchor="middle" x="95.81" y="-278.87" font-family="Monaco" font-size="11.00">Block0</text>
</g>
<!-- Jump0&#45;&gt;Block0 -->
<g id="edge1" class="edge">
<title>Jump0&#45;&gt;Block0</title>
<path fill="none" stroke="black" d="M95.81,-335.15C95.81,-327.13 95.81,-317.38 95.81,-308.41"/>
<polygon fill="black" stroke="black" points="99.31,-308.37 95.81,-298.37 92.31,-308.37 99.31,-308.37"/>
</g>
<!-- Jump1 -->
<g id="node3" class="node">
<title>Jump1</title>
<path fill="none" stroke="black" d="M125.41,-225.34C125.41,-225.34 66.2,-225.34 66.2,-225.34 60.2,-225.34 50.39,-220.7 46.57,-216.07 46.57,-216.07 32.19,-198.6 32.19,-198.6 28.38,-193.97 30.57,-189.34 36.57,-189.34 36.57,-189.34 155.05,-189.34 155.05,-189.34 161.05,-189.34 163.23,-193.97 159.42,-198.6 159.42,-198.6 145.04,-216.07 145.04,-216.07 141.23,-220.7 131.41,-225.34 125.41,-225.34"/>
<text text-anchor="start" x="64.6" y="-206.87" font-family="Monaco" font-size="11.00">Branch.1</text>
<text text-anchor="start" x="117.41" y="-206.87" font-family="Monaco" baseline-shift="super" font-size="8.00" fill="#ff4411">q2</text>
</g>
<!-- Block0&#45;&gt;Jump1 -->
<g id="edge2" class="edge">
<title>Block0&#45;&gt;Jump1</title>
<path fill="none" stroke="black" d="M95.81,-262.15C95.81,-254.13 95.81,-244.38 95.81,-235.41"/>
<polygon fill="black" stroke="black" points="99.31,-235.37 95.81,-225.37 92.31,-235.37 99.31,-235.37"/>
</g>
<!-- Block1 -->
<g id="node4" class="node">
<title>Block1</title>
<polygon fill="none" stroke="black" points="86.41,-138.67 31.2,-138.67 31.2,-102.67 86.41,-102.67 86.41,-138.67"/>
<text text-anchor="middle" x="58.81" y="-119.2" font-family="Monaco" font-size="11.00">Block1</text>
</g>
<!-- Jump1&#45;&gt;Block1 -->
<g id="edge3" class="edge">
<title>Jump1&#45;&gt;Block1</title>
<path fill="none" stroke="black" d="M88.32,-189.2C83.15,-177.38 76.19,-161.44 70.32,-148.01"/>
<polygon fill="black" stroke="black" points="73.49,-146.54 66.28,-138.78 67.08,-149.34 73.49,-146.54"/>
<text text-anchor="middle" x="86.41" y="-162.54" font-family="Monaco" font-size="11.00">@b</text>
</g>
<!-- Block2 -->
<g id="node5" class="node">
<title>Block2</title>
<polygon fill="none" stroke="black" points="185.41,-138.67 130.2,-138.67 130.2,-102.67 185.41,-102.67 185.41,-138.67"/>
<text text-anchor="middle" x="157.81" y="-119.2" font-family="Monaco" font-size="11.00">Block2</text>
</g>
<!-- Jump1&#45;&gt;Block2 -->
<g id="edge4" class="edge">
<title>Jump1&#45;&gt;Block2</title>
<path fill="none" stroke="black" d="M108.35,-189.2C117.26,-177.04 129.36,-160.51 139.37,-146.85"/>
<polygon fill="black" stroke="black" points="142.19,-148.91 145.28,-138.78 136.55,-144.78 142.19,-148.91"/>
<text text-anchor="middle" x="140.71" y="-162.54" font-family="Monaco" font-size="11.00">!@b</text>
</g>
<!-- Jump2_4 -->
<g id="node6" class="node">
<title>Jump2_4</title>
<polygon fill="none" stroke="black" points="91.42,-46 18.19,-46 18.19,-52 0.19,-34 18.19,-16 18.19,-22 73.42,-22 73.42,-16 91.42,-16 91.42,-46"/>
<text text-anchor="start" x="8" y="-33.53" font-family="Monaco" font-size="11.00">Return.2_4</text>
<text text-anchor="start" x="74.01" y="-33.53" font-family="Monaco" baseline-shift="super" font-size="8.00" fill="#ff4411">q4</text>
</g>
<!-- Block1&#45;&gt;Jump2_4 -->
<g id="edge5" class="edge">
<title>Block1&#45;&gt;Jump2_4</title>
<path fill="none" stroke="black" d="M56.18,-102.53C54.4,-90.94 52.01,-75.39 49.97,-62.13"/>
<polygon fill="black" stroke="black" points="53.41,-61.46 48.43,-52.11 46.49,-62.52 53.41,-61.46"/>
<text text-anchor="middle" x="60.41" y="-75.87" font-family="Monaco" font-size="11.00">@c</text>
</g>
<!-- Jump2_5_6 -->
<g id="node7" class="node">
<title>Jump2_5_6</title>
<polygon fill="none" stroke="black" points="231.42,-52 110.19,-52 110.19,-48 106.19,-48 106.19,-44 110.19,-44 110.19,-24 106.19,-24 106.19,-20 110.19,-20 110.19,-16 231.42,-16 231.42,-52"/>
<polyline fill="none" stroke="black" points="110.19,-48 114.19,-48 114.19,-44 110.19,-44 "/>
<polyline fill="none" stroke="black" points="110.19,-24 114.19,-24 114.19,-20 110.19,-20 "/>
<text text-anchor="start" x="119.8" y="-37.2" font-family="Monaco" font-size="11.00">TailCall.2_5_6</text>
<text text-anchor="start" x="212.21" y="-37.2" font-family="Monaco" baseline-shift="super" font-size="8.00" fill="#ff4411">q8</text>
<text text-anchor="start" x="118" y="-26.2" font-family="Monaco" font-size="11.00">accumulate(@f,b)</text>
</g>
<!-- Block2&#45;&gt;Jump2_5_6 -->
<g id="edge6" class="edge">
<title>Block2&#45;&gt;Jump2_5_6</title>
<path fill="none" stroke="black" d="M160.44,-102.53C162.22,-90.94 164.6,-75.39 166.64,-62.13"/>
<polygon fill="black" stroke="black" points="170.12,-62.52 168.18,-52.11 163.2,-61.46 170.12,-62.52"/>
</g>
<!-- 0 -->
<g id="node8" class="node">
<title>0</title>
<ellipse fill="none" stroke="black" cx="492.81" cy="-353.34" rx="61.83" ry="18"/>
<text text-anchor="start" x="452.9" y="-352.87" font-family="Monaco" font-size="11.00">@a</text>
<text text-anchor="start" x="466.1" y="-352.87" font-family="Monaco" baseline-shift="super" font-size="8.00" fill="#00aa11">U10</text>
<text text-anchor="start" x="480.5" y="-352.87" font-family="Monaco" baseline-shift="super" font-size="8.00" fill="#3311ff">r2</text>
<text text-anchor="start" x="490.11" y="-352.87" font-family="Monaco" font-size="11.00">:1000</text>
<text text-anchor="start" x="523.11" y="-352.87" font-family="Monaco" baseline-shift="super" font-size="8.00" fill="#ff4411">q0</text>
</g>
<!-- 1 -->
<g id="node10" class="node">
<title>1</title>
<ellipse fill="none" stroke="black" cx="479.81" cy="-280.34" rx="75.37" ry="18"/>
<text text-anchor="start" x="429.4" y="-279.87" font-family="Monaco" font-size="11.00">@b</text>
<text text-anchor="start" x="442.6" y="-279.87" font-family="Monaco" baseline-shift="super" font-size="8.00" fill="#00aa11">U1</text>
<text text-anchor="start" x="452.2" y="-279.87" font-family="Monaco" baseline-shift="super" font-size="8.00" fill="#3311ff">r2</text>
<text text-anchor="start" x="461.8" y="-279.87" font-family="Monaco" font-size="11.00">:i==</text>
<text text-anchor="start" x="488.21" y="-279.87" font-family="Monaco" baseline-shift="super" font-size="8.00" fill="#3311ff">Bin0</text>
<text text-anchor="start" x="507.41" y="-279.87" font-family="Monaco" font-size="11.00">@a</text>
<text text-anchor="start" x="520.61" y="-279.87" font-family="Monaco" baseline-shift="super" font-size="8.00" fill="#ff4411">q1</text>
</g>
<!-- 0&#45;&gt;1 -->
<g id="edge7" class="edge">
<title>0&#45;&gt;1</title>
<path fill="none" stroke="black" d="M489.66,-335.15C488.19,-327.13 486.41,-317.38 484.76,-308.41"/>
<polygon fill="black" stroke="black" points="488.17,-307.57 482.92,-298.37 481.28,-308.83 488.17,-307.57"/>
</g>
<!-- 20 -->
<g id="node9" class="node">
<title>20</title>
<ellipse fill="#ffffee" stroke="black" cx="479.81" cy="-207.34" rx="46.44" ry="18"/>
<text text-anchor="start" x="451.9" y="-206.87" font-family="Monaco" font-size="11.00">out(@b)</text>
<text text-anchor="start" x="498.11" y="-206.87" font-family="Monaco" baseline-shift="super" font-size="8.00" fill="#ff4411">q2</text>
</g>
<!-- 1&#45;&gt;20 -->
<g id="edge8" class="edge">
<title>1&#45;&gt;20</title>
<path fill="none" stroke="black" d="M479.81,-262.15C479.81,-254.13 479.81,-244.38 479.81,-235.41"/>
<polygon fill="black" stroke="black" points="483.31,-235.37 479.81,-225.37 476.31,-235.37 483.31,-235.37"/>
</g>
<!-- 17 -->
<g id="node11" class="node">
<title>17</title>
<ellipse fill="#ffeeff" stroke="black" cx="363.81" cy="-353.34" rx="48.84" ry="18"/>
<text text-anchor="start" x="333.8" y="-352.87" font-family="Monaco" font-size="11.00">i</text>
<text text-anchor="start" x="340.4" y="-352.87" font-family="Monaco" baseline-shift="super" font-size="8.00" fill="#00aa11">U10</text>
<text text-anchor="start" x="354.8" y="-352.87" font-family="Monaco" baseline-shift="super" font-size="8.00" fill="#3311ff">r0</text>
<text text-anchor="start" x="364.41" y="-352.87" font-family="Monaco" font-size="11.00">:in</text>
<text text-anchor="start" x="384.21" y="-352.87" font-family="Monaco" baseline-shift="super" font-size="8.00" fill="#ff4411">q0</text>
</g>
<!-- 17&#45;&gt;1 -->
<g id="edge10" class="edge">
<title>17&#45;&gt;1</title>
<path fill="none" stroke="black" d="M387.84,-337.63C404.38,-327.5 426.61,-313.9 445.07,-302.6"/>
<polygon fill="black" stroke="black" points="447.08,-305.47 453.78,-297.26 443.43,-299.5 447.08,-305.47"/>
</g>
<!-- 19 -->
<g id="node14" class="node">
<title>19</title>
<ellipse fill="#ffffee" stroke="black" cx="344.81" cy="-280.34" rx="41.94" ry="18"/>
<text text-anchor="start" x="320.2" y="-279.87" font-family="Monaco" font-size="11.00">out(i)</text>
<text text-anchor="start" x="359.81" y="-279.87" font-family="Monaco" baseline-shift="super" font-size="8.00" fill="#ff4411">q2</text>
</g>
<!-- 17&#45;&gt;19 -->
<g id="edge11" class="edge">
<title>17&#45;&gt;19</title>
<path fill="none" stroke="black" d="M359.21,-335.15C357.04,-327.04 354.4,-317.17 351.97,-308.11"/>
<polygon fill="black" stroke="black" points="355.33,-307.12 349.36,-298.37 348.57,-308.93 355.33,-307.12"/>
</g>
<!-- 18 -->
<g id="node12" class="node">
<title>18</title>
<ellipse fill="#ffffee" stroke="black" cx="234.81" cy="-280.34" rx="50.43" ry="18"/>
<text text-anchor="start" x="203.6" y="-279.87" font-family="Monaco" font-size="11.00">out(acc)</text>
<text text-anchor="start" x="256.41" y="-279.87" font-family="Monaco" baseline-shift="super" font-size="8.00" fill="#ff4411">q2</text>
</g>
<!-- 16 -->
<g id="node13" class="node">
<title>16</title>
<ellipse fill="#ffeeff" stroke="black" cx="239.81" cy="-353.34" rx="57.34" ry="18"/>
<text text-anchor="start" x="203.2" y="-352.87" font-family="Monaco" font-size="11.00">acc</text>
<text text-anchor="start" x="223" y="-352.87" font-family="Monaco" baseline-shift="super" font-size="8.00" fill="#00aa11">S64</text>
<text text-anchor="start" x="237.41" y="-352.87" font-family="Monaco" baseline-shift="super" font-size="8.00" fill="#3311ff">r1</text>
<text text-anchor="start" x="247.01" y="-352.87" font-family="Monaco" font-size="11.00">:in</text>
<text text-anchor="start" x="266.81" y="-352.87" font-family="Monaco" baseline-shift="super" font-size="8.00" fill="#ff4411">q0</text>
</g>
<!-- 16&#45;&gt;18 -->
<g id="edge9" class="edge">
<title>16&#45;&gt;18</title>
<path fill="none" stroke="black" d="M238.6,-335.15C238.03,-327.13 237.34,-317.38 236.71,-308.41"/>
<polygon fill="black" stroke="black" points="240.2,-308.1 236.01,-298.37 233.22,-308.59 240.2,-308.1"/>
</g>
<!-- 2 -->
<g id="node15" class="node">
<title>2</title>
<ellipse fill="none" stroke="black" cx="624.81" cy="-353.34" rx="45.66" ry="18"/>
<text text-anchor="start" x="597.2" y="-352.87" font-family="Monaco" font-size="11.00">@c</text>
<text text-anchor="start" x="610.4" y="-352.87" font-family="Monaco" baseline-shift="super" font-size="8.00" fill="#00aa11">U1</text>
<text text-anchor="start" x="620.01" y="-352.87" font-family="Monaco" baseline-shift="super" font-size="8.00" fill="#3311ff">r0</text>
<text text-anchor="start" x="629.61" y="-352.87" font-family="Monaco" font-size="11.00">:0</text>
<text text-anchor="start" x="642.81" y="-352.87" font-family="Monaco" baseline-shift="super" font-size="8.00" fill="#ff4411">q2</text>
</g>
<!-- 12 -->
<g id="node16" class="node">
<title>12</title>
<ellipse fill="#ffffee" stroke="black" cx="624.81" cy="-280.34" rx="46.44" ry="18"/>
<text text-anchor="start" x="596.9" y="-279.87" font-family="Monaco" font-size="11.00">out(@c)</text>
<text text-anchor="start" x="643.11" y="-279.87" font-family="Monaco" baseline-shift="super" font-size="8.00" fill="#ff4411">q4</text>
</g>
<!-- 2&#45;&gt;12 -->
<g id="edge12" class="edge">
<title>2&#45;&gt;12</title>
<path fill="none" stroke="black" d="M624.81,-335.15C624.81,-327.13 624.81,-317.38 624.81,-308.41"/>
<polygon fill="black" stroke="black" points="628.31,-308.37 624.81,-298.37 621.31,-308.37 628.31,-308.37"/>
</g>
<!-- 5 -->
<g id="node17" class="node">
<title>5</title>
<ellipse fill="none" stroke="black" cx="914.81" cy="-120.67" rx="78.05" ry="18"/>
<text text-anchor="start" x="862" y="-120.2" font-family="Monaco" font-size="11.00">b</text>
<text text-anchor="start" x="868.6" y="-120.2" font-family="Monaco" baseline-shift="super" font-size="8.00" fill="#00aa11">S64</text>
<text text-anchor="start" x="883" y="-120.2" font-family="Monaco" baseline-shift="super" font-size="8.00" fill="#3311ff">r1</text>
<text text-anchor="start" x="892.6" y="-120.2" font-family="Monaco" font-size="11.00">:acc+</text>
<text text-anchor="start" x="925.61" y="-120.2" font-family="Monaco" baseline-shift="super" font-size="8.00" fill="#3311ff">Bin2</text>
<text text-anchor="start" x="944.81" y="-120.2" font-family="Monaco" font-size="11.00">@d</text>
<text text-anchor="start" x="958.01" y="-120.2" font-family="Monaco" baseline-shift="super" font-size="8.00" fill="#ff4411">q7</text>
</g>
<!-- 6 -->
<g id="node19" class="node">
<title>6</title>
<ellipse fill="none" stroke="black" cx="1013.81" cy="-34" rx="41.94" ry="18"/>
<text text-anchor="start" x="989.2" y="-33.53" font-family="Monaco" font-size="11.00">a[i]=b</text>
<text text-anchor="start" x="1028.81" y="-33.53" font-family="Monaco" baseline-shift="super" font-size="8.00" fill="#ff4411">q8</text>
</g>
<!-- 5&#45;&gt;6 -->
<g id="edge14" class="edge">
<title>5&#45;&gt;6</title>
<path fill="none" stroke="black" d="M934.37,-102.94C949.67,-89.85 971.09,-71.54 987.83,-57.22"/>
<polygon fill="black" stroke="black" points="990.3,-59.71 995.62,-50.55 985.75,-54.39 990.3,-59.71"/>
</g>
<!-- 22 -->
<g id="node22" class="node">
<title>22</title>
<ellipse fill="#ffffee" stroke="black" cx="911.81" cy="-34" rx="41.94" ry="18"/>
<text text-anchor="start" x="887.2" y="-33.53" font-family="Monaco" font-size="11.00">out(b)</text>
<text text-anchor="start" x="926.81" y="-33.53" font-family="Monaco" baseline-shift="super" font-size="8.00" fill="#ff4411">q8</text>
</g>
<!-- 5&#45;&gt;22 -->
<g id="edge15" class="edge">
<title>5&#45;&gt;22</title>
<path fill="none" stroke="black" d="M914.2,-102.53C913.79,-90.94 913.24,-75.39 912.77,-62.13"/>
<polygon fill="black" stroke="black" points="916.26,-61.98 912.41,-52.11 909.27,-62.23 916.26,-61.98"/>
</g>
<!-- 14 -->
<g id="node18" class="node">
<title>14</title>
<ellipse fill="#ffeeff" stroke="black" cx="995.81" cy="-353.34" rx="48.84" ry="18"/>
<text text-anchor="start" x="965.8" y="-352.87" font-family="Monaco" font-size="11.00">i</text>
<text text-anchor="start" x="972.4" y="-352.87" font-family="Monaco" baseline-shift="super" font-size="8.00" fill="#00aa11">U10</text>
<text text-anchor="start" x="986.8" y="-352.87" font-family="Monaco" baseline-shift="super" font-size="8.00" fill="#3311ff">r0</text>
<text text-anchor="start" x="996.41" y="-352.87" font-family="Monaco" font-size="11.00">:in</text>
<text text-anchor="start" x="1016.21" y="-352.87" font-family="Monaco" baseline-shift="super" font-size="8.00" fill="#ff4411">q2</text>
</g>
<!-- 14&#45;&gt;6 -->
<g id="edge20" class="edge">
<title>14&#45;&gt;6</title>
<path fill="none" stroke="black" d="M1025.84,-338.88C1047.09,-327.09 1071.81,-307.7 1071.81,-281.34 1071.81,-281.34 1071.81,-281.34 1071.81,-119.67 1071.81,-95.48 1055.49,-73.13 1040.17,-57.47"/>
<polygon fill="black" stroke="black" points="1042.42,-54.78 1032.8,-50.35 1037.55,-59.82 1042.42,-54.78"/>
</g>
<!-- 3 -->
<g id="node24" class="node">
<title>3</title>
<ellipse fill="none" stroke="black" cx="995.81" cy="-280.34" rx="50.43" ry="18"/>
<text text-anchor="start" x="964.6" y="-279.87" font-family="Monaco" font-size="11.00">req a[i]</text>
<text text-anchor="start" x="1017.41" y="-279.87" font-family="Monaco" baseline-shift="super" font-size="8.00" fill="#ff4411">q5</text>
</g>
<!-- 14&#45;&gt;3 -->
<g id="edge19" class="edge">
<title>14&#45;&gt;3</title>
<path fill="none" stroke="black" d="M995.81,-335.15C995.81,-327.13 995.81,-317.38 995.81,-308.41"/>
<polygon fill="black" stroke="black" points="999.31,-308.37 995.81,-298.37 992.31,-308.37 999.31,-308.37"/>
</g>
<!-- 8 -->
<g id="node25" class="node">
<title>8</title>
<ellipse fill="none" stroke="black" cx="811.81" cy="-280.34" rx="74.05" ry="18"/>
<text text-anchor="start" x="762.3" y="-279.87" font-family="Monaco" font-size="11.00">@f</text>
<text text-anchor="start" x="775.5" y="-279.87" font-family="Monaco" baseline-shift="super" font-size="8.00" fill="#00aa11">U10</text>
<text text-anchor="start" x="789.9" y="-279.87" font-family="Monaco" baseline-shift="super" font-size="8.00" fill="#3311ff">r2</text>
<text text-anchor="start" x="799.5" y="-279.87" font-family="Monaco" font-size="11.00">:i+</text>
<text text-anchor="start" x="819.31" y="-279.87" font-family="Monaco" baseline-shift="super" font-size="8.00" fill="#3311ff">Bin1</text>
<text text-anchor="start" x="838.51" y="-279.87" font-family="Monaco" font-size="11.00">@e</text>
<text text-anchor="start" x="851.71" y="-279.87" font-family="Monaco" baseline-shift="super" font-size="8.00" fill="#ff4411">q5</text>
</g>
<!-- 14&#45;&gt;8 -->
<g id="edge21" class="edge">
<title>14&#45;&gt;8</title>
<path fill="none" stroke="black" d="M963.33,-339.81C934.41,-328.65 891.74,-312.18 859.04,-299.56"/>
<polygon fill="black" stroke="black" points="860.26,-296.28 849.67,-295.95 857.74,-302.81 860.26,-296.28"/>
</g>
<!-- 21 -->
<g id="node20" class="node">
<title>21</title>
<ellipse fill="#ffffee" stroke="black" cx="740.81" cy="-207.34" rx="46.44" ry="18"/>
<text text-anchor="start" x="712.9" y="-206.87" font-family="Monaco" font-size="11.00">out(@f)</text>
<text text-anchor="start" x="759.11" y="-206.87" font-family="Monaco" baseline-shift="super" font-size="8.00" fill="#ff4411">q8</text>
</g>
<!-- 13 -->
<g id="node21" class="node">
<title>13</title>
<ellipse fill="#ffeeff" stroke="black" cx="862.81" cy="-207.34" rx="57.34" ry="18"/>
<text text-anchor="start" x="826.2" y="-206.87" font-family="Monaco" font-size="11.00">acc</text>
<text text-anchor="start" x="846" y="-206.87" font-family="Monaco" baseline-shift="super" font-size="8.00" fill="#00aa11">S64</text>
<text text-anchor="start" x="860.41" y="-206.87" font-family="Monaco" baseline-shift="super" font-size="8.00" fill="#3311ff">r1</text>
<text text-anchor="start" x="870.01" y="-206.87" font-family="Monaco" font-size="11.00">:in</text>
<text text-anchor="start" x="889.81" y="-206.87" font-family="Monaco" baseline-shift="super" font-size="8.00" fill="#ff4411">q2</text>
</g>
<!-- 13&#45;&gt;5 -->
<g id="edge18" class="edge">
<title>13&#45;&gt;5</title>
<path fill="none" stroke="black" d="M873.08,-189.61C880.51,-177.51 890.68,-160.95 899.13,-147.2"/>
<polygon fill="black" stroke="black" points="902.12,-149 904.38,-138.65 896.16,-145.34 902.12,-149"/>
</g>
<!-- 7 -->
<g id="node23" class="node">
<title>7</title>
<ellipse fill="none" stroke="black" cx="811.81" cy="-353.34" rx="45.66" ry="18"/>
<text text-anchor="start" x="784.2" y="-352.87" font-family="Monaco" font-size="11.00">@e</text>
<text text-anchor="start" x="797.4" y="-352.87" font-family="Monaco" baseline-shift="super" font-size="8.00" fill="#00aa11">U1</text>
<text text-anchor="start" x="807.01" y="-352.87" font-family="Monaco" baseline-shift="super" font-size="8.00" fill="#3311ff">r2</text>
<text text-anchor="start" x="816.61" y="-352.87" font-family="Monaco" font-size="11.00">:1</text>
<text text-anchor="start" x="829.81" y="-352.87" font-family="Monaco" baseline-shift="super" font-size="8.00" fill="#ff4411">q2</text>
</g>
<!-- 7&#45;&gt;8 -->
<g id="edge16" class="edge">
<title>7&#45;&gt;8</title>
<path fill="none" stroke="black" d="M811.81,-335.15C811.81,-327.13 811.81,-317.38 811.81,-308.41"/>
<polygon fill="black" stroke="black" points="815.31,-308.37 811.81,-298.37 808.31,-308.37 815.31,-308.37"/>
</g>
<!-- 4 -->
<g id="node26" class="node">
<title>4</title>
<ellipse fill="none" stroke="black" cx="995.81" cy="-207.34" rx="57.34" ry="18"/>
<text text-anchor="start" x="959.2" y="-206.87" font-family="Monaco" font-size="11.00">@d</text>
<text text-anchor="start" x="972.4" y="-206.87" font-family="Monaco" baseline-shift="super" font-size="8.00" fill="#00aa11">S64</text>
<text text-anchor="start" x="986.8" y="-206.87" font-family="Monaco" baseline-shift="super" font-size="8.00" fill="#3311ff">r3</text>
<text text-anchor="start" x="996.41" y="-206.87" font-family="Monaco" font-size="11.00">:a[]</text>
<text text-anchor="start" x="1022.81" y="-206.87" font-family="Monaco" baseline-shift="super" font-size="8.00" fill="#ff4411">q6</text>
</g>
<!-- 3&#45;&gt;4 -->
<g id="edge22" class="edge">
<title>3&#45;&gt;4</title>
<path fill="none" stroke="black" stroke-dasharray="1,5" d="M995.81,-262.15C995.81,-254.13 995.81,-244.38 995.81,-235.41"/>
<polygon fill="black" stroke="black" points="999.31,-235.37 995.81,-225.37 992.31,-235.37 999.31,-235.37"/>
</g>
<!-- 8&#45;&gt;21 -->
<g id="edge17" class="edge">
<title>8&#45;&gt;21</title>
<path fill="none" stroke="black" d="M794.98,-262.51C785.83,-253.36 774.37,-241.9 764.34,-231.87"/>
<polygon fill="black" stroke="black" points="766.57,-229.15 757.02,-224.55 761.62,-234.1 766.57,-229.15"/>
</g>
<!-- 4&#45;&gt;5 -->
<g id="edge13" class="edge">
<title>4&#45;&gt;5</title>
<path fill="none" stroke="black" d="M980.19,-190.01C968.24,-177.52 951.58,-160.11 938.06,-145.98"/>
<polygon fill="black" stroke="black" points="940.37,-143.33 930.93,-138.52 935.31,-148.17 940.37,-143.33"/>
</g>
<!-- 4&#45;&gt;6 -->
<g id="edge23" class="edge">
<title>4&#45;&gt;6</title>
<path fill="none" stroke="black" stroke-dasharray="1,5" d="M997.6,-189.28C1000.72,-159.52 1007.2,-97.87 1010.95,-62.17"/>
<polygon fill="black" stroke="black" points="1014.46,-62.3 1012.02,-51.99 1007.5,-61.57 1014.46,-62.3"/>
</g>
</g>
</svg>
