<?xml version="1.0" encoding="UTF-8" standalone="no"?>
<!DOCTYPE svg PUBLIC "-//W3C//DTD SVG 1.1//EN"
 "http://www.w3.org/Graphics/SVG/1.1/DTD/svg11.dtd">
<!-- Generated by graphviz version 2.43.0 (0)
 -->
<!-- Title: Program_ Pages: 1 -->
<svg width="590pt" height="552pt"
 viewBox="0.00 0.00 589.91 551.67" xmlns="http://www.w3.org/2000/svg" xmlns:xlink="http://www.w3.org/1999/xlink">
<g id="graph0" class="graph" transform="scale(1 1) rotate(0) translate(4 547.67)">
<title>Program_</title>
<polygon fill="white" stroke="transparent" points="-4,4 -4,-547.67 585.91,-547.67 585.91,4 -4,4"/>
<g id="clust1" class="cluster">
<title>cluster_dfg_Block0</title>
<polygon fill="none" stroke="black" points="111.91,-8 111.91,-535.67 573.91,-535.67 573.91,-8 111.91,-8"/>
<text text-anchor="middle" x="342.91" y="-522.07" font-family="Monaco" font-size="12.00">Block0</text>
</g>
<!-- Jump0 -->
<g id="node1" class="node">
<title>Jump0</title>
<polygon fill="none" stroke="black" points="101.72,-503.67 0.09,-503.67 0.09,-499.67 -3.91,-499.67 -3.91,-495.67 0.09,-495.67 0.09,-475.67 -3.91,-475.67 -3.91,-471.67 0.09,-471.67 0.09,-467.67 101.72,-467.67 101.72,-503.67"/>
<polyline fill="none" stroke="black" points="0.09,-499.67 4.09,-499.67 4.09,-495.67 0.09,-495.67 "/>
<polyline fill="none" stroke="black" points="0.09,-475.67 4.09,-475.67 4.09,-471.67 0.09,-471.67 "/>
<text text-anchor="start" x="13.1" y="-488.87" font-family="Monaco" font-size="11.00">StartFun.0</text>
<text text-anchor="start" x="79.11" y="-488.87" font-family="Monaco" baseline-shift="super" font-size="8.00" fill="#ff4411">q0</text>
<text text-anchor="start" x="8" y="-477.87" font-family="Monaco" font-size="11.00">a,b,c,d,e,f,g</text>
</g>
<!-- Block0 -->
<g id="node2" class="node">
<title>Block0</title>
<polygon fill="none" stroke="black" points="78.51,-430.67 23.3,-430.67 23.3,-394.67 78.51,-394.67 78.51,-430.67"/>
<text text-anchor="middle" x="50.91" y="-411.2" font-family="Monaco" font-size="11.00">Block0</text>
</g>
<!-- Jump0&#45;&gt;Block0 -->
<g id="edge1" class="edge">
<title>Jump0&#45;&gt;Block0</title>
<path fill="none" stroke="black" d="M50.91,-467.48C50.91,-459.46 50.91,-449.72 50.91,-440.74"/>
<polygon fill="black" stroke="black" points="54.41,-440.7 50.91,-430.7 47.41,-440.7 54.41,-440.7"/>
</g>
<!-- Jump1 -->
<g id="node3" class="node">
<title>Jump1</title>
<polygon fill="none" stroke="black" points="90.32,-338 29.5,-338 29.5,-344 11.5,-326 29.5,-308 29.5,-314 72.32,-314 72.32,-308 90.32,-308 90.32,-338"/>
<text text-anchor="start" x="19.7" y="-325.53" font-family="Monaco" font-size="11.00">Return.1</text>
<text text-anchor="start" x="72.51" y="-325.53" font-family="Monaco" baseline-shift="super" font-size="8.00" fill="#ff4411">q6</text>
</g>
<!-- Block0&#45;&gt;Jump1 -->
<g id="edge2" class="edge">
<title>Block0&#45;&gt;Jump1</title>
<path fill="none" stroke="black" d="M50.91,-394.53C50.91,-382.94 50.91,-367.39 50.91,-354.13"/>
<polygon fill="black" stroke="black" points="54.41,-354.11 50.91,-344.11 47.41,-354.11 54.41,-354.11"/>
<text text-anchor="middle" x="57.51" y="-367.87" font-family="Monaco" font-size="11.00">@f</text>
</g>
<!-- 0 -->
<g id="node4" class="node">
<title>0</title>
<ellipse fill="none" stroke="black" cx="248.91" cy="-412.67" rx="69.56" ry="18"/>
<text text-anchor="start" x="202.7" y="-412.2" font-family="Monaco" font-size="11.00">@a</text>
<text text-anchor="start" x="215.9" y="-412.2" font-family="Monaco" baseline-shift="super" font-size="8.00" fill="#00aa11">U13</text>
<text text-anchor="start" x="230.3" y="-412.2" font-family="Monaco" baseline-shift="super" font-size="8.00" fill="#3311ff">r3</text>
<text text-anchor="start" x="239.91" y="-412.2" font-family="Monaco" font-size="11.00">:d+</text>
<text text-anchor="start" x="259.71" y="-412.2" font-family="Monaco" baseline-shift="super" font-size="8.00" fill="#3311ff">Bin0</text>
<text text-anchor="start" x="278.91" y="-412.2" font-family="Monaco" font-size="11.00">e</text>
<text text-anchor="start" x="285.51" y="-412.2" font-family="Monaco" baseline-shift="super" font-size="8.00" fill="#ff4411">q1</text>
</g>
<!-- 2 -->
<g id="node11" class="node">
<title>2</title>
<ellipse fill="none" stroke="black" cx="270.91" cy="-326" rx="78.05" ry="18"/>
<text text-anchor="start" x="218.1" y="-325.53" font-family="Monaco" font-size="11.00">@c</text>
<text text-anchor="start" x="231.3" y="-325.53" font-family="Monaco" baseline-shift="super" font-size="8.00" fill="#00aa11">U13</text>
<text text-anchor="start" x="245.7" y="-325.53" font-family="Monaco" baseline-shift="super" font-size="8.00" fill="#3311ff">r3</text>
<text text-anchor="start" x="255.3" y="-325.53" font-family="Monaco" font-size="11.00">:@a+</text>
<text text-anchor="start" x="281.71" y="-325.53" font-family="Monaco" baseline-shift="super" font-size="8.00" fill="#3311ff">Bin0</text>
<text text-anchor="start" x="300.91" y="-325.53" font-family="Monaco" font-size="11.00">@b</text>
<text text-anchor="start" x="314.11" y="-325.53" font-family="Monaco" baseline-shift="super" font-size="8.00" fill="#ff4411">q2</text>
</g>
<!-- 0&#45;&gt;2 -->
<g id="edge3" class="edge">
<title>0&#45;&gt;2</title>
<path fill="none" stroke="black" d="M253.36,-394.53C256.37,-382.94 260.41,-367.39 263.86,-354.13"/>
<polygon fill="black" stroke="black" points="267.33,-354.67 266.46,-344.11 260.56,-352.91 267.33,-354.67"/>
</g>
<!-- 5 -->
<g id="node5" class="node">
<title>5</title>
<ellipse fill="none" stroke="black" cx="409.91" cy="-107" rx="74.05" ry="18"/>
<text text-anchor="start" x="360.4" y="-106.53" font-family="Monaco" font-size="11.00">@f</text>
<text text-anchor="start" x="373.6" y="-106.53" font-family="Monaco" baseline-shift="super" font-size="8.00" fill="#00aa11">U13</text>
<text text-anchor="start" x="388" y="-106.53" font-family="Monaco" baseline-shift="super" font-size="8.00" fill="#3311ff">r0</text>
<text text-anchor="start" x="397.6" y="-106.53" font-family="Monaco" font-size="11.00">:a+</text>
<text text-anchor="start" x="417.41" y="-106.53" font-family="Monaco" baseline-shift="super" font-size="8.00" fill="#3311ff">Bin0</text>
<text text-anchor="start" x="436.61" y="-106.53" font-family="Monaco" font-size="11.00">@e</text>
<text text-anchor="start" x="449.81" y="-106.53" font-family="Monaco" baseline-shift="super" font-size="8.00" fill="#ff4411">q5</text>
</g>
<!-- 13 -->
<g id="node10" class="node">
<title>13</title>
<ellipse fill="#ffffee" stroke="black" cx="409.91" cy="-34" rx="46.44" ry="18"/>
<text text-anchor="start" x="382" y="-33.53" font-family="Monaco" font-size="11.00">out(@f)</text>
<text text-anchor="start" x="428.21" y="-33.53" font-family="Monaco" baseline-shift="super" font-size="8.00" fill="#ff4411">q6</text>
</g>
<!-- 5&#45;&gt;13 -->
<g id="edge8" class="edge">
<title>5&#45;&gt;13</title>
<path fill="none" stroke="black" d="M409.91,-88.81C409.91,-80.79 409.91,-71.05 409.91,-62.07"/>
<polygon fill="black" stroke="black" points="413.41,-62.03 409.91,-52.03 406.41,-62.03 413.41,-62.03"/>
</g>
<!-- 10 -->
<g id="node6" class="node">
<title>10</title>
<ellipse fill="#ffeeff" stroke="black" cx="478.91" cy="-253" rx="48.84" ry="18"/>
<text text-anchor="start" x="448.9" y="-252.53" font-family="Monaco" font-size="11.00">b</text>
<text text-anchor="start" x="455.5" y="-252.53" font-family="Monaco" baseline-shift="super" font-size="8.00" fill="#00aa11">U10</text>
<text text-anchor="start" x="469.91" y="-252.53" font-family="Monaco" baseline-shift="super" font-size="8.00" fill="#3311ff">r1</text>
<text text-anchor="start" x="479.51" y="-252.53" font-family="Monaco" font-size="11.00">:in</text>
<text text-anchor="start" x="499.31" y="-252.53" font-family="Monaco" baseline-shift="super" font-size="8.00" fill="#ff4411">q0</text>
</g>
<!-- 4 -->
<g id="node17" class="node">
<title>4</title>
<ellipse fill="none" stroke="black" cx="373.91" cy="-180" rx="74.05" ry="18"/>
<text text-anchor="start" x="324.4" y="-179.53" font-family="Monaco" font-size="11.00">@e</text>
<text text-anchor="start" x="337.6" y="-179.53" font-family="Monaco" baseline-shift="super" font-size="8.00" fill="#00aa11">U13</text>
<text text-anchor="start" x="352" y="-179.53" font-family="Monaco" baseline-shift="super" font-size="8.00" fill="#3311ff">r1</text>
<text text-anchor="start" x="361.6" y="-179.53" font-family="Monaco" font-size="11.00">:b+</text>
<text text-anchor="start" x="381.41" y="-179.53" font-family="Monaco" baseline-shift="super" font-size="8.00" fill="#3311ff">Bin0</text>
<text text-anchor="start" x="400.61" y="-179.53" font-family="Monaco" font-size="11.00">@d</text>
<text text-anchor="start" x="413.81" y="-179.53" font-family="Monaco" baseline-shift="super" font-size="8.00" fill="#ff4411">q4</text>
</g>
<!-- 10&#45;&gt;4 -->
<g id="edge13" class="edge">
<title>10&#45;&gt;4</title>
<path fill="none" stroke="black" d="M456.64,-236.94C442.11,-227.12 422.9,-214.13 406.65,-203.14"/>
<polygon fill="black" stroke="black" points="408.22,-199.97 397.97,-197.27 404.29,-205.77 408.22,-199.97"/>
</g>
<!-- 1 -->
<g id="node7" class="node">
<title>1</title>
<ellipse fill="none" stroke="black" cx="406.91" cy="-412.67" rx="69.56" ry="18"/>
<text text-anchor="start" x="360.7" y="-412.2" font-family="Monaco" font-size="11.00">@b</text>
<text text-anchor="start" x="373.9" y="-412.2" font-family="Monaco" baseline-shift="super" font-size="8.00" fill="#00aa11">U13</text>
<text text-anchor="start" x="388.3" y="-412.2" font-family="Monaco" baseline-shift="super" font-size="8.00" fill="#3311ff">r4</text>
<text text-anchor="start" x="397.91" y="-412.2" font-family="Monaco" font-size="11.00">:f+</text>
<text text-anchor="start" x="417.71" y="-412.2" font-family="Monaco" baseline-shift="super" font-size="8.00" fill="#3311ff">Bin1</text>
<text text-anchor="start" x="436.91" y="-412.2" font-family="Monaco" font-size="11.00">g</text>
<text text-anchor="start" x="443.51" y="-412.2" font-family="Monaco" baseline-shift="super" font-size="8.00" fill="#ff4411">q1</text>
</g>
<!-- 1&#45;&gt;2 -->
<g id="edge4" class="edge">
<title>1&#45;&gt;2</title>
<path fill="none" stroke="black" d="M381.33,-395.74C359.9,-382.41 329.13,-363.24 305.5,-348.54"/>
<polygon fill="black" stroke="black" points="307.17,-345.46 296.84,-343.14 303.47,-351.4 307.17,-345.46"/>
</g>
<!-- 6 -->
<g id="node8" class="node">
<title>6</title>
<ellipse fill="#ffeeff" stroke="black" cx="514.91" cy="-180" rx="48.84" ry="18"/>
<text text-anchor="start" x="484.9" y="-179.53" font-family="Monaco" font-size="11.00">a</text>
<text text-anchor="start" x="491.5" y="-179.53" font-family="Monaco" baseline-shift="super" font-size="8.00" fill="#00aa11">U10</text>
<text text-anchor="start" x="505.91" y="-179.53" font-family="Monaco" baseline-shift="super" font-size="8.00" fill="#3311ff">r0</text>
<text text-anchor="start" x="515.51" y="-179.53" font-family="Monaco" font-size="11.00">:in</text>
<text text-anchor="start" x="535.31" y="-179.53" font-family="Monaco" baseline-shift="super" font-size="8.00" fill="#ff4411">q0</text>
</g>
<!-- 6&#45;&gt;5 -->
<g id="edge9" class="edge">
<title>6&#45;&gt;5</title>
<path fill="none" stroke="black" d="M492.64,-163.94C478.11,-154.12 458.9,-141.13 442.65,-130.14"/>
<polygon fill="black" stroke="black" points="444.22,-126.97 433.97,-124.27 440.29,-132.77 444.22,-126.97"/>
</g>
<!-- 9 -->
<g id="node9" class="node">
<title>9</title>
<ellipse fill="#ffeeff" stroke="black" cx="516.91" cy="-485.67" rx="48.84" ry="18"/>
<text text-anchor="start" x="486.9" y="-485.2" font-family="Monaco" font-size="11.00">g</text>
<text text-anchor="start" x="493.5" y="-485.2" font-family="Monaco" baseline-shift="super" font-size="8.00" fill="#00aa11">U13</text>
<text text-anchor="start" x="507.91" y="-485.2" font-family="Monaco" baseline-shift="super" font-size="8.00" fill="#3311ff">r6</text>
<text text-anchor="start" x="517.51" y="-485.2" font-family="Monaco" font-size="11.00">:in</text>
<text text-anchor="start" x="537.31" y="-485.2" font-family="Monaco" baseline-shift="super" font-size="8.00" fill="#ff4411">q0</text>
</g>
<!-- 9&#45;&gt;1 -->
<g id="edge12" class="edge">
<title>9&#45;&gt;1</title>
<path fill="none" stroke="black" d="M493.85,-469.78C478.29,-459.74 457.51,-446.33 440.17,-435.14"/>
<polygon fill="black" stroke="black" points="441.76,-432 431.46,-429.52 437.97,-437.88 441.76,-432"/>
</g>
<!-- 3 -->
<g id="node14" class="node">
<title>3</title>
<ellipse fill="none" stroke="black" cx="337.91" cy="-253" rx="74.05" ry="18"/>
<text text-anchor="start" x="288.4" y="-252.53" font-family="Monaco" font-size="11.00">@d</text>
<text text-anchor="start" x="301.6" y="-252.53" font-family="Monaco" baseline-shift="super" font-size="8.00" fill="#00aa11">U13</text>
<text text-anchor="start" x="316" y="-252.53" font-family="Monaco" baseline-shift="super" font-size="8.00" fill="#3311ff">r2</text>
<text text-anchor="start" x="325.6" y="-252.53" font-family="Monaco" font-size="11.00">:c+</text>
<text text-anchor="start" x="345.41" y="-252.53" font-family="Monaco" baseline-shift="super" font-size="8.00" fill="#3311ff">Bin0</text>
<text text-anchor="start" x="364.61" y="-252.53" font-family="Monaco" font-size="11.00">@c</text>
<text text-anchor="start" x="377.81" y="-252.53" font-family="Monaco" baseline-shift="super" font-size="8.00" fill="#ff4411">q3</text>
</g>
<!-- 2&#45;&gt;3 -->
<g id="edge5" class="edge">
<title>2&#45;&gt;3</title>
<path fill="none" stroke="black" d="M286.79,-308.17C295.21,-299.24 305.72,-288.11 315.01,-278.26"/>
<polygon fill="black" stroke="black" points="317.83,-280.38 322.14,-270.71 312.73,-275.58 317.83,-280.38"/>
</g>
<!-- 12 -->
<g id="node12" class="node">
<title>12</title>
<ellipse fill="#ffeeff" stroke="black" cx="415.91" cy="-326" rx="48.84" ry="18"/>
<text text-anchor="start" x="385.9" y="-325.53" font-family="Monaco" font-size="11.00">c</text>
<text text-anchor="start" x="392.5" y="-325.53" font-family="Monaco" baseline-shift="super" font-size="8.00" fill="#00aa11">U10</text>
<text text-anchor="start" x="406.91" y="-325.53" font-family="Monaco" baseline-shift="super" font-size="8.00" fill="#3311ff">r2</text>
<text text-anchor="start" x="416.51" y="-325.53" font-family="Monaco" font-size="11.00">:in</text>
<text text-anchor="start" x="436.31" y="-325.53" font-family="Monaco" baseline-shift="super" font-size="8.00" fill="#ff4411">q0</text>
</g>
<!-- 12&#45;&gt;3 -->
<g id="edge15" class="edge">
<title>12&#45;&gt;3</title>
<path fill="none" stroke="black" d="M398.21,-308.89C387.98,-299.58 374.94,-287.71 363.6,-277.39"/>
<polygon fill="black" stroke="black" points="365.83,-274.68 356.08,-270.54 361.12,-279.86 365.83,-274.68"/>
</g>
<!-- 7 -->
<g id="node13" class="node">
<title>7</title>
<ellipse fill="#ffeeff" stroke="black" cx="168.91" cy="-485.67" rx="48.84" ry="18"/>
<text text-anchor="start" x="138.9" y="-485.2" font-family="Monaco" font-size="11.00">d</text>
<text text-anchor="start" x="145.5" y="-485.2" font-family="Monaco" baseline-shift="super" font-size="8.00" fill="#00aa11">U10</text>
<text text-anchor="start" x="159.91" y="-485.2" font-family="Monaco" baseline-shift="super" font-size="8.00" fill="#3311ff">r3</text>
<text text-anchor="start" x="169.51" y="-485.2" font-family="Monaco" font-size="11.00">:in</text>
<text text-anchor="start" x="189.31" y="-485.2" font-family="Monaco" baseline-shift="super" font-size="8.00" fill="#ff4411">q0</text>
</g>
<!-- 7&#45;&gt;0 -->
<g id="edge10" class="edge">
<title>7&#45;&gt;0</title>
<path fill="none" stroke="black" d="M187.06,-468.56C197.55,-459.25 210.93,-447.38 222.56,-437.06"/>
<polygon fill="black" stroke="black" points="225.11,-439.46 230.27,-430.21 220.47,-434.23 225.11,-439.46"/>
</g>
<!-- 3&#45;&gt;4 -->
<g id="edge6" class="edge">
<title>3&#45;&gt;4</title>
<path fill="none" stroke="black" d="M346.62,-234.81C350.82,-226.53 355.95,-216.41 360.63,-207.19"/>
<polygon fill="black" stroke="black" points="363.87,-208.53 365.27,-198.03 357.63,-205.37 363.87,-208.53"/>
</g>
<!-- 11 -->
<g id="node15" class="node">
<title>11</title>
<ellipse fill="#ffeeff" stroke="black" cx="400.91" cy="-485.67" rx="48.84" ry="18"/>
<text text-anchor="start" x="370.9" y="-485.2" font-family="Monaco" font-size="11.00">f</text>
<text text-anchor="start" x="377.5" y="-485.2" font-family="Monaco" baseline-shift="super" font-size="8.00" fill="#00aa11">U10</text>
<text text-anchor="start" x="391.91" y="-485.2" font-family="Monaco" baseline-shift="super" font-size="8.00" fill="#3311ff">r5</text>
<text text-anchor="start" x="401.51" y="-485.2" font-family="Monaco" font-size="11.00">:in</text>
<text text-anchor="start" x="421.31" y="-485.2" font-family="Monaco" baseline-shift="super" font-size="8.00" fill="#ff4411">q0</text>
</g>
<!-- 11&#45;&gt;1 -->
<g id="edge14" class="edge">
<title>11&#45;&gt;1</title>
<path fill="none" stroke="black" d="M402.36,-467.48C403.04,-459.46 403.86,-449.72 404.62,-440.74"/>
<polygon fill="black" stroke="black" points="408.11,-440.96 405.47,-430.7 401.14,-440.37 408.11,-440.96"/>
</g>
<!-- 8 -->
<g id="node16" class="node">
<title>8</title>
<ellipse fill="#ffeeff" stroke="black" cx="284.91" cy="-485.67" rx="48.84" ry="18"/>
<text text-anchor="start" x="254.9" y="-485.2" font-family="Monaco" font-size="11.00">e</text>
<text text-anchor="start" x="261.5" y="-485.2" font-family="Monaco" baseline-shift="super" font-size="8.00" fill="#00aa11">U13</text>
<text text-anchor="start" x="275.91" y="-485.2" font-family="Monaco" baseline-shift="super" font-size="8.00" fill="#3311ff">r4</text>
<text text-anchor="start" x="285.51" y="-485.2" font-family="Monaco" font-size="11.00">:in</text>
<text text-anchor="start" x="305.31" y="-485.2" font-family="Monaco" baseline-shift="super" font-size="8.00" fill="#ff4411">q0</text>
</g>
<!-- 8&#45;&gt;0 -->
<g id="edge11" class="edge">
<title>8&#45;&gt;0</title>
<path fill="none" stroke="black" d="M276.38,-467.84C272.13,-459.48 266.91,-449.18 262.16,-439.81"/>
<polygon fill="black" stroke="black" points="265.27,-438.2 257.63,-430.87 259.03,-441.37 265.27,-438.2"/>
</g>
<!-- 4&#45;&gt;5 -->
<g id="edge7" class="edge">
<title>4&#45;&gt;5</title>
<path fill="none" stroke="black" d="M382.62,-161.81C386.82,-153.53 391.95,-143.41 396.63,-134.19"/>
<polygon fill="black" stroke="black" points="399.87,-135.53 401.27,-125.03 393.63,-132.37 399.87,-135.53"/>
</g>
</g>
</svg>
