<?xml version="1.0" encoding="UTF-8" standalone="no"?>
<!DOCTYPE svg PUBLIC "-//W3C//DTD SVG 1.1//EN"
 "http://www.w3.org/Graphics/SVG/1.1/DTD/svg11.dtd">
<!-- Generated by graphviz version 2.43.0 (0)
 -->
<!-- Title: Program_ Pages: 1 -->
<svg width="431pt" height="552pt"
 viewBox="0.00 0.00 431.01 551.67" xmlns="http://www.w3.org/2000/svg" xmlns:xlink="http://www.w3.org/1999/xlink">
<g id="graph0" class="graph" transform="scale(1 1) rotate(0) translate(4 547.67)">
<title>Program_</title>
<polygon fill="white" stroke="transparent" points="-4,4 -4,-547.67 427.01,-547.67 427.01,4 -4,4"/>
<g id="clust1" class="cluster">
<title>cluster_dfg_Block0</title>
<polygon fill="none" stroke="black" points="92.01,-8 92.01,-535.67 415.01,-535.67 415.01,-8 92.01,-8"/>
<text text-anchor="middle" x="253.51" y="-522.07" font-family="Monaco" font-size="12.00">Block0</text>
</g>
<!-- Jump0 -->
<g id="node1" class="node">
<title>Jump0</title>
<polygon fill="none" stroke="black" points="82.02,-503.67 -0.01,-503.67 -0.01,-499.67 -4.01,-499.67 -4.01,-495.67 -0.01,-495.67 -0.01,-475.67 -4.01,-475.67 -4.01,-471.67 -0.01,-471.67 -0.01,-467.67 82.02,-467.67 82.02,-503.67"/>
<polyline fill="none" stroke="black" points="-0.01,-499.67 3.99,-499.67 3.99,-495.67 -0.01,-495.67 "/>
<polyline fill="none" stroke="black" points="-0.01,-475.67 3.99,-475.67 3.99,-471.67 -0.01,-471.67 "/>
<text text-anchor="middle" x="41.01" y="-484.2" font-family="Monaco" font-size="11.00">StartFun.0</text>
</g>
<!-- Block0 -->
<g id="node2" class="node">
<title>Block0</title>
<polygon fill="none" stroke="black" points="68.61,-430.67 13.4,-430.67 13.4,-394.67 68.61,-394.67 68.61,-430.67"/>
<text text-anchor="middle" x="41.01" y="-411.2" font-family="Monaco" font-size="11.00">Block0</text>
</g>
<!-- Jump0&#45;&gt;Block0 -->
<g id="edge1" class="edge">
<title>Jump0&#45;&gt;Block0</title>
<path fill="none" stroke="black" d="M41.01,-467.48C41.01,-459.46 41.01,-449.72 41.01,-440.74"/>
<polygon fill="black" stroke="black" points="44.51,-440.7 41.01,-430.7 37.51,-440.7 44.51,-440.7"/>
</g>
<!-- Jump1 -->
<g id="node3" class="node">
<title>Jump1</title>
<polygon fill="none" stroke="black" points="75.31,-338 24.7,-338 24.7,-344 6.7,-326 24.7,-308 24.7,-314 57.31,-314 57.31,-308 75.31,-308 75.31,-338"/>
<text text-anchor="middle" x="41.01" y="-324.53" font-family="Monaco" font-size="11.00">Return.1</text>
</g>
<!-- Block0&#45;&gt;Jump1 -->
<g id="edge2" class="edge">
<title>Block0&#45;&gt;Jump1</title>
<path fill="none" stroke="black" d="M41.01,-394.53C41.01,-382.94 41.01,-367.39 41.01,-354.13"/>
<polygon fill="black" stroke="black" points="44.51,-354.11 41.01,-344.11 37.51,-354.11 44.51,-354.11"/>
<text text-anchor="middle" x="47.61" y="-367.87" font-family="Monaco" font-size="11.00">~5</text>
</g>
<!-- ndBlock0_0 -->
<g id="node4" class="node">
<title>ndBlock0_0</title>
<ellipse fill="none" stroke="black" cx="375.01" cy="-485.67" rx="31.58" ry="18"/>
<text text-anchor="middle" x="375.01" y="-484.2" font-family="Monaco" font-size="11.00">d: in</text>
</g>
<!-- ndBlock0_2 -->
<g id="node6" class="node">
<title>ndBlock0_2</title>
<ellipse fill="none" stroke="black" cx="336.01" cy="-412.67" rx="31.58" ry="18"/>
<text text-anchor="middle" x="336.01" y="-411.2" font-family="Monaco" font-size="11.00">~0: +</text>
</g>
<!-- ndBlock0_0&#45;&gt;ndBlock0_2 -->
<g id="edge3" class="edge">
<title>ndBlock0_0&#45;&gt;ndBlock0_2</title>
<path fill="none" stroke="black" d="M365.96,-468.2C361.19,-459.51 355.22,-448.66 349.88,-438.92"/>
<polygon fill="black" stroke="black" points="352.88,-437.13 345,-430.05 346.75,-440.5 352.88,-437.13"/>
</g>
<!-- ndBlock0_1 -->
<g id="node5" class="node">
<title>ndBlock0_1</title>
<ellipse fill="none" stroke="black" cx="294.01" cy="-485.67" rx="31.58" ry="18"/>
<text text-anchor="middle" x="294.01" y="-484.2" font-family="Monaco" font-size="11.00">e: in</text>
</g>
<!-- ndBlock0_1&#45;&gt;ndBlock0_2 -->
<g id="edge4" class="edge">
<title>ndBlock0_1&#45;&gt;ndBlock0_2</title>
<path fill="none" stroke="black" d="M303.75,-468.2C308.89,-459.51 315.31,-448.66 321.07,-438.92"/>
<polygon fill="black" stroke="black" points="324.24,-440.44 326.32,-430.05 318.21,-436.87 324.24,-440.44"/>
</g>
<!-- ndBlock0_3 -->
<g id="node7" class="node">
<title>ndBlock0_3</title>
<ellipse fill="none" stroke="black" cx="367.01" cy="-326" rx="27" ry="18"/>
<text text-anchor="middle" x="367.01" y="-324.53" font-family="Monaco" font-size="11.00">out</text>
</g>
<!-- ndBlock0_2&#45;&gt;ndBlock0_3 -->
<g id="edge5" class="edge">
<title>ndBlock0_2&#45;&gt;ndBlock0_3</title>
<path fill="none" stroke="black" d="M342.13,-394.94C346.46,-383.11 352.36,-367.01 357.32,-353.45"/>
<polygon fill="black" stroke="black" points="360.74,-354.29 360.89,-343.69 354.17,-351.88 360.74,-354.29"/>
</g>
<!-- ndBlock0_8 -->
<g id="node12" class="node">
<title>ndBlock0_8</title>
<ellipse fill="none" stroke="black" cx="290.01" cy="-326" rx="31.58" ry="18"/>
<text text-anchor="middle" x="290.01" y="-324.53" font-family="Monaco" font-size="11.00">~2: +</text>
</g>
<!-- ndBlock0_2&#45;&gt;ndBlock0_8 -->
<g id="edge6" class="edge">
<title>ndBlock0_2&#45;&gt;ndBlock0_8</title>
<path fill="none" stroke="black" d="M327.14,-395.34C320.56,-383.24 311.47,-366.51 303.93,-352.63"/>
<polygon fill="black" stroke="black" points="306.85,-350.68 299,-343.56 300.7,-354.02 306.85,-350.68"/>
</g>
<!-- ndBlock0_4 -->
<g id="node8" class="node">
<title>ndBlock0_4</title>
<ellipse fill="none" stroke="black" cx="213.01" cy="-485.67" rx="31.58" ry="18"/>
<text text-anchor="middle" x="213.01" y="-484.2" font-family="Monaco" font-size="11.00">f: in</text>
</g>
<!-- ndBlock0_6 -->
<g id="node10" class="node">
<title>ndBlock0_6</title>
<ellipse fill="none" stroke="black" cx="213.01" cy="-412.67" rx="31.58" ry="18"/>
<text text-anchor="middle" x="213.01" y="-411.2" font-family="Monaco" font-size="11.00">~1: +</text>
</g>
<!-- ndBlock0_4&#45;&gt;ndBlock0_6 -->
<g id="edge7" class="edge">
<title>ndBlock0_4&#45;&gt;ndBlock0_6</title>
<path fill="none" stroke="black" d="M213.01,-467.48C213.01,-459.46 213.01,-449.72 213.01,-440.74"/>
<polygon fill="black" stroke="black" points="216.51,-440.7 213.01,-430.7 209.51,-440.7 216.51,-440.7"/>
</g>
<!-- ndBlock0_5 -->
<g id="node9" class="node">
<title>ndBlock0_5</title>
<ellipse fill="none" stroke="black" cx="132.01" cy="-485.67" rx="31.58" ry="18"/>
<text text-anchor="middle" x="132.01" y="-484.2" font-family="Monaco" font-size="11.00">g: in</text>
</g>
<!-- ndBlock0_5&#45;&gt;ndBlock0_6 -->
<g id="edge8" class="edge">
<title>ndBlock0_5&#45;&gt;ndBlock0_6</title>
<path fill="none" stroke="black" d="M148.79,-469.96C160.38,-459.8 175.97,-446.13 188.88,-434.81"/>
<polygon fill="black" stroke="black" points="191.31,-437.34 196.52,-428.12 186.69,-432.08 191.31,-437.34"/>
</g>
<!-- ndBlock0_7 -->
<g id="node11" class="node">
<title>ndBlock0_7</title>
<ellipse fill="none" stroke="black" cx="213.01" cy="-326" rx="27" ry="18"/>
<text text-anchor="middle" x="213.01" y="-324.53" font-family="Monaco" font-size="11.00">out</text>
</g>
<!-- ndBlock0_6&#45;&gt;ndBlock0_7 -->
<g id="edge9" class="edge">
<title>ndBlock0_6&#45;&gt;ndBlock0_7</title>
<path fill="none" stroke="black" d="M213.01,-394.53C213.01,-382.94 213.01,-367.39 213.01,-354.13"/>
<polygon fill="black" stroke="black" points="216.51,-354.11 213.01,-344.11 209.51,-354.11 216.51,-354.11"/>
</g>
<!-- ndBlock0_6&#45;&gt;ndBlock0_8 -->
<g id="edge10" class="edge">
<title>ndBlock0_6&#45;&gt;ndBlock0_8</title>
<path fill="none" stroke="black" d="M227.13,-396.14C238.85,-383.25 255.7,-364.73 269,-350.1"/>
<polygon fill="black" stroke="black" points="271.83,-352.18 275.97,-342.43 266.65,-347.47 271.83,-352.18"/>
</g>
<!-- ndBlock0_9 -->
<g id="node13" class="node">
<title>ndBlock0_9</title>
<ellipse fill="none" stroke="black" cx="325.01" cy="-253" rx="27" ry="18"/>
<text text-anchor="middle" x="325.01" y="-251.53" font-family="Monaco" font-size="11.00">out</text>
</g>
<!-- ndBlock0_8&#45;&gt;ndBlock0_9 -->
<g id="edge11" class="edge">
<title>ndBlock0_8&#45;&gt;ndBlock0_9</title>
<path fill="none" stroke="black" d="M298.12,-308.53C302.36,-299.93 307.65,-289.21 312.41,-279.56"/>
<polygon fill="black" stroke="black" points="315.65,-280.89 316.93,-270.38 309.37,-277.8 315.65,-280.89"/>
</g>
<!-- ndBlock0_11 -->
<g id="node15" class="node">
<title>ndBlock0_11</title>
<ellipse fill="none" stroke="black" cx="248.01" cy="-253" rx="31.58" ry="18"/>
<text text-anchor="middle" x="248.01" y="-251.53" font-family="Monaco" font-size="11.00">~3: +</text>
</g>
<!-- ndBlock0_8&#45;&gt;ndBlock0_11 -->
<g id="edge12" class="edge">
<title>ndBlock0_8&#45;&gt;ndBlock0_11</title>
<path fill="none" stroke="black" d="M280.26,-308.53C275.12,-299.84 268.7,-288.99 262.95,-279.26"/>
<polygon fill="black" stroke="black" points="265.8,-277.2 257.69,-270.38 259.77,-280.77 265.8,-277.2"/>
</g>
<!-- ndBlock0_10 -->
<g id="node14" class="node">
<title>ndBlock0_10</title>
<ellipse fill="none" stroke="black" cx="136.01" cy="-326" rx="31.58" ry="18"/>
<text text-anchor="middle" x="136.01" y="-324.53" font-family="Monaco" font-size="11.00">c: in</text>
</g>
<!-- ndBlock0_10&#45;&gt;ndBlock0_11 -->
<g id="edge13" class="edge">
<title>ndBlock0_10&#45;&gt;ndBlock0_11</title>
<path fill="none" stroke="black" d="M156.29,-312.14C173.78,-301.05 199.25,-284.9 218.92,-272.44"/>
<polygon fill="black" stroke="black" points="220.92,-275.31 227.5,-267 217.18,-269.4 220.92,-275.31"/>
</g>
<!-- ndBlock0_12 -->
<g id="node16" class="node">
<title>ndBlock0_12</title>
<ellipse fill="none" stroke="black" cx="290.01" cy="-180" rx="27" ry="18"/>
<text text-anchor="middle" x="290.01" y="-178.53" font-family="Monaco" font-size="11.00">out</text>
</g>
<!-- ndBlock0_11&#45;&gt;ndBlock0_12 -->
<g id="edge14" class="edge">
<title>ndBlock0_11&#45;&gt;ndBlock0_12</title>
<path fill="none" stroke="black" d="M257.75,-235.53C263.02,-226.63 269.63,-215.45 275.49,-205.54"/>
<polygon fill="black" stroke="black" points="278.53,-207.28 280.61,-196.89 272.5,-203.71 278.53,-207.28"/>
</g>
<!-- ndBlock0_14 -->
<g id="node18" class="node">
<title>ndBlock0_14</title>
<ellipse fill="none" stroke="black" cx="213.01" cy="-180" rx="31.58" ry="18"/>
<text text-anchor="middle" x="213.01" y="-178.53" font-family="Monaco" font-size="11.00">~4: +</text>
</g>
<!-- ndBlock0_11&#45;&gt;ndBlock0_14 -->
<g id="edge15" class="edge">
<title>ndBlock0_11&#45;&gt;ndBlock0_14</title>
<path fill="none" stroke="black" d="M239.89,-235.53C235.71,-227.05 230.51,-216.52 225.81,-206.97"/>
<polygon fill="black" stroke="black" points="228.88,-205.29 221.32,-197.87 222.6,-208.39 228.88,-205.29"/>
</g>
<!-- ndBlock0_13 -->
<g id="node17" class="node">
<title>ndBlock0_13</title>
<ellipse fill="none" stroke="black" cx="167.01" cy="-253" rx="31.58" ry="18"/>
<text text-anchor="middle" x="167.01" y="-251.53" font-family="Monaco" font-size="11.00">b: in</text>
</g>
<!-- ndBlock0_13&#45;&gt;ndBlock0_14 -->
<g id="edge16" class="edge">
<title>ndBlock0_13&#45;&gt;ndBlock0_14</title>
<path fill="none" stroke="black" d="M177.44,-235.89C183.27,-226.9 190.64,-215.52 197.16,-205.46"/>
<polygon fill="black" stroke="black" points="200.11,-207.34 202.61,-197.05 194.23,-203.54 200.11,-207.34"/>
</g>
<!-- ndBlock0_15 -->
<g id="node19" class="node">
<title>ndBlock0_15</title>
<ellipse fill="none" stroke="black" cx="213.01" cy="-107" rx="27" ry="18"/>
<text text-anchor="middle" x="213.01" y="-105.53" font-family="Monaco" font-size="11.00">out</text>
</g>
<!-- ndBlock0_14&#45;&gt;ndBlock0_15 -->
<g id="edge17" class="edge">
<title>ndBlock0_14&#45;&gt;ndBlock0_15</title>
<path fill="none" stroke="black" d="M213.01,-161.81C213.01,-153.79 213.01,-144.05 213.01,-135.07"/>
<polygon fill="black" stroke="black" points="216.51,-135.03 213.01,-125.03 209.51,-135.03 216.51,-135.03"/>
</g>
<!-- ndBlock0_17 -->
<g id="node21" class="node">
<title>ndBlock0_17</title>
<ellipse fill="none" stroke="black" cx="134.01" cy="-107" rx="31.58" ry="18"/>
<text text-anchor="middle" x="134.01" y="-105.53" font-family="Monaco" font-size="11.00">~5: +</text>
</g>
<!-- ndBlock0_14&#45;&gt;ndBlock0_17 -->
<g id="edge18" class="edge">
<title>ndBlock0_14&#45;&gt;ndBlock0_17</title>
<path fill="none" stroke="black" d="M196.64,-164.29C185.51,-154.29 170.61,-140.9 158.14,-129.69"/>
<polygon fill="black" stroke="black" points="160.13,-126.77 150.35,-122.69 155.45,-131.98 160.13,-126.77"/>
</g>
<!-- ndBlock0_16 -->
<g id="node20" class="node">
<title>ndBlock0_16</title>
<ellipse fill="none" stroke="black" cx="132.01" cy="-180" rx="31.58" ry="18"/>
<text text-anchor="middle" x="132.01" y="-178.53" font-family="Monaco" font-size="11.00">a: in</text>
</g>
<!-- ndBlock0_16&#45;&gt;ndBlock0_17 -->
<g id="edge19" class="edge">
<title>ndBlock0_16&#45;&gt;ndBlock0_17</title>
<path fill="none" stroke="black" d="M132.49,-161.81C132.72,-153.79 132.99,-144.05 133.24,-135.07"/>
<polygon fill="black" stroke="black" points="136.74,-135.12 133.53,-125.03 129.75,-134.93 136.74,-135.12"/>
</g>
<!-- ndBlock0_18 -->
<g id="node22" class="node">
<title>ndBlock0_18</title>
<ellipse fill="none" stroke="black" cx="134.01" cy="-34" rx="27" ry="18"/>
<text text-anchor="middle" x="134.01" y="-32.53" font-family="Monaco" font-size="11.00">out</text>
</g>
<!-- ndBlock0_17&#45;&gt;ndBlock0_18 -->
<g id="edge20" class="edge">
<title>ndBlock0_17&#45;&gt;ndBlock0_18</title>
<path fill="none" stroke="black" d="M128.17,-89.17C127.29,-81.04 127.05,-71.08 127.43,-61.92"/>
<polygon fill="black" stroke="black" points="130.94,-61.93 128.18,-51.71 123.96,-61.42 130.94,-61.93"/>
</g>
<!-- ndBlock0_17&#45;&gt;ndBlock0_18 -->
<g id="edge21" class="edge">
<title>ndBlock0_17&#45;&gt;ndBlock0_18</title>
<path fill="none" stroke="black" d="M139.85,-89.17C140.72,-81.04 140.96,-71.08 140.58,-61.92"/>
<polygon fill="black" stroke="black" points="144.05,-61.42 139.83,-51.71 137.07,-61.93 144.05,-61.42"/>
</g>
</g>
</svg>
