<?xml version="1.0" encoding="UTF-8" standalone="no"?>
<!DOCTYPE svg PUBLIC "-//W3C//DTD SVG 1.1//EN"
 "http://www.w3.org/Graphics/SVG/1.1/DTD/svg11.dtd">
<!-- Generated by graphviz version 2.43.0 (0)
 -->
<!-- Title: Program_ Pages: 1 -->
<svg width="610pt" height="438pt"
 viewBox="0.00 0.00 609.92 437.67" xmlns="http://www.w3.org/2000/svg" xmlns:xlink="http://www.w3.org/1999/xlink">
<g id="graph0" class="graph" transform="scale(1 1) rotate(0) translate(4 433.67)">
<title>Program_</title>
<polygon fill="white" stroke="transparent" points="-4,4 -4,-433.67 605.92,-433.67 605.92,4 -4,4"/>
<g id="clust1" class="cluster">
<title>cluster_dfg_Block0</title>
<polygon fill="none" stroke="black" points="279.92,-8 279.92,-421.67 593.92,-421.67 593.92,-8 279.92,-8"/>
<text text-anchor="start" x="415.32" y="-409.07" font-family="Monaco" font-size="12.00">Block0</text>
<text text-anchor="start" x="302.5" y="-397.07" font-family="Monaco" font-size="12.00">(a</text>
<text text-anchor="start" x="316.9" y="-397.07" font-family="Monaco" baseline-shift="super" font-size="8.00" fill="#00aa11">U10</text>
<text text-anchor="start" x="331.3" y="-397.07" font-family="Monaco" baseline-shift="super" font-size="8.00" fill="#3311ff">r0</text>
<text text-anchor="start" x="340.91" y="-397.07" font-family="Monaco" font-size="12.00">,d</text>
<text text-anchor="start" x="355.31" y="-397.07" font-family="Monaco" baseline-shift="super" font-size="8.00" fill="#00aa11">U10</text>
<text text-anchor="start" x="369.71" y="-397.07" font-family="Monaco" baseline-shift="super" font-size="8.00" fill="#3311ff">r3</text>
<text text-anchor="start" x="379.31" y="-397.07" font-family="Monaco" font-size="12.00">,e</text>
<text text-anchor="start" x="393.71" y="-397.07" font-family="Monaco" baseline-shift="super" font-size="8.00" fill="#00aa11">U13</text>
<text text-anchor="start" x="408.12" y="-397.07" font-family="Monaco" baseline-shift="super" font-size="8.00" fill="#3311ff">r4</text>
<text text-anchor="start" x="417.72" y="-397.07" font-family="Monaco" font-size="12.00">,g</text>
<text text-anchor="start" x="432.12" y="-397.07" font-family="Monaco" baseline-shift="super" font-size="8.00" fill="#00aa11">U13</text>
<text text-anchor="start" x="446.52" y="-397.07" font-family="Monaco" baseline-shift="super" font-size="8.00" fill="#3311ff">r6</text>
<text text-anchor="start" x="456.12" y="-397.07" font-family="Monaco" font-size="12.00">,b</text>
<text text-anchor="start" x="470.53" y="-397.07" font-family="Monaco" baseline-shift="super" font-size="8.00" fill="#00aa11">U10</text>
<text text-anchor="start" x="484.93" y="-397.07" font-family="Monaco" baseline-shift="super" font-size="8.00" fill="#3311ff">r1</text>
<text text-anchor="start" x="494.53" y="-397.07" font-family="Monaco" font-size="12.00">,f</text>
<text text-anchor="start" x="508.93" y="-397.07" font-family="Monaco" baseline-shift="super" font-size="8.00" fill="#00aa11">U10</text>
<text text-anchor="start" x="523.33" y="-397.07" font-family="Monaco" baseline-shift="super" font-size="8.00" fill="#3311ff">r5</text>
<text text-anchor="start" x="532.94" y="-397.07" font-family="Monaco" font-size="12.00">,c</text>
<text text-anchor="start" x="547.34" y="-397.07" font-family="Monaco" baseline-shift="super" font-size="8.00" fill="#00aa11">U10</text>
<text text-anchor="start" x="561.74" y="-397.07" font-family="Monaco" baseline-shift="super" font-size="8.00" fill="#3311ff">r2</text>
<text text-anchor="start" x="429.72" y="-385.07" font-family="Monaco" font-size="12.00">=&gt;</text>
<text text-anchor="start" x="414.12" y="-373.07" font-family="Monaco" font-size="12.00">@f</text>
<text text-anchor="start" x="428.52" y="-373.07" font-family="Monaco" baseline-shift="super" font-size="8.00" fill="#00aa11">U13</text>
<text text-anchor="start" x="442.92" y="-373.07" font-family="Monaco" baseline-shift="super" font-size="8.00" fill="#3311ff">r0</text>
<text text-anchor="start" x="452.52" y="-373.07" font-family="Monaco" font-size="12.00">)</text>
</g>
<!-- Jump0 -->
<g id="node1" class="node">
<title>Jump0</title>
<polygon fill="none" stroke="black" points="269.76,-357.67 0.08,-357.67 0.08,-353.67 -3.92,-353.67 -3.92,-349.67 0.08,-349.67 0.08,-329.67 -3.92,-329.67 -3.92,-325.67 0.08,-325.67 0.08,-321.67 269.76,-321.67 269.76,-357.67"/>
<polyline fill="none" stroke="black" points="0.08,-353.67 4.08,-353.67 4.08,-349.67 0.08,-349.67 "/>
<polyline fill="none" stroke="black" points="0.08,-329.67 4.08,-329.67 4.08,-325.67 0.08,-325.67 "/>
<text text-anchor="start" x="97.11" y="-342.87" font-family="Monaco" baseline-shift="super" font-size="8.00" fill="#ff4411">q0</text>
<text text-anchor="start" x="106.72" y="-342.87" font-family="Monaco" font-size="11.00">StartFun.0</text>
<text text-anchor="start" x="8" y="-331.87" font-family="Monaco" font-size="11.00">a</text>
<text text-anchor="start" x="14.6" y="-331.87" font-family="Monaco" baseline-shift="super" font-size="8.00" fill="#00aa11">U10</text>
<text text-anchor="start" x="29" y="-331.87" font-family="Monaco" baseline-shift="super" font-size="8.00" fill="#3311ff">r0</text>
<text text-anchor="start" x="38.6" y="-331.87" font-family="Monaco" font-size="11.00">,b</text>
<text text-anchor="start" x="51.81" y="-331.87" font-family="Monaco" baseline-shift="super" font-size="8.00" fill="#00aa11">U10</text>
<text text-anchor="start" x="66.21" y="-331.87" font-family="Monaco" baseline-shift="super" font-size="8.00" fill="#3311ff">r1</text>
<text text-anchor="start" x="75.81" y="-331.87" font-family="Monaco" font-size="11.00">,c</text>
<text text-anchor="start" x="89.01" y="-331.87" font-family="Monaco" baseline-shift="super" font-size="8.00" fill="#00aa11">U10</text>
<text text-anchor="start" x="103.42" y="-331.87" font-family="Monaco" baseline-shift="super" font-size="8.00" fill="#3311ff">r2</text>
<text text-anchor="start" x="113.02" y="-331.87" font-family="Monaco" font-size="11.00">,d</text>
<text text-anchor="start" x="126.22" y="-331.87" font-family="Monaco" baseline-shift="super" font-size="8.00" fill="#00aa11">U10</text>
<text text-anchor="start" x="140.62" y="-331.87" font-family="Monaco" baseline-shift="super" font-size="8.00" fill="#3311ff">r3</text>
<text text-anchor="start" x="150.22" y="-331.87" font-family="Monaco" font-size="11.00">,e</text>
<text text-anchor="start" x="163.43" y="-331.87" font-family="Monaco" baseline-shift="super" font-size="8.00" fill="#00aa11">U13</text>
<text text-anchor="start" x="177.83" y="-331.87" font-family="Monaco" baseline-shift="super" font-size="8.00" fill="#3311ff">r4</text>
<text text-anchor="start" x="187.43" y="-331.87" font-family="Monaco" font-size="11.00">,f</text>
<text text-anchor="start" x="200.63" y="-331.87" font-family="Monaco" baseline-shift="super" font-size="8.00" fill="#00aa11">U10</text>
<text text-anchor="start" x="215.03" y="-331.87" font-family="Monaco" baseline-shift="super" font-size="8.00" fill="#3311ff">r5</text>
<text text-anchor="start" x="224.64" y="-331.87" font-family="Monaco" font-size="11.00">,g</text>
<text text-anchor="start" x="237.84" y="-331.87" font-family="Monaco" baseline-shift="super" font-size="8.00" fill="#00aa11">U13</text>
<text text-anchor="start" x="252.24" y="-331.87" font-family="Monaco" baseline-shift="super" font-size="8.00" fill="#3311ff">r6</text>
</g>
<!-- Block0 -->
<g id="node2" class="node">
<title>Block0</title>
<polygon fill="none" stroke="black" points="162.53,-284.67 107.31,-284.67 107.31,-248.67 162.53,-248.67 162.53,-284.67"/>
<text text-anchor="middle" x="134.92" y="-265.2" font-family="Monaco" font-size="11.00">Block0</text>
</g>
<!-- Jump0&#45;&gt;Block0 -->
<g id="edge1" class="edge">
<title>Jump0&#45;&gt;Block0</title>
<path fill="none" stroke="black" d="M134.92,-321.48C134.92,-313.46 134.92,-303.72 134.92,-294.74"/>
<polygon fill="black" stroke="black" points="138.42,-294.7 134.92,-284.7 131.42,-294.7 138.42,-294.7"/>
</g>
<!-- Jump1 -->
<g id="node3" class="node">
<title>Jump1</title>
<polygon fill="none" stroke="black" points="174.33,-192 113.51,-192 113.51,-198 95.51,-180 113.51,-162 113.51,-168 156.33,-168 156.33,-162 174.33,-162 174.33,-192"/>
<text text-anchor="start" x="103.72" y="-179.53" font-family="Monaco" baseline-shift="super" font-size="8.00" fill="#ff4411">q6</text>
<text text-anchor="start" x="113.32" y="-179.53" font-family="Monaco" font-size="11.00">Return.1</text>
</g>
<!-- Block0&#45;&gt;Jump1 -->
<g id="edge2" class="edge">
<title>Block0&#45;&gt;Jump1</title>
<path fill="none" stroke="black" d="M134.92,-248.53C134.92,-236.94 134.92,-221.39 134.92,-208.13"/>
<polygon fill="black" stroke="black" points="138.42,-208.11 134.92,-198.11 131.42,-208.11 138.42,-208.11"/>
<text text-anchor="start" x="134.92" y="-221.87" font-family="Monaco" font-size="11.00">@f</text>
</g>
<!-- 0 -->
<g id="node4" class="node">
<title>0</title>
<ellipse fill="none" stroke="black" cx="515.92" cy="-339.67" rx="69.56" ry="18"/>
<text text-anchor="start" x="469.71" y="-339.2" font-family="Monaco" baseline-shift="super" font-size="8.00" fill="#ff4411">q1</text>
<text text-anchor="start" x="479.31" y="-339.2" font-family="Monaco" font-size="11.00">@a</text>
<text text-anchor="start" x="492.52" y="-339.2" font-family="Monaco" baseline-shift="super" font-size="8.00" fill="#00aa11">U13</text>
<text text-anchor="start" x="506.92" y="-339.2" font-family="Monaco" baseline-shift="super" font-size="8.00" fill="#3311ff">r3</text>
<text text-anchor="start" x="516.52" y="-339.2" font-family="Monaco" font-size="11.00">:d+</text>
<text text-anchor="start" x="536.32" y="-339.2" font-family="Monaco" baseline-shift="super" font-size="8.00" fill="#3311ff">Bin0</text>
<text text-anchor="start" x="555.53" y="-339.2" font-family="Monaco" font-size="11.00">e</text>
</g>
<!-- 2 -->
<g id="node7" class="node">
<title>2</title>
<ellipse fill="none" stroke="black" cx="436.92" cy="-266.67" rx="78.05" ry="18"/>
<text text-anchor="start" x="384.11" y="-266.2" font-family="Monaco" baseline-shift="super" font-size="8.00" fill="#ff4411">q2</text>
<text text-anchor="start" x="393.71" y="-266.2" font-family="Monaco" font-size="11.00">@c</text>
<text text-anchor="start" x="406.92" y="-266.2" font-family="Monaco" baseline-shift="super" font-size="8.00" fill="#00aa11">U13</text>
<text text-anchor="start" x="421.32" y="-266.2" font-family="Monaco" baseline-shift="super" font-size="8.00" fill="#3311ff">r3</text>
<text text-anchor="start" x="430.92" y="-266.2" font-family="Monaco" font-size="11.00">:@a+</text>
<text text-anchor="start" x="457.32" y="-266.2" font-family="Monaco" baseline-shift="super" font-size="8.00" fill="#3311ff">Bin0</text>
<text text-anchor="start" x="476.53" y="-266.2" font-family="Monaco" font-size="11.00">@b</text>
</g>
<!-- 0&#45;&gt;2 -->
<g id="edge3" class="edge">
<title>0&#45;&gt;2</title>
<path fill="none" stroke="black" d="M497.6,-322.2C487.3,-312.95 474.28,-301.25 462.94,-291.06"/>
<polygon fill="black" stroke="black" points="465.19,-288.37 455.42,-284.29 460.52,-293.58 465.19,-288.37"/>
</g>
<!-- 5 -->
<g id="node5" class="node">
<title>5</title>
<ellipse fill="none" stroke="black" cx="436.92" cy="-34" rx="74.05" ry="18"/>
<text text-anchor="start" x="387.41" y="-33.53" font-family="Monaco" baseline-shift="super" font-size="8.00" fill="#ff4411">q5</text>
<text text-anchor="start" x="397.01" y="-33.53" font-family="Monaco" font-size="11.00">@f</text>
<text text-anchor="start" x="410.22" y="-33.53" font-family="Monaco" baseline-shift="super" font-size="8.00" fill="#00aa11">U13</text>
<text text-anchor="start" x="424.62" y="-33.53" font-family="Monaco" baseline-shift="super" font-size="8.00" fill="#3311ff">r0</text>
<text text-anchor="start" x="434.22" y="-33.53" font-family="Monaco" font-size="11.00">:a+</text>
<text text-anchor="start" x="454.02" y="-33.53" font-family="Monaco" baseline-shift="super" font-size="8.00" fill="#3311ff">Bin0</text>
<text text-anchor="start" x="473.23" y="-33.53" font-family="Monaco" font-size="11.00">@e</text>
</g>
<!-- 1 -->
<g id="node6" class="node">
<title>1</title>
<ellipse fill="none" stroke="black" cx="357.92" cy="-339.67" rx="69.56" ry="18"/>
<text text-anchor="start" x="311.71" y="-339.2" font-family="Monaco" baseline-shift="super" font-size="8.00" fill="#ff4411">q1</text>
<text text-anchor="start" x="321.31" y="-339.2" font-family="Monaco" font-size="11.00">@b</text>
<text text-anchor="start" x="334.52" y="-339.2" font-family="Monaco" baseline-shift="super" font-size="8.00" fill="#00aa11">U13</text>
<text text-anchor="start" x="348.92" y="-339.2" font-family="Monaco" baseline-shift="super" font-size="8.00" fill="#3311ff">r4</text>
<text text-anchor="start" x="358.52" y="-339.2" font-family="Monaco" font-size="11.00">:f+</text>
<text text-anchor="start" x="378.32" y="-339.2" font-family="Monaco" baseline-shift="super" font-size="8.00" fill="#3311ff">Bin1</text>
<text text-anchor="start" x="397.53" y="-339.2" font-family="Monaco" font-size="11.00">g</text>
</g>
<!-- 1&#45;&gt;2 -->
<g id="edge4" class="edge">
<title>1&#45;&gt;2</title>
<path fill="none" stroke="black" d="M376.24,-322.2C386.54,-312.95 399.56,-301.25 410.9,-291.06"/>
<polygon fill="black" stroke="black" points="413.33,-293.58 418.42,-284.29 408.65,-288.37 413.33,-293.58"/>
</g>
<!-- 3 -->
<g id="node8" class="node">
<title>3</title>
<ellipse fill="none" stroke="black" cx="436.92" cy="-180" rx="74.05" ry="18"/>
<text text-anchor="start" x="387.41" y="-179.53" font-family="Monaco" baseline-shift="super" font-size="8.00" fill="#ff4411">q3</text>
<text text-anchor="start" x="397.01" y="-179.53" font-family="Monaco" font-size="11.00">@d</text>
<text text-anchor="start" x="410.22" y="-179.53" font-family="Monaco" baseline-shift="super" font-size="8.00" fill="#00aa11">U13</text>
<text text-anchor="start" x="424.62" y="-179.53" font-family="Monaco" baseline-shift="super" font-size="8.00" fill="#3311ff">r2</text>
<text text-anchor="start" x="434.22" y="-179.53" font-family="Monaco" font-size="11.00">:c+</text>
<text text-anchor="start" x="454.02" y="-179.53" font-family="Monaco" baseline-shift="super" font-size="8.00" fill="#3311ff">Bin0</text>
<text text-anchor="start" x="473.23" y="-179.53" font-family="Monaco" font-size="11.00">@c</text>
</g>
<!-- 2&#45;&gt;3 -->
<g id="edge5" class="edge">
<title>2&#45;&gt;3</title>
<path fill="none" stroke="black" d="M436.92,-248.53C436.92,-236.94 436.92,-221.39 436.92,-208.13"/>
<polygon fill="black" stroke="black" points="440.42,-208.11 436.92,-198.11 433.42,-208.11 440.42,-208.11"/>
</g>
<!-- 4 -->
<g id="node9" class="node">
<title>4</title>
<ellipse fill="none" stroke="black" cx="436.92" cy="-107" rx="74.05" ry="18"/>
<text text-anchor="start" x="387.41" y="-106.53" font-family="Monaco" baseline-shift="super" font-size="8.00" fill="#ff4411">q4</text>
<text text-anchor="start" x="397.01" y="-106.53" font-family="Monaco" font-size="11.00">@e</text>
<text text-anchor="start" x="410.22" y="-106.53" font-family="Monaco" baseline-shift="super" font-size="8.00" fill="#00aa11">U13</text>
<text text-anchor="start" x="424.62" y="-106.53" font-family="Monaco" baseline-shift="super" font-size="8.00" fill="#3311ff">r1</text>
<text text-anchor="start" x="434.22" y="-106.53" font-family="Monaco" font-size="11.00">:b+</text>
<text text-anchor="start" x="454.02" y="-106.53" font-family="Monaco" baseline-shift="super" font-size="8.00" fill="#3311ff">Bin0</text>
<text text-anchor="start" x="473.23" y="-106.53" font-family="Monaco" font-size="11.00">@d</text>
</g>
<!-- 3&#45;&gt;4 -->
<g id="edge6" class="edge">
<title>3&#45;&gt;4</title>
<path fill="none" stroke="black" d="M436.92,-161.81C436.92,-153.79 436.92,-144.05 436.92,-135.07"/>
<polygon fill="black" stroke="black" points="440.42,-135.03 436.92,-125.03 433.42,-135.03 440.42,-135.03"/>
</g>
<!-- 4&#45;&gt;5 -->
<g id="edge7" class="edge">
<title>4&#45;&gt;5</title>
<path fill="none" stroke="black" d="M436.92,-88.81C436.92,-80.79 436.92,-71.05 436.92,-62.07"/>
<polygon fill="black" stroke="black" points="440.42,-62.03 436.92,-52.03 433.42,-62.03 440.42,-62.03"/>
</g>
</g>
</svg>
