<?xml version="1.0" encoding="UTF-8" standalone="no"?>
<!DOCTYPE svg PUBLIC "-//W3C//DTD SVG 1.1//EN"
 "http://www.w3.org/Graphics/SVG/1.1/DTD/svg11.dtd">
<!-- Generated by graphviz version 2.43.0 (0)
 -->
<!-- Title: Program_ Pages: 1 -->
<svg width="431pt" height="552pt"
 viewBox="0.00 0.00 431.01 551.67" xmlns="http://www.w3.org/2000/svg" xmlns:xlink="http://www.w3.org/1999/xlink">
<g id="graph0" class="graph" transform="scale(1 1) rotate(0) translate(4 547.67)">
<title>Program_</title>
<polygon fill="white" stroke="transparent" points="-4,4 -4,-547.67 427.01,-547.67 427.01,4 -4,4"/>
<g id="clust1" class="cluster">
<title>cluster_dfg_Block0</title>
<polygon fill="none" stroke="black" points="92.01,-8 92.01,-535.67 415.01,-535.67 415.01,-8 92.01,-8"/>
<text text-anchor="middle" x="253.51" y="-522.07" font-family="Monaco" font-size="12.00">Block0</text>
</g>
<!-- Jump0 -->
<g id="node1" class="node">
<title>Jump0</title>
<polygon fill="none" stroke="black" points="82.02,-503.67 -0.01,-503.67 -0.01,-499.67 -4.01,-499.67 -4.01,-495.67 -0.01,-495.67 -0.01,-475.67 -4.01,-475.67 -4.01,-471.67 -0.01,-471.67 -0.01,-467.67 82.02,-467.67 82.02,-503.67"/>
<polyline fill="none" stroke="black" points="-0.01,-499.67 3.99,-499.67 3.99,-495.67 -0.01,-495.67 "/>
<polyline fill="none" stroke="black" points="-0.01,-475.67 3.99,-475.67 3.99,-471.67 -0.01,-471.67 "/>
<text text-anchor="middle" x="41.01" y="-484.2" font-family="Monaco" font-size="11.00">StartFun.0</text>
</g>
<!-- Block0 -->
<g id="node2" class="node">
<title>Block0</title>
<polygon fill="none" stroke="black" points="68.61,-430.67 13.4,-430.67 13.4,-394.67 68.61,-394.67 68.61,-430.67"/>
<text text-anchor="middle" x="41.01" y="-411.2" font-family="Monaco" font-size="11.00">Block0</text>
</g>
<!-- Jump0&#45;&gt;Block0 -->
<g id="edge1" class="edge">
<title>Jump0&#45;&gt;Block0</title>
<path fill="none" stroke="black" d="M41.01,-467.48C41.01,-459.46 41.01,-449.72 41.01,-440.74"/>
<polygon fill="black" stroke="black" points="44.51,-440.7 41.01,-430.7 37.51,-440.7 44.51,-440.7"/>
</g>
<!-- Jump1 -->
<g id="node3" class="node">
<title>Jump1</title>
<polygon fill="none" stroke="black" points="75.31,-338 24.7,-338 24.7,-344 6.7,-326 24.7,-308 24.7,-314 57.31,-314 57.31,-308 75.31,-308 75.31,-338"/>
<text text-anchor="middle" x="41.01" y="-324.53" font-family="Monaco" font-size="11.00">Return.1</text>
</g>
<!-- Block0&#45;&gt;Jump1 -->
<g id="edge2" class="edge">
<title>Block0&#45;&gt;Jump1</title>
<path fill="none" stroke="black" d="M41.01,-394.53C41.01,-382.94 41.01,-367.39 41.01,-354.13"/>
<polygon fill="black" stroke="black" points="44.51,-354.11 41.01,-344.11 37.51,-354.11 44.51,-354.11"/>
<text text-anchor="middle" x="47.61" y="-367.87" font-family="Monaco" font-size="11.00">@5</text>
</g>
<!-- ndBlock0_0 -->
<g id="node4" class="node">
<title>ndBlock0_0</title>
<ellipse fill="none" stroke="black" cx="375.01" cy="-485.67" rx="31.58" ry="18"/>
<text text-anchor="middle" x="375.01" y="-484.2" font-family="Monaco" font-size="11.00">g: in</text>
</g>
<!-- ndBlock0_7 -->
<g id="node11" class="node">
<title>ndBlock0_7</title>
<ellipse fill="none" stroke="black" cx="297.01" cy="-412.67" rx="40.08" ry="18"/>
<text text-anchor="middle" x="297.01" y="-411.2" font-family="Monaco" font-size="11.00">@1: f+g</text>
</g>
<!-- ndBlock0_0&#45;&gt;ndBlock0_7 -->
<g id="edge5" class="edge">
<title>ndBlock0_0&#45;&gt;ndBlock0_7</title>
<path fill="none" stroke="black" d="M358.84,-469.96C348.08,-460.16 333.74,-447.1 321.57,-436.03"/>
<polygon fill="black" stroke="black" points="323.71,-433.24 313.96,-429.1 318.99,-438.42 323.71,-433.24"/>
</g>
<!-- ndBlock0_1 -->
<g id="node5" class="node">
<title>ndBlock0_1</title>
<ellipse fill="none" stroke="black" cx="294.01" cy="-485.67" rx="31.58" ry="18"/>
<text text-anchor="middle" x="294.01" y="-484.2" font-family="Monaco" font-size="11.00">f: in</text>
</g>
<!-- ndBlock0_1&#45;&gt;ndBlock0_7 -->
<g id="edge6" class="edge">
<title>ndBlock0_1&#45;&gt;ndBlock0_7</title>
<path fill="none" stroke="black" d="M294.73,-467.48C295.07,-459.46 295.48,-449.72 295.86,-440.74"/>
<polygon fill="black" stroke="black" points="299.36,-440.84 296.29,-430.7 292.37,-440.54 299.36,-440.84"/>
</g>
<!-- ndBlock0_2 -->
<g id="node6" class="node">
<title>ndBlock0_2</title>
<ellipse fill="none" stroke="black" cx="373.01" cy="-180" rx="31.58" ry="18"/>
<text text-anchor="middle" x="373.01" y="-178.53" font-family="Monaco" font-size="11.00">a: in</text>
</g>
<!-- ndBlock0_4 -->
<g id="node8" class="node">
<title>ndBlock0_4</title>
<ellipse fill="none" stroke="black" cx="304.01" cy="-107" rx="44.07" ry="18"/>
<text text-anchor="middle" x="304.01" y="-105.53" font-family="Monaco" font-size="11.00">@5: a+@4</text>
</g>
<!-- ndBlock0_2&#45;&gt;ndBlock0_4 -->
<g id="edge12" class="edge">
<title>ndBlock0_2&#45;&gt;ndBlock0_4</title>
<path fill="none" stroke="black" d="M358.37,-163.94C349.2,-154.51 337.2,-142.15 326.8,-131.45"/>
<polygon fill="black" stroke="black" points="329.06,-128.75 319.58,-124.02 324.04,-133.63 329.06,-128.75"/>
</g>
<!-- ndBlock0_3 -->
<g id="node7" class="node">
<title>ndBlock0_3</title>
<ellipse fill="none" stroke="black" cx="348.01" cy="-253" rx="31.58" ry="18"/>
<text text-anchor="middle" x="348.01" y="-251.53" font-family="Monaco" font-size="11.00">b: in</text>
</g>
<!-- ndBlock0_10 -->
<g id="node14" class="node">
<title>ndBlock0_10</title>
<ellipse fill="none" stroke="black" cx="279.01" cy="-180" rx="44.07" ry="18"/>
<text text-anchor="middle" x="279.01" y="-178.53" font-family="Monaco" font-size="11.00">@4: b+@3</text>
</g>
<!-- ndBlock0_3&#45;&gt;ndBlock0_10 -->
<g id="edge3" class="edge">
<title>ndBlock0_3&#45;&gt;ndBlock0_10</title>
<path fill="none" stroke="black" d="M333.37,-236.94C324.2,-227.51 312.2,-215.15 301.8,-204.45"/>
<polygon fill="black" stroke="black" points="304.06,-201.75 294.58,-197.02 299.04,-206.63 304.06,-201.75"/>
</g>
<!-- ndBlock0_9 -->
<g id="node13" class="node">
<title>ndBlock0_9</title>
<ellipse fill="none" stroke="black" cx="304.01" cy="-34" rx="27" ry="18"/>
<text text-anchor="middle" x="304.01" y="-32.53" font-family="Monaco" font-size="11.00">out</text>
</g>
<!-- ndBlock0_4&#45;&gt;ndBlock0_9 -->
<g id="edge11" class="edge">
<title>ndBlock0_4&#45;&gt;ndBlock0_9</title>
<path fill="none" stroke="black" d="M304.01,-88.81C304.01,-80.79 304.01,-71.05 304.01,-62.07"/>
<polygon fill="black" stroke="black" points="307.51,-62.03 304.01,-52.03 300.51,-62.03 307.51,-62.03"/>
</g>
<!-- ndBlock0_5 -->
<g id="node9" class="node">
<title>ndBlock0_5</title>
<ellipse fill="none" stroke="black" cx="199.01" cy="-412.67" rx="40.08" ry="18"/>
<text text-anchor="middle" x="199.01" y="-411.2" font-family="Monaco" font-size="11.00">@0: d+e</text>
</g>
<!-- ndBlock0_11 -->
<g id="node15" class="node">
<title>ndBlock0_11</title>
<ellipse fill="none" stroke="black" cx="211.01" cy="-326" rx="48.57" ry="18"/>
<text text-anchor="middle" x="211.01" y="-324.53" font-family="Monaco" font-size="11.00">@2: @0+@1</text>
</g>
<!-- ndBlock0_5&#45;&gt;ndBlock0_11 -->
<g id="edge7" class="edge">
<title>ndBlock0_5&#45;&gt;ndBlock0_11</title>
<path fill="none" stroke="black" d="M201.43,-394.53C203.08,-382.94 205.28,-367.39 207.16,-354.13"/>
<polygon fill="black" stroke="black" points="210.64,-354.5 208.58,-344.11 203.71,-353.52 210.64,-354.5"/>
</g>
<!-- ndBlock0_6 -->
<g id="node10" class="node">
<title>ndBlock0_6</title>
<ellipse fill="none" stroke="black" cx="213.01" cy="-485.67" rx="31.58" ry="18"/>
<text text-anchor="middle" x="213.01" y="-484.2" font-family="Monaco" font-size="11.00">d: in</text>
</g>
<!-- ndBlock0_6&#45;&gt;ndBlock0_5 -->
<g id="edge14" class="edge">
<title>ndBlock0_6&#45;&gt;ndBlock0_5</title>
<path fill="none" stroke="black" d="M209.62,-467.48C208.03,-459.46 206.11,-449.72 204.34,-440.74"/>
<polygon fill="black" stroke="black" points="207.73,-439.83 202.36,-430.7 200.86,-441.19 207.73,-439.83"/>
</g>
<!-- ndBlock0_7&#45;&gt;ndBlock0_11 -->
<g id="edge8" class="edge">
<title>ndBlock0_7&#45;&gt;ndBlock0_11</title>
<path fill="none" stroke="black" d="M280.83,-395.74C267.82,-382.93 249.35,-364.75 234.68,-350.31"/>
<polygon fill="black" stroke="black" points="236.98,-347.66 227.4,-343.14 232.07,-352.65 236.98,-347.66"/>
</g>
<!-- ndBlock0_8 -->
<g id="node12" class="node">
<title>ndBlock0_8</title>
<ellipse fill="none" stroke="black" cx="309.01" cy="-326" rx="31.58" ry="18"/>
<text text-anchor="middle" x="309.01" y="-324.53" font-family="Monaco" font-size="11.00">c: in</text>
</g>
<!-- ndBlock0_13 -->
<g id="node17" class="node">
<title>ndBlock0_13</title>
<ellipse fill="none" stroke="black" cx="254.01" cy="-253" rx="44.07" ry="18"/>
<text text-anchor="middle" x="254.01" y="-251.53" font-family="Monaco" font-size="11.00">@3: c+@2</text>
</g>
<!-- ndBlock0_8&#45;&gt;ndBlock0_13 -->
<g id="edge9" class="edge">
<title>ndBlock0_8&#45;&gt;ndBlock0_13</title>
<path fill="none" stroke="black" d="M296.8,-309.24C289.88,-300.31 281.06,-288.92 273.23,-278.81"/>
<polygon fill="black" stroke="black" points="275.83,-276.46 266.94,-270.7 270.3,-280.75 275.83,-276.46"/>
</g>
<!-- ndBlock0_10&#45;&gt;ndBlock0_4 -->
<g id="edge13" class="edge">
<title>ndBlock0_10&#45;&gt;ndBlock0_4</title>
<path fill="none" stroke="black" d="M285.06,-161.81C287.94,-153.62 291.46,-143.62 294.68,-134.48"/>
<polygon fill="black" stroke="black" points="297.99,-135.62 298.01,-125.03 291.39,-133.3 297.99,-135.62"/>
</g>
<!-- ndBlock0_11&#45;&gt;ndBlock0_13 -->
<g id="edge10" class="edge">
<title>ndBlock0_11&#45;&gt;ndBlock0_13</title>
<path fill="none" stroke="black" d="M221.2,-308.17C226.39,-299.6 232.82,-288.99 238.6,-279.44"/>
<polygon fill="black" stroke="black" points="241.7,-281.07 243.89,-270.71 235.71,-277.45 241.7,-281.07"/>
</g>
<!-- ndBlock0_12 -->
<g id="node16" class="node">
<title>ndBlock0_12</title>
<ellipse fill="none" stroke="black" cx="132.01" cy="-485.67" rx="31.58" ry="18"/>
<text text-anchor="middle" x="132.01" y="-484.2" font-family="Monaco" font-size="11.00">e: in</text>
</g>
<!-- ndBlock0_12&#45;&gt;ndBlock0_5 -->
<g id="edge15" class="edge">
<title>ndBlock0_12&#45;&gt;ndBlock0_5</title>
<path fill="none" stroke="black" d="M146.54,-469.26C155.46,-459.81 167.06,-447.53 177.08,-436.91"/>
<polygon fill="black" stroke="black" points="179.71,-439.21 184.03,-429.54 174.62,-434.41 179.71,-439.21"/>
</g>
<!-- ndBlock0_13&#45;&gt;ndBlock0_10 -->
<g id="edge4" class="edge">
<title>ndBlock0_13&#45;&gt;ndBlock0_10</title>
<path fill="none" stroke="black" d="M260.06,-234.81C262.94,-226.62 266.46,-216.62 269.68,-207.48"/>
<polygon fill="black" stroke="black" points="272.99,-208.62 273.01,-198.03 266.39,-206.3 272.99,-208.62"/>
</g>
</g>
</svg>
