<?xml version="1.0" encoding="UTF-8" standalone="no"?>
<!DOCTYPE svg PUBLIC "-//W3C//DTD SVG 1.1//EN"
 "http://www.w3.org/Graphics/SVG/1.1/DTD/svg11.dtd">
<!-- Generated by graphviz version 2.43.0 (0)
 -->
<!-- Title: Program_ Pages: 1 -->
<svg width="431pt" height="552pt"
 viewBox="0.00 0.00 431.01 551.67" xmlns="http://www.w3.org/2000/svg" xmlns:xlink="http://www.w3.org/1999/xlink">
<g id="graph0" class="graph" transform="scale(1 1) rotate(0) translate(4 547.67)">
<title>Program_</title>
<polygon fill="white" stroke="transparent" points="-4,4 -4,-547.67 427.01,-547.67 427.01,4 -4,4"/>
<g id="clust1" class="cluster">
<title>cluster_dfg_Block0</title>
<polygon fill="none" stroke="black" points="92.01,-8 92.01,-535.67 415.01,-535.67 415.01,-8 92.01,-8"/>
<text text-anchor="middle" x="253.51" y="-522.07" font-family="Monaco" font-size="12.00">Block0</text>
</g>
<!-- Jump0 -->
<g id="node1" class="node">
<title>Jump0</title>
<polygon fill="none" stroke="black" points="82.02,-503.67 -0.01,-503.67 -0.01,-499.67 -4.01,-499.67 -4.01,-495.67 -0.01,-495.67 -0.01,-475.67 -4.01,-475.67 -4.01,-471.67 -0.01,-471.67 -0.01,-467.67 82.02,-467.67 82.02,-503.67"/>
<polyline fill="none" stroke="black" points="-0.01,-499.67 3.99,-499.67 3.99,-495.67 -0.01,-495.67 "/>
<polyline fill="none" stroke="black" points="-0.01,-475.67 3.99,-475.67 3.99,-471.67 -0.01,-471.67 "/>
<text text-anchor="middle" x="41.01" y="-484.2" font-family="Monaco" font-size="11.00">StartFun.0</text>
</g>
<!-- Block0 -->
<g id="node2" class="node">
<title>Block0</title>
<polygon fill="none" stroke="black" points="68.61,-430.67 13.4,-430.67 13.4,-394.67 68.61,-394.67 68.61,-430.67"/>
<text text-anchor="middle" x="41.01" y="-411.2" font-family="Monaco" font-size="11.00">Block0</text>
</g>
<!-- Jump0&#45;&gt;Block0 -->
<g id="edge1" class="edge">
<title>Jump0&#45;&gt;Block0</title>
<path fill="none" stroke="black" d="M41.01,-467.48C41.01,-459.46 41.01,-449.72 41.01,-440.74"/>
<polygon fill="black" stroke="black" points="44.51,-440.7 41.01,-430.7 37.51,-440.7 44.51,-440.7"/>
</g>
<!-- Jump1 -->
<g id="node3" class="node">
<title>Jump1</title>
<polygon fill="none" stroke="black" points="75.31,-338 24.7,-338 24.7,-344 6.7,-326 24.7,-308 24.7,-314 57.31,-314 57.31,-308 75.31,-308 75.31,-338"/>
<text text-anchor="middle" x="41.01" y="-324.53" font-family="Monaco" font-size="11.00">Return.1</text>
</g>
<!-- Block0&#45;&gt;Jump1 -->
<g id="edge2" class="edge">
<title>Block0&#45;&gt;Jump1</title>
<path fill="none" stroke="black" d="M41.01,-394.53C41.01,-382.94 41.01,-367.39 41.01,-354.13"/>
<polygon fill="black" stroke="black" points="44.51,-354.11 41.01,-344.11 37.51,-354.11 44.51,-354.11"/>
<text text-anchor="middle" x="47.61" y="-367.87" font-family="Monaco" font-size="11.00">~5</text>
</g>
<!-- ndBlock0_0 -->
<g id="node4" class="node">
<title>ndBlock0_0</title>
<ellipse fill="none" stroke="black" cx="213.01" cy="-412.67" rx="31.58" ry="18"/>
<text text-anchor="middle" x="213.01" y="-411.2" font-family="Monaco" font-size="11.00">~0: +</text>
</g>
<!-- ndBlock0_2 -->
<g id="node6" class="node">
<title>ndBlock0_2</title>
<ellipse fill="none" stroke="black" cx="216.01" cy="-326" rx="31.58" ry="18"/>
<text text-anchor="middle" x="216.01" y="-324.53" font-family="Monaco" font-size="11.00">~2: +</text>
</g>
<!-- ndBlock0_0&#45;&gt;ndBlock0_2 -->
<g id="edge3" class="edge">
<title>ndBlock0_0&#45;&gt;ndBlock0_2</title>
<path fill="none" stroke="black" d="M213.61,-394.53C214.02,-382.94 214.57,-367.39 215.04,-354.13"/>
<polygon fill="black" stroke="black" points="218.54,-354.23 215.4,-344.11 211.55,-353.98 218.54,-354.23"/>
</g>
<!-- ndBlock0_1 -->
<g id="node5" class="node">
<title>ndBlock0_1</title>
<ellipse fill="none" stroke="black" cx="294.01" cy="-412.67" rx="31.58" ry="18"/>
<text text-anchor="middle" x="294.01" y="-411.2" font-family="Monaco" font-size="11.00">~1: +</text>
</g>
<!-- ndBlock0_1&#45;&gt;ndBlock0_2 -->
<g id="edge4" class="edge">
<title>ndBlock0_1&#45;&gt;ndBlock0_2</title>
<path fill="none" stroke="black" d="M279.7,-396.14C267.75,-383.17 250.55,-364.5 237.03,-349.82"/>
<polygon fill="black" stroke="black" points="239.31,-347.13 229.96,-342.15 234.16,-351.87 239.31,-347.13"/>
</g>
<!-- ndBlock0_10 -->
<g id="node14" class="node">
<title>ndBlock0_10</title>
<ellipse fill="none" stroke="black" cx="138.01" cy="-253" rx="31.58" ry="18"/>
<text text-anchor="middle" x="138.01" y="-251.53" font-family="Monaco" font-size="11.00">~3: +</text>
</g>
<!-- ndBlock0_2&#45;&gt;ndBlock0_10 -->
<g id="edge5" class="edge">
<title>ndBlock0_2&#45;&gt;ndBlock0_10</title>
<path fill="none" stroke="black" d="M199.84,-310.29C188.86,-300.29 174.15,-286.9 161.83,-275.69"/>
<polygon fill="black" stroke="black" points="163.9,-272.84 154.15,-268.69 159.19,-278.01 163.9,-272.84"/>
</g>
<!-- ndBlock0_3 -->
<g id="node7" class="node">
<title>ndBlock0_3</title>
<ellipse fill="none" stroke="black" cx="375.01" cy="-485.67" rx="31.58" ry="18"/>
<text text-anchor="middle" x="375.01" y="-484.2" font-family="Monaco" font-size="11.00">g: in</text>
</g>
<!-- ndBlock0_3&#45;&gt;ndBlock0_1 -->
<g id="edge6" class="edge">
<title>ndBlock0_3&#45;&gt;ndBlock0_1</title>
<path fill="none" stroke="black" d="M358.22,-469.96C346.63,-459.8 331.04,-446.13 318.13,-434.81"/>
<polygon fill="black" stroke="black" points="320.32,-432.08 310.49,-428.12 315.7,-437.34 320.32,-432.08"/>
</g>
<!-- ndBlock0_4 -->
<g id="node8" class="node">
<title>ndBlock0_4</title>
<ellipse fill="none" stroke="black" cx="294.01" cy="-485.67" rx="31.58" ry="18"/>
<text text-anchor="middle" x="294.01" y="-484.2" font-family="Monaco" font-size="11.00">f: in</text>
</g>
<!-- ndBlock0_4&#45;&gt;ndBlock0_1 -->
<g id="edge7" class="edge">
<title>ndBlock0_4&#45;&gt;ndBlock0_1</title>
<path fill="none" stroke="black" d="M294.01,-467.48C294.01,-459.46 294.01,-449.72 294.01,-440.74"/>
<polygon fill="black" stroke="black" points="297.51,-440.7 294.01,-430.7 290.51,-440.7 297.51,-440.7"/>
</g>
<!-- ndBlock0_5 -->
<g id="node9" class="node">
<title>ndBlock0_5</title>
<ellipse fill="none" stroke="black" cx="224.01" cy="-180" rx="31.58" ry="18"/>
<text text-anchor="middle" x="224.01" y="-178.53" font-family="Monaco" font-size="11.00">a: in</text>
</g>
<!-- ndBlock0_8 -->
<g id="node12" class="node">
<title>ndBlock0_8</title>
<ellipse fill="none" stroke="black" cx="154.01" cy="-107" rx="31.58" ry="18"/>
<text text-anchor="middle" x="154.01" y="-105.53" font-family="Monaco" font-size="11.00">~5: +</text>
</g>
<!-- ndBlock0_5&#45;&gt;ndBlock0_8 -->
<g id="edge8" class="edge">
<title>ndBlock0_5&#45;&gt;ndBlock0_8</title>
<path fill="none" stroke="black" d="M209.16,-163.94C199.51,-154.15 186.75,-141.22 175.94,-130.25"/>
<polygon fill="black" stroke="black" points="178.34,-127.7 168.83,-123.04 173.36,-132.61 178.34,-127.7"/>
</g>
<!-- ndBlock0_6 -->
<g id="node10" class="node">
<title>ndBlock0_6</title>
<ellipse fill="none" stroke="black" cx="213.01" cy="-485.67" rx="31.58" ry="18"/>
<text text-anchor="middle" x="213.01" y="-484.2" font-family="Monaco" font-size="11.00">e: in</text>
</g>
<!-- ndBlock0_6&#45;&gt;ndBlock0_0 -->
<g id="edge9" class="edge">
<title>ndBlock0_6&#45;&gt;ndBlock0_0</title>
<path fill="none" stroke="black" d="M213.01,-467.48C213.01,-459.46 213.01,-449.72 213.01,-440.74"/>
<polygon fill="black" stroke="black" points="216.51,-440.7 213.01,-430.7 209.51,-440.7 216.51,-440.7"/>
</g>
<!-- ndBlock0_7 -->
<g id="node11" class="node">
<title>ndBlock0_7</title>
<ellipse fill="none" stroke="black" cx="219.01" cy="-253" rx="31.58" ry="18"/>
<text text-anchor="middle" x="219.01" y="-251.53" font-family="Monaco" font-size="11.00">b: in</text>
</g>
<!-- ndBlock0_12 -->
<g id="node16" class="node">
<title>ndBlock0_12</title>
<ellipse fill="none" stroke="black" cx="143.01" cy="-180" rx="31.58" ry="18"/>
<text text-anchor="middle" x="143.01" y="-178.53" font-family="Monaco" font-size="11.00">~4: +</text>
</g>
<!-- ndBlock0_7&#45;&gt;ndBlock0_12 -->
<g id="edge10" class="edge">
<title>ndBlock0_7&#45;&gt;ndBlock0_12</title>
<path fill="none" stroke="black" d="M203.26,-237.29C192.56,-227.29 178.22,-213.9 166.22,-202.69"/>
<polygon fill="black" stroke="black" points="168.43,-199.96 158.73,-195.69 163.65,-205.08 168.43,-199.96"/>
</g>
<!-- ndBlock0_13 -->
<g id="node17" class="node">
<title>ndBlock0_13</title>
<ellipse fill="none" stroke="black" cx="154.01" cy="-34" rx="27" ry="18"/>
<text text-anchor="middle" x="154.01" y="-32.53" font-family="Monaco" font-size="11.00">out</text>
</g>
<!-- ndBlock0_8&#45;&gt;ndBlock0_13 -->
<g id="edge11" class="edge">
<title>ndBlock0_8&#45;&gt;ndBlock0_13</title>
<path fill="none" stroke="black" d="M154.01,-88.81C154.01,-80.79 154.01,-71.05 154.01,-62.07"/>
<polygon fill="black" stroke="black" points="157.51,-62.03 154.01,-52.03 150.51,-62.03 157.51,-62.03"/>
</g>
<!-- ndBlock0_9 -->
<g id="node13" class="node">
<title>ndBlock0_9</title>
<ellipse fill="none" stroke="black" cx="132.01" cy="-485.67" rx="31.58" ry="18"/>
<text text-anchor="middle" x="132.01" y="-484.2" font-family="Monaco" font-size="11.00">d: in</text>
</g>
<!-- ndBlock0_9&#45;&gt;ndBlock0_0 -->
<g id="edge12" class="edge">
<title>ndBlock0_9&#45;&gt;ndBlock0_0</title>
<path fill="none" stroke="black" d="M148.79,-469.96C160.38,-459.8 175.97,-446.13 188.88,-434.81"/>
<polygon fill="black" stroke="black" points="191.31,-437.34 196.52,-428.12 186.69,-432.08 191.31,-437.34"/>
</g>
<!-- ndBlock0_10&#45;&gt;ndBlock0_12 -->
<g id="edge13" class="edge">
<title>ndBlock0_10&#45;&gt;ndBlock0_12</title>
<path fill="none" stroke="black" d="M139.22,-234.81C139.78,-226.79 140.47,-217.05 141.1,-208.07"/>
<polygon fill="black" stroke="black" points="144.59,-208.25 141.81,-198.03 137.61,-207.76 144.59,-208.25"/>
</g>
<!-- ndBlock0_11 -->
<g id="node15" class="node">
<title>ndBlock0_11</title>
<ellipse fill="none" stroke="black" cx="135.01" cy="-326" rx="31.58" ry="18"/>
<text text-anchor="middle" x="135.01" y="-324.53" font-family="Monaco" font-size="11.00">c: in</text>
</g>
<!-- ndBlock0_11&#45;&gt;ndBlock0_10 -->
<g id="edge14" class="edge">
<title>ndBlock0_11&#45;&gt;ndBlock0_10</title>
<path fill="none" stroke="black" d="M135.73,-307.81C136.07,-299.79 136.48,-290.05 136.86,-281.07"/>
<polygon fill="black" stroke="black" points="140.36,-281.17 137.29,-271.03 133.37,-280.87 140.36,-281.17"/>
</g>
<!-- ndBlock0_12&#45;&gt;ndBlock0_8 -->
<g id="edge15" class="edge">
<title>ndBlock0_12&#45;&gt;ndBlock0_8</title>
<path fill="none" stroke="black" d="M145.67,-161.81C146.91,-153.79 148.42,-144.05 149.81,-135.07"/>
<polygon fill="black" stroke="black" points="153.29,-135.45 151.37,-125.03 146.38,-134.38 153.29,-135.45"/>
</g>
</g>
</svg>
