<?xml version="1.0" encoding="UTF-8" standalone="no"?>
<!DOCTYPE svg PUBLIC "-//W3C//DTD SVG 1.1//EN"
 "http://www.w3.org/Graphics/SVG/1.1/DTD/svg11.dtd">
<!-- Generated by graphviz version 2.43.0 (0)
 -->
<!-- Title: Program_ Pages: 1 -->
<svg width="515pt" height="552pt"
 viewBox="0.00 0.00 514.91 551.67" xmlns="http://www.w3.org/2000/svg" xmlns:xlink="http://www.w3.org/1999/xlink">
<g id="graph0" class="graph" transform="scale(1 1) rotate(0) translate(4 547.67)">
<title>Program_</title>
<polygon fill="white" stroke="transparent" points="-4,4 -4,-547.67 510.91,-547.67 510.91,4 -4,4"/>
<g id="clust1" class="cluster">
<title>cluster_dfg_Block0</title>
<polygon fill="none" stroke="black" points="111.91,-8 111.91,-535.67 498.91,-535.67 498.91,-8 111.91,-8"/>
<text text-anchor="middle" x="305.41" y="-522.07" font-family="Monaco" font-size="12.00">Block0</text>
</g>
<!-- Jump0 -->
<g id="node1" class="node">
<title>Jump0</title>
<polygon fill="none" stroke="black" points="101.72,-503.67 0.09,-503.67 0.09,-499.67 -3.91,-499.67 -3.91,-495.67 0.09,-495.67 0.09,-475.67 -3.91,-475.67 -3.91,-471.67 0.09,-471.67 0.09,-467.67 101.72,-467.67 101.72,-503.67"/>
<polyline fill="none" stroke="black" points="0.09,-499.67 4.09,-499.67 4.09,-495.67 0.09,-495.67 "/>
<polyline fill="none" stroke="black" points="0.09,-475.67 4.09,-475.67 4.09,-471.67 0.09,-471.67 "/>
<text text-anchor="start" x="13.1" y="-488.87" font-family="Monaco" font-size="11.00">StartFun.0</text>
<text text-anchor="start" x="79.11" y="-488.87" font-family="Monaco" baseline-shift="super" font-size="8.00" fill="#ff4411">q0</text>
<text text-anchor="start" x="8" y="-477.87" font-family="Monaco" font-size="11.00">a,b,c,d,e,f,g</text>
</g>
<!-- Block0 -->
<g id="node2" class="node">
<title>Block0</title>
<polygon fill="none" stroke="black" points="78.51,-430.67 23.3,-430.67 23.3,-394.67 78.51,-394.67 78.51,-430.67"/>
<text text-anchor="middle" x="50.91" y="-411.2" font-family="Monaco" font-size="11.00">Block0</text>
</g>
<!-- Jump0&#45;&gt;Block0 -->
<g id="edge1" class="edge">
<title>Jump0&#45;&gt;Block0</title>
<path fill="none" stroke="black" d="M50.91,-467.48C50.91,-459.46 50.91,-449.72 50.91,-440.74"/>
<polygon fill="black" stroke="black" points="54.41,-440.7 50.91,-430.7 47.41,-440.7 54.41,-440.7"/>
</g>
<!-- Jump1 -->
<g id="node3" class="node">
<title>Jump1</title>
<polygon fill="none" stroke="black" points="90.32,-338 29.5,-338 29.5,-344 11.5,-326 29.5,-308 29.5,-314 72.32,-314 72.32,-308 90.32,-308 90.32,-338"/>
<text text-anchor="start" x="19.7" y="-325.53" font-family="Monaco" font-size="11.00">Return.1</text>
<text text-anchor="start" x="72.51" y="-325.53" font-family="Monaco" baseline-shift="super" font-size="8.00" fill="#ff4411">q6</text>
</g>
<!-- Block0&#45;&gt;Jump1 -->
<g id="edge2" class="edge">
<title>Block0&#45;&gt;Jump1</title>
<path fill="none" stroke="black" d="M50.91,-394.53C50.91,-382.94 50.91,-367.39 50.91,-354.13"/>
<polygon fill="black" stroke="black" points="54.41,-354.11 50.91,-344.11 47.41,-354.11 54.41,-354.11"/>
<text text-anchor="middle" x="57.51" y="-367.87" font-family="Monaco" font-size="11.00">@5</text>
</g>
<!-- ndBlock0_0 -->
<g id="node4" class="node">
<title>ndBlock0_0</title>
<ellipse fill="none" stroke="black" cx="450.91" cy="-485.67" rx="39.8" ry="18"/>
<text text-anchor="start" x="428.1" y="-485.2" font-family="Monaco" font-size="11.00">g</text>
<text text-anchor="start" x="434.7" y="-485.2" font-family="Monaco" baseline-shift="super" font-size="8.00" fill="#3311ff">r6</text>
<text text-anchor="start" x="444.31" y="-485.2" font-family="Monaco" font-size="11.00">:in</text>
<text text-anchor="start" x="464.11" y="-485.2" font-family="Monaco" baseline-shift="super" font-size="8.00" fill="#ff4411">q0</text>
</g>
<!-- ndBlock0_7 -->
<g id="node11" class="node">
<title>ndBlock0_7</title>
<ellipse fill="none" stroke="black" cx="358.91" cy="-412.67" rx="60.52" ry="18"/>
<text text-anchor="start" x="319.9" y="-412.2" font-family="Monaco" font-size="11.00">@1</text>
<text text-anchor="start" x="333.1" y="-412.2" font-family="Monaco" baseline-shift="super" font-size="8.00" fill="#3311ff">r3</text>
<text text-anchor="start" x="342.7" y="-412.2" font-family="Monaco" font-size="11.00">:f+</text>
<text text-anchor="start" x="362.51" y="-412.2" font-family="Monaco" baseline-shift="super" font-size="8.00" fill="#3311ff">Add0</text>
<text text-anchor="start" x="381.71" y="-412.2" font-family="Monaco" font-size="11.00">g</text>
<text text-anchor="start" x="388.31" y="-412.2" font-family="Monaco" baseline-shift="super" font-size="8.00" fill="#ff4411">q1</text>
</g>
<!-- ndBlock0_0&#45;&gt;ndBlock0_7 -->
<g id="edge5" class="edge">
<title>ndBlock0_0&#45;&gt;ndBlock0_7</title>
<path fill="none" stroke="black" d="M431.4,-469.61C418.7,-459.81 401.91,-446.86 387.69,-435.88"/>
<polygon fill="black" stroke="black" points="389.72,-433.03 379.67,-429.69 385.45,-438.57 389.72,-433.03"/>
</g>
<!-- ndBlock0_1 -->
<g id="node5" class="node">
<title>ndBlock0_1</title>
<ellipse fill="none" stroke="black" cx="353.91" cy="-485.67" rx="39.8" ry="18"/>
<text text-anchor="start" x="331.1" y="-485.2" font-family="Monaco" font-size="11.00">f</text>
<text text-anchor="start" x="337.7" y="-485.2" font-family="Monaco" baseline-shift="super" font-size="8.00" fill="#3311ff">r5</text>
<text text-anchor="start" x="347.31" y="-485.2" font-family="Monaco" font-size="11.00">:in</text>
<text text-anchor="start" x="367.11" y="-485.2" font-family="Monaco" baseline-shift="super" font-size="8.00" fill="#ff4411">q0</text>
</g>
<!-- ndBlock0_1&#45;&gt;ndBlock0_7 -->
<g id="edge6" class="edge">
<title>ndBlock0_1&#45;&gt;ndBlock0_7</title>
<path fill="none" stroke="black" d="M355.12,-467.48C355.68,-459.46 356.37,-449.72 357,-440.74"/>
<polygon fill="black" stroke="black" points="360.5,-440.92 357.71,-430.7 353.51,-440.43 360.5,-440.92"/>
</g>
<!-- ndBlock0_2 -->
<g id="node6" class="node">
<title>ndBlock0_2</title>
<ellipse fill="none" stroke="black" cx="448.91" cy="-180" rx="39.8" ry="18"/>
<text text-anchor="start" x="426.1" y="-179.53" font-family="Monaco" font-size="11.00">a</text>
<text text-anchor="start" x="432.7" y="-179.53" font-family="Monaco" baseline-shift="super" font-size="8.00" fill="#3311ff">r0</text>
<text text-anchor="start" x="442.31" y="-179.53" font-family="Monaco" font-size="11.00">:in</text>
<text text-anchor="start" x="462.11" y="-179.53" font-family="Monaco" baseline-shift="super" font-size="8.00" fill="#ff4411">q0</text>
</g>
<!-- ndBlock0_4 -->
<g id="node8" class="node">
<title>ndBlock0_4</title>
<ellipse fill="none" stroke="black" cx="358.91" cy="-107" rx="64.52" ry="18"/>
<text text-anchor="start" x="316.6" y="-106.53" font-family="Monaco" font-size="11.00">@5</text>
<text text-anchor="start" x="329.8" y="-106.53" font-family="Monaco" baseline-shift="super" font-size="8.00" fill="#3311ff">r0</text>
<text text-anchor="start" x="339.4" y="-106.53" font-family="Monaco" font-size="11.00">:a+</text>
<text text-anchor="start" x="359.21" y="-106.53" font-family="Monaco" baseline-shift="super" font-size="8.00" fill="#3311ff">Add0</text>
<text text-anchor="start" x="378.41" y="-106.53" font-family="Monaco" font-size="11.00">@4</text>
<text text-anchor="start" x="391.61" y="-106.53" font-family="Monaco" baseline-shift="super" font-size="8.00" fill="#ff4411">q5</text>
</g>
<!-- ndBlock0_2&#45;&gt;ndBlock0_4 -->
<g id="edge12" class="edge">
<title>ndBlock0_2&#45;&gt;ndBlock0_4</title>
<path fill="none" stroke="black" d="M429.82,-163.94C417.6,-154.3 401.51,-141.61 387.75,-130.75"/>
<polygon fill="black" stroke="black" points="389.55,-127.72 379.53,-124.27 385.22,-133.21 389.55,-127.72"/>
</g>
<!-- ndBlock0_3 -->
<g id="node7" class="node">
<title>ndBlock0_3</title>
<ellipse fill="none" stroke="black" cx="416.91" cy="-253" rx="39.8" ry="18"/>
<text text-anchor="start" x="394.1" y="-252.53" font-family="Monaco" font-size="11.00">b</text>
<text text-anchor="start" x="400.7" y="-252.53" font-family="Monaco" baseline-shift="super" font-size="8.00" fill="#3311ff">r1</text>
<text text-anchor="start" x="410.31" y="-252.53" font-family="Monaco" font-size="11.00">:in</text>
<text text-anchor="start" x="430.11" y="-252.53" font-family="Monaco" baseline-shift="super" font-size="8.00" fill="#ff4411">q0</text>
</g>
<!-- ndBlock0_10 -->
<g id="node14" class="node">
<title>ndBlock0_10</title>
<ellipse fill="none" stroke="black" cx="326.91" cy="-180" rx="64.52" ry="18"/>
<text text-anchor="start" x="284.6" y="-179.53" font-family="Monaco" font-size="11.00">@4</text>
<text text-anchor="start" x="297.8" y="-179.53" font-family="Monaco" baseline-shift="super" font-size="8.00" fill="#3311ff">r1</text>
<text text-anchor="start" x="307.4" y="-179.53" font-family="Monaco" font-size="11.00">:b+</text>
<text text-anchor="start" x="327.21" y="-179.53" font-family="Monaco" baseline-shift="super" font-size="8.00" fill="#3311ff">Add0</text>
<text text-anchor="start" x="346.41" y="-179.53" font-family="Monaco" font-size="11.00">@3</text>
<text text-anchor="start" x="359.61" y="-179.53" font-family="Monaco" baseline-shift="super" font-size="8.00" fill="#ff4411">q4</text>
</g>
<!-- ndBlock0_3&#45;&gt;ndBlock0_10 -->
<g id="edge3" class="edge">
<title>ndBlock0_3&#45;&gt;ndBlock0_10</title>
<path fill="none" stroke="black" d="M397.82,-236.94C385.6,-227.3 369.51,-214.61 355.75,-203.75"/>
<polygon fill="black" stroke="black" points="357.55,-200.72 347.53,-197.27 353.22,-206.21 357.55,-200.72"/>
</g>
<!-- ndBlock0_9 -->
<g id="node13" class="node">
<title>ndBlock0_9</title>
<ellipse fill="none" stroke="black" cx="358.91" cy="-34" rx="46.44" ry="18"/>
<text text-anchor="start" x="331" y="-33.53" font-family="Monaco" font-size="11.00">out(@5)</text>
<text text-anchor="start" x="377.21" y="-33.53" font-family="Monaco" baseline-shift="super" font-size="8.00" fill="#ff4411">q6</text>
</g>
<!-- ndBlock0_4&#45;&gt;ndBlock0_9 -->
<g id="edge11" class="edge">
<title>ndBlock0_4&#45;&gt;ndBlock0_9</title>
<path fill="none" stroke="black" d="M358.91,-88.81C358.91,-80.79 358.91,-71.05 358.91,-62.07"/>
<polygon fill="black" stroke="black" points="362.41,-62.03 358.91,-52.03 355.41,-62.03 362.41,-62.03"/>
</g>
<!-- ndBlock0_5 -->
<g id="node9" class="node">
<title>ndBlock0_5</title>
<ellipse fill="none" stroke="black" cx="219.91" cy="-412.67" rx="60.52" ry="18"/>
<text text-anchor="start" x="180.9" y="-412.2" font-family="Monaco" font-size="11.00">@0</text>
<text text-anchor="start" x="194.1" y="-412.2" font-family="Monaco" baseline-shift="super" font-size="8.00" fill="#3311ff">r4</text>
<text text-anchor="start" x="203.7" y="-412.2" font-family="Monaco" font-size="11.00">:d+</text>
<text text-anchor="start" x="223.51" y="-412.2" font-family="Monaco" baseline-shift="super" font-size="8.00" fill="#3311ff">Add1</text>
<text text-anchor="start" x="242.71" y="-412.2" font-family="Monaco" font-size="11.00">e</text>
<text text-anchor="start" x="249.31" y="-412.2" font-family="Monaco" baseline-shift="super" font-size="8.00" fill="#ff4411">q1</text>
</g>
<!-- ndBlock0_11 -->
<g id="node15" class="node">
<title>ndBlock0_11</title>
<ellipse fill="none" stroke="black" cx="237.91" cy="-326" rx="69.01" ry="18"/>
<text text-anchor="start" x="192.3" y="-325.53" font-family="Monaco" font-size="11.00">@2</text>
<text text-anchor="start" x="205.5" y="-325.53" font-family="Monaco" baseline-shift="super" font-size="8.00" fill="#3311ff">r3</text>
<text text-anchor="start" x="215.1" y="-325.53" font-family="Monaco" font-size="11.00">:@0+</text>
<text text-anchor="start" x="241.51" y="-325.53" font-family="Monaco" baseline-shift="super" font-size="8.00" fill="#3311ff">Add0</text>
<text text-anchor="start" x="260.71" y="-325.53" font-family="Monaco" font-size="11.00">@1</text>
<text text-anchor="start" x="273.91" y="-325.53" font-family="Monaco" baseline-shift="super" font-size="8.00" fill="#ff4411">q2</text>
</g>
<!-- ndBlock0_5&#45;&gt;ndBlock0_11 -->
<g id="edge7" class="edge">
<title>ndBlock0_5&#45;&gt;ndBlock0_11</title>
<path fill="none" stroke="black" d="M223.55,-394.53C226.01,-382.94 229.32,-367.39 232.14,-354.13"/>
<polygon fill="black" stroke="black" points="235.61,-354.62 234.27,-344.11 228.77,-353.16 235.61,-354.62"/>
</g>
<!-- ndBlock0_6 -->
<g id="node10" class="node">
<title>ndBlock0_6</title>
<ellipse fill="none" stroke="black" cx="256.91" cy="-485.67" rx="39.8" ry="18"/>
<text text-anchor="start" x="234.1" y="-485.2" font-family="Monaco" font-size="11.00">d</text>
<text text-anchor="start" x="240.7" y="-485.2" font-family="Monaco" baseline-shift="super" font-size="8.00" fill="#3311ff">r3</text>
<text text-anchor="start" x="250.31" y="-485.2" font-family="Monaco" font-size="11.00">:in</text>
<text text-anchor="start" x="270.11" y="-485.2" font-family="Monaco" baseline-shift="super" font-size="8.00" fill="#ff4411">q0</text>
</g>
<!-- ndBlock0_6&#45;&gt;ndBlock0_5 -->
<g id="edge14" class="edge">
<title>ndBlock0_6&#45;&gt;ndBlock0_5</title>
<path fill="none" stroke="black" d="M248.14,-467.84C243.78,-459.48 238.41,-449.18 233.53,-439.81"/>
<polygon fill="black" stroke="black" points="236.59,-438.12 228.87,-430.87 230.39,-441.35 236.59,-438.12"/>
</g>
<!-- ndBlock0_7&#45;&gt;ndBlock0_11 -->
<g id="edge8" class="edge">
<title>ndBlock0_7&#45;&gt;ndBlock0_11</title>
<path fill="none" stroke="black" d="M336.43,-395.94C317.57,-382.74 290.42,-363.74 269.39,-349.03"/>
<polygon fill="black" stroke="black" points="271.29,-346.08 261.09,-343.22 267.27,-351.82 271.29,-346.08"/>
</g>
<!-- ndBlock0_8 -->
<g id="node12" class="node">
<title>ndBlock0_8</title>
<ellipse fill="none" stroke="black" cx="364.91" cy="-326" rx="39.8" ry="18"/>
<text text-anchor="start" x="342.1" y="-325.53" font-family="Monaco" font-size="11.00">c</text>
<text text-anchor="start" x="348.7" y="-325.53" font-family="Monaco" baseline-shift="super" font-size="8.00" fill="#3311ff">r2</text>
<text text-anchor="start" x="358.31" y="-325.53" font-family="Monaco" font-size="11.00">:in</text>
<text text-anchor="start" x="378.11" y="-325.53" font-family="Monaco" baseline-shift="super" font-size="8.00" fill="#ff4411">q0</text>
</g>
<!-- ndBlock0_13 -->
<g id="node17" class="node">
<title>ndBlock0_13</title>
<ellipse fill="none" stroke="black" cx="294.91" cy="-253" rx="64.52" ry="18"/>
<text text-anchor="start" x="252.6" y="-252.53" font-family="Monaco" font-size="11.00">@3</text>
<text text-anchor="start" x="265.8" y="-252.53" font-family="Monaco" baseline-shift="super" font-size="8.00" fill="#3311ff">r2</text>
<text text-anchor="start" x="275.4" y="-252.53" font-family="Monaco" font-size="11.00">:c+</text>
<text text-anchor="start" x="295.21" y="-252.53" font-family="Monaco" baseline-shift="super" font-size="8.00" fill="#3311ff">Add0</text>
<text text-anchor="start" x="314.41" y="-252.53" font-family="Monaco" font-size="11.00">@2</text>
<text text-anchor="start" x="327.61" y="-252.53" font-family="Monaco" baseline-shift="super" font-size="8.00" fill="#ff4411">q3</text>
</g>
<!-- ndBlock0_8&#45;&gt;ndBlock0_13 -->
<g id="edge9" class="edge">
<title>ndBlock0_8&#45;&gt;ndBlock0_13</title>
<path fill="none" stroke="black" d="M349.37,-309.24C340.3,-300.04 328.66,-288.24 318.48,-277.91"/>
<polygon fill="black" stroke="black" points="320.89,-275.37 311.37,-270.7 315.9,-280.28 320.89,-275.37"/>
</g>
<!-- ndBlock0_10&#45;&gt;ndBlock0_4 -->
<g id="edge13" class="edge">
<title>ndBlock0_10&#45;&gt;ndBlock0_4</title>
<path fill="none" stroke="black" d="M334.65,-161.81C338.39,-153.53 342.95,-143.41 347.1,-134.19"/>
<polygon fill="black" stroke="black" points="350.31,-135.58 351.23,-125.03 343.93,-132.71 350.31,-135.58"/>
</g>
<!-- ndBlock0_11&#45;&gt;ndBlock0_13 -->
<g id="edge10" class="edge">
<title>ndBlock0_11&#45;&gt;ndBlock0_13</title>
<path fill="none" stroke="black" d="M251.42,-308.17C258.51,-299.33 267.35,-288.33 275.2,-278.55"/>
<polygon fill="black" stroke="black" points="277.96,-280.69 281.5,-270.71 272.51,-276.31 277.96,-280.69"/>
</g>
<!-- ndBlock0_12 -->
<g id="node16" class="node">
<title>ndBlock0_12</title>
<ellipse fill="none" stroke="black" cx="159.91" cy="-485.67" rx="39.8" ry="18"/>
<text text-anchor="start" x="137.1" y="-485.2" font-family="Monaco" font-size="11.00">e</text>
<text text-anchor="start" x="143.7" y="-485.2" font-family="Monaco" baseline-shift="super" font-size="8.00" fill="#3311ff">r4</text>
<text text-anchor="start" x="153.31" y="-485.2" font-family="Monaco" font-size="11.00">:in</text>
<text text-anchor="start" x="173.11" y="-485.2" font-family="Monaco" baseline-shift="super" font-size="8.00" fill="#ff4411">q0</text>
</g>
<!-- ndBlock0_12&#45;&gt;ndBlock0_5 -->
<g id="edge15" class="edge">
<title>ndBlock0_12&#45;&gt;ndBlock0_5</title>
<path fill="none" stroke="black" d="M173.52,-468.56C181.16,-459.52 190.84,-448.06 199.39,-437.95"/>
<polygon fill="black" stroke="black" points="202.15,-440.11 205.93,-430.21 196.8,-435.59 202.15,-440.11"/>
</g>
<!-- ndBlock0_13&#45;&gt;ndBlock0_10 -->
<g id="edge4" class="edge">
<title>ndBlock0_13&#45;&gt;ndBlock0_10</title>
<path fill="none" stroke="black" d="M302.65,-234.81C306.39,-226.53 310.95,-216.41 315.1,-207.19"/>
<polygon fill="black" stroke="black" points="318.31,-208.58 319.23,-198.03 311.93,-205.71 318.31,-208.58"/>
</g>
</g>
</svg>
