<?xml version="1.0" encoding="UTF-8" standalone="no"?>
<!DOCTYPE svg PUBLIC "-//W3C//DTD SVG 1.1//EN"
 "http://www.w3.org/Graphics/SVG/1.1/DTD/svg11.dtd">
<!-- Generated by graphviz version 2.43.0 (0)
 -->
<!-- Title: Program_ Pages: 1 -->
<svg width="504pt" height="552pt"
 viewBox="0.00 0.00 503.81 551.67" xmlns="http://www.w3.org/2000/svg" xmlns:xlink="http://www.w3.org/1999/xlink">
<g id="graph0" class="graph" transform="scale(1 1) rotate(0) translate(4 547.67)">
<title>Program_</title>
<polygon fill="white" stroke="transparent" points="-4,4 -4,-547.67 499.81,-547.67 499.81,4 -4,4"/>
<g id="clust1" class="cluster">
<title>cluster_dfg_Block0</title>
<polygon fill="none" stroke="black" points="100.81,-8 100.81,-535.67 487.81,-535.67 487.81,-8 100.81,-8"/>
<text text-anchor="middle" x="294.31" y="-522.07" font-family="Monaco" font-size="12.00">Block0</text>
</g>
<!-- Jump0 -->
<g id="node1" class="node">
<title>Jump0</title>
<polygon fill="none" stroke="black" points="91.42,-503.67 0.19,-503.67 0.19,-499.67 -3.81,-499.67 -3.81,-495.67 0.19,-495.67 0.19,-475.67 -3.81,-475.67 -3.81,-471.67 0.19,-471.67 0.19,-467.67 91.42,-467.67 91.42,-503.67"/>
<polyline fill="none" stroke="black" points="0.19,-499.67 4.19,-499.67 4.19,-495.67 0.19,-495.67 "/>
<polyline fill="none" stroke="black" points="0.19,-475.67 4.19,-475.67 4.19,-471.67 0.19,-471.67 "/>
<text text-anchor="start" x="8" y="-485.2" font-family="Monaco" font-size="11.00">StartFun.0</text>
<text text-anchor="start" x="74.01" y="-485.2" font-family="Monaco" baseline-shift="super" font-size="8.00" fill="#ff4411">q0</text>
</g>
<!-- Block0 -->
<g id="node2" class="node">
<title>Block0</title>
<polygon fill="none" stroke="black" points="73.41,-430.67 18.2,-430.67 18.2,-394.67 73.41,-394.67 73.41,-430.67"/>
<text text-anchor="middle" x="45.81" y="-411.2" font-family="Monaco" font-size="11.00">Block0</text>
</g>
<!-- Jump0&#45;&gt;Block0 -->
<g id="edge1" class="edge">
<title>Jump0&#45;&gt;Block0</title>
<path fill="none" stroke="black" d="M45.81,-467.48C45.81,-459.46 45.81,-449.72 45.81,-440.74"/>
<polygon fill="black" stroke="black" points="49.31,-440.7 45.81,-430.7 42.31,-440.7 49.31,-440.7"/>
</g>
<!-- Jump1 -->
<g id="node3" class="node">
<title>Jump1</title>
<polygon fill="none" stroke="black" points="85.22,-338 24.39,-338 24.39,-344 6.39,-326 24.39,-308 24.39,-314 67.22,-314 67.22,-308 85.22,-308 85.22,-338"/>
<text text-anchor="start" x="14.6" y="-325.53" font-family="Monaco" font-size="11.00">Return.1</text>
<text text-anchor="start" x="67.41" y="-325.53" font-family="Monaco" baseline-shift="super" font-size="8.00" fill="#ff4411">q6</text>
</g>
<!-- Block0&#45;&gt;Jump1 -->
<g id="edge2" class="edge">
<title>Block0&#45;&gt;Jump1</title>
<path fill="none" stroke="black" d="M45.81,-394.53C45.81,-382.94 45.81,-367.39 45.81,-354.13"/>
<polygon fill="black" stroke="black" points="49.31,-354.11 45.81,-344.11 42.31,-354.11 49.31,-354.11"/>
<text text-anchor="middle" x="52.41" y="-367.87" font-family="Monaco" font-size="11.00">@5</text>
</g>
<!-- ndBlock0_0 -->
<g id="node4" class="node">
<title>ndBlock0_0</title>
<ellipse fill="none" stroke="black" cx="439.81" cy="-485.67" rx="39.8" ry="18"/>
<text text-anchor="start" x="417" y="-485.2" font-family="Monaco" font-size="11.00">g</text>
<text text-anchor="start" x="423.6" y="-485.2" font-family="Monaco" baseline-shift="super" font-size="8.00" fill="#3311ff">r6</text>
<text text-anchor="start" x="433.21" y="-485.2" font-family="Monaco" font-size="11.00">:in</text>
<text text-anchor="start" x="453.01" y="-485.2" font-family="Monaco" baseline-shift="super" font-size="8.00" fill="#ff4411">q0</text>
</g>
<!-- ndBlock0_7 -->
<g id="node11" class="node">
<title>ndBlock0_7</title>
<ellipse fill="none" stroke="black" cx="347.81" cy="-412.67" rx="60.52" ry="18"/>
<text text-anchor="start" x="308.8" y="-412.2" font-family="Monaco" font-size="11.00">@1</text>
<text text-anchor="start" x="322" y="-412.2" font-family="Monaco" baseline-shift="super" font-size="8.00" fill="#3311ff">r0</text>
<text text-anchor="start" x="331.6" y="-412.2" font-family="Monaco" font-size="11.00">:f+</text>
<text text-anchor="start" x="351.41" y="-412.2" font-family="Monaco" baseline-shift="super" font-size="8.00" fill="#3311ff">Add0</text>
<text text-anchor="start" x="370.61" y="-412.2" font-family="Monaco" font-size="11.00">g</text>
<text text-anchor="start" x="377.21" y="-412.2" font-family="Monaco" baseline-shift="super" font-size="8.00" fill="#ff4411">q1</text>
</g>
<!-- ndBlock0_0&#45;&gt;ndBlock0_7 -->
<g id="edge5" class="edge">
<title>ndBlock0_0&#45;&gt;ndBlock0_7</title>
<path fill="none" stroke="black" d="M420.3,-469.61C407.6,-459.81 390.81,-446.86 376.59,-435.88"/>
<polygon fill="black" stroke="black" points="378.62,-433.03 368.57,-429.69 374.35,-438.57 378.62,-433.03"/>
</g>
<!-- ndBlock0_1 -->
<g id="node5" class="node">
<title>ndBlock0_1</title>
<ellipse fill="none" stroke="black" cx="342.81" cy="-485.67" rx="39.8" ry="18"/>
<text text-anchor="start" x="320" y="-485.2" font-family="Monaco" font-size="11.00">f</text>
<text text-anchor="start" x="326.6" y="-485.2" font-family="Monaco" baseline-shift="super" font-size="8.00" fill="#3311ff">r5</text>
<text text-anchor="start" x="336.21" y="-485.2" font-family="Monaco" font-size="11.00">:in</text>
<text text-anchor="start" x="356.01" y="-485.2" font-family="Monaco" baseline-shift="super" font-size="8.00" fill="#ff4411">q0</text>
</g>
<!-- ndBlock0_1&#45;&gt;ndBlock0_7 -->
<g id="edge6" class="edge">
<title>ndBlock0_1&#45;&gt;ndBlock0_7</title>
<path fill="none" stroke="black" d="M344.02,-467.48C344.58,-459.46 345.27,-449.72 345.9,-440.74"/>
<polygon fill="black" stroke="black" points="349.4,-440.92 346.61,-430.7 342.41,-440.43 349.4,-440.92"/>
</g>
<!-- ndBlock0_2 -->
<g id="node6" class="node">
<title>ndBlock0_2</title>
<ellipse fill="none" stroke="black" cx="437.81" cy="-180" rx="39.8" ry="18"/>
<text text-anchor="start" x="415" y="-179.53" font-family="Monaco" font-size="11.00">a</text>
<text text-anchor="start" x="421.6" y="-179.53" font-family="Monaco" baseline-shift="super" font-size="8.00" fill="#3311ff">r1</text>
<text text-anchor="start" x="431.21" y="-179.53" font-family="Monaco" font-size="11.00">:in</text>
<text text-anchor="start" x="451.01" y="-179.53" font-family="Monaco" baseline-shift="super" font-size="8.00" fill="#ff4411">q0</text>
</g>
<!-- ndBlock0_4 -->
<g id="node8" class="node">
<title>ndBlock0_4</title>
<ellipse fill="none" stroke="black" cx="347.81" cy="-107" rx="64.52" ry="18"/>
<text text-anchor="start" x="305.5" y="-106.53" font-family="Monaco" font-size="11.00">@5</text>
<text text-anchor="start" x="318.7" y="-106.53" font-family="Monaco" baseline-shift="super" font-size="8.00" fill="#3311ff">r0</text>
<text text-anchor="start" x="328.3" y="-106.53" font-family="Monaco" font-size="11.00">:a+</text>
<text text-anchor="start" x="348.11" y="-106.53" font-family="Monaco" baseline-shift="super" font-size="8.00" fill="#3311ff">Add0</text>
<text text-anchor="start" x="367.31" y="-106.53" font-family="Monaco" font-size="11.00">@4</text>
<text text-anchor="start" x="380.51" y="-106.53" font-family="Monaco" baseline-shift="super" font-size="8.00" fill="#ff4411">q5</text>
</g>
<!-- ndBlock0_2&#45;&gt;ndBlock0_4 -->
<g id="edge12" class="edge">
<title>ndBlock0_2&#45;&gt;ndBlock0_4</title>
<path fill="none" stroke="black" d="M418.72,-163.94C406.5,-154.3 390.41,-141.61 376.65,-130.75"/>
<polygon fill="black" stroke="black" points="378.45,-127.72 368.43,-124.27 374.12,-133.21 378.45,-127.72"/>
</g>
<!-- ndBlock0_3 -->
<g id="node7" class="node">
<title>ndBlock0_3</title>
<ellipse fill="none" stroke="black" cx="405.81" cy="-253" rx="39.8" ry="18"/>
<text text-anchor="start" x="383" y="-252.53" font-family="Monaco" font-size="11.00">b</text>
<text text-anchor="start" x="389.6" y="-252.53" font-family="Monaco" baseline-shift="super" font-size="8.00" fill="#3311ff">r3</text>
<text text-anchor="start" x="399.21" y="-252.53" font-family="Monaco" font-size="11.00">:in</text>
<text text-anchor="start" x="419.01" y="-252.53" font-family="Monaco" baseline-shift="super" font-size="8.00" fill="#ff4411">q0</text>
</g>
<!-- ndBlock0_10 -->
<g id="node14" class="node">
<title>ndBlock0_10</title>
<ellipse fill="none" stroke="black" cx="315.81" cy="-180" rx="64.52" ry="18"/>
<text text-anchor="start" x="273.5" y="-179.53" font-family="Monaco" font-size="11.00">@4</text>
<text text-anchor="start" x="286.7" y="-179.53" font-family="Monaco" baseline-shift="super" font-size="8.00" fill="#3311ff">r0</text>
<text text-anchor="start" x="296.3" y="-179.53" font-family="Monaco" font-size="11.00">:b+</text>
<text text-anchor="start" x="316.11" y="-179.53" font-family="Monaco" baseline-shift="super" font-size="8.00" fill="#3311ff">Add0</text>
<text text-anchor="start" x="335.31" y="-179.53" font-family="Monaco" font-size="11.00">@3</text>
<text text-anchor="start" x="348.51" y="-179.53" font-family="Monaco" baseline-shift="super" font-size="8.00" fill="#ff4411">q4</text>
</g>
<!-- ndBlock0_3&#45;&gt;ndBlock0_10 -->
<g id="edge3" class="edge">
<title>ndBlock0_3&#45;&gt;ndBlock0_10</title>
<path fill="none" stroke="black" d="M386.72,-236.94C374.5,-227.3 358.41,-214.61 344.65,-203.75"/>
<polygon fill="black" stroke="black" points="346.45,-200.72 336.43,-197.27 342.12,-206.21 346.45,-200.72"/>
</g>
<!-- ndBlock0_9 -->
<g id="node13" class="node">
<title>ndBlock0_9</title>
<ellipse fill="none" stroke="black" cx="347.81" cy="-34" rx="29.45" ry="18"/>
<text text-anchor="start" x="333.1" y="-33.53" font-family="Monaco" font-size="11.00">out</text>
<text text-anchor="start" x="352.91" y="-33.53" font-family="Monaco" baseline-shift="super" font-size="8.00" fill="#ff4411">q6</text>
</g>
<!-- ndBlock0_4&#45;&gt;ndBlock0_9 -->
<g id="edge11" class="edge">
<title>ndBlock0_4&#45;&gt;ndBlock0_9</title>
<path fill="none" stroke="black" d="M347.81,-88.81C347.81,-80.79 347.81,-71.05 347.81,-62.07"/>
<polygon fill="black" stroke="black" points="351.31,-62.03 347.81,-52.03 344.31,-62.03 351.31,-62.03"/>
</g>
<!-- ndBlock0_5 -->
<g id="node9" class="node">
<title>ndBlock0_5</title>
<ellipse fill="none" stroke="black" cx="208.81" cy="-412.67" rx="60.52" ry="18"/>
<text text-anchor="start" x="169.8" y="-412.2" font-family="Monaco" font-size="11.00">@0</text>
<text text-anchor="start" x="183" y="-412.2" font-family="Monaco" baseline-shift="super" font-size="8.00" fill="#3311ff">r4</text>
<text text-anchor="start" x="192.6" y="-412.2" font-family="Monaco" font-size="11.00">:d+</text>
<text text-anchor="start" x="212.41" y="-412.2" font-family="Monaco" baseline-shift="super" font-size="8.00" fill="#3311ff">Add1</text>
<text text-anchor="start" x="231.61" y="-412.2" font-family="Monaco" font-size="11.00">e</text>
<text text-anchor="start" x="238.21" y="-412.2" font-family="Monaco" baseline-shift="super" font-size="8.00" fill="#ff4411">q1</text>
</g>
<!-- ndBlock0_11 -->
<g id="node15" class="node">
<title>ndBlock0_11</title>
<ellipse fill="none" stroke="black" cx="226.81" cy="-326" rx="69.01" ry="18"/>
<text text-anchor="start" x="181.2" y="-325.53" font-family="Monaco" font-size="11.00">@2</text>
<text text-anchor="start" x="194.4" y="-325.53" font-family="Monaco" baseline-shift="super" font-size="8.00" fill="#3311ff">r0</text>
<text text-anchor="start" x="204" y="-325.53" font-family="Monaco" font-size="11.00">:@0+</text>
<text text-anchor="start" x="230.41" y="-325.53" font-family="Monaco" baseline-shift="super" font-size="8.00" fill="#3311ff">Add0</text>
<text text-anchor="start" x="249.61" y="-325.53" font-family="Monaco" font-size="11.00">@1</text>
<text text-anchor="start" x="262.81" y="-325.53" font-family="Monaco" baseline-shift="super" font-size="8.00" fill="#ff4411">q2</text>
</g>
<!-- ndBlock0_5&#45;&gt;ndBlock0_11 -->
<g id="edge7" class="edge">
<title>ndBlock0_5&#45;&gt;ndBlock0_11</title>
<path fill="none" stroke="black" d="M212.45,-394.53C214.91,-382.94 218.22,-367.39 221.04,-354.13"/>
<polygon fill="black" stroke="black" points="224.51,-354.62 223.17,-344.11 217.67,-353.16 224.51,-354.62"/>
</g>
<!-- ndBlock0_6 -->
<g id="node10" class="node">
<title>ndBlock0_6</title>
<ellipse fill="none" stroke="black" cx="245.81" cy="-485.67" rx="39.8" ry="18"/>
<text text-anchor="start" x="223" y="-485.2" font-family="Monaco" font-size="11.00">d</text>
<text text-anchor="start" x="229.6" y="-485.2" font-family="Monaco" baseline-shift="super" font-size="8.00" fill="#3311ff">r0</text>
<text text-anchor="start" x="239.21" y="-485.2" font-family="Monaco" font-size="11.00">:in</text>
<text text-anchor="start" x="259.01" y="-485.2" font-family="Monaco" baseline-shift="super" font-size="8.00" fill="#ff4411">q0</text>
</g>
<!-- ndBlock0_6&#45;&gt;ndBlock0_5 -->
<g id="edge14" class="edge">
<title>ndBlock0_6&#45;&gt;ndBlock0_5</title>
<path fill="none" stroke="black" d="M237.04,-467.84C232.68,-459.48 227.31,-449.18 222.43,-439.81"/>
<polygon fill="black" stroke="black" points="225.49,-438.12 217.77,-430.87 219.29,-441.35 225.49,-438.12"/>
</g>
<!-- ndBlock0_7&#45;&gt;ndBlock0_11 -->
<g id="edge8" class="edge">
<title>ndBlock0_7&#45;&gt;ndBlock0_11</title>
<path fill="none" stroke="black" d="M325.33,-395.94C306.47,-382.74 279.32,-363.74 258.29,-349.03"/>
<polygon fill="black" stroke="black" points="260.19,-346.08 249.99,-343.22 256.17,-351.82 260.19,-346.08"/>
</g>
<!-- ndBlock0_8 -->
<g id="node12" class="node">
<title>ndBlock0_8</title>
<ellipse fill="none" stroke="black" cx="353.81" cy="-326" rx="39.8" ry="18"/>
<text text-anchor="start" x="331" y="-325.53" font-family="Monaco" font-size="11.00">c</text>
<text text-anchor="start" x="337.6" y="-325.53" font-family="Monaco" baseline-shift="super" font-size="8.00" fill="#3311ff">r2</text>
<text text-anchor="start" x="347.21" y="-325.53" font-family="Monaco" font-size="11.00">:in</text>
<text text-anchor="start" x="367.01" y="-325.53" font-family="Monaco" baseline-shift="super" font-size="8.00" fill="#ff4411">q0</text>
</g>
<!-- ndBlock0_13 -->
<g id="node17" class="node">
<title>ndBlock0_13</title>
<ellipse fill="none" stroke="black" cx="283.81" cy="-253" rx="64.52" ry="18"/>
<text text-anchor="start" x="241.5" y="-252.53" font-family="Monaco" font-size="11.00">@3</text>
<text text-anchor="start" x="254.7" y="-252.53" font-family="Monaco" baseline-shift="super" font-size="8.00" fill="#3311ff">r0</text>
<text text-anchor="start" x="264.3" y="-252.53" font-family="Monaco" font-size="11.00">:c+</text>
<text text-anchor="start" x="284.11" y="-252.53" font-family="Monaco" baseline-shift="super" font-size="8.00" fill="#3311ff">Add0</text>
<text text-anchor="start" x="303.31" y="-252.53" font-family="Monaco" font-size="11.00">@2</text>
<text text-anchor="start" x="316.51" y="-252.53" font-family="Monaco" baseline-shift="super" font-size="8.00" fill="#ff4411">q3</text>
</g>
<!-- ndBlock0_8&#45;&gt;ndBlock0_13 -->
<g id="edge9" class="edge">
<title>ndBlock0_8&#45;&gt;ndBlock0_13</title>
<path fill="none" stroke="black" d="M338.27,-309.24C329.2,-300.04 317.56,-288.24 307.38,-277.91"/>
<polygon fill="black" stroke="black" points="309.79,-275.37 300.27,-270.7 304.8,-280.28 309.79,-275.37"/>
</g>
<!-- ndBlock0_10&#45;&gt;ndBlock0_4 -->
<g id="edge13" class="edge">
<title>ndBlock0_10&#45;&gt;ndBlock0_4</title>
<path fill="none" stroke="black" d="M323.55,-161.81C327.29,-153.53 331.85,-143.41 336,-134.19"/>
<polygon fill="black" stroke="black" points="339.21,-135.58 340.13,-125.03 332.83,-132.71 339.21,-135.58"/>
</g>
<!-- ndBlock0_11&#45;&gt;ndBlock0_13 -->
<g id="edge10" class="edge">
<title>ndBlock0_11&#45;&gt;ndBlock0_13</title>
<path fill="none" stroke="black" d="M240.31,-308.17C247.41,-299.33 256.25,-288.33 264.09,-278.55"/>
<polygon fill="black" stroke="black" points="266.86,-280.69 270.39,-270.71 261.41,-276.31 266.86,-280.69"/>
</g>
<!-- ndBlock0_12 -->
<g id="node16" class="node">
<title>ndBlock0_12</title>
<ellipse fill="none" stroke="black" cx="148.81" cy="-485.67" rx="39.8" ry="18"/>
<text text-anchor="start" x="126" y="-485.2" font-family="Monaco" font-size="11.00">e</text>
<text text-anchor="start" x="132.6" y="-485.2" font-family="Monaco" baseline-shift="super" font-size="8.00" fill="#3311ff">r4</text>
<text text-anchor="start" x="142.21" y="-485.2" font-family="Monaco" font-size="11.00">:in</text>
<text text-anchor="start" x="162.01" y="-485.2" font-family="Monaco" baseline-shift="super" font-size="8.00" fill="#ff4411">q0</text>
</g>
<!-- ndBlock0_12&#45;&gt;ndBlock0_5 -->
<g id="edge15" class="edge">
<title>ndBlock0_12&#45;&gt;ndBlock0_5</title>
<path fill="none" stroke="black" d="M162.42,-468.56C170.06,-459.52 179.74,-448.06 188.28,-437.95"/>
<polygon fill="black" stroke="black" points="191.05,-440.11 194.83,-430.21 185.7,-435.59 191.05,-440.11"/>
</g>
<!-- ndBlock0_13&#45;&gt;ndBlock0_10 -->
<g id="edge4" class="edge">
<title>ndBlock0_13&#45;&gt;ndBlock0_10</title>
<path fill="none" stroke="black" d="M291.55,-234.81C295.29,-226.53 299.85,-216.41 304,-207.19"/>
<polygon fill="black" stroke="black" points="307.21,-208.58 308.13,-198.03 300.83,-205.71 307.21,-208.58"/>
</g>
</g>
</svg>
