<?xml version="1.0" encoding="UTF-8" standalone="no"?>
<!DOCTYPE svg PUBLIC "-//W3C//DTD SVG 1.1//EN"
 "http://www.w3.org/Graphics/SVG/1.1/DTD/svg11.dtd">
<!-- Generated by graphviz version 2.43.0 (0)
 -->
<!-- Title: Program_ Pages: 1 -->
<svg width="455pt" height="552pt"
 viewBox="0.00 0.00 454.81 551.67" xmlns="http://www.w3.org/2000/svg" xmlns:xlink="http://www.w3.org/1999/xlink">
<g id="graph0" class="graph" transform="scale(1 1) rotate(0) translate(4 547.67)">
<title>Program_</title>
<polygon fill="white" stroke="transparent" points="-4,4 -4,-547.67 450.81,-547.67 450.81,4 -4,4"/>
<g id="clust1" class="cluster">
<title>cluster_dfg_Block0</title>
<polygon fill="none" stroke="black" points="101.81,-8 101.81,-535.67 438.81,-535.67 438.81,-8 101.81,-8"/>
<text text-anchor="middle" x="270.31" y="-522.07" font-family="Monaco" font-size="12.00">Block0</text>
</g>
<!-- Jump0 -->
<g id="node1" class="node">
<title>Jump0</title>
<polygon fill="none" stroke="black" points="91.42,-503.67 0.19,-503.67 0.19,-499.67 -3.81,-499.67 -3.81,-495.67 0.19,-495.67 0.19,-475.67 -3.81,-475.67 -3.81,-471.67 0.19,-471.67 0.19,-467.67 91.42,-467.67 91.42,-503.67"/>
<polyline fill="none" stroke="black" points="0.19,-499.67 4.19,-499.67 4.19,-495.67 0.19,-495.67 "/>
<polyline fill="none" stroke="black" points="0.19,-475.67 4.19,-475.67 4.19,-471.67 0.19,-471.67 "/>
<text text-anchor="start" x="8" y="-485.2" font-family="Monaco" font-size="11.00">StartFun.0</text>
<text text-anchor="start" x="74.01" y="-485.2" font-family="Monaco" baseline-shift="super" font-size="8.00" fill="#ff4411">q0</text>
</g>
<!-- Block0 -->
<g id="node2" class="node">
<title>Block0</title>
<polygon fill="none" stroke="black" points="73.41,-430.67 18.2,-430.67 18.2,-394.67 73.41,-394.67 73.41,-430.67"/>
<text text-anchor="middle" x="45.81" y="-411.2" font-family="Monaco" font-size="11.00">Block0</text>
</g>
<!-- Jump0&#45;&gt;Block0 -->
<g id="edge1" class="edge">
<title>Jump0&#45;&gt;Block0</title>
<path fill="none" stroke="black" d="M45.81,-467.48C45.81,-459.46 45.81,-449.72 45.81,-440.74"/>
<polygon fill="black" stroke="black" points="49.31,-440.7 45.81,-430.7 42.31,-440.7 49.31,-440.7"/>
</g>
<!-- Jump1 -->
<g id="node3" class="node">
<title>Jump1</title>
<polygon fill="none" stroke="black" points="85.22,-338 24.39,-338 24.39,-344 6.39,-326 24.39,-308 24.39,-314 67.22,-314 67.22,-308 85.22,-308 85.22,-338"/>
<text text-anchor="start" x="14.6" y="-325.53" font-family="Monaco" font-size="11.00">Return.1</text>
<text text-anchor="start" x="67.41" y="-325.53" font-family="Monaco" baseline-shift="super" font-size="8.00" fill="#ff4411">q6</text>
</g>
<!-- Block0&#45;&gt;Jump1 -->
<g id="edge2" class="edge">
<title>Block0&#45;&gt;Jump1</title>
<path fill="none" stroke="black" d="M45.81,-394.53C45.81,-382.94 45.81,-367.39 45.81,-354.13"/>
<polygon fill="black" stroke="black" points="49.31,-354.11 45.81,-344.11 42.31,-354.11 49.31,-354.11"/>
<text text-anchor="middle" x="52.41" y="-367.87" font-family="Monaco" font-size="11.00">@5</text>
</g>
<!-- ndBlock0_0 -->
<g id="node4" class="node">
<title>ndBlock0_0</title>
<ellipse fill="none" stroke="black" cx="397.81" cy="-485.67" rx="33.44" ry="18"/>
<text text-anchor="start" x="379.8" y="-485.2" font-family="Monaco" font-size="11.00">g:in</text>
<text text-anchor="start" x="406.21" y="-485.2" font-family="Monaco" baseline-shift="super" font-size="8.00" fill="#ff4411">q0</text>
</g>
<!-- ndBlock0_7 -->
<g id="node11" class="node">
<title>ndBlock0_7</title>
<ellipse fill="none" stroke="black" cx="315.81" cy="-412.67" rx="41.94" ry="18"/>
<text text-anchor="start" x="291.2" y="-412.2" font-family="Monaco" font-size="11.00">@1:f+g</text>
<text text-anchor="start" x="330.81" y="-412.2" font-family="Monaco" baseline-shift="super" font-size="8.00" fill="#ff4411">q1</text>
</g>
<!-- ndBlock0_0&#45;&gt;ndBlock0_7 -->
<g id="edge5" class="edge">
<title>ndBlock0_0&#45;&gt;ndBlock0_7</title>
<path fill="none" stroke="black" d="M380.82,-469.96C369.39,-460.07 354.14,-446.86 341.27,-435.72"/>
<polygon fill="black" stroke="black" points="343.48,-433 333.63,-429.1 338.89,-438.29 343.48,-433"/>
</g>
<!-- ndBlock0_1 -->
<g id="node5" class="node">
<title>ndBlock0_1</title>
<ellipse fill="none" stroke="black" cx="312.81" cy="-485.67" rx="33.44" ry="18"/>
<text text-anchor="start" x="294.8" y="-485.2" font-family="Monaco" font-size="11.00">f:in</text>
<text text-anchor="start" x="321.21" y="-485.2" font-family="Monaco" baseline-shift="super" font-size="8.00" fill="#ff4411">q0</text>
</g>
<!-- ndBlock0_1&#45;&gt;ndBlock0_7 -->
<g id="edge6" class="edge">
<title>ndBlock0_1&#45;&gt;ndBlock0_7</title>
<path fill="none" stroke="black" d="M313.53,-467.48C313.87,-459.46 314.28,-449.72 314.66,-440.74"/>
<polygon fill="black" stroke="black" points="318.16,-440.84 315.09,-430.7 311.17,-440.54 318.16,-440.84"/>
</g>
<!-- ndBlock0_2 -->
<g id="node6" class="node">
<title>ndBlock0_2</title>
<ellipse fill="none" stroke="black" cx="395.81" cy="-180" rx="33.44" ry="18"/>
<text text-anchor="start" x="377.8" y="-179.53" font-family="Monaco" font-size="11.00">a:in</text>
<text text-anchor="start" x="404.21" y="-179.53" font-family="Monaco" baseline-shift="super" font-size="8.00" fill="#ff4411">q0</text>
</g>
<!-- ndBlock0_4 -->
<g id="node8" class="node">
<title>ndBlock0_4</title>
<ellipse fill="none" stroke="black" cx="323.81" cy="-107" rx="46.44" ry="18"/>
<text text-anchor="start" x="295.9" y="-106.53" font-family="Monaco" font-size="11.00">@5:a+@4</text>
<text text-anchor="start" x="342.11" y="-106.53" font-family="Monaco" baseline-shift="super" font-size="8.00" fill="#ff4411">q5</text>
</g>
<!-- ndBlock0_2&#45;&gt;ndBlock0_4 -->
<g id="edge12" class="edge">
<title>ndBlock0_2&#45;&gt;ndBlock0_4</title>
<path fill="none" stroke="black" d="M380.54,-163.94C370.88,-154.42 358.2,-141.91 347.28,-131.14"/>
<polygon fill="black" stroke="black" points="349.63,-128.55 340.05,-124.02 344.72,-133.54 349.63,-128.55"/>
</g>
<!-- ndBlock0_3 -->
<g id="node7" class="node">
<title>ndBlock0_3</title>
<ellipse fill="none" stroke="black" cx="369.81" cy="-253" rx="33.44" ry="18"/>
<text text-anchor="start" x="351.8" y="-252.53" font-family="Monaco" font-size="11.00">b:in</text>
<text text-anchor="start" x="378.21" y="-252.53" font-family="Monaco" baseline-shift="super" font-size="8.00" fill="#ff4411">q0</text>
</g>
<!-- ndBlock0_10 -->
<g id="node14" class="node">
<title>ndBlock0_10</title>
<ellipse fill="none" stroke="black" cx="297.81" cy="-180" rx="46.44" ry="18"/>
<text text-anchor="start" x="269.9" y="-179.53" font-family="Monaco" font-size="11.00">@4:b+@3</text>
<text text-anchor="start" x="316.11" y="-179.53" font-family="Monaco" baseline-shift="super" font-size="8.00" fill="#ff4411">q4</text>
</g>
<!-- ndBlock0_3&#45;&gt;ndBlock0_10 -->
<g id="edge3" class="edge">
<title>ndBlock0_3&#45;&gt;ndBlock0_10</title>
<path fill="none" stroke="black" d="M354.54,-236.94C344.88,-227.42 332.2,-214.91 321.28,-204.14"/>
<polygon fill="black" stroke="black" points="323.63,-201.55 314.05,-197.02 318.72,-206.54 323.63,-201.55"/>
</g>
<!-- ndBlock0_9 -->
<g id="node13" class="node">
<title>ndBlock0_9</title>
<ellipse fill="none" stroke="black" cx="323.81" cy="-34" rx="29.45" ry="18"/>
<text text-anchor="start" x="309.1" y="-33.53" font-family="Monaco" font-size="11.00">out</text>
<text text-anchor="start" x="328.91" y="-33.53" font-family="Monaco" baseline-shift="super" font-size="8.00" fill="#ff4411">q6</text>
</g>
<!-- ndBlock0_4&#45;&gt;ndBlock0_9 -->
<g id="edge11" class="edge">
<title>ndBlock0_4&#45;&gt;ndBlock0_9</title>
<path fill="none" stroke="black" d="M323.81,-88.81C323.81,-80.79 323.81,-71.05 323.81,-62.07"/>
<polygon fill="black" stroke="black" points="327.31,-62.03 323.81,-52.03 320.31,-62.03 327.31,-62.03"/>
</g>
<!-- ndBlock0_5 -->
<g id="node9" class="node">
<title>ndBlock0_5</title>
<ellipse fill="none" stroke="black" cx="213.81" cy="-412.67" rx="41.94" ry="18"/>
<text text-anchor="start" x="189.2" y="-412.2" font-family="Monaco" font-size="11.00">@0:d+e</text>
<text text-anchor="start" x="228.81" y="-412.2" font-family="Monaco" baseline-shift="super" font-size="8.00" fill="#ff4411">q1</text>
</g>
<!-- ndBlock0_11 -->
<g id="node15" class="node">
<title>ndBlock0_11</title>
<ellipse fill="none" stroke="black" cx="226.81" cy="-326" rx="50.43" ry="18"/>
<text text-anchor="start" x="195.6" y="-325.53" font-family="Monaco" font-size="11.00">@2:@0+@1</text>
<text text-anchor="start" x="248.41" y="-325.53" font-family="Monaco" baseline-shift="super" font-size="8.00" fill="#ff4411">q2</text>
</g>
<!-- ndBlock0_5&#45;&gt;ndBlock0_11 -->
<g id="edge7" class="edge">
<title>ndBlock0_5&#45;&gt;ndBlock0_11</title>
<path fill="none" stroke="black" d="M216.44,-394.53C218.22,-382.94 220.6,-367.39 222.64,-354.13"/>
<polygon fill="black" stroke="black" points="226.12,-354.52 224.18,-344.11 219.2,-353.46 226.12,-354.52"/>
</g>
<!-- ndBlock0_6 -->
<g id="node10" class="node">
<title>ndBlock0_6</title>
<ellipse fill="none" stroke="black" cx="227.81" cy="-485.67" rx="33.44" ry="18"/>
<text text-anchor="start" x="209.8" y="-485.2" font-family="Monaco" font-size="11.00">d:in</text>
<text text-anchor="start" x="236.21" y="-485.2" font-family="Monaco" baseline-shift="super" font-size="8.00" fill="#ff4411">q0</text>
</g>
<!-- ndBlock0_6&#45;&gt;ndBlock0_5 -->
<g id="edge14" class="edge">
<title>ndBlock0_6&#45;&gt;ndBlock0_5</title>
<path fill="none" stroke="black" d="M224.42,-467.48C222.84,-459.46 220.91,-449.72 219.14,-440.74"/>
<polygon fill="black" stroke="black" points="222.53,-439.83 217.16,-430.7 215.66,-441.19 222.53,-439.83"/>
</g>
<!-- ndBlock0_7&#45;&gt;ndBlock0_11 -->
<g id="edge8" class="edge">
<title>ndBlock0_7&#45;&gt;ndBlock0_11</title>
<path fill="none" stroke="black" d="M299.07,-395.74C285.6,-382.93 266.49,-364.75 251.31,-350.31"/>
<polygon fill="black" stroke="black" points="253.43,-347.5 243.77,-343.14 248.61,-352.57 253.43,-347.5"/>
</g>
<!-- ndBlock0_8 -->
<g id="node12" class="node">
<title>ndBlock0_8</title>
<ellipse fill="none" stroke="black" cx="328.81" cy="-326" rx="33.44" ry="18"/>
<text text-anchor="start" x="310.8" y="-325.53" font-family="Monaco" font-size="11.00">c:in</text>
<text text-anchor="start" x="337.21" y="-325.53" font-family="Monaco" baseline-shift="super" font-size="8.00" fill="#ff4411">q0</text>
</g>
<!-- ndBlock0_13 -->
<g id="node17" class="node">
<title>ndBlock0_13</title>
<ellipse fill="none" stroke="black" cx="271.81" cy="-253" rx="46.44" ry="18"/>
<text text-anchor="start" x="243.9" y="-252.53" font-family="Monaco" font-size="11.00">@3:c+@2</text>
<text text-anchor="start" x="290.11" y="-252.53" font-family="Monaco" baseline-shift="super" font-size="8.00" fill="#ff4411">q3</text>
</g>
<!-- ndBlock0_8&#45;&gt;ndBlock0_13 -->
<g id="edge9" class="edge">
<title>ndBlock0_8&#45;&gt;ndBlock0_13</title>
<path fill="none" stroke="black" d="M316.16,-309.24C308.91,-300.22 299.66,-288.69 291.48,-278.51"/>
<polygon fill="black" stroke="black" points="294.2,-276.31 285.22,-270.7 288.75,-280.69 294.2,-276.31"/>
</g>
<!-- ndBlock0_10&#45;&gt;ndBlock0_4 -->
<g id="edge13" class="edge">
<title>ndBlock0_10&#45;&gt;ndBlock0_4</title>
<path fill="none" stroke="black" d="M304.1,-161.81C307.1,-153.62 310.76,-143.62 314.11,-134.48"/>
<polygon fill="black" stroke="black" points="317.42,-135.62 317.57,-125.03 310.84,-133.22 317.42,-135.62"/>
</g>
<!-- ndBlock0_11&#45;&gt;ndBlock0_13 -->
<g id="edge10" class="edge">
<title>ndBlock0_11&#45;&gt;ndBlock0_13</title>
<path fill="none" stroke="black" d="M237.47,-308.17C242.91,-299.6 249.63,-288.99 255.68,-279.44"/>
<polygon fill="black" stroke="black" points="258.82,-281.03 261.22,-270.71 252.91,-277.28 258.82,-281.03"/>
</g>
<!-- ndBlock0_12 -->
<g id="node16" class="node">
<title>ndBlock0_12</title>
<ellipse fill="none" stroke="black" cx="142.81" cy="-485.67" rx="33.44" ry="18"/>
<text text-anchor="start" x="124.8" y="-485.2" font-family="Monaco" font-size="11.00">e:in</text>
<text text-anchor="start" x="151.21" y="-485.2" font-family="Monaco" baseline-shift="super" font-size="8.00" fill="#ff4411">q0</text>
</g>
<!-- ndBlock0_12&#45;&gt;ndBlock0_5 -->
<g id="edge15" class="edge">
<title>ndBlock0_12&#45;&gt;ndBlock0_5</title>
<path fill="none" stroke="black" d="M158.21,-469.26C167.66,-459.81 179.95,-447.53 190.57,-436.91"/>
<polygon fill="black" stroke="black" points="193.34,-439.08 197.94,-429.54 188.39,-434.13 193.34,-439.08"/>
</g>
<!-- ndBlock0_13&#45;&gt;ndBlock0_10 -->
<g id="edge4" class="edge">
<title>ndBlock0_13&#45;&gt;ndBlock0_10</title>
<path fill="none" stroke="black" d="M278.1,-234.81C281.1,-226.62 284.76,-216.62 288.11,-207.48"/>
<polygon fill="black" stroke="black" points="291.42,-208.62 291.57,-198.03 284.84,-206.22 291.42,-208.62"/>
</g>
</g>
</svg>
