<?xml version="1.0" encoding="UTF-8" standalone="no"?>
<!DOCTYPE svg PUBLIC "-//W3C//DTD SVG 1.1//EN"
 "http://www.w3.org/Graphics/SVG/1.1/DTD/svg11.dtd">
<!-- Generated by graphviz version 2.43.0 (0)
 -->
<!-- Title: Program_ Pages: 1 -->
<svg width="515pt" height="552pt"
 viewBox="0.00 0.00 514.91 551.67" xmlns="http://www.w3.org/2000/svg" xmlns:xlink="http://www.w3.org/1999/xlink">
<g id="graph0" class="graph" transform="scale(1 1) rotate(0) translate(4 547.67)">
<title>Program_</title>
<polygon fill="white" stroke="transparent" points="-4,4 -4,-547.67 510.91,-547.67 510.91,4 -4,4"/>
<g id="clust1" class="cluster">
<title>cluster_dfg_Block0</title>
<polygon fill="none" stroke="black" points="111.91,-8 111.91,-535.67 498.91,-535.67 498.91,-8 111.91,-8"/>
<text text-anchor="middle" x="305.41" y="-522.07" font-family="Monaco" font-size="12.00">Block0</text>
</g>
<!-- Jump0 -->
<g id="node1" class="node">
<title>Jump0</title>
<polygon fill="none" stroke="black" points="101.72,-503.67 0.09,-503.67 0.09,-499.67 -3.91,-499.67 -3.91,-495.67 0.09,-495.67 0.09,-475.67 -3.91,-475.67 -3.91,-471.67 0.09,-471.67 0.09,-467.67 101.72,-467.67 101.72,-503.67"/>
<polyline fill="none" stroke="black" points="0.09,-499.67 4.09,-499.67 4.09,-495.67 0.09,-495.67 "/>
<polyline fill="none" stroke="black" points="0.09,-475.67 4.09,-475.67 4.09,-471.67 0.09,-471.67 "/>
<text text-anchor="start" x="13.1" y="-488.87" font-family="Monaco" font-size="11.00">StartFun.0</text>
<text text-anchor="start" x="79.11" y="-488.87" font-family="Monaco" baseline-shift="super" font-size="8.00" fill="#ff4411">q0</text>
<text text-anchor="start" x="8" y="-477.87" font-family="Monaco" font-size="11.00">a,b,c,d,e,f,g</text>
</g>
<!-- Block0 -->
<g id="node2" class="node">
<title>Block0</title>
<polygon fill="none" stroke="black" points="78.51,-430.67 23.3,-430.67 23.3,-394.67 78.51,-394.67 78.51,-430.67"/>
<text text-anchor="middle" x="50.91" y="-411.2" font-family="Monaco" font-size="11.00">Block0</text>
</g>
<!-- Jump0&#45;&gt;Block0 -->
<g id="edge1" class="edge">
<title>Jump0&#45;&gt;Block0</title>
<path fill="none" stroke="black" d="M50.91,-467.48C50.91,-459.46 50.91,-449.72 50.91,-440.74"/>
<polygon fill="black" stroke="black" points="54.41,-440.7 50.91,-430.7 47.41,-440.7 54.41,-440.7"/>
</g>
<!-- Jump1 -->
<g id="node3" class="node">
<title>Jump1</title>
<polygon fill="none" stroke="black" points="90.32,-338 29.5,-338 29.5,-344 11.5,-326 29.5,-308 29.5,-314 72.32,-314 72.32,-308 90.32,-308 90.32,-338"/>
<text text-anchor="start" x="19.7" y="-325.53" font-family="Monaco" font-size="11.00">Return.1</text>
<text text-anchor="start" x="72.51" y="-325.53" font-family="Monaco" baseline-shift="super" font-size="8.00" fill="#ff4411">q6</text>
</g>
<!-- Block0&#45;&gt;Jump1 -->
<g id="edge2" class="edge">
<title>Block0&#45;&gt;Jump1</title>
<path fill="none" stroke="black" d="M50.91,-394.53C50.91,-382.94 50.91,-367.39 50.91,-354.13"/>
<polygon fill="black" stroke="black" points="54.41,-354.11 50.91,-344.11 47.41,-354.11 54.41,-354.11"/>
<text text-anchor="middle" x="57.51" y="-367.87" font-family="Monaco" font-size="11.00">@f</text>
</g>
<!-- ndBlock0_0 -->
<g id="node4" class="node">
<title>ndBlock0_0</title>
<ellipse fill="none" stroke="black" cx="184.91" cy="-253" rx="64.52" ry="18"/>
<text text-anchor="start" x="142.6" y="-252.53" font-family="Monaco" font-size="11.00">@d</text>
<text text-anchor="start" x="155.8" y="-252.53" font-family="Monaco" baseline-shift="super" font-size="8.00" fill="#3311ff">r2</text>
<text text-anchor="start" x="165.4" y="-252.53" font-family="Monaco" font-size="11.00">:c+</text>
<text text-anchor="start" x="185.21" y="-252.53" font-family="Monaco" baseline-shift="super" font-size="8.00" fill="#3311ff">Add0</text>
<text text-anchor="start" x="204.41" y="-252.53" font-family="Monaco" font-size="11.00">@c</text>
<text text-anchor="start" x="217.61" y="-252.53" font-family="Monaco" baseline-shift="super" font-size="8.00" fill="#ff4411">q3</text>
</g>
<!-- ndBlock0_8 -->
<g id="node12" class="node">
<title>ndBlock0_8</title>
<ellipse fill="none" stroke="black" cx="200.91" cy="-180" rx="64.52" ry="18"/>
<text text-anchor="start" x="158.6" y="-179.53" font-family="Monaco" font-size="11.00">@e</text>
<text text-anchor="start" x="171.8" y="-179.53" font-family="Monaco" baseline-shift="super" font-size="8.00" fill="#3311ff">r1</text>
<text text-anchor="start" x="181.4" y="-179.53" font-family="Monaco" font-size="11.00">:b+</text>
<text text-anchor="start" x="201.21" y="-179.53" font-family="Monaco" baseline-shift="super" font-size="8.00" fill="#3311ff">Add0</text>
<text text-anchor="start" x="220.41" y="-179.53" font-family="Monaco" font-size="11.00">@d</text>
<text text-anchor="start" x="233.61" y="-179.53" font-family="Monaco" baseline-shift="super" font-size="8.00" fill="#ff4411">q4</text>
</g>
<!-- ndBlock0_0&#45;&gt;ndBlock0_8 -->
<g id="edge14" class="edge">
<title>ndBlock0_0&#45;&gt;ndBlock0_8</title>
<path fill="none" stroke="black" d="M188.78,-234.81C190.59,-226.79 192.78,-217.05 194.81,-208.07"/>
<polygon fill="black" stroke="black" points="198.29,-208.55 197.07,-198.03 191.46,-207.01 198.29,-208.55"/>
</g>
<!-- ndBlock0_1 -->
<g id="node5" class="node">
<title>ndBlock0_1</title>
<ellipse fill="none" stroke="black" cx="366.91" cy="-412.67" rx="60.52" ry="18"/>
<text text-anchor="start" x="327.9" y="-412.2" font-family="Monaco" font-size="11.00">@b</text>
<text text-anchor="start" x="341.1" y="-412.2" font-family="Monaco" baseline-shift="super" font-size="8.00" fill="#3311ff">r3</text>
<text text-anchor="start" x="350.7" y="-412.2" font-family="Monaco" font-size="11.00">:f+</text>
<text text-anchor="start" x="370.51" y="-412.2" font-family="Monaco" baseline-shift="super" font-size="8.00" fill="#3311ff">Add0</text>
<text text-anchor="start" x="389.71" y="-412.2" font-family="Monaco" font-size="11.00">g</text>
<text text-anchor="start" x="396.31" y="-412.2" font-family="Monaco" baseline-shift="super" font-size="8.00" fill="#ff4411">q1</text>
</g>
<!-- ndBlock0_11 -->
<g id="node15" class="node">
<title>ndBlock0_11</title>
<ellipse fill="none" stroke="black" cx="295.91" cy="-326" rx="69.01" ry="18"/>
<text text-anchor="start" x="250.3" y="-325.53" font-family="Monaco" font-size="11.00">@c</text>
<text text-anchor="start" x="263.5" y="-325.53" font-family="Monaco" baseline-shift="super" font-size="8.00" fill="#3311ff">r3</text>
<text text-anchor="start" x="273.1" y="-325.53" font-family="Monaco" font-size="11.00">:@a+</text>
<text text-anchor="start" x="299.51" y="-325.53" font-family="Monaco" baseline-shift="super" font-size="8.00" fill="#3311ff">Add0</text>
<text text-anchor="start" x="318.71" y="-325.53" font-family="Monaco" font-size="11.00">@b</text>
<text text-anchor="start" x="331.91" y="-325.53" font-family="Monaco" baseline-shift="super" font-size="8.00" fill="#ff4411">q2</text>
</g>
<!-- ndBlock0_1&#45;&gt;ndBlock0_11 -->
<g id="edge4" class="edge">
<title>ndBlock0_1&#45;&gt;ndBlock0_11</title>
<path fill="none" stroke="black" d="M352.88,-394.94C342.47,-382.53 328.13,-365.42 316.43,-351.48"/>
<polygon fill="black" stroke="black" points="319.01,-349.11 309.91,-343.69 313.65,-353.6 319.01,-349.11"/>
</g>
<!-- ndBlock0_2 -->
<g id="node6" class="node">
<title>ndBlock0_2</title>
<ellipse fill="none" stroke="black" cx="450.91" cy="-485.67" rx="39.8" ry="18"/>
<text text-anchor="start" x="428.1" y="-485.2" font-family="Monaco" font-size="11.00">g</text>
<text text-anchor="start" x="434.7" y="-485.2" font-family="Monaco" baseline-shift="super" font-size="8.00" fill="#3311ff">r6</text>
<text text-anchor="start" x="444.31" y="-485.2" font-family="Monaco" font-size="11.00">:in</text>
<text text-anchor="start" x="464.11" y="-485.2" font-family="Monaco" baseline-shift="super" font-size="8.00" fill="#ff4411">q0</text>
</g>
<!-- ndBlock0_2&#45;&gt;ndBlock0_1 -->
<g id="edge10" class="edge">
<title>ndBlock0_2&#45;&gt;ndBlock0_1</title>
<path fill="none" stroke="black" d="M432.68,-469.26C421.36,-459.69 406.6,-447.22 393.94,-436.52"/>
<polygon fill="black" stroke="black" points="395.87,-433.57 385.97,-429.78 391.35,-438.91 395.87,-433.57"/>
</g>
<!-- ndBlock0_3 -->
<g id="node7" class="node">
<title>ndBlock0_3</title>
<ellipse fill="none" stroke="black" cx="322.91" cy="-180" rx="39.8" ry="18"/>
<text text-anchor="start" x="300.1" y="-179.53" font-family="Monaco" font-size="11.00">a</text>
<text text-anchor="start" x="306.7" y="-179.53" font-family="Monaco" baseline-shift="super" font-size="8.00" fill="#3311ff">r0</text>
<text text-anchor="start" x="316.31" y="-179.53" font-family="Monaco" font-size="11.00">:in</text>
<text text-anchor="start" x="336.11" y="-179.53" font-family="Monaco" baseline-shift="super" font-size="8.00" fill="#ff4411">q0</text>
</g>
<!-- ndBlock0_9 -->
<g id="node13" class="node">
<title>ndBlock0_9</title>
<ellipse fill="none" stroke="black" cx="216.91" cy="-107" rx="64.52" ry="18"/>
<text text-anchor="start" x="174.6" y="-106.53" font-family="Monaco" font-size="11.00">@f</text>
<text text-anchor="start" x="187.8" y="-106.53" font-family="Monaco" baseline-shift="super" font-size="8.00" fill="#3311ff">r0</text>
<text text-anchor="start" x="197.4" y="-106.53" font-family="Monaco" font-size="11.00">:a+</text>
<text text-anchor="start" x="217.21" y="-106.53" font-family="Monaco" baseline-shift="super" font-size="8.00" fill="#3311ff">Add0</text>
<text text-anchor="start" x="236.41" y="-106.53" font-family="Monaco" font-size="11.00">@e</text>
<text text-anchor="start" x="249.61" y="-106.53" font-family="Monaco" baseline-shift="super" font-size="8.00" fill="#ff4411">q5</text>
</g>
<!-- ndBlock0_3&#45;&gt;ndBlock0_9 -->
<g id="edge6" class="edge">
<title>ndBlock0_3&#45;&gt;ndBlock0_9</title>
<path fill="none" stroke="black" d="M301.46,-164.63C286.41,-154.56 266.04,-140.91 249.06,-129.54"/>
<polygon fill="black" stroke="black" points="250.8,-126.49 240.54,-123.83 246.9,-132.3 250.8,-126.49"/>
</g>
<!-- ndBlock0_4 -->
<g id="node8" class="node">
<title>ndBlock0_4</title>
<ellipse fill="none" stroke="black" cx="306.91" cy="-253" rx="39.8" ry="18"/>
<text text-anchor="start" x="284.1" y="-252.53" font-family="Monaco" font-size="11.00">b</text>
<text text-anchor="start" x="290.7" y="-252.53" font-family="Monaco" baseline-shift="super" font-size="8.00" fill="#3311ff">r1</text>
<text text-anchor="start" x="300.31" y="-252.53" font-family="Monaco" font-size="11.00">:in</text>
<text text-anchor="start" x="320.11" y="-252.53" font-family="Monaco" baseline-shift="super" font-size="8.00" fill="#ff4411">q0</text>
</g>
<!-- ndBlock0_4&#45;&gt;ndBlock0_8 -->
<g id="edge15" class="edge">
<title>ndBlock0_4&#45;&gt;ndBlock0_8</title>
<path fill="none" stroke="black" d="M285.46,-237.63C270.41,-227.56 250.04,-213.91 233.06,-202.54"/>
<polygon fill="black" stroke="black" points="234.8,-199.49 224.54,-196.83 230.9,-205.3 234.8,-199.49"/>
</g>
<!-- ndBlock0_5 -->
<g id="node9" class="node">
<title>ndBlock0_5</title>
<ellipse fill="none" stroke="black" cx="216.91" cy="-34" rx="46.44" ry="18"/>
<text text-anchor="start" x="189" y="-33.53" font-family="Monaco" font-size="11.00">out(@f)</text>
<text text-anchor="start" x="235.21" y="-33.53" font-family="Monaco" baseline-shift="super" font-size="8.00" fill="#ff4411">q6</text>
</g>
<!-- ndBlock0_6 -->
<g id="node10" class="node">
<title>ndBlock0_6</title>
<ellipse fill="none" stroke="black" cx="159.91" cy="-485.67" rx="39.8" ry="18"/>
<text text-anchor="start" x="137.1" y="-485.2" font-family="Monaco" font-size="11.00">d</text>
<text text-anchor="start" x="143.7" y="-485.2" font-family="Monaco" baseline-shift="super" font-size="8.00" fill="#3311ff">r3</text>
<text text-anchor="start" x="153.31" y="-485.2" font-family="Monaco" font-size="11.00">:in</text>
<text text-anchor="start" x="173.11" y="-485.2" font-family="Monaco" baseline-shift="super" font-size="8.00" fill="#ff4411">q0</text>
</g>
<!-- ndBlock0_7 -->
<g id="node11" class="node">
<title>ndBlock0_7</title>
<ellipse fill="none" stroke="black" cx="227.91" cy="-412.67" rx="60.52" ry="18"/>
<text text-anchor="start" x="188.9" y="-412.2" font-family="Monaco" font-size="11.00">@a</text>
<text text-anchor="start" x="202.1" y="-412.2" font-family="Monaco" baseline-shift="super" font-size="8.00" fill="#3311ff">r4</text>
<text text-anchor="start" x="211.7" y="-412.2" font-family="Monaco" font-size="11.00">:d+</text>
<text text-anchor="start" x="231.51" y="-412.2" font-family="Monaco" baseline-shift="super" font-size="8.00" fill="#3311ff">Add1</text>
<text text-anchor="start" x="250.71" y="-412.2" font-family="Monaco" font-size="11.00">e</text>
<text text-anchor="start" x="257.31" y="-412.2" font-family="Monaco" baseline-shift="super" font-size="8.00" fill="#ff4411">q1</text>
</g>
<!-- ndBlock0_6&#45;&gt;ndBlock0_7 -->
<g id="edge8" class="edge">
<title>ndBlock0_6&#45;&gt;ndBlock0_7</title>
<path fill="none" stroke="black" d="M175,-468.91C183.73,-459.8 194.9,-448.13 204.72,-437.88"/>
<polygon fill="black" stroke="black" points="207.52,-440.01 211.91,-430.37 202.47,-435.17 207.52,-440.01"/>
</g>
<!-- ndBlock0_7&#45;&gt;ndBlock0_11 -->
<g id="edge5" class="edge">
<title>ndBlock0_7&#45;&gt;ndBlock0_11</title>
<path fill="none" stroke="black" d="M241.34,-394.94C251.21,-382.65 264.79,-365.74 275.93,-351.87"/>
<polygon fill="black" stroke="black" points="278.97,-353.68 282.5,-343.69 273.51,-349.3 278.97,-353.68"/>
</g>
<!-- ndBlock0_8&#45;&gt;ndBlock0_9 -->
<g id="edge7" class="edge">
<title>ndBlock0_8&#45;&gt;ndBlock0_9</title>
<path fill="none" stroke="black" d="M204.78,-161.81C206.59,-153.79 208.78,-144.05 210.81,-135.07"/>
<polygon fill="black" stroke="black" points="214.29,-135.55 213.07,-125.03 207.46,-134.01 214.29,-135.55"/>
</g>
<!-- ndBlock0_9&#45;&gt;ndBlock0_5 -->
<g id="edge3" class="edge">
<title>ndBlock0_9&#45;&gt;ndBlock0_5</title>
<path fill="none" stroke="black" d="M216.91,-88.81C216.91,-80.79 216.91,-71.05 216.91,-62.07"/>
<polygon fill="black" stroke="black" points="220.41,-62.03 216.91,-52.03 213.41,-62.03 220.41,-62.03"/>
</g>
<!-- ndBlock0_10 -->
<g id="node14" class="node">
<title>ndBlock0_10</title>
<ellipse fill="none" stroke="black" cx="353.91" cy="-485.67" rx="39.8" ry="18"/>
<text text-anchor="start" x="331.1" y="-485.2" font-family="Monaco" font-size="11.00">f</text>
<text text-anchor="start" x="337.7" y="-485.2" font-family="Monaco" baseline-shift="super" font-size="8.00" fill="#3311ff">r5</text>
<text text-anchor="start" x="347.31" y="-485.2" font-family="Monaco" font-size="11.00">:in</text>
<text text-anchor="start" x="367.11" y="-485.2" font-family="Monaco" baseline-shift="super" font-size="8.00" fill="#ff4411">q0</text>
</g>
<!-- ndBlock0_10&#45;&gt;ndBlock0_1 -->
<g id="edge11" class="edge">
<title>ndBlock0_10&#45;&gt;ndBlock0_1</title>
<path fill="none" stroke="black" d="M357.05,-467.48C358.52,-459.46 360.31,-449.72 361.95,-440.74"/>
<polygon fill="black" stroke="black" points="365.43,-441.16 363.79,-430.7 358.55,-439.9 365.43,-441.16"/>
</g>
<!-- ndBlock0_11&#45;&gt;ndBlock0_0 -->
<g id="edge12" class="edge">
<title>ndBlock0_11&#45;&gt;ndBlock0_0</title>
<path fill="none" stroke="black" d="M271,-309.07C255.43,-299.11 235.19,-286.16 218.25,-275.33"/>
<polygon fill="black" stroke="black" points="220.04,-272.32 209.73,-269.88 216.27,-278.22 220.04,-272.32"/>
</g>
<!-- ndBlock0_12 -->
<g id="node16" class="node">
<title>ndBlock0_12</title>
<ellipse fill="none" stroke="black" cx="256.91" cy="-485.67" rx="39.8" ry="18"/>
<text text-anchor="start" x="234.1" y="-485.2" font-family="Monaco" font-size="11.00">e</text>
<text text-anchor="start" x="240.7" y="-485.2" font-family="Monaco" baseline-shift="super" font-size="8.00" fill="#3311ff">r4</text>
<text text-anchor="start" x="250.31" y="-485.2" font-family="Monaco" font-size="11.00">:in</text>
<text text-anchor="start" x="270.11" y="-485.2" font-family="Monaco" baseline-shift="super" font-size="8.00" fill="#ff4411">q0</text>
</g>
<!-- ndBlock0_12&#45;&gt;ndBlock0_7 -->
<g id="edge9" class="edge">
<title>ndBlock0_12&#45;&gt;ndBlock0_7</title>
<path fill="none" stroke="black" d="M250.03,-467.84C246.69,-459.65 242.59,-449.61 238.83,-440.4"/>
<polygon fill="black" stroke="black" points="241.95,-438.8 234.93,-430.87 235.47,-441.45 241.95,-438.8"/>
</g>
<!-- ndBlock0_13 -->
<g id="node17" class="node">
<title>ndBlock0_13</title>
<ellipse fill="none" stroke="black" cx="168.91" cy="-326" rx="39.8" ry="18"/>
<text text-anchor="start" x="146.1" y="-325.53" font-family="Monaco" font-size="11.00">c</text>
<text text-anchor="start" x="152.7" y="-325.53" font-family="Monaco" baseline-shift="super" font-size="8.00" fill="#3311ff">r2</text>
<text text-anchor="start" x="162.31" y="-325.53" font-family="Monaco" font-size="11.00">:in</text>
<text text-anchor="start" x="182.11" y="-325.53" font-family="Monaco" baseline-shift="super" font-size="8.00" fill="#ff4411">q0</text>
</g>
<!-- ndBlock0_13&#45;&gt;ndBlock0_0 -->
<g id="edge13" class="edge">
<title>ndBlock0_13&#45;&gt;ndBlock0_0</title>
<path fill="none" stroke="black" d="M172.78,-307.81C174.59,-299.79 176.78,-290.05 178.81,-281.07"/>
<polygon fill="black" stroke="black" points="182.29,-281.55 181.07,-271.03 175.46,-280.01 182.29,-281.55"/>
</g>
</g>
</svg>
