<?xml version="1.0" encoding="UTF-8" standalone="no"?>
<!DOCTYPE svg PUBLIC "-//W3C//DTD SVG 1.1//EN"
 "http://www.w3.org/Graphics/SVG/1.1/DTD/svg11.dtd">
<!-- Generated by graphviz version 2.43.0 (0)
 -->
<!-- Title: Program_ Pages: 1 -->
<svg width="758pt" height="552pt"
 viewBox="0.00 0.00 757.92 551.67" xmlns="http://www.w3.org/2000/svg" xmlns:xlink="http://www.w3.org/1999/xlink">
<g id="graph0" class="graph" transform="scale(1 1) rotate(0) translate(4 547.67)">
<title>Program_</title>
<polygon fill="white" stroke="transparent" points="-4,4 -4,-547.67 753.92,-547.67 753.92,4 -4,4"/>
<g id="clust1" class="cluster">
<title>cluster_dfg_Block0</title>
<polygon fill="none" stroke="black" points="279.92,-8 279.92,-535.67 741.92,-535.67 741.92,-8 279.92,-8"/>
<text text-anchor="middle" x="510.92" y="-522.07" font-family="Monaco" font-size="12.00">Block0</text>
</g>
<!-- Jump0 -->
<g id="node1" class="node">
<title>Jump0</title>
<polygon fill="none" stroke="black" points="269.76,-503.67 0.08,-503.67 0.08,-499.67 -3.92,-499.67 -3.92,-495.67 0.08,-495.67 0.08,-475.67 -3.92,-475.67 -3.92,-471.67 0.08,-471.67 0.08,-467.67 269.76,-467.67 269.76,-503.67"/>
<polyline fill="none" stroke="black" points="0.08,-499.67 4.08,-499.67 4.08,-495.67 0.08,-495.67 "/>
<polyline fill="none" stroke="black" points="0.08,-475.67 4.08,-475.67 4.08,-471.67 0.08,-471.67 "/>
<text text-anchor="start" x="97.11" y="-488.87" font-family="Monaco" font-size="11.00">StartFun.0</text>
<text text-anchor="start" x="163.13" y="-488.87" font-family="Monaco" baseline-shift="super" font-size="8.00" fill="#ff4411">q0</text>
<text text-anchor="start" x="8" y="-477.87" font-family="Monaco" font-size="11.00">a</text>
<text text-anchor="start" x="14.6" y="-477.87" font-family="Monaco" baseline-shift="super" font-size="8.00" fill="#00aa11">U10</text>
<text text-anchor="start" x="29" y="-477.87" font-family="Monaco" baseline-shift="super" font-size="8.00" fill="#3311ff">r0</text>
<text text-anchor="start" x="38.6" y="-477.87" font-family="Monaco" font-size="11.00">,b</text>
<text text-anchor="start" x="51.81" y="-477.87" font-family="Monaco" baseline-shift="super" font-size="8.00" fill="#00aa11">U10</text>
<text text-anchor="start" x="66.21" y="-477.87" font-family="Monaco" baseline-shift="super" font-size="8.00" fill="#3311ff">r1</text>
<text text-anchor="start" x="75.81" y="-477.87" font-family="Monaco" font-size="11.00">,c</text>
<text text-anchor="start" x="89.01" y="-477.87" font-family="Monaco" baseline-shift="super" font-size="8.00" fill="#00aa11">U10</text>
<text text-anchor="start" x="103.42" y="-477.87" font-family="Monaco" baseline-shift="super" font-size="8.00" fill="#3311ff">r2</text>
<text text-anchor="start" x="113.02" y="-477.87" font-family="Monaco" font-size="11.00">,d</text>
<text text-anchor="start" x="126.22" y="-477.87" font-family="Monaco" baseline-shift="super" font-size="8.00" fill="#00aa11">U10</text>
<text text-anchor="start" x="140.62" y="-477.87" font-family="Monaco" baseline-shift="super" font-size="8.00" fill="#3311ff">r3</text>
<text text-anchor="start" x="150.22" y="-477.87" font-family="Monaco" font-size="11.00">,e</text>
<text text-anchor="start" x="163.43" y="-477.87" font-family="Monaco" baseline-shift="super" font-size="8.00" fill="#00aa11">U13</text>
<text text-anchor="start" x="177.83" y="-477.87" font-family="Monaco" baseline-shift="super" font-size="8.00" fill="#3311ff">r4</text>
<text text-anchor="start" x="187.43" y="-477.87" font-family="Monaco" font-size="11.00">,f</text>
<text text-anchor="start" x="200.63" y="-477.87" font-family="Monaco" baseline-shift="super" font-size="8.00" fill="#00aa11">U10</text>
<text text-anchor="start" x="215.03" y="-477.87" font-family="Monaco" baseline-shift="super" font-size="8.00" fill="#3311ff">r5</text>
<text text-anchor="start" x="224.64" y="-477.87" font-family="Monaco" font-size="11.00">,g</text>
<text text-anchor="start" x="237.84" y="-477.87" font-family="Monaco" baseline-shift="super" font-size="8.00" fill="#00aa11">U13</text>
<text text-anchor="start" x="252.24" y="-477.87" font-family="Monaco" baseline-shift="super" font-size="8.00" fill="#3311ff">r6</text>
</g>
<!-- Block0 -->
<g id="node2" class="node">
<title>Block0</title>
<polygon fill="none" stroke="black" points="162.53,-430.67 107.31,-430.67 107.31,-394.67 162.53,-394.67 162.53,-430.67"/>
<text text-anchor="middle" x="134.92" y="-411.2" font-family="Monaco" font-size="11.00">Block0</text>
</g>
<!-- Jump0&#45;&gt;Block0 -->
<g id="edge1" class="edge">
<title>Jump0&#45;&gt;Block0</title>
<path fill="none" stroke="black" d="M134.92,-467.48C134.92,-459.46 134.92,-449.72 134.92,-440.74"/>
<polygon fill="black" stroke="black" points="138.42,-440.7 134.92,-430.7 131.42,-440.7 138.42,-440.7"/>
</g>
<!-- Jump1 -->
<g id="node3" class="node">
<title>Jump1</title>
<polygon fill="none" stroke="black" points="174.33,-338 113.51,-338 113.51,-344 95.51,-326 113.51,-308 113.51,-314 156.33,-314 156.33,-308 174.33,-308 174.33,-338"/>
<text text-anchor="start" x="103.72" y="-325.53" font-family="Monaco" font-size="11.00">Return.1</text>
<text text-anchor="start" x="156.52" y="-325.53" font-family="Monaco" baseline-shift="super" font-size="8.00" fill="#ff4411">q6</text>
</g>
<!-- Block0&#45;&gt;Jump1 -->
<g id="edge2" class="edge">
<title>Block0&#45;&gt;Jump1</title>
<path fill="none" stroke="black" d="M134.92,-394.53C134.92,-382.94 134.92,-367.39 134.92,-354.13"/>
<polygon fill="black" stroke="black" points="138.42,-354.11 134.92,-344.11 131.42,-354.11 138.42,-354.11"/>
<text text-anchor="middle" x="141.52" y="-367.87" font-family="Monaco" font-size="11.00">@f</text>
</g>
<!-- 0 -->
<g id="node4" class="node">
<title>0</title>
<ellipse fill="none" stroke="black" cx="416.92" cy="-412.67" rx="69.56" ry="18"/>
<text text-anchor="start" x="370.71" y="-412.2" font-family="Monaco" font-size="11.00">@a</text>
<text text-anchor="start" x="383.92" y="-412.2" font-family="Monaco" baseline-shift="super" font-size="8.00" fill="#00aa11">U13</text>
<text text-anchor="start" x="398.32" y="-412.2" font-family="Monaco" baseline-shift="super" font-size="8.00" fill="#3311ff">r3</text>
<text text-anchor="start" x="407.92" y="-412.2" font-family="Monaco" font-size="11.00">:d+</text>
<text text-anchor="start" x="427.72" y="-412.2" font-family="Monaco" baseline-shift="super" font-size="8.00" fill="#3311ff">Bin0</text>
<text text-anchor="start" x="446.93" y="-412.2" font-family="Monaco" font-size="11.00">e</text>
<text text-anchor="start" x="453.53" y="-412.2" font-family="Monaco" baseline-shift="super" font-size="8.00" fill="#ff4411">q1</text>
</g>
<!-- 2 -->
<g id="node11" class="node">
<title>2</title>
<ellipse fill="none" stroke="black" cx="438.92" cy="-326" rx="78.05" ry="18"/>
<text text-anchor="start" x="386.11" y="-325.53" font-family="Monaco" font-size="11.00">@c</text>
<text text-anchor="start" x="399.31" y="-325.53" font-family="Monaco" baseline-shift="super" font-size="8.00" fill="#00aa11">U13</text>
<text text-anchor="start" x="413.72" y="-325.53" font-family="Monaco" baseline-shift="super" font-size="8.00" fill="#3311ff">r3</text>
<text text-anchor="start" x="423.32" y="-325.53" font-family="Monaco" font-size="11.00">:@a+</text>
<text text-anchor="start" x="449.72" y="-325.53" font-family="Monaco" baseline-shift="super" font-size="8.00" fill="#3311ff">Bin0</text>
<text text-anchor="start" x="468.93" y="-325.53" font-family="Monaco" font-size="11.00">@b</text>
<text text-anchor="start" x="482.13" y="-325.53" font-family="Monaco" baseline-shift="super" font-size="8.00" fill="#ff4411">q2</text>
</g>
<!-- 0&#45;&gt;2 -->
<g id="edge3" class="edge">
<title>0&#45;&gt;2</title>
<path fill="none" stroke="black" d="M421.37,-394.53C424.38,-382.94 428.43,-367.39 431.87,-354.13"/>
<polygon fill="black" stroke="black" points="435.35,-354.67 434.48,-344.11 428.57,-352.91 435.35,-354.67"/>
</g>
<!-- 5 -->
<g id="node5" class="node">
<title>5</title>
<ellipse fill="none" stroke="black" cx="577.92" cy="-107" rx="74.05" ry="18"/>
<text text-anchor="start" x="528.41" y="-106.53" font-family="Monaco" font-size="11.00">@f</text>
<text text-anchor="start" x="541.61" y="-106.53" font-family="Monaco" baseline-shift="super" font-size="8.00" fill="#00aa11">U13</text>
<text text-anchor="start" x="556.02" y="-106.53" font-family="Monaco" baseline-shift="super" font-size="8.00" fill="#3311ff">r0</text>
<text text-anchor="start" x="565.62" y="-106.53" font-family="Monaco" font-size="11.00">:a+</text>
<text text-anchor="start" x="585.42" y="-106.53" font-family="Monaco" baseline-shift="super" font-size="8.00" fill="#3311ff">Bin0</text>
<text text-anchor="start" x="604.62" y="-106.53" font-family="Monaco" font-size="11.00">@e</text>
<text text-anchor="start" x="617.83" y="-106.53" font-family="Monaco" baseline-shift="super" font-size="8.00" fill="#ff4411">q5</text>
</g>
<!-- 13 -->
<g id="node10" class="node">
<title>13</title>
<ellipse fill="#ffffee" stroke="black" cx="577.92" cy="-34" rx="46.44" ry="18"/>
<text text-anchor="start" x="550.02" y="-33.53" font-family="Monaco" font-size="11.00">out(@f)</text>
<text text-anchor="start" x="596.22" y="-33.53" font-family="Monaco" baseline-shift="super" font-size="8.00" fill="#ff4411">q6</text>
</g>
<!-- 5&#45;&gt;13 -->
<g id="edge8" class="edge">
<title>5&#45;&gt;13</title>
<path fill="none" stroke="black" d="M577.92,-88.81C577.92,-80.79 577.92,-71.05 577.92,-62.07"/>
<polygon fill="black" stroke="black" points="581.42,-62.03 577.92,-52.03 574.42,-62.03 581.42,-62.03"/>
</g>
<!-- 10 -->
<g id="node6" class="node">
<title>10</title>
<ellipse fill="#ffeeff" stroke="black" cx="646.92" cy="-253" rx="48.84" ry="18"/>
<text text-anchor="start" x="616.92" y="-252.53" font-family="Monaco" font-size="11.00">b</text>
<text text-anchor="start" x="623.52" y="-252.53" font-family="Monaco" baseline-shift="super" font-size="8.00" fill="#00aa11">U10</text>
<text text-anchor="start" x="637.92" y="-252.53" font-family="Monaco" baseline-shift="super" font-size="8.00" fill="#3311ff">r1</text>
<text text-anchor="start" x="647.52" y="-252.53" font-family="Monaco" font-size="11.00">:in</text>
<text text-anchor="start" x="667.32" y="-252.53" font-family="Monaco" baseline-shift="super" font-size="8.00" fill="#ff4411">q0</text>
</g>
<!-- 4 -->
<g id="node17" class="node">
<title>4</title>
<ellipse fill="none" stroke="black" cx="541.92" cy="-180" rx="74.05" ry="18"/>
<text text-anchor="start" x="492.41" y="-179.53" font-family="Monaco" font-size="11.00">@e</text>
<text text-anchor="start" x="505.61" y="-179.53" font-family="Monaco" baseline-shift="super" font-size="8.00" fill="#00aa11">U13</text>
<text text-anchor="start" x="520.02" y="-179.53" font-family="Monaco" baseline-shift="super" font-size="8.00" fill="#3311ff">r1</text>
<text text-anchor="start" x="529.62" y="-179.53" font-family="Monaco" font-size="11.00">:b+</text>
<text text-anchor="start" x="549.42" y="-179.53" font-family="Monaco" baseline-shift="super" font-size="8.00" fill="#3311ff">Bin0</text>
<text text-anchor="start" x="568.62" y="-179.53" font-family="Monaco" font-size="11.00">@d</text>
<text text-anchor="start" x="581.83" y="-179.53" font-family="Monaco" baseline-shift="super" font-size="8.00" fill="#ff4411">q4</text>
</g>
<!-- 10&#45;&gt;4 -->
<g id="edge13" class="edge">
<title>10&#45;&gt;4</title>
<path fill="none" stroke="black" d="M624.65,-236.94C610.13,-227.12 590.91,-214.13 574.66,-203.14"/>
<polygon fill="black" stroke="black" points="576.23,-199.97 565.99,-197.27 572.31,-205.77 576.23,-199.97"/>
</g>
<!-- 1 -->
<g id="node7" class="node">
<title>1</title>
<ellipse fill="none" stroke="black" cx="574.92" cy="-412.67" rx="69.56" ry="18"/>
<text text-anchor="start" x="528.71" y="-412.2" font-family="Monaco" font-size="11.00">@b</text>
<text text-anchor="start" x="541.92" y="-412.2" font-family="Monaco" baseline-shift="super" font-size="8.00" fill="#00aa11">U13</text>
<text text-anchor="start" x="556.32" y="-412.2" font-family="Monaco" baseline-shift="super" font-size="8.00" fill="#3311ff">r4</text>
<text text-anchor="start" x="565.92" y="-412.2" font-family="Monaco" font-size="11.00">:f+</text>
<text text-anchor="start" x="585.72" y="-412.2" font-family="Monaco" baseline-shift="super" font-size="8.00" fill="#3311ff">Bin1</text>
<text text-anchor="start" x="604.93" y="-412.2" font-family="Monaco" font-size="11.00">g</text>
<text text-anchor="start" x="611.53" y="-412.2" font-family="Monaco" baseline-shift="super" font-size="8.00" fill="#ff4411">q1</text>
</g>
<!-- 1&#45;&gt;2 -->
<g id="edge4" class="edge">
<title>1&#45;&gt;2</title>
<path fill="none" stroke="black" d="M549.34,-395.74C527.92,-382.41 497.14,-363.24 473.52,-348.54"/>
<polygon fill="black" stroke="black" points="475.19,-345.46 464.85,-343.14 471.49,-351.4 475.19,-345.46"/>
</g>
<!-- 6 -->
<g id="node8" class="node">
<title>6</title>
<ellipse fill="#ffeeff" stroke="black" cx="682.92" cy="-180" rx="48.84" ry="18"/>
<text text-anchor="start" x="652.92" y="-179.53" font-family="Monaco" font-size="11.00">a</text>
<text text-anchor="start" x="659.52" y="-179.53" font-family="Monaco" baseline-shift="super" font-size="8.00" fill="#00aa11">U10</text>
<text text-anchor="start" x="673.92" y="-179.53" font-family="Monaco" baseline-shift="super" font-size="8.00" fill="#3311ff">r0</text>
<text text-anchor="start" x="683.52" y="-179.53" font-family="Monaco" font-size="11.00">:in</text>
<text text-anchor="start" x="703.32" y="-179.53" font-family="Monaco" baseline-shift="super" font-size="8.00" fill="#ff4411">q0</text>
</g>
<!-- 6&#45;&gt;5 -->
<g id="edge9" class="edge">
<title>6&#45;&gt;5</title>
<path fill="none" stroke="black" d="M660.65,-163.94C646.13,-154.12 626.91,-141.13 610.66,-130.14"/>
<polygon fill="black" stroke="black" points="612.23,-126.97 601.99,-124.27 608.31,-132.77 612.23,-126.97"/>
</g>
<!-- 9 -->
<g id="node9" class="node">
<title>9</title>
<ellipse fill="#ffeeff" stroke="black" cx="684.92" cy="-485.67" rx="48.84" ry="18"/>
<text text-anchor="start" x="654.92" y="-485.2" font-family="Monaco" font-size="11.00">g</text>
<text text-anchor="start" x="661.52" y="-485.2" font-family="Monaco" baseline-shift="super" font-size="8.00" fill="#00aa11">U13</text>
<text text-anchor="start" x="675.92" y="-485.2" font-family="Monaco" baseline-shift="super" font-size="8.00" fill="#3311ff">r6</text>
<text text-anchor="start" x="685.52" y="-485.2" font-family="Monaco" font-size="11.00">:in</text>
<text text-anchor="start" x="705.32" y="-485.2" font-family="Monaco" baseline-shift="super" font-size="8.00" fill="#ff4411">q0</text>
</g>
<!-- 9&#45;&gt;1 -->
<g id="edge12" class="edge">
<title>9&#45;&gt;1</title>
<path fill="none" stroke="black" d="M661.86,-469.78C646.3,-459.74 625.53,-446.33 608.19,-435.14"/>
<polygon fill="black" stroke="black" points="609.78,-432 599.48,-429.52 605.98,-437.88 609.78,-432"/>
</g>
<!-- 3 -->
<g id="node14" class="node">
<title>3</title>
<ellipse fill="none" stroke="black" cx="505.92" cy="-253" rx="74.05" ry="18"/>
<text text-anchor="start" x="456.41" y="-252.53" font-family="Monaco" font-size="11.00">@d</text>
<text text-anchor="start" x="469.61" y="-252.53" font-family="Monaco" baseline-shift="super" font-size="8.00" fill="#00aa11">U13</text>
<text text-anchor="start" x="484.02" y="-252.53" font-family="Monaco" baseline-shift="super" font-size="8.00" fill="#3311ff">r2</text>
<text text-anchor="start" x="493.62" y="-252.53" font-family="Monaco" font-size="11.00">:c+</text>
<text text-anchor="start" x="513.42" y="-252.53" font-family="Monaco" baseline-shift="super" font-size="8.00" fill="#3311ff">Bin0</text>
<text text-anchor="start" x="532.62" y="-252.53" font-family="Monaco" font-size="11.00">@c</text>
<text text-anchor="start" x="545.83" y="-252.53" font-family="Monaco" baseline-shift="super" font-size="8.00" fill="#ff4411">q3</text>
</g>
<!-- 2&#45;&gt;3 -->
<g id="edge5" class="edge">
<title>2&#45;&gt;3</title>
<path fill="none" stroke="black" d="M454.8,-308.17C463.23,-299.24 473.73,-288.11 483.03,-278.26"/>
<polygon fill="black" stroke="black" points="485.84,-280.38 490.16,-270.71 480.75,-275.58 485.84,-280.38"/>
</g>
<!-- 12 -->
<g id="node12" class="node">
<title>12</title>
<ellipse fill="#ffeeff" stroke="black" cx="583.92" cy="-326" rx="48.84" ry="18"/>
<text text-anchor="start" x="553.92" y="-325.53" font-family="Monaco" font-size="11.00">c</text>
<text text-anchor="start" x="560.52" y="-325.53" font-family="Monaco" baseline-shift="super" font-size="8.00" fill="#00aa11">U10</text>
<text text-anchor="start" x="574.92" y="-325.53" font-family="Monaco" baseline-shift="super" font-size="8.00" fill="#3311ff">r2</text>
<text text-anchor="start" x="584.52" y="-325.53" font-family="Monaco" font-size="11.00">:in</text>
<text text-anchor="start" x="604.32" y="-325.53" font-family="Monaco" baseline-shift="super" font-size="8.00" fill="#ff4411">q0</text>
</g>
<!-- 12&#45;&gt;3 -->
<g id="edge15" class="edge">
<title>12&#45;&gt;3</title>
<path fill="none" stroke="black" d="M566.22,-308.89C556,-299.58 542.95,-287.71 531.61,-277.39"/>
<polygon fill="black" stroke="black" points="533.84,-274.68 524.09,-270.54 529.13,-279.86 533.84,-274.68"/>
</g>
<!-- 7 -->
<g id="node13" class="node">
<title>7</title>
<ellipse fill="#ffeeff" stroke="black" cx="336.92" cy="-485.67" rx="48.84" ry="18"/>
<text text-anchor="start" x="306.92" y="-485.2" font-family="Monaco" font-size="11.00">d</text>
<text text-anchor="start" x="313.52" y="-485.2" font-family="Monaco" baseline-shift="super" font-size="8.00" fill="#00aa11">U10</text>
<text text-anchor="start" x="327.92" y="-485.2" font-family="Monaco" baseline-shift="super" font-size="8.00" fill="#3311ff">r3</text>
<text text-anchor="start" x="337.52" y="-485.2" font-family="Monaco" font-size="11.00">:in</text>
<text text-anchor="start" x="357.32" y="-485.2" font-family="Monaco" baseline-shift="super" font-size="8.00" fill="#ff4411">q0</text>
</g>
<!-- 7&#45;&gt;0 -->
<g id="edge10" class="edge">
<title>7&#45;&gt;0</title>
<path fill="none" stroke="black" d="M355.07,-468.56C365.56,-459.25 378.94,-447.38 390.57,-437.06"/>
<polygon fill="black" stroke="black" points="393.13,-439.46 398.28,-430.21 388.48,-434.23 393.13,-439.46"/>
</g>
<!-- 3&#45;&gt;4 -->
<g id="edge6" class="edge">
<title>3&#45;&gt;4</title>
<path fill="none" stroke="black" d="M514.64,-234.81C518.84,-226.53 523.97,-216.41 528.64,-207.19"/>
<polygon fill="black" stroke="black" points="531.89,-208.53 533.29,-198.03 525.64,-205.37 531.89,-208.53"/>
</g>
<!-- 11 -->
<g id="node15" class="node">
<title>11</title>
<ellipse fill="#ffeeff" stroke="black" cx="568.92" cy="-485.67" rx="48.84" ry="18"/>
<text text-anchor="start" x="538.92" y="-485.2" font-family="Monaco" font-size="11.00">f</text>
<text text-anchor="start" x="545.52" y="-485.2" font-family="Monaco" baseline-shift="super" font-size="8.00" fill="#00aa11">U10</text>
<text text-anchor="start" x="559.92" y="-485.2" font-family="Monaco" baseline-shift="super" font-size="8.00" fill="#3311ff">r5</text>
<text text-anchor="start" x="569.52" y="-485.2" font-family="Monaco" font-size="11.00">:in</text>
<text text-anchor="start" x="589.32" y="-485.2" font-family="Monaco" baseline-shift="super" font-size="8.00" fill="#ff4411">q0</text>
</g>
<!-- 11&#45;&gt;1 -->
<g id="edge14" class="edge">
<title>11&#45;&gt;1</title>
<path fill="none" stroke="black" d="M570.37,-467.48C571.05,-459.46 571.87,-449.72 572.63,-440.74"/>
<polygon fill="black" stroke="black" points="576.13,-440.96 573.48,-430.7 569.15,-440.37 576.13,-440.96"/>
</g>
<!-- 8 -->
<g id="node16" class="node">
<title>8</title>
<ellipse fill="#ffeeff" stroke="black" cx="452.92" cy="-485.67" rx="48.84" ry="18"/>
<text text-anchor="start" x="422.92" y="-485.2" font-family="Monaco" font-size="11.00">e</text>
<text text-anchor="start" x="429.52" y="-485.2" font-family="Monaco" baseline-shift="super" font-size="8.00" fill="#00aa11">U13</text>
<text text-anchor="start" x="443.92" y="-485.2" font-family="Monaco" baseline-shift="super" font-size="8.00" fill="#3311ff">r4</text>
<text text-anchor="start" x="453.52" y="-485.2" font-family="Monaco" font-size="11.00">:in</text>
<text text-anchor="start" x="473.32" y="-485.2" font-family="Monaco" baseline-shift="super" font-size="8.00" fill="#ff4411">q0</text>
</g>
<!-- 8&#45;&gt;0 -->
<g id="edge11" class="edge">
<title>8&#45;&gt;0</title>
<path fill="none" stroke="black" d="M444.39,-467.84C440.15,-459.48 434.93,-449.18 430.18,-439.81"/>
<polygon fill="black" stroke="black" points="433.29,-438.2 425.64,-430.87 427.04,-441.37 433.29,-438.2"/>
</g>
<!-- 4&#45;&gt;5 -->
<g id="edge7" class="edge">
<title>4&#45;&gt;5</title>
<path fill="none" stroke="black" d="M550.64,-161.81C554.84,-153.53 559.97,-143.41 564.64,-134.19"/>
<polygon fill="black" stroke="black" points="567.89,-135.53 569.29,-125.03 561.64,-132.37 567.89,-135.53"/>
</g>
</g>
</svg>
