<?xml version="1.0" encoding="UTF-8" standalone="no"?>
<!DOCTYPE svg PUBLIC "-//W3C//DTD SVG 1.1//EN"
 "http://www.w3.org/Graphics/SVG/1.1/DTD/svg11.dtd">
<!-- Generated by graphviz version 2.43.0 (0)
 -->
<!-- Title: Program_ Pages: 1 -->
<svg width="504pt" height="552pt"
 viewBox="0.00 0.00 503.81 551.67" xmlns="http://www.w3.org/2000/svg" xmlns:xlink="http://www.w3.org/1999/xlink">
<g id="graph0" class="graph" transform="scale(1 1) rotate(0) translate(4 547.67)">
<title>Program_</title>
<polygon fill="white" stroke="transparent" points="-4,4 -4,-547.67 499.81,-547.67 499.81,4 -4,4"/>
<g id="clust1" class="cluster">
<title>cluster_dfg_Block0</title>
<polygon fill="none" stroke="black" points="100.81,-8 100.81,-535.67 487.81,-535.67 487.81,-8 100.81,-8"/>
<text text-anchor="middle" x="294.31" y="-522.07" font-family="Monaco" font-size="12.00">Block0</text>
</g>
<!-- Jump0 -->
<g id="node1" class="node">
<title>Jump0</title>
<polygon fill="none" stroke="black" points="91.42,-503.67 0.19,-503.67 0.19,-499.67 -3.81,-499.67 -3.81,-495.67 0.19,-495.67 0.19,-475.67 -3.81,-475.67 -3.81,-471.67 0.19,-471.67 0.19,-467.67 91.42,-467.67 91.42,-503.67"/>
<polyline fill="none" stroke="black" points="0.19,-499.67 4.19,-499.67 4.19,-495.67 0.19,-495.67 "/>
<polyline fill="none" stroke="black" points="0.19,-475.67 4.19,-475.67 4.19,-471.67 0.19,-471.67 "/>
<text text-anchor="start" x="8" y="-485.2" font-family="Monaco" font-size="11.00">StartFun.0</text>
<text text-anchor="start" x="74.01" y="-485.2" font-family="Monaco" baseline-shift="super" font-size="8.00" fill="#ff4411">q0</text>
</g>
<!-- Block0 -->
<g id="node2" class="node">
<title>Block0</title>
<polygon fill="none" stroke="black" points="73.41,-430.67 18.2,-430.67 18.2,-394.67 73.41,-394.67 73.41,-430.67"/>
<text text-anchor="middle" x="45.81" y="-411.2" font-family="Monaco" font-size="11.00">Block0</text>
</g>
<!-- Jump0&#45;&gt;Block0 -->
<g id="edge1" class="edge">
<title>Jump0&#45;&gt;Block0</title>
<path fill="none" stroke="black" d="M45.81,-467.48C45.81,-459.46 45.81,-449.72 45.81,-440.74"/>
<polygon fill="black" stroke="black" points="49.31,-440.7 45.81,-430.7 42.31,-440.7 49.31,-440.7"/>
</g>
<!-- Jump1 -->
<g id="node3" class="node">
<title>Jump1</title>
<polygon fill="none" stroke="black" points="85.22,-338 24.39,-338 24.39,-344 6.39,-326 24.39,-308 24.39,-314 67.22,-314 67.22,-308 85.22,-308 85.22,-338"/>
<text text-anchor="start" x="14.6" y="-325.53" font-family="Monaco" font-size="11.00">Return.1</text>
<text text-anchor="start" x="67.41" y="-325.53" font-family="Monaco" baseline-shift="super" font-size="8.00" fill="#ff4411">q6</text>
</g>
<!-- Block0&#45;&gt;Jump1 -->
<g id="edge2" class="edge">
<title>Block0&#45;&gt;Jump1</title>
<path fill="none" stroke="black" d="M45.81,-394.53C45.81,-382.94 45.81,-367.39 45.81,-354.13"/>
<polygon fill="black" stroke="black" points="49.31,-354.11 45.81,-344.11 42.31,-354.11 49.31,-354.11"/>
<text text-anchor="middle" x="52.41" y="-367.87" font-family="Monaco" font-size="11.00">@5</text>
</g>
<!-- ndBlock0_0 -->
<g id="node4" class="node">
<title>ndBlock0_0</title>
<ellipse fill="none" stroke="black" cx="439.81" cy="-485.67" rx="39.8" ry="18"/>
<text text-anchor="start" x="417" y="-485.2" font-family="Monaco" font-size="11.00">g</text>
<text text-anchor="start" x="423.6" y="-485.2" font-family="Monaco" baseline-shift="super" font-size="8.00" fill="#3311ff">r6</text>
<text text-anchor="start" x="433.21" y="-485.2" font-family="Monaco" font-size="11.00">:in</text>
<text text-anchor="start" x="453.01" y="-485.2" font-family="Monaco" baseline-shift="super" font-size="8.00" fill="#ff4411">q0</text>
</g>
<!-- ndBlock0_7 -->
<g id="node11" class="node">
<title>ndBlock0_7</title>
<ellipse fill="none" stroke="black" cx="346.81" cy="-412.67" rx="48.3" ry="18"/>
<text text-anchor="start" x="317.4" y="-412.2" font-family="Monaco" font-size="11.00">@1</text>
<text text-anchor="start" x="330.6" y="-412.2" font-family="Monaco" baseline-shift="super" font-size="8.00" fill="#3311ff">r0</text>
<text text-anchor="start" x="340.21" y="-412.2" font-family="Monaco" font-size="11.00">:f+g</text>
<text text-anchor="start" x="366.61" y="-412.2" font-family="Monaco" baseline-shift="super" font-size="8.00" fill="#ff4411">q1</text>
</g>
<!-- ndBlock0_0&#45;&gt;ndBlock0_7 -->
<g id="edge5" class="edge">
<title>ndBlock0_0&#45;&gt;ndBlock0_7</title>
<path fill="none" stroke="black" d="M420.08,-469.61C407.07,-459.68 389.81,-446.5 375.31,-435.43"/>
<polygon fill="black" stroke="black" points="377.22,-432.48 367.14,-429.19 372.97,-438.05 377.22,-432.48"/>
</g>
<!-- ndBlock0_1 -->
<g id="node5" class="node">
<title>ndBlock0_1</title>
<ellipse fill="none" stroke="black" cx="342.81" cy="-485.67" rx="39.8" ry="18"/>
<text text-anchor="start" x="320" y="-485.2" font-family="Monaco" font-size="11.00">f</text>
<text text-anchor="start" x="326.6" y="-485.2" font-family="Monaco" baseline-shift="super" font-size="8.00" fill="#3311ff">r5</text>
<text text-anchor="start" x="336.21" y="-485.2" font-family="Monaco" font-size="11.00">:in</text>
<text text-anchor="start" x="356.01" y="-485.2" font-family="Monaco" baseline-shift="super" font-size="8.00" fill="#ff4411">q0</text>
</g>
<!-- ndBlock0_1&#45;&gt;ndBlock0_7 -->
<g id="edge6" class="edge">
<title>ndBlock0_1&#45;&gt;ndBlock0_7</title>
<path fill="none" stroke="black" d="M343.77,-467.48C344.23,-459.46 344.78,-449.72 345.28,-440.74"/>
<polygon fill="black" stroke="black" points="348.78,-440.88 345.85,-430.7 341.79,-440.48 348.78,-440.88"/>
</g>
<!-- ndBlock0_2 -->
<g id="node6" class="node">
<title>ndBlock0_2</title>
<ellipse fill="none" stroke="black" cx="437.81" cy="-180" rx="39.8" ry="18"/>
<text text-anchor="start" x="415" y="-179.53" font-family="Monaco" font-size="11.00">a</text>
<text text-anchor="start" x="421.6" y="-179.53" font-family="Monaco" baseline-shift="super" font-size="8.00" fill="#3311ff">r1</text>
<text text-anchor="start" x="431.21" y="-179.53" font-family="Monaco" font-size="11.00">:in</text>
<text text-anchor="start" x="451.01" y="-179.53" font-family="Monaco" baseline-shift="super" font-size="8.00" fill="#ff4411">q0</text>
</g>
<!-- ndBlock0_4 -->
<g id="node8" class="node">
<title>ndBlock0_4</title>
<ellipse fill="none" stroke="black" cx="356.81" cy="-107" rx="52.3" ry="18"/>
<text text-anchor="start" x="324.1" y="-106.53" font-family="Monaco" font-size="11.00">@5</text>
<text text-anchor="start" x="337.3" y="-106.53" font-family="Monaco" baseline-shift="super" font-size="8.00" fill="#3311ff">r0</text>
<text text-anchor="start" x="346.9" y="-106.53" font-family="Monaco" font-size="11.00">:a+@4</text>
<text text-anchor="start" x="379.91" y="-106.53" font-family="Monaco" baseline-shift="super" font-size="8.00" fill="#ff4411">q5</text>
</g>
<!-- ndBlock0_2&#45;&gt;ndBlock0_4 -->
<g id="edge12" class="edge">
<title>ndBlock0_2&#45;&gt;ndBlock0_4</title>
<path fill="none" stroke="black" d="M420.23,-163.59C409.31,-154.03 395.09,-141.55 382.87,-130.85"/>
<polygon fill="black" stroke="black" points="385.02,-128.07 375.19,-124.12 380.4,-133.34 385.02,-128.07"/>
</g>
<!-- ndBlock0_3 -->
<g id="node7" class="node">
<title>ndBlock0_3</title>
<ellipse fill="none" stroke="black" cx="408.81" cy="-253" rx="39.8" ry="18"/>
<text text-anchor="start" x="386" y="-252.53" font-family="Monaco" font-size="11.00">b</text>
<text text-anchor="start" x="392.6" y="-252.53" font-family="Monaco" baseline-shift="super" font-size="8.00" fill="#3311ff">r3</text>
<text text-anchor="start" x="402.21" y="-252.53" font-family="Monaco" font-size="11.00">:in</text>
<text text-anchor="start" x="422.01" y="-252.53" font-family="Monaco" baseline-shift="super" font-size="8.00" fill="#ff4411">q0</text>
</g>
<!-- ndBlock0_10 -->
<g id="node14" class="node">
<title>ndBlock0_10</title>
<ellipse fill="none" stroke="black" cx="327.81" cy="-180" rx="52.3" ry="18"/>
<text text-anchor="start" x="295.1" y="-179.53" font-family="Monaco" font-size="11.00">@4</text>
<text text-anchor="start" x="308.3" y="-179.53" font-family="Monaco" baseline-shift="super" font-size="8.00" fill="#3311ff">r0</text>
<text text-anchor="start" x="317.9" y="-179.53" font-family="Monaco" font-size="11.00">:b+@3</text>
<text text-anchor="start" x="350.91" y="-179.53" font-family="Monaco" baseline-shift="super" font-size="8.00" fill="#ff4411">q4</text>
</g>
<!-- ndBlock0_3&#45;&gt;ndBlock0_10 -->
<g id="edge3" class="edge">
<title>ndBlock0_3&#45;&gt;ndBlock0_10</title>
<path fill="none" stroke="black" d="M391.23,-236.59C380.31,-227.03 366.09,-214.55 353.87,-203.85"/>
<polygon fill="black" stroke="black" points="356.02,-201.07 346.19,-197.12 351.4,-206.34 356.02,-201.07"/>
</g>
<!-- ndBlock0_9 -->
<g id="node13" class="node">
<title>ndBlock0_9</title>
<ellipse fill="none" stroke="black" cx="356.81" cy="-34" rx="29.45" ry="18"/>
<text text-anchor="start" x="342.1" y="-33.53" font-family="Monaco" font-size="11.00">out</text>
<text text-anchor="start" x="361.91" y="-33.53" font-family="Monaco" baseline-shift="super" font-size="8.00" fill="#ff4411">q6</text>
</g>
<!-- ndBlock0_4&#45;&gt;ndBlock0_9 -->
<g id="edge11" class="edge">
<title>ndBlock0_4&#45;&gt;ndBlock0_9</title>
<path fill="none" stroke="black" d="M356.81,-88.81C356.81,-80.79 356.81,-71.05 356.81,-62.07"/>
<polygon fill="black" stroke="black" points="360.31,-62.03 356.81,-52.03 353.31,-62.03 360.31,-62.03"/>
</g>
<!-- ndBlock0_5 -->
<g id="node9" class="node">
<title>ndBlock0_5</title>
<ellipse fill="none" stroke="black" cx="232.81" cy="-412.67" rx="48.3" ry="18"/>
<text text-anchor="start" x="203.4" y="-412.2" font-family="Monaco" font-size="11.00">@0</text>
<text text-anchor="start" x="216.6" y="-412.2" font-family="Monaco" baseline-shift="super" font-size="8.00" fill="#3311ff">r4</text>
<text text-anchor="start" x="226.21" y="-412.2" font-family="Monaco" font-size="11.00">:d+e</text>
<text text-anchor="start" x="252.61" y="-412.2" font-family="Monaco" baseline-shift="super" font-size="8.00" fill="#ff4411">q1</text>
</g>
<!-- ndBlock0_11 -->
<g id="node15" class="node">
<title>ndBlock0_11</title>
<ellipse fill="none" stroke="black" cx="247.81" cy="-326" rx="56.79" ry="18"/>
<text text-anchor="start" x="211.8" y="-325.53" font-family="Monaco" font-size="11.00">@2</text>
<text text-anchor="start" x="225" y="-325.53" font-family="Monaco" baseline-shift="super" font-size="8.00" fill="#3311ff">r0</text>
<text text-anchor="start" x="234.6" y="-325.53" font-family="Monaco" font-size="11.00">:@0+@1</text>
<text text-anchor="start" x="274.21" y="-325.53" font-family="Monaco" baseline-shift="super" font-size="8.00" fill="#ff4411">q2</text>
</g>
<!-- ndBlock0_5&#45;&gt;ndBlock0_11 -->
<g id="edge7" class="edge">
<title>ndBlock0_5&#45;&gt;ndBlock0_11</title>
<path fill="none" stroke="black" d="M235.84,-394.53C237.9,-382.94 240.65,-367.39 243,-354.13"/>
<polygon fill="black" stroke="black" points="246.48,-354.57 244.78,-344.11 239.58,-353.34 246.48,-354.57"/>
</g>
<!-- ndBlock0_6 -->
<g id="node10" class="node">
<title>ndBlock0_6</title>
<ellipse fill="none" stroke="black" cx="245.81" cy="-485.67" rx="39.8" ry="18"/>
<text text-anchor="start" x="223" y="-485.2" font-family="Monaco" font-size="11.00">d</text>
<text text-anchor="start" x="229.6" y="-485.2" font-family="Monaco" baseline-shift="super" font-size="8.00" fill="#3311ff">r0</text>
<text text-anchor="start" x="239.21" y="-485.2" font-family="Monaco" font-size="11.00">:in</text>
<text text-anchor="start" x="259.01" y="-485.2" font-family="Monaco" baseline-shift="super" font-size="8.00" fill="#ff4411">q0</text>
</g>
<!-- ndBlock0_6&#45;&gt;ndBlock0_5 -->
<g id="edge14" class="edge">
<title>ndBlock0_6&#45;&gt;ndBlock0_5</title>
<path fill="none" stroke="black" d="M242.66,-467.48C241.19,-459.46 239.41,-449.72 237.76,-440.74"/>
<polygon fill="black" stroke="black" points="241.17,-439.9 235.92,-430.7 234.28,-441.16 241.17,-439.9"/>
</g>
<!-- ndBlock0_7&#45;&gt;ndBlock0_11 -->
<g id="edge8" class="edge">
<title>ndBlock0_7&#45;&gt;ndBlock0_11</title>
<path fill="none" stroke="black" d="M328.19,-395.74C313.07,-382.82 291.56,-364.42 274.6,-349.91"/>
<polygon fill="black" stroke="black" points="276.55,-346.98 266.68,-343.14 272.01,-352.3 276.55,-346.98"/>
</g>
<!-- ndBlock0_8 -->
<g id="node12" class="node">
<title>ndBlock0_8</title>
<ellipse fill="none" stroke="black" cx="361.81" cy="-326" rx="39.8" ry="18"/>
<text text-anchor="start" x="339" y="-325.53" font-family="Monaco" font-size="11.00">c</text>
<text text-anchor="start" x="345.6" y="-325.53" font-family="Monaco" baseline-shift="super" font-size="8.00" fill="#3311ff">r2</text>
<text text-anchor="start" x="355.21" y="-325.53" font-family="Monaco" font-size="11.00">:in</text>
<text text-anchor="start" x="375.01" y="-325.53" font-family="Monaco" baseline-shift="super" font-size="8.00" fill="#ff4411">q0</text>
</g>
<!-- ndBlock0_13 -->
<g id="node17" class="node">
<title>ndBlock0_13</title>
<ellipse fill="none" stroke="black" cx="298.81" cy="-253" rx="52.3" ry="18"/>
<text text-anchor="start" x="266.1" y="-252.53" font-family="Monaco" font-size="11.00">@3</text>
<text text-anchor="start" x="279.3" y="-252.53" font-family="Monaco" baseline-shift="super" font-size="8.00" fill="#3311ff">r0</text>
<text text-anchor="start" x="288.9" y="-252.53" font-family="Monaco" font-size="11.00">:c+@2</text>
<text text-anchor="start" x="321.91" y="-252.53" font-family="Monaco" baseline-shift="super" font-size="8.00" fill="#ff4411">q3</text>
</g>
<!-- ndBlock0_8&#45;&gt;ndBlock0_13 -->
<g id="edge9" class="edge">
<title>ndBlock0_8&#45;&gt;ndBlock0_13</title>
<path fill="none" stroke="black" d="M347.51,-308.89C339.49,-299.85 329.32,-288.39 320.35,-278.28"/>
<polygon fill="black" stroke="black" points="322.74,-275.7 313.48,-270.54 317.5,-280.34 322.74,-275.7"/>
</g>
<!-- ndBlock0_10&#45;&gt;ndBlock0_4 -->
<g id="edge13" class="edge">
<title>ndBlock0_10&#45;&gt;ndBlock0_4</title>
<path fill="none" stroke="black" d="M334.83,-161.81C338.17,-153.62 342.26,-143.62 345.99,-134.48"/>
<polygon fill="black" stroke="black" points="349.31,-135.61 349.85,-125.03 342.83,-132.96 349.31,-135.61"/>
</g>
<!-- ndBlock0_11&#45;&gt;ndBlock0_13 -->
<g id="edge10" class="edge">
<title>ndBlock0_11&#45;&gt;ndBlock0_13</title>
<path fill="none" stroke="black" d="M259.89,-308.17C266.18,-299.42 273.99,-288.55 280.96,-278.85"/>
<polygon fill="black" stroke="black" points="283.82,-280.87 286.81,-270.71 278.13,-276.79 283.82,-280.87"/>
</g>
<!-- ndBlock0_12 -->
<g id="node16" class="node">
<title>ndBlock0_12</title>
<ellipse fill="none" stroke="black" cx="148.81" cy="-485.67" rx="39.8" ry="18"/>
<text text-anchor="start" x="126" y="-485.2" font-family="Monaco" font-size="11.00">e</text>
<text text-anchor="start" x="132.6" y="-485.2" font-family="Monaco" baseline-shift="super" font-size="8.00" fill="#3311ff">r4</text>
<text text-anchor="start" x="142.21" y="-485.2" font-family="Monaco" font-size="11.00">:in</text>
<text text-anchor="start" x="162.01" y="-485.2" font-family="Monaco" baseline-shift="super" font-size="8.00" fill="#ff4411">q0</text>
</g>
<!-- ndBlock0_12&#45;&gt;ndBlock0_5 -->
<g id="edge15" class="edge">
<title>ndBlock0_12&#45;&gt;ndBlock0_5</title>
<path fill="none" stroke="black" d="M167.03,-469.26C178.43,-459.63 193.32,-447.05 206.04,-436.29"/>
<polygon fill="black" stroke="black" points="208.66,-438.66 214.03,-429.54 204.14,-433.32 208.66,-438.66"/>
</g>
<!-- ndBlock0_13&#45;&gt;ndBlock0_10 -->
<g id="edge4" class="edge">
<title>ndBlock0_13&#45;&gt;ndBlock0_10</title>
<path fill="none" stroke="black" d="M305.83,-234.81C309.17,-226.62 313.26,-216.62 316.99,-207.48"/>
<polygon fill="black" stroke="black" points="320.31,-208.61 320.85,-198.03 313.83,-205.96 320.31,-208.61"/>
</g>
</g>
</svg>
