<?xml version="1.0" encoding="UTF-8" standalone="no"?>
<!DOCTYPE svg PUBLIC "-//W3C//DTD SVG 1.1//EN"
 "http://www.w3.org/Graphics/SVG/1.1/DTD/svg11.dtd">
<!-- Generated by graphviz version 2.43.0 (0)
 -->
<!-- Title: Program_ Pages: 1 -->
<svg width="404pt" height="406pt"
 viewBox="0.00 0.00 403.91 405.67" xmlns="http://www.w3.org/2000/svg" xmlns:xlink="http://www.w3.org/1999/xlink">
<g id="graph0" class="graph" transform="scale(1 1) rotate(0) translate(4 401.67)">
<title>Program_</title>
<polygon fill="white" stroke="transparent" points="-4,4 -4,-401.67 399.91,-401.67 399.91,4 -4,4"/>
<g id="clust1" class="cluster">
<title>cluster_dfg_Block0</title>
<polygon fill="none" stroke="black" points="110.91,-8 110.91,-389.67 387.91,-389.67 387.91,-8 110.91,-8"/>
<text text-anchor="middle" x="249.41" y="-376.07" font-family="Monaco" font-size="12.00">Block0</text>
</g>
<!-- Jump0 -->
<g id="node1" class="node">
<title>Jump0</title>
<polygon fill="none" stroke="black" points="101.72,-357.67 0.09,-357.67 0.09,-353.67 -3.91,-353.67 -3.91,-349.67 0.09,-349.67 0.09,-329.67 -3.91,-329.67 -3.91,-325.67 0.09,-325.67 0.09,-321.67 101.72,-321.67 101.72,-357.67"/>
<polyline fill="none" stroke="black" points="0.09,-353.67 4.09,-353.67 4.09,-349.67 0.09,-349.67 "/>
<polyline fill="none" stroke="black" points="0.09,-329.67 4.09,-329.67 4.09,-325.67 0.09,-325.67 "/>
<text text-anchor="start" x="13.1" y="-342.87" font-family="Monaco" font-size="11.00">StartFun.0</text>
<text text-anchor="start" x="79.11" y="-342.87" font-family="Monaco" baseline-shift="super" font-size="8.00" fill="#ff4411">q?</text>
<text text-anchor="start" x="8" y="-331.87" font-family="Monaco" font-size="11.00">a,b,c,d,e,f,g</text>
</g>
<!-- Block0 -->
<g id="node2" class="node">
<title>Block0</title>
<polygon fill="none" stroke="black" points="78.51,-284.67 23.3,-284.67 23.3,-248.67 78.51,-248.67 78.51,-284.67"/>
<text text-anchor="middle" x="50.91" y="-265.2" font-family="Monaco" font-size="11.00">Block0</text>
</g>
<!-- Jump0&#45;&gt;Block0 -->
<g id="edge1" class="edge">
<title>Jump0&#45;&gt;Block0</title>
<path fill="none" stroke="black" d="M50.91,-321.48C50.91,-313.46 50.91,-303.72 50.91,-294.74"/>
<polygon fill="black" stroke="black" points="54.41,-294.7 50.91,-284.7 47.41,-294.7 54.41,-294.7"/>
</g>
<!-- Jump1 -->
<g id="node3" class="node">
<title>Jump1</title>
<polygon fill="none" stroke="black" points="90.32,-192 29.5,-192 29.5,-198 11.5,-180 29.5,-162 29.5,-168 72.32,-168 72.32,-162 90.32,-162 90.32,-192"/>
<text text-anchor="start" x="19.7" y="-179.53" font-family="Monaco" font-size="11.00">Return.1</text>
<text text-anchor="start" x="72.51" y="-179.53" font-family="Monaco" baseline-shift="super" font-size="8.00" fill="#ff4411">q?</text>
</g>
<!-- Block0&#45;&gt;Jump1 -->
<g id="edge2" class="edge">
<title>Block0&#45;&gt;Jump1</title>
<path fill="none" stroke="black" d="M50.91,-248.53C50.91,-236.94 50.91,-221.39 50.91,-208.13"/>
<polygon fill="black" stroke="black" points="54.41,-208.11 50.91,-198.11 47.41,-208.11 54.41,-208.11"/>
<text text-anchor="middle" x="57.51" y="-221.87" font-family="Monaco" font-size="11.00">@f</text>
</g>
<!-- ndBlock0_0 -->
<g id="node4" class="node">
<title>ndBlock0_0</title>
<ellipse fill="none" stroke="black" cx="318.91" cy="-339.67" rx="60.52" ry="18"/>
<text text-anchor="start" x="279.9" y="-339.2" font-family="Monaco" font-size="11.00">@b</text>
<text text-anchor="start" x="293.1" y="-339.2" font-family="Monaco" baseline-shift="super" font-size="8.00" fill="#00dd33">U10</text>
<text text-anchor="start" x="307.51" y="-339.2" font-family="Monaco" baseline-shift="super" font-size="8.00" fill="#3311ff">r?</text>
<text text-anchor="start" x="317.11" y="-339.2" font-family="Monaco" font-size="11.00">:f+</text>
<text text-anchor="start" x="336.91" y="-339.2" font-family="Monaco" baseline-shift="super" font-size="8.00" fill="#3311ff">?</text>
<text text-anchor="start" x="341.71" y="-339.2" font-family="Monaco" font-size="11.00">g</text>
<text text-anchor="start" x="348.31" y="-339.2" font-family="Monaco" baseline-shift="super" font-size="8.00" fill="#ff4411">q?</text>
</g>
<!-- ndBlock0_2 -->
<g id="node6" class="node">
<title>ndBlock0_2</title>
<ellipse fill="none" stroke="black" cx="248.91" cy="-266.67" rx="69.01" ry="18"/>
<text text-anchor="start" x="203.3" y="-266.2" font-family="Monaco" font-size="11.00">@c</text>
<text text-anchor="start" x="216.5" y="-266.2" font-family="Monaco" baseline-shift="super" font-size="8.00" fill="#00dd33">U10</text>
<text text-anchor="start" x="230.9" y="-266.2" font-family="Monaco" baseline-shift="super" font-size="8.00" fill="#3311ff">r?</text>
<text text-anchor="start" x="240.51" y="-266.2" font-family="Monaco" font-size="11.00">:@a+</text>
<text text-anchor="start" x="266.91" y="-266.2" font-family="Monaco" baseline-shift="super" font-size="8.00" fill="#3311ff">?</text>
<text text-anchor="start" x="271.71" y="-266.2" font-family="Monaco" font-size="11.00">@b</text>
<text text-anchor="start" x="284.91" y="-266.2" font-family="Monaco" baseline-shift="super" font-size="8.00" fill="#ff4411">q?</text>
</g>
<!-- ndBlock0_0&#45;&gt;ndBlock0_2 -->
<g id="edge5" class="edge">
<title>ndBlock0_0&#45;&gt;ndBlock0_2</title>
<path fill="none" stroke="black" d="M302.67,-322.2C293.79,-313.19 282.62,-301.86 272.76,-291.86"/>
<polygon fill="black" stroke="black" points="275.05,-289.2 265.54,-284.54 270.07,-294.12 275.05,-289.2"/>
</g>
<!-- ndBlock0_1 -->
<g id="node5" class="node">
<title>ndBlock0_1</title>
<ellipse fill="none" stroke="black" cx="248.91" cy="-107" rx="64.52" ry="18"/>
<text text-anchor="start" x="206.6" y="-106.53" font-family="Monaco" font-size="11.00">@e</text>
<text text-anchor="start" x="219.8" y="-106.53" font-family="Monaco" baseline-shift="super" font-size="8.00" fill="#00dd33">U10</text>
<text text-anchor="start" x="234.2" y="-106.53" font-family="Monaco" baseline-shift="super" font-size="8.00" fill="#3311ff">r?</text>
<text text-anchor="start" x="243.81" y="-106.53" font-family="Monaco" font-size="11.00">:b+</text>
<text text-anchor="start" x="263.61" y="-106.53" font-family="Monaco" baseline-shift="super" font-size="8.00" fill="#3311ff">?</text>
<text text-anchor="start" x="268.41" y="-106.53" font-family="Monaco" font-size="11.00">@d</text>
<text text-anchor="start" x="281.61" y="-106.53" font-family="Monaco" baseline-shift="super" font-size="8.00" fill="#ff4411">q?</text>
</g>
<!-- ndBlock0_4 -->
<g id="node8" class="node">
<title>ndBlock0_4</title>
<ellipse fill="none" stroke="black" cx="248.91" cy="-34" rx="64.52" ry="18"/>
<text text-anchor="start" x="206.6" y="-33.53" font-family="Monaco" font-size="11.00">@f</text>
<text text-anchor="start" x="219.8" y="-33.53" font-family="Monaco" baseline-shift="super" font-size="8.00" fill="#00dd33">U10</text>
<text text-anchor="start" x="234.2" y="-33.53" font-family="Monaco" baseline-shift="super" font-size="8.00" fill="#3311ff">r?</text>
<text text-anchor="start" x="243.81" y="-33.53" font-family="Monaco" font-size="11.00">:a+</text>
<text text-anchor="start" x="263.61" y="-33.53" font-family="Monaco" baseline-shift="super" font-size="8.00" fill="#3311ff">?</text>
<text text-anchor="start" x="268.41" y="-33.53" font-family="Monaco" font-size="11.00">@e</text>
<text text-anchor="start" x="281.61" y="-33.53" font-family="Monaco" baseline-shift="super" font-size="8.00" fill="#ff4411">q?</text>
</g>
<!-- ndBlock0_1&#45;&gt;ndBlock0_4 -->
<g id="edge7" class="edge">
<title>ndBlock0_1&#45;&gt;ndBlock0_4</title>
<path fill="none" stroke="black" d="M248.91,-88.81C248.91,-80.79 248.91,-71.05 248.91,-62.07"/>
<polygon fill="black" stroke="black" points="252.41,-62.03 248.91,-52.03 245.41,-62.03 252.41,-62.03"/>
</g>
<!-- ndBlock0_5 -->
<g id="node9" class="node">
<title>ndBlock0_5</title>
<ellipse fill="none" stroke="black" cx="248.91" cy="-180" rx="64.52" ry="18"/>
<text text-anchor="start" x="206.6" y="-179.53" font-family="Monaco" font-size="11.00">@d</text>
<text text-anchor="start" x="219.8" y="-179.53" font-family="Monaco" baseline-shift="super" font-size="8.00" fill="#00dd33">U10</text>
<text text-anchor="start" x="234.2" y="-179.53" font-family="Monaco" baseline-shift="super" font-size="8.00" fill="#3311ff">r?</text>
<text text-anchor="start" x="243.81" y="-179.53" font-family="Monaco" font-size="11.00">:c+</text>
<text text-anchor="start" x="263.61" y="-179.53" font-family="Monaco" baseline-shift="super" font-size="8.00" fill="#3311ff">?</text>
<text text-anchor="start" x="268.41" y="-179.53" font-family="Monaco" font-size="11.00">@c</text>
<text text-anchor="start" x="281.61" y="-179.53" font-family="Monaco" baseline-shift="super" font-size="8.00" fill="#ff4411">q?</text>
</g>
<!-- ndBlock0_2&#45;&gt;ndBlock0_5 -->
<g id="edge4" class="edge">
<title>ndBlock0_2&#45;&gt;ndBlock0_5</title>
<path fill="none" stroke="black" d="M248.91,-248.53C248.91,-236.94 248.91,-221.39 248.91,-208.13"/>
<polygon fill="black" stroke="black" points="252.41,-208.11 248.91,-198.11 245.41,-208.11 252.41,-208.11"/>
</g>
<!-- ndBlock0_3 -->
<g id="node7" class="node">
<title>ndBlock0_3</title>
<ellipse fill="none" stroke="black" cx="179.91" cy="-339.67" rx="60.52" ry="18"/>
<text text-anchor="start" x="140.9" y="-339.2" font-family="Monaco" font-size="11.00">@a</text>
<text text-anchor="start" x="154.1" y="-339.2" font-family="Monaco" baseline-shift="super" font-size="8.00" fill="#00dd33">U10</text>
<text text-anchor="start" x="168.51" y="-339.2" font-family="Monaco" baseline-shift="super" font-size="8.00" fill="#3311ff">r?</text>
<text text-anchor="start" x="178.11" y="-339.2" font-family="Monaco" font-size="11.00">:d+</text>
<text text-anchor="start" x="197.91" y="-339.2" font-family="Monaco" baseline-shift="super" font-size="8.00" fill="#3311ff">?</text>
<text text-anchor="start" x="202.71" y="-339.2" font-family="Monaco" font-size="11.00">e</text>
<text text-anchor="start" x="209.31" y="-339.2" font-family="Monaco" baseline-shift="super" font-size="8.00" fill="#ff4411">q?</text>
</g>
<!-- ndBlock0_3&#45;&gt;ndBlock0_2 -->
<g id="edge6" class="edge">
<title>ndBlock0_3&#45;&gt;ndBlock0_2</title>
<path fill="none" stroke="black" d="M195.91,-322.2C204.67,-313.19 215.68,-301.86 225.39,-291.86"/>
<polygon fill="black" stroke="black" points="228.05,-294.15 232.51,-284.54 223.03,-289.27 228.05,-294.15"/>
</g>
<!-- ndBlock0_5&#45;&gt;ndBlock0_1 -->
<g id="edge3" class="edge">
<title>ndBlock0_5&#45;&gt;ndBlock0_1</title>
<path fill="none" stroke="black" d="M248.91,-161.81C248.91,-153.79 248.91,-144.05 248.91,-135.07"/>
<polygon fill="black" stroke="black" points="252.41,-135.03 248.91,-125.03 245.41,-135.03 252.41,-135.03"/>
</g>
</g>
</svg>
