<?xml version="1.0" encoding="UTF-8" standalone="no"?>
<!DOCTYPE svg PUBLIC "-//W3C//DTD SVG 1.1//EN"
 "http://www.w3.org/Graphics/SVG/1.1/DTD/svg11.dtd">
<!-- Generated by graphviz version 2.43.0 (0)
 -->
<!-- Title: Program_ Pages: 1 -->
<svg width="489pt" height="552pt"
 viewBox="0.00 0.00 488.81 551.67" xmlns="http://www.w3.org/2000/svg" xmlns:xlink="http://www.w3.org/1999/xlink">
<g id="graph0" class="graph" transform="scale(1 1) rotate(0) translate(4 547.67)">
<title>Program_</title>
<polygon fill="white" stroke="transparent" points="-4,4 -4,-547.67 484.81,-547.67 484.81,4 -4,4"/>
<g id="clust1" class="cluster">
<title>cluster_dfg_Block0</title>
<polygon fill="none" stroke="black" points="101.81,-8 101.81,-535.67 472.81,-535.67 472.81,-8 101.81,-8"/>
<text text-anchor="middle" x="287.31" y="-522.07" font-family="Monaco" font-size="12.00">Block0</text>
</g>
<!-- Jump0 -->
<g id="node1" class="node">
<title>Jump0</title>
<polygon fill="none" stroke="black" points="91.42,-503.67 0.19,-503.67 0.19,-499.67 -3.81,-499.67 -3.81,-495.67 0.19,-495.67 0.19,-475.67 -3.81,-475.67 -3.81,-471.67 0.19,-471.67 0.19,-467.67 91.42,-467.67 91.42,-503.67"/>
<polyline fill="none" stroke="black" points="0.19,-499.67 4.19,-499.67 4.19,-495.67 0.19,-495.67 "/>
<polyline fill="none" stroke="black" points="0.19,-475.67 4.19,-475.67 4.19,-471.67 0.19,-471.67 "/>
<text text-anchor="start" x="8" y="-485.2" font-family="Monaco" font-size="11.00">StartFun.0</text>
<text text-anchor="start" x="74.01" y="-485.2" font-family="Monaco" baseline-shift="super" font-size="8.00" fill="#ff4411">q0</text>
</g>
<!-- Block0 -->
<g id="node2" class="node">
<title>Block0</title>
<polygon fill="none" stroke="black" points="73.41,-430.67 18.2,-430.67 18.2,-394.67 73.41,-394.67 73.41,-430.67"/>
<text text-anchor="middle" x="45.81" y="-411.2" font-family="Monaco" font-size="11.00">Block0</text>
</g>
<!-- Jump0&#45;&gt;Block0 -->
<g id="edge1" class="edge">
<title>Jump0&#45;&gt;Block0</title>
<path fill="none" stroke="black" d="M45.81,-467.48C45.81,-459.46 45.81,-449.72 45.81,-440.74"/>
<polygon fill="black" stroke="black" points="49.31,-440.7 45.81,-430.7 42.31,-440.7 49.31,-440.7"/>
</g>
<!-- Jump1 -->
<g id="node3" class="node">
<title>Jump1</title>
<polygon fill="none" stroke="black" points="85.22,-338 24.39,-338 24.39,-344 6.39,-326 24.39,-308 24.39,-314 67.22,-314 67.22,-308 85.22,-308 85.22,-338"/>
<text text-anchor="start" x="14.6" y="-325.53" font-family="Monaco" font-size="11.00">Return.1</text>
<text text-anchor="start" x="67.41" y="-325.53" font-family="Monaco" baseline-shift="super" font-size="8.00" fill="#ff4411">q6</text>
</g>
<!-- Block0&#45;&gt;Jump1 -->
<g id="edge2" class="edge">
<title>Block0&#45;&gt;Jump1</title>
<path fill="none" stroke="black" d="M45.81,-394.53C45.81,-382.94 45.81,-367.39 45.81,-354.13"/>
<polygon fill="black" stroke="black" points="49.31,-354.11 45.81,-344.11 42.31,-354.11 49.31,-354.11"/>
<text text-anchor="middle" x="52.41" y="-367.87" font-family="Monaco" font-size="11.00">@5</text>
</g>
<!-- ndBlock0_0 -->
<g id="node4" class="node">
<title>ndBlock0_0</title>
<ellipse fill="none" stroke="black" cx="426.81" cy="-485.67" rx="37.94" ry="18"/>
<text text-anchor="start" x="405.5" y="-485.2" font-family="Monaco" font-size="11.00">g: in</text>
<text text-anchor="start" x="438.51" y="-485.2" font-family="Monaco" baseline-shift="super" font-size="8.00" fill="#ff4411">q0</text>
</g>
<!-- ndBlock0_7 -->
<g id="node11" class="node">
<title>ndBlock0_7</title>
<ellipse fill="none" stroke="black" cx="336.81" cy="-412.67" rx="46.44" ry="18"/>
<text text-anchor="start" x="308.9" y="-412.2" font-family="Monaco" font-size="11.00">@1: f+g</text>
<text text-anchor="start" x="355.11" y="-412.2" font-family="Monaco" baseline-shift="super" font-size="8.00" fill="#ff4411">q1</text>
</g>
<!-- ndBlock0_0&#45;&gt;ndBlock0_7 -->
<g id="edge5" class="edge">
<title>ndBlock0_0&#45;&gt;ndBlock0_7</title>
<path fill="none" stroke="black" d="M408.16,-469.96C395.5,-459.97 378.56,-446.61 364.36,-435.4"/>
<polygon fill="black" stroke="black" points="366.38,-432.54 356.36,-429.1 362.05,-438.04 366.38,-432.54"/>
</g>
<!-- ndBlock0_1 -->
<g id="node5" class="node">
<title>ndBlock0_1</title>
<ellipse fill="none" stroke="black" cx="333.81" cy="-485.67" rx="37.94" ry="18"/>
<text text-anchor="start" x="312.5" y="-485.2" font-family="Monaco" font-size="11.00">f: in</text>
<text text-anchor="start" x="345.51" y="-485.2" font-family="Monaco" baseline-shift="super" font-size="8.00" fill="#ff4411">q0</text>
</g>
<!-- ndBlock0_1&#45;&gt;ndBlock0_7 -->
<g id="edge6" class="edge">
<title>ndBlock0_1&#45;&gt;ndBlock0_7</title>
<path fill="none" stroke="black" d="M334.53,-467.48C334.87,-459.46 335.28,-449.72 335.66,-440.74"/>
<polygon fill="black" stroke="black" points="339.16,-440.84 336.09,-430.7 332.17,-440.54 339.16,-440.84"/>
</g>
<!-- ndBlock0_2 -->
<g id="node6" class="node">
<title>ndBlock0_2</title>
<ellipse fill="none" stroke="black" cx="424.81" cy="-180" rx="37.94" ry="18"/>
<text text-anchor="start" x="403.5" y="-179.53" font-family="Monaco" font-size="11.00">a: in</text>
<text text-anchor="start" x="436.51" y="-179.53" font-family="Monaco" baseline-shift="super" font-size="8.00" fill="#ff4411">q0</text>
</g>
<!-- ndBlock0_4 -->
<g id="node8" class="node">
<title>ndBlock0_4</title>
<ellipse fill="none" stroke="black" cx="346.81" cy="-107" rx="50.43" ry="18"/>
<text text-anchor="start" x="315.6" y="-106.53" font-family="Monaco" font-size="11.00">@5: a+@4</text>
<text text-anchor="start" x="368.41" y="-106.53" font-family="Monaco" baseline-shift="super" font-size="8.00" fill="#ff4411">q5</text>
</g>
<!-- ndBlock0_2&#45;&gt;ndBlock0_4 -->
<g id="edge12" class="edge">
<title>ndBlock0_2&#45;&gt;ndBlock0_4</title>
<path fill="none" stroke="black" d="M407.88,-163.59C397.37,-154.03 383.67,-141.55 371.91,-130.85"/>
<polygon fill="black" stroke="black" points="374.26,-128.26 364.51,-124.12 369.55,-133.43 374.26,-128.26"/>
</g>
<!-- ndBlock0_3 -->
<g id="node7" class="node">
<title>ndBlock0_3</title>
<ellipse fill="none" stroke="black" cx="396.81" cy="-253" rx="37.94" ry="18"/>
<text text-anchor="start" x="375.5" y="-252.53" font-family="Monaco" font-size="11.00">b: in</text>
<text text-anchor="start" x="408.51" y="-252.53" font-family="Monaco" baseline-shift="super" font-size="8.00" fill="#ff4411">q0</text>
</g>
<!-- ndBlock0_10 -->
<g id="node14" class="node">
<title>ndBlock0_10</title>
<ellipse fill="none" stroke="black" cx="318.81" cy="-180" rx="50.43" ry="18"/>
<text text-anchor="start" x="287.6" y="-179.53" font-family="Monaco" font-size="11.00">@4: b+@3</text>
<text text-anchor="start" x="340.41" y="-179.53" font-family="Monaco" baseline-shift="super" font-size="8.00" fill="#ff4411">q4</text>
</g>
<!-- ndBlock0_3&#45;&gt;ndBlock0_10 -->
<g id="edge3" class="edge">
<title>ndBlock0_3&#45;&gt;ndBlock0_10</title>
<path fill="none" stroke="black" d="M379.88,-236.59C369.37,-227.03 355.67,-214.55 343.91,-203.85"/>
<polygon fill="black" stroke="black" points="346.26,-201.26 336.51,-197.12 341.55,-206.43 346.26,-201.26"/>
</g>
<!-- ndBlock0_9 -->
<g id="node13" class="node">
<title>ndBlock0_9</title>
<ellipse fill="none" stroke="black" cx="346.81" cy="-34" rx="29.45" ry="18"/>
<text text-anchor="start" x="332.1" y="-33.53" font-family="Monaco" font-size="11.00">out</text>
<text text-anchor="start" x="351.91" y="-33.53" font-family="Monaco" baseline-shift="super" font-size="8.00" fill="#ff4411">q6</text>
</g>
<!-- ndBlock0_4&#45;&gt;ndBlock0_9 -->
<g id="edge11" class="edge">
<title>ndBlock0_4&#45;&gt;ndBlock0_9</title>
<path fill="none" stroke="black" d="M346.81,-88.81C346.81,-80.79 346.81,-71.05 346.81,-62.07"/>
<polygon fill="black" stroke="black" points="350.31,-62.03 346.81,-52.03 343.31,-62.03 350.31,-62.03"/>
</g>
<!-- ndBlock0_5 -->
<g id="node9" class="node">
<title>ndBlock0_5</title>
<ellipse fill="none" stroke="black" cx="226.81" cy="-412.67" rx="46.44" ry="18"/>
<text text-anchor="start" x="198.9" y="-412.2" font-family="Monaco" font-size="11.00">@0: d+e</text>
<text text-anchor="start" x="245.11" y="-412.2" font-family="Monaco" baseline-shift="super" font-size="8.00" fill="#ff4411">q1</text>
</g>
<!-- ndBlock0_11 -->
<g id="node15" class="node">
<title>ndBlock0_11</title>
<ellipse fill="none" stroke="black" cx="241.81" cy="-326" rx="54.93" ry="18"/>
<text text-anchor="start" x="207.3" y="-325.53" font-family="Monaco" font-size="11.00">@2: @0+@1</text>
<text text-anchor="start" x="266.71" y="-325.53" font-family="Monaco" baseline-shift="super" font-size="8.00" fill="#ff4411">q2</text>
</g>
<!-- ndBlock0_5&#45;&gt;ndBlock0_11 -->
<g id="edge7" class="edge">
<title>ndBlock0_5&#45;&gt;ndBlock0_11</title>
<path fill="none" stroke="black" d="M229.84,-394.53C231.9,-382.94 234.65,-367.39 237,-354.13"/>
<polygon fill="black" stroke="black" points="240.48,-354.57 238.78,-344.11 233.58,-353.34 240.48,-354.57"/>
</g>
<!-- ndBlock0_6 -->
<g id="node10" class="node">
<title>ndBlock0_6</title>
<ellipse fill="none" stroke="black" cx="240.81" cy="-485.67" rx="37.94" ry="18"/>
<text text-anchor="start" x="219.5" y="-485.2" font-family="Monaco" font-size="11.00">d: in</text>
<text text-anchor="start" x="252.51" y="-485.2" font-family="Monaco" baseline-shift="super" font-size="8.00" fill="#ff4411">q0</text>
</g>
<!-- ndBlock0_6&#45;&gt;ndBlock0_5 -->
<g id="edge14" class="edge">
<title>ndBlock0_6&#45;&gt;ndBlock0_5</title>
<path fill="none" stroke="black" d="M237.42,-467.48C235.84,-459.46 233.91,-449.72 232.14,-440.74"/>
<polygon fill="black" stroke="black" points="235.53,-439.83 230.16,-430.7 228.66,-441.19 235.53,-439.83"/>
</g>
<!-- ndBlock0_7&#45;&gt;ndBlock0_11 -->
<g id="edge8" class="edge">
<title>ndBlock0_7&#45;&gt;ndBlock0_11</title>
<path fill="none" stroke="black" d="M318.94,-395.74C304.43,-382.82 283.79,-364.42 267.51,-349.91"/>
<polygon fill="black" stroke="black" points="269.71,-347.18 259.92,-343.14 265.05,-352.41 269.71,-347.18"/>
</g>
<!-- ndBlock0_8 -->
<g id="node12" class="node">
<title>ndBlock0_8</title>
<ellipse fill="none" stroke="black" cx="351.81" cy="-326" rx="37.94" ry="18"/>
<text text-anchor="start" x="330.5" y="-325.53" font-family="Monaco" font-size="11.00">c: in</text>
<text text-anchor="start" x="363.51" y="-325.53" font-family="Monaco" baseline-shift="super" font-size="8.00" fill="#ff4411">q0</text>
</g>
<!-- ndBlock0_13 -->
<g id="node17" class="node">
<title>ndBlock0_13</title>
<ellipse fill="none" stroke="black" cx="290.81" cy="-253" rx="50.43" ry="18"/>
<text text-anchor="start" x="259.6" y="-252.53" font-family="Monaco" font-size="11.00">@3: c+@2</text>
<text text-anchor="start" x="312.41" y="-252.53" font-family="Monaco" baseline-shift="super" font-size="8.00" fill="#ff4411">q3</text>
</g>
<!-- ndBlock0_8&#45;&gt;ndBlock0_13 -->
<g id="edge9" class="edge">
<title>ndBlock0_8&#45;&gt;ndBlock0_13</title>
<path fill="none" stroke="black" d="M337.96,-308.89C330.2,-299.85 320.35,-288.39 311.67,-278.28"/>
<polygon fill="black" stroke="black" points="314.19,-275.84 305.02,-270.54 308.88,-280.41 314.19,-275.84"/>
</g>
<!-- ndBlock0_10&#45;&gt;ndBlock0_4 -->
<g id="edge13" class="edge">
<title>ndBlock0_10&#45;&gt;ndBlock0_4</title>
<path fill="none" stroke="black" d="M325.58,-161.81C328.82,-153.62 332.76,-143.62 336.36,-134.48"/>
<polygon fill="black" stroke="black" points="339.68,-135.62 340.09,-125.03 333.17,-133.05 339.68,-135.62"/>
</g>
<!-- ndBlock0_11&#45;&gt;ndBlock0_13 -->
<g id="edge10" class="edge">
<title>ndBlock0_11&#45;&gt;ndBlock0_13</title>
<path fill="none" stroke="black" d="M253.42,-308.17C259.4,-299.51 266.81,-288.77 273.45,-279.14"/>
<polygon fill="black" stroke="black" points="276.48,-280.92 279.28,-270.71 270.72,-276.95 276.48,-280.92"/>
</g>
<!-- ndBlock0_12 -->
<g id="node16" class="node">
<title>ndBlock0_12</title>
<ellipse fill="none" stroke="black" cx="147.81" cy="-485.67" rx="37.94" ry="18"/>
<text text-anchor="start" x="126.5" y="-485.2" font-family="Monaco" font-size="11.00">e: in</text>
<text text-anchor="start" x="159.51" y="-485.2" font-family="Monaco" baseline-shift="super" font-size="8.00" fill="#ff4411">q0</text>
</g>
<!-- ndBlock0_12&#45;&gt;ndBlock0_5 -->
<g id="edge15" class="edge">
<title>ndBlock0_12&#45;&gt;ndBlock0_5</title>
<path fill="none" stroke="black" d="M164.95,-469.26C175.67,-459.63 189.67,-447.05 201.63,-436.29"/>
<polygon fill="black" stroke="black" points="204.05,-438.82 209.15,-429.54 199.37,-433.62 204.05,-438.82"/>
</g>
<!-- ndBlock0_13&#45;&gt;ndBlock0_10 -->
<g id="edge4" class="edge">
<title>ndBlock0_13&#45;&gt;ndBlock0_10</title>
<path fill="none" stroke="black" d="M297.58,-234.81C300.82,-226.62 304.76,-216.62 308.36,-207.48"/>
<polygon fill="black" stroke="black" points="311.68,-208.62 312.09,-198.03 305.17,-206.05 311.68,-208.62"/>
</g>
</g>
</svg>
