<?xml version="1.0" encoding="UTF-8" standalone="no"?>
<!DOCTYPE svg PUBLIC "-//W3C//DTD SVG 1.1//EN"
 "http://www.w3.org/Graphics/SVG/1.1/DTD/svg11.dtd">
<!-- Generated by graphviz version 2.43.0 (0)
 -->
<!-- Title: Program_ Pages: 1 -->
<svg width="916pt" height="615pt"
 viewBox="0.00 0.00 916.37 614.59" xmlns="http://www.w3.org/2000/svg" xmlns:xlink="http://www.w3.org/1999/xlink">
<g id="graph0" class="graph" transform="scale(1 1) rotate(0) translate(4 610.59)">
<title>Program_</title>
<polygon fill="white" stroke="transparent" points="-4,4 -4,-610.59 912.37,-610.59 912.37,4 -4,4"/>
<g id="clust1" class="cluster">
<title>cluster_dfg_Block0</title>
<polygon fill="none" stroke="black" points="127.37,-490.59 127.37,-598.59 407.37,-598.59 407.37,-490.59 127.37,-490.59"/>
<text text-anchor="start" x="245.77" y="-585.99" font-family="Monaco" font-size="12.00">Block0</text>
<text text-anchor="start" x="233.76" y="-573.99" font-family="Monaco" font-size="12.00">(k</text>
<text text-anchor="start" x="248.17" y="-573.99" font-family="Monaco" baseline-shift="super" font-size="8.00" fill="#00aa11">U2</text>
<text text-anchor="start" x="257.77" y="-573.99" font-family="Monaco" baseline-shift="super" font-size="8.00" fill="#3311ff">r1</text>
<text text-anchor="start" x="267.37" y="-573.99" font-family="Monaco" font-size="12.00">,i</text>
<text text-anchor="start" x="281.77" y="-573.99" font-family="Monaco" baseline-shift="super" font-size="8.00" fill="#00aa11">U1</text>
<text text-anchor="start" x="291.37" y="-573.99" font-family="Monaco" baseline-shift="super" font-size="8.00" fill="#3311ff">r0</text>
<text text-anchor="start" x="260.17" y="-561.99" font-family="Monaco" font-size="12.00">=&gt;</text>
<text text-anchor="start" x="192.96" y="-549.99" font-family="Monaco" font-size="12.00">@a</text>
<text text-anchor="start" x="207.36" y="-549.99" font-family="Monaco" baseline-shift="super" font-size="8.00" fill="#00aa11">U2</text>
<text text-anchor="start" x="216.96" y="-549.99" font-family="Monaco" baseline-shift="super" font-size="8.00" fill="#3311ff">r2</text>
<text text-anchor="start" x="226.56" y="-549.99" font-family="Monaco" font-size="12.00">,i</text>
<text text-anchor="start" x="240.97" y="-549.99" font-family="Monaco" baseline-shift="super" font-size="8.00" fill="#00aa11">U1</text>
<text text-anchor="start" x="250.57" y="-549.99" font-family="Monaco" baseline-shift="super" font-size="8.00" fill="#3311ff">r0</text>
<text text-anchor="start" x="260.17" y="-549.99" font-family="Monaco" font-size="12.00">,k</text>
<text text-anchor="start" x="274.57" y="-549.99" font-family="Monaco" baseline-shift="super" font-size="8.00" fill="#00aa11">U2</text>
<text text-anchor="start" x="284.17" y="-549.99" font-family="Monaco" baseline-shift="super" font-size="8.00" fill="#3311ff">r1</text>
<text text-anchor="start" x="293.77" y="-549.99" font-family="Monaco" font-size="12.00">,@c</text>
<text text-anchor="start" x="315.38" y="-549.99" font-family="Monaco" baseline-shift="super" font-size="8.00" fill="#00aa11">U1</text>
<text text-anchor="start" x="324.98" y="-549.99" font-family="Monaco" baseline-shift="super" font-size="8.00" fill="#3311ff">r3</text>
<text text-anchor="start" x="334.58" y="-549.99" font-family="Monaco" font-size="12.00">)</text>
</g>
<g id="clust2" class="cluster">
<title>cluster_dfg_Block1</title>
<polygon fill="none" stroke="black" points="415.37,-417.59 415.37,-598.59 624.37,-598.59 624.37,-417.59 415.37,-417.59"/>
<text text-anchor="start" x="498.27" y="-585.99" font-family="Monaco" font-size="12.00">Block1</text>
<text text-anchor="start" x="482.66" y="-573.99" font-family="Monaco" font-size="12.00">(@a</text>
<text text-anchor="start" x="504.27" y="-573.99" font-family="Monaco" baseline-shift="super" font-size="8.00" fill="#00aa11">U2</text>
<text text-anchor="start" x="513.87" y="-573.99" font-family="Monaco" baseline-shift="super" font-size="8.00" fill="#3311ff">r2</text>
<text text-anchor="start" x="523.47" y="-573.99" font-family="Monaco" font-size="12.00">,i</text>
<text text-anchor="start" x="537.87" y="-573.99" font-family="Monaco" baseline-shift="super" font-size="8.00" fill="#00aa11">U1</text>
<text text-anchor="start" x="547.47" y="-573.99" font-family="Monaco" baseline-shift="super" font-size="8.00" fill="#3311ff">r0</text>
<text text-anchor="start" x="512.67" y="-561.99" font-family="Monaco" font-size="12.00">=&gt;</text>
<text text-anchor="start" x="482.66" y="-549.99" font-family="Monaco" font-size="12.00">@a</text>
<text text-anchor="start" x="497.07" y="-549.99" font-family="Monaco" baseline-shift="super" font-size="8.00" fill="#00aa11">U2</text>
<text text-anchor="start" x="506.67" y="-549.99" font-family="Monaco" baseline-shift="super" font-size="8.00" fill="#3311ff">r2</text>
<text text-anchor="start" x="516.27" y="-549.99" font-family="Monaco" font-size="12.00">,b</text>
<text text-anchor="start" x="530.67" y="-549.99" font-family="Monaco" baseline-shift="super" font-size="8.00" fill="#00aa11">U2</text>
<text text-anchor="start" x="540.27" y="-549.99" font-family="Monaco" baseline-shift="super" font-size="8.00" fill="#3311ff">r0</text>
<text text-anchor="start" x="549.88" y="-549.99" font-family="Monaco" font-size="12.00">)</text>
</g>
<g id="clust3" class="cluster">
<title>cluster_dfg_Block2</title>
<polygon fill="none" stroke="black" points="632.37,-490.59 632.37,-598.59 722.37,-598.59 722.37,-490.59 632.37,-490.59"/>
<text text-anchor="start" x="655.77" y="-585.99" font-family="Monaco" font-size="12.00">Block2</text>
<text text-anchor="start" x="640.16" y="-573.99" font-family="Monaco" font-size="12.00">(@a</text>
<text text-anchor="start" x="661.77" y="-573.99" font-family="Monaco" baseline-shift="super" font-size="8.00" fill="#00aa11">U2</text>
<text text-anchor="start" x="671.37" y="-573.99" font-family="Monaco" baseline-shift="super" font-size="8.00" fill="#3311ff">r2</text>
<text text-anchor="start" x="680.97" y="-573.99" font-family="Monaco" font-size="12.00">,k</text>
<text text-anchor="start" x="695.37" y="-573.99" font-family="Monaco" baseline-shift="super" font-size="8.00" fill="#00aa11">U2</text>
<text text-anchor="start" x="704.97" y="-573.99" font-family="Monaco" baseline-shift="super" font-size="8.00" fill="#3311ff">r1</text>
<text text-anchor="start" x="670.17" y="-561.99" font-family="Monaco" font-size="12.00">=&gt;</text>
<text text-anchor="start" x="640.16" y="-549.99" font-family="Monaco" font-size="12.00">@a</text>
<text text-anchor="start" x="654.57" y="-549.99" font-family="Monaco" baseline-shift="super" font-size="8.00" fill="#00aa11">U2</text>
<text text-anchor="start" x="664.17" y="-549.99" font-family="Monaco" baseline-shift="super" font-size="8.00" fill="#3311ff">r2</text>
<text text-anchor="start" x="673.77" y="-549.99" font-family="Monaco" font-size="12.00">,k</text>
<text text-anchor="start" x="688.17" y="-549.99" font-family="Monaco" baseline-shift="super" font-size="8.00" fill="#00aa11">U2</text>
<text text-anchor="start" x="697.77" y="-549.99" font-family="Monaco" baseline-shift="super" font-size="8.00" fill="#3311ff">r1</text>
<text text-anchor="start" x="707.38" y="-549.99" font-family="Monaco" font-size="12.00">)</text>
</g>
<g id="clust4" class="cluster">
<title>cluster_dfg_Block3</title>
<polygon fill="none" stroke="black" points="730.37,-490.59 730.37,-598.59 900.37,-598.59 900.37,-490.59 730.37,-490.59"/>
<text text-anchor="start" x="793.77" y="-585.99" font-family="Monaco" font-size="12.00">Block3</text>
<text text-anchor="start" x="774.56" y="-573.99" font-family="Monaco" font-size="12.00">(@a</text>
<text text-anchor="start" x="796.17" y="-573.99" font-family="Monaco" baseline-shift="super" font-size="8.00" fill="#00aa11">U2</text>
<text text-anchor="start" x="805.77" y="-573.99" font-family="Monaco" baseline-shift="super" font-size="8.00" fill="#3311ff">r2</text>
<text text-anchor="start" x="815.37" y="-573.99" font-family="Monaco" font-size="12.00">,@e</text>
<text text-anchor="start" x="836.97" y="-573.99" font-family="Monaco" baseline-shift="super" font-size="8.00" fill="#00aa11">U2</text>
<text text-anchor="start" x="846.58" y="-573.99" font-family="Monaco" baseline-shift="super" font-size="8.00" fill="#3311ff">r0</text>
<text text-anchor="start" x="808.17" y="-561.99" font-family="Monaco" font-size="12.00">=&gt;</text>
<text text-anchor="start" x="794.97" y="-549.99" font-family="Monaco" font-size="12.00">@f</text>
<text text-anchor="start" x="809.37" y="-549.99" font-family="Monaco" baseline-shift="super" font-size="8.00" fill="#00aa11">U2</text>
<text text-anchor="start" x="818.97" y="-549.99" font-family="Monaco" baseline-shift="super" font-size="8.00" fill="#3311ff">r0</text>
<text text-anchor="start" x="828.57" y="-549.99" font-family="Monaco" font-size="12.00">)</text>
</g>
<!-- Jump0 -->
<g id="node1" class="node">
<title>Jump0</title>
<polygon fill="none" stroke="black" points="116.98,-534.59 25.76,-534.59 25.76,-530.59 21.76,-530.59 21.76,-526.59 25.76,-526.59 25.76,-506.59 21.76,-506.59 21.76,-502.59 25.76,-502.59 25.76,-498.59 116.98,-498.59 116.98,-534.59"/>
<polyline fill="none" stroke="black" points="25.76,-530.59 29.76,-530.59 29.76,-526.59 25.76,-526.59 "/>
<polyline fill="none" stroke="black" points="25.76,-506.59 29.76,-506.59 29.76,-502.59 25.76,-502.59 "/>
<text text-anchor="start" x="33.56" y="-519.79" font-family="Monaco" baseline-shift="super" font-size="8.00" fill="#ff4411">q0</text>
<text text-anchor="start" x="43.17" y="-519.79" font-family="Monaco" font-size="11.00">StartFun.0</text>
<text text-anchor="start" x="58.47" y="-508.79" font-family="Monaco" font-size="11.00">i</text>
<text text-anchor="start" x="65.07" y="-508.79" font-family="Monaco" baseline-shift="super" font-size="8.00" fill="#00aa11">U1</text>
<text text-anchor="start" x="74.67" y="-508.79" font-family="Monaco" baseline-shift="super" font-size="8.00" fill="#3311ff">r0</text>
</g>
<!-- Block0 -->
<g id="node2" class="node">
<title>Block0</title>
<polygon fill="none" stroke="black" points="98.98,-461.59 43.76,-461.59 43.76,-425.59 98.98,-425.59 98.98,-461.59"/>
<text text-anchor="middle" x="71.37" y="-442.13" font-family="Monaco" font-size="11.00">Block0</text>
</g>
<!-- Jump0&#45;&gt;Block0 -->
<g id="edge1" class="edge">
<title>Jump0&#45;&gt;Block0</title>
<path fill="none" stroke="black" d="M71.37,-498.41C71.37,-490.38 71.37,-480.64 71.37,-471.66"/>
<polygon fill="black" stroke="black" points="74.87,-471.62 71.37,-461.62 67.87,-471.62 74.87,-471.62"/>
</g>
<!-- Jump1 -->
<g id="node3" class="node">
<title>Jump1</title>
<path fill="none" stroke="black" d="M100.98,-388.59C100.98,-388.59 41.76,-388.59 41.76,-388.59 35.76,-388.59 25.95,-383.96 22.14,-379.33 22.14,-379.33 7.76,-361.86 7.76,-361.86 3.94,-357.22 6.13,-352.59 12.13,-352.59 12.13,-352.59 130.61,-352.59 130.61,-352.59 136.61,-352.59 138.8,-357.22 134.98,-361.86 134.98,-361.86 120.6,-379.33 120.6,-379.33 116.79,-383.96 106.98,-388.59 100.98,-388.59"/>
<text text-anchor="start" x="40.17" y="-370.13" font-family="Monaco" baseline-shift="super" font-size="8.00" fill="#ff4411">q1</text>
<text text-anchor="start" x="49.77" y="-370.13" font-family="Monaco" font-size="11.00">Branch.1</text>
</g>
<!-- Block0&#45;&gt;Jump1 -->
<g id="edge2" class="edge">
<title>Block0&#45;&gt;Jump1</title>
<path fill="none" stroke="black" d="M71.37,-425.41C71.37,-417.38 71.37,-407.64 71.37,-398.66"/>
<polygon fill="black" stroke="black" points="74.87,-398.62 71.37,-388.62 67.87,-398.62 74.87,-398.62"/>
</g>
<!-- Block1 -->
<g id="node4" class="node">
<title>Block1</title>
<polygon fill="none" stroke="black" points="61.98,-298.96 6.76,-298.96 6.76,-262.96 61.98,-262.96 61.98,-298.96"/>
<text text-anchor="middle" x="34.37" y="-279.5" font-family="Monaco" font-size="11.00">Block1</text>
</g>
<!-- Jump1&#45;&gt;Block1 -->
<g id="edge3" class="edge">
<title>Jump1&#45;&gt;Block1</title>
<path fill="none" stroke="black" d="M64.06,-352.28C58.79,-339.8 51.58,-322.72 45.58,-308.52"/>
<polygon fill="black" stroke="black" points="48.78,-307.09 41.67,-299.24 42.33,-309.81 48.78,-307.09"/>
<text text-anchor="start" x="56.37" y="-325.79" font-family="Monaco" font-size="11.00">@c</text>
</g>
<!-- Block2 -->
<g id="node5" class="node">
<title>Block2</title>
<polygon fill="none" stroke="black" points="135.98,-301.88 80.76,-301.88 80.76,-260.05 135.98,-260.05 135.98,-301.88"/>
<text text-anchor="start" x="88.57" y="-289.12" font-family="Monaco" font-size="11.00">Block2</text>
<text text-anchor="middle" x="108.37" y="-274.46" font-family="Monaco" font-size="11.00">(0行)</text>
</g>
<!-- Jump1&#45;&gt;Block2 -->
<g id="edge4" class="edge">
<title>Jump1&#45;&gt;Block2</title>
<path fill="none" stroke="black" d="M78.68,-352.28C83.59,-340.64 90.2,-325 95.93,-311.43"/>
<polygon fill="black" stroke="black" points="99.24,-312.58 99.91,-302 92.8,-309.85 99.24,-312.58"/>
<text text-anchor="start" x="92.37" y="-325.79" font-family="Monaco" font-size="11.00">!@c</text>
</g>
<!-- Jump2 -->
<g id="node6" class="node">
<title>Jump2</title>
<path fill="none" stroke="black" d="M45.28,-173.34C45.28,-173.34 97.46,-173.34 97.46,-173.34 103.46,-173.34 113.07,-178.13 116.68,-182.92 116.68,-182.92 129.37,-199.75 129.37,-199.75 132.98,-204.55 130.59,-209.34 124.59,-209.34 124.59,-209.34 18.15,-209.34 18.15,-209.34 12.15,-209.34 9.76,-204.55 13.37,-199.75 13.37,-199.75 26.06,-182.92 26.06,-182.92 29.67,-178.13 39.28,-173.34 45.28,-173.34"/>
<text text-anchor="start" x="43.47" y="-190.87" font-family="Monaco" baseline-shift="super" font-size="8.00" fill="#ff4411">q3</text>
<text text-anchor="start" x="53.07" y="-190.87" font-family="Monaco" font-size="11.00">Merge.2</text>
</g>
<!-- Block1&#45;&gt;Jump2 -->
<g id="edge5" class="edge">
<title>Block1&#45;&gt;Jump2</title>
<path fill="none" stroke="black" d="M41.68,-262.65C46.95,-250.17 54.16,-233.09 60.16,-218.89"/>
<polygon fill="black" stroke="black" points="63.41,-220.19 64.08,-209.61 56.96,-217.46 63.41,-220.19"/>
<text text-anchor="start" x="56.37" y="-233.21" font-family="Monaco" font-size="11.00">b</text>
</g>
<!-- Block2&#45;&gt;Jump2 -->
<g id="edge6" class="edge">
<title>Block2&#45;&gt;Jump2</title>
<path fill="none" stroke="black" d="M99.79,-259.64C94.69,-247.55 88.15,-232.08 82.64,-219.02"/>
<polygon fill="black" stroke="black" points="85.77,-217.45 78.66,-209.6 79.32,-220.17 85.77,-217.45"/>
<text text-anchor="start" x="92.37" y="-233.21" font-family="Monaco" font-size="11.00">k</text>
</g>
<!-- Block3 -->
<g id="node7" class="node">
<title>Block3</title>
<polygon fill="none" stroke="black" points="98.98,-122.67 43.76,-122.67 43.76,-86.67 98.98,-86.67 98.98,-122.67"/>
<text text-anchor="middle" x="71.37" y="-103.2" font-family="Monaco" font-size="11.00">Block3</text>
</g>
<!-- Jump2&#45;&gt;Block3 -->
<g id="edge7" class="edge">
<title>Jump2&#45;&gt;Block3</title>
<path fill="none" stroke="black" d="M71.37,-173.2C71.37,-161.61 71.37,-146.06 71.37,-132.8"/>
<polygon fill="black" stroke="black" points="74.87,-132.78 71.37,-122.78 67.87,-132.78 74.87,-132.78"/>
<text text-anchor="start" x="71.37" y="-146.54" font-family="Monaco" font-size="11.00">@e</text>
</g>
<!-- Jump3 -->
<g id="node8" class="node">
<title>Jump3</title>
<polygon fill="none" stroke="black" points="110.78,-30 49.96,-30 49.96,-36 31.96,-18 49.96,0 49.96,-6 92.78,-6 92.78,0 110.78,0 110.78,-30"/>
<text text-anchor="start" x="40.17" y="-17.53" font-family="Monaco" baseline-shift="super" font-size="8.00" fill="#ff4411">q5</text>
<text text-anchor="start" x="49.77" y="-17.53" font-family="Monaco" font-size="11.00">Return.3</text>
</g>
<!-- Block3&#45;&gt;Jump3 -->
<g id="edge8" class="edge">
<title>Block3&#45;&gt;Jump3</title>
<path fill="none" stroke="black" d="M71.37,-86.53C71.37,-74.94 71.37,-59.39 71.37,-46.13"/>
<polygon fill="black" stroke="black" points="74.87,-46.11 71.37,-36.11 67.87,-46.11 74.87,-46.11"/>
<text text-anchor="start" x="71.37" y="-59.87" font-family="Monaco" font-size="11.00">@f</text>
</g>
<!-- 0 -->
<g id="node9" class="node">
<title>0</title>
<ellipse fill="none" stroke="black" cx="353.37" cy="-516.59" rx="45.66" ry="18"/>
<text text-anchor="start" x="325.77" y="-516.13" font-family="Monaco" baseline-shift="super" font-size="8.00" fill="#ff4411">q1</text>
<text text-anchor="start" x="335.37" y="-516.13" font-family="Monaco" font-size="11.00">@a</text>
<text text-anchor="start" x="348.57" y="-516.13" font-family="Monaco" baseline-shift="super" font-size="8.00" fill="#00aa11">U2</text>
<text text-anchor="start" x="358.17" y="-516.13" font-family="Monaco" baseline-shift="super" font-size="8.00" fill="#3311ff">r2</text>
<text text-anchor="start" x="367.77" y="-516.13" font-family="Monaco" font-size="11.00">:1</text>
</g>
<!-- 2 -->
<g id="node10" class="node">
<title>2</title>
<ellipse fill="none" stroke="black" cx="212.37" cy="-516.59" rx="77.23" ry="18"/>
<text text-anchor="start" x="160.46" y="-516.13" font-family="Monaco" baseline-shift="super" font-size="8.00" fill="#ff4411">q1</text>
<text text-anchor="start" x="170.06" y="-516.13" font-family="Monaco" font-size="11.00">@c</text>
<text text-anchor="start" x="183.27" y="-516.13" font-family="Monaco" baseline-shift="super" font-size="8.00" fill="#00aa11">U1</text>
<text text-anchor="start" x="192.87" y="-516.13" font-family="Monaco" baseline-shift="super" font-size="8.00" fill="#3311ff">r3</text>
<text text-anchor="start" x="202.47" y="-516.13" font-family="Monaco" font-size="11.00">:i==</text>
<text text-anchor="start" x="228.87" y="-516.13" font-family="Monaco" baseline-shift="super" font-size="8.00" fill="#3311ff">Bin0</text>
<text text-anchor="start" x="248.08" y="-516.13" font-family="Monaco" font-size="11.00">0</text>
<text text-anchor="start" x="254.68" y="-516.13" font-family="Monaco" baseline-shift="super" font-size="8.00" fill="#00aa11">U1</text>
</g>
<!-- 3 -->
<g id="node11" class="node">
<title>3</title>
<ellipse fill="none" stroke="black" cx="574.37" cy="-516.59" rx="41.67" ry="18"/>
<text text-anchor="start" x="550.07" y="-516.13" font-family="Monaco" baseline-shift="super" font-size="8.00" fill="#ff4411">q2</text>
<text text-anchor="start" x="559.67" y="-516.13" font-family="Monaco" font-size="11.00">b</text>
<text text-anchor="start" x="566.27" y="-516.13" font-family="Monaco" baseline-shift="super" font-size="8.00" fill="#00aa11">U2</text>
<text text-anchor="start" x="575.87" y="-516.13" font-family="Monaco" baseline-shift="super" font-size="8.00" fill="#3311ff">r0</text>
<text text-anchor="start" x="585.47" y="-516.13" font-family="Monaco" font-size="11.00">:2</text>
</g>
<!-- 4 -->
<g id="node12" class="node">
<title>4</title>
<ellipse fill="none" stroke="black" cx="469.37" cy="-516.59" rx="45.66" ry="18"/>
<text text-anchor="start" x="441.77" y="-516.13" font-family="Monaco" baseline-shift="super" font-size="8.00" fill="#ff4411">q2</text>
<text text-anchor="start" x="451.37" y="-516.13" font-family="Monaco" font-size="11.00">@d</text>
<text text-anchor="start" x="464.57" y="-516.13" font-family="Monaco" baseline-shift="super" font-size="8.00" fill="#00aa11">U1</text>
<text text-anchor="start" x="474.17" y="-516.13" font-family="Monaco" baseline-shift="super" font-size="8.00" fill="#3311ff">r0</text>
<text text-anchor="start" x="483.77" y="-516.13" font-family="Monaco" font-size="11.00">:0</text>
</g>
<!-- 5 -->
<g id="node13" class="node">
<title>5</title>
<ellipse fill="none" stroke="black" cx="469.37" cy="-443.59" rx="46.44" ry="18"/>
<text text-anchor="start" x="441.47" y="-443.13" font-family="Monaco" baseline-shift="super" font-size="8.00" fill="#ff4411">q3</text>
<text text-anchor="start" x="451.07" y="-443.13" font-family="Monaco" font-size="11.00">a[@d]=i</text>
</g>
<!-- 4&#45;&gt;5 -->
<g id="edge9" class="edge">
<title>4&#45;&gt;5</title>
<path fill="none" stroke="black" d="M469.37,-498.41C469.37,-490.38 469.37,-480.64 469.37,-471.66"/>
<polygon fill="black" stroke="black" points="472.87,-471.62 469.37,-461.62 465.87,-471.62 472.87,-471.62"/>
</g>
<!-- dummy -->
<!-- 6 -->
<g id="node15" class="node">
<title>6</title>
<ellipse fill="none" stroke="black" cx="815.37" cy="-516.59" rx="77.23" ry="18"/>
<text text-anchor="start" x="763.46" y="-516.13" font-family="Monaco" baseline-shift="super" font-size="8.00" fill="#ff4411">q4</text>
<text text-anchor="start" x="773.06" y="-516.13" font-family="Monaco" font-size="11.00">@f</text>
<text text-anchor="start" x="786.27" y="-516.13" font-family="Monaco" baseline-shift="super" font-size="8.00" fill="#00aa11">U2</text>
<text text-anchor="start" x="795.87" y="-516.13" font-family="Monaco" baseline-shift="super" font-size="8.00" fill="#3311ff">r0</text>
<text text-anchor="start" x="805.47" y="-516.13" font-family="Monaco" font-size="11.00">:1</text>
<text text-anchor="start" x="818.67" y="-516.13" font-family="Monaco" baseline-shift="super" font-size="8.00" fill="#00aa11">U2</text>
<text text-anchor="start" x="828.27" y="-516.13" font-family="Monaco" font-size="11.00">+</text>
<text text-anchor="start" x="834.87" y="-516.13" font-family="Monaco" baseline-shift="super" font-size="8.00" fill="#3311ff">Bin1</text>
<text text-anchor="start" x="854.08" y="-516.13" font-family="Monaco" font-size="11.00">@e</text>
</g>
</g>
</svg>
