<?xml version="1.0" encoding="UTF-8" standalone="no"?>
<!DOCTYPE svg PUBLIC "-//W3C//DTD SVG 1.1//EN"
 "http://www.w3.org/Graphics/SVG/1.1/DTD/svg11.dtd">
<!-- Generated by graphviz version 2.43.0 (0)
 -->
<!-- Title: Program_ Pages: 1 -->
<svg width="1509pt" height="577pt"
 viewBox="0.00 0.00 1509.47 576.68" xmlns="http://www.w3.org/2000/svg" xmlns:xlink="http://www.w3.org/1999/xlink">
<g id="graph0" class="graph" transform="scale(1 1) rotate(0) translate(4 572.68)">
<title>Program_</title>
<polygon fill="white" stroke="transparent" points="-4,4 -4,-572.68 1505.47,-572.68 1505.47,4 -4,4"/>
<g id="clust1" class="cluster">
<title>cluster_dfg_Block0</title>
<polygon fill="none" stroke="black" points="157.47,-338.67 157.47,-560.68 535.47,-560.68 535.47,-338.67 157.47,-338.67"/>
<text text-anchor="middle" x="346.47" y="-547.08" font-family="Monaco" font-size="12.00">Block0</text>
</g>
<g id="clust2" class="cluster">
<title>cluster_dfg_Block1</title>
<polygon fill="none" stroke="black" points="543.47,-411.67 543.47,-560.68 980.47,-560.68 980.47,-411.67 543.47,-411.67"/>
<text text-anchor="middle" x="761.97" y="-547.08" font-family="Monaco" font-size="12.00">Block1</text>
</g>
<g id="clust3" class="cluster">
<title>cluster_dfg_Block2</title>
<polygon fill="none" stroke="black" points="988.47,-411.67 988.47,-560.68 1214.47,-560.68 1214.47,-411.67 988.47,-411.67"/>
<text text-anchor="middle" x="1101.47" y="-547.08" font-family="Monaco" font-size="12.00">Block2</text>
</g>
<g id="clust4" class="cluster">
<title>cluster_dfg_Block3</title>
<polygon fill="none" stroke="black" points="1222.47,-338.67 1222.47,-560.68 1493.47,-560.68 1493.47,-338.67 1222.47,-338.67"/>
<text text-anchor="middle" x="1357.97" y="-547.08" font-family="Monaco" font-size="12.00">Block3</text>
</g>
<!-- Jump0 -->
<g id="node1" class="node">
<title>Jump0</title>
<polygon fill="none" stroke="black" points="124.08,-528.67 32.86,-528.67 32.86,-524.67 28.86,-524.67 28.86,-520.67 32.86,-520.67 32.86,-500.67 28.86,-500.67 28.86,-496.67 32.86,-496.67 32.86,-492.67 124.08,-492.67 124.08,-528.67"/>
<polyline fill="none" stroke="black" points="32.86,-524.67 36.86,-524.67 36.86,-520.67 32.86,-520.67 "/>
<polyline fill="none" stroke="black" points="32.86,-500.67 36.86,-500.67 36.86,-496.67 32.86,-496.67 "/>
<text text-anchor="start" x="40.66" y="-513.87" font-family="Monaco" font-size="11.00">StartFun.0</text>
<text text-anchor="start" x="106.68" y="-513.87" font-family="Monaco" baseline-shift="super" font-size="8.00" fill="#ff4411">q0</text>
<text text-anchor="start" x="65.57" y="-502.87" font-family="Monaco" font-size="11.00">i</text>
<text text-anchor="start" x="72.17" y="-502.87" font-family="Monaco" baseline-shift="super" font-size="8.00" fill="#00aa11">U1</text>
<text text-anchor="start" x="81.77" y="-502.87" font-family="Monaco" baseline-shift="super" font-size="8.00" fill="#3311ff">r0</text>
</g>
<!-- Block0 -->
<g id="node2" class="node">
<title>Block0</title>
<polygon fill="none" stroke="black" points="106.08,-455.67 50.86,-455.67 50.86,-419.67 106.08,-419.67 106.08,-455.67"/>
<text text-anchor="middle" x="78.47" y="-436.21" font-family="Monaco" font-size="11.00">Block0</text>
</g>
<!-- Jump0&#45;&gt;Block0 -->
<g id="edge1" class="edge">
<title>Jump0&#45;&gt;Block0</title>
<path fill="none" stroke="black" d="M78.47,-492.49C78.47,-484.46 78.47,-474.72 78.47,-465.74"/>
<polygon fill="black" stroke="black" points="81.97,-465.7 78.47,-455.7 74.97,-465.7 81.97,-465.7"/>
</g>
<!-- Jump1 -->
<g id="node3" class="node">
<title>Jump1</title>
<path fill="none" stroke="black" d="M108.08,-382.67C108.08,-382.67 48.87,-382.67 48.87,-382.67 42.87,-382.67 33.05,-378.04 29.24,-373.41 29.24,-373.41 14.86,-355.94 14.86,-355.94 11.04,-351.31 13.23,-346.67 19.23,-346.67 19.23,-346.67 137.71,-346.67 137.71,-346.67 143.71,-346.67 145.9,-351.31 142.09,-355.94 142.09,-355.94 127.7,-373.41 127.7,-373.41 123.89,-378.04 114.08,-382.67 108.08,-382.67"/>
<text text-anchor="start" x="47.27" y="-364.21" font-family="Monaco" font-size="11.00">Branch.1</text>
<text text-anchor="start" x="100.07" y="-364.21" font-family="Monaco" baseline-shift="super" font-size="8.00" fill="#ff4411">q2</text>
</g>
<!-- Block0&#45;&gt;Jump1 -->
<g id="edge2" class="edge">
<title>Block0&#45;&gt;Jump1</title>
<path fill="none" stroke="black" d="M78.47,-419.49C78.47,-411.46 78.47,-401.72 78.47,-392.74"/>
<polygon fill="black" stroke="black" points="81.97,-392.7 78.47,-382.7 74.97,-392.7 81.97,-392.7"/>
</g>
<!-- Block1 -->
<g id="node4" class="node">
<title>Block1</title>
<polygon fill="none" stroke="black" points="69.08,-296.01 13.86,-296.01 13.86,-260.01 69.08,-260.01 69.08,-296.01"/>
<text text-anchor="middle" x="41.47" y="-276.54" font-family="Monaco" font-size="11.00">Block1</text>
</g>
<!-- Jump1&#45;&gt;Block1 -->
<g id="edge3" class="edge">
<title>Jump1&#45;&gt;Block1</title>
<path fill="none" stroke="black" d="M70.98,-346.54C65.82,-334.72 58.85,-318.78 52.98,-305.35"/>
<polygon fill="black" stroke="black" points="56.16,-303.88 48.95,-296.11 49.74,-306.68 56.16,-303.88"/>
<text text-anchor="middle" x="69.07" y="-319.87" font-family="Monaco" font-size="11.00">@c</text>
</g>
<!-- Block2 -->
<g id="node5" class="node">
<title>Block2</title>
<polygon fill="none" stroke="black" points="143.08,-296.01 87.86,-296.01 87.86,-260.01 143.08,-260.01 143.08,-296.01"/>
<text text-anchor="middle" x="115.47" y="-276.54" font-family="Monaco" font-size="11.00">Block2</text>
</g>
<!-- Jump1&#45;&gt;Block2 -->
<g id="edge4" class="edge">
<title>Jump1&#45;&gt;Block2</title>
<path fill="none" stroke="black" d="M85.96,-346.54C91.12,-334.72 98.09,-318.78 103.96,-305.35"/>
<polygon fill="black" stroke="black" points="107.2,-306.68 107.99,-296.11 100.78,-303.88 107.2,-306.68"/>
<text text-anchor="middle" x="109.37" y="-319.87" font-family="Monaco" font-size="11.00">!@c</text>
</g>
<!-- Jump2 -->
<g id="node6" class="node">
<title>Jump2</title>
<path fill="none" stroke="black" d="M44.66,-173.34C44.66,-173.34 112.28,-173.34 112.28,-173.34 118.28,-173.34 128.31,-177.78 132.34,-182.23 132.34,-182.23 148.85,-200.45 148.85,-200.45 152.88,-204.89 150.91,-209.34 144.91,-209.34 144.91,-209.34 12.03,-209.34 12.03,-209.34 6.03,-209.34 4.06,-204.89 8.09,-200.45 8.09,-200.45 24.6,-182.23 24.6,-182.23 28.63,-177.78 38.66,-173.34 44.66,-173.34"/>
<text text-anchor="start" x="43.37" y="-190.87" font-family="Monaco" font-size="11.00">Merge.2</text>
<text text-anchor="start" x="89.57" y="-190.87" font-family="Monaco" baseline-shift="super" font-size="8.00" fill="#ff4411">q3|q4</text>
</g>
<!-- Block1&#45;&gt;Jump2 -->
<g id="edge5" class="edge">
<title>Block1&#45;&gt;Jump2</title>
<path fill="none" stroke="black" d="M48.96,-259.87C54.12,-248.05 61.09,-232.11 66.96,-218.68"/>
<polygon fill="black" stroke="black" points="70.2,-220.01 70.99,-209.45 63.78,-217.21 70.2,-220.01"/>
<text text-anchor="middle" x="65.77" y="-233.21" font-family="Monaco" font-size="11.00">b</text>
</g>
<!-- Block2&#45;&gt;Jump2 -->
<g id="edge6" class="edge">
<title>Block2&#45;&gt;Jump2</title>
<path fill="none" stroke="black" d="M107.98,-259.87C102.82,-248.05 95.85,-232.11 89.98,-218.68"/>
<polygon fill="black" stroke="black" points="93.16,-217.21 85.95,-209.45 86.74,-220.01 93.16,-217.21"/>
<text text-anchor="middle" x="106.07" y="-233.21" font-family="Monaco" font-size="11.00">@e</text>
</g>
<!-- Block3 -->
<g id="node7" class="node">
<title>Block3</title>
<polygon fill="none" stroke="black" points="106.08,-122.67 50.86,-122.67 50.86,-86.67 106.08,-86.67 106.08,-122.67"/>
<text text-anchor="middle" x="78.47" y="-103.2" font-family="Monaco" font-size="11.00">Block3</text>
</g>
<!-- Jump2&#45;&gt;Block3 -->
<g id="edge7" class="edge">
<title>Jump2&#45;&gt;Block3</title>
<path fill="none" stroke="black" d="M78.47,-173.2C78.47,-161.61 78.47,-146.06 78.47,-132.8"/>
<polygon fill="black" stroke="black" points="81.97,-132.78 78.47,-122.78 74.97,-132.78 81.97,-132.78"/>
<text text-anchor="middle" x="85.07" y="-146.54" font-family="Monaco" font-size="11.00">@f</text>
</g>
<!-- Jump3 -->
<g id="node8" class="node">
<title>Jump3</title>
<polygon fill="none" stroke="black" points="117.88,-30 57.06,-30 57.06,-36 39.06,-18 57.06,0 57.06,-6 99.88,-6 99.88,0 117.88,0 117.88,-30"/>
<text text-anchor="start" x="47.27" y="-17.53" font-family="Monaco" font-size="11.00">Return.3</text>
<text text-anchor="start" x="100.07" y="-17.53" font-family="Monaco" baseline-shift="super" font-size="8.00" fill="#ff4411">q6</text>
</g>
<!-- Block3&#45;&gt;Jump3 -->
<g id="edge8" class="edge">
<title>Block3&#45;&gt;Jump3</title>
<path fill="none" stroke="black" d="M78.47,-86.53C78.47,-74.94 78.47,-59.39 78.47,-46.13"/>
<polygon fill="black" stroke="black" points="81.97,-46.11 78.47,-36.11 74.97,-46.11 81.97,-46.11"/>
<text text-anchor="middle" x="85.07" y="-59.87" font-family="Monaco" font-size="11.00">@g</text>
</g>
<!-- 0 -->
<g id="node9" class="node">
<title>0</title>
<ellipse fill="none" stroke="black" cx="481.47" cy="-510.67" rx="45.66" ry="18"/>
<text text-anchor="start" x="453.87" y="-510.21" font-family="Monaco" font-size="11.00">@a</text>
<text text-anchor="start" x="467.07" y="-510.21" font-family="Monaco" baseline-shift="super" font-size="8.00" fill="#00aa11">U2</text>
<text text-anchor="start" x="476.67" y="-510.21" font-family="Monaco" baseline-shift="super" font-size="8.00" fill="#3311ff">r1</text>
<text text-anchor="start" x="486.27" y="-510.21" font-family="Monaco" font-size="11.00">:1</text>
<text text-anchor="start" x="499.47" y="-510.21" font-family="Monaco" baseline-shift="super" font-size="8.00" fill="#ff4411">q0</text>
</g>
<!-- 19 -->
<g id="node15" class="node">
<title>19</title>
<ellipse fill="#ffffee" stroke="black" cx="481.47" cy="-437.67" rx="46.44" ry="18"/>
<text text-anchor="start" x="453.57" y="-437.21" font-family="Monaco" font-size="11.00">out(@a)</text>
<text text-anchor="start" x="499.77" y="-437.21" font-family="Monaco" baseline-shift="super" font-size="8.00" fill="#ff4411">q2</text>
</g>
<!-- 0&#45;&gt;19 -->
<g id="edge9" class="edge">
<title>0&#45;&gt;19</title>
<path fill="none" stroke="black" d="M481.47,-492.49C481.47,-484.46 481.47,-474.72 481.47,-465.74"/>
<polygon fill="black" stroke="black" points="484.97,-465.7 481.47,-455.7 477.97,-465.7 484.97,-465.7"/>
</g>
<!-- 20 -->
<g id="node10" class="node">
<title>20</title>
<ellipse fill="#ffffee" stroke="black" cx="207.47" cy="-437.67" rx="41.94" ry="18"/>
<text text-anchor="start" x="182.87" y="-437.21" font-family="Monaco" font-size="11.00">out(i)</text>
<text text-anchor="start" x="222.47" y="-437.21" font-family="Monaco" baseline-shift="super" font-size="8.00" fill="#ff4411">q2</text>
</g>
<!-- 1 -->
<g id="node11" class="node">
<title>1</title>
<ellipse fill="none" stroke="black" cx="342.47" cy="-510.67" rx="45.66" ry="18"/>
<text text-anchor="start" x="314.87" y="-510.21" font-family="Monaco" font-size="11.00">@b</text>
<text text-anchor="start" x="328.07" y="-510.21" font-family="Monaco" baseline-shift="super" font-size="8.00" fill="#00aa11">U1</text>
<text text-anchor="start" x="337.67" y="-510.21" font-family="Monaco" baseline-shift="super" font-size="8.00" fill="#3311ff">r2</text>
<text text-anchor="start" x="347.27" y="-510.21" font-family="Monaco" font-size="11.00">:0</text>
<text text-anchor="start" x="360.47" y="-510.21" font-family="Monaco" baseline-shift="super" font-size="8.00" fill="#ff4411">q0</text>
</g>
<!-- 2 -->
<g id="node13" class="node">
<title>2</title>
<ellipse fill="none" stroke="black" cx="342.47" cy="-437.67" rx="75.37" ry="18"/>
<text text-anchor="start" x="292.06" y="-437.21" font-family="Monaco" font-size="11.00">@c</text>
<text text-anchor="start" x="305.27" y="-437.21" font-family="Monaco" baseline-shift="super" font-size="8.00" fill="#00aa11">U1</text>
<text text-anchor="start" x="314.87" y="-437.21" font-family="Monaco" baseline-shift="super" font-size="8.00" fill="#3311ff">r2</text>
<text text-anchor="start" x="324.47" y="-437.21" font-family="Monaco" font-size="11.00">:i==</text>
<text text-anchor="start" x="350.87" y="-437.21" font-family="Monaco" baseline-shift="super" font-size="8.00" fill="#3311ff">Bin0</text>
<text text-anchor="start" x="370.08" y="-437.21" font-family="Monaco" font-size="11.00">@b</text>
<text text-anchor="start" x="383.28" y="-437.21" font-family="Monaco" baseline-shift="super" font-size="8.00" fill="#ff4411">q1</text>
</g>
<!-- 1&#45;&gt;2 -->
<g id="edge10" class="edge">
<title>1&#45;&gt;2</title>
<path fill="none" stroke="black" d="M342.47,-492.49C342.47,-484.46 342.47,-474.72 342.47,-465.74"/>
<polygon fill="black" stroke="black" points="345.97,-465.7 342.47,-455.7 338.97,-465.7 345.97,-465.7"/>
</g>
<!-- 21 -->
<g id="node12" class="node">
<title>21</title>
<ellipse fill="#ffffee" stroke="black" cx="342.47" cy="-364.67" rx="46.44" ry="18"/>
<text text-anchor="start" x="314.57" y="-364.21" font-family="Monaco" font-size="11.00">out(@c)</text>
<text text-anchor="start" x="360.77" y="-364.21" font-family="Monaco" baseline-shift="super" font-size="8.00" fill="#ff4411">q2</text>
</g>
<!-- 2&#45;&gt;21 -->
<g id="edge11" class="edge">
<title>2&#45;&gt;21</title>
<path fill="none" stroke="black" d="M342.47,-419.49C342.47,-411.46 342.47,-401.72 342.47,-392.74"/>
<polygon fill="black" stroke="black" points="345.97,-392.7 342.47,-382.7 338.97,-392.7 345.97,-392.7"/>
</g>
<!-- 18 -->
<g id="node14" class="node">
<title>18</title>
<ellipse fill="#ffeeff" stroke="black" cx="222.47" cy="-510.67" rx="45.66" ry="18"/>
<text text-anchor="start" x="194.87" y="-510.21" font-family="Monaco" font-size="11.00">i</text>
<text text-anchor="start" x="201.47" y="-510.21" font-family="Monaco" baseline-shift="super" font-size="8.00" fill="#00aa11">U1</text>
<text text-anchor="start" x="211.07" y="-510.21" font-family="Monaco" baseline-shift="super" font-size="8.00" fill="#3311ff">r0</text>
<text text-anchor="start" x="220.67" y="-510.21" font-family="Monaco" font-size="11.00">:in</text>
<text text-anchor="start" x="240.47" y="-510.21" font-family="Monaco" baseline-shift="super" font-size="8.00" fill="#ff4411">q0</text>
</g>
<!-- 18&#45;&gt;20 -->
<g id="edge13" class="edge">
<title>18&#45;&gt;20</title>
<path fill="none" stroke="black" d="M218.84,-492.49C217.14,-484.46 215.09,-474.72 213.19,-465.74"/>
<polygon fill="black" stroke="black" points="216.56,-464.76 211.07,-455.7 209.71,-466.21 216.56,-464.76"/>
</g>
<!-- 18&#45;&gt;2 -->
<g id="edge12" class="edge">
<title>18&#45;&gt;2</title>
<path fill="none" stroke="black" d="M246.75,-495.31C264.02,-485.09 287.48,-471.21 306.86,-459.74"/>
<polygon fill="black" stroke="black" points="308.89,-462.61 315.72,-454.5 305.33,-456.58 308.89,-462.61"/>
</g>
<!-- 5 -->
<g id="node16" class="node">
<title>5</title>
<ellipse fill="none" stroke="black" cx="759.47" cy="-437.67" rx="46.44" ry="18"/>
<text text-anchor="start" x="731.57" y="-437.21" font-family="Monaco" font-size="11.00">a[@d]=i</text>
<text text-anchor="start" x="777.77" y="-437.21" font-family="Monaco" baseline-shift="super" font-size="8.00" fill="#ff4411">q3</text>
</g>
<!-- 14 -->
<g id="node17" class="node">
<title>14</title>
<ellipse fill="#ffffee" stroke="black" cx="930.47" cy="-437.67" rx="41.94" ry="18"/>
<text text-anchor="start" x="905.87" y="-437.21" font-family="Monaco" font-size="11.00">out(b)</text>
<text text-anchor="start" x="945.47" y="-437.21" font-family="Monaco" baseline-shift="super" font-size="8.00" fill="#ff4411">q3</text>
</g>
<!-- 13 -->
<g id="node18" class="node">
<title>13</title>
<ellipse fill="#ffffee" stroke="black" cx="601.47" cy="-437.67" rx="46.44" ry="18"/>
<text text-anchor="start" x="573.57" y="-437.21" font-family="Monaco" font-size="11.00">out(@a)</text>
<text text-anchor="start" x="619.77" y="-437.21" font-family="Monaco" baseline-shift="super" font-size="8.00" fill="#ff4411">q3</text>
</g>
<!-- 12 -->
<g id="node19" class="node">
<title>12</title>
<ellipse fill="#ffeeff" stroke="black" cx="715.47" cy="-510.67" rx="45.66" ry="18"/>
<text text-anchor="start" x="687.87" y="-510.21" font-family="Monaco" font-size="11.00">i</text>
<text text-anchor="start" x="694.47" y="-510.21" font-family="Monaco" baseline-shift="super" font-size="8.00" fill="#00aa11">U1</text>
<text text-anchor="start" x="704.07" y="-510.21" font-family="Monaco" baseline-shift="super" font-size="8.00" fill="#3311ff">r0</text>
<text text-anchor="start" x="713.67" y="-510.21" font-family="Monaco" font-size="11.00">:in</text>
<text text-anchor="start" x="733.47" y="-510.21" font-family="Monaco" baseline-shift="super" font-size="8.00" fill="#ff4411">q2</text>
</g>
<!-- 12&#45;&gt;5 -->
<g id="edge17" class="edge">
<title>12&#45;&gt;5</title>
<path fill="none" stroke="black" d="M725.9,-492.85C731.21,-484.27 737.79,-473.66 743.71,-464.11"/>
<polygon fill="black" stroke="black" points="746.83,-465.72 749.12,-455.38 740.88,-462.04 746.83,-465.72"/>
</g>
<!-- 3 -->
<g id="node20" class="node">
<title>3</title>
<ellipse fill="none" stroke="black" cx="930.47" cy="-510.67" rx="41.67" ry="18"/>
<text text-anchor="start" x="906.17" y="-510.21" font-family="Monaco" font-size="11.00">b</text>
<text text-anchor="start" x="912.77" y="-510.21" font-family="Monaco" baseline-shift="super" font-size="8.00" fill="#00aa11">U2</text>
<text text-anchor="start" x="922.37" y="-510.21" font-family="Monaco" baseline-shift="super" font-size="8.00" fill="#3311ff">r2</text>
<text text-anchor="start" x="931.97" y="-510.21" font-family="Monaco" font-size="11.00">:1</text>
<text text-anchor="start" x="945.17" y="-510.21" font-family="Monaco" baseline-shift="super" font-size="8.00" fill="#ff4411">q2</text>
</g>
<!-- 3&#45;&gt;14 -->
<g id="edge14" class="edge">
<title>3&#45;&gt;14</title>
<path fill="none" stroke="black" d="M930.47,-492.49C930.47,-484.46 930.47,-474.72 930.47,-465.74"/>
<polygon fill="black" stroke="black" points="933.97,-465.7 930.47,-455.7 926.97,-465.7 933.97,-465.7"/>
</g>
<!-- 11 -->
<g id="node21" class="node">
<title>11</title>
<ellipse fill="#ffeeff" stroke="black" cx="601.47" cy="-510.67" rx="50.16" ry="18"/>
<text text-anchor="start" x="570.57" y="-510.21" font-family="Monaco" font-size="11.00">@a</text>
<text text-anchor="start" x="583.77" y="-510.21" font-family="Monaco" baseline-shift="super" font-size="8.00" fill="#00aa11">U2</text>
<text text-anchor="start" x="593.37" y="-510.21" font-family="Monaco" baseline-shift="super" font-size="8.00" fill="#3311ff">r1</text>
<text text-anchor="start" x="602.97" y="-510.21" font-family="Monaco" font-size="11.00">:in</text>
<text text-anchor="start" x="622.77" y="-510.21" font-family="Monaco" baseline-shift="super" font-size="8.00" fill="#ff4411">q2</text>
</g>
<!-- 11&#45;&gt;13 -->
<g id="edge16" class="edge">
<title>11&#45;&gt;13</title>
<path fill="none" stroke="black" d="M601.47,-492.49C601.47,-484.46 601.47,-474.72 601.47,-465.74"/>
<polygon fill="black" stroke="black" points="604.97,-465.7 601.47,-455.7 597.97,-465.7 604.97,-465.7"/>
</g>
<!-- 4 -->
<g id="node22" class="node">
<title>4</title>
<ellipse fill="none" stroke="black" cx="825.47" cy="-510.67" rx="45.66" ry="18"/>
<text text-anchor="start" x="797.87" y="-510.21" font-family="Monaco" font-size="11.00">@d</text>
<text text-anchor="start" x="811.07" y="-510.21" font-family="Monaco" baseline-shift="super" font-size="8.00" fill="#00aa11">U1</text>
<text text-anchor="start" x="820.67" y="-510.21" font-family="Monaco" baseline-shift="super" font-size="8.00" fill="#3311ff">r3</text>
<text text-anchor="start" x="830.27" y="-510.21" font-family="Monaco" font-size="11.00">:0</text>
<text text-anchor="start" x="843.47" y="-510.21" font-family="Monaco" baseline-shift="super" font-size="8.00" fill="#ff4411">q2</text>
</g>
<!-- 4&#45;&gt;5 -->
<g id="edge15" class="edge">
<title>4&#45;&gt;5</title>
<path fill="none" stroke="black" d="M810.49,-493.56C801.89,-484.3 790.92,-472.51 781.36,-462.22"/>
<polygon fill="black" stroke="black" points="783.76,-459.66 774.39,-454.72 778.63,-464.43 783.76,-459.66"/>
</g>
<!-- 6 -->
<g id="node23" class="node">
<title>6</title>
<ellipse fill="none" stroke="black" cx="1160.47" cy="-510.67" rx="45.66" ry="18"/>
<text text-anchor="start" x="1132.87" y="-510.21" font-family="Monaco" font-size="11.00">@e</text>
<text text-anchor="start" x="1146.07" y="-510.21" font-family="Monaco" baseline-shift="super" font-size="8.00" fill="#00aa11">U2</text>
<text text-anchor="start" x="1155.67" y="-510.21" font-family="Monaco" baseline-shift="super" font-size="8.00" fill="#3311ff">r0</text>
<text text-anchor="start" x="1165.27" y="-510.21" font-family="Monaco" font-size="11.00">:2</text>
<text text-anchor="start" x="1178.47" y="-510.21" font-family="Monaco" baseline-shift="super" font-size="8.00" fill="#ff4411">q2</text>
</g>
<!-- 17 -->
<g id="node26" class="node">
<title>17</title>
<ellipse fill="#ffffee" stroke="black" cx="1160.47" cy="-437.67" rx="46.44" ry="18"/>
<text text-anchor="start" x="1132.57" y="-437.21" font-family="Monaco" font-size="11.00">out(@e)</text>
<text text-anchor="start" x="1178.77" y="-437.21" font-family="Monaco" baseline-shift="super" font-size="8.00" fill="#ff4411">q4</text>
</g>
<!-- 6&#45;&gt;17 -->
<g id="edge18" class="edge">
<title>6&#45;&gt;17</title>
<path fill="none" stroke="black" d="M1160.47,-492.49C1160.47,-484.46 1160.47,-474.72 1160.47,-465.74"/>
<polygon fill="black" stroke="black" points="1163.97,-465.7 1160.47,-455.7 1156.97,-465.7 1163.97,-465.7"/>
</g>
<!-- 15 -->
<g id="node24" class="node">
<title>15</title>
<ellipse fill="#ffeeff" stroke="black" cx="1046.47" cy="-510.67" rx="50.16" ry="18"/>
<text text-anchor="start" x="1015.57" y="-510.21" font-family="Monaco" font-size="11.00">@a</text>
<text text-anchor="start" x="1028.77" y="-510.21" font-family="Monaco" baseline-shift="super" font-size="8.00" fill="#00aa11">U2</text>
<text text-anchor="start" x="1038.37" y="-510.21" font-family="Monaco" baseline-shift="super" font-size="8.00" fill="#3311ff">r1</text>
<text text-anchor="start" x="1047.97" y="-510.21" font-family="Monaco" font-size="11.00">:in</text>
<text text-anchor="start" x="1067.77" y="-510.21" font-family="Monaco" baseline-shift="super" font-size="8.00" fill="#ff4411">q2</text>
</g>
<!-- 16 -->
<g id="node25" class="node">
<title>16</title>
<ellipse fill="#ffffee" stroke="black" cx="1046.47" cy="-437.67" rx="46.44" ry="18"/>
<text text-anchor="start" x="1018.57" y="-437.21" font-family="Monaco" font-size="11.00">out(@a)</text>
<text text-anchor="start" x="1064.77" y="-437.21" font-family="Monaco" baseline-shift="super" font-size="8.00" fill="#ff4411">q4</text>
</g>
<!-- 15&#45;&gt;16 -->
<g id="edge19" class="edge">
<title>15&#45;&gt;16</title>
<path fill="none" stroke="black" d="M1046.47,-492.49C1046.47,-484.46 1046.47,-474.72 1046.47,-465.74"/>
<polygon fill="black" stroke="black" points="1049.97,-465.7 1046.47,-455.7 1042.97,-465.7 1049.97,-465.7"/>
</g>
<!-- 7 -->
<g id="node27" class="node">
<title>7</title>
<ellipse fill="none" stroke="black" cx="1357.47" cy="-437.67" rx="75.37" ry="18"/>
<text text-anchor="start" x="1307.06" y="-437.21" font-family="Monaco" font-size="11.00">@g</text>
<text text-anchor="start" x="1320.27" y="-437.21" font-family="Monaco" baseline-shift="super" font-size="8.00" fill="#00aa11">U2</text>
<text text-anchor="start" x="1329.87" y="-437.21" font-family="Monaco" baseline-shift="super" font-size="8.00" fill="#3311ff">r0</text>
<text text-anchor="start" x="1339.47" y="-437.21" font-family="Monaco" font-size="11.00">:@a+</text>
<text text-anchor="start" x="1365.87" y="-437.21" font-family="Monaco" baseline-shift="super" font-size="8.00" fill="#3311ff">Bin1</text>
<text text-anchor="start" x="1385.08" y="-437.21" font-family="Monaco" font-size="11.00">@f</text>
<text text-anchor="start" x="1398.28" y="-437.21" font-family="Monaco" baseline-shift="super" font-size="8.00" fill="#ff4411">q5</text>
</g>
<!-- 10 -->
<g id="node30" class="node">
<title>10</title>
<ellipse fill="#ffffee" stroke="black" cx="1357.47" cy="-364.67" rx="46.44" ry="18"/>
<text text-anchor="start" x="1329.57" y="-364.21" font-family="Monaco" font-size="11.00">out(@g)</text>
<text text-anchor="start" x="1375.77" y="-364.21" font-family="Monaco" baseline-shift="super" font-size="8.00" fill="#ff4411">q6</text>
</g>
<!-- 7&#45;&gt;10 -->
<g id="edge20" class="edge">
<title>7&#45;&gt;10</title>
<path fill="none" stroke="black" d="M1357.47,-419.49C1357.47,-411.46 1357.47,-401.72 1357.47,-392.74"/>
<polygon fill="black" stroke="black" points="1360.97,-392.7 1357.47,-382.7 1353.97,-392.7 1360.97,-392.7"/>
</g>
<!-- 8 -->
<g id="node28" class="node">
<title>8</title>
<ellipse fill="#ffeeff" stroke="black" cx="1426.47" cy="-510.67" rx="59.2" ry="18"/>
<text text-anchor="start" x="1388.36" y="-510.21" font-family="Monaco" font-size="11.00">@a</text>
<text text-anchor="start" x="1401.57" y="-510.21" font-family="Monaco" baseline-shift="super" font-size="8.00" fill="#00aa11">U2</text>
<text text-anchor="start" x="1411.17" y="-510.21" font-family="Monaco" baseline-shift="super" font-size="8.00" fill="#3311ff">r1</text>
<text text-anchor="start" x="1420.77" y="-510.21" font-family="Monaco" font-size="11.00">:in</text>
<text text-anchor="start" x="1440.57" y="-510.21" font-family="Monaco" baseline-shift="super" font-size="8.00" fill="#ff4411">q3|q4</text>
</g>
<!-- 8&#45;&gt;7 -->
<g id="edge21" class="edge">
<title>8&#45;&gt;7</title>
<path fill="none" stroke="black" d="M1410.47,-493.21C1401.71,-484.2 1390.7,-472.86 1380.98,-462.87"/>
<polygon fill="black" stroke="black" points="1383.35,-460.28 1373.87,-455.54 1378.33,-465.16 1383.35,-460.28"/>
</g>
<!-- 9 -->
<g id="node29" class="node">
<title>9</title>
<ellipse fill="#ffeeff" stroke="black" cx="1289.47" cy="-510.67" rx="59.2" ry="18"/>
<text text-anchor="start" x="1251.36" y="-510.21" font-family="Monaco" font-size="11.00">@f</text>
<text text-anchor="start" x="1264.57" y="-510.21" font-family="Monaco" baseline-shift="super" font-size="8.00" fill="#00aa11">U2</text>
<text text-anchor="start" x="1274.17" y="-510.21" font-family="Monaco" baseline-shift="super" font-size="8.00" fill="#3311ff">r0</text>
<text text-anchor="start" x="1283.77" y="-510.21" font-family="Monaco" font-size="11.00">:in</text>
<text text-anchor="start" x="1303.57" y="-510.21" font-family="Monaco" baseline-shift="super" font-size="8.00" fill="#ff4411">q3|q4</text>
</g>
<!-- 9&#45;&gt;7 -->
<g id="edge22" class="edge">
<title>9&#45;&gt;7</title>
<path fill="none" stroke="black" d="M1305.24,-493.21C1313.87,-484.2 1324.72,-472.86 1334.3,-462.87"/>
<polygon fill="black" stroke="black" points="1336.92,-465.19 1341.31,-455.54 1331.87,-460.35 1336.92,-465.19"/>
</g>
</g>
</svg>
