<?xml version="1.0" encoding="UTF-8" standalone="no"?>
<!DOCTYPE svg PUBLIC "-//W3C//DTD SVG 1.1//EN"
 "http://www.w3.org/Graphics/SVG/1.1/DTD/svg11.dtd">
<!-- Generated by graphviz version 2.43.0 (0)
 -->
<!-- Title: Program_ Pages: 1 -->
<svg width="985pt" height="585pt"
 viewBox="0.00 0.00 985.47 584.67" xmlns="http://www.w3.org/2000/svg" xmlns:xlink="http://www.w3.org/1999/xlink">
<g id="graph0" class="graph" transform="scale(1 1) rotate(0) translate(4 580.67)">
<title>Program_</title>
<polygon fill="white" stroke="transparent" points="-4,4 -4,-580.67 981.47,-580.67 981.47,4 -4,4"/>
<g id="clust1" class="cluster">
<title>cluster_dfg_Block0</title>
<polygon fill="none" stroke="black" points="134.47,-484.67 134.47,-568.67 414.47,-568.67 414.47,-484.67 134.47,-484.67"/>
<text text-anchor="start" x="252.87" y="-556.07" font-family="Monaco" font-size="12.00">Block0</text>
<text text-anchor="start" x="192.86" y="-544.07" font-family="Monaco" font-size="12.00">(i</text>
<text text-anchor="start" x="207.26" y="-544.07" font-family="Monaco" baseline-shift="super" font-size="8.00" fill="#00aa11">U1</text>
<text text-anchor="start" x="216.86" y="-544.07" font-family="Monaco" baseline-shift="super" font-size="8.00" fill="#3311ff">r0</text>
<text text-anchor="start" x="226.46" y="-544.07" font-family="Monaco" font-size="12.00">=&gt;@a</text>
<text text-anchor="start" x="255.27" y="-544.07" font-family="Monaco" baseline-shift="super" font-size="8.00" fill="#00aa11">U2</text>
<text text-anchor="start" x="264.87" y="-544.07" font-family="Monaco" baseline-shift="super" font-size="8.00" fill="#3311ff">r1</text>
<text text-anchor="start" x="274.47" y="-544.07" font-family="Monaco" font-size="12.00">,i</text>
<text text-anchor="start" x="288.87" y="-544.07" font-family="Monaco" baseline-shift="super" font-size="8.00" fill="#00aa11">U1</text>
<text text-anchor="start" x="298.48" y="-544.07" font-family="Monaco" baseline-shift="super" font-size="8.00" fill="#3311ff">r0</text>
<text text-anchor="start" x="308.08" y="-544.07" font-family="Monaco" font-size="12.00">,@c</text>
<text text-anchor="start" x="329.68" y="-544.07" font-family="Monaco" baseline-shift="super" font-size="8.00" fill="#00aa11">U1</text>
<text text-anchor="start" x="339.28" y="-544.07" font-family="Monaco" baseline-shift="super" font-size="8.00" fill="#3311ff">r2</text>
<text text-anchor="start" x="348.88" y="-544.07" font-family="Monaco" font-size="12.00">)</text>
</g>
<g id="clust2" class="cluster">
<title>cluster_dfg_Block1</title>
<polygon fill="none" stroke="black" points="422.47,-411.67 422.47,-568.67 631.47,-568.67 631.47,-411.67 422.47,-411.67"/>
<text text-anchor="start" x="505.37" y="-556.07" font-family="Monaco" font-size="12.00">Block1</text>
<text text-anchor="start" x="445.36" y="-544.07" font-family="Monaco" font-size="12.00">(@a</text>
<text text-anchor="start" x="466.96" y="-544.07" font-family="Monaco" baseline-shift="super" font-size="8.00" fill="#00aa11">U2</text>
<text text-anchor="start" x="476.56" y="-544.07" font-family="Monaco" baseline-shift="super" font-size="8.00" fill="#3311ff">r1</text>
<text text-anchor="start" x="486.16" y="-544.07" font-family="Monaco" font-size="12.00">,i</text>
<text text-anchor="start" x="500.57" y="-544.07" font-family="Monaco" baseline-shift="super" font-size="8.00" fill="#00aa11">U1</text>
<text text-anchor="start" x="510.17" y="-544.07" font-family="Monaco" baseline-shift="super" font-size="8.00" fill="#3311ff">r0</text>
<text text-anchor="start" x="519.77" y="-544.07" font-family="Monaco" font-size="12.00">=&gt;@a</text>
<text text-anchor="start" x="548.57" y="-544.07" font-family="Monaco" baseline-shift="super" font-size="8.00" fill="#00aa11">U2</text>
<text text-anchor="start" x="558.18" y="-544.07" font-family="Monaco" baseline-shift="super" font-size="8.00" fill="#3311ff">r1</text>
<text text-anchor="start" x="567.78" y="-544.07" font-family="Monaco" font-size="12.00">,b</text>
<text text-anchor="start" x="582.18" y="-544.07" font-family="Monaco" baseline-shift="super" font-size="8.00" fill="#00aa11">U2</text>
<text text-anchor="start" x="591.78" y="-544.07" font-family="Monaco" baseline-shift="super" font-size="8.00" fill="#3311ff">r3</text>
<text text-anchor="start" x="601.38" y="-544.07" font-family="Monaco" font-size="12.00">)</text>
</g>
<g id="clust3" class="cluster">
<title>cluster_dfg_Block2</title>
<polygon fill="none" stroke="black" points="639.47,-484.67 639.47,-568.67 791.47,-568.67 791.47,-484.67 639.47,-484.67"/>
<text text-anchor="start" x="693.87" y="-556.07" font-family="Monaco" font-size="12.00">Block2</text>
<text text-anchor="start" x="647.06" y="-544.07" font-family="Monaco" font-size="12.00">(@a</text>
<text text-anchor="start" x="668.66" y="-544.07" font-family="Monaco" baseline-shift="super" font-size="8.00" fill="#00aa11">U2</text>
<text text-anchor="start" x="678.27" y="-544.07" font-family="Monaco" baseline-shift="super" font-size="8.00" fill="#3311ff">r1</text>
<text text-anchor="start" x="687.87" y="-544.07" font-family="Monaco" font-size="12.00">=&gt;@a</text>
<text text-anchor="start" x="716.67" y="-544.07" font-family="Monaco" baseline-shift="super" font-size="8.00" fill="#00aa11">U2</text>
<text text-anchor="start" x="726.27" y="-544.07" font-family="Monaco" baseline-shift="super" font-size="8.00" fill="#3311ff">r1</text>
<text text-anchor="start" x="735.87" y="-544.07" font-family="Monaco" font-size="12.00">,@e</text>
<text text-anchor="start" x="757.48" y="-544.07" font-family="Monaco" baseline-shift="super" font-size="8.00" fill="#00aa11">U2</text>
<text text-anchor="start" x="767.08" y="-544.07" font-family="Monaco" baseline-shift="super" font-size="8.00" fill="#3311ff">r0</text>
<text text-anchor="start" x="776.68" y="-544.07" font-family="Monaco" font-size="12.00">)</text>
</g>
<g id="clust4" class="cluster">
<title>cluster_dfg_Block3</title>
<polygon fill="none" stroke="black" points="799.47,-484.67 799.47,-568.67 969.47,-568.67 969.47,-484.67 799.47,-484.67"/>
<text text-anchor="start" x="862.87" y="-556.07" font-family="Monaco" font-size="12.00">Block3</text>
<text text-anchor="start" x="816.06" y="-544.07" font-family="Monaco" font-size="12.00">(@a</text>
<text text-anchor="start" x="837.66" y="-544.07" font-family="Monaco" baseline-shift="super" font-size="8.00" fill="#00aa11">U2</text>
<text text-anchor="start" x="847.27" y="-544.07" font-family="Monaco" baseline-shift="super" font-size="8.00" fill="#3311ff">r1</text>
<text text-anchor="start" x="856.87" y="-544.07" font-family="Monaco" font-size="12.00">,@f</text>
<text text-anchor="start" x="878.47" y="-544.07" font-family="Monaco" baseline-shift="super" font-size="8.00" fill="#00aa11">U2</text>
<text text-anchor="start" x="888.07" y="-544.07" font-family="Monaco" baseline-shift="super" font-size="8.00" fill="#3311ff">r0</text>
<text text-anchor="start" x="897.67" y="-544.07" font-family="Monaco" font-size="12.00">=&gt;@g</text>
<text text-anchor="start" x="926.48" y="-544.07" font-family="Monaco" baseline-shift="super" font-size="8.00" fill="#00aa11">U2</text>
<text text-anchor="start" x="936.08" y="-544.07" font-family="Monaco" baseline-shift="super" font-size="8.00" fill="#3311ff">r0</text>
<text text-anchor="start" x="945.68" y="-544.07" font-family="Monaco" font-size="12.00">)</text>
</g>
<!-- Jump0 -->
<g id="node1" class="node">
<title>Jump0</title>
<polygon fill="none" stroke="black" points="124.08,-528.67 32.86,-528.67 32.86,-524.67 28.86,-524.67 28.86,-520.67 32.86,-520.67 32.86,-500.67 28.86,-500.67 28.86,-496.67 32.86,-496.67 32.86,-492.67 124.08,-492.67 124.08,-528.67"/>
<polyline fill="none" stroke="black" points="32.86,-524.67 36.86,-524.67 36.86,-520.67 32.86,-520.67 "/>
<polyline fill="none" stroke="black" points="32.86,-500.67 36.86,-500.67 36.86,-496.67 32.86,-496.67 "/>
<text text-anchor="start" x="40.66" y="-513.87" font-family="Monaco" baseline-shift="super" font-size="8.00" fill="#ff4411">q0</text>
<text text-anchor="start" x="50.27" y="-513.87" font-family="Monaco" font-size="11.00">StartFun.0</text>
<text text-anchor="start" x="65.57" y="-502.87" font-family="Monaco" font-size="11.00">i</text>
<text text-anchor="start" x="72.17" y="-502.87" font-family="Monaco" baseline-shift="super" font-size="8.00" fill="#00aa11">U1</text>
<text text-anchor="start" x="81.77" y="-502.87" font-family="Monaco" baseline-shift="super" font-size="8.00" fill="#3311ff">r0</text>
</g>
<!-- Block0 -->
<g id="node2" class="node">
<title>Block0</title>
<polygon fill="none" stroke="black" points="106.08,-455.67 50.86,-455.67 50.86,-419.67 106.08,-419.67 106.08,-455.67"/>
<text text-anchor="middle" x="78.47" y="-436.21" font-family="Monaco" font-size="11.00">Block0</text>
</g>
<!-- Jump0&#45;&gt;Block0 -->
<g id="edge1" class="edge">
<title>Jump0&#45;&gt;Block0</title>
<path fill="none" stroke="black" d="M78.47,-492.49C78.47,-484.46 78.47,-474.72 78.47,-465.74"/>
<polygon fill="black" stroke="black" points="81.97,-465.7 78.47,-455.7 74.97,-465.7 81.97,-465.7"/>
</g>
<!-- Jump1 -->
<g id="node3" class="node">
<title>Jump1</title>
<path fill="none" stroke="black" d="M108.08,-382.67C108.08,-382.67 48.87,-382.67 48.87,-382.67 42.87,-382.67 33.05,-378.04 29.24,-373.41 29.24,-373.41 14.86,-355.94 14.86,-355.94 11.04,-351.31 13.23,-346.67 19.23,-346.67 19.23,-346.67 137.71,-346.67 137.71,-346.67 143.71,-346.67 145.9,-351.31 142.09,-355.94 142.09,-355.94 127.7,-373.41 127.7,-373.41 123.89,-378.04 114.08,-382.67 108.08,-382.67"/>
<text text-anchor="start" x="47.27" y="-364.21" font-family="Monaco" baseline-shift="super" font-size="8.00" fill="#ff4411">q1</text>
<text text-anchor="start" x="56.87" y="-364.21" font-family="Monaco" font-size="11.00">Branch.1</text>
</g>
<!-- Block0&#45;&gt;Jump1 -->
<g id="edge2" class="edge">
<title>Block0&#45;&gt;Jump1</title>
<path fill="none" stroke="black" d="M78.47,-419.49C78.47,-411.46 78.47,-401.72 78.47,-392.74"/>
<polygon fill="black" stroke="black" points="81.97,-392.7 78.47,-382.7 74.97,-392.7 81.97,-392.7"/>
</g>
<!-- Block1 -->
<g id="node4" class="node">
<title>Block1</title>
<polygon fill="none" stroke="black" points="69.08,-296.01 13.86,-296.01 13.86,-260.01 69.08,-260.01 69.08,-296.01"/>
<text text-anchor="middle" x="41.47" y="-276.54" font-family="Monaco" font-size="11.00">Block1</text>
</g>
<!-- Jump1&#45;&gt;Block1 -->
<g id="edge3" class="edge">
<title>Jump1&#45;&gt;Block1</title>
<path fill="none" stroke="black" d="M70.98,-346.54C65.82,-334.72 58.85,-318.78 52.98,-305.35"/>
<polygon fill="black" stroke="black" points="56.16,-303.88 48.95,-296.11 49.74,-306.68 56.16,-303.88"/>
<text text-anchor="middle" x="69.07" y="-319.87" font-family="Monaco" font-size="11.00">@c</text>
</g>
<!-- Block2 -->
<g id="node5" class="node">
<title>Block2</title>
<polygon fill="none" stroke="black" points="143.08,-296.01 87.86,-296.01 87.86,-260.01 143.08,-260.01 143.08,-296.01"/>
<text text-anchor="middle" x="115.47" y="-276.54" font-family="Monaco" font-size="11.00">Block2</text>
</g>
<!-- Jump1&#45;&gt;Block2 -->
<g id="edge4" class="edge">
<title>Jump1&#45;&gt;Block2</title>
<path fill="none" stroke="black" d="M85.96,-346.54C91.12,-334.72 98.09,-318.78 103.96,-305.35"/>
<polygon fill="black" stroke="black" points="107.2,-306.68 107.99,-296.11 100.78,-303.88 107.2,-306.68"/>
<text text-anchor="middle" x="109.37" y="-319.87" font-family="Monaco" font-size="11.00">!@c</text>
</g>
<!-- Jump2 -->
<g id="node6" class="node">
<title>Jump2</title>
<path fill="none" stroke="black" d="M44.66,-173.34C44.66,-173.34 112.28,-173.34 112.28,-173.34 118.28,-173.34 128.31,-177.78 132.34,-182.23 132.34,-182.23 148.85,-200.45 148.85,-200.45 152.88,-204.89 150.91,-209.34 144.91,-209.34 144.91,-209.34 12.03,-209.34 12.03,-209.34 6.03,-209.34 4.06,-204.89 8.09,-200.45 8.09,-200.45 24.6,-182.23 24.6,-182.23 28.63,-177.78 38.66,-173.34 44.66,-173.34"/>
<text text-anchor="start" x="43.37" y="-190.87" font-family="Monaco" baseline-shift="super" font-size="8.00" fill="#ff4411">q4|q6</text>
<text text-anchor="start" x="67.37" y="-190.87" font-family="Monaco" font-size="11.00">Merge.2</text>
</g>
<!-- Block1&#45;&gt;Jump2 -->
<g id="edge5" class="edge">
<title>Block1&#45;&gt;Jump2</title>
<path fill="none" stroke="black" d="M48.96,-259.87C54.12,-248.05 61.09,-232.11 66.96,-218.68"/>
<polygon fill="black" stroke="black" points="70.2,-220.01 70.99,-209.45 63.78,-217.21 70.2,-220.01"/>
<text text-anchor="middle" x="65.77" y="-233.21" font-family="Monaco" font-size="11.00">b</text>
</g>
<!-- Block2&#45;&gt;Jump2 -->
<g id="edge6" class="edge">
<title>Block2&#45;&gt;Jump2</title>
<path fill="none" stroke="black" d="M107.98,-259.87C102.82,-248.05 95.85,-232.11 89.98,-218.68"/>
<polygon fill="black" stroke="black" points="93.16,-217.21 85.95,-209.45 86.74,-220.01 93.16,-217.21"/>
<text text-anchor="middle" x="106.07" y="-233.21" font-family="Monaco" font-size="11.00">@e</text>
</g>
<!-- Block3 -->
<g id="node7" class="node">
<title>Block3</title>
<polygon fill="none" stroke="black" points="106.08,-122.67 50.86,-122.67 50.86,-86.67 106.08,-86.67 106.08,-122.67"/>
<text text-anchor="middle" x="78.47" y="-103.2" font-family="Monaco" font-size="11.00">Block3</text>
</g>
<!-- Jump2&#45;&gt;Block3 -->
<g id="edge7" class="edge">
<title>Jump2&#45;&gt;Block3</title>
<path fill="none" stroke="black" d="M78.47,-173.2C78.47,-161.61 78.47,-146.06 78.47,-132.8"/>
<polygon fill="black" stroke="black" points="81.97,-132.78 78.47,-122.78 74.97,-132.78 81.97,-132.78"/>
<text text-anchor="middle" x="85.07" y="-146.54" font-family="Monaco" font-size="11.00">@f</text>
</g>
<!-- Jump3 -->
<g id="node8" class="node">
<title>Jump3</title>
<polygon fill="none" stroke="black" points="117.88,-30 57.06,-30 57.06,-36 39.06,-18 57.06,0 57.06,-6 99.88,-6 99.88,0 117.88,0 117.88,-30"/>
<text text-anchor="start" x="47.27" y="-17.53" font-family="Monaco" baseline-shift="super" font-size="8.00" fill="#ff4411">q8</text>
<text text-anchor="start" x="56.87" y="-17.53" font-family="Monaco" font-size="11.00">Return.3</text>
</g>
<!-- Block3&#45;&gt;Jump3 -->
<g id="edge8" class="edge">
<title>Block3&#45;&gt;Jump3</title>
<path fill="none" stroke="black" d="M78.47,-86.53C78.47,-74.94 78.47,-59.39 78.47,-46.13"/>
<polygon fill="black" stroke="black" points="81.97,-46.11 78.47,-36.11 74.97,-46.11 81.97,-46.11"/>
<text text-anchor="middle" x="85.07" y="-59.87" font-family="Monaco" font-size="11.00">@g</text>
</g>
<!-- 0 -->
<g id="node9" class="node">
<title>0</title>
<ellipse fill="none" stroke="black" cx="360.47" cy="-510.67" rx="45.66" ry="18"/>
<text text-anchor="start" x="332.87" y="-510.21" font-family="Monaco" baseline-shift="super" font-size="8.00" fill="#ff4411">q1</text>
<text text-anchor="start" x="342.47" y="-510.21" font-family="Monaco" font-size="11.00">@a</text>
<text text-anchor="start" x="355.67" y="-510.21" font-family="Monaco" baseline-shift="super" font-size="8.00" fill="#00aa11">U2</text>
<text text-anchor="start" x="365.27" y="-510.21" font-family="Monaco" baseline-shift="super" font-size="8.00" fill="#3311ff">r1</text>
<text text-anchor="start" x="374.87" y="-510.21" font-family="Monaco" font-size="11.00">:1</text>
</g>
<!-- 2 -->
<g id="node10" class="node">
<title>2</title>
<ellipse fill="none" stroke="black" cx="219.47" cy="-510.67" rx="77.23" ry="18"/>
<text text-anchor="start" x="167.56" y="-510.21" font-family="Monaco" baseline-shift="super" font-size="8.00" fill="#ff4411">q1</text>
<text text-anchor="start" x="177.16" y="-510.21" font-family="Monaco" font-size="11.00">@c</text>
<text text-anchor="start" x="190.37" y="-510.21" font-family="Monaco" baseline-shift="super" font-size="8.00" fill="#00aa11">U1</text>
<text text-anchor="start" x="199.97" y="-510.21" font-family="Monaco" baseline-shift="super" font-size="8.00" fill="#3311ff">r2</text>
<text text-anchor="start" x="209.57" y="-510.21" font-family="Monaco" font-size="11.00">:i==</text>
<text text-anchor="start" x="235.97" y="-510.21" font-family="Monaco" baseline-shift="super" font-size="8.00" fill="#3311ff">Bin0</text>
<text text-anchor="start" x="255.18" y="-510.21" font-family="Monaco" font-size="11.00">0</text>
<text text-anchor="start" x="261.78" y="-510.21" font-family="Monaco" baseline-shift="super" font-size="8.00" fill="#00aa11">U1</text>
</g>
<!-- 3 -->
<g id="node11" class="node">
<title>3</title>
<ellipse fill="none" stroke="black" cx="581.47" cy="-510.67" rx="41.67" ry="18"/>
<text text-anchor="start" x="557.17" y="-510.21" font-family="Monaco" baseline-shift="super" font-size="8.00" fill="#ff4411">q2</text>
<text text-anchor="start" x="566.77" y="-510.21" font-family="Monaco" font-size="11.00">b</text>
<text text-anchor="start" x="573.37" y="-510.21" font-family="Monaco" baseline-shift="super" font-size="8.00" fill="#00aa11">U2</text>
<text text-anchor="start" x="582.97" y="-510.21" font-family="Monaco" baseline-shift="super" font-size="8.00" fill="#3311ff">r3</text>
<text text-anchor="start" x="592.57" y="-510.21" font-family="Monaco" font-size="11.00">:1</text>
</g>
<!-- 4 -->
<g id="node12" class="node">
<title>4</title>
<ellipse fill="none" stroke="black" cx="476.47" cy="-510.67" rx="45.66" ry="18"/>
<text text-anchor="start" x="448.87" y="-510.21" font-family="Monaco" baseline-shift="super" font-size="8.00" fill="#ff4411">q2</text>
<text text-anchor="start" x="458.47" y="-510.21" font-family="Monaco" font-size="11.00">@d</text>
<text text-anchor="start" x="471.67" y="-510.21" font-family="Monaco" baseline-shift="super" font-size="8.00" fill="#00aa11">U1</text>
<text text-anchor="start" x="481.27" y="-510.21" font-family="Monaco" baseline-shift="super" font-size="8.00" fill="#3311ff">r2</text>
<text text-anchor="start" x="490.87" y="-510.21" font-family="Monaco" font-size="11.00">:0</text>
</g>
<!-- 5 -->
<g id="node13" class="node">
<title>5</title>
<ellipse fill="none" stroke="black" cx="476.47" cy="-437.67" rx="46.44" ry="18"/>
<text text-anchor="start" x="448.57" y="-437.21" font-family="Monaco" baseline-shift="super" font-size="8.00" fill="#ff4411">q3</text>
<text text-anchor="start" x="458.17" y="-437.21" font-family="Monaco" font-size="11.00">a[@d]=i</text>
</g>
<!-- 4&#45;&gt;5 -->
<g id="edge9" class="edge">
<title>4&#45;&gt;5</title>
<path fill="none" stroke="black" d="M476.47,-492.49C476.47,-484.46 476.47,-474.72 476.47,-465.74"/>
<polygon fill="black" stroke="black" points="479.97,-465.7 476.47,-455.7 472.97,-465.7 479.97,-465.7"/>
</g>
<!-- 6 -->
<g id="node14" class="node">
<title>6</title>
<ellipse fill="none" stroke="black" cx="715.47" cy="-510.67" rx="45.66" ry="18"/>
<text text-anchor="start" x="687.87" y="-510.21" font-family="Monaco" baseline-shift="super" font-size="8.00" fill="#ff4411">q5</text>
<text text-anchor="start" x="697.47" y="-510.21" font-family="Monaco" font-size="11.00">@e</text>
<text text-anchor="start" x="710.67" y="-510.21" font-family="Monaco" baseline-shift="super" font-size="8.00" fill="#00aa11">U2</text>
<text text-anchor="start" x="720.27" y="-510.21" font-family="Monaco" baseline-shift="super" font-size="8.00" fill="#3311ff">r0</text>
<text text-anchor="start" x="729.87" y="-510.21" font-family="Monaco" font-size="11.00">:2</text>
</g>
<!-- 7 -->
<g id="node15" class="node">
<title>7</title>
<ellipse fill="none" stroke="black" cx="884.47" cy="-510.67" rx="77.23" ry="18"/>
<text text-anchor="start" x="832.56" y="-510.21" font-family="Monaco" baseline-shift="super" font-size="8.00" fill="#ff4411">q7</text>
<text text-anchor="start" x="842.16" y="-510.21" font-family="Monaco" font-size="11.00">@g</text>
<text text-anchor="start" x="855.37" y="-510.21" font-family="Monaco" baseline-shift="super" font-size="8.00" fill="#00aa11">U2</text>
<text text-anchor="start" x="864.97" y="-510.21" font-family="Monaco" baseline-shift="super" font-size="8.00" fill="#3311ff">r0</text>
<text text-anchor="start" x="874.57" y="-510.21" font-family="Monaco" font-size="11.00">:1</text>
<text text-anchor="start" x="887.77" y="-510.21" font-family="Monaco" baseline-shift="super" font-size="8.00" fill="#00aa11">U2</text>
<text text-anchor="start" x="897.37" y="-510.21" font-family="Monaco" font-size="11.00">+</text>
<text text-anchor="start" x="903.97" y="-510.21" font-family="Monaco" baseline-shift="super" font-size="8.00" fill="#3311ff">Bin1</text>
<text text-anchor="start" x="923.18" y="-510.21" font-family="Monaco" font-size="11.00">@f</text>
</g>
</g>
</svg>
