<?xml version="1.0" encoding="UTF-8" standalone="no"?>
<!DOCTYPE svg PUBLIC "-//W3C//DTD SVG 1.1//EN"
 "http://www.w3.org/Graphics/SVG/1.1/DTD/svg11.dtd">
<!-- Generated by graphviz version 2.43.0 (0)
 -->
<!-- Title: Program_ Pages: 1 -->
<svg width="1248pt" height="577pt"
 viewBox="0.00 0.00 1248.47 576.68" xmlns="http://www.w3.org/2000/svg" xmlns:xlink="http://www.w3.org/1999/xlink">
<g id="graph0" class="graph" transform="scale(1 1) rotate(0) translate(4 572.68)">
<title>Program_</title>
<polygon fill="white" stroke="transparent" points="-4,4 -4,-572.68 1244.47,-572.68 1244.47,4 -4,4"/>
<g id="clust1" class="cluster">
<title>cluster_dfg_Block0</title>
<polygon fill="none" stroke="black" points="157.47,-338.67 157.47,-560.68 485.47,-560.68 485.47,-338.67 157.47,-338.67"/>
<text text-anchor="middle" x="321.47" y="-547.08" font-family="Monaco" font-size="12.00">Block0</text>
</g>
<g id="clust2" class="cluster">
<title>cluster_dfg_Block1</title>
<polygon fill="none" stroke="black" points="493.47,-411.67 493.47,-560.68 719.47,-560.68 719.47,-411.67 493.47,-411.67"/>
<text text-anchor="middle" x="606.47" y="-547.08" font-family="Monaco" font-size="12.00">Block1</text>
</g>
<g id="clust3" class="cluster">
<title>cluster_dfg_Block2</title>
<polygon fill="none" stroke="black" points="727.47,-411.67 727.47,-560.68 953.47,-560.68 953.47,-411.67 727.47,-411.67"/>
<text text-anchor="middle" x="840.47" y="-547.08" font-family="Monaco" font-size="12.00">Block2</text>
</g>
<g id="clust4" class="cluster">
<title>cluster_dfg_Block3</title>
<polygon fill="none" stroke="black" points="961.47,-338.67 961.47,-560.68 1232.47,-560.68 1232.47,-338.67 961.47,-338.67"/>
<text text-anchor="middle" x="1096.97" y="-547.08" font-family="Monaco" font-size="12.00">Block3</text>
</g>
<!-- Jump0 -->
<g id="node1" class="node">
<title>Jump0</title>
<polygon fill="none" stroke="black" points="124.08,-528.67 32.86,-528.67 32.86,-524.67 28.86,-524.67 28.86,-520.67 32.86,-520.67 32.86,-500.67 28.86,-500.67 28.86,-496.67 32.86,-496.67 32.86,-492.67 124.08,-492.67 124.08,-528.67"/>
<polyline fill="none" stroke="black" points="32.86,-524.67 36.86,-524.67 36.86,-520.67 32.86,-520.67 "/>
<polyline fill="none" stroke="black" points="32.86,-500.67 36.86,-500.67 36.86,-496.67 32.86,-496.67 "/>
<text text-anchor="start" x="40.66" y="-513.87" font-family="Monaco" font-size="11.00">StartFun.0</text>
<text text-anchor="start" x="106.68" y="-513.87" font-family="Monaco" baseline-shift="super" font-size="8.00" fill="#ff4411">q0</text>
<text text-anchor="start" x="75.17" y="-502.87" font-family="Monaco" font-size="11.00">i</text>
</g>
<!-- Block0 -->
<g id="node2" class="node">
<title>Block0</title>
<polygon fill="none" stroke="black" points="106.08,-455.67 50.86,-455.67 50.86,-419.67 106.08,-419.67 106.08,-455.67"/>
<text text-anchor="middle" x="78.47" y="-436.21" font-family="Monaco" font-size="11.00">Block0</text>
</g>
<!-- Jump0&#45;&gt;Block0 -->
<g id="edge1" class="edge">
<title>Jump0&#45;&gt;Block0</title>
<path fill="none" stroke="black" d="M78.47,-492.49C78.47,-484.46 78.47,-474.72 78.47,-465.74"/>
<polygon fill="black" stroke="black" points="81.97,-465.7 78.47,-455.7 74.97,-465.7 81.97,-465.7"/>
</g>
<!-- Jump1 -->
<g id="node3" class="node">
<title>Jump1</title>
<path fill="none" stroke="black" d="M108.08,-382.67C108.08,-382.67 48.87,-382.67 48.87,-382.67 42.87,-382.67 33.05,-378.04 29.24,-373.41 29.24,-373.41 14.86,-355.94 14.86,-355.94 11.04,-351.31 13.23,-346.67 19.23,-346.67 19.23,-346.67 137.71,-346.67 137.71,-346.67 143.71,-346.67 145.9,-351.31 142.09,-355.94 142.09,-355.94 127.7,-373.41 127.7,-373.41 123.89,-378.04 114.08,-382.67 108.08,-382.67"/>
<text text-anchor="start" x="47.27" y="-364.21" font-family="Monaco" font-size="11.00">Branch.1</text>
<text text-anchor="start" x="100.07" y="-364.21" font-family="Monaco" baseline-shift="super" font-size="8.00" fill="#ff4411">q2</text>
</g>
<!-- Block0&#45;&gt;Jump1 -->
<g id="edge2" class="edge">
<title>Block0&#45;&gt;Jump1</title>
<path fill="none" stroke="black" d="M78.47,-419.49C78.47,-411.46 78.47,-401.72 78.47,-392.74"/>
<polygon fill="black" stroke="black" points="81.97,-392.7 78.47,-382.7 74.97,-392.7 81.97,-392.7"/>
</g>
<!-- Block1 -->
<g id="node4" class="node">
<title>Block1</title>
<polygon fill="none" stroke="black" points="69.08,-296.01 13.86,-296.01 13.86,-260.01 69.08,-260.01 69.08,-296.01"/>
<text text-anchor="middle" x="41.47" y="-276.54" font-family="Monaco" font-size="11.00">Block1</text>
</g>
<!-- Jump1&#45;&gt;Block1 -->
<g id="edge3" class="edge">
<title>Jump1&#45;&gt;Block1</title>
<path fill="none" stroke="black" d="M70.98,-346.54C65.82,-334.72 58.85,-318.78 52.98,-305.35"/>
<polygon fill="black" stroke="black" points="56.16,-303.88 48.95,-296.11 49.74,-306.68 56.16,-303.88"/>
<text text-anchor="middle" x="69.07" y="-319.87" font-family="Monaco" font-size="11.00">@c</text>
</g>
<!-- Block2 -->
<g id="node5" class="node">
<title>Block2</title>
<polygon fill="none" stroke="black" points="143.08,-296.01 87.86,-296.01 87.86,-260.01 143.08,-260.01 143.08,-296.01"/>
<text text-anchor="middle" x="115.47" y="-276.54" font-family="Monaco" font-size="11.00">Block2</text>
</g>
<!-- Jump1&#45;&gt;Block2 -->
<g id="edge4" class="edge">
<title>Jump1&#45;&gt;Block2</title>
<path fill="none" stroke="black" d="M85.96,-346.54C91.12,-334.72 98.09,-318.78 103.96,-305.35"/>
<polygon fill="black" stroke="black" points="107.2,-306.68 107.99,-296.11 100.78,-303.88 107.2,-306.68"/>
<text text-anchor="middle" x="109.37" y="-319.87" font-family="Monaco" font-size="11.00">!@c</text>
</g>
<!-- Jump2 -->
<g id="node6" class="node">
<title>Jump2</title>
<path fill="none" stroke="black" d="M44.66,-173.34C44.66,-173.34 112.28,-173.34 112.28,-173.34 118.28,-173.34 128.31,-177.78 132.34,-182.23 132.34,-182.23 148.85,-200.45 148.85,-200.45 152.88,-204.89 150.91,-209.34 144.91,-209.34 144.91,-209.34 12.03,-209.34 12.03,-209.34 6.03,-209.34 4.06,-204.89 8.09,-200.45 8.09,-200.45 24.6,-182.23 24.6,-182.23 28.63,-177.78 38.66,-173.34 44.66,-173.34"/>
<text text-anchor="start" x="43.37" y="-190.87" font-family="Monaco" font-size="11.00">Merge.2</text>
<text text-anchor="start" x="89.57" y="-190.87" font-family="Monaco" baseline-shift="super" font-size="8.00" fill="#ff4411">q5|q4</text>
</g>
<!-- Block1&#45;&gt;Jump2 -->
<g id="edge5" class="edge">
<title>Block1&#45;&gt;Jump2</title>
<path fill="none" stroke="black" d="M48.96,-259.87C54.12,-248.05 61.09,-232.11 66.96,-218.68"/>
<polygon fill="black" stroke="black" points="70.2,-220.01 70.99,-209.45 63.78,-217.21 70.2,-220.01"/>
<text text-anchor="middle" x="69.07" y="-233.21" font-family="Monaco" font-size="11.00">@d</text>
</g>
<!-- Block2&#45;&gt;Jump2 -->
<g id="edge6" class="edge">
<title>Block2&#45;&gt;Jump2</title>
<path fill="none" stroke="black" d="M107.98,-259.87C102.82,-248.05 95.85,-232.11 89.98,-218.68"/>
<polygon fill="black" stroke="black" points="93.16,-217.21 85.95,-209.45 86.74,-220.01 93.16,-217.21"/>
<text text-anchor="middle" x="106.07" y="-233.21" font-family="Monaco" font-size="11.00">@e</text>
</g>
<!-- Block3 -->
<g id="node7" class="node">
<title>Block3</title>
<polygon fill="none" stroke="black" points="106.08,-122.67 50.86,-122.67 50.86,-86.67 106.08,-86.67 106.08,-122.67"/>
<text text-anchor="middle" x="78.47" y="-103.2" font-family="Monaco" font-size="11.00">Block3</text>
</g>
<!-- Jump2&#45;&gt;Block3 -->
<g id="edge7" class="edge">
<title>Jump2&#45;&gt;Block3</title>
<path fill="none" stroke="black" d="M78.47,-173.2C78.47,-161.61 78.47,-146.06 78.47,-132.8"/>
<polygon fill="black" stroke="black" points="81.97,-132.78 78.47,-122.78 74.97,-132.78 81.97,-132.78"/>
<text text-anchor="middle" x="85.07" y="-146.54" font-family="Monaco" font-size="11.00">@f</text>
</g>
<!-- Jump3 -->
<g id="node8" class="node">
<title>Jump3</title>
<polygon fill="none" stroke="black" points="117.88,-30 57.06,-30 57.06,-36 39.06,-18 57.06,0 57.06,-6 99.88,-6 99.88,0 117.88,0 117.88,-30"/>
<text text-anchor="start" x="47.27" y="-17.53" font-family="Monaco" font-size="11.00">Return.3</text>
<text text-anchor="start" x="100.07" y="-17.53" font-family="Monaco" baseline-shift="super" font-size="8.00" fill="#ff4411">q7</text>
</g>
<!-- Block3&#45;&gt;Jump3 -->
<g id="edge8" class="edge">
<title>Block3&#45;&gt;Jump3</title>
<path fill="none" stroke="black" d="M78.47,-86.53C78.47,-74.94 78.47,-59.39 78.47,-46.13"/>
<polygon fill="black" stroke="black" points="81.97,-46.11 78.47,-36.11 74.97,-46.11 81.97,-46.11"/>
<text text-anchor="middle" x="85.07" y="-59.87" font-family="Monaco" font-size="11.00">@g</text>
</g>
<!-- ndBlock0_0 -->
<g id="node9" class="node">
<title>ndBlock0_0</title>
<ellipse fill="none" stroke="black" cx="321.47" cy="-510.67" rx="45.66" ry="18"/>
<text text-anchor="start" x="293.87" y="-510.21" font-family="Monaco" font-size="11.00">@b</text>
<text text-anchor="start" x="307.07" y="-510.21" font-family="Monaco" baseline-shift="super" font-size="8.00" fill="#00dd33">U1</text>
<text text-anchor="start" x="316.67" y="-510.21" font-family="Monaco" baseline-shift="super" font-size="8.00" fill="#3311ff">r1</text>
<text text-anchor="start" x="326.27" y="-510.21" font-family="Monaco" font-size="11.00">:0</text>
<text text-anchor="start" x="339.47" y="-510.21" font-family="Monaco" baseline-shift="super" font-size="8.00" fill="#ff4411">q0</text>
</g>
<!-- ndBlock0_4 -->
<g id="node13" class="node">
<title>ndBlock0_4</title>
<ellipse fill="none" stroke="black" cx="266.47" cy="-437.67" rx="75.37" ry="18"/>
<text text-anchor="start" x="216.06" y="-437.21" font-family="Monaco" font-size="11.00">@c</text>
<text text-anchor="start" x="229.27" y="-437.21" font-family="Monaco" baseline-shift="super" font-size="8.00" fill="#00dd33">U1</text>
<text text-anchor="start" x="238.87" y="-437.21" font-family="Monaco" baseline-shift="super" font-size="8.00" fill="#3311ff">r0</text>
<text text-anchor="start" x="248.47" y="-437.21" font-family="Monaco" font-size="11.00">:i==</text>
<text text-anchor="start" x="274.87" y="-437.21" font-family="Monaco" baseline-shift="super" font-size="8.00" fill="#3311ff">Bin0</text>
<text text-anchor="start" x="294.08" y="-437.21" font-family="Monaco" font-size="11.00">@b</text>
<text text-anchor="start" x="307.28" y="-437.21" font-family="Monaco" baseline-shift="super" font-size="8.00" fill="#ff4411">q1</text>
</g>
<!-- ndBlock0_0&#45;&gt;ndBlock0_4 -->
<g id="edge9" class="edge">
<title>ndBlock0_0&#45;&gt;ndBlock0_4</title>
<path fill="none" stroke="black" d="M308.71,-493.21C301.87,-484.37 293.3,-473.31 285.67,-463.46"/>
<polygon fill="black" stroke="black" points="288.43,-461.31 279.54,-455.54 282.9,-465.59 288.43,-461.31"/>
</g>
<!-- ndBlock0_1 -->
<g id="node10" class="node">
<title>ndBlock0_1</title>
<ellipse fill="none" stroke="black" cx="431.47" cy="-510.67" rx="45.66" ry="18"/>
<text text-anchor="start" x="403.87" y="-510.21" font-family="Monaco" font-size="11.00">@a</text>
<text text-anchor="start" x="417.07" y="-510.21" font-family="Monaco" baseline-shift="super" font-size="8.00" fill="#00dd33">U2</text>
<text text-anchor="start" x="426.67" y="-510.21" font-family="Monaco" baseline-shift="super" font-size="8.00" fill="#3311ff">r2</text>
<text text-anchor="start" x="436.27" y="-510.21" font-family="Monaco" font-size="11.00">:1</text>
<text text-anchor="start" x="449.47" y="-510.21" font-family="Monaco" baseline-shift="super" font-size="8.00" fill="#ff4411">q0</text>
</g>
<!-- ndBlock0_5 -->
<g id="node14" class="node">
<title>ndBlock0_5</title>
<ellipse fill="none" stroke="black" cx="431.47" cy="-437.67" rx="46.44" ry="18"/>
<text text-anchor="start" x="403.57" y="-437.21" font-family="Monaco" font-size="11.00">out(@a)</text>
<text text-anchor="start" x="449.77" y="-437.21" font-family="Monaco" baseline-shift="super" font-size="8.00" fill="#ff4411">q2</text>
</g>
<!-- ndBlock0_1&#45;&gt;ndBlock0_5 -->
<g id="edge11" class="edge">
<title>ndBlock0_1&#45;&gt;ndBlock0_5</title>
<path fill="none" stroke="black" d="M431.47,-492.49C431.47,-484.46 431.47,-474.72 431.47,-465.74"/>
<polygon fill="black" stroke="black" points="434.97,-465.7 431.47,-455.7 427.97,-465.7 434.97,-465.7"/>
</g>
<!-- ndBlock0_2 -->
<g id="node11" class="node">
<title>ndBlock0_2</title>
<ellipse fill="none" stroke="black" cx="211.47" cy="-510.67" rx="45.66" ry="18"/>
<text text-anchor="start" x="183.87" y="-510.21" font-family="Monaco" font-size="11.00">i</text>
<text text-anchor="start" x="190.47" y="-510.21" font-family="Monaco" baseline-shift="super" font-size="8.00" fill="#00dd33">U1</text>
<text text-anchor="start" x="200.07" y="-510.21" font-family="Monaco" baseline-shift="super" font-size="8.00" fill="#3311ff">r0</text>
<text text-anchor="start" x="209.67" y="-510.21" font-family="Monaco" font-size="11.00">:in</text>
<text text-anchor="start" x="229.47" y="-510.21" font-family="Monaco" baseline-shift="super" font-size="8.00" fill="#ff4411">q0</text>
</g>
<!-- ndBlock0_2&#45;&gt;ndBlock0_4 -->
<g id="edge10" class="edge">
<title>ndBlock0_2&#45;&gt;ndBlock0_4</title>
<path fill="none" stroke="black" d="M224.23,-493.21C231.07,-484.37 239.64,-473.31 247.27,-463.46"/>
<polygon fill="black" stroke="black" points="250.04,-465.59 253.4,-455.54 244.51,-461.31 250.04,-465.59"/>
</g>
<!-- ndBlock0_3 -->
<g id="node12" class="node">
<title>ndBlock0_3</title>
<ellipse fill="none" stroke="black" cx="266.47" cy="-364.67" rx="46.44" ry="18"/>
<text text-anchor="start" x="238.57" y="-364.21" font-family="Monaco" font-size="11.00">out(@c)</text>
<text text-anchor="start" x="284.77" y="-364.21" font-family="Monaco" baseline-shift="super" font-size="8.00" fill="#ff4411">q2</text>
</g>
<!-- ndBlock0_4&#45;&gt;ndBlock0_3 -->
<g id="edge12" class="edge">
<title>ndBlock0_4&#45;&gt;ndBlock0_3</title>
<path fill="none" stroke="black" d="M266.47,-419.49C266.47,-411.46 266.47,-401.72 266.47,-392.74"/>
<polygon fill="black" stroke="black" points="269.97,-392.7 266.47,-382.7 262.97,-392.7 269.97,-392.7"/>
</g>
<!-- ndBlock1_0 -->
<g id="node15" class="node">
<title>ndBlock1_0</title>
<ellipse fill="none" stroke="black" cx="665.47" cy="-510.67" rx="45.66" ry="18"/>
<text text-anchor="start" x="637.87" y="-510.21" font-family="Monaco" font-size="11.00">@d</text>
<text text-anchor="start" x="651.07" y="-510.21" font-family="Monaco" baseline-shift="super" font-size="8.00" fill="#00dd33">U2</text>
<text text-anchor="start" x="660.67" y="-510.21" font-family="Monaco" baseline-shift="super" font-size="8.00" fill="#3311ff">r0</text>
<text text-anchor="start" x="670.27" y="-510.21" font-family="Monaco" font-size="11.00">:1</text>
<text text-anchor="start" x="683.47" y="-510.21" font-family="Monaco" baseline-shift="super" font-size="8.00" fill="#ff4411">q2</text>
</g>
<!-- ndBlock1_3 -->
<g id="node18" class="node">
<title>ndBlock1_3</title>
<ellipse fill="none" stroke="black" cx="665.47" cy="-437.67" rx="46.44" ry="18"/>
<text text-anchor="start" x="637.57" y="-437.21" font-family="Monaco" font-size="11.00">out(@d)</text>
<text text-anchor="start" x="683.77" y="-437.21" font-family="Monaco" baseline-shift="super" font-size="8.00" fill="#ff4411">q4</text>
</g>
<!-- ndBlock1_0&#45;&gt;ndBlock1_3 -->
<g id="edge14" class="edge">
<title>ndBlock1_0&#45;&gt;ndBlock1_3</title>
<path fill="none" stroke="black" d="M665.47,-492.49C665.47,-484.46 665.47,-474.72 665.47,-465.74"/>
<polygon fill="black" stroke="black" points="668.97,-465.7 665.47,-455.7 661.97,-465.7 668.97,-465.7"/>
</g>
<!-- ndBlock1_1 -->
<g id="node16" class="node">
<title>ndBlock1_1</title>
<ellipse fill="none" stroke="black" cx="551.47" cy="-510.67" rx="50.16" ry="18"/>
<text text-anchor="start" x="520.57" y="-510.21" font-family="Monaco" font-size="11.00">@a</text>
<text text-anchor="start" x="533.77" y="-510.21" font-family="Monaco" baseline-shift="super" font-size="8.00" fill="#00dd33">U2</text>
<text text-anchor="start" x="543.37" y="-510.21" font-family="Monaco" baseline-shift="super" font-size="8.00" fill="#3311ff">r2</text>
<text text-anchor="start" x="552.97" y="-510.21" font-family="Monaco" font-size="11.00">:in</text>
<text text-anchor="start" x="572.77" y="-510.21" font-family="Monaco" baseline-shift="super" font-size="8.00" fill="#ff4411">q2</text>
</g>
<!-- ndBlock1_2 -->
<g id="node17" class="node">
<title>ndBlock1_2</title>
<ellipse fill="none" stroke="black" cx="551.47" cy="-437.67" rx="46.44" ry="18"/>
<text text-anchor="start" x="523.57" y="-437.21" font-family="Monaco" font-size="11.00">out(@a)</text>
<text text-anchor="start" x="569.77" y="-437.21" font-family="Monaco" baseline-shift="super" font-size="8.00" fill="#ff4411">q4</text>
</g>
<!-- ndBlock1_1&#45;&gt;ndBlock1_2 -->
<g id="edge13" class="edge">
<title>ndBlock1_1&#45;&gt;ndBlock1_2</title>
<path fill="none" stroke="black" d="M551.47,-492.49C551.47,-484.46 551.47,-474.72 551.47,-465.74"/>
<polygon fill="black" stroke="black" points="554.97,-465.7 551.47,-455.7 547.97,-465.7 554.97,-465.7"/>
</g>
<!-- ndBlock2_0 -->
<g id="node19" class="node">
<title>ndBlock2_0</title>
<ellipse fill="none" stroke="black" cx="899.47" cy="-510.67" rx="45.66" ry="18"/>
<text text-anchor="start" x="871.87" y="-510.21" font-family="Monaco" font-size="11.00">@e</text>
<text text-anchor="start" x="885.07" y="-510.21" font-family="Monaco" baseline-shift="super" font-size="8.00" fill="#00dd33">U2</text>
<text text-anchor="start" x="894.67" y="-510.21" font-family="Monaco" baseline-shift="super" font-size="8.00" fill="#3311ff">r0</text>
<text text-anchor="start" x="904.27" y="-510.21" font-family="Monaco" font-size="11.00">:0</text>
<text text-anchor="start" x="917.47" y="-510.21" font-family="Monaco" baseline-shift="super" font-size="8.00" fill="#ff4411">q2</text>
</g>
<!-- ndBlock2_3 -->
<g id="node22" class="node">
<title>ndBlock2_3</title>
<ellipse fill="none" stroke="black" cx="899.47" cy="-437.67" rx="46.44" ry="18"/>
<text text-anchor="start" x="871.57" y="-437.21" font-family="Monaco" font-size="11.00">out(@e)</text>
<text text-anchor="start" x="917.77" y="-437.21" font-family="Monaco" baseline-shift="super" font-size="8.00" fill="#ff4411">q5</text>
</g>
<!-- ndBlock2_0&#45;&gt;ndBlock2_3 -->
<g id="edge16" class="edge">
<title>ndBlock2_0&#45;&gt;ndBlock2_3</title>
<path fill="none" stroke="black" d="M899.47,-492.49C899.47,-484.46 899.47,-474.72 899.47,-465.74"/>
<polygon fill="black" stroke="black" points="902.97,-465.7 899.47,-455.7 895.97,-465.7 902.97,-465.7"/>
</g>
<!-- ndBlock2_1 -->
<g id="node20" class="node">
<title>ndBlock2_1</title>
<ellipse fill="none" stroke="black" cx="785.47" cy="-510.67" rx="50.16" ry="18"/>
<text text-anchor="start" x="754.57" y="-510.21" font-family="Monaco" font-size="11.00">@a</text>
<text text-anchor="start" x="767.77" y="-510.21" font-family="Monaco" baseline-shift="super" font-size="8.00" fill="#00dd33">U2</text>
<text text-anchor="start" x="777.37" y="-510.21" font-family="Monaco" baseline-shift="super" font-size="8.00" fill="#3311ff">r2</text>
<text text-anchor="start" x="786.97" y="-510.21" font-family="Monaco" font-size="11.00">:in</text>
<text text-anchor="start" x="806.77" y="-510.21" font-family="Monaco" baseline-shift="super" font-size="8.00" fill="#ff4411">q2</text>
</g>
<!-- ndBlock2_2 -->
<g id="node21" class="node">
<title>ndBlock2_2</title>
<ellipse fill="none" stroke="black" cx="785.47" cy="-437.67" rx="46.44" ry="18"/>
<text text-anchor="start" x="757.57" y="-437.21" font-family="Monaco" font-size="11.00">out(@a)</text>
<text text-anchor="start" x="803.77" y="-437.21" font-family="Monaco" baseline-shift="super" font-size="8.00" fill="#ff4411">q5</text>
</g>
<!-- ndBlock2_1&#45;&gt;ndBlock2_2 -->
<g id="edge15" class="edge">
<title>ndBlock2_1&#45;&gt;ndBlock2_2</title>
<path fill="none" stroke="black" d="M785.47,-492.49C785.47,-484.46 785.47,-474.72 785.47,-465.74"/>
<polygon fill="black" stroke="black" points="788.97,-465.7 785.47,-455.7 781.97,-465.7 788.97,-465.7"/>
</g>
<!-- ndBlock3_0 -->
<g id="node23" class="node">
<title>ndBlock3_0</title>
<ellipse fill="none" stroke="black" cx="1096.47" cy="-437.67" rx="75.37" ry="18"/>
<text text-anchor="start" x="1046.06" y="-437.21" font-family="Monaco" font-size="11.00">@g</text>
<text text-anchor="start" x="1059.27" y="-437.21" font-family="Monaco" baseline-shift="super" font-size="8.00" fill="#00dd33">U2</text>
<text text-anchor="start" x="1068.87" y="-437.21" font-family="Monaco" baseline-shift="super" font-size="8.00" fill="#3311ff">r0</text>
<text text-anchor="start" x="1078.47" y="-437.21" font-family="Monaco" font-size="11.00">:@a+</text>
<text text-anchor="start" x="1104.87" y="-437.21" font-family="Monaco" baseline-shift="super" font-size="8.00" fill="#3311ff">Bin1</text>
<text text-anchor="start" x="1124.08" y="-437.21" font-family="Monaco" font-size="11.00">@f</text>
<text text-anchor="start" x="1137.28" y="-437.21" font-family="Monaco" baseline-shift="super" font-size="8.00" fill="#ff4411">q6</text>
</g>
<!-- ndBlock3_3 -->
<g id="node26" class="node">
<title>ndBlock3_3</title>
<ellipse fill="none" stroke="black" cx="1096.47" cy="-364.67" rx="46.44" ry="18"/>
<text text-anchor="start" x="1068.57" y="-364.21" font-family="Monaco" font-size="11.00">out(@g)</text>
<text text-anchor="start" x="1114.77" y="-364.21" font-family="Monaco" baseline-shift="super" font-size="8.00" fill="#ff4411">q7</text>
</g>
<!-- ndBlock3_0&#45;&gt;ndBlock3_3 -->
<g id="edge19" class="edge">
<title>ndBlock3_0&#45;&gt;ndBlock3_3</title>
<path fill="none" stroke="black" d="M1096.47,-419.49C1096.47,-411.46 1096.47,-401.72 1096.47,-392.74"/>
<polygon fill="black" stroke="black" points="1099.97,-392.7 1096.47,-382.7 1092.97,-392.7 1099.97,-392.7"/>
</g>
<!-- ndBlock3_1 -->
<g id="node24" class="node">
<title>ndBlock3_1</title>
<ellipse fill="none" stroke="black" cx="1165.47" cy="-510.67" rx="59.2" ry="18"/>
<text text-anchor="start" x="1127.36" y="-510.21" font-family="Monaco" font-size="11.00">@a</text>
<text text-anchor="start" x="1140.57" y="-510.21" font-family="Monaco" baseline-shift="super" font-size="8.00" fill="#00dd33">U2</text>
<text text-anchor="start" x="1150.17" y="-510.21" font-family="Monaco" baseline-shift="super" font-size="8.00" fill="#3311ff">r2</text>
<text text-anchor="start" x="1159.77" y="-510.21" font-family="Monaco" font-size="11.00">:in</text>
<text text-anchor="start" x="1179.57" y="-510.21" font-family="Monaco" baseline-shift="super" font-size="8.00" fill="#ff4411">q5|q4</text>
</g>
<!-- ndBlock3_1&#45;&gt;ndBlock3_0 -->
<g id="edge17" class="edge">
<title>ndBlock3_1&#45;&gt;ndBlock3_0</title>
<path fill="none" stroke="black" d="M1149.47,-493.21C1140.71,-484.2 1129.7,-472.86 1119.98,-462.87"/>
<polygon fill="black" stroke="black" points="1122.35,-460.28 1112.87,-455.54 1117.33,-465.16 1122.35,-460.28"/>
</g>
<!-- ndBlock3_2 -->
<g id="node25" class="node">
<title>ndBlock3_2</title>
<ellipse fill="none" stroke="black" cx="1028.47" cy="-510.67" rx="59.2" ry="18"/>
<text text-anchor="start" x="990.36" y="-510.21" font-family="Monaco" font-size="11.00">@f</text>
<text text-anchor="start" x="1003.57" y="-510.21" font-family="Monaco" baseline-shift="super" font-size="8.00" fill="#00dd33">U2</text>
<text text-anchor="start" x="1013.17" y="-510.21" font-family="Monaco" baseline-shift="super" font-size="8.00" fill="#3311ff">r0</text>
<text text-anchor="start" x="1022.77" y="-510.21" font-family="Monaco" font-size="11.00">:in</text>
<text text-anchor="start" x="1042.57" y="-510.21" font-family="Monaco" baseline-shift="super" font-size="8.00" fill="#ff4411">q5|q4</text>
</g>
<!-- ndBlock3_2&#45;&gt;ndBlock3_0 -->
<g id="edge18" class="edge">
<title>ndBlock3_2&#45;&gt;ndBlock3_0</title>
<path fill="none" stroke="black" d="M1044.24,-493.21C1052.87,-484.2 1063.72,-472.86 1073.3,-462.87"/>
<polygon fill="black" stroke="black" points="1075.92,-465.19 1080.31,-455.54 1070.87,-460.35 1075.92,-465.19"/>
</g>
</g>
</svg>
