<?xml version="1.0" encoding="UTF-8" standalone="no"?>
<!DOCTYPE svg PUBLIC "-//W3C//DTD SVG 1.1//EN"
 "http://www.w3.org/Graphics/SVG/1.1/DTD/svg11.dtd">
<!-- Generated by graphviz version 2.43.0 (0)
 -->
<!-- Title: Program_ Pages: 1 -->
<svg width="919pt" height="585pt"
 viewBox="0.00 0.00 919.47 584.67" xmlns="http://www.w3.org/2000/svg" xmlns:xlink="http://www.w3.org/1999/xlink">
<g id="graph0" class="graph" transform="scale(1 1) rotate(0) translate(4 580.67)">
<title>Program_</title>
<polygon fill="white" stroke="transparent" points="-4,4 -4,-580.67 915.47,-580.67 915.47,4 -4,4"/>
<g id="clust4" class="cluster">
<title>cluster_dfg_Block3</title>
<polygon fill="none" stroke="black" points="737.47,-484.67 737.47,-568.67 903.47,-568.67 903.47,-484.67 737.47,-484.67"/>
<text text-anchor="start" x="798.87" y="-556.07" font-family="Monaco" font-size="12.00">Block3</text>
<text text-anchor="start" x="752.06" y="-544.07" font-family="Monaco" font-size="12.00">(@a</text>
<text text-anchor="start" x="773.66" y="-544.07" font-family="Monaco" baseline-shift="super" font-size="8.00" fill="#00aa11">U2</text>
<text text-anchor="start" x="783.27" y="-544.07" font-family="Monaco" baseline-shift="super" font-size="8.00" fill="#3311ff">r1</text>
<text text-anchor="start" x="792.87" y="-544.07" font-family="Monaco" font-size="12.00">,@f</text>
<text text-anchor="start" x="814.47" y="-544.07" font-family="Monaco" baseline-shift="super" font-size="8.00" fill="#00aa11">U2</text>
<text text-anchor="start" x="824.07" y="-544.07" font-family="Monaco" baseline-shift="super" font-size="8.00" fill="#3311ff">r0</text>
<text text-anchor="start" x="833.67" y="-544.07" font-family="Monaco" font-size="12.00">=&gt;@g</text>
<text text-anchor="start" x="862.48" y="-544.07" font-family="Monaco" baseline-shift="super" font-size="8.00" fill="#00aa11">U2</text>
<text text-anchor="start" x="872.08" y="-544.07" font-family="Monaco" baseline-shift="super" font-size="8.00" fill="#3311ff">r0</text>
<text text-anchor="start" x="881.68" y="-544.07" font-family="Monaco" font-size="12.00">)</text>
</g>
<g id="clust1" class="cluster">
<title>cluster_dfg_Block0</title>
<polygon fill="none" stroke="black" points="134.47,-411.67 134.47,-568.67 352.47,-568.67 352.47,-411.67 134.47,-411.67"/>
<text text-anchor="start" x="221.87" y="-556.07" font-family="Monaco" font-size="12.00">Block0</text>
<text text-anchor="start" x="161.86" y="-544.07" font-family="Monaco" font-size="12.00">(i</text>
<text text-anchor="start" x="176.26" y="-544.07" font-family="Monaco" baseline-shift="super" font-size="8.00" fill="#00aa11">U1</text>
<text text-anchor="start" x="185.86" y="-544.07" font-family="Monaco" baseline-shift="super" font-size="8.00" fill="#3311ff">r0</text>
<text text-anchor="start" x="195.46" y="-544.07" font-family="Monaco" font-size="12.00">=&gt;@a</text>
<text text-anchor="start" x="224.27" y="-544.07" font-family="Monaco" baseline-shift="super" font-size="8.00" fill="#00aa11">U2</text>
<text text-anchor="start" x="233.87" y="-544.07" font-family="Monaco" baseline-shift="super" font-size="8.00" fill="#3311ff">r1</text>
<text text-anchor="start" x="243.47" y="-544.07" font-family="Monaco" font-size="12.00">,i</text>
<text text-anchor="start" x="257.87" y="-544.07" font-family="Monaco" baseline-shift="super" font-size="8.00" fill="#00aa11">U1</text>
<text text-anchor="start" x="267.48" y="-544.07" font-family="Monaco" baseline-shift="super" font-size="8.00" fill="#3311ff">r0</text>
<text text-anchor="start" x="277.08" y="-544.07" font-family="Monaco" font-size="12.00">,@c</text>
<text text-anchor="start" x="298.68" y="-544.07" font-family="Monaco" baseline-shift="super" font-size="8.00" fill="#00aa11">U1</text>
<text text-anchor="start" x="308.28" y="-544.07" font-family="Monaco" baseline-shift="super" font-size="8.00" fill="#3311ff">r2</text>
<text text-anchor="start" x="317.88" y="-544.07" font-family="Monaco" font-size="12.00">)</text>
</g>
<g id="clust2" class="cluster">
<title>cluster_dfg_Block1</title>
<polygon fill="none" stroke="black" points="360.47,-411.67 360.47,-568.67 569.47,-568.67 569.47,-411.67 360.47,-411.67"/>
<text text-anchor="start" x="443.37" y="-556.07" font-family="Monaco" font-size="12.00">Block1</text>
<text text-anchor="start" x="383.36" y="-544.07" font-family="Monaco" font-size="12.00">(@a</text>
<text text-anchor="start" x="404.96" y="-544.07" font-family="Monaco" baseline-shift="super" font-size="8.00" fill="#00aa11">U2</text>
<text text-anchor="start" x="414.56" y="-544.07" font-family="Monaco" baseline-shift="super" font-size="8.00" fill="#3311ff">r1</text>
<text text-anchor="start" x="424.16" y="-544.07" font-family="Monaco" font-size="12.00">,i</text>
<text text-anchor="start" x="438.57" y="-544.07" font-family="Monaco" baseline-shift="super" font-size="8.00" fill="#00aa11">U1</text>
<text text-anchor="start" x="448.17" y="-544.07" font-family="Monaco" baseline-shift="super" font-size="8.00" fill="#3311ff">r0</text>
<text text-anchor="start" x="457.77" y="-544.07" font-family="Monaco" font-size="12.00">=&gt;@a</text>
<text text-anchor="start" x="486.57" y="-544.07" font-family="Monaco" baseline-shift="super" font-size="8.00" fill="#00aa11">U2</text>
<text text-anchor="start" x="496.18" y="-544.07" font-family="Monaco" baseline-shift="super" font-size="8.00" fill="#3311ff">r1</text>
<text text-anchor="start" x="505.78" y="-544.07" font-family="Monaco" font-size="12.00">,b</text>
<text text-anchor="start" x="520.18" y="-544.07" font-family="Monaco" baseline-shift="super" font-size="8.00" fill="#00aa11">U2</text>
<text text-anchor="start" x="529.78" y="-544.07" font-family="Monaco" baseline-shift="super" font-size="8.00" fill="#3311ff">r3</text>
<text text-anchor="start" x="539.38" y="-544.07" font-family="Monaco" font-size="12.00">)</text>
</g>
<g id="clust3" class="cluster">
<title>cluster_dfg_Block2</title>
<polygon fill="none" stroke="black" points="577.47,-484.67 577.47,-568.67 729.47,-568.67 729.47,-484.67 577.47,-484.67"/>
<text text-anchor="start" x="631.87" y="-556.07" font-family="Monaco" font-size="12.00">Block2</text>
<text text-anchor="start" x="585.06" y="-544.07" font-family="Monaco" font-size="12.00">(@a</text>
<text text-anchor="start" x="606.66" y="-544.07" font-family="Monaco" baseline-shift="super" font-size="8.00" fill="#00aa11">U2</text>
<text text-anchor="start" x="616.27" y="-544.07" font-family="Monaco" baseline-shift="super" font-size="8.00" fill="#3311ff">r1</text>
<text text-anchor="start" x="625.87" y="-544.07" font-family="Monaco" font-size="12.00">=&gt;@a</text>
<text text-anchor="start" x="654.67" y="-544.07" font-family="Monaco" baseline-shift="super" font-size="8.00" fill="#00aa11">U2</text>
<text text-anchor="start" x="664.27" y="-544.07" font-family="Monaco" baseline-shift="super" font-size="8.00" fill="#3311ff">r1</text>
<text text-anchor="start" x="673.87" y="-544.07" font-family="Monaco" font-size="12.00">,@e</text>
<text text-anchor="start" x="695.48" y="-544.07" font-family="Monaco" baseline-shift="super" font-size="8.00" fill="#00aa11">U2</text>
<text text-anchor="start" x="705.08" y="-544.07" font-family="Monaco" baseline-shift="super" font-size="8.00" fill="#3311ff">r0</text>
<text text-anchor="start" x="714.68" y="-544.07" font-family="Monaco" font-size="12.00">)</text>
</g>
<!-- Jump0 -->
<g id="node1" class="node">
<title>Jump0</title>
<polygon fill="none" stroke="black" points="124.08,-528.67 32.86,-528.67 32.86,-524.67 28.86,-524.67 28.86,-520.67 32.86,-520.67 32.86,-500.67 28.86,-500.67 28.86,-496.67 32.86,-496.67 32.86,-492.67 124.08,-492.67 124.08,-528.67"/>
<polyline fill="none" stroke="black" points="32.86,-524.67 36.86,-524.67 36.86,-520.67 32.86,-520.67 "/>
<polyline fill="none" stroke="black" points="32.86,-500.67 36.86,-500.67 36.86,-496.67 32.86,-496.67 "/>
<text text-anchor="start" x="40.66" y="-513.87" font-family="Monaco" font-size="11.00">StartFun.0</text>
<text text-anchor="start" x="106.68" y="-513.87" font-family="Monaco" baseline-shift="super" font-size="8.00" fill="#ff4411">q0</text>
<text text-anchor="start" x="65.57" y="-502.87" font-family="Monaco" font-size="11.00">i</text>
<text text-anchor="start" x="72.17" y="-502.87" font-family="Monaco" baseline-shift="super" font-size="8.00" fill="#00aa11">U1</text>
<text text-anchor="start" x="81.77" y="-502.87" font-family="Monaco" baseline-shift="super" font-size="8.00" fill="#3311ff">r0</text>
</g>
<!-- Block0 -->
<g id="node2" class="node">
<title>Block0</title>
<polygon fill="none" stroke="black" points="106.08,-455.67 50.86,-455.67 50.86,-419.67 106.08,-419.67 106.08,-455.67"/>
<text text-anchor="middle" x="78.47" y="-436.21" font-family="Monaco" font-size="11.00">Block0</text>
</g>
<!-- Jump0&#45;&gt;Block0 -->
<g id="edge1" class="edge">
<title>Jump0&#45;&gt;Block0</title>
<path fill="none" stroke="black" d="M78.47,-492.49C78.47,-484.46 78.47,-474.72 78.47,-465.74"/>
<polygon fill="black" stroke="black" points="81.97,-465.7 78.47,-455.7 74.97,-465.7 81.97,-465.7"/>
</g>
<!-- Jump1 -->
<g id="node3" class="node">
<title>Jump1</title>
<path fill="none" stroke="black" d="M108.08,-382.67C108.08,-382.67 48.87,-382.67 48.87,-382.67 42.87,-382.67 33.05,-378.04 29.24,-373.41 29.24,-373.41 14.86,-355.94 14.86,-355.94 11.04,-351.31 13.23,-346.67 19.23,-346.67 19.23,-346.67 137.71,-346.67 137.71,-346.67 143.71,-346.67 145.9,-351.31 142.09,-355.94 142.09,-355.94 127.7,-373.41 127.7,-373.41 123.89,-378.04 114.08,-382.67 108.08,-382.67"/>
<text text-anchor="start" x="47.27" y="-364.21" font-family="Monaco" font-size="11.00">Branch.1</text>
<text text-anchor="start" x="100.07" y="-364.21" font-family="Monaco" baseline-shift="super" font-size="8.00" fill="#ff4411">q2</text>
</g>
<!-- Block0&#45;&gt;Jump1 -->
<g id="edge2" class="edge">
<title>Block0&#45;&gt;Jump1</title>
<path fill="none" stroke="black" d="M78.47,-419.49C78.47,-411.46 78.47,-401.72 78.47,-392.74"/>
<polygon fill="black" stroke="black" points="81.97,-392.7 78.47,-382.7 74.97,-392.7 81.97,-392.7"/>
</g>
<!-- Block1 -->
<g id="node4" class="node">
<title>Block1</title>
<polygon fill="none" stroke="black" points="69.08,-296.01 13.86,-296.01 13.86,-260.01 69.08,-260.01 69.08,-296.01"/>
<text text-anchor="middle" x="41.47" y="-276.54" font-family="Monaco" font-size="11.00">Block1</text>
</g>
<!-- Jump1&#45;&gt;Block1 -->
<g id="edge3" class="edge">
<title>Jump1&#45;&gt;Block1</title>
<path fill="none" stroke="black" d="M70.98,-346.54C65.82,-334.72 58.85,-318.78 52.98,-305.35"/>
<polygon fill="black" stroke="black" points="56.16,-303.88 48.95,-296.11 49.74,-306.68 56.16,-303.88"/>
<text text-anchor="middle" x="69.07" y="-319.87" font-family="Monaco" font-size="11.00">@c</text>
</g>
<!-- Block2 -->
<g id="node5" class="node">
<title>Block2</title>
<polygon fill="none" stroke="black" points="143.08,-296.01 87.86,-296.01 87.86,-260.01 143.08,-260.01 143.08,-296.01"/>
<text text-anchor="middle" x="115.47" y="-276.54" font-family="Monaco" font-size="11.00">Block2</text>
</g>
<!-- Jump1&#45;&gt;Block2 -->
<g id="edge4" class="edge">
<title>Jump1&#45;&gt;Block2</title>
<path fill="none" stroke="black" d="M85.96,-346.54C91.12,-334.72 98.09,-318.78 103.96,-305.35"/>
<polygon fill="black" stroke="black" points="107.2,-306.68 107.99,-296.11 100.78,-303.88 107.2,-306.68"/>
<text text-anchor="middle" x="109.37" y="-319.87" font-family="Monaco" font-size="11.00">!@c</text>
</g>
<!-- Jump2 -->
<g id="node6" class="node">
<title>Jump2</title>
<path fill="none" stroke="black" d="M44.66,-173.34C44.66,-173.34 112.28,-173.34 112.28,-173.34 118.28,-173.34 128.31,-177.78 132.34,-182.23 132.34,-182.23 148.85,-200.45 148.85,-200.45 152.88,-204.89 150.91,-209.34 144.91,-209.34 144.91,-209.34 12.03,-209.34 12.03,-209.34 6.03,-209.34 4.06,-204.89 8.09,-200.45 8.09,-200.45 24.6,-182.23 24.6,-182.23 28.63,-177.78 38.66,-173.34 44.66,-173.34"/>
<text text-anchor="start" x="43.37" y="-190.87" font-family="Monaco" font-size="11.00">Merge.2</text>
<text text-anchor="start" x="89.57" y="-190.87" font-family="Monaco" baseline-shift="super" font-size="8.00" fill="#ff4411">q5|q7</text>
</g>
<!-- Block1&#45;&gt;Jump2 -->
<g id="edge5" class="edge">
<title>Block1&#45;&gt;Jump2</title>
<path fill="none" stroke="black" d="M48.96,-259.87C54.12,-248.05 61.09,-232.11 66.96,-218.68"/>
<polygon fill="black" stroke="black" points="70.2,-220.01 70.99,-209.45 63.78,-217.21 70.2,-220.01"/>
<text text-anchor="middle" x="65.77" y="-233.21" font-family="Monaco" font-size="11.00">b</text>
</g>
<!-- Block2&#45;&gt;Jump2 -->
<g id="edge6" class="edge">
<title>Block2&#45;&gt;Jump2</title>
<path fill="none" stroke="black" d="M107.98,-259.87C102.82,-248.05 95.85,-232.11 89.98,-218.68"/>
<polygon fill="black" stroke="black" points="93.16,-217.21 85.95,-209.45 86.74,-220.01 93.16,-217.21"/>
<text text-anchor="middle" x="106.07" y="-233.21" font-family="Monaco" font-size="11.00">@e</text>
</g>
<!-- Block3 -->
<g id="node7" class="node">
<title>Block3</title>
<polygon fill="none" stroke="black" points="106.08,-122.67 50.86,-122.67 50.86,-86.67 106.08,-86.67 106.08,-122.67"/>
<text text-anchor="middle" x="78.47" y="-103.2" font-family="Monaco" font-size="11.00">Block3</text>
</g>
<!-- Jump2&#45;&gt;Block3 -->
<g id="edge7" class="edge">
<title>Jump2&#45;&gt;Block3</title>
<path fill="none" stroke="black" d="M78.47,-173.2C78.47,-161.61 78.47,-146.06 78.47,-132.8"/>
<polygon fill="black" stroke="black" points="81.97,-132.78 78.47,-122.78 74.97,-132.78 81.97,-132.78"/>
<text text-anchor="middle" x="85.07" y="-146.54" font-family="Monaco" font-size="11.00">@f</text>
</g>
<!-- Jump3 -->
<g id="node8" class="node">
<title>Jump3</title>
<polygon fill="none" stroke="black" points="117.88,-30 57.06,-30 57.06,-36 39.06,-18 57.06,0 57.06,-6 99.88,-6 99.88,0 117.88,0 117.88,-30"/>
<text text-anchor="start" x="47.27" y="-17.53" font-family="Monaco" font-size="11.00">Return.3</text>
<text text-anchor="start" x="100.07" y="-17.53" font-family="Monaco" baseline-shift="super" font-size="8.00" fill="#ff4411">q9</text>
</g>
<!-- Block3&#45;&gt;Jump3 -->
<g id="edge8" class="edge">
<title>Block3&#45;&gt;Jump3</title>
<path fill="none" stroke="black" d="M78.47,-86.53C78.47,-74.94 78.47,-59.39 78.47,-46.13"/>
<polygon fill="black" stroke="black" points="81.97,-46.11 78.47,-36.11 74.97,-46.11 81.97,-46.11"/>
<text text-anchor="middle" x="85.07" y="-59.87" font-family="Monaco" font-size="11.00">@g</text>
</g>
<!-- 0 -->
<g id="node9" class="node">
<title>0</title>
<ellipse fill="none" stroke="black" cx="298.47" cy="-510.67" rx="45.66" ry="18"/>
<text text-anchor="start" x="270.87" y="-510.21" font-family="Monaco" font-size="11.00">@a</text>
<text text-anchor="start" x="284.07" y="-510.21" font-family="Monaco" baseline-shift="super" font-size="8.00" fill="#00aa11">U2</text>
<text text-anchor="start" x="293.67" y="-510.21" font-family="Monaco" baseline-shift="super" font-size="8.00" fill="#3311ff">r1</text>
<text text-anchor="start" x="303.27" y="-510.21" font-family="Monaco" font-size="11.00">:1</text>
<text text-anchor="start" x="316.47" y="-510.21" font-family="Monaco" baseline-shift="super" font-size="8.00" fill="#ff4411">q1</text>
</g>
<!-- 1 -->
<g id="node10" class="node">
<title>1</title>
<ellipse fill="none" stroke="black" cx="188.47" cy="-510.67" rx="45.66" ry="18"/>
<text text-anchor="start" x="160.87" y="-510.21" font-family="Monaco" font-size="11.00">@b</text>
<text text-anchor="start" x="174.07" y="-510.21" font-family="Monaco" baseline-shift="super" font-size="8.00" fill="#00aa11">U1</text>
<text text-anchor="start" x="183.67" y="-510.21" font-family="Monaco" baseline-shift="super" font-size="8.00" fill="#3311ff">r2</text>
<text text-anchor="start" x="193.27" y="-510.21" font-family="Monaco" font-size="11.00">:0</text>
<text text-anchor="start" x="206.47" y="-510.21" font-family="Monaco" baseline-shift="super" font-size="8.00" fill="#ff4411">q1</text>
</g>
<!-- 2 -->
<g id="node11" class="node">
<title>2</title>
<ellipse fill="none" stroke="black" cx="217.47" cy="-437.67" rx="75.37" ry="18"/>
<text text-anchor="start" x="167.06" y="-437.21" font-family="Monaco" font-size="11.00">@c</text>
<text text-anchor="start" x="180.27" y="-437.21" font-family="Monaco" baseline-shift="super" font-size="8.00" fill="#00aa11">U1</text>
<text text-anchor="start" x="189.87" y="-437.21" font-family="Monaco" baseline-shift="super" font-size="8.00" fill="#3311ff">r2</text>
<text text-anchor="start" x="199.47" y="-437.21" font-family="Monaco" font-size="11.00">:i==</text>
<text text-anchor="start" x="225.87" y="-437.21" font-family="Monaco" baseline-shift="super" font-size="8.00" fill="#3311ff">Bin0</text>
<text text-anchor="start" x="245.08" y="-437.21" font-family="Monaco" font-size="11.00">@b</text>
<text text-anchor="start" x="258.28" y="-437.21" font-family="Monaco" baseline-shift="super" font-size="8.00" fill="#ff4411">q2</text>
</g>
<!-- 1&#45;&gt;2 -->
<g id="edge9" class="edge">
<title>1&#45;&gt;2</title>
<path fill="none" stroke="black" d="M195.34,-492.85C198.69,-484.66 202.79,-474.61 206.55,-465.41"/>
<polygon fill="black" stroke="black" points="209.91,-466.45 210.45,-455.87 203.42,-463.81 209.91,-466.45"/>
</g>
<!-- 3 -->
<g id="node12" class="node">
<title>3</title>
<ellipse fill="none" stroke="black" cx="519.47" cy="-510.67" rx="41.67" ry="18"/>
<text text-anchor="start" x="495.17" y="-510.21" font-family="Monaco" font-size="11.00">b</text>
<text text-anchor="start" x="501.77" y="-510.21" font-family="Monaco" baseline-shift="super" font-size="8.00" fill="#00aa11">U2</text>
<text text-anchor="start" x="511.37" y="-510.21" font-family="Monaco" baseline-shift="super" font-size="8.00" fill="#3311ff">r3</text>
<text text-anchor="start" x="520.97" y="-510.21" font-family="Monaco" font-size="11.00">:1</text>
<text text-anchor="start" x="534.17" y="-510.21" font-family="Monaco" baseline-shift="super" font-size="8.00" fill="#ff4411">q3</text>
</g>
<!-- 4 -->
<g id="node13" class="node">
<title>4</title>
<ellipse fill="none" stroke="black" cx="414.47" cy="-510.67" rx="45.66" ry="18"/>
<text text-anchor="start" x="386.87" y="-510.21" font-family="Monaco" font-size="11.00">@d</text>
<text text-anchor="start" x="400.07" y="-510.21" font-family="Monaco" baseline-shift="super" font-size="8.00" fill="#00aa11">U1</text>
<text text-anchor="start" x="409.67" y="-510.21" font-family="Monaco" baseline-shift="super" font-size="8.00" fill="#3311ff">r2</text>
<text text-anchor="start" x="419.27" y="-510.21" font-family="Monaco" font-size="11.00">:0</text>
<text text-anchor="start" x="432.47" y="-510.21" font-family="Monaco" baseline-shift="super" font-size="8.00" fill="#ff4411">q3</text>
</g>
<!-- 5 -->
<g id="node14" class="node">
<title>5</title>
<ellipse fill="none" stroke="black" cx="414.47" cy="-437.67" rx="46.44" ry="18"/>
<text text-anchor="start" x="386.57" y="-437.21" font-family="Monaco" font-size="11.00">a[@d]=i</text>
<text text-anchor="start" x="432.77" y="-437.21" font-family="Monaco" baseline-shift="super" font-size="8.00" fill="#ff4411">q4</text>
</g>
<!-- 4&#45;&gt;5 -->
<g id="edge10" class="edge">
<title>4&#45;&gt;5</title>
<path fill="none" stroke="black" d="M414.47,-492.49C414.47,-484.46 414.47,-474.72 414.47,-465.74"/>
<polygon fill="black" stroke="black" points="417.97,-465.7 414.47,-455.7 410.97,-465.7 417.97,-465.7"/>
</g>
<!-- 6 -->
<g id="node15" class="node">
<title>6</title>
<ellipse fill="none" stroke="black" cx="653.47" cy="-510.67" rx="45.66" ry="18"/>
<text text-anchor="start" x="625.87" y="-510.21" font-family="Monaco" font-size="11.00">@e</text>
<text text-anchor="start" x="639.07" y="-510.21" font-family="Monaco" baseline-shift="super" font-size="8.00" fill="#00aa11">U2</text>
<text text-anchor="start" x="648.67" y="-510.21" font-family="Monaco" baseline-shift="super" font-size="8.00" fill="#3311ff">r0</text>
<text text-anchor="start" x="658.27" y="-510.21" font-family="Monaco" font-size="11.00">:2</text>
<text text-anchor="start" x="671.47" y="-510.21" font-family="Monaco" baseline-shift="super" font-size="8.00" fill="#ff4411">q6</text>
</g>
<!-- 7 -->
<g id="node16" class="node">
<title>7</title>
<ellipse fill="none" stroke="black" cx="820.47" cy="-510.67" rx="75.37" ry="18"/>
<text text-anchor="start" x="770.06" y="-510.21" font-family="Monaco" font-size="11.00">@g</text>
<text text-anchor="start" x="783.27" y="-510.21" font-family="Monaco" baseline-shift="super" font-size="8.00" fill="#00aa11">U2</text>
<text text-anchor="start" x="792.87" y="-510.21" font-family="Monaco" baseline-shift="super" font-size="8.00" fill="#3311ff">r0</text>
<text text-anchor="start" x="802.47" y="-510.21" font-family="Monaco" font-size="11.00">:@a+</text>
<text text-anchor="start" x="828.87" y="-510.21" font-family="Monaco" baseline-shift="super" font-size="8.00" fill="#3311ff">Bin1</text>
<text text-anchor="start" x="848.08" y="-510.21" font-family="Monaco" font-size="11.00">@f</text>
<text text-anchor="start" x="861.28" y="-510.21" font-family="Monaco" baseline-shift="super" font-size="8.00" fill="#ff4411">q8</text>
</g>
</g>
</svg>
