<?xml version="1.0" encoding="UTF-8" standalone="no"?>
<!DOCTYPE svg PUBLIC "-//W3C//DTD SVG 1.1//EN"
 "http://www.w3.org/Graphics/SVG/1.1/DTD/svg11.dtd">
<!-- Generated by graphviz version 2.43.0 (0)
 -->
<!-- Title: Program_ Pages: 1 -->
<svg width="1063pt" height="625pt"
 viewBox="0.00 0.00 1063.21 624.67" xmlns="http://www.w3.org/2000/svg" xmlns:xlink="http://www.w3.org/1999/xlink">
<g id="graph0" class="graph" transform="scale(1 1) rotate(0) translate(4 620.67)">
<title>Program_</title>
<polygon fill="white" stroke="transparent" points="-4,4 -4,-620.67 1059.21,-620.67 1059.21,4 -4,4"/>
<g id="clust1" class="cluster">
<title>cluster_dfg_Block0</title>
<polygon fill="none" stroke="black" points="187.21,-8 187.21,-608.67 489.21,-608.67 489.21,-8 187.21,-8"/>
<text text-anchor="start" x="316.61" y="-596.07" font-family="Monaco" font-size="12.00">Block0</text>
<text text-anchor="start" x="319.01" y="-584.07" font-family="Monaco" font-size="12.00">(i</text>
<text text-anchor="start" x="333.41" y="-584.07" font-family="Monaco" baseline-shift="super" font-size="8.00" fill="#00aa11">S64</text>
<text text-anchor="start" x="347.81" y="-584.07" font-family="Monaco" baseline-shift="super" font-size="8.00" fill="#3311ff">r0</text>
<text text-anchor="start" x="331.01" y="-572.07" font-family="Monaco" font-size="12.00">=&gt;</text>
<text text-anchor="start" x="290.2" y="-560.07" font-family="Monaco" font-size="12.00">zero</text>
<text text-anchor="start" x="319.01" y="-560.07" font-family="Monaco" baseline-shift="super" font-size="8.00" fill="#00aa11">U1</text>
<text text-anchor="start" x="328.61" y="-560.07" font-family="Monaco" baseline-shift="super" font-size="8.00" fill="#3311ff">r2</text>
<text text-anchor="start" x="338.21" y="-560.07" font-family="Monaco" font-size="12.00">,@d</text>
<text text-anchor="start" x="359.81" y="-560.07" font-family="Monaco" baseline-shift="super" font-size="8.00" fill="#00aa11">U1</text>
<text text-anchor="start" x="369.42" y="-560.07" font-family="Monaco" baseline-shift="super" font-size="8.00" fill="#3311ff">r0</text>
<text text-anchor="start" x="379.02" y="-560.07" font-family="Monaco" font-size="12.00">)</text>
</g>
<g id="clust2" class="cluster">
<title>cluster_dfg_Block1</title>
<polygon fill="none" stroke="black" points="497.21,-354.67 497.21,-608.67 685.21,-608.67 685.21,-354.67 497.21,-354.67"/>
<text text-anchor="start" x="569.61" y="-596.07" font-family="Monaco" font-size="12.00">Block1</text>
<text text-anchor="start" x="563.61" y="-584.07" font-family="Monaco" font-size="12.00">(zero</text>
<text text-anchor="start" x="599.61" y="-584.07" font-family="Monaco" baseline-shift="super" font-size="8.00" fill="#00aa11">U1</text>
<text text-anchor="start" x="609.21" y="-584.07" font-family="Monaco" baseline-shift="super" font-size="8.00" fill="#3311ff">r2</text>
<text text-anchor="start" x="584.01" y="-572.07" font-family="Monaco" font-size="12.00">=&gt;</text>
<text text-anchor="start" x="540.8" y="-560.07" font-family="Monaco" font-size="12.00">zero</text>
<text text-anchor="start" x="569.61" y="-560.07" font-family="Monaco" baseline-shift="super" font-size="8.00" fill="#00aa11">U1</text>
<text text-anchor="start" x="579.21" y="-560.07" font-family="Monaco" baseline-shift="super" font-size="8.00" fill="#3311ff">r2</text>
<text text-anchor="start" x="588.81" y="-560.07" font-family="Monaco" font-size="12.00">,@g</text>
<text text-anchor="start" x="610.41" y="-560.07" font-family="Monaco" baseline-shift="super" font-size="8.00" fill="#00aa11">S64</text>
<text text-anchor="start" x="624.82" y="-560.07" font-family="Monaco" baseline-shift="super" font-size="8.00" fill="#3311ff">r0</text>
<text text-anchor="start" x="634.42" y="-560.07" font-family="Monaco" font-size="12.00">)</text>
</g>
<g id="clust3" class="cluster">
<title>cluster_dfg_Block2</title>
<polygon fill="none" stroke="black" points="693.21,-354.67 693.21,-608.67 891.21,-608.67 891.21,-354.67 693.21,-354.67"/>
<text text-anchor="start" x="770.61" y="-596.07" font-family="Monaco" font-size="12.00">Block2</text>
<text text-anchor="start" x="764.61" y="-584.07" font-family="Monaco" font-size="12.00">(zero</text>
<text text-anchor="start" x="800.61" y="-584.07" font-family="Monaco" baseline-shift="super" font-size="8.00" fill="#00aa11">U1</text>
<text text-anchor="start" x="810.21" y="-584.07" font-family="Monaco" baseline-shift="super" font-size="8.00" fill="#3311ff">r2</text>
<text text-anchor="start" x="785.01" y="-572.07" font-family="Monaco" font-size="12.00">=&gt;</text>
<text text-anchor="start" x="741.8" y="-560.07" font-family="Monaco" font-size="12.00">zero</text>
<text text-anchor="start" x="770.61" y="-560.07" font-family="Monaco" baseline-shift="super" font-size="8.00" fill="#00aa11">U1</text>
<text text-anchor="start" x="780.21" y="-560.07" font-family="Monaco" baseline-shift="super" font-size="8.00" fill="#3311ff">r2</text>
<text text-anchor="start" x="789.81" y="-560.07" font-family="Monaco" font-size="12.00">,@j</text>
<text text-anchor="start" x="811.41" y="-560.07" font-family="Monaco" baseline-shift="super" font-size="8.00" fill="#00aa11">S64</text>
<text text-anchor="start" x="825.82" y="-560.07" font-family="Monaco" baseline-shift="super" font-size="8.00" fill="#3311ff">r0</text>
<text text-anchor="start" x="835.42" y="-560.07" font-family="Monaco" font-size="12.00">)</text>
</g>
<g id="clust4" class="cluster">
<title>cluster_dfg_Block3</title>
<polygon fill="none" stroke="black" points="899.21,-354.67 899.21,-608.67 1047.21,-608.67 1047.21,-354.67 899.21,-354.67"/>
<text text-anchor="start" x="951.61" y="-596.07" font-family="Monaco" font-size="12.00">Block3</text>
<text text-anchor="start" x="922.8" y="-584.07" font-family="Monaco" font-size="12.00">(zero</text>
<text text-anchor="start" x="958.81" y="-584.07" font-family="Monaco" baseline-shift="super" font-size="8.00" fill="#00aa11">U1</text>
<text text-anchor="start" x="968.41" y="-584.07" font-family="Monaco" baseline-shift="super" font-size="8.00" fill="#3311ff">r2</text>
<text text-anchor="start" x="978.01" y="-584.07" font-family="Monaco" font-size="12.00">,@k</text>
<text text-anchor="start" x="999.61" y="-584.07" font-family="Monaco" baseline-shift="super" font-size="8.00" fill="#00aa11">S64</text>
<text text-anchor="start" x="1014.02" y="-584.07" font-family="Monaco" baseline-shift="super" font-size="8.00" fill="#3311ff">r0</text>
<text text-anchor="start" x="966.01" y="-572.07" font-family="Monaco" font-size="12.00">=&gt;</text>
<text text-anchor="start" x="950.41" y="-560.07" font-family="Monaco" font-size="12.00">@l</text>
<text text-anchor="start" x="964.81" y="-560.07" font-family="Monaco" baseline-shift="super" font-size="8.00" fill="#00aa11">S64</text>
<text text-anchor="start" x="979.21" y="-560.07" font-family="Monaco" baseline-shift="super" font-size="8.00" fill="#3311ff">r0</text>
<text text-anchor="start" x="988.81" y="-560.07" font-family="Monaco" font-size="12.00">)</text>
</g>
<!-- Jump0 -->
<g id="node1" class="node">
<title>Jump0</title>
<polygon fill="none" stroke="black" points="143.82,-544.67 52.6,-544.67 52.6,-540.67 48.6,-540.67 48.6,-536.67 52.6,-536.67 52.6,-516.67 48.6,-516.67 48.6,-512.67 52.6,-512.67 52.6,-508.67 143.82,-508.67 143.82,-544.67"/>
<polyline fill="none" stroke="black" points="52.6,-540.67 56.6,-540.67 56.6,-536.67 52.6,-536.67 "/>
<polyline fill="none" stroke="black" points="52.6,-516.67 56.6,-516.67 56.6,-512.67 52.6,-512.67 "/>
<text text-anchor="start" x="60.4" y="-529.87" font-family="Monaco" baseline-shift="super" font-size="8.00" fill="#ff4411">q0</text>
<text text-anchor="start" x="70.01" y="-529.87" font-family="Monaco" font-size="11.00">StartFun.0</text>
<text text-anchor="start" x="82.91" y="-518.87" font-family="Monaco" font-size="11.00">i</text>
<text text-anchor="start" x="89.51" y="-518.87" font-family="Monaco" baseline-shift="super" font-size="8.00" fill="#00aa11">S64</text>
<text text-anchor="start" x="103.91" y="-518.87" font-family="Monaco" baseline-shift="super" font-size="8.00" fill="#3311ff">r0</text>
</g>
<!-- Block0 -->
<g id="node2" class="node">
<title>Block0</title>
<polygon fill="none" stroke="black" points="125.82,-471.67 70.6,-471.67 70.6,-435.67 125.82,-435.67 125.82,-471.67"/>
<text text-anchor="middle" x="98.21" y="-452.21" font-family="Monaco" font-size="11.00">Block0</text>
</g>
<!-- Jump0&#45;&gt;Block0 -->
<g id="edge1" class="edge">
<title>Jump0&#45;&gt;Block0</title>
<path fill="none" stroke="black" d="M98.21,-508.49C98.21,-500.46 98.21,-490.72 98.21,-481.74"/>
<polygon fill="black" stroke="black" points="101.71,-481.7 98.21,-471.7 94.71,-481.7 101.71,-481.7"/>
</g>
<!-- Jump1 -->
<g id="node3" class="node">
<title>Jump1</title>
<path fill="none" stroke="black" d="M127.82,-398.67C127.82,-398.67 68.6,-398.67 68.6,-398.67 62.6,-398.67 52.79,-394.04 48.98,-389.41 48.98,-389.41 34.6,-371.94 34.6,-371.94 30.78,-367.31 32.97,-362.67 38.97,-362.67 38.97,-362.67 157.45,-362.67 157.45,-362.67 163.45,-362.67 165.64,-367.31 161.82,-371.94 161.82,-371.94 147.44,-389.41 147.44,-389.41 143.63,-394.04 133.82,-398.67 127.82,-398.67"/>
<text text-anchor="start" x="67.01" y="-380.21" font-family="Monaco" baseline-shift="super" font-size="8.00" fill="#ff4411">q7</text>
<text text-anchor="start" x="76.61" y="-380.21" font-family="Monaco" font-size="11.00">Branch.1</text>
</g>
<!-- Block0&#45;&gt;Jump1 -->
<g id="edge2" class="edge">
<title>Block0&#45;&gt;Jump1</title>
<path fill="none" stroke="black" d="M98.21,-435.49C98.21,-427.46 98.21,-417.72 98.21,-408.74"/>
<polygon fill="black" stroke="black" points="101.71,-408.7 98.21,-398.7 94.71,-408.7 101.71,-408.7"/>
</g>
<!-- Block1 -->
<g id="node4" class="node">
<title>Block1</title>
<polygon fill="none" stroke="black" points="102.82,-312.01 47.6,-312.01 47.6,-276.01 102.82,-276.01 102.82,-312.01"/>
<text text-anchor="middle" x="75.21" y="-292.54" font-family="Monaco" font-size="11.00">Block1</text>
</g>
<!-- Jump1&#45;&gt;Block1 -->
<g id="edge3" class="edge">
<title>Jump1&#45;&gt;Block1</title>
<path fill="none" stroke="black" d="M93.56,-362.54C90.41,-350.95 86.18,-335.4 82.58,-322.14"/>
<polygon fill="black" stroke="black" points="85.86,-320.85 79.86,-312.11 79.1,-322.68 85.86,-320.85"/>
<text text-anchor="start" x="88.21" y="-335.87" font-family="Monaco" font-size="11.00">@d</text>
</g>
<!-- Block2 -->
<g id="node5" class="node">
<title>Block2</title>
<polygon fill="none" stroke="black" points="176.82,-312.01 121.6,-312.01 121.6,-276.01 176.82,-276.01 176.82,-312.01"/>
<text text-anchor="middle" x="149.21" y="-292.54" font-family="Monaco" font-size="11.00">Block2</text>
</g>
<!-- Jump1&#45;&gt;Block2 -->
<g id="edge4" class="edge">
<title>Jump1&#45;&gt;Block2</title>
<path fill="none" stroke="black" d="M108.53,-362.54C115.72,-350.6 125.44,-334.47 133.58,-320.96"/>
<polygon fill="black" stroke="black" points="136.74,-322.49 138.91,-312.11 130.75,-318.87 136.74,-322.49"/>
<text text-anchor="start" x="127.21" y="-335.87" font-family="Monaco" font-size="11.00">!@d</text>
</g>
<!-- Jump2 -->
<g id="node6" class="node">
<title>Jump2</title>
<path fill="none" stroke="black" d="M48.15,-189.34C48.15,-189.34 126.27,-189.34 126.27,-189.34 132.27,-189.34 142.53,-193.56 146.79,-197.78 146.79,-197.78 166.1,-216.89 166.1,-216.89 170.37,-221.12 168.63,-225.34 162.63,-225.34 162.63,-225.34 11.79,-225.34 11.79,-225.34 5.79,-225.34 4.05,-221.12 8.32,-216.89 8.32,-216.89 27.63,-197.78 27.63,-197.78 31.89,-193.56 42.15,-189.34 48.15,-189.34"/>
<text text-anchor="start" x="47.3" y="-206.87" font-family="Monaco" baseline-shift="super" font-size="8.00" fill="#ff4411">q10|q13</text>
<text text-anchor="start" x="80.91" y="-206.87" font-family="Monaco" font-size="11.00">Merge.2</text>
</g>
<!-- Block1&#45;&gt;Jump2 -->
<g id="edge5" class="edge">
<title>Block1&#45;&gt;Jump2</title>
<path fill="none" stroke="black" d="M77.64,-275.87C79.28,-264.28 81.49,-248.73 83.37,-235.47"/>
<polygon fill="black" stroke="black" points="86.85,-235.84 84.79,-225.45 79.92,-234.86 86.85,-235.84"/>
<text text-anchor="start" x="82.21" y="-249.21" font-family="Monaco" font-size="11.00">@g</text>
</g>
<!-- Block2&#45;&gt;Jump2 -->
<g id="edge6" class="edge">
<title>Block2&#45;&gt;Jump2</title>
<path fill="none" stroke="black" d="M136.66,-275.87C127.76,-263.71 115.65,-247.18 105.65,-233.52"/>
<polygon fill="black" stroke="black" points="108.47,-231.45 99.74,-225.45 102.82,-235.58 108.47,-231.45"/>
<text text-anchor="start" x="122.21" y="-249.21" font-family="Monaco" font-size="11.00">@j</text>
</g>
<!-- Block3 -->
<g id="node7" class="node">
<title>Block3</title>
<polygon fill="none" stroke="black" points="114.82,-138.67 59.6,-138.67 59.6,-102.67 114.82,-102.67 114.82,-138.67"/>
<text text-anchor="middle" x="87.21" y="-119.2" font-family="Monaco" font-size="11.00">Block3</text>
</g>
<!-- Jump2&#45;&gt;Block3 -->
<g id="edge7" class="edge">
<title>Jump2&#45;&gt;Block3</title>
<path fill="none" stroke="black" d="M87.21,-189.2C87.21,-177.61 87.21,-162.06 87.21,-148.8"/>
<polygon fill="black" stroke="black" points="90.71,-148.78 87.21,-138.78 83.71,-148.78 90.71,-148.78"/>
<text text-anchor="start" x="87.21" y="-162.54" font-family="Monaco" font-size="11.00">@k</text>
</g>
<!-- Jump3 -->
<g id="node8" class="node">
<title>Jump3</title>
<polygon fill="none" stroke="black" points="128.92,-46 63.5,-46 63.5,-52 45.5,-34 63.5,-16 63.5,-22 110.92,-22 110.92,-16 128.92,-16 128.92,-46"/>
<text text-anchor="start" x="53.61" y="-33.53" font-family="Monaco" baseline-shift="super" font-size="8.00" fill="#ff4411">q17</text>
<text text-anchor="start" x="68.01" y="-33.53" font-family="Monaco" font-size="11.00">Return.3</text>
</g>
<!-- Block3&#45;&gt;Jump3 -->
<g id="edge8" class="edge">
<title>Block3&#45;&gt;Jump3</title>
<path fill="none" stroke="black" d="M87.21,-102.53C87.21,-90.94 87.21,-75.39 87.21,-62.13"/>
<polygon fill="black" stroke="black" points="90.71,-62.11 87.21,-52.11 83.71,-62.11 90.71,-62.11"/>
<text text-anchor="start" x="87.21" y="-75.87" font-family="Monaco" font-size="11.00">@l</text>
</g>
<!-- 0 -->
<g id="node9" class="node">
<title>0</title>
<ellipse fill="none" stroke="black" cx="249.21" cy="-526.67" rx="54.16" ry="18"/>
<text text-anchor="start" x="215.01" y="-526.21" font-family="Monaco" baseline-shift="super" font-size="8.00" fill="#ff4411">q1</text>
<text text-anchor="start" x="224.61" y="-526.21" font-family="Monaco" font-size="11.00">zero</text>
<text text-anchor="start" x="251.01" y="-526.21" font-family="Monaco" baseline-shift="super" font-size="8.00" fill="#00aa11">U1</text>
<text text-anchor="start" x="260.61" y="-526.21" font-family="Monaco" baseline-shift="super" font-size="8.00" fill="#3311ff">r2</text>
<text text-anchor="start" x="270.21" y="-526.21" font-family="Monaco" font-size="11.00">:0</text>
</g>
<!-- 5 -->
<g id="node10" class="node">
<title>5</title>
<ellipse fill="none" stroke="black" cx="273.21" cy="-207.34" rx="63.43" ry="18"/>
<text text-anchor="start" x="232.1" y="-206.87" font-family="Monaco" baseline-shift="super" font-size="8.00" fill="#ff4411">q5</text>
<text text-anchor="start" x="241.71" y="-206.87" font-family="Monaco" font-size="11.00">req a[zero]</text>
</g>
<!-- 0&#45;&gt;5 -->
<g id="edge12" class="edge">
<title>0&#45;&gt;5</title>
<path fill="none" stroke="black" d="M228.26,-510.05C213.45,-497.07 196.21,-477.13 196.21,-454.67 196.21,-454.67 196.21,-454.67 196.21,-293.01 196.21,-266.29 217.46,-244.28 237.63,-229.4"/>
<polygon fill="black" stroke="black" points="239.65,-232.26 245.85,-223.66 235.64,-226.52 239.65,-232.26"/>
</g>
<!-- 1 -->
<g id="node11" class="node">
<title>1</title>
<ellipse fill="none" stroke="black" cx="426.21" cy="-453.67" rx="54.93" ry="18"/>
<text text-anchor="start" x="391.7" y="-453.21" font-family="Monaco" baseline-shift="super" font-size="8.00" fill="#ff4411">q2</text>
<text text-anchor="start" x="401.31" y="-453.21" font-family="Monaco" font-size="11.00">a[zero]=i</text>
</g>
<!-- 0&#45;&gt;1 -->
<g id="edge9" class="edge">
<title>0&#45;&gt;1</title>
<path fill="none" stroke="black" d="M282.5,-512.32C310.97,-500.9 352.12,-484.39 383.1,-471.97"/>
<polygon fill="black" stroke="black" points="384.79,-475.06 392.77,-468.09 382.18,-468.56 384.79,-475.06"/>
</g>
<!-- 3 -->
<g id="node14" class="node">
<title>3</title>
<ellipse fill="none" stroke="black" cx="299.21" cy="-380.67" rx="58.93" ry="18"/>
<text text-anchor="start" x="261.4" y="-380.21" font-family="Monaco" baseline-shift="super" font-size="8.00" fill="#ff4411">q3</text>
<text text-anchor="start" x="271.01" y="-380.21" font-family="Monaco" font-size="11.00">a[zero]=@a</text>
</g>
<!-- 0&#45;&gt;3 -->
<g id="edge10" class="edge">
<title>0&#45;&gt;3</title>
<path fill="none" stroke="black" d="M244.64,-508.69C240.52,-490.04 236.45,-459.55 246.21,-435.67 251.1,-423.7 260.07,-412.96 269.25,-404.26"/>
<polygon fill="black" stroke="black" points="271.77,-406.71 276.93,-397.45 267.13,-401.47 271.77,-406.71"/>
</g>
<!-- 4 -->
<g id="node16" class="node">
<title>4</title>
<ellipse fill="none" stroke="black" cx="273.21" cy="-294.01" rx="54.93" ry="18"/>
<text text-anchor="start" x="238.7" y="-293.54" font-family="Monaco" baseline-shift="super" font-size="8.00" fill="#ff4411">q4</text>
<text text-anchor="start" x="248.31" y="-293.54" font-family="Monaco" font-size="11.00">a[zero]=i</text>
</g>
<!-- 0&#45;&gt;4 -->
<g id="edge11" class="edge">
<title>0&#45;&gt;4</title>
<path fill="none" stroke="black" d="M242.57,-508.8C240.56,-503.12 238.54,-496.7 237.21,-490.67 224.15,-431.6 212.95,-412.35 231.21,-354.67 235.24,-341.94 243.08,-329.57 250.91,-319.42"/>
<polygon fill="black" stroke="black" points="253.79,-321.43 257.39,-311.47 248.36,-317.01 253.79,-321.43"/>
</g>
<!-- 6 -->
<g id="node12" class="node">
<title>6</title>
<ellipse fill="none" stroke="black" cx="274.21" cy="-120.67" rx="57.34" ry="18"/>
<text text-anchor="start" x="237.6" y="-120.2" font-family="Monaco" baseline-shift="super" font-size="8.00" fill="#ff4411">q6</text>
<text text-anchor="start" x="247.21" y="-120.2" font-family="Monaco" font-size="11.00">@b</text>
<text text-anchor="start" x="260.41" y="-120.2" font-family="Monaco" baseline-shift="super" font-size="8.00" fill="#00aa11">S64</text>
<text text-anchor="start" x="274.81" y="-120.2" font-family="Monaco" baseline-shift="super" font-size="8.00" fill="#3311ff">r0</text>
<text text-anchor="start" x="284.41" y="-120.2" font-family="Monaco" font-size="11.00">:a[]</text>
</g>
<!-- 5&#45;&gt;6 -->
<g id="edge18" class="edge">
<title>5&#45;&gt;6</title>
<path fill="none" stroke="black" d="M273.41,-189.2C273.55,-177.61 273.73,-162.06 273.89,-148.8"/>
<polygon fill="black" stroke="black" points="277.39,-148.82 274.01,-138.78 270.39,-148.73 277.39,-148.82"/>
</g>
<!-- 1&#45;&gt;3 -->
<g id="edge15" class="edge">
<title>1&#45;&gt;3</title>
<path fill="none" stroke="black" stroke-dasharray="1,5" d="M399.59,-437.79C380.83,-427.31 355.51,-413.15 334.99,-401.68"/>
<polygon fill="black" stroke="black" points="336.67,-398.61 326.24,-396.78 333.26,-404.72 336.67,-398.61"/>
</g>
<!-- 8 -->
<g id="node15" class="node">
<title>8</title>
<ellipse fill="none" stroke="black" cx="276.21" cy="-34" rx="81.23" ry="18"/>
<text text-anchor="start" x="221" y="-33.53" font-family="Monaco" baseline-shift="super" font-size="8.00" fill="#ff4411">q7</text>
<text text-anchor="start" x="230.6" y="-33.53" font-family="Monaco" font-size="11.00">@d</text>
<text text-anchor="start" x="243.81" y="-33.53" font-family="Monaco" baseline-shift="super" font-size="8.00" fill="#00aa11">U1</text>
<text text-anchor="start" x="253.41" y="-33.53" font-family="Monaco" baseline-shift="super" font-size="8.00" fill="#3311ff">r0</text>
<text text-anchor="start" x="263.01" y="-33.53" font-family="Monaco" font-size="11.00">:@b&gt;=</text>
<text text-anchor="start" x="296.01" y="-33.53" font-family="Monaco" baseline-shift="super" font-size="8.00" fill="#3311ff">Bin0</text>
<text text-anchor="start" x="315.22" y="-33.53" font-family="Monaco" font-size="11.00">0</text>
<text text-anchor="start" x="321.82" y="-33.53" font-family="Monaco" baseline-shift="super" font-size="8.00" fill="#00aa11">S1</text>
</g>
<!-- 6&#45;&gt;8 -->
<g id="edge14" class="edge">
<title>6&#45;&gt;8</title>
<path fill="none" stroke="black" d="M274.62,-102.53C274.89,-90.94 275.26,-75.39 275.57,-62.13"/>
<polygon fill="black" stroke="black" points="279.07,-62.19 275.81,-52.11 272.07,-62.02 279.07,-62.19"/>
</g>
<!-- 2 -->
<g id="node13" class="node">
<title>2</title>
<ellipse fill="none" stroke="black" cx="304.21" cy="-453.67" rx="48.84" ry="18"/>
<text text-anchor="start" x="274.21" y="-453.21" font-family="Monaco" baseline-shift="super" font-size="8.00" fill="#ff4411">q1</text>
<text text-anchor="start" x="283.81" y="-453.21" font-family="Monaco" font-size="11.00">@a</text>
<text text-anchor="start" x="297.01" y="-453.21" font-family="Monaco" baseline-shift="super" font-size="8.00" fill="#00aa11">S64</text>
<text text-anchor="start" x="311.41" y="-453.21" font-family="Monaco" baseline-shift="super" font-size="8.00" fill="#3311ff">r1</text>
<text text-anchor="start" x="321.01" y="-453.21" font-family="Monaco" font-size="11.00">:1</text>
</g>
<!-- 2&#45;&gt;3 -->
<g id="edge13" class="edge">
<title>2&#45;&gt;3</title>
<path fill="none" stroke="black" d="M303,-435.49C302.44,-427.46 301.75,-417.72 301.12,-408.74"/>
<polygon fill="black" stroke="black" points="304.6,-408.43 300.41,-398.7 297.62,-408.92 304.6,-408.43"/>
</g>
<!-- 3&#45;&gt;4 -->
<g id="edge16" class="edge">
<title>3&#45;&gt;4</title>
<path fill="none" stroke="black" stroke-dasharray="1,5" d="M293.95,-362.54C290.35,-350.83 285.52,-335.09 281.42,-321.74"/>
<polygon fill="black" stroke="black" points="284.75,-320.65 278.46,-312.11 278.05,-322.7 284.75,-320.65"/>
</g>
<!-- 4&#45;&gt;5 -->
<g id="edge17" class="edge">
<title>4&#45;&gt;5</title>
<path fill="none" stroke="black" stroke-dasharray="1,5" d="M273.21,-275.87C273.21,-264.28 273.21,-248.73 273.21,-235.47"/>
<polygon fill="black" stroke="black" points="276.71,-235.45 273.21,-225.45 269.71,-235.45 276.71,-235.45"/>
</g>
<!-- 10 -->
<g id="node17" class="node">
<title>10</title>
<ellipse fill="none" stroke="black" cx="591.21" cy="-453.67" rx="57.34" ry="18"/>
<text text-anchor="start" x="554.6" y="-453.21" font-family="Monaco" baseline-shift="super" font-size="8.00" fill="#ff4411">q9</text>
<text text-anchor="start" x="564.21" y="-453.21" font-family="Monaco" font-size="11.00">@e</text>
<text text-anchor="start" x="577.41" y="-453.21" font-family="Monaco" baseline-shift="super" font-size="8.00" fill="#00aa11">S64</text>
<text text-anchor="start" x="591.81" y="-453.21" font-family="Monaco" baseline-shift="super" font-size="8.00" fill="#3311ff">r0</text>
<text text-anchor="start" x="601.41" y="-453.21" font-family="Monaco" font-size="11.00">:a[]</text>
</g>
<!-- 12 -->
<g id="node19" class="node">
<title>12</title>
<ellipse fill="none" stroke="black" cx="591.21" cy="-380.67" rx="86.27" ry="18"/>
<text text-anchor="start" x="532.1" y="-380.21" font-family="Monaco" baseline-shift="super" font-size="8.00" fill="#ff4411">q10</text>
<text text-anchor="start" x="546.5" y="-380.21" font-family="Monaco" font-size="11.00">@g</text>
<text text-anchor="start" x="559.71" y="-380.21" font-family="Monaco" baseline-shift="super" font-size="8.00" fill="#00aa11">S64</text>
<text text-anchor="start" x="574.11" y="-380.21" font-family="Monaco" baseline-shift="super" font-size="8.00" fill="#3311ff">r0</text>
<text text-anchor="start" x="583.71" y="-380.21" font-family="Monaco" font-size="11.00">:@e*</text>
<text text-anchor="start" x="610.11" y="-380.21" font-family="Monaco" baseline-shift="super" font-size="8.00" fill="#3311ff">Bin1</text>
<text text-anchor="start" x="629.32" y="-380.21" font-family="Monaco" font-size="11.00">2</text>
<text text-anchor="start" x="635.92" y="-380.21" font-family="Monaco" baseline-shift="super" font-size="8.00" fill="#00aa11">S64</text>
</g>
<!-- 10&#45;&gt;12 -->
<g id="edge19" class="edge">
<title>10&#45;&gt;12</title>
<path fill="none" stroke="black" d="M591.21,-435.49C591.21,-427.46 591.21,-417.72 591.21,-408.74"/>
<polygon fill="black" stroke="black" points="594.71,-408.7 591.21,-398.7 587.71,-408.7 594.71,-408.7"/>
</g>
<!-- 9 -->
<g id="node18" class="node">
<title>9</title>
<ellipse fill="none" stroke="black" cx="591.21" cy="-526.67" rx="63.43" ry="18"/>
<text text-anchor="start" x="550.1" y="-526.21" font-family="Monaco" baseline-shift="super" font-size="8.00" fill="#ff4411">q8</text>
<text text-anchor="start" x="559.71" y="-526.21" font-family="Monaco" font-size="11.00">req a[zero]</text>
</g>
<!-- 9&#45;&gt;10 -->
<g id="edge20" class="edge">
<title>9&#45;&gt;10</title>
<path fill="none" stroke="black" d="M591.21,-508.49C591.21,-500.46 591.21,-490.72 591.21,-481.74"/>
<polygon fill="black" stroke="black" points="594.71,-481.7 591.21,-471.7 587.71,-481.7 594.71,-481.7"/>
</g>
<!-- 14 -->
<g id="node20" class="node">
<title>14</title>
<ellipse fill="none" stroke="black" cx="792.21" cy="-453.67" rx="60.52" ry="18"/>
<text text-anchor="start" x="753.2" y="-453.21" font-family="Monaco" baseline-shift="super" font-size="8.00" fill="#ff4411">q12</text>
<text text-anchor="start" x="767.61" y="-453.21" font-family="Monaco" font-size="11.00">@h</text>
<text text-anchor="start" x="780.81" y="-453.21" font-family="Monaco" baseline-shift="super" font-size="8.00" fill="#00aa11">S64</text>
<text text-anchor="start" x="795.21" y="-453.21" font-family="Monaco" baseline-shift="super" font-size="8.00" fill="#3311ff">r0</text>
<text text-anchor="start" x="804.81" y="-453.21" font-family="Monaco" font-size="11.00">:a[]</text>
</g>
<!-- 16 -->
<g id="node22" class="node">
<title>16</title>
<ellipse fill="none" stroke="black" cx="792.21" cy="-380.67" rx="90.77" ry="18"/>
<text text-anchor="start" x="729.8" y="-380.21" font-family="Monaco" baseline-shift="super" font-size="8.00" fill="#ff4411">q13</text>
<text text-anchor="start" x="744.2" y="-380.21" font-family="Monaco" font-size="11.00">@j</text>
<text text-anchor="start" x="757.4" y="-380.21" font-family="Monaco" baseline-shift="super" font-size="8.00" fill="#00aa11">S64</text>
<text text-anchor="start" x="771.81" y="-380.21" font-family="Monaco" baseline-shift="super" font-size="8.00" fill="#3311ff">r0</text>
<text text-anchor="start" x="781.41" y="-380.21" font-family="Monaco" font-size="11.00">:@h*</text>
<text text-anchor="start" x="807.81" y="-380.21" font-family="Monaco" baseline-shift="super" font-size="8.00" fill="#3311ff">Bin1</text>
<text text-anchor="start" x="827.02" y="-380.21" font-family="Monaco" font-size="11.00">&#45;3</text>
<text text-anchor="start" x="840.22" y="-380.21" font-family="Monaco" baseline-shift="super" font-size="8.00" fill="#00aa11">S64</text>
</g>
<!-- 14&#45;&gt;16 -->
<g id="edge21" class="edge">
<title>14&#45;&gt;16</title>
<path fill="none" stroke="black" d="M792.21,-435.49C792.21,-427.46 792.21,-417.72 792.21,-408.74"/>
<polygon fill="black" stroke="black" points="795.71,-408.7 792.21,-398.7 788.71,-408.7 795.71,-408.7"/>
</g>
<!-- 13 -->
<g id="node21" class="node">
<title>13</title>
<ellipse fill="none" stroke="black" cx="792.21" cy="-526.67" rx="66.1" ry="18"/>
<text text-anchor="start" x="748.7" y="-526.21" font-family="Monaco" baseline-shift="super" font-size="8.00" fill="#ff4411">q11</text>
<text text-anchor="start" x="763.11" y="-526.21" font-family="Monaco" font-size="11.00">req a[zero]</text>
</g>
<!-- 13&#45;&gt;14 -->
<g id="edge22" class="edge">
<title>13&#45;&gt;14</title>
<path fill="none" stroke="black" d="M792.21,-508.49C792.21,-500.46 792.21,-490.72 792.21,-481.74"/>
<polygon fill="black" stroke="black" points="795.71,-481.7 792.21,-471.7 788.71,-481.7 795.71,-481.7"/>
</g>
<!-- 17 -->
<g id="node23" class="node">
<title>17</title>
<ellipse fill="none" stroke="black" cx="973.21" cy="-526.67" rx="62.11" ry="18"/>
<text text-anchor="start" x="933" y="-526.21" font-family="Monaco" baseline-shift="super" font-size="8.00" fill="#ff4411">q14</text>
<text text-anchor="start" x="947.41" y="-526.21" font-family="Monaco" font-size="11.00">a[zero]=@k</text>
</g>
<!-- 18 -->
<g id="node25" class="node">
<title>18</title>
<ellipse fill="none" stroke="black" cx="973.21" cy="-453.67" rx="66.1" ry="18"/>
<text text-anchor="start" x="929.7" y="-453.21" font-family="Monaco" baseline-shift="super" font-size="8.00" fill="#ff4411">q15</text>
<text text-anchor="start" x="944.11" y="-453.21" font-family="Monaco" font-size="11.00">req a[zero]</text>
</g>
<!-- 17&#45;&gt;18 -->
<g id="edge23" class="edge">
<title>17&#45;&gt;18</title>
<path fill="none" stroke="black" stroke-dasharray="1,5" d="M973.21,-508.49C973.21,-500.46 973.21,-490.72 973.21,-481.74"/>
<polygon fill="black" stroke="black" points="976.71,-481.7 973.21,-471.7 969.71,-481.7 976.71,-481.7"/>
</g>
<!-- 19 -->
<g id="node24" class="node">
<title>19</title>
<ellipse fill="none" stroke="black" cx="973.21" cy="-380.67" rx="60.52" ry="18"/>
<text text-anchor="start" x="934.2" y="-380.21" font-family="Monaco" baseline-shift="super" font-size="8.00" fill="#ff4411">q16</text>
<text text-anchor="start" x="948.61" y="-380.21" font-family="Monaco" font-size="11.00">@l</text>
<text text-anchor="start" x="961.81" y="-380.21" font-family="Monaco" baseline-shift="super" font-size="8.00" fill="#00aa11">S64</text>
<text text-anchor="start" x="976.21" y="-380.21" font-family="Monaco" baseline-shift="super" font-size="8.00" fill="#3311ff">r0</text>
<text text-anchor="start" x="985.81" y="-380.21" font-family="Monaco" font-size="11.00">:a[]</text>
</g>
<!-- 18&#45;&gt;19 -->
<g id="edge24" class="edge">
<title>18&#45;&gt;19</title>
<path fill="none" stroke="black" d="M973.21,-435.49C973.21,-427.46 973.21,-417.72 973.21,-408.74"/>
<polygon fill="black" stroke="black" points="976.71,-408.7 973.21,-398.7 969.71,-408.7 976.71,-408.7"/>
</g>
</g>
</svg>
