<?xml version="1.0" encoding="UTF-8" standalone="no"?>
<!DOCTYPE svg PUBLIC "-//W3C//DTD SVG 1.1//EN"
 "http://www.w3.org/Graphics/SVG/1.1/DTD/svg11.dtd">
<!-- Generated by graphviz version 2.43.0 (0)
 -->
<!-- Title: Program_ Pages: 1 -->
<svg width="1781pt" height="577pt"
 viewBox="0.00 0.00 1780.84 576.68" xmlns="http://www.w3.org/2000/svg" xmlns:xlink="http://www.w3.org/1999/xlink">
<g id="graph0" class="graph" transform="scale(1 1) rotate(0) translate(4 572.68)">
<title>Program_</title>
<polygon fill="white" stroke="transparent" points="-4,4 -4,-572.68 1776.84,-572.68 1776.84,4 -4,4"/>
<g id="clust1" class="cluster">
<title>cluster_dfg_Block0</title>
<polygon fill="none" stroke="black" points="178.84,-78.67 178.84,-560.68 596.84,-560.68 596.84,-78.67 178.84,-78.67"/>
<text text-anchor="middle" x="387.84" y="-547.08" font-family="Monaco" font-size="12.00">Block0</text>
</g>
<g id="clust2" class="cluster">
<title>cluster_dfg_Block1</title>
<polygon fill="none" stroke="black" points="604.84,-252.01 604.84,-560.68 1012.84,-560.68 1012.84,-252.01 604.84,-252.01"/>
<text text-anchor="middle" x="808.84" y="-547.08" font-family="Monaco" font-size="12.00">Block1</text>
</g>
<g id="clust3" class="cluster">
<title>cluster_dfg_Block2</title>
<polygon fill="none" stroke="black" points="1020.84,-252.01 1020.84,-560.68 1449.84,-560.68 1449.84,-252.01 1020.84,-252.01"/>
<text text-anchor="middle" x="1235.34" y="-547.08" font-family="Monaco" font-size="12.00">Block2</text>
</g>
<g id="clust4" class="cluster">
<title>cluster_dfg_Block3</title>
<polygon fill="none" stroke="black" points="1457.84,-252.01 1457.84,-560.68 1764.84,-560.68 1764.84,-252.01 1457.84,-252.01"/>
<text text-anchor="middle" x="1611.34" y="-547.08" font-family="Monaco" font-size="12.00">Block3</text>
</g>
<!-- Jump0 -->
<g id="node1" class="node">
<title>Jump0</title>
<polygon fill="none" stroke="black" points="137.45,-528.67 46.23,-528.67 46.23,-524.67 42.23,-524.67 42.23,-520.67 46.23,-520.67 46.23,-500.67 42.23,-500.67 42.23,-496.67 46.23,-496.67 46.23,-492.67 137.45,-492.67 137.45,-528.67"/>
<polyline fill="none" stroke="black" points="46.23,-524.67 50.23,-524.67 50.23,-520.67 46.23,-520.67 "/>
<polyline fill="none" stroke="black" points="46.23,-500.67 50.23,-500.67 50.23,-496.67 46.23,-496.67 "/>
<text text-anchor="start" x="54.03" y="-513.87" font-family="Monaco" font-size="11.00">StartFun.0</text>
<text text-anchor="start" x="120.05" y="-513.87" font-family="Monaco" baseline-shift="super" font-size="8.00" fill="#ff4411">q0</text>
<text text-anchor="start" x="88.54" y="-502.87" font-family="Monaco" font-size="11.00">i</text>
</g>
<!-- Block0 -->
<g id="node2" class="node">
<title>Block0</title>
<polygon fill="none" stroke="black" points="119.45,-455.67 64.23,-455.67 64.23,-419.67 119.45,-419.67 119.45,-455.67"/>
<text text-anchor="middle" x="91.84" y="-436.21" font-family="Monaco" font-size="11.00">Block0</text>
</g>
<!-- Jump0&#45;&gt;Block0 -->
<g id="edge1" class="edge">
<title>Jump0&#45;&gt;Block0</title>
<path fill="none" stroke="black" d="M91.84,-492.49C91.84,-484.46 91.84,-474.72 91.84,-465.74"/>
<polygon fill="black" stroke="black" points="95.34,-465.7 91.84,-455.7 88.34,-465.7 95.34,-465.7"/>
</g>
<!-- Jump1 -->
<g id="node3" class="node">
<title>Jump1</title>
<path fill="none" stroke="black" d="M121.45,-382.67C121.45,-382.67 62.24,-382.67 62.24,-382.67 56.24,-382.67 46.42,-378.04 42.61,-373.41 42.61,-373.41 28.23,-355.94 28.23,-355.94 24.41,-351.31 26.6,-346.67 32.6,-346.67 32.6,-346.67 151.08,-346.67 151.08,-346.67 157.08,-346.67 159.27,-351.31 155.45,-355.94 155.45,-355.94 141.07,-373.41 141.07,-373.41 137.26,-378.04 127.45,-382.67 121.45,-382.67"/>
<text text-anchor="start" x="60.64" y="-364.21" font-family="Monaco" font-size="11.00">Branch.1</text>
<text text-anchor="start" x="113.44" y="-364.21" font-family="Monaco" baseline-shift="super" font-size="8.00" fill="#ff4411">q5</text>
</g>
<!-- Block0&#45;&gt;Jump1 -->
<g id="edge2" class="edge">
<title>Block0&#45;&gt;Jump1</title>
<path fill="none" stroke="black" d="M91.84,-419.49C91.84,-411.46 91.84,-401.72 91.84,-392.74"/>
<polygon fill="black" stroke="black" points="95.34,-392.7 91.84,-382.7 88.34,-392.7 95.34,-392.7"/>
</g>
<!-- Block1 -->
<g id="node4" class="node">
<title>Block1</title>
<polygon fill="none" stroke="black" points="96.45,-296.01 41.23,-296.01 41.23,-260.01 96.45,-260.01 96.45,-296.01"/>
<text text-anchor="middle" x="68.84" y="-276.54" font-family="Monaco" font-size="11.00">Block1</text>
</g>
<!-- Jump1&#45;&gt;Block1 -->
<g id="edge3" class="edge">
<title>Jump1&#45;&gt;Block1</title>
<path fill="none" stroke="black" d="M87.19,-346.54C84.04,-334.95 79.81,-319.4 76.21,-306.14"/>
<polygon fill="black" stroke="black" points="79.49,-304.85 73.49,-296.11 72.73,-306.68 79.49,-304.85"/>
<text text-anchor="middle" x="88.44" y="-319.87" font-family="Monaco" font-size="11.00">@d</text>
</g>
<!-- Block2 -->
<g id="node5" class="node">
<title>Block2</title>
<polygon fill="none" stroke="black" points="170.45,-296.01 115.23,-296.01 115.23,-260.01 170.45,-260.01 170.45,-296.01"/>
<text text-anchor="middle" x="142.84" y="-276.54" font-family="Monaco" font-size="11.00">Block2</text>
</g>
<!-- Jump1&#45;&gt;Block2 -->
<g id="edge4" class="edge">
<title>Jump1&#45;&gt;Block2</title>
<path fill="none" stroke="black" d="M102.16,-346.54C109.35,-334.6 119.07,-318.47 127.21,-304.96"/>
<polygon fill="black" stroke="black" points="130.37,-306.49 132.54,-296.11 124.38,-302.87 130.37,-306.49"/>
<text text-anchor="middle" x="130.74" y="-319.87" font-family="Monaco" font-size="11.00">!@d</text>
</g>
<!-- Jump2 -->
<g id="node6" class="node">
<title>Jump2</title>
<path fill="none" stroke="black" d="M46.55,-173.34C46.55,-173.34 119.13,-173.34 119.13,-173.34 125.13,-173.34 135.27,-177.68 139.42,-182.01 139.42,-182.01 157.23,-200.66 157.23,-200.66 161.38,-205 159.52,-209.34 153.52,-209.34 153.52,-209.34 12.16,-209.34 12.16,-209.34 6.16,-209.34 4.3,-205 8.45,-200.66 8.45,-200.66 26.26,-182.01 26.26,-182.01 30.41,-177.68 40.55,-173.34 46.55,-173.34"/>
<text text-anchor="start" x="45.33" y="-190.87" font-family="Monaco" font-size="11.00">Merge.2</text>
<text text-anchor="start" x="91.54" y="-190.87" font-family="Monaco" baseline-shift="super" font-size="8.00" fill="#ff4411">q12|q9</text>
</g>
<!-- Block1&#45;&gt;Jump2 -->
<g id="edge5" class="edge">
<title>Block1&#45;&gt;Jump2</title>
<path fill="none" stroke="black" d="M71.67,-259.87C73.59,-248.28 76.16,-232.73 78.35,-219.47"/>
<polygon fill="black" stroke="black" points="81.83,-219.88 80.01,-209.45 74.93,-218.74 81.83,-219.88"/>
<text text-anchor="middle" x="83.44" y="-233.21" font-family="Monaco" font-size="11.00">@g</text>
</g>
<!-- Block2&#45;&gt;Jump2 -->
<g id="edge6" class="edge">
<title>Block2&#45;&gt;Jump2</title>
<path fill="none" stroke="black" d="M130.7,-259.87C122.16,-247.82 110.59,-231.49 100.96,-217.9"/>
<polygon fill="black" stroke="black" points="103.6,-215.58 94.96,-209.45 97.89,-219.63 103.6,-215.58"/>
<text text-anchor="middle" x="123.44" y="-233.21" font-family="Monaco" font-size="11.00">@j</text>
</g>
<!-- Block3 -->
<g id="node7" class="node">
<title>Block3</title>
<polygon fill="none" stroke="black" points="110.45,-122.67 55.23,-122.67 55.23,-86.67 110.45,-86.67 110.45,-122.67"/>
<text text-anchor="middle" x="82.84" y="-103.2" font-family="Monaco" font-size="11.00">Block3</text>
</g>
<!-- Jump2&#45;&gt;Block3 -->
<g id="edge7" class="edge">
<title>Jump2&#45;&gt;Block3</title>
<path fill="none" stroke="black" d="M82.84,-173.2C82.84,-161.61 82.84,-146.06 82.84,-132.8"/>
<polygon fill="black" stroke="black" points="86.34,-132.78 82.84,-122.78 79.34,-132.78 86.34,-132.78"/>
<text text-anchor="middle" x="89.44" y="-146.54" font-family="Monaco" font-size="11.00">@k</text>
</g>
<!-- Jump3 -->
<g id="node8" class="node">
<title>Jump3</title>
<polygon fill="none" stroke="black" points="124.55,-30 59.13,-30 59.13,-36 41.13,-18 59.13,0 59.13,-6 106.55,-6 106.55,0 124.55,0 124.55,-30"/>
<text text-anchor="start" x="49.24" y="-17.53" font-family="Monaco" font-size="11.00">Return.3</text>
<text text-anchor="start" x="102.04" y="-17.53" font-family="Monaco" baseline-shift="super" font-size="8.00" fill="#ff4411">q15</text>
</g>
<!-- Block3&#45;&gt;Jump3 -->
<g id="edge8" class="edge">
<title>Block3&#45;&gt;Jump3</title>
<path fill="none" stroke="black" d="M82.84,-86.53C82.84,-74.94 82.84,-59.39 82.84,-46.13"/>
<polygon fill="black" stroke="black" points="86.34,-46.11 82.84,-36.11 79.34,-46.11 86.34,-46.11"/>
<text text-anchor="middle" x="89.44" y="-59.87" font-family="Monaco" font-size="11.00">@l</text>
</g>
<!-- ndBlock0_0 -->
<g id="node9" class="node">
<title>ndBlock0_0</title>
<ellipse fill="none" stroke="black" cx="513.84" cy="-437.67" rx="54.93" ry="18"/>
<text text-anchor="start" x="479.34" y="-437.21" font-family="Monaco" font-size="11.00">out(zero)</text>
<text text-anchor="start" x="538.74" y="-437.21" font-family="Monaco" baseline-shift="super" font-size="8.00" fill="#ff4411">q5</text>
</g>
<!-- ndBlock0_1 -->
<g id="node10" class="node">
<title>ndBlock0_1</title>
<ellipse fill="none" stroke="black" cx="437.84" cy="-191.34" rx="79.37" ry="18"/>
<text text-anchor="start" x="384.13" y="-190.87" font-family="Monaco" font-size="11.00">@d</text>
<text text-anchor="start" x="397.33" y="-190.87" font-family="Monaco" baseline-shift="super" font-size="8.00" fill="#00dd33">U1</text>
<text text-anchor="start" x="406.94" y="-190.87" font-family="Monaco" baseline-shift="super" font-size="8.00" fill="#3311ff">r0</text>
<text text-anchor="start" x="416.54" y="-190.87" font-family="Monaco" font-size="11.00">:@b&gt;=</text>
<text text-anchor="start" x="449.54" y="-190.87" font-family="Monaco" baseline-shift="super" font-size="8.00" fill="#3311ff">Bin0</text>
<text text-anchor="start" x="468.75" y="-190.87" font-family="Monaco" font-size="11.00">@c</text>
<text text-anchor="start" x="481.95" y="-190.87" font-family="Monaco" baseline-shift="super" font-size="8.00" fill="#ff4411">q4</text>
</g>
<!-- ndBlock0_9 -->
<g id="node18" class="node">
<title>ndBlock0_9</title>
<ellipse fill="none" stroke="black" cx="437.84" cy="-104.67" rx="46.44" ry="18"/>
<text text-anchor="start" x="409.94" y="-104.2" font-family="Monaco" font-size="11.00">out(@d)</text>
<text text-anchor="start" x="456.14" y="-104.2" font-family="Monaco" baseline-shift="super" font-size="8.00" fill="#ff4411">q5</text>
</g>
<!-- ndBlock0_1&#45;&gt;ndBlock0_9 -->
<g id="edge9" class="edge">
<title>ndBlock0_1&#45;&gt;ndBlock0_9</title>
<path fill="none" stroke="black" d="M437.84,-173.2C437.84,-161.61 437.84,-146.06 437.84,-132.8"/>
<polygon fill="black" stroke="black" points="441.34,-132.78 437.84,-122.78 434.34,-132.78 441.34,-132.78"/>
</g>
<!-- ndBlock0_2 -->
<g id="node11" class="node">
<title>ndBlock0_2</title>
<ellipse fill="none" stroke="black" cx="361.84" cy="-510.67" rx="48.84" ry="18"/>
<text text-anchor="start" x="331.84" y="-510.21" font-family="Monaco" font-size="11.00">@a</text>
<text text-anchor="start" x="345.04" y="-510.21" font-family="Monaco" baseline-shift="super" font-size="8.00" fill="#00dd33">S64</text>
<text text-anchor="start" x="359.44" y="-510.21" font-family="Monaco" baseline-shift="super" font-size="8.00" fill="#3311ff">r1</text>
<text text-anchor="start" x="369.04" y="-510.21" font-family="Monaco" font-size="11.00">:1</text>
<text text-anchor="start" x="382.24" y="-510.21" font-family="Monaco" baseline-shift="super" font-size="8.00" fill="#ff4411">q0</text>
</g>
<!-- ndBlock0_7 -->
<g id="node16" class="node">
<title>ndBlock0_7</title>
<ellipse fill="none" stroke="black" cx="361.84" cy="-437.67" rx="58.93" ry="18"/>
<text text-anchor="start" x="324.03" y="-437.21" font-family="Monaco" font-size="11.00">a[zero]=@a</text>
<text text-anchor="start" x="390.05" y="-437.21" font-family="Monaco" baseline-shift="super" font-size="8.00" fill="#ff4411">q1</text>
</g>
<!-- ndBlock0_2&#45;&gt;ndBlock0_7 -->
<g id="edge10" class="edge">
<title>ndBlock0_2&#45;&gt;ndBlock0_7</title>
<path fill="none" stroke="black" d="M361.84,-492.49C361.84,-484.46 361.84,-474.72 361.84,-465.74"/>
<polygon fill="black" stroke="black" points="365.34,-465.7 361.84,-455.7 358.34,-465.7 365.34,-465.7"/>
</g>
<!-- ndBlock0_3 -->
<g id="node12" class="node">
<title>ndBlock0_3</title>
<ellipse fill="none" stroke="black" cx="539.84" cy="-278.01" rx="45.66" ry="18"/>
<text text-anchor="start" x="512.24" y="-277.54" font-family="Monaco" font-size="11.00">@c</text>
<text text-anchor="start" x="525.44" y="-277.54" font-family="Monaco" baseline-shift="super" font-size="8.00" fill="#00dd33">S1</text>
<text text-anchor="start" x="535.04" y="-277.54" font-family="Monaco" baseline-shift="super" font-size="8.00" fill="#3311ff">r2</text>
<text text-anchor="start" x="544.64" y="-277.54" font-family="Monaco" font-size="11.00">:0</text>
<text text-anchor="start" x="557.84" y="-277.54" font-family="Monaco" baseline-shift="super" font-size="8.00" fill="#ff4411">q0</text>
</g>
<!-- ndBlock0_3&#45;&gt;ndBlock0_1 -->
<g id="edge11" class="edge">
<title>ndBlock0_3&#45;&gt;ndBlock0_1</title>
<path fill="none" stroke="black" d="M521.13,-261.48C505.57,-248.56 483.2,-229.99 465.56,-215.34"/>
<polygon fill="black" stroke="black" points="467.76,-212.62 457.83,-208.93 463.28,-218.01 467.76,-212.62"/>
</g>
<!-- ndBlock0_4 -->
<g id="node13" class="node">
<title>ndBlock0_4</title>
<ellipse fill="none" stroke="black" cx="385.84" cy="-364.67" rx="54.93" ry="18"/>
<text text-anchor="start" x="351.34" y="-364.21" font-family="Monaco" font-size="11.00">a[zero]=i</text>
<text text-anchor="start" x="410.74" y="-364.21" font-family="Monaco" baseline-shift="super" font-size="8.00" fill="#ff4411">q2</text>
</g>
<!-- ndBlock0_5 -->
<g id="node14" class="node">
<title>ndBlock0_5</title>
<ellipse fill="none" stroke="black" cx="401.84" cy="-278.01" rx="74.33" ry="18"/>
<text text-anchor="start" x="352.03" y="-277.54" font-family="Monaco" font-size="11.00">@b</text>
<text text-anchor="start" x="365.23" y="-277.54" font-family="Monaco" baseline-shift="super" font-size="8.00" fill="#00dd33">S64</text>
<text text-anchor="start" x="379.64" y="-277.54" font-family="Monaco" baseline-shift="super" font-size="8.00" fill="#3311ff">r0</text>
<text text-anchor="start" x="389.24" y="-277.54" font-family="Monaco" font-size="11.00">:a[zero]</text>
<text text-anchor="start" x="442.05" y="-277.54" font-family="Monaco" baseline-shift="super" font-size="8.00" fill="#ff4411">q3</text>
</g>
<!-- ndBlock0_4&#45;&gt;ndBlock0_5 -->
<g id="edge18" class="edge">
<title>ndBlock0_4&#45;&gt;ndBlock0_5</title>
<path fill="none" stroke="black" stroke-dasharray="1,5" d="M389.08,-346.54C391.27,-334.95 394.21,-319.4 396.71,-306.14"/>
<polygon fill="black" stroke="black" points="400.19,-306.59 398.61,-296.11 393.31,-305.29 400.19,-306.59"/>
</g>
<!-- ndBlock0_5&#45;&gt;ndBlock0_1 -->
<g id="edge12" class="edge">
<title>ndBlock0_5&#45;&gt;ndBlock0_1</title>
<path fill="none" stroke="black" d="M409.13,-259.87C414.15,-248.05 420.93,-232.11 426.64,-218.68"/>
<polygon fill="black" stroke="black" points="429.87,-220.02 430.57,-209.45 423.43,-217.28 429.87,-220.02"/>
</g>
<!-- ndBlock0_6 -->
<g id="node15" class="node">
<title>ndBlock0_6</title>
<ellipse fill="none" stroke="black" cx="497.84" cy="-510.67" rx="54.16" ry="18"/>
<text text-anchor="start" x="463.64" y="-510.21" font-family="Monaco" font-size="11.00">zero</text>
<text text-anchor="start" x="490.04" y="-510.21" font-family="Monaco" baseline-shift="super" font-size="8.00" fill="#00dd33">U1</text>
<text text-anchor="start" x="499.64" y="-510.21" font-family="Monaco" baseline-shift="super" font-size="8.00" fill="#3311ff">r3</text>
<text text-anchor="start" x="509.24" y="-510.21" font-family="Monaco" font-size="11.00">:0</text>
<text text-anchor="start" x="522.44" y="-510.21" font-family="Monaco" baseline-shift="super" font-size="8.00" fill="#ff4411">q0</text>
</g>
<!-- ndBlock0_6&#45;&gt;ndBlock0_0 -->
<g id="edge13" class="edge">
<title>ndBlock0_6&#45;&gt;ndBlock0_0</title>
<path fill="none" stroke="black" d="M501.71,-492.49C503.52,-484.46 505.72,-474.72 507.74,-465.74"/>
<polygon fill="black" stroke="black" points="511.22,-466.23 510,-455.7 504.39,-464.69 511.22,-466.23"/>
</g>
<!-- ndBlock0_6&#45;&gt;ndBlock0_4 -->
<g id="edge14" class="edge">
<title>ndBlock0_6&#45;&gt;ndBlock0_4</title>
<path fill="none" stroke="black" d="M481.71,-493.45C471.88,-483.11 459.42,-469.18 449.84,-455.67 439.25,-440.74 440.11,-434.83 429.84,-419.67 422.99,-409.56 414.69,-399.01 407.15,-389.95"/>
<polygon fill="black" stroke="black" points="409.64,-387.48 400.51,-382.11 404.3,-392 409.64,-387.48"/>
</g>
<!-- ndBlock0_6&#45;&gt;ndBlock0_5 -->
<g id="edge15" class="edge">
<title>ndBlock0_6&#45;&gt;ndBlock0_5</title>
<path fill="none" stroke="black" d="M531.52,-496.25C548.71,-487.48 568.01,-474.17 577.84,-455.67 585.35,-441.55 584.78,-434.09 577.84,-419.67 550.36,-362.53 487.11,-321.35 444.41,-298.83"/>
<polygon fill="black" stroke="black" points="445.86,-295.64 435.37,-294.18 442.66,-301.87 445.86,-295.64"/>
</g>
<!-- ndBlock0_6&#45;&gt;ndBlock0_7 -->
<g id="edge16" class="edge">
<title>ndBlock0_6&#45;&gt;ndBlock0_7</title>
<path fill="none" stroke="black" d="M469.99,-495.13C449.64,-484.51 421.81,-469.98 399.47,-458.32"/>
<polygon fill="black" stroke="black" points="401.08,-455.21 390.59,-453.68 397.84,-461.41 401.08,-455.21"/>
</g>
<!-- ndBlock0_7&#45;&gt;ndBlock0_4 -->
<g id="edge19" class="edge">
<title>ndBlock0_7&#45;&gt;ndBlock0_4</title>
<path fill="none" stroke="black" stroke-dasharray="1,5" d="M367.65,-419.49C370.39,-411.38 373.73,-401.51 376.79,-392.45"/>
<polygon fill="black" stroke="black" points="380.2,-393.3 380.08,-382.7 373.57,-391.06 380.2,-393.3"/>
</g>
<!-- ndBlock0_8 -->
<g id="node17" class="node">
<title>ndBlock0_8</title>
<ellipse fill="none" stroke="black" cx="235.84" cy="-437.67" rx="48.84" ry="18"/>
<text text-anchor="start" x="205.84" y="-437.21" font-family="Monaco" font-size="11.00">i</text>
<text text-anchor="start" x="212.44" y="-437.21" font-family="Monaco" baseline-shift="super" font-size="8.00" fill="#00dd33">S64</text>
<text text-anchor="start" x="226.84" y="-437.21" font-family="Monaco" baseline-shift="super" font-size="8.00" fill="#3311ff">r0</text>
<text text-anchor="start" x="236.44" y="-437.21" font-family="Monaco" font-size="11.00">:in</text>
<text text-anchor="start" x="256.24" y="-437.21" font-family="Monaco" baseline-shift="super" font-size="8.00" fill="#ff4411">q0</text>
</g>
<!-- ndBlock0_8&#45;&gt;ndBlock0_4 -->
<g id="edge17" class="edge">
<title>ndBlock0_8&#45;&gt;ndBlock0_4</title>
<path fill="none" stroke="black" d="M264.76,-422.98C288.12,-411.93 321.2,-396.27 346.89,-384.11"/>
<polygon fill="black" stroke="black" points="348.44,-387.25 355.98,-379.81 345.45,-380.92 348.44,-387.25"/>
</g>
<!-- ndBlock1_0 -->
<g id="node19" class="node">
<title>ndBlock1_0</title>
<ellipse fill="none" stroke="black" cx="955.84" cy="-437.67" rx="48.84" ry="18"/>
<text text-anchor="start" x="925.84" y="-437.21" font-family="Monaco" font-size="11.00">@f</text>
<text text-anchor="start" x="939.04" y="-437.21" font-family="Monaco" baseline-shift="super" font-size="8.00" fill="#00dd33">S64</text>
<text text-anchor="start" x="953.44" y="-437.21" font-family="Monaco" baseline-shift="super" font-size="8.00" fill="#3311ff">r0</text>
<text text-anchor="start" x="963.04" y="-437.21" font-family="Monaco" font-size="11.00">:2</text>
<text text-anchor="start" x="976.24" y="-437.21" font-family="Monaco" baseline-shift="super" font-size="8.00" fill="#ff4411">q5</text>
</g>
<!-- ndBlock1_5 -->
<g id="node24" class="node">
<title>ndBlock1_5</title>
<ellipse fill="none" stroke="black" cx="884.84" cy="-364.67" rx="78.05" ry="18"/>
<text text-anchor="start" x="832.03" y="-364.21" font-family="Monaco" font-size="11.00">@g</text>
<text text-anchor="start" x="845.23" y="-364.21" font-family="Monaco" baseline-shift="super" font-size="8.00" fill="#00dd33">S64</text>
<text text-anchor="start" x="859.64" y="-364.21" font-family="Monaco" baseline-shift="super" font-size="8.00" fill="#3311ff">r0</text>
<text text-anchor="start" x="869.24" y="-364.21" font-family="Monaco" font-size="11.00">:@e*</text>
<text text-anchor="start" x="895.64" y="-364.21" font-family="Monaco" baseline-shift="super" font-size="8.00" fill="#3311ff">Bin1</text>
<text text-anchor="start" x="914.85" y="-364.21" font-family="Monaco" font-size="11.00">@f</text>
<text text-anchor="start" x="928.05" y="-364.21" font-family="Monaco" baseline-shift="super" font-size="8.00" fill="#ff4411">q8</text>
</g>
<!-- ndBlock1_0&#45;&gt;ndBlock1_5 -->
<g id="edge20" class="edge">
<title>ndBlock1_0&#45;&gt;ndBlock1_5</title>
<path fill="none" stroke="black" d="M939.73,-420.56C930.64,-411.48 919.11,-399.94 908.97,-389.8"/>
<polygon fill="black" stroke="black" points="911.42,-387.31 901.88,-382.71 906.47,-392.26 911.42,-387.31"/>
</g>
<!-- ndBlock1_1 -->
<g id="node20" class="node">
<title>ndBlock1_1</title>
<ellipse fill="none" stroke="black" cx="667.84" cy="-437.67" rx="54.93" ry="18"/>
<text text-anchor="start" x="633.34" y="-437.21" font-family="Monaco" font-size="11.00">out(zero)</text>
<text text-anchor="start" x="692.74" y="-437.21" font-family="Monaco" baseline-shift="super" font-size="8.00" fill="#ff4411">q9</text>
</g>
<!-- ndBlock1_2 -->
<g id="node21" class="node">
<title>ndBlock1_2</title>
<ellipse fill="none" stroke="black" cx="672.84" cy="-510.67" rx="58.65" ry="18"/>
<text text-anchor="start" x="635.33" y="-510.21" font-family="Monaco" font-size="11.00">zero</text>
<text text-anchor="start" x="661.74" y="-510.21" font-family="Monaco" baseline-shift="super" font-size="8.00" fill="#00dd33">U1</text>
<text text-anchor="start" x="671.34" y="-510.21" font-family="Monaco" baseline-shift="super" font-size="8.00" fill="#3311ff">r3</text>
<text text-anchor="start" x="680.94" y="-510.21" font-family="Monaco" font-size="11.00">:in</text>
<text text-anchor="start" x="700.75" y="-510.21" font-family="Monaco" baseline-shift="super" font-size="8.00" fill="#ff4411">q5</text>
</g>
<!-- ndBlock1_2&#45;&gt;ndBlock1_1 -->
<g id="edge21" class="edge">
<title>ndBlock1_2&#45;&gt;ndBlock1_1</title>
<path fill="none" stroke="black" d="M671.63,-492.49C671.07,-484.46 670.38,-474.72 669.75,-465.74"/>
<polygon fill="black" stroke="black" points="673.23,-465.43 669.04,-455.7 666.25,-465.92 673.23,-465.43"/>
</g>
<!-- ndBlock1_3 -->
<g id="node22" class="node">
<title>ndBlock1_3</title>
<ellipse fill="none" stroke="black" cx="814.84" cy="-437.67" rx="74.33" ry="18"/>
<text text-anchor="start" x="765.03" y="-437.21" font-family="Monaco" font-size="11.00">@e</text>
<text text-anchor="start" x="778.23" y="-437.21" font-family="Monaco" baseline-shift="super" font-size="8.00" fill="#00dd33">S64</text>
<text text-anchor="start" x="792.64" y="-437.21" font-family="Monaco" baseline-shift="super" font-size="8.00" fill="#3311ff">r1</text>
<text text-anchor="start" x="802.24" y="-437.21" font-family="Monaco" font-size="11.00">:a[zero]</text>
<text text-anchor="start" x="855.05" y="-437.21" font-family="Monaco" baseline-shift="super" font-size="8.00" fill="#ff4411">q7</text>
</g>
<!-- ndBlock1_2&#45;&gt;ndBlock1_3 -->
<g id="edge22" class="edge">
<title>ndBlock1_2&#45;&gt;ndBlock1_3</title>
<path fill="none" stroke="black" d="M702.26,-494.96C723.25,-484.47 751.73,-470.23 774.79,-458.7"/>
<polygon fill="black" stroke="black" points="776.6,-461.71 783.98,-454.1 773.47,-455.44 776.6,-461.71"/>
</g>
<!-- ndBlock1_3&#45;&gt;ndBlock1_5 -->
<g id="edge23" class="edge">
<title>ndBlock1_3&#45;&gt;ndBlock1_5</title>
<path fill="none" stroke="black" d="M831.43,-419.85C840.32,-410.83 851.43,-399.56 861.21,-389.64"/>
<polygon fill="black" stroke="black" points="863.84,-391.96 868.37,-382.38 858.86,-387.04 863.84,-391.96"/>
</g>
<!-- ndBlock1_4 -->
<g id="node23" class="node">
<title>ndBlock1_4</title>
<ellipse fill="none" stroke="black" cx="884.84" cy="-278.01" rx="46.44" ry="18"/>
<text text-anchor="start" x="856.94" y="-277.54" font-family="Monaco" font-size="11.00">out(@g)</text>
<text text-anchor="start" x="903.14" y="-277.54" font-family="Monaco" baseline-shift="super" font-size="8.00" fill="#ff4411">q9</text>
</g>
<!-- ndBlock1_5&#45;&gt;ndBlock1_4 -->
<g id="edge24" class="edge">
<title>ndBlock1_5&#45;&gt;ndBlock1_4</title>
<path fill="none" stroke="black" d="M884.84,-346.54C884.84,-334.95 884.84,-319.4 884.84,-306.14"/>
<polygon fill="black" stroke="black" points="888.34,-306.11 884.84,-296.11 881.34,-306.11 888.34,-306.11"/>
</g>
<!-- ndBlock2_0 -->
<g id="node25" class="node">
<title>ndBlock2_0</title>
<ellipse fill="none" stroke="black" cx="1106.84" cy="-437.67" rx="77.51" ry="18"/>
<text text-anchor="start" x="1054.63" y="-437.21" font-family="Monaco" font-size="11.00">@h</text>
<text text-anchor="start" x="1067.83" y="-437.21" font-family="Monaco" baseline-shift="super" font-size="8.00" fill="#00dd33">S64</text>
<text text-anchor="start" x="1082.24" y="-437.21" font-family="Monaco" baseline-shift="super" font-size="8.00" fill="#3311ff">r1</text>
<text text-anchor="start" x="1091.84" y="-437.21" font-family="Monaco" font-size="11.00">:a[zero]</text>
<text text-anchor="start" x="1144.65" y="-437.21" font-family="Monaco" baseline-shift="super" font-size="8.00" fill="#ff4411">q10</text>
</g>
<!-- ndBlock2_5 -->
<g id="node30" class="node">
<title>ndBlock2_5</title>
<ellipse fill="none" stroke="black" cx="1179.84" cy="-364.67" rx="81.23" ry="18"/>
<text text-anchor="start" x="1124.63" y="-364.21" font-family="Monaco" font-size="11.00">@j</text>
<text text-anchor="start" x="1137.83" y="-364.21" font-family="Monaco" baseline-shift="super" font-size="8.00" fill="#00dd33">S64</text>
<text text-anchor="start" x="1152.24" y="-364.21" font-family="Monaco" baseline-shift="super" font-size="8.00" fill="#3311ff">r0</text>
<text text-anchor="start" x="1161.84" y="-364.21" font-family="Monaco" font-size="11.00">:@h*</text>
<text text-anchor="start" x="1188.24" y="-364.21" font-family="Monaco" baseline-shift="super" font-size="8.00" fill="#3311ff">Bin1</text>
<text text-anchor="start" x="1207.45" y="-364.21" font-family="Monaco" font-size="11.00">@i</text>
<text text-anchor="start" x="1220.65" y="-364.21" font-family="Monaco" baseline-shift="super" font-size="8.00" fill="#ff4411">q11</text>
</g>
<!-- ndBlock2_0&#45;&gt;ndBlock2_5 -->
<g id="edge25" class="edge">
<title>ndBlock2_0&#45;&gt;ndBlock2_5</title>
<path fill="none" stroke="black" d="M1124.14,-419.85C1133.41,-410.83 1145,-399.56 1155.2,-389.64"/>
<polygon fill="black" stroke="black" points="1157.94,-391.86 1162.67,-382.38 1153.06,-386.84 1157.94,-391.86"/>
</g>
<!-- ndBlock2_1 -->
<g id="node26" class="node">
<title>ndBlock2_1</title>
<ellipse fill="none" stroke="black" cx="1259.84" cy="-437.67" rx="57.61" ry="18"/>
<text text-anchor="start" x="1222.93" y="-437.21" font-family="Monaco" font-size="11.00">out(zero)</text>
<text text-anchor="start" x="1282.34" y="-437.21" font-family="Monaco" baseline-shift="super" font-size="8.00" fill="#ff4411">q12</text>
</g>
<!-- ndBlock2_2 -->
<g id="node27" class="node">
<title>ndBlock2_2</title>
<ellipse fill="none" stroke="black" cx="1388.84" cy="-437.67" rx="53.34" ry="18"/>
<text text-anchor="start" x="1355.54" y="-437.21" font-family="Monaco" font-size="11.00">@i</text>
<text text-anchor="start" x="1368.74" y="-437.21" font-family="Monaco" baseline-shift="super" font-size="8.00" fill="#00dd33">S64</text>
<text text-anchor="start" x="1383.14" y="-437.21" font-family="Monaco" baseline-shift="super" font-size="8.00" fill="#3311ff">r0</text>
<text text-anchor="start" x="1392.74" y="-437.21" font-family="Monaco" font-size="11.00">:&#45;3</text>
<text text-anchor="start" x="1412.54" y="-437.21" font-family="Monaco" baseline-shift="super" font-size="8.00" fill="#ff4411">q5</text>
</g>
<!-- ndBlock2_2&#45;&gt;ndBlock2_5 -->
<g id="edge26" class="edge">
<title>ndBlock2_2&#45;&gt;ndBlock2_5</title>
<path fill="none" stroke="black" d="M1352.44,-424.31C1319.15,-413 1269.55,-396.15 1232.05,-383.41"/>
<polygon fill="black" stroke="black" points="1232.9,-380 1222.31,-380.1 1230.65,-386.63 1232.9,-380"/>
</g>
<!-- ndBlock2_3 -->
<g id="node28" class="node">
<title>ndBlock2_3</title>
<ellipse fill="none" stroke="black" cx="1182.84" cy="-510.67" rx="58.65" ry="18"/>
<text text-anchor="start" x="1145.33" y="-510.21" font-family="Monaco" font-size="11.00">zero</text>
<text text-anchor="start" x="1171.74" y="-510.21" font-family="Monaco" baseline-shift="super" font-size="8.00" fill="#00dd33">U1</text>
<text text-anchor="start" x="1181.34" y="-510.21" font-family="Monaco" baseline-shift="super" font-size="8.00" fill="#3311ff">r3</text>
<text text-anchor="start" x="1190.94" y="-510.21" font-family="Monaco" font-size="11.00">:in</text>
<text text-anchor="start" x="1210.75" y="-510.21" font-family="Monaco" baseline-shift="super" font-size="8.00" fill="#ff4411">q5</text>
</g>
<!-- ndBlock2_3&#45;&gt;ndBlock2_0 -->
<g id="edge27" class="edge">
<title>ndBlock2_3&#45;&gt;ndBlock2_0</title>
<path fill="none" stroke="black" d="M1165.21,-493.21C1155.4,-484.04 1143.02,-472.48 1132.19,-462.36"/>
<polygon fill="black" stroke="black" points="1134.33,-459.57 1124.64,-455.3 1129.55,-464.68 1134.33,-459.57"/>
</g>
<!-- ndBlock2_3&#45;&gt;ndBlock2_1 -->
<g id="edge28" class="edge">
<title>ndBlock2_3&#45;&gt;ndBlock2_1</title>
<path fill="none" stroke="black" d="M1200.7,-493.21C1210.81,-483.89 1223.61,-472.08 1234.71,-461.84"/>
<polygon fill="black" stroke="black" points="1237.1,-464.4 1242.08,-455.05 1232.35,-459.26 1237.1,-464.4"/>
</g>
<!-- ndBlock2_4 -->
<g id="node29" class="node">
<title>ndBlock2_4</title>
<ellipse fill="none" stroke="black" cx="1179.84" cy="-278.01" rx="49.12" ry="18"/>
<text text-anchor="start" x="1149.54" y="-277.54" font-family="Monaco" font-size="11.00">out(@j)</text>
<text text-anchor="start" x="1195.74" y="-277.54" font-family="Monaco" baseline-shift="super" font-size="8.00" fill="#ff4411">q12</text>
</g>
<!-- ndBlock2_5&#45;&gt;ndBlock2_4 -->
<g id="edge29" class="edge">
<title>ndBlock2_5&#45;&gt;ndBlock2_4</title>
<path fill="none" stroke="black" d="M1179.84,-346.54C1179.84,-334.95 1179.84,-319.4 1179.84,-306.14"/>
<polygon fill="black" stroke="black" points="1183.34,-306.11 1179.84,-296.11 1176.34,-306.11 1183.34,-306.11"/>
</g>
<!-- ndBlock3_0 -->
<g id="node31" class="node">
<title>ndBlock3_0</title>
<ellipse fill="none" stroke="black" cx="1580.84" cy="-364.67" rx="77.51" ry="18"/>
<text text-anchor="start" x="1528.63" y="-364.21" font-family="Monaco" font-size="11.00">@l</text>
<text text-anchor="start" x="1541.83" y="-364.21" font-family="Monaco" baseline-shift="super" font-size="8.00" fill="#00dd33">S64</text>
<text text-anchor="start" x="1556.24" y="-364.21" font-family="Monaco" baseline-shift="super" font-size="8.00" fill="#3311ff">r0</text>
<text text-anchor="start" x="1565.84" y="-364.21" font-family="Monaco" font-size="11.00">:a[zero]</text>
<text text-anchor="start" x="1618.65" y="-364.21" font-family="Monaco" baseline-shift="super" font-size="8.00" fill="#ff4411">q14</text>
</g>
<!-- ndBlock3_1 -->
<g id="node32" class="node">
<title>ndBlock3_1</title>
<ellipse fill="none" stroke="black" cx="1580.84" cy="-278.01" rx="49.12" ry="18"/>
<text text-anchor="start" x="1550.54" y="-277.54" font-family="Monaco" font-size="11.00">out(@l)</text>
<text text-anchor="start" x="1596.74" y="-277.54" font-family="Monaco" baseline-shift="super" font-size="8.00" fill="#ff4411">q15</text>
</g>
<!-- ndBlock3_0&#45;&gt;ndBlock3_1 -->
<g id="edge30" class="edge">
<title>ndBlock3_0&#45;&gt;ndBlock3_1</title>
<path fill="none" stroke="black" d="M1580.84,-346.54C1580.84,-334.95 1580.84,-319.4 1580.84,-306.14"/>
<polygon fill="black" stroke="black" points="1584.34,-306.11 1580.84,-296.11 1577.34,-306.11 1584.34,-306.11"/>
</g>
<!-- ndBlock3_2 -->
<g id="node33" class="node">
<title>ndBlock3_2</title>
<ellipse fill="none" stroke="black" cx="1617.84" cy="-437.67" rx="62.11" ry="18"/>
<text text-anchor="start" x="1577.63" y="-437.21" font-family="Monaco" font-size="11.00">a[zero]=@k</text>
<text text-anchor="start" x="1643.65" y="-437.21" font-family="Monaco" baseline-shift="super" font-size="8.00" fill="#ff4411">q13</text>
</g>
<!-- ndBlock3_2&#45;&gt;ndBlock3_0 -->
<g id="edge34" class="edge">
<title>ndBlock3_2&#45;&gt;ndBlock3_0</title>
<path fill="none" stroke="black" stroke-dasharray="1,5" d="M1609.07,-419.85C1604.71,-411.48 1599.35,-401.18 1594.47,-391.82"/>
<polygon fill="black" stroke="black" points="1597.53,-390.12 1589.8,-382.87 1591.32,-393.36 1597.53,-390.12"/>
</g>
<!-- ndBlock3_3 -->
<g id="node34" class="node">
<title>ndBlock3_3</title>
<ellipse fill="none" stroke="black" cx="1690.84" cy="-510.67" rx="65.56" ry="18"/>
<text text-anchor="start" x="1647.93" y="-510.21" font-family="Monaco" font-size="11.00">@k</text>
<text text-anchor="start" x="1661.14" y="-510.21" font-family="Monaco" baseline-shift="super" font-size="8.00" fill="#00dd33">S64</text>
<text text-anchor="start" x="1675.54" y="-510.21" font-family="Monaco" baseline-shift="super" font-size="8.00" fill="#3311ff">r0</text>
<text text-anchor="start" x="1685.14" y="-510.21" font-family="Monaco" font-size="11.00">:in</text>
<text text-anchor="start" x="1704.94" y="-510.21" font-family="Monaco" baseline-shift="super" font-size="8.00" fill="#ff4411">q12|q9</text>
</g>
<!-- ndBlock3_3&#45;&gt;ndBlock3_2 -->
<g id="edge31" class="edge">
<title>ndBlock3_3&#45;&gt;ndBlock3_2</title>
<path fill="none" stroke="black" d="M1673.91,-493.21C1664.42,-483.98 1652.42,-472.31 1641.97,-462.14"/>
<polygon fill="black" stroke="black" points="1644.29,-459.52 1634.68,-455.05 1639.41,-464.53 1644.29,-459.52"/>
</g>
<!-- ndBlock3_4 -->
<g id="node35" class="node">
<title>ndBlock3_4</title>
<ellipse fill="none" stroke="black" cx="1536.84" cy="-510.67" rx="70.87" ry="18"/>
<text text-anchor="start" x="1489.73" y="-510.21" font-family="Monaco" font-size="11.00">zero</text>
<text text-anchor="start" x="1516.14" y="-510.21" font-family="Monaco" baseline-shift="super" font-size="8.00" fill="#00dd33">U1</text>
<text text-anchor="start" x="1525.74" y="-510.21" font-family="Monaco" baseline-shift="super" font-size="8.00" fill="#3311ff">r3</text>
<text text-anchor="start" x="1535.34" y="-510.21" font-family="Monaco" font-size="11.00">:in</text>
<text text-anchor="start" x="1555.14" y="-510.21" font-family="Monaco" baseline-shift="super" font-size="8.00" fill="#ff4411">q12|q9</text>
</g>
<!-- ndBlock3_4&#45;&gt;ndBlock3_0 -->
<g id="edge32" class="edge">
<title>ndBlock3_4&#45;&gt;ndBlock3_0</title>
<path fill="none" stroke="black" d="M1536.49,-492.59C1536.62,-474.1 1538.33,-444.01 1546.84,-419.67 1550.31,-409.74 1555.89,-399.74 1561.53,-391.1"/>
<polygon fill="black" stroke="black" points="1564.57,-392.86 1567.35,-382.63 1558.8,-388.89 1564.57,-392.86"/>
</g>
<!-- ndBlock3_4&#45;&gt;ndBlock3_2 -->
<g id="edge33" class="edge">
<title>ndBlock3_4&#45;&gt;ndBlock3_2</title>
<path fill="none" stroke="black" d="M1555.63,-493.21C1566.26,-483.89 1579.73,-472.08 1591.41,-461.84"/>
<polygon fill="black" stroke="black" points="1593.94,-464.28 1599.16,-455.05 1589.33,-459.01 1593.94,-464.28"/>
</g>
</g>
</svg>
