<?xml version="1.0" encoding="UTF-8" standalone="no"?>
<!DOCTYPE svg PUBLIC "-//W3C//DTD SVG 1.1//EN"
 "http://www.w3.org/Graphics/SVG/1.1/DTD/svg11.dtd">
<!-- Generated by graphviz version 2.43.0 (0)
 -->
<!-- Title: Program_ Pages: 1 -->
<svg width="1554pt" height="666pt"
 viewBox="0.00 0.00 1554.21 665.68" xmlns="http://www.w3.org/2000/svg" xmlns:xlink="http://www.w3.org/1999/xlink">
<g id="graph0" class="graph" transform="scale(1 1) rotate(0) translate(4 661.68)">
<title>Program_</title>
<polygon fill="white" stroke="transparent" points="-4,4 -4,-661.68 1550.21,-661.68 1550.21,4 -4,4"/>
<g id="clust1" class="cluster">
<title>cluster_dfg_Block0</title>
<polygon fill="none" stroke="black" points="186.21,-8 186.21,-649.68 636.21,-649.68 636.21,-8 186.21,-8"/>
<text text-anchor="middle" x="411.21" y="-636.08" font-family="Monaco" font-size="12.00">Block0</text>
</g>
<g id="clust2" class="cluster">
<title>cluster_dfg_Block1</title>
<polygon fill="none" stroke="black" points="644.21,-254.34 644.21,-649.68 920.21,-649.68 920.21,-254.34 644.21,-254.34"/>
<text text-anchor="middle" x="782.21" y="-636.08" font-family="Monaco" font-size="12.00">Block1</text>
</g>
<g id="clust3" class="cluster">
<title>cluster_dfg_Block2</title>
<polygon fill="none" stroke="black" points="928.21,-254.34 928.21,-649.68 1210.21,-649.68 1210.21,-254.34 928.21,-254.34"/>
<text text-anchor="middle" x="1069.21" y="-636.08" font-family="Monaco" font-size="12.00">Block2</text>
</g>
<g id="clust4" class="cluster">
<title>cluster_dfg_Block3</title>
<polygon fill="none" stroke="black" points="1218.21,-254.34 1218.21,-649.68 1538.21,-649.68 1538.21,-254.34 1218.21,-254.34"/>
<text text-anchor="middle" x="1378.21" y="-636.08" font-family="Monaco" font-size="12.00">Block3</text>
</g>
<!-- Jump0 -->
<g id="node1" class="node">
<title>Jump0</title>
<polygon fill="none" stroke="black" points="144.82,-617.67 53.6,-617.67 53.6,-613.67 49.6,-613.67 49.6,-609.67 53.6,-609.67 53.6,-589.67 49.6,-589.67 49.6,-585.67 53.6,-585.67 53.6,-581.67 144.82,-581.67 144.82,-617.67"/>
<polyline fill="none" stroke="black" points="53.6,-613.67 57.6,-613.67 57.6,-609.67 53.6,-609.67 "/>
<polyline fill="none" stroke="black" points="53.6,-589.67 57.6,-589.67 57.6,-585.67 53.6,-585.67 "/>
<text text-anchor="start" x="61.4" y="-602.87" font-family="Monaco" font-size="11.00">StartFun.0</text>
<text text-anchor="start" x="127.42" y="-602.87" font-family="Monaco" baseline-shift="super" font-size="8.00" fill="#ff4411">q0</text>
<text text-anchor="start" x="95.91" y="-591.87" font-family="Monaco" font-size="11.00">i</text>
</g>
<!-- Block0 -->
<g id="node2" class="node">
<title>Block0</title>
<polygon fill="none" stroke="black" points="126.82,-544.67 71.6,-544.67 71.6,-508.67 126.82,-508.67 126.82,-544.67"/>
<text text-anchor="middle" x="99.21" y="-525.21" font-family="Monaco" font-size="11.00">Block0</text>
</g>
<!-- Jump0&#45;&gt;Block0 -->
<g id="edge1" class="edge">
<title>Jump0&#45;&gt;Block0</title>
<path fill="none" stroke="black" d="M99.21,-581.49C99.21,-573.46 99.21,-563.72 99.21,-554.74"/>
<polygon fill="black" stroke="black" points="102.71,-554.7 99.21,-544.7 95.71,-554.7 102.71,-554.7"/>
</g>
<!-- Jump1 -->
<g id="node3" class="node">
<title>Jump1</title>
<path fill="none" stroke="black" d="M128.82,-471.67C128.82,-471.67 69.6,-471.67 69.6,-471.67 63.6,-471.67 53.79,-467.04 49.98,-462.41 49.98,-462.41 35.6,-444.94 35.6,-444.94 31.78,-440.31 33.97,-435.67 39.97,-435.67 39.97,-435.67 158.45,-435.67 158.45,-435.67 164.45,-435.67 166.64,-440.31 162.82,-444.94 162.82,-444.94 148.44,-462.41 148.44,-462.41 144.63,-467.04 134.82,-471.67 128.82,-471.67"/>
<text text-anchor="start" x="68.01" y="-453.21" font-family="Monaco" font-size="11.00">Branch.1</text>
<text text-anchor="start" x="120.81" y="-453.21" font-family="Monaco" baseline-shift="super" font-size="8.00" fill="#ff4411">q7</text>
</g>
<!-- Block0&#45;&gt;Jump1 -->
<g id="edge2" class="edge">
<title>Block0&#45;&gt;Jump1</title>
<path fill="none" stroke="black" d="M99.21,-508.49C99.21,-500.46 99.21,-490.72 99.21,-481.74"/>
<polygon fill="black" stroke="black" points="102.71,-481.7 99.21,-471.7 95.71,-481.7 102.71,-481.7"/>
</g>
<!-- Block1 -->
<g id="node4" class="node">
<title>Block1</title>
<polygon fill="none" stroke="black" points="103.82,-385.01 48.6,-385.01 48.6,-349.01 103.82,-349.01 103.82,-385.01"/>
<text text-anchor="middle" x="76.21" y="-365.54" font-family="Monaco" font-size="11.00">Block1</text>
</g>
<!-- Jump1&#45;&gt;Block1 -->
<g id="edge3" class="edge">
<title>Jump1&#45;&gt;Block1</title>
<path fill="none" stroke="black" d="M94.56,-435.54C91.41,-423.95 87.18,-408.4 83.58,-395.14"/>
<polygon fill="black" stroke="black" points="86.86,-393.85 80.86,-385.11 80.1,-395.68 86.86,-393.85"/>
<text text-anchor="middle" x="95.81" y="-408.87" font-family="Monaco" font-size="11.00">@d</text>
</g>
<!-- Block2 -->
<g id="node5" class="node">
<title>Block2</title>
<polygon fill="none" stroke="black" points="177.82,-385.01 122.6,-385.01 122.6,-349.01 177.82,-349.01 177.82,-385.01"/>
<text text-anchor="middle" x="150.21" y="-365.54" font-family="Monaco" font-size="11.00">Block2</text>
</g>
<!-- Jump1&#45;&gt;Block2 -->
<g id="edge4" class="edge">
<title>Jump1&#45;&gt;Block2</title>
<path fill="none" stroke="black" d="M109.53,-435.54C116.72,-423.6 126.44,-407.47 134.58,-393.96"/>
<polygon fill="black" stroke="black" points="137.74,-395.49 139.91,-385.11 131.75,-391.87 137.74,-395.49"/>
<text text-anchor="middle" x="138.11" y="-408.87" font-family="Monaco" font-size="11.00">!@d</text>
</g>
<!-- Jump2 -->
<g id="node6" class="node">
<title>Jump2</title>
<path fill="none" stroke="black" d="M48.15,-262.34C48.15,-262.34 126.27,-262.34 126.27,-262.34 132.27,-262.34 142.53,-266.56 146.79,-270.78 146.79,-270.78 166.1,-289.89 166.1,-289.89 170.37,-294.12 168.63,-298.34 162.63,-298.34 162.63,-298.34 11.79,-298.34 11.79,-298.34 5.79,-298.34 4.05,-294.12 8.32,-289.89 8.32,-289.89 27.63,-270.78 27.63,-270.78 31.89,-266.56 42.15,-262.34 48.15,-262.34"/>
<text text-anchor="start" x="47.3" y="-279.87" font-family="Monaco" font-size="11.00">Merge.2</text>
<text text-anchor="start" x="93.51" y="-279.87" font-family="Monaco" baseline-shift="super" font-size="8.00" fill="#ff4411">q16|q12</text>
</g>
<!-- Block1&#45;&gt;Jump2 -->
<g id="edge5" class="edge">
<title>Block1&#45;&gt;Jump2</title>
<path fill="none" stroke="black" d="M78.44,-348.87C79.94,-337.28 81.96,-321.73 83.69,-308.47"/>
<polygon fill="black" stroke="black" points="87.17,-308.81 84.99,-298.45 80.23,-307.91 87.17,-308.81"/>
<text text-anchor="middle" x="89.81" y="-322.21" font-family="Monaco" font-size="11.00">@g</text>
</g>
<!-- Block2&#45;&gt;Jump2 -->
<g id="edge6" class="edge">
<title>Block2&#45;&gt;Jump2</title>
<path fill="none" stroke="black" d="M137.46,-348.87C128.41,-336.71 116.11,-320.18 105.95,-306.52"/>
<polygon fill="black" stroke="black" points="108.72,-304.38 99.94,-298.45 103.1,-308.56 108.72,-304.38"/>
<text text-anchor="middle" x="129.81" y="-322.21" font-family="Monaco" font-size="11.00">@j</text>
</g>
<!-- Block3 -->
<g id="node7" class="node">
<title>Block3</title>
<polygon fill="none" stroke="black" points="114.82,-211.67 59.6,-211.67 59.6,-175.67 114.82,-175.67 114.82,-211.67"/>
<text text-anchor="middle" x="87.21" y="-192.2" font-family="Monaco" font-size="11.00">Block3</text>
</g>
<!-- Jump2&#45;&gt;Block3 -->
<g id="edge7" class="edge">
<title>Jump2&#45;&gt;Block3</title>
<path fill="none" stroke="black" d="M87.21,-262.2C87.21,-250.61 87.21,-235.06 87.21,-221.8"/>
<polygon fill="black" stroke="black" points="90.71,-221.78 87.21,-211.78 83.71,-221.78 90.71,-221.78"/>
<text text-anchor="middle" x="93.81" y="-235.54" font-family="Monaco" font-size="11.00">@k</text>
</g>
<!-- Jump3 -->
<g id="node8" class="node">
<title>Jump3</title>
<polygon fill="none" stroke="black" points="128.92,-119 63.5,-119 63.5,-125 45.5,-107 63.5,-89 63.5,-95 110.92,-95 110.92,-89 128.92,-89 128.92,-119"/>
<text text-anchor="start" x="53.61" y="-106.53" font-family="Monaco" font-size="11.00">Return.3</text>
<text text-anchor="start" x="106.41" y="-106.53" font-family="Monaco" baseline-shift="super" font-size="8.00" fill="#ff4411">q20</text>
</g>
<!-- Block3&#45;&gt;Jump3 -->
<g id="edge8" class="edge">
<title>Block3&#45;&gt;Jump3</title>
<path fill="none" stroke="black" d="M87.21,-175.53C87.21,-163.94 87.21,-148.39 87.21,-135.13"/>
<polygon fill="black" stroke="black" points="90.71,-135.11 87.21,-125.11 83.71,-135.11 90.71,-135.11"/>
<text text-anchor="middle" x="93.81" y="-148.87" font-family="Monaco" font-size="11.00">@l</text>
</g>
<!-- 0 -->
<g id="node9" class="node">
<title>0</title>
<ellipse fill="none" stroke="black" cx="574.21" cy="-599.67" rx="54.16" ry="18"/>
<text text-anchor="start" x="540.01" y="-599.21" font-family="Monaco" font-size="11.00">zero</text>
<text text-anchor="start" x="566.41" y="-599.21" font-family="Monaco" baseline-shift="super" font-size="8.00" fill="#00aa11">U1</text>
<text text-anchor="start" x="576.01" y="-599.21" font-family="Monaco" baseline-shift="super" font-size="8.00" fill="#3311ff">r1</text>
<text text-anchor="start" x="585.61" y="-599.21" font-family="Monaco" font-size="11.00">:0</text>
<text text-anchor="start" x="598.81" y="-599.21" font-family="Monaco" baseline-shift="super" font-size="8.00" fill="#ff4411">q0</text>
</g>
<!-- 5 -->
<g id="node10" class="node">
<title>5</title>
<ellipse fill="none" stroke="black" cx="562.21" cy="-280.34" rx="63.43" ry="18"/>
<text text-anchor="start" x="521.1" y="-279.87" font-family="Monaco" font-size="11.00">req a[zero]</text>
<text text-anchor="start" x="593.72" y="-279.87" font-family="Monaco" baseline-shift="super" font-size="8.00" fill="#ff4411">q4</text>
</g>
<!-- 0&#45;&gt;5 -->
<g id="edge12" class="edge">
<title>0&#45;&gt;5</title>
<path fill="none" stroke="black" d="M595.16,-583.05C609.97,-570.07 627.21,-550.13 627.21,-527.67 627.21,-527.67 627.21,-527.67 627.21,-366.01 627.21,-341.26 609.52,-319.29 592.6,-303.93"/>
<polygon fill="black" stroke="black" points="594.81,-301.22 584.94,-297.36 590.25,-306.53 594.81,-301.22"/>
</g>
<!-- 1 -->
<g id="node12" class="node">
<title>1</title>
<ellipse fill="none" stroke="black" cx="365.21" cy="-526.67" rx="54.93" ry="18"/>
<text text-anchor="start" x="330.7" y="-526.21" font-family="Monaco" font-size="11.00">a[zero]=i</text>
<text text-anchor="start" x="390.11" y="-526.21" font-family="Monaco" baseline-shift="super" font-size="8.00" fill="#ff4411">q1</text>
</g>
<!-- 0&#45;&gt;1 -->
<g id="edge9" class="edge">
<title>0&#45;&gt;1</title>
<path fill="none" stroke="black" d="M537.81,-586.31C502.81,-574.42 449.76,-556.4 411.72,-543.47"/>
<polygon fill="black" stroke="black" points="412.49,-540.04 401.9,-540.14 410.24,-546.67 412.49,-540.04"/>
</g>
<!-- 3 -->
<g id="node16" class="node">
<title>3</title>
<ellipse fill="none" stroke="black" cx="422.21" cy="-453.67" rx="58.93" ry="18"/>
<text text-anchor="start" x="384.4" y="-453.21" font-family="Monaco" font-size="11.00">a[zero]=@a</text>
<text text-anchor="start" x="450.42" y="-453.21" font-family="Monaco" baseline-shift="super" font-size="8.00" fill="#ff4411">q2</text>
</g>
<!-- 0&#45;&gt;3 -->
<g id="edge10" class="edge">
<title>0&#45;&gt;3</title>
<path fill="none" stroke="black" d="M580.42,-581.67C586.38,-562.15 592.42,-530.08 577.21,-508.67 557.17,-480.47 521.26,-466.87 489.05,-460.37"/>
<polygon fill="black" stroke="black" points="489.66,-456.92 479.2,-458.57 488.41,-463.81 489.66,-456.92"/>
</g>
<!-- 30 -->
<g id="node19" class="node">
<title>30</title>
<ellipse fill="#ffffee" stroke="black" cx="513.21" cy="-526.67" rx="54.93" ry="18"/>
<text text-anchor="start" x="478.7" y="-526.21" font-family="Monaco" font-size="11.00">out(zero)</text>
<text text-anchor="start" x="538.11" y="-526.21" font-family="Monaco" baseline-shift="super" font-size="8.00" fill="#ff4411">q7</text>
</g>
<!-- 0&#45;&gt;30 -->
<g id="edge13" class="edge">
<title>0&#45;&gt;30</title>
<path fill="none" stroke="black" d="M560.06,-582.21C552.4,-573.29 542.78,-562.09 534.25,-552.16"/>
<polygon fill="black" stroke="black" points="536.88,-549.85 527.71,-544.54 531.57,-554.41 536.88,-549.85"/>
</g>
<!-- 4 -->
<g id="node20" class="node">
<title>4</title>
<ellipse fill="none" stroke="black" cx="532.21" cy="-367.01" rx="54.93" ry="18"/>
<text text-anchor="start" x="497.7" y="-366.54" font-family="Monaco" font-size="11.00">a[zero]=i</text>
<text text-anchor="start" x="557.11" y="-366.54" font-family="Monaco" baseline-shift="super" font-size="8.00" fill="#ff4411">q3</text>
</g>
<!-- 0&#45;&gt;4 -->
<g id="edge11" class="edge">
<title>0&#45;&gt;4</title>
<path fill="none" stroke="black" d="M583.13,-581.68C585.61,-576.1 587.96,-569.76 589.21,-563.67 594.13,-539.69 591.34,-532.61 586.21,-508.67 577.33,-467.21 558.05,-421.86 545.09,-394.17"/>
<polygon fill="black" stroke="black" points="548.1,-392.33 540.64,-384.8 541.77,-395.34 548.1,-392.33"/>
</g>
<!-- 6 -->
<g id="node13" class="node">
<title>6</title>
<ellipse fill="none" stroke="black" cx="562.21" cy="-193.67" rx="57.34" ry="18"/>
<text text-anchor="start" x="525.6" y="-193.2" font-family="Monaco" font-size="11.00">@b</text>
<text text-anchor="start" x="538.81" y="-193.2" font-family="Monaco" baseline-shift="super" font-size="8.00" fill="#00aa11">S64</text>
<text text-anchor="start" x="553.21" y="-193.2" font-family="Monaco" baseline-shift="super" font-size="8.00" fill="#3311ff">r0</text>
<text text-anchor="start" x="562.81" y="-193.2" font-family="Monaco" font-size="11.00">:a[]</text>
<text text-anchor="start" x="589.22" y="-193.2" font-family="Monaco" baseline-shift="super" font-size="8.00" fill="#ff4411">q5</text>
</g>
<!-- 5&#45;&gt;6 -->
<g id="edge23" class="edge">
<title>5&#45;&gt;6</title>
<path fill="none" stroke="black" stroke-dasharray="1,5" d="M562.21,-262.2C562.21,-250.61 562.21,-235.06 562.21,-221.8"/>
<polygon fill="black" stroke="black" points="565.71,-221.78 562.21,-211.78 558.71,-221.78 565.71,-221.78"/>
</g>
<!-- 29 -->
<g id="node11" class="node">
<title>29</title>
<ellipse fill="#ffeeff" stroke="black" cx="410.21" cy="-599.67" rx="48.84" ry="18"/>
<text text-anchor="start" x="380.21" y="-599.21" font-family="Monaco" font-size="11.00">i</text>
<text text-anchor="start" x="386.81" y="-599.21" font-family="Monaco" baseline-shift="super" font-size="8.00" fill="#00aa11">S64</text>
<text text-anchor="start" x="401.21" y="-599.21" font-family="Monaco" baseline-shift="super" font-size="8.00" fill="#3311ff">r0</text>
<text text-anchor="start" x="410.81" y="-599.21" font-family="Monaco" font-size="11.00">:in</text>
<text text-anchor="start" x="430.61" y="-599.21" font-family="Monaco" baseline-shift="super" font-size="8.00" fill="#ff4411">q0</text>
</g>
<!-- 29&#45;&gt;1 -->
<g id="edge18" class="edge">
<title>29&#45;&gt;1</title>
<path fill="none" stroke="black" d="M399.55,-581.85C394.11,-573.27 387.39,-562.66 381.33,-553.11"/>
<polygon fill="black" stroke="black" points="384.11,-550.95 375.8,-544.38 378.2,-554.7 384.11,-550.95"/>
</g>
<!-- 29&#45;&gt;4 -->
<g id="edge19" class="edge">
<title>29&#45;&gt;4</title>
<path fill="none" stroke="black" d="M416.55,-581.75C425.14,-559.25 440.42,-520.92 449.21,-508.67 463.53,-488.74 476.13,-491.78 490.21,-471.67 506.84,-447.92 518.36,-416.6 525.08,-394.62"/>
<polygon fill="black" stroke="black" points="528.46,-395.53 527.9,-384.95 521.74,-393.57 528.46,-395.53"/>
</g>
<!-- 1&#45;&gt;3 -->
<g id="edge20" class="edge">
<title>1&#45;&gt;3</title>
<path fill="none" stroke="black" stroke-dasharray="1,5" d="M378.43,-509.21C385.52,-500.37 394.41,-489.31 402.31,-479.46"/>
<polygon fill="black" stroke="black" points="405.14,-481.53 408.67,-471.54 399.68,-477.15 405.14,-481.53"/>
</g>
<!-- 8 -->
<g id="node18" class="node">
<title>8</title>
<ellipse fill="none" stroke="black" cx="501.21" cy="-107" rx="79.37" ry="18"/>
<text text-anchor="start" x="447.5" y="-106.53" font-family="Monaco" font-size="11.00">@d</text>
<text text-anchor="start" x="460.7" y="-106.53" font-family="Monaco" baseline-shift="super" font-size="8.00" fill="#00aa11">U1</text>
<text text-anchor="start" x="470.31" y="-106.53" font-family="Monaco" baseline-shift="super" font-size="8.00" fill="#3311ff">r0</text>
<text text-anchor="start" x="479.91" y="-106.53" font-family="Monaco" font-size="11.00">:@b&gt;=</text>
<text text-anchor="start" x="512.91" y="-106.53" font-family="Monaco" baseline-shift="super" font-size="8.00" fill="#3311ff">Bin0</text>
<text text-anchor="start" x="532.12" y="-106.53" font-family="Monaco" font-size="11.00">@c</text>
<text text-anchor="start" x="545.32" y="-106.53" font-family="Monaco" baseline-shift="super" font-size="8.00" fill="#ff4411">q6</text>
</g>
<!-- 6&#45;&gt;8 -->
<g id="edge15" class="edge">
<title>6&#45;&gt;8</title>
<path fill="none" stroke="black" d="M550.16,-175.94C541.36,-163.73 529.28,-146.96 519.32,-133.14"/>
<polygon fill="black" stroke="black" points="522.13,-131.05 513.45,-124.98 516.45,-135.14 522.13,-131.05"/>
</g>
<!-- 2 -->
<g id="node14" class="node">
<title>2</title>
<ellipse fill="none" stroke="black" cx="243.21" cy="-526.67" rx="48.84" ry="18"/>
<text text-anchor="start" x="213.21" y="-526.21" font-family="Monaco" font-size="11.00">@a</text>
<text text-anchor="start" x="226.41" y="-526.21" font-family="Monaco" baseline-shift="super" font-size="8.00" fill="#00aa11">S64</text>
<text text-anchor="start" x="240.81" y="-526.21" font-family="Monaco" baseline-shift="super" font-size="8.00" fill="#3311ff">r2</text>
<text text-anchor="start" x="250.41" y="-526.21" font-family="Monaco" font-size="11.00">:1</text>
<text text-anchor="start" x="263.61" y="-526.21" font-family="Monaco" baseline-shift="super" font-size="8.00" fill="#ff4411">q0</text>
</g>
<!-- 2&#45;&gt;3 -->
<g id="edge14" class="edge">
<title>2&#45;&gt;3</title>
<path fill="none" stroke="black" d="M275.21,-512.98C303.92,-501.59 346.31,-484.78 378.2,-472.13"/>
<polygon fill="black" stroke="black" points="379.73,-475.29 387.74,-468.35 377.15,-468.78 379.73,-475.29"/>
</g>
<!-- 7 -->
<g id="node15" class="node">
<title>7</title>
<ellipse fill="none" stroke="black" cx="441.21" cy="-193.67" rx="45.66" ry="18"/>
<text text-anchor="start" x="413.61" y="-193.2" font-family="Monaco" font-size="11.00">@c</text>
<text text-anchor="start" x="426.81" y="-193.2" font-family="Monaco" baseline-shift="super" font-size="8.00" fill="#00aa11">S1</text>
<text text-anchor="start" x="436.41" y="-193.2" font-family="Monaco" baseline-shift="super" font-size="8.00" fill="#3311ff">r3</text>
<text text-anchor="start" x="446.01" y="-193.2" font-family="Monaco" font-size="11.00">:0</text>
<text text-anchor="start" x="459.21" y="-193.2" font-family="Monaco" baseline-shift="super" font-size="8.00" fill="#ff4411">q0</text>
</g>
<!-- 7&#45;&gt;8 -->
<g id="edge16" class="edge">
<title>7&#45;&gt;8</title>
<path fill="none" stroke="black" d="M453.06,-175.94C461.64,-163.84 473.38,-147.28 483.12,-133.53"/>
<polygon fill="black" stroke="black" points="486.25,-135.17 489.18,-124.98 480.54,-131.12 486.25,-135.17"/>
</g>
<!-- 3&#45;&gt;4 -->
<g id="edge21" class="edge">
<title>3&#45;&gt;4</title>
<path fill="none" stroke="black" stroke-dasharray="1,5" d="M442.9,-436.75C460.03,-423.56 484.56,-404.68 503.57,-390.05"/>
<polygon fill="black" stroke="black" points="505.82,-392.73 511.61,-383.86 501.55,-387.19 505.82,-392.73"/>
</g>
<!-- 31 -->
<g id="node17" class="node">
<title>31</title>
<ellipse fill="#ffffee" stroke="black" cx="501.21" cy="-34" rx="46.44" ry="18"/>
<text text-anchor="start" x="473.31" y="-33.53" font-family="Monaco" font-size="11.00">out(@d)</text>
<text text-anchor="start" x="519.51" y="-33.53" font-family="Monaco" baseline-shift="super" font-size="8.00" fill="#ff4411">q7</text>
</g>
<!-- 8&#45;&gt;31 -->
<g id="edge17" class="edge">
<title>8&#45;&gt;31</title>
<path fill="none" stroke="black" d="M501.21,-88.81C501.21,-80.79 501.21,-71.05 501.21,-62.07"/>
<polygon fill="black" stroke="black" points="504.71,-62.03 501.21,-52.03 497.71,-62.03 504.71,-62.03"/>
</g>
<!-- 4&#45;&gt;5 -->
<g id="edge22" class="edge">
<title>4&#45;&gt;5</title>
<path fill="none" stroke="black" stroke-dasharray="1,5" d="M538.28,-348.87C542.43,-337.17 548.01,-321.42 552.74,-308.07"/>
<polygon fill="black" stroke="black" points="556.11,-309.04 556.15,-298.45 549.51,-306.7 556.11,-309.04"/>
</g>
<!-- 10 -->
<g id="node21" class="node">
<title>10</title>
<ellipse fill="none" stroke="black" cx="715.21" cy="-453.67" rx="60.52" ry="18"/>
<text text-anchor="start" x="676.2" y="-453.21" font-family="Monaco" font-size="11.00">@e</text>
<text text-anchor="start" x="689.41" y="-453.21" font-family="Monaco" baseline-shift="super" font-size="8.00" fill="#00aa11">S64</text>
<text text-anchor="start" x="703.81" y="-453.21" font-family="Monaco" baseline-shift="super" font-size="8.00" fill="#3311ff">r2</text>
<text text-anchor="start" x="713.41" y="-453.21" font-family="Monaco" font-size="11.00">:a[]</text>
<text text-anchor="start" x="739.81" y="-453.21" font-family="Monaco" baseline-shift="super" font-size="8.00" fill="#ff4411">q10</text>
</g>
<!-- 12 -->
<g id="node23" class="node">
<title>12</title>
<ellipse fill="none" stroke="black" cx="782.21" cy="-367.01" rx="81.23" ry="18"/>
<text text-anchor="start" x="727" y="-366.54" font-family="Monaco" font-size="11.00">@g</text>
<text text-anchor="start" x="740.2" y="-366.54" font-family="Monaco" baseline-shift="super" font-size="8.00" fill="#00aa11">S64</text>
<text text-anchor="start" x="754.61" y="-366.54" font-family="Monaco" baseline-shift="super" font-size="8.00" fill="#3311ff">r0</text>
<text text-anchor="start" x="764.21" y="-366.54" font-family="Monaco" font-size="11.00">:@e*</text>
<text text-anchor="start" x="790.61" y="-366.54" font-family="Monaco" baseline-shift="super" font-size="8.00" fill="#3311ff">Bin1</text>
<text text-anchor="start" x="809.82" y="-366.54" font-family="Monaco" font-size="11.00">@f</text>
<text text-anchor="start" x="823.02" y="-366.54" font-family="Monaco" baseline-shift="super" font-size="8.00" fill="#ff4411">q11</text>
</g>
<!-- 10&#45;&gt;12 -->
<g id="edge24" class="edge">
<title>10&#45;&gt;12</title>
<path fill="none" stroke="black" d="M728.45,-435.95C738.11,-423.73 751.38,-406.97 762.32,-393.15"/>
<polygon fill="black" stroke="black" points="765.31,-395 768.77,-384.99 759.82,-390.66 765.31,-395"/>
</g>
<!-- 9 -->
<g id="node22" class="node">
<title>9</title>
<ellipse fill="none" stroke="black" cx="715.21" cy="-526.67" rx="63.43" ry="18"/>
<text text-anchor="start" x="674.1" y="-526.21" font-family="Monaco" font-size="11.00">req a[zero]</text>
<text text-anchor="start" x="746.72" y="-526.21" font-family="Monaco" baseline-shift="super" font-size="8.00" fill="#ff4411">q9</text>
</g>
<!-- 9&#45;&gt;10 -->
<g id="edge29" class="edge">
<title>9&#45;&gt;10</title>
<path fill="none" stroke="black" stroke-dasharray="1,5" d="M715.21,-508.49C715.21,-500.46 715.21,-490.72 715.21,-481.74"/>
<polygon fill="black" stroke="black" points="718.71,-481.7 715.21,-471.7 711.71,-481.7 718.71,-481.7"/>
</g>
<!-- 25 -->
<g id="node27" class="node">
<title>25</title>
<ellipse fill="#ffffee" stroke="black" cx="782.21" cy="-280.34" rx="49.12" ry="18"/>
<text text-anchor="start" x="751.91" y="-279.87" font-family="Monaco" font-size="11.00">out(@g)</text>
<text text-anchor="start" x="798.11" y="-279.87" font-family="Monaco" baseline-shift="super" font-size="8.00" fill="#ff4411">q12</text>
</g>
<!-- 12&#45;&gt;25 -->
<g id="edge26" class="edge">
<title>12&#45;&gt;25</title>
<path fill="none" stroke="black" d="M782.21,-348.87C782.21,-337.28 782.21,-321.73 782.21,-308.47"/>
<polygon fill="black" stroke="black" points="785.71,-308.45 782.21,-298.45 778.71,-308.45 785.71,-308.45"/>
</g>
<!-- 11 -->
<g id="node24" class="node">
<title>11</title>
<ellipse fill="none" stroke="black" cx="842.21" cy="-453.67" rx="48.84" ry="18"/>
<text text-anchor="start" x="812.21" y="-453.21" font-family="Monaco" font-size="11.00">@f</text>
<text text-anchor="start" x="825.41" y="-453.21" font-family="Monaco" baseline-shift="super" font-size="8.00" fill="#00aa11">S64</text>
<text text-anchor="start" x="839.81" y="-453.21" font-family="Monaco" baseline-shift="super" font-size="8.00" fill="#3311ff">r0</text>
<text text-anchor="start" x="849.41" y="-453.21" font-family="Monaco" font-size="11.00">:2</text>
<text text-anchor="start" x="862.61" y="-453.21" font-family="Monaco" baseline-shift="super" font-size="8.00" fill="#ff4411">q7</text>
</g>
<!-- 11&#45;&gt;12 -->
<g id="edge25" class="edge">
<title>11&#45;&gt;12</title>
<path fill="none" stroke="black" d="M830.36,-435.95C821.78,-423.85 810.04,-407.28 800.3,-393.54"/>
<polygon fill="black" stroke="black" points="802.88,-391.12 794.25,-384.99 797.17,-395.17 802.88,-391.12"/>
</g>
<!-- 23 -->
<g id="node25" class="node">
<title>23</title>
<ellipse fill="#ffeeff" stroke="black" cx="784.21" cy="-599.67" rx="58.65" ry="18"/>
<text text-anchor="start" x="746.7" y="-599.21" font-family="Monaco" font-size="11.00">zero</text>
<text text-anchor="start" x="773.11" y="-599.21" font-family="Monaco" baseline-shift="super" font-size="8.00" fill="#00aa11">U1</text>
<text text-anchor="start" x="782.71" y="-599.21" font-family="Monaco" baseline-shift="super" font-size="8.00" fill="#3311ff">r1</text>
<text text-anchor="start" x="792.31" y="-599.21" font-family="Monaco" font-size="11.00">:in</text>
<text text-anchor="start" x="812.12" y="-599.21" font-family="Monaco" baseline-shift="super" font-size="8.00" fill="#ff4411">q7</text>
</g>
<!-- 23&#45;&gt;9 -->
<g id="edge27" class="edge">
<title>23&#45;&gt;9</title>
<path fill="none" stroke="black" d="M768.21,-582.21C759.45,-573.2 748.44,-561.86 738.72,-551.87"/>
<polygon fill="black" stroke="black" points="741.09,-549.28 731.61,-544.54 736.07,-554.16 741.09,-549.28"/>
</g>
<!-- 24 -->
<g id="node26" class="node">
<title>24</title>
<ellipse fill="#ffffee" stroke="black" cx="854.21" cy="-526.67" rx="57.61" ry="18"/>
<text text-anchor="start" x="817.3" y="-526.21" font-family="Monaco" font-size="11.00">out(zero)</text>
<text text-anchor="start" x="876.71" y="-526.21" font-family="Monaco" baseline-shift="super" font-size="8.00" fill="#ff4411">q12</text>
</g>
<!-- 23&#45;&gt;24 -->
<g id="edge28" class="edge">
<title>23&#45;&gt;24</title>
<path fill="none" stroke="black" d="M800.45,-582.21C809.46,-573.07 820.83,-561.54 830.78,-551.43"/>
<polygon fill="black" stroke="black" points="833.53,-553.63 838.06,-544.05 828.55,-548.72 833.53,-553.63"/>
</g>
<!-- 14 -->
<g id="node28" class="node">
<title>14</title>
<ellipse fill="none" stroke="black" cx="1121.21" cy="-453.67" rx="60.52" ry="18"/>
<text text-anchor="start" x="1082.2" y="-453.21" font-family="Monaco" font-size="11.00">@h</text>
<text text-anchor="start" x="1095.41" y="-453.21" font-family="Monaco" baseline-shift="super" font-size="8.00" fill="#00aa11">S64</text>
<text text-anchor="start" x="1109.81" y="-453.21" font-family="Monaco" baseline-shift="super" font-size="8.00" fill="#3311ff">r2</text>
<text text-anchor="start" x="1119.41" y="-453.21" font-family="Monaco" font-size="11.00">:a[]</text>
<text text-anchor="start" x="1145.81" y="-453.21" font-family="Monaco" baseline-shift="super" font-size="8.00" fill="#ff4411">q14</text>
</g>
<!-- 16 -->
<g id="node32" class="node">
<title>16</title>
<ellipse fill="none" stroke="black" cx="1069.21" cy="-367.01" rx="81.23" ry="18"/>
<text text-anchor="start" x="1014" y="-366.54" font-family="Monaco" font-size="11.00">@j</text>
<text text-anchor="start" x="1027.2" y="-366.54" font-family="Monaco" baseline-shift="super" font-size="8.00" fill="#00aa11">S64</text>
<text text-anchor="start" x="1041.61" y="-366.54" font-family="Monaco" baseline-shift="super" font-size="8.00" fill="#3311ff">r0</text>
<text text-anchor="start" x="1051.21" y="-366.54" font-family="Monaco" font-size="11.00">:@h*</text>
<text text-anchor="start" x="1077.61" y="-366.54" font-family="Monaco" baseline-shift="super" font-size="8.00" fill="#3311ff">Bin1</text>
<text text-anchor="start" x="1096.82" y="-366.54" font-family="Monaco" font-size="11.00">@i</text>
<text text-anchor="start" x="1110.02" y="-366.54" font-family="Monaco" baseline-shift="super" font-size="8.00" fill="#ff4411">q15</text>
</g>
<!-- 14&#45;&gt;16 -->
<g id="edge30" class="edge">
<title>14&#45;&gt;16</title>
<path fill="none" stroke="black" d="M1110.69,-435.54C1103.36,-423.6 1093.45,-407.47 1085.15,-393.96"/>
<polygon fill="black" stroke="black" points="1087.93,-391.8 1079.72,-385.11 1081.97,-395.47 1087.93,-391.8"/>
</g>
<!-- 28 -->
<g id="node29" class="node">
<title>28</title>
<ellipse fill="#ffffee" stroke="black" cx="1069.21" cy="-280.34" rx="49.12" ry="18"/>
<text text-anchor="start" x="1038.91" y="-279.87" font-family="Monaco" font-size="11.00">out(@j)</text>
<text text-anchor="start" x="1085.11" y="-279.87" font-family="Monaco" baseline-shift="super" font-size="8.00" fill="#ff4411">q16</text>
</g>
<!-- 13 -->
<g id="node30" class="node">
<title>13</title>
<ellipse fill="none" stroke="black" cx="1002.21" cy="-526.67" rx="66.1" ry="18"/>
<text text-anchor="start" x="958.7" y="-526.21" font-family="Monaco" font-size="11.00">req a[zero]</text>
<text text-anchor="start" x="1031.32" y="-526.21" font-family="Monaco" baseline-shift="super" font-size="8.00" fill="#ff4411">q13</text>
</g>
<!-- 13&#45;&gt;14 -->
<g id="edge35" class="edge">
<title>13&#45;&gt;14</title>
<path fill="none" stroke="black" stroke-dasharray="1,5" d="M1028.33,-510.09C1045.38,-499.92 1067.84,-486.52 1086.4,-475.44"/>
<polygon fill="black" stroke="black" points="1088.36,-478.35 1095.16,-470.22 1084.78,-472.34 1088.36,-478.35"/>
</g>
<!-- 27 -->
<g id="node31" class="node">
<title>27</title>
<ellipse fill="#ffffee" stroke="black" cx="1144.21" cy="-526.67" rx="57.61" ry="18"/>
<text text-anchor="start" x="1107.3" y="-526.21" font-family="Monaco" font-size="11.00">out(zero)</text>
<text text-anchor="start" x="1166.71" y="-526.21" font-family="Monaco" baseline-shift="super" font-size="8.00" fill="#ff4411">q16</text>
</g>
<!-- 16&#45;&gt;28 -->
<g id="edge32" class="edge">
<title>16&#45;&gt;28</title>
<path fill="none" stroke="black" d="M1069.21,-348.87C1069.21,-337.28 1069.21,-321.73 1069.21,-308.47"/>
<polygon fill="black" stroke="black" points="1072.71,-308.45 1069.21,-298.45 1065.71,-308.45 1072.71,-308.45"/>
</g>
<!-- 26 -->
<g id="node33" class="node">
<title>26</title>
<ellipse fill="#ffeeff" stroke="black" cx="1072.21" cy="-599.67" rx="58.65" ry="18"/>
<text text-anchor="start" x="1034.7" y="-599.21" font-family="Monaco" font-size="11.00">zero</text>
<text text-anchor="start" x="1061.11" y="-599.21" font-family="Monaco" baseline-shift="super" font-size="8.00" fill="#00aa11">U1</text>
<text text-anchor="start" x="1070.71" y="-599.21" font-family="Monaco" baseline-shift="super" font-size="8.00" fill="#3311ff">r1</text>
<text text-anchor="start" x="1080.31" y="-599.21" font-family="Monaco" font-size="11.00">:in</text>
<text text-anchor="start" x="1100.12" y="-599.21" font-family="Monaco" baseline-shift="super" font-size="8.00" fill="#ff4411">q7</text>
</g>
<!-- 26&#45;&gt;13 -->
<g id="edge33" class="edge">
<title>26&#45;&gt;13</title>
<path fill="none" stroke="black" d="M1055.98,-582.21C1047.09,-573.2 1035.92,-561.86 1026.06,-551.87"/>
<polygon fill="black" stroke="black" points="1028.36,-549.21 1018.84,-544.54 1023.37,-554.12 1028.36,-549.21"/>
</g>
<!-- 26&#45;&gt;27 -->
<g id="edge34" class="edge">
<title>26&#45;&gt;27</title>
<path fill="none" stroke="black" d="M1088.91,-582.21C1098.27,-572.98 1110.1,-561.31 1120.42,-551.14"/>
<polygon fill="black" stroke="black" points="1122.94,-553.57 1127.6,-544.05 1118.02,-548.58 1122.94,-553.57"/>
</g>
<!-- 15 -->
<g id="node34" class="node">
<title>15</title>
<ellipse fill="none" stroke="black" cx="989.21" cy="-453.67" rx="53.34" ry="18"/>
<text text-anchor="start" x="955.91" y="-453.21" font-family="Monaco" font-size="11.00">@i</text>
<text text-anchor="start" x="969.11" y="-453.21" font-family="Monaco" baseline-shift="super" font-size="8.00" fill="#00aa11">S64</text>
<text text-anchor="start" x="983.51" y="-453.21" font-family="Monaco" baseline-shift="super" font-size="8.00" fill="#3311ff">r0</text>
<text text-anchor="start" x="993.11" y="-453.21" font-family="Monaco" font-size="11.00">:&#45;3</text>
<text text-anchor="start" x="1012.91" y="-453.21" font-family="Monaco" baseline-shift="super" font-size="8.00" fill="#ff4411">q7</text>
</g>
<!-- 15&#45;&gt;16 -->
<g id="edge31" class="edge">
<title>15&#45;&gt;16</title>
<path fill="none" stroke="black" d="M1004.64,-436.35C1016.43,-423.86 1032.89,-406.44 1046.24,-392.32"/>
<polygon fill="black" stroke="black" points="1048.96,-394.53 1053.29,-384.86 1043.87,-389.72 1048.96,-394.53"/>
</g>
<!-- 20 -->
<g id="node35" class="node">
<title>20</title>
<ellipse fill="#ffeeff" stroke="black" cx="1456.21" cy="-599.67" rx="74.05" ry="18"/>
<text text-anchor="start" x="1406.7" y="-599.21" font-family="Monaco" font-size="11.00">zero</text>
<text text-anchor="start" x="1433.11" y="-599.21" font-family="Monaco" baseline-shift="super" font-size="8.00" fill="#00aa11">U1</text>
<text text-anchor="start" x="1442.71" y="-599.21" font-family="Monaco" baseline-shift="super" font-size="8.00" fill="#3311ff">r1</text>
<text text-anchor="start" x="1452.31" y="-599.21" font-family="Monaco" font-size="11.00">:in</text>
<text text-anchor="start" x="1472.11" y="-599.21" font-family="Monaco" baseline-shift="super" font-size="8.00" fill="#ff4411">q16|q12</text>
</g>
<!-- 17 -->
<g id="node37" class="node">
<title>17</title>
<ellipse fill="none" stroke="black" cx="1375.21" cy="-526.67" rx="62.11" ry="18"/>
<text text-anchor="start" x="1335" y="-526.21" font-family="Monaco" font-size="11.00">a[zero]=@k</text>
<text text-anchor="start" x="1401.01" y="-526.21" font-family="Monaco" baseline-shift="super" font-size="8.00" fill="#ff4411">q17</text>
</g>
<!-- 20&#45;&gt;17 -->
<g id="edge37" class="edge">
<title>20&#45;&gt;17</title>
<path fill="none" stroke="black" d="M1437.42,-582.21C1426.79,-572.89 1413.33,-561.08 1401.64,-550.84"/>
<polygon fill="black" stroke="black" points="1403.72,-548.01 1393.9,-544.05 1399.11,-553.28 1403.72,-548.01"/>
</g>
<!-- 18 -->
<g id="node39" class="node">
<title>18</title>
<ellipse fill="none" stroke="black" cx="1435.21" cy="-453.67" rx="66.1" ry="18"/>
<text text-anchor="start" x="1391.7" y="-453.21" font-family="Monaco" font-size="11.00">req a[zero]</text>
<text text-anchor="start" x="1464.32" y="-453.21" font-family="Monaco" baseline-shift="super" font-size="8.00" fill="#ff4411">q18</text>
</g>
<!-- 20&#45;&gt;18 -->
<g id="edge38" class="edge">
<title>20&#45;&gt;18</title>
<path fill="none" stroke="black" d="M1454.75,-581.36C1453.12,-563.19 1450.16,-533.83 1446.21,-508.67 1444.84,-499.94 1443.02,-490.47 1441.26,-481.94"/>
<polygon fill="black" stroke="black" points="1444.68,-481.17 1439.18,-472.11 1437.83,-482.62 1444.68,-481.17"/>
</g>
<!-- 21 -->
<g id="node36" class="node">
<title>21</title>
<ellipse fill="#ffeeff" stroke="black" cx="1295.21" cy="-599.67" rx="68.74" ry="18"/>
<text text-anchor="start" x="1249.9" y="-599.21" font-family="Monaco" font-size="11.00">@k</text>
<text text-anchor="start" x="1263.11" y="-599.21" font-family="Monaco" baseline-shift="super" font-size="8.00" fill="#00aa11">S64</text>
<text text-anchor="start" x="1277.51" y="-599.21" font-family="Monaco" baseline-shift="super" font-size="8.00" fill="#3311ff">r0</text>
<text text-anchor="start" x="1287.11" y="-599.21" font-family="Monaco" font-size="11.00">:in</text>
<text text-anchor="start" x="1306.91" y="-599.21" font-family="Monaco" baseline-shift="super" font-size="8.00" fill="#ff4411">q16|q12</text>
</g>
<!-- 21&#45;&gt;17 -->
<g id="edge39" class="edge">
<title>21&#45;&gt;17</title>
<path fill="none" stroke="black" d="M1313.77,-582.21C1324.27,-572.89 1337.57,-561.08 1349.11,-550.84"/>
<polygon fill="black" stroke="black" points="1351.6,-553.31 1356.76,-544.05 1346.95,-548.07 1351.6,-553.31"/>
</g>
<!-- 17&#45;&gt;18 -->
<g id="edge40" class="edge">
<title>17&#45;&gt;18</title>
<path fill="none" stroke="black" stroke-dasharray="1,5" d="M1389.43,-508.85C1396.9,-500.01 1406.2,-489 1414.46,-479.23"/>
<polygon fill="black" stroke="black" points="1417.31,-481.28 1421.09,-471.38 1411.97,-476.76 1417.31,-481.28"/>
</g>
<!-- 22 -->
<g id="node38" class="node">
<title>22</title>
<ellipse fill="#ffffee" stroke="black" cx="1435.21" cy="-280.34" rx="49.12" ry="18"/>
<text text-anchor="start" x="1404.91" y="-279.87" font-family="Monaco" font-size="11.00">out(@l)</text>
<text text-anchor="start" x="1451.11" y="-279.87" font-family="Monaco" baseline-shift="super" font-size="8.00" fill="#ff4411">q20</text>
</g>
<!-- 19 -->
<g id="node40" class="node">
<title>19</title>
<ellipse fill="none" stroke="black" cx="1435.21" cy="-367.01" rx="60.52" ry="18"/>
<text text-anchor="start" x="1396.2" y="-366.54" font-family="Monaco" font-size="11.00">@l</text>
<text text-anchor="start" x="1409.41" y="-366.54" font-family="Monaco" baseline-shift="super" font-size="8.00" fill="#00aa11">S64</text>
<text text-anchor="start" x="1423.81" y="-366.54" font-family="Monaco" baseline-shift="super" font-size="8.00" fill="#3311ff">r0</text>
<text text-anchor="start" x="1433.41" y="-366.54" font-family="Monaco" font-size="11.00">:a[]</text>
<text text-anchor="start" x="1459.81" y="-366.54" font-family="Monaco" baseline-shift="super" font-size="8.00" fill="#ff4411">q19</text>
</g>
<!-- 18&#45;&gt;19 -->
<g id="edge41" class="edge">
<title>18&#45;&gt;19</title>
<path fill="none" stroke="black" stroke-dasharray="1,5" d="M1435.21,-435.54C1435.21,-423.95 1435.21,-408.4 1435.21,-395.14"/>
<polygon fill="black" stroke="black" points="1438.71,-395.11 1435.21,-385.11 1431.71,-395.11 1438.71,-395.11"/>
</g>
<!-- 19&#45;&gt;22 -->
<g id="edge36" class="edge">
<title>19&#45;&gt;22</title>
<path fill="none" stroke="black" d="M1435.21,-348.87C1435.21,-337.28 1435.21,-321.73 1435.21,-308.47"/>
<polygon fill="black" stroke="black" points="1438.71,-308.45 1435.21,-298.45 1431.71,-308.45 1438.71,-308.45"/>
</g>
</g>
</svg>
