<?xml version="1.0" encoding="UTF-8" standalone="no"?>
<!DOCTYPE svg PUBLIC "-//W3C//DTD SVG 1.1//EN"
 "http://www.w3.org/Graphics/SVG/1.1/DTD/svg11.dtd">
<!-- Generated by graphviz version 2.43.0 (0)
 -->
<!-- Title: Program_ Pages: 1 -->
<svg width="1839pt" height="593pt"
 viewBox="0.00 0.00 1839.21 592.68" xmlns="http://www.w3.org/2000/svg" xmlns:xlink="http://www.w3.org/1999/xlink">
<g id="graph0" class="graph" transform="scale(1 1) rotate(0) translate(4 588.68)">
<title>Program_</title>
<polygon fill="white" stroke="transparent" points="-4,4 -4,-588.68 1835.21,-588.68 1835.21,4 -4,4"/>
<g id="clust1" class="cluster">
<title>cluster_dfg_Block0</title>
<polygon fill="none" stroke="black" points="186.21,-8 186.21,-576.68 636.21,-576.68 636.21,-8 186.21,-8"/>
<text text-anchor="middle" x="411.21" y="-563.08" font-family="Monaco" font-size="12.00">Block0</text>
</g>
<g id="clust2" class="cluster">
<title>cluster_dfg_Block1</title>
<polygon fill="none" stroke="black" points="644.21,-268.01 644.21,-576.68 1058.21,-576.68 1058.21,-268.01 644.21,-268.01"/>
<text text-anchor="middle" x="851.21" y="-563.08" font-family="Monaco" font-size="12.00">Block1</text>
</g>
<g id="clust3" class="cluster">
<title>cluster_dfg_Block2</title>
<polygon fill="none" stroke="black" points="1066.21,-268.01 1066.21,-576.68 1495.21,-576.68 1495.21,-268.01 1066.21,-268.01"/>
<text text-anchor="middle" x="1280.71" y="-563.08" font-family="Monaco" font-size="12.00">Block2</text>
</g>
<g id="clust4" class="cluster">
<title>cluster_dfg_Block3</title>
<polygon fill="none" stroke="black" points="1503.21,-268.01 1503.21,-576.68 1823.21,-576.68 1823.21,-268.01 1503.21,-268.01"/>
<text text-anchor="middle" x="1663.21" y="-563.08" font-family="Monaco" font-size="12.00">Block3</text>
</g>
<!-- Jump0 -->
<g id="node1" class="node">
<title>Jump0</title>
<polygon fill="none" stroke="black" points="144.82,-544.67 53.6,-544.67 53.6,-540.67 49.6,-540.67 49.6,-536.67 53.6,-536.67 53.6,-516.67 49.6,-516.67 49.6,-512.67 53.6,-512.67 53.6,-508.67 144.82,-508.67 144.82,-544.67"/>
<polyline fill="none" stroke="black" points="53.6,-540.67 57.6,-540.67 57.6,-536.67 53.6,-536.67 "/>
<polyline fill="none" stroke="black" points="53.6,-516.67 57.6,-516.67 57.6,-512.67 53.6,-512.67 "/>
<text text-anchor="start" x="61.4" y="-529.87" font-family="Monaco" font-size="11.00">StartFun.0</text>
<text text-anchor="start" x="127.42" y="-529.87" font-family="Monaco" baseline-shift="super" font-size="8.00" fill="#ff4411">q0</text>
<text text-anchor="start" x="95.91" y="-518.87" font-family="Monaco" font-size="11.00">i</text>
</g>
<!-- Block0 -->
<g id="node2" class="node">
<title>Block0</title>
<polygon fill="none" stroke="black" points="126.82,-471.67 71.6,-471.67 71.6,-435.67 126.82,-435.67 126.82,-471.67"/>
<text text-anchor="middle" x="99.21" y="-452.21" font-family="Monaco" font-size="11.00">Block0</text>
</g>
<!-- Jump0&#45;&gt;Block0 -->
<g id="edge1" class="edge">
<title>Jump0&#45;&gt;Block0</title>
<path fill="none" stroke="black" d="M99.21,-508.49C99.21,-500.46 99.21,-490.72 99.21,-481.74"/>
<polygon fill="black" stroke="black" points="102.71,-481.7 99.21,-471.7 95.71,-481.7 102.71,-481.7"/>
</g>
<!-- Jump1 -->
<g id="node3" class="node">
<title>Jump1</title>
<path fill="none" stroke="black" d="M128.82,-398.67C128.82,-398.67 69.6,-398.67 69.6,-398.67 63.6,-398.67 53.79,-394.04 49.98,-389.41 49.98,-389.41 35.6,-371.94 35.6,-371.94 31.78,-367.31 33.97,-362.67 39.97,-362.67 39.97,-362.67 158.45,-362.67 158.45,-362.67 164.45,-362.67 166.64,-367.31 162.82,-371.94 162.82,-371.94 148.44,-389.41 148.44,-389.41 144.63,-394.04 134.82,-398.67 128.82,-398.67"/>
<text text-anchor="start" x="68.01" y="-380.21" font-family="Monaco" font-size="11.00">Branch.1</text>
<text text-anchor="start" x="120.81" y="-380.21" font-family="Monaco" baseline-shift="super" font-size="8.00" fill="#ff4411">q6</text>
</g>
<!-- Block0&#45;&gt;Jump1 -->
<g id="edge2" class="edge">
<title>Block0&#45;&gt;Jump1</title>
<path fill="none" stroke="black" d="M99.21,-435.49C99.21,-427.46 99.21,-417.72 99.21,-408.74"/>
<polygon fill="black" stroke="black" points="102.71,-408.7 99.21,-398.7 95.71,-408.7 102.71,-408.7"/>
</g>
<!-- Block1 -->
<g id="node4" class="node">
<title>Block1</title>
<polygon fill="none" stroke="black" points="103.82,-312.01 48.6,-312.01 48.6,-276.01 103.82,-276.01 103.82,-312.01"/>
<text text-anchor="middle" x="76.21" y="-292.54" font-family="Monaco" font-size="11.00">Block1</text>
</g>
<!-- Jump1&#45;&gt;Block1 -->
<g id="edge3" class="edge">
<title>Jump1&#45;&gt;Block1</title>
<path fill="none" stroke="black" d="M94.56,-362.54C91.41,-350.95 87.18,-335.4 83.58,-322.14"/>
<polygon fill="black" stroke="black" points="86.86,-320.85 80.86,-312.11 80.1,-322.68 86.86,-320.85"/>
<text text-anchor="middle" x="95.81" y="-335.87" font-family="Monaco" font-size="11.00">@d</text>
</g>
<!-- Block2 -->
<g id="node5" class="node">
<title>Block2</title>
<polygon fill="none" stroke="black" points="177.82,-312.01 122.6,-312.01 122.6,-276.01 177.82,-276.01 177.82,-312.01"/>
<text text-anchor="middle" x="150.21" y="-292.54" font-family="Monaco" font-size="11.00">Block2</text>
</g>
<!-- Jump1&#45;&gt;Block2 -->
<g id="edge4" class="edge">
<title>Jump1&#45;&gt;Block2</title>
<path fill="none" stroke="black" d="M109.53,-362.54C116.72,-350.6 126.44,-334.47 134.58,-320.96"/>
<polygon fill="black" stroke="black" points="137.74,-322.49 139.91,-312.11 131.75,-318.87 137.74,-322.49"/>
<text text-anchor="middle" x="138.11" y="-335.87" font-family="Monaco" font-size="11.00">!@d</text>
</g>
<!-- Jump2 -->
<g id="node6" class="node">
<title>Jump2</title>
<path fill="none" stroke="black" d="M48.15,-189.34C48.15,-189.34 126.27,-189.34 126.27,-189.34 132.27,-189.34 142.53,-193.56 146.79,-197.78 146.79,-197.78 166.1,-216.89 166.1,-216.89 170.37,-221.12 168.63,-225.34 162.63,-225.34 162.63,-225.34 11.79,-225.34 11.79,-225.34 5.79,-225.34 4.05,-221.12 8.32,-216.89 8.32,-216.89 27.63,-197.78 27.63,-197.78 31.89,-193.56 42.15,-189.34 48.15,-189.34"/>
<text text-anchor="start" x="47.3" y="-206.87" font-family="Monaco" font-size="11.00">Merge.2</text>
<text text-anchor="start" x="93.51" y="-206.87" font-family="Monaco" baseline-shift="super" font-size="8.00" fill="#ff4411">q13|q10</text>
</g>
<!-- Block1&#45;&gt;Jump2 -->
<g id="edge5" class="edge">
<title>Block1&#45;&gt;Jump2</title>
<path fill="none" stroke="black" d="M78.44,-275.87C79.94,-264.28 81.96,-248.73 83.69,-235.47"/>
<polygon fill="black" stroke="black" points="87.17,-235.81 84.99,-225.45 80.23,-234.91 87.17,-235.81"/>
<text text-anchor="middle" x="89.81" y="-249.21" font-family="Monaco" font-size="11.00">@g</text>
</g>
<!-- Block2&#45;&gt;Jump2 -->
<g id="edge6" class="edge">
<title>Block2&#45;&gt;Jump2</title>
<path fill="none" stroke="black" d="M137.46,-275.87C128.41,-263.71 116.11,-247.18 105.95,-233.52"/>
<polygon fill="black" stroke="black" points="108.72,-231.38 99.94,-225.45 103.1,-235.56 108.72,-231.38"/>
<text text-anchor="middle" x="129.81" y="-249.21" font-family="Monaco" font-size="11.00">@j</text>
</g>
<!-- Block3 -->
<g id="node7" class="node">
<title>Block3</title>
<polygon fill="none" stroke="black" points="114.82,-138.67 59.6,-138.67 59.6,-102.67 114.82,-102.67 114.82,-138.67"/>
<text text-anchor="middle" x="87.21" y="-119.2" font-family="Monaco" font-size="11.00">Block3</text>
</g>
<!-- Jump2&#45;&gt;Block3 -->
<g id="edge7" class="edge">
<title>Jump2&#45;&gt;Block3</title>
<path fill="none" stroke="black" d="M87.21,-189.2C87.21,-177.61 87.21,-162.06 87.21,-148.8"/>
<polygon fill="black" stroke="black" points="90.71,-148.78 87.21,-138.78 83.71,-148.78 90.71,-148.78"/>
<text text-anchor="middle" x="93.81" y="-162.54" font-family="Monaco" font-size="11.00">@k</text>
</g>
<!-- Jump3 -->
<g id="node8" class="node">
<title>Jump3</title>
<polygon fill="none" stroke="black" points="128.92,-46 63.5,-46 63.5,-52 45.5,-34 63.5,-16 63.5,-22 110.92,-22 110.92,-16 128.92,-16 128.92,-46"/>
<text text-anchor="start" x="53.61" y="-33.53" font-family="Monaco" font-size="11.00">Return.3</text>
<text text-anchor="start" x="106.41" y="-33.53" font-family="Monaco" baseline-shift="super" font-size="8.00" fill="#ff4411">q16</text>
</g>
<!-- Block3&#45;&gt;Jump3 -->
<g id="edge8" class="edge">
<title>Block3&#45;&gt;Jump3</title>
<path fill="none" stroke="black" d="M87.21,-102.53C87.21,-90.94 87.21,-75.39 87.21,-62.13"/>
<polygon fill="black" stroke="black" points="90.71,-62.11 87.21,-52.11 83.71,-62.11 90.71,-62.11"/>
<text text-anchor="middle" x="93.81" y="-75.87" font-family="Monaco" font-size="11.00">@l</text>
</g>
<!-- 0 -->
<g id="node9" class="node">
<title>0</title>
<ellipse fill="none" stroke="black" cx="574.21" cy="-526.67" rx="54.16" ry="18"/>
<text text-anchor="start" x="540.01" y="-526.21" font-family="Monaco" font-size="11.00">zero</text>
<text text-anchor="start" x="566.41" y="-526.21" font-family="Monaco" baseline-shift="super" font-size="8.00" fill="#00aa11">U1</text>
<text text-anchor="start" x="576.01" y="-526.21" font-family="Monaco" baseline-shift="super" font-size="8.00" fill="#3311ff">r1</text>
<text text-anchor="start" x="585.61" y="-526.21" font-family="Monaco" font-size="11.00">:0</text>
<text text-anchor="start" x="598.81" y="-526.21" font-family="Monaco" baseline-shift="super" font-size="8.00" fill="#ff4411">q0</text>
</g>
<!-- 5 -->
<g id="node10" class="node">
<title>5</title>
<ellipse fill="none" stroke="black" cx="443.21" cy="-207.34" rx="74.33" ry="18"/>
<text text-anchor="start" x="393.4" y="-206.87" font-family="Monaco" font-size="11.00">@b</text>
<text text-anchor="start" x="406.6" y="-206.87" font-family="Monaco" baseline-shift="super" font-size="8.00" fill="#00aa11">S64</text>
<text text-anchor="start" x="421.01" y="-206.87" font-family="Monaco" baseline-shift="super" font-size="8.00" fill="#3311ff">r0</text>
<text text-anchor="start" x="430.61" y="-206.87" font-family="Monaco" font-size="11.00">:a[zero]</text>
<text text-anchor="start" x="483.42" y="-206.87" font-family="Monaco" baseline-shift="super" font-size="8.00" fill="#ff4411">q4</text>
</g>
<!-- 0&#45;&gt;5 -->
<g id="edge12" class="edge">
<title>0&#45;&gt;5</title>
<path fill="none" stroke="black" d="M595.16,-510.05C609.97,-497.07 627.21,-477.13 627.21,-454.67 627.21,-454.67 627.21,-454.67 627.21,-293.01 627.21,-265.12 556.56,-239.28 502.82,-223.66"/>
<polygon fill="black" stroke="black" points="503.58,-220.24 493,-220.87 501.66,-226.97 503.58,-220.24"/>
</g>
<!-- 1 -->
<g id="node12" class="node">
<title>1</title>
<ellipse fill="none" stroke="black" cx="365.21" cy="-453.67" rx="54.93" ry="18"/>
<text text-anchor="start" x="330.7" y="-453.21" font-family="Monaco" font-size="11.00">a[zero]=i</text>
<text text-anchor="start" x="390.11" y="-453.21" font-family="Monaco" baseline-shift="super" font-size="8.00" fill="#ff4411">q1</text>
</g>
<!-- 0&#45;&gt;1 -->
<g id="edge9" class="edge">
<title>0&#45;&gt;1</title>
<path fill="none" stroke="black" d="M537.81,-513.31C502.81,-501.42 449.76,-483.4 411.72,-470.47"/>
<polygon fill="black" stroke="black" points="412.49,-467.04 401.9,-467.14 410.24,-473.67 412.49,-467.04"/>
</g>
<!-- 3 -->
<g id="node17" class="node">
<title>3</title>
<ellipse fill="none" stroke="black" cx="365.21" cy="-380.67" rx="58.93" ry="18"/>
<text text-anchor="start" x="327.4" y="-380.21" font-family="Monaco" font-size="11.00">a[zero]=@a</text>
<text text-anchor="start" x="393.42" y="-380.21" font-family="Monaco" baseline-shift="super" font-size="8.00" fill="#ff4411">q2</text>
</g>
<!-- 0&#45;&gt;3 -->
<g id="edge10" class="edge">
<title>0&#45;&gt;3</title>
<path fill="none" stroke="black" d="M580.63,-508.78C586.92,-489.08 593.42,-456.53 577.21,-435.67 559.11,-412.38 484.92,-397.48 429.38,-389.35"/>
<polygon fill="black" stroke="black" points="429.63,-385.85 419.24,-387.91 428.65,-392.78 429.63,-385.85"/>
</g>
<!-- 26 -->
<g id="node18" class="node">
<title>26</title>
<ellipse fill="#ffffee" stroke="black" cx="513.21" cy="-453.67" rx="54.93" ry="18"/>
<text text-anchor="start" x="478.7" y="-453.21" font-family="Monaco" font-size="11.00">out(zero)</text>
<text text-anchor="start" x="538.11" y="-453.21" font-family="Monaco" baseline-shift="super" font-size="8.00" fill="#ff4411">q6</text>
</g>
<!-- 0&#45;&gt;26 -->
<g id="edge13" class="edge">
<title>0&#45;&gt;26</title>
<path fill="none" stroke="black" d="M560.06,-509.21C552.4,-500.29 542.78,-489.09 534.25,-479.16"/>
<polygon fill="black" stroke="black" points="536.88,-476.85 527.71,-471.54 531.57,-481.41 536.88,-476.85"/>
</g>
<!-- 4 -->
<g id="node19" class="node">
<title>4</title>
<ellipse fill="none" stroke="black" cx="443.21" cy="-294.01" rx="54.93" ry="18"/>
<text text-anchor="start" x="408.7" y="-293.54" font-family="Monaco" font-size="11.00">a[zero]=i</text>
<text text-anchor="start" x="468.11" y="-293.54" font-family="Monaco" baseline-shift="super" font-size="8.00" fill="#ff4411">q3</text>
</g>
<!-- 0&#45;&gt;4 -->
<g id="edge11" class="edge">
<title>0&#45;&gt;4</title>
<path fill="none" stroke="black" d="M583.72,-508.74C586.36,-503.16 588.87,-496.81 590.21,-490.67 595.42,-466.75 597.33,-457.96 587.21,-435.67 563.43,-383.31 510.72,-340.14 476.1,-315.99"/>
<polygon fill="black" stroke="black" points="477.95,-313.01 467.72,-310.26 474,-318.79 477.95,-313.01"/>
</g>
<!-- 7 -->
<g id="node16" class="node">
<title>7</title>
<ellipse fill="none" stroke="black" cx="479.21" cy="-120.67" rx="79.37" ry="18"/>
<text text-anchor="start" x="425.5" y="-120.2" font-family="Monaco" font-size="11.00">@d</text>
<text text-anchor="start" x="438.7" y="-120.2" font-family="Monaco" baseline-shift="super" font-size="8.00" fill="#00aa11">U1</text>
<text text-anchor="start" x="448.31" y="-120.2" font-family="Monaco" baseline-shift="super" font-size="8.00" fill="#3311ff">r0</text>
<text text-anchor="start" x="457.91" y="-120.2" font-family="Monaco" font-size="11.00">:@b&gt;=</text>
<text text-anchor="start" x="490.91" y="-120.2" font-family="Monaco" baseline-shift="super" font-size="8.00" fill="#3311ff">Bin0</text>
<text text-anchor="start" x="510.12" y="-120.2" font-family="Monaco" font-size="11.00">@c</text>
<text text-anchor="start" x="523.32" y="-120.2" font-family="Monaco" baseline-shift="super" font-size="8.00" fill="#ff4411">q5</text>
</g>
<!-- 5&#45;&gt;7 -->
<g id="edge15" class="edge">
<title>5&#45;&gt;7</title>
<path fill="none" stroke="black" d="M450.5,-189.2C455.52,-177.38 462.3,-161.44 468.01,-148.01"/>
<polygon fill="black" stroke="black" points="471.24,-149.35 471.94,-138.78 464.8,-146.61 471.24,-149.35"/>
</g>
<!-- 25 -->
<g id="node11" class="node">
<title>25</title>
<ellipse fill="#ffeeff" stroke="black" cx="410.21" cy="-526.67" rx="48.84" ry="18"/>
<text text-anchor="start" x="380.21" y="-526.21" font-family="Monaco" font-size="11.00">i</text>
<text text-anchor="start" x="386.81" y="-526.21" font-family="Monaco" baseline-shift="super" font-size="8.00" fill="#00aa11">S64</text>
<text text-anchor="start" x="401.21" y="-526.21" font-family="Monaco" baseline-shift="super" font-size="8.00" fill="#3311ff">r0</text>
<text text-anchor="start" x="410.81" y="-526.21" font-family="Monaco" font-size="11.00">:in</text>
<text text-anchor="start" x="430.61" y="-526.21" font-family="Monaco" baseline-shift="super" font-size="8.00" fill="#ff4411">q0</text>
</g>
<!-- 25&#45;&gt;1 -->
<g id="edge18" class="edge">
<title>25&#45;&gt;1</title>
<path fill="none" stroke="black" d="M399.55,-508.85C394.11,-500.27 387.39,-489.66 381.33,-480.11"/>
<polygon fill="black" stroke="black" points="384.11,-477.95 375.8,-471.38 378.2,-481.7 384.11,-477.95"/>
</g>
<!-- 25&#45;&gt;4 -->
<g id="edge19" class="edge">
<title>25&#45;&gt;4</title>
<path fill="none" stroke="black" d="M417.54,-508.49C421.68,-498.04 426.53,-484.31 429.21,-471.67 440.23,-419.66 442.75,-357.37 443.23,-322.38"/>
<polygon fill="black" stroke="black" points="446.73,-322.05 443.32,-312.02 439.73,-321.99 446.73,-322.05"/>
</g>
<!-- 1&#45;&gt;3 -->
<g id="edge20" class="edge">
<title>1&#45;&gt;3</title>
<path fill="none" stroke="black" stroke-dasharray="1,5" d="M365.21,-435.49C365.21,-427.46 365.21,-417.72 365.21,-408.74"/>
<polygon fill="black" stroke="black" points="368.71,-408.7 365.21,-398.7 361.71,-408.7 368.71,-408.7"/>
</g>
<!-- 6 -->
<g id="node13" class="node">
<title>6</title>
<ellipse fill="none" stroke="black" cx="581.21" cy="-207.34" rx="45.66" ry="18"/>
<text text-anchor="start" x="553.61" y="-206.87" font-family="Monaco" font-size="11.00">@c</text>
<text text-anchor="start" x="566.81" y="-206.87" font-family="Monaco" baseline-shift="super" font-size="8.00" fill="#00aa11">S1</text>
<text text-anchor="start" x="576.41" y="-206.87" font-family="Monaco" baseline-shift="super" font-size="8.00" fill="#3311ff">r2</text>
<text text-anchor="start" x="586.01" y="-206.87" font-family="Monaco" font-size="11.00">:0</text>
<text text-anchor="start" x="599.21" y="-206.87" font-family="Monaco" baseline-shift="super" font-size="8.00" fill="#ff4411">q0</text>
</g>
<!-- 6&#45;&gt;7 -->
<g id="edge16" class="edge">
<title>6&#45;&gt;7</title>
<path fill="none" stroke="black" d="M562.5,-190.81C546.94,-177.89 524.57,-159.32 506.93,-144.67"/>
<polygon fill="black" stroke="black" points="509.13,-141.95 499.2,-138.26 504.65,-147.34 509.13,-141.95"/>
</g>
<!-- 2 -->
<g id="node14" class="node">
<title>2</title>
<ellipse fill="none" stroke="black" cx="243.21" cy="-453.67" rx="48.84" ry="18"/>
<text text-anchor="start" x="213.21" y="-453.21" font-family="Monaco" font-size="11.00">@a</text>
<text text-anchor="start" x="226.41" y="-453.21" font-family="Monaco" baseline-shift="super" font-size="8.00" fill="#00aa11">S64</text>
<text text-anchor="start" x="240.81" y="-453.21" font-family="Monaco" baseline-shift="super" font-size="8.00" fill="#3311ff">r3</text>
<text text-anchor="start" x="250.41" y="-453.21" font-family="Monaco" font-size="11.00">:1</text>
<text text-anchor="start" x="263.61" y="-453.21" font-family="Monaco" baseline-shift="super" font-size="8.00" fill="#ff4411">q0</text>
</g>
<!-- 2&#45;&gt;3 -->
<g id="edge14" class="edge">
<title>2&#45;&gt;3</title>
<path fill="none" stroke="black" d="M268.19,-438.13C286.09,-427.72 310.42,-413.56 330.25,-402.02"/>
<polygon fill="black" stroke="black" points="332.11,-404.98 339,-396.93 328.59,-398.93 332.11,-404.98"/>
</g>
<!-- 27 -->
<g id="node15" class="node">
<title>27</title>
<ellipse fill="#ffffee" stroke="black" cx="479.21" cy="-34" rx="46.44" ry="18"/>
<text text-anchor="start" x="451.31" y="-33.53" font-family="Monaco" font-size="11.00">out(@d)</text>
<text text-anchor="start" x="497.51" y="-33.53" font-family="Monaco" baseline-shift="super" font-size="8.00" fill="#ff4411">q6</text>
</g>
<!-- 7&#45;&gt;27 -->
<g id="edge17" class="edge">
<title>7&#45;&gt;27</title>
<path fill="none" stroke="black" d="M479.21,-102.53C479.21,-90.94 479.21,-75.39 479.21,-62.13"/>
<polygon fill="black" stroke="black" points="482.71,-62.11 479.21,-52.11 475.71,-62.11 482.71,-62.11"/>
</g>
<!-- 3&#45;&gt;4 -->
<g id="edge21" class="edge">
<title>3&#45;&gt;4</title>
<path fill="none" stroke="black" stroke-dasharray="1,5" d="M380.62,-362.95C392.23,-350.34 408.32,-332.88 421.27,-318.82"/>
<polygon fill="black" stroke="black" points="423.9,-321.14 428.1,-311.41 418.75,-316.39 423.9,-321.14"/>
</g>
<!-- 4&#45;&gt;5 -->
<g id="edge22" class="edge">
<title>4&#45;&gt;5</title>
<path fill="none" stroke="black" stroke-dasharray="1,5" d="M443.21,-275.87C443.21,-264.28 443.21,-248.73 443.21,-235.47"/>
<polygon fill="black" stroke="black" points="446.71,-235.45 443.21,-225.45 439.71,-235.45 446.71,-235.45"/>
</g>
<!-- 10 -->
<g id="node20" class="node">
<title>10</title>
<ellipse fill="none" stroke="black" cx="798.21" cy="-380.67" rx="78.05" ry="18"/>
<text text-anchor="start" x="745.4" y="-380.21" font-family="Monaco" font-size="11.00">@g</text>
<text text-anchor="start" x="758.6" y="-380.21" font-family="Monaco" baseline-shift="super" font-size="8.00" fill="#00aa11">S64</text>
<text text-anchor="start" x="773.01" y="-380.21" font-family="Monaco" baseline-shift="super" font-size="8.00" fill="#3311ff">r0</text>
<text text-anchor="start" x="782.61" y="-380.21" font-family="Monaco" font-size="11.00">:@e*</text>
<text text-anchor="start" x="809.01" y="-380.21" font-family="Monaco" baseline-shift="super" font-size="8.00" fill="#3311ff">Bin1</text>
<text text-anchor="start" x="828.22" y="-380.21" font-family="Monaco" font-size="11.00">@f</text>
<text text-anchor="start" x="841.42" y="-380.21" font-family="Monaco" baseline-shift="super" font-size="8.00" fill="#ff4411">q9</text>
</g>
<!-- 21 -->
<g id="node22" class="node">
<title>21</title>
<ellipse fill="#ffffee" stroke="black" cx="798.21" cy="-294.01" rx="49.12" ry="18"/>
<text text-anchor="start" x="767.91" y="-293.54" font-family="Monaco" font-size="11.00">out(@g)</text>
<text text-anchor="start" x="814.11" y="-293.54" font-family="Monaco" baseline-shift="super" font-size="8.00" fill="#ff4411">q10</text>
</g>
<!-- 10&#45;&gt;21 -->
<g id="edge25" class="edge">
<title>10&#45;&gt;21</title>
<path fill="none" stroke="black" d="M798.21,-362.54C798.21,-350.95 798.21,-335.4 798.21,-322.14"/>
<polygon fill="black" stroke="black" points="801.71,-322.11 798.21,-312.11 794.71,-322.11 801.71,-322.11"/>
</g>
<!-- 20 -->
<g id="node21" class="node">
<title>20</title>
<ellipse fill="#ffffee" stroke="black" cx="876.21" cy="-453.67" rx="57.61" ry="18"/>
<text text-anchor="start" x="839.3" y="-453.21" font-family="Monaco" font-size="11.00">out(zero)</text>
<text text-anchor="start" x="898.71" y="-453.21" font-family="Monaco" baseline-shift="super" font-size="8.00" fill="#ff4411">q10</text>
</g>
<!-- 9 -->
<g id="node23" class="node">
<title>9</title>
<ellipse fill="none" stroke="black" cx="1001.21" cy="-453.67" rx="48.84" ry="18"/>
<text text-anchor="start" x="971.21" y="-453.21" font-family="Monaco" font-size="11.00">@f</text>
<text text-anchor="start" x="984.41" y="-453.21" font-family="Monaco" baseline-shift="super" font-size="8.00" fill="#00aa11">S64</text>
<text text-anchor="start" x="998.81" y="-453.21" font-family="Monaco" baseline-shift="super" font-size="8.00" fill="#3311ff">r0</text>
<text text-anchor="start" x="1008.41" y="-453.21" font-family="Monaco" font-size="11.00">:2</text>
<text text-anchor="start" x="1021.61" y="-453.21" font-family="Monaco" baseline-shift="super" font-size="8.00" fill="#ff4411">q6</text>
</g>
<!-- 9&#45;&gt;10 -->
<g id="edge24" class="edge">
<title>9&#45;&gt;10</title>
<path fill="none" stroke="black" d="M966.77,-440.63C934.48,-429.33 885.79,-412.31 849.03,-399.45"/>
<polygon fill="black" stroke="black" points="850.08,-396.11 839.48,-396.11 847.77,-402.71 850.08,-396.11"/>
</g>
<!-- 8 -->
<g id="node24" class="node">
<title>8</title>
<ellipse fill="none" stroke="black" cx="726.21" cy="-453.67" rx="74.33" ry="18"/>
<text text-anchor="start" x="676.4" y="-453.21" font-family="Monaco" font-size="11.00">@e</text>
<text text-anchor="start" x="689.6" y="-453.21" font-family="Monaco" baseline-shift="super" font-size="8.00" fill="#00aa11">S64</text>
<text text-anchor="start" x="704.01" y="-453.21" font-family="Monaco" baseline-shift="super" font-size="8.00" fill="#3311ff">r2</text>
<text text-anchor="start" x="713.61" y="-453.21" font-family="Monaco" font-size="11.00">:a[zero]</text>
<text text-anchor="start" x="766.42" y="-453.21" font-family="Monaco" baseline-shift="super" font-size="8.00" fill="#ff4411">q8</text>
</g>
<!-- 8&#45;&gt;10 -->
<g id="edge23" class="edge">
<title>8&#45;&gt;10</title>
<path fill="none" stroke="black" d="M743.27,-435.85C752.42,-426.83 763.85,-415.56 773.9,-405.64"/>
<polygon fill="black" stroke="black" points="776.61,-407.89 781.27,-398.38 771.69,-402.91 776.61,-407.89"/>
</g>
<!-- 19 -->
<g id="node25" class="node">
<title>19</title>
<ellipse fill="#ffeeff" stroke="black" cx="801.21" cy="-526.67" rx="58.65" ry="18"/>
<text text-anchor="start" x="763.7" y="-526.21" font-family="Monaco" font-size="11.00">zero</text>
<text text-anchor="start" x="790.11" y="-526.21" font-family="Monaco" baseline-shift="super" font-size="8.00" fill="#00aa11">U1</text>
<text text-anchor="start" x="799.71" y="-526.21" font-family="Monaco" baseline-shift="super" font-size="8.00" fill="#3311ff">r1</text>
<text text-anchor="start" x="809.31" y="-526.21" font-family="Monaco" font-size="11.00">:in</text>
<text text-anchor="start" x="829.12" y="-526.21" font-family="Monaco" baseline-shift="super" font-size="8.00" fill="#ff4411">q6</text>
</g>
<!-- 19&#45;&gt;20 -->
<g id="edge27" class="edge">
<title>19&#45;&gt;20</title>
<path fill="none" stroke="black" d="M818.61,-509.21C828.36,-499.98 840.68,-488.31 851.42,-478.14"/>
<polygon fill="black" stroke="black" points="854.05,-480.47 858.91,-471.05 849.24,-475.38 854.05,-480.47"/>
</g>
<!-- 19&#45;&gt;8 -->
<g id="edge26" class="edge">
<title>19&#45;&gt;8</title>
<path fill="none" stroke="black" d="M783.82,-509.21C774.14,-500.04 761.92,-488.48 751.23,-478.36"/>
<polygon fill="black" stroke="black" points="753.44,-475.63 743.77,-471.3 748.63,-480.71 753.44,-475.63"/>
</g>
<!-- 24 -->
<g id="node26" class="node">
<title>24</title>
<ellipse fill="#ffffee" stroke="black" cx="1215.21" cy="-294.01" rx="49.12" ry="18"/>
<text text-anchor="start" x="1184.91" y="-293.54" font-family="Monaco" font-size="11.00">out(@j)</text>
<text text-anchor="start" x="1231.11" y="-293.54" font-family="Monaco" baseline-shift="super" font-size="8.00" fill="#ff4411">q13</text>
</g>
<!-- 13 -->
<g id="node27" class="node">
<title>13</title>
<ellipse fill="none" stroke="black" cx="1215.21" cy="-380.67" rx="81.23" ry="18"/>
<text text-anchor="start" x="1160" y="-380.21" font-family="Monaco" font-size="11.00">@j</text>
<text text-anchor="start" x="1173.2" y="-380.21" font-family="Monaco" baseline-shift="super" font-size="8.00" fill="#00aa11">S64</text>
<text text-anchor="start" x="1187.61" y="-380.21" font-family="Monaco" baseline-shift="super" font-size="8.00" fill="#3311ff">r0</text>
<text text-anchor="start" x="1197.21" y="-380.21" font-family="Monaco" font-size="11.00">:@h*</text>
<text text-anchor="start" x="1223.61" y="-380.21" font-family="Monaco" baseline-shift="super" font-size="8.00" fill="#3311ff">Bin1</text>
<text text-anchor="start" x="1242.82" y="-380.21" font-family="Monaco" font-size="11.00">@i</text>
<text text-anchor="start" x="1256.02" y="-380.21" font-family="Monaco" baseline-shift="super" font-size="8.00" fill="#ff4411">q12</text>
</g>
<!-- 13&#45;&gt;24 -->
<g id="edge30" class="edge">
<title>13&#45;&gt;24</title>
<path fill="none" stroke="black" d="M1215.21,-362.54C1215.21,-350.95 1215.21,-335.4 1215.21,-322.14"/>
<polygon fill="black" stroke="black" points="1218.71,-322.11 1215.21,-312.11 1211.71,-322.11 1218.71,-322.11"/>
</g>
<!-- 22 -->
<g id="node28" class="node">
<title>22</title>
<ellipse fill="#ffeeff" stroke="black" cx="1352.21" cy="-526.67" rx="58.65" ry="18"/>
<text text-anchor="start" x="1314.7" y="-526.21" font-family="Monaco" font-size="11.00">zero</text>
<text text-anchor="start" x="1341.11" y="-526.21" font-family="Monaco" baseline-shift="super" font-size="8.00" fill="#00aa11">U1</text>
<text text-anchor="start" x="1350.71" y="-526.21" font-family="Monaco" baseline-shift="super" font-size="8.00" fill="#3311ff">r1</text>
<text text-anchor="start" x="1360.31" y="-526.21" font-family="Monaco" font-size="11.00">:in</text>
<text text-anchor="start" x="1380.12" y="-526.21" font-family="Monaco" baseline-shift="super" font-size="8.00" fill="#ff4411">q6</text>
</g>
<!-- 11 -->
<g id="node30" class="node">
<title>11</title>
<ellipse fill="none" stroke="black" cx="1276.21" cy="-453.67" rx="77.51" ry="18"/>
<text text-anchor="start" x="1224" y="-453.21" font-family="Monaco" font-size="11.00">@h</text>
<text text-anchor="start" x="1237.2" y="-453.21" font-family="Monaco" baseline-shift="super" font-size="8.00" fill="#00aa11">S64</text>
<text text-anchor="start" x="1251.61" y="-453.21" font-family="Monaco" baseline-shift="super" font-size="8.00" fill="#3311ff">r2</text>
<text text-anchor="start" x="1261.21" y="-453.21" font-family="Monaco" font-size="11.00">:a[zero]</text>
<text text-anchor="start" x="1314.02" y="-453.21" font-family="Monaco" baseline-shift="super" font-size="8.00" fill="#ff4411">q11</text>
</g>
<!-- 22&#45;&gt;11 -->
<g id="edge31" class="edge">
<title>22&#45;&gt;11</title>
<path fill="none" stroke="black" d="M1334.58,-509.21C1324.77,-500.04 1312.39,-488.48 1301.56,-478.36"/>
<polygon fill="black" stroke="black" points="1303.7,-475.57 1294.01,-471.3 1298.92,-480.68 1303.7,-475.57"/>
</g>
<!-- 23 -->
<g id="node31" class="node">
<title>23</title>
<ellipse fill="#ffffee" stroke="black" cx="1429.21" cy="-453.67" rx="57.61" ry="18"/>
<text text-anchor="start" x="1392.3" y="-453.21" font-family="Monaco" font-size="11.00">out(zero)</text>
<text text-anchor="start" x="1451.71" y="-453.21" font-family="Monaco" baseline-shift="super" font-size="8.00" fill="#ff4411">q13</text>
</g>
<!-- 22&#45;&gt;23 -->
<g id="edge32" class="edge">
<title>22&#45;&gt;23</title>
<path fill="none" stroke="black" d="M1370.07,-509.21C1380.18,-499.89 1392.98,-488.08 1404.08,-477.84"/>
<polygon fill="black" stroke="black" points="1406.47,-480.4 1411.45,-471.05 1401.72,-475.26 1406.47,-480.4"/>
</g>
<!-- 12 -->
<g id="node29" class="node">
<title>12</title>
<ellipse fill="none" stroke="black" cx="1127.21" cy="-453.67" rx="53.34" ry="18"/>
<text text-anchor="start" x="1093.91" y="-453.21" font-family="Monaco" font-size="11.00">@i</text>
<text text-anchor="start" x="1107.11" y="-453.21" font-family="Monaco" baseline-shift="super" font-size="8.00" fill="#00aa11">S64</text>
<text text-anchor="start" x="1121.51" y="-453.21" font-family="Monaco" baseline-shift="super" font-size="8.00" fill="#3311ff">r0</text>
<text text-anchor="start" x="1131.11" y="-453.21" font-family="Monaco" font-size="11.00">:&#45;3</text>
<text text-anchor="start" x="1150.91" y="-453.21" font-family="Monaco" baseline-shift="super" font-size="8.00" fill="#ff4411">q6</text>
</g>
<!-- 12&#45;&gt;13 -->
<g id="edge29" class="edge">
<title>12&#45;&gt;13</title>
<path fill="none" stroke="black" d="M1146.74,-436.92C1158.57,-427.38 1173.85,-415.05 1186.97,-404.46"/>
<polygon fill="black" stroke="black" points="1189.23,-407.13 1194.82,-398.13 1184.84,-401.68 1189.23,-407.13"/>
</g>
<!-- 11&#45;&gt;13 -->
<g id="edge28" class="edge">
<title>11&#45;&gt;13</title>
<path fill="none" stroke="black" d="M1261.75,-435.85C1254.27,-427.13 1244.98,-416.32 1236.67,-406.65"/>
<polygon fill="black" stroke="black" points="1239.16,-404.18 1229.99,-398.87 1233.85,-408.74 1239.16,-404.18"/>
</g>
<!-- 14 -->
<g id="node32" class="node">
<title>14</title>
<ellipse fill="none" stroke="black" cx="1666.21" cy="-453.67" rx="62.11" ry="18"/>
<text text-anchor="start" x="1626" y="-453.21" font-family="Monaco" font-size="11.00">a[zero]=@k</text>
<text text-anchor="start" x="1692.01" y="-453.21" font-family="Monaco" baseline-shift="super" font-size="8.00" fill="#ff4411">q14</text>
</g>
<!-- 15 -->
<g id="node36" class="node">
<title>15</title>
<ellipse fill="none" stroke="black" cx="1609.21" cy="-380.67" rx="77.51" ry="18"/>
<text text-anchor="start" x="1557" y="-380.21" font-family="Monaco" font-size="11.00">@l</text>
<text text-anchor="start" x="1570.2" y="-380.21" font-family="Monaco" baseline-shift="super" font-size="8.00" fill="#00aa11">S64</text>
<text text-anchor="start" x="1584.61" y="-380.21" font-family="Monaco" baseline-shift="super" font-size="8.00" fill="#3311ff">r0</text>
<text text-anchor="start" x="1594.21" y="-380.21" font-family="Monaco" font-size="11.00">:a[zero]</text>
<text text-anchor="start" x="1647.02" y="-380.21" font-family="Monaco" baseline-shift="super" font-size="8.00" fill="#ff4411">q15</text>
</g>
<!-- 14&#45;&gt;15 -->
<g id="edge37" class="edge">
<title>14&#45;&gt;15</title>
<path fill="none" stroke="black" stroke-dasharray="1,5" d="M1652.7,-435.85C1645.78,-427.22 1637.2,-416.54 1629.5,-406.94"/>
<polygon fill="black" stroke="black" points="1632.01,-404.48 1623.02,-398.87 1626.55,-408.86 1632.01,-404.48"/>
</g>
<!-- 17 -->
<g id="node33" class="node">
<title>17</title>
<ellipse fill="#ffeeff" stroke="black" cx="1746.21" cy="-526.67" rx="68.74" ry="18"/>
<text text-anchor="start" x="1700.9" y="-526.21" font-family="Monaco" font-size="11.00">@k</text>
<text text-anchor="start" x="1714.11" y="-526.21" font-family="Monaco" baseline-shift="super" font-size="8.00" fill="#00aa11">S64</text>
<text text-anchor="start" x="1728.51" y="-526.21" font-family="Monaco" baseline-shift="super" font-size="8.00" fill="#3311ff">r0</text>
<text text-anchor="start" x="1738.11" y="-526.21" font-family="Monaco" font-size="11.00">:in</text>
<text text-anchor="start" x="1757.91" y="-526.21" font-family="Monaco" baseline-shift="super" font-size="8.00" fill="#ff4411">q13|q10</text>
</g>
<!-- 17&#45;&gt;14 -->
<g id="edge36" class="edge">
<title>17&#45;&gt;14</title>
<path fill="none" stroke="black" d="M1727.66,-509.21C1717.16,-499.89 1703.85,-488.08 1692.32,-477.84"/>
<polygon fill="black" stroke="black" points="1694.47,-475.07 1684.66,-471.05 1689.82,-480.31 1694.47,-475.07"/>
</g>
<!-- 18 -->
<g id="node34" class="node">
<title>18</title>
<ellipse fill="#ffffee" stroke="black" cx="1609.21" cy="-294.01" rx="49.12" ry="18"/>
<text text-anchor="start" x="1578.91" y="-293.54" font-family="Monaco" font-size="11.00">out(@l)</text>
<text text-anchor="start" x="1625.11" y="-293.54" font-family="Monaco" baseline-shift="super" font-size="8.00" fill="#ff4411">q16</text>
</g>
<!-- 16 -->
<g id="node35" class="node">
<title>16</title>
<ellipse fill="#ffeeff" stroke="black" cx="1585.21" cy="-526.67" rx="74.05" ry="18"/>
<text text-anchor="start" x="1535.7" y="-526.21" font-family="Monaco" font-size="11.00">zero</text>
<text text-anchor="start" x="1562.11" y="-526.21" font-family="Monaco" baseline-shift="super" font-size="8.00" fill="#00aa11">U1</text>
<text text-anchor="start" x="1571.71" y="-526.21" font-family="Monaco" baseline-shift="super" font-size="8.00" fill="#3311ff">r1</text>
<text text-anchor="start" x="1581.31" y="-526.21" font-family="Monaco" font-size="11.00">:in</text>
<text text-anchor="start" x="1601.11" y="-526.21" font-family="Monaco" baseline-shift="super" font-size="8.00" fill="#ff4411">q13|q10</text>
</g>
<!-- 16&#45;&gt;14 -->
<g id="edge34" class="edge">
<title>16&#45;&gt;14</title>
<path fill="none" stroke="black" d="M1604,-509.21C1614.63,-499.89 1628.1,-488.08 1639.78,-477.84"/>
<polygon fill="black" stroke="black" points="1642.31,-480.28 1647.53,-471.05 1637.7,-475.01 1642.31,-480.28"/>
</g>
<!-- 16&#45;&gt;15 -->
<g id="edge35" class="edge">
<title>16&#45;&gt;15</title>
<path fill="none" stroke="black" d="M1586.37,-508.65C1587.78,-490.47 1590.57,-460.88 1595.21,-435.67 1596.83,-426.87 1599.11,-417.39 1601.35,-408.86"/>
<polygon fill="black" stroke="black" points="1604.78,-409.61 1604.03,-399.04 1598.02,-407.77 1604.78,-409.61"/>
</g>
<!-- 15&#45;&gt;18 -->
<g id="edge33" class="edge">
<title>15&#45;&gt;18</title>
<path fill="none" stroke="black" d="M1609.21,-362.54C1609.21,-350.95 1609.21,-335.4 1609.21,-322.14"/>
<polygon fill="black" stroke="black" points="1612.71,-322.11 1609.21,-312.11 1605.71,-322.11 1612.71,-322.11"/>
</g>
</g>
</svg>
