<?xml version="1.0" encoding="UTF-8" standalone="no"?>
<!DOCTYPE svg PUBLIC "-//W3C//DTD SVG 1.1//EN"
 "http://www.w3.org/Graphics/SVG/1.1/DTD/svg11.dtd">
<!-- Generated by graphviz version 2.43.0 (0)
 -->
<!-- Title: Program_ Pages: 1 -->
<svg width="1420pt" height="577pt"
 viewBox="0.00 0.00 1420.47 576.68" xmlns="http://www.w3.org/2000/svg" xmlns:xlink="http://www.w3.org/1999/xlink">
<g id="graph0" class="graph" transform="scale(1 1) rotate(0) translate(4 572.68)">
<title>Program_</title>
<polygon fill="white" stroke="transparent" points="-4,4 -4,-572.68 1416.47,-572.68 1416.47,4 -4,4"/>
<g id="clust1" class="cluster">
<title>cluster_dfg_Block0</title>
<polygon fill="none" stroke="black" points="170.47,-78.67 170.47,-560.68 588.47,-560.68 588.47,-78.67 170.47,-78.67"/>
<text text-anchor="middle" x="379.47" y="-547.08" font-family="Monaco" font-size="12.00">Block0</text>
</g>
<g id="clust2" class="cluster">
<title>cluster_dfg_Block1</title>
<polygon fill="none" stroke="black" points="596.47,-411.67 596.47,-560.68 845.47,-560.68 845.47,-411.67 596.47,-411.67"/>
<text text-anchor="middle" x="720.97" y="-547.08" font-family="Monaco" font-size="12.00">Block1</text>
</g>
<g id="clust3" class="cluster">
<title>cluster_dfg_Block2</title>
<polygon fill="none" stroke="black" points="853.47,-411.67 853.47,-560.68 1102.47,-560.68 1102.47,-411.67 853.47,-411.67"/>
<text text-anchor="middle" x="977.97" y="-547.08" font-family="Monaco" font-size="12.00">Block2</text>
</g>
<g id="clust4" class="cluster">
<title>cluster_dfg_Block3</title>
<polygon fill="none" stroke="black" points="1110.47,-252.01 1110.47,-560.68 1404.47,-560.68 1404.47,-252.01 1110.47,-252.01"/>
<text text-anchor="middle" x="1257.47" y="-547.08" font-family="Monaco" font-size="12.00">Block3</text>
</g>
<!-- Jump0 -->
<g id="node1" class="node">
<title>Jump0</title>
<polygon fill="none" stroke="black" points="129.08,-528.67 37.86,-528.67 37.86,-524.67 33.86,-524.67 33.86,-520.67 37.86,-520.67 37.86,-500.67 33.86,-500.67 33.86,-496.67 37.86,-496.67 37.86,-492.67 129.08,-492.67 129.08,-528.67"/>
<polyline fill="none" stroke="black" points="37.86,-524.67 41.86,-524.67 41.86,-520.67 37.86,-520.67 "/>
<polyline fill="none" stroke="black" points="37.86,-500.67 41.86,-500.67 41.86,-496.67 37.86,-496.67 "/>
<text text-anchor="start" x="45.66" y="-513.87" font-family="Monaco" font-size="11.00">StartFun.0</text>
<text text-anchor="start" x="111.68" y="-513.87" font-family="Monaco" baseline-shift="super" font-size="8.00" fill="#ff4411">q0</text>
<text text-anchor="start" x="80.17" y="-502.87" font-family="Monaco" font-size="11.00">i</text>
</g>
<!-- Block0 -->
<g id="node2" class="node">
<title>Block0</title>
<polygon fill="none" stroke="black" points="111.08,-455.67 55.86,-455.67 55.86,-419.67 111.08,-419.67 111.08,-455.67"/>
<text text-anchor="middle" x="83.47" y="-436.21" font-family="Monaco" font-size="11.00">Block0</text>
</g>
<!-- Jump0&#45;&gt;Block0 -->
<g id="edge1" class="edge">
<title>Jump0&#45;&gt;Block0</title>
<path fill="none" stroke="black" d="M83.47,-492.49C83.47,-484.46 83.47,-474.72 83.47,-465.74"/>
<polygon fill="black" stroke="black" points="86.97,-465.7 83.47,-455.7 79.97,-465.7 86.97,-465.7"/>
</g>
<!-- Jump1 -->
<g id="node3" class="node">
<title>Jump1</title>
<path fill="none" stroke="black" d="M113.08,-382.67C113.08,-382.67 53.87,-382.67 53.87,-382.67 47.87,-382.67 38.05,-378.04 34.24,-373.41 34.24,-373.41 19.86,-355.94 19.86,-355.94 16.04,-351.31 18.23,-346.67 24.23,-346.67 24.23,-346.67 142.71,-346.67 142.71,-346.67 148.71,-346.67 150.9,-351.31 147.09,-355.94 147.09,-355.94 132.7,-373.41 132.7,-373.41 128.89,-378.04 119.08,-382.67 113.08,-382.67"/>
<text text-anchor="start" x="52.27" y="-364.21" font-family="Monaco" font-size="11.00">Branch.1</text>
<text text-anchor="start" x="105.07" y="-364.21" font-family="Monaco" baseline-shift="super" font-size="8.00" fill="#ff4411">q5</text>
</g>
<!-- Block0&#45;&gt;Jump1 -->
<g id="edge2" class="edge">
<title>Block0&#45;&gt;Jump1</title>
<path fill="none" stroke="black" d="M83.47,-419.49C83.47,-411.46 83.47,-401.72 83.47,-392.74"/>
<polygon fill="black" stroke="black" points="86.97,-392.7 83.47,-382.7 79.97,-392.7 86.97,-392.7"/>
</g>
<!-- Block1 -->
<g id="node4" class="node">
<title>Block1</title>
<polygon fill="none" stroke="black" points="88.08,-296.01 32.86,-296.01 32.86,-260.01 88.08,-260.01 88.08,-296.01"/>
<text text-anchor="middle" x="60.47" y="-276.54" font-family="Monaco" font-size="11.00">Block1</text>
</g>
<!-- Jump1&#45;&gt;Block1 -->
<g id="edge3" class="edge">
<title>Jump1&#45;&gt;Block1</title>
<path fill="none" stroke="black" d="M78.82,-346.54C75.67,-334.95 71.44,-319.4 67.84,-306.14"/>
<polygon fill="black" stroke="black" points="71.12,-304.85 65.12,-296.11 64.36,-306.68 71.12,-304.85"/>
<text text-anchor="middle" x="80.07" y="-319.87" font-family="Monaco" font-size="11.00">@d</text>
</g>
<!-- Block2 -->
<g id="node5" class="node">
<title>Block2</title>
<polygon fill="none" stroke="black" points="162.08,-296.01 106.86,-296.01 106.86,-260.01 162.08,-260.01 162.08,-296.01"/>
<text text-anchor="middle" x="134.47" y="-276.54" font-family="Monaco" font-size="11.00">Block2</text>
</g>
<!-- Jump1&#45;&gt;Block2 -->
<g id="edge4" class="edge">
<title>Jump1&#45;&gt;Block2</title>
<path fill="none" stroke="black" d="M93.79,-346.54C100.98,-334.6 110.7,-318.47 118.84,-304.96"/>
<polygon fill="black" stroke="black" points="122,-306.49 124.17,-296.11 116.01,-302.87 122,-306.49"/>
<text text-anchor="middle" x="122.37" y="-319.87" font-family="Monaco" font-size="11.00">!@d</text>
</g>
<!-- Jump2 -->
<g id="node6" class="node">
<title>Jump2</title>
<path fill="none" stroke="black" d="M44.66,-173.34C44.66,-173.34 112.28,-173.34 112.28,-173.34 118.28,-173.34 128.31,-177.78 132.34,-182.23 132.34,-182.23 148.85,-200.45 148.85,-200.45 152.88,-204.89 150.91,-209.34 144.91,-209.34 144.91,-209.34 12.03,-209.34 12.03,-209.34 6.03,-209.34 4.06,-204.89 8.09,-200.45 8.09,-200.45 24.6,-182.23 24.6,-182.23 28.63,-177.78 38.66,-173.34 44.66,-173.34"/>
<text text-anchor="start" x="43.37" y="-190.87" font-family="Monaco" font-size="11.00">Merge.2</text>
<text text-anchor="start" x="89.57" y="-190.87" font-family="Monaco" baseline-shift="super" font-size="8.00" fill="#ff4411">q8|q7</text>
</g>
<!-- Block1&#45;&gt;Jump2 -->
<g id="edge5" class="edge">
<title>Block1&#45;&gt;Jump2</title>
<path fill="none" stroke="black" d="M64.11,-259.87C66.58,-248.28 69.88,-232.73 72.7,-219.47"/>
<polygon fill="black" stroke="black" points="76.18,-219.95 74.83,-209.45 69.33,-218.5 76.18,-219.95"/>
<text text-anchor="middle" x="78.07" y="-233.21" font-family="Monaco" font-size="11.00">@e</text>
</g>
<!-- Block2&#45;&gt;Jump2 -->
<g id="edge6" class="edge">
<title>Block2&#45;&gt;Jump2</title>
<path fill="none" stroke="black" d="M123.14,-259.87C115.17,-247.82 104.37,-231.49 95.38,-217.9"/>
<polygon fill="black" stroke="black" points="98.22,-215.86 89.79,-209.45 92.38,-219.72 98.22,-215.86"/>
<text text-anchor="middle" x="117.07" y="-233.21" font-family="Monaco" font-size="11.00">@f</text>
</g>
<!-- Block3 -->
<g id="node7" class="node">
<title>Block3</title>
<polygon fill="none" stroke="black" points="106.08,-122.67 50.86,-122.67 50.86,-86.67 106.08,-86.67 106.08,-122.67"/>
<text text-anchor="middle" x="78.47" y="-103.2" font-family="Monaco" font-size="11.00">Block3</text>
</g>
<!-- Jump2&#45;&gt;Block3 -->
<g id="edge7" class="edge">
<title>Jump2&#45;&gt;Block3</title>
<path fill="none" stroke="black" d="M78.47,-173.2C78.47,-161.61 78.47,-146.06 78.47,-132.8"/>
<polygon fill="black" stroke="black" points="81.97,-132.78 78.47,-122.78 74.97,-132.78 81.97,-132.78"/>
<text text-anchor="middle" x="85.07" y="-146.54" font-family="Monaco" font-size="11.00">@g</text>
</g>
<!-- Jump3 -->
<g id="node8" class="node">
<title>Jump3</title>
<polygon fill="none" stroke="black" points="120.18,-30 54.76,-30 54.76,-36 36.76,-18 54.76,0 54.76,-6 102.18,-6 102.18,0 120.18,0 120.18,-30"/>
<text text-anchor="start" x="44.87" y="-17.53" font-family="Monaco" font-size="11.00">Return.3</text>
<text text-anchor="start" x="97.67" y="-17.53" font-family="Monaco" baseline-shift="super" font-size="8.00" fill="#ff4411">q11</text>
</g>
<!-- Block3&#45;&gt;Jump3 -->
<g id="edge8" class="edge">
<title>Block3&#45;&gt;Jump3</title>
<path fill="none" stroke="black" d="M78.47,-86.53C78.47,-74.94 78.47,-59.39 78.47,-46.13"/>
<polygon fill="black" stroke="black" points="81.97,-46.11 78.47,-36.11 74.97,-46.11 81.97,-46.11"/>
<text text-anchor="middle" x="85.07" y="-59.87" font-family="Monaco" font-size="11.00">@h</text>
</g>
<!-- ndBlock0_0 -->
<g id="node9" class="node">
<title>ndBlock0_0</title>
<ellipse fill="none" stroke="black" cx="505.47" cy="-437.67" rx="54.93" ry="18"/>
<text text-anchor="start" x="470.97" y="-437.21" font-family="Monaco" font-size="11.00">out(zero)</text>
<text text-anchor="start" x="530.38" y="-437.21" font-family="Monaco" baseline-shift="super" font-size="8.00" fill="#ff4411">q5</text>
</g>
<!-- ndBlock0_1 -->
<g id="node10" class="node">
<title>ndBlock0_1</title>
<ellipse fill="none" stroke="black" cx="353.47" cy="-510.67" rx="48.84" ry="18"/>
<text text-anchor="start" x="323.47" y="-510.21" font-family="Monaco" font-size="11.00">@a</text>
<text text-anchor="start" x="336.67" y="-510.21" font-family="Monaco" baseline-shift="super" font-size="8.00" fill="#00dd33">S64</text>
<text text-anchor="start" x="351.07" y="-510.21" font-family="Monaco" baseline-shift="super" font-size="8.00" fill="#3311ff">r1</text>
<text text-anchor="start" x="360.67" y="-510.21" font-family="Monaco" font-size="11.00">:1</text>
<text text-anchor="start" x="373.87" y="-510.21" font-family="Monaco" baseline-shift="super" font-size="8.00" fill="#ff4411">q0</text>
</g>
<!-- ndBlock0_7 -->
<g id="node16" class="node">
<title>ndBlock0_7</title>
<ellipse fill="none" stroke="black" cx="353.47" cy="-437.67" rx="58.93" ry="18"/>
<text text-anchor="start" x="315.66" y="-437.21" font-family="Monaco" font-size="11.00">a[zero]=@a</text>
<text text-anchor="start" x="381.68" y="-437.21" font-family="Monaco" baseline-shift="super" font-size="8.00" fill="#ff4411">q1</text>
</g>
<!-- ndBlock0_1&#45;&gt;ndBlock0_7 -->
<g id="edge16" class="edge">
<title>ndBlock0_1&#45;&gt;ndBlock0_7</title>
<path fill="none" stroke="black" d="M353.47,-492.49C353.47,-484.46 353.47,-474.72 353.47,-465.74"/>
<polygon fill="black" stroke="black" points="356.97,-465.7 353.47,-455.7 349.97,-465.7 356.97,-465.7"/>
</g>
<!-- ndBlock0_2 -->
<g id="node11" class="node">
<title>ndBlock0_2</title>
<ellipse fill="none" stroke="black" cx="531.47" cy="-278.01" rx="45.66" ry="18"/>
<text text-anchor="start" x="503.87" y="-277.54" font-family="Monaco" font-size="11.00">@c</text>
<text text-anchor="start" x="517.07" y="-277.54" font-family="Monaco" baseline-shift="super" font-size="8.00" fill="#00dd33">S1</text>
<text text-anchor="start" x="526.67" y="-277.54" font-family="Monaco" baseline-shift="super" font-size="8.00" fill="#3311ff">r2</text>
<text text-anchor="start" x="536.27" y="-277.54" font-family="Monaco" font-size="11.00">:0</text>
<text text-anchor="start" x="549.47" y="-277.54" font-family="Monaco" baseline-shift="super" font-size="8.00" fill="#ff4411">q0</text>
</g>
<!-- ndBlock0_3 -->
<g id="node12" class="node">
<title>ndBlock0_3</title>
<ellipse fill="none" stroke="black" cx="462.47" cy="-191.34" rx="79.37" ry="18"/>
<text text-anchor="start" x="408.76" y="-190.87" font-family="Monaco" font-size="11.00">@d</text>
<text text-anchor="start" x="421.96" y="-190.87" font-family="Monaco" baseline-shift="super" font-size="8.00" fill="#00dd33">U1</text>
<text text-anchor="start" x="431.57" y="-190.87" font-family="Monaco" baseline-shift="super" font-size="8.00" fill="#3311ff">r0</text>
<text text-anchor="start" x="441.17" y="-190.87" font-family="Monaco" font-size="11.00">:@b&gt;=</text>
<text text-anchor="start" x="474.17" y="-190.87" font-family="Monaco" baseline-shift="super" font-size="8.00" fill="#3311ff">Bin0</text>
<text text-anchor="start" x="493.38" y="-190.87" font-family="Monaco" font-size="11.00">@c</text>
<text text-anchor="start" x="506.58" y="-190.87" font-family="Monaco" baseline-shift="super" font-size="8.00" fill="#ff4411">q4</text>
</g>
<!-- ndBlock0_2&#45;&gt;ndBlock0_3 -->
<g id="edge14" class="edge">
<title>ndBlock0_2&#45;&gt;ndBlock0_3</title>
<path fill="none" stroke="black" d="M518.17,-260.68C508.08,-248.31 494.06,-231.1 482.6,-217.04"/>
<polygon fill="black" stroke="black" points="485.24,-214.73 476.21,-209.19 479.81,-219.15 485.24,-214.73"/>
</g>
<!-- ndBlock0_9 -->
<g id="node18" class="node">
<title>ndBlock0_9</title>
<ellipse fill="none" stroke="black" cx="462.47" cy="-104.67" rx="46.44" ry="18"/>
<text text-anchor="start" x="434.57" y="-104.2" font-family="Monaco" font-size="11.00">out(@d)</text>
<text text-anchor="start" x="480.77" y="-104.2" font-family="Monaco" baseline-shift="super" font-size="8.00" fill="#ff4411">q5</text>
</g>
<!-- ndBlock0_3&#45;&gt;ndBlock0_9 -->
<g id="edge11" class="edge">
<title>ndBlock0_3&#45;&gt;ndBlock0_9</title>
<path fill="none" stroke="black" d="M462.47,-173.2C462.47,-161.61 462.47,-146.06 462.47,-132.8"/>
<polygon fill="black" stroke="black" points="465.97,-132.78 462.47,-122.78 458.97,-132.78 465.97,-132.78"/>
</g>
<!-- ndBlock0_4 -->
<g id="node13" class="node">
<title>ndBlock0_4</title>
<ellipse fill="none" stroke="black" cx="377.47" cy="-364.67" rx="54.93" ry="18"/>
<text text-anchor="start" x="342.97" y="-364.21" font-family="Monaco" font-size="11.00">a[zero]=i</text>
<text text-anchor="start" x="402.38" y="-364.21" font-family="Monaco" baseline-shift="super" font-size="8.00" fill="#ff4411">q2</text>
</g>
<!-- ndBlock0_5 -->
<g id="node14" class="node">
<title>ndBlock0_5</title>
<ellipse fill="none" stroke="black" cx="393.47" cy="-278.01" rx="74.33" ry="18"/>
<text text-anchor="start" x="343.66" y="-277.54" font-family="Monaco" font-size="11.00">@b</text>
<text text-anchor="start" x="356.87" y="-277.54" font-family="Monaco" baseline-shift="super" font-size="8.00" fill="#00dd33">S64</text>
<text text-anchor="start" x="371.27" y="-277.54" font-family="Monaco" baseline-shift="super" font-size="8.00" fill="#3311ff">r0</text>
<text text-anchor="start" x="380.87" y="-277.54" font-family="Monaco" font-size="11.00">:a[zero]</text>
<text text-anchor="start" x="433.68" y="-277.54" font-family="Monaco" baseline-shift="super" font-size="8.00" fill="#ff4411">q3</text>
</g>
<!-- ndBlock0_4&#45;&gt;ndBlock0_5 -->
<g id="edge18" class="edge">
<title>ndBlock0_4&#45;&gt;ndBlock0_5</title>
<path fill="none" stroke="black" stroke-dasharray="1,5" d="M380.71,-346.54C382.9,-334.95 385.84,-319.4 388.34,-306.14"/>
<polygon fill="black" stroke="black" points="391.82,-306.59 390.24,-296.11 384.94,-305.29 391.82,-306.59"/>
</g>
<!-- ndBlock0_5&#45;&gt;ndBlock0_3 -->
<g id="edge15" class="edge">
<title>ndBlock0_5&#45;&gt;ndBlock0_3</title>
<path fill="none" stroke="black" d="M407.1,-260.28C417.15,-247.95 430.98,-230.98 442.3,-217.09"/>
<polygon fill="black" stroke="black" points="445.03,-219.28 448.63,-209.32 439.6,-214.86 445.03,-219.28"/>
</g>
<!-- ndBlock0_6 -->
<g id="node15" class="node">
<title>ndBlock0_6</title>
<ellipse fill="none" stroke="black" cx="482.47" cy="-510.67" rx="54.16" ry="18"/>
<text text-anchor="start" x="448.27" y="-510.21" font-family="Monaco" font-size="11.00">zero</text>
<text text-anchor="start" x="474.67" y="-510.21" font-family="Monaco" baseline-shift="super" font-size="8.00" fill="#00dd33">U1</text>
<text text-anchor="start" x="484.27" y="-510.21" font-family="Monaco" baseline-shift="super" font-size="8.00" fill="#3311ff">r3</text>
<text text-anchor="start" x="493.87" y="-510.21" font-family="Monaco" font-size="11.00">:0</text>
<text text-anchor="start" x="507.08" y="-510.21" font-family="Monaco" baseline-shift="super" font-size="8.00" fill="#ff4411">q0</text>
</g>
<!-- ndBlock0_6&#45;&gt;ndBlock0_0 -->
<g id="edge12" class="edge">
<title>ndBlock0_6&#45;&gt;ndBlock0_0</title>
<path fill="none" stroke="black" d="M488.04,-492.49C490.67,-484.38 493.86,-474.51 496.8,-465.45"/>
<polygon fill="black" stroke="black" points="500.2,-466.29 499.95,-455.7 493.54,-464.14 500.2,-466.29"/>
</g>
<!-- ndBlock0_6&#45;&gt;ndBlock0_4 -->
<g id="edge9" class="edge">
<title>ndBlock0_6&#45;&gt;ndBlock0_4</title>
<path fill="none" stroke="black" d="M468.15,-492.86C459.76,-482.53 449.31,-468.81 441.47,-455.67 430.46,-437.23 433.51,-429.46 421.47,-411.67 416.22,-403.91 409.62,-396.24 403.14,-389.46"/>
<polygon fill="black" stroke="black" points="405.2,-386.57 395.67,-381.95 400.24,-391.51 405.2,-386.57"/>
</g>
<!-- ndBlock0_6&#45;&gt;ndBlock0_5 -->
<g id="edge13" class="edge">
<title>ndBlock0_6&#45;&gt;ndBlock0_5</title>
<path fill="none" stroke="black" d="M518.57,-497.18C537.34,-488.64 558.58,-475.25 569.47,-455.67 578.98,-438.58 578.2,-429.18 569.47,-411.67 542.28,-357.12 480.77,-319.08 438.19,-298.14"/>
<polygon fill="black" stroke="black" points="439.67,-294.97 429.14,-293.8 436.65,-301.28 439.67,-294.97"/>
</g>
<!-- ndBlock0_6&#45;&gt;ndBlock0_7 -->
<g id="edge17" class="edge">
<title>ndBlock0_6&#45;&gt;ndBlock0_7</title>
<path fill="none" stroke="black" d="M455.74,-494.96C436.71,-484.49 410.91,-470.29 389.99,-458.77"/>
<polygon fill="black" stroke="black" points="391.5,-455.61 381.06,-453.86 388.13,-461.74 391.5,-455.61"/>
</g>
<!-- ndBlock0_7&#45;&gt;ndBlock0_4 -->
<g id="edge19" class="edge">
<title>ndBlock0_7&#45;&gt;ndBlock0_4</title>
<path fill="none" stroke="black" stroke-dasharray="1,5" d="M359.28,-419.49C362.02,-411.38 365.36,-401.51 368.42,-392.45"/>
<polygon fill="black" stroke="black" points="371.83,-393.3 371.71,-382.7 365.2,-391.06 371.83,-393.3"/>
</g>
<!-- ndBlock0_8 -->
<g id="node17" class="node">
<title>ndBlock0_8</title>
<ellipse fill="none" stroke="black" cx="227.47" cy="-437.67" rx="48.84" ry="18"/>
<text text-anchor="start" x="197.47" y="-437.21" font-family="Monaco" font-size="11.00">i</text>
<text text-anchor="start" x="204.07" y="-437.21" font-family="Monaco" baseline-shift="super" font-size="8.00" fill="#00dd33">S64</text>
<text text-anchor="start" x="218.47" y="-437.21" font-family="Monaco" baseline-shift="super" font-size="8.00" fill="#3311ff">r0</text>
<text text-anchor="start" x="228.07" y="-437.21" font-family="Monaco" font-size="11.00">:in</text>
<text text-anchor="start" x="247.87" y="-437.21" font-family="Monaco" baseline-shift="super" font-size="8.00" fill="#ff4411">q0</text>
</g>
<!-- ndBlock0_8&#45;&gt;ndBlock0_4 -->
<g id="edge10" class="edge">
<title>ndBlock0_8&#45;&gt;ndBlock0_4</title>
<path fill="none" stroke="black" d="M256.39,-422.98C279.75,-411.93 312.83,-396.27 338.52,-384.11"/>
<polygon fill="black" stroke="black" points="340.07,-387.25 347.61,-379.81 337.08,-380.92 340.07,-387.25"/>
</g>
<!-- ndBlock1_0 -->
<g id="node19" class="node">
<title>ndBlock1_0</title>
<ellipse fill="none" stroke="black" cx="788.47" cy="-510.67" rx="48.84" ry="18"/>
<text text-anchor="start" x="758.47" y="-510.21" font-family="Monaco" font-size="11.00">@e</text>
<text text-anchor="start" x="771.67" y="-510.21" font-family="Monaco" baseline-shift="super" font-size="8.00" fill="#00dd33">S64</text>
<text text-anchor="start" x="786.07" y="-510.21" font-family="Monaco" baseline-shift="super" font-size="8.00" fill="#3311ff">r0</text>
<text text-anchor="start" x="795.67" y="-510.21" font-family="Monaco" font-size="11.00">:1</text>
<text text-anchor="start" x="808.87" y="-510.21" font-family="Monaco" baseline-shift="super" font-size="8.00" fill="#ff4411">q5</text>
</g>
<!-- ndBlock1_3 -->
<g id="node22" class="node">
<title>ndBlock1_3</title>
<ellipse fill="none" stroke="black" cx="788.47" cy="-437.67" rx="46.44" ry="18"/>
<text text-anchor="start" x="760.57" y="-437.21" font-family="Monaco" font-size="11.00">out(@e)</text>
<text text-anchor="start" x="806.77" y="-437.21" font-family="Monaco" baseline-shift="super" font-size="8.00" fill="#ff4411">q7</text>
</g>
<!-- ndBlock1_0&#45;&gt;ndBlock1_3 -->
<g id="edge21" class="edge">
<title>ndBlock1_0&#45;&gt;ndBlock1_3</title>
<path fill="none" stroke="black" d="M788.47,-492.49C788.47,-484.46 788.47,-474.72 788.47,-465.74"/>
<polygon fill="black" stroke="black" points="791.97,-465.7 788.47,-455.7 784.97,-465.7 791.97,-465.7"/>
</g>
<!-- ndBlock1_1 -->
<g id="node20" class="node">
<title>ndBlock1_1</title>
<ellipse fill="none" stroke="black" cx="663.47" cy="-510.67" rx="58.65" ry="18"/>
<text text-anchor="start" x="625.97" y="-510.21" font-family="Monaco" font-size="11.00">zero</text>
<text text-anchor="start" x="652.37" y="-510.21" font-family="Monaco" baseline-shift="super" font-size="8.00" fill="#00dd33">U1</text>
<text text-anchor="start" x="661.97" y="-510.21" font-family="Monaco" baseline-shift="super" font-size="8.00" fill="#3311ff">r3</text>
<text text-anchor="start" x="671.57" y="-510.21" font-family="Monaco" font-size="11.00">:in</text>
<text text-anchor="start" x="691.38" y="-510.21" font-family="Monaco" baseline-shift="super" font-size="8.00" fill="#ff4411">q5</text>
</g>
<!-- ndBlock1_2 -->
<g id="node21" class="node">
<title>ndBlock1_2</title>
<ellipse fill="none" stroke="black" cx="663.47" cy="-437.67" rx="54.93" ry="18"/>
<text text-anchor="start" x="628.97" y="-437.21" font-family="Monaco" font-size="11.00">out(zero)</text>
<text text-anchor="start" x="688.38" y="-437.21" font-family="Monaco" baseline-shift="super" font-size="8.00" fill="#ff4411">q7</text>
</g>
<!-- ndBlock1_1&#45;&gt;ndBlock1_2 -->
<g id="edge20" class="edge">
<title>ndBlock1_1&#45;&gt;ndBlock1_2</title>
<path fill="none" stroke="black" d="M663.47,-492.49C663.47,-484.46 663.47,-474.72 663.47,-465.74"/>
<polygon fill="black" stroke="black" points="666.97,-465.7 663.47,-455.7 659.97,-465.7 666.97,-465.7"/>
</g>
<!-- ndBlock2_0 -->
<g id="node23" class="node">
<title>ndBlock2_0</title>
<ellipse fill="none" stroke="black" cx="1045.47" cy="-510.67" rx="48.84" ry="18"/>
<text text-anchor="start" x="1015.47" y="-510.21" font-family="Monaco" font-size="11.00">@f</text>
<text text-anchor="start" x="1028.67" y="-510.21" font-family="Monaco" baseline-shift="super" font-size="8.00" fill="#00dd33">S64</text>
<text text-anchor="start" x="1043.07" y="-510.21" font-family="Monaco" baseline-shift="super" font-size="8.00" fill="#3311ff">r0</text>
<text text-anchor="start" x="1052.67" y="-510.21" font-family="Monaco" font-size="11.00">:2</text>
<text text-anchor="start" x="1065.87" y="-510.21" font-family="Monaco" baseline-shift="super" font-size="8.00" fill="#ff4411">q5</text>
</g>
<!-- ndBlock2_3 -->
<g id="node26" class="node">
<title>ndBlock2_3</title>
<ellipse fill="none" stroke="black" cx="1045.47" cy="-437.67" rx="46.44" ry="18"/>
<text text-anchor="start" x="1017.57" y="-437.21" font-family="Monaco" font-size="11.00">out(@f)</text>
<text text-anchor="start" x="1063.77" y="-437.21" font-family="Monaco" baseline-shift="super" font-size="8.00" fill="#ff4411">q8</text>
</g>
<!-- ndBlock2_0&#45;&gt;ndBlock2_3 -->
<g id="edge23" class="edge">
<title>ndBlock2_0&#45;&gt;ndBlock2_3</title>
<path fill="none" stroke="black" d="M1045.47,-492.49C1045.47,-484.46 1045.47,-474.72 1045.47,-465.74"/>
<polygon fill="black" stroke="black" points="1048.97,-465.7 1045.47,-455.7 1041.97,-465.7 1048.97,-465.7"/>
</g>
<!-- ndBlock2_1 -->
<g id="node24" class="node">
<title>ndBlock2_1</title>
<ellipse fill="none" stroke="black" cx="920.47" cy="-510.67" rx="58.65" ry="18"/>
<text text-anchor="start" x="882.97" y="-510.21" font-family="Monaco" font-size="11.00">zero</text>
<text text-anchor="start" x="909.37" y="-510.21" font-family="Monaco" baseline-shift="super" font-size="8.00" fill="#00dd33">U1</text>
<text text-anchor="start" x="918.97" y="-510.21" font-family="Monaco" baseline-shift="super" font-size="8.00" fill="#3311ff">r3</text>
<text text-anchor="start" x="928.57" y="-510.21" font-family="Monaco" font-size="11.00">:in</text>
<text text-anchor="start" x="948.38" y="-510.21" font-family="Monaco" baseline-shift="super" font-size="8.00" fill="#ff4411">q5</text>
</g>
<!-- ndBlock2_2 -->
<g id="node25" class="node">
<title>ndBlock2_2</title>
<ellipse fill="none" stroke="black" cx="920.47" cy="-437.67" rx="54.93" ry="18"/>
<text text-anchor="start" x="885.97" y="-437.21" font-family="Monaco" font-size="11.00">out(zero)</text>
<text text-anchor="start" x="945.38" y="-437.21" font-family="Monaco" baseline-shift="super" font-size="8.00" fill="#ff4411">q8</text>
</g>
<!-- ndBlock2_1&#45;&gt;ndBlock2_2 -->
<g id="edge22" class="edge">
<title>ndBlock2_1&#45;&gt;ndBlock2_2</title>
<path fill="none" stroke="black" d="M920.47,-492.49C920.47,-484.46 920.47,-474.72 920.47,-465.74"/>
<polygon fill="black" stroke="black" points="923.97,-465.7 920.47,-455.7 916.97,-465.7 923.97,-465.7"/>
</g>
<!-- ndBlock3_0 -->
<g id="node27" class="node">
<title>ndBlock3_0</title>
<ellipse fill="none" stroke="black" cx="1301.47" cy="-364.67" rx="77.51" ry="18"/>
<text text-anchor="start" x="1249.26" y="-364.21" font-family="Monaco" font-size="11.00">@h</text>
<text text-anchor="start" x="1262.46" y="-364.21" font-family="Monaco" baseline-shift="super" font-size="8.00" fill="#00dd33">S64</text>
<text text-anchor="start" x="1276.87" y="-364.21" font-family="Monaco" baseline-shift="super" font-size="8.00" fill="#3311ff">r0</text>
<text text-anchor="start" x="1286.47" y="-364.21" font-family="Monaco" font-size="11.00">:a[zero]</text>
<text text-anchor="start" x="1339.28" y="-364.21" font-family="Monaco" baseline-shift="super" font-size="8.00" fill="#ff4411">q10</text>
</g>
<!-- ndBlock3_1 -->
<g id="node28" class="node">
<title>ndBlock3_1</title>
<ellipse fill="none" stroke="black" cx="1301.47" cy="-278.01" rx="49.12" ry="18"/>
<text text-anchor="start" x="1271.17" y="-277.54" font-family="Monaco" font-size="11.00">out(@h)</text>
<text text-anchor="start" x="1317.37" y="-277.54" font-family="Monaco" baseline-shift="super" font-size="8.00" fill="#ff4411">q11</text>
</g>
<!-- ndBlock3_0&#45;&gt;ndBlock3_1 -->
<g id="edge27" class="edge">
<title>ndBlock3_0&#45;&gt;ndBlock3_1</title>
<path fill="none" stroke="black" d="M1301.47,-346.54C1301.47,-334.95 1301.47,-319.4 1301.47,-306.14"/>
<polygon fill="black" stroke="black" points="1304.97,-306.11 1301.47,-296.11 1297.97,-306.11 1304.97,-306.11"/>
</g>
<!-- ndBlock3_2 -->
<g id="node29" class="node">
<title>ndBlock3_2</title>
<ellipse fill="none" stroke="black" cx="1328.47" cy="-510.67" rx="67.69" ry="18"/>
<text text-anchor="start" x="1283.76" y="-510.21" font-family="Monaco" font-size="11.00">zero</text>
<text text-anchor="start" x="1310.17" y="-510.21" font-family="Monaco" baseline-shift="super" font-size="8.00" fill="#00dd33">U1</text>
<text text-anchor="start" x="1319.77" y="-510.21" font-family="Monaco" baseline-shift="super" font-size="8.00" fill="#3311ff">r3</text>
<text text-anchor="start" x="1329.37" y="-510.21" font-family="Monaco" font-size="11.00">:in</text>
<text text-anchor="start" x="1349.17" y="-510.21" font-family="Monaco" baseline-shift="super" font-size="8.00" fill="#ff4411">q8|q7</text>
</g>
<!-- ndBlock3_2&#45;&gt;ndBlock3_0 -->
<g id="edge26" class="edge">
<title>ndBlock3_2&#45;&gt;ndBlock3_0</title>
<path fill="none" stroke="black" d="M1328.02,-492.46C1327.21,-472.72 1324.92,-439.5 1318.47,-411.67 1316.98,-405.25 1314.84,-398.51 1312.57,-392.22"/>
<polygon fill="black" stroke="black" points="1315.82,-390.92 1308.99,-382.83 1309.29,-393.42 1315.82,-390.92"/>
</g>
<!-- ndBlock3_4 -->
<g id="node31" class="node">
<title>ndBlock3_4</title>
<ellipse fill="none" stroke="black" cx="1250.47" cy="-437.67" rx="58.93" ry="18"/>
<text text-anchor="start" x="1212.66" y="-437.21" font-family="Monaco" font-size="11.00">a[zero]=@g</text>
<text text-anchor="start" x="1278.68" y="-437.21" font-family="Monaco" baseline-shift="super" font-size="8.00" fill="#ff4411">q9</text>
</g>
<!-- ndBlock3_2&#45;&gt;ndBlock3_4 -->
<g id="edge24" class="edge">
<title>ndBlock3_2&#45;&gt;ndBlock3_4</title>
<path fill="none" stroke="black" d="M1310.38,-493.21C1300.14,-483.89 1287.17,-472.08 1275.92,-461.84"/>
<polygon fill="black" stroke="black" points="1278.21,-459.19 1268.46,-455.05 1273.5,-464.37 1278.21,-459.19"/>
</g>
<!-- ndBlock3_3 -->
<g id="node30" class="node">
<title>ndBlock3_3</title>
<ellipse fill="none" stroke="black" cx="1180.47" cy="-510.67" rx="62.38" ry="18"/>
<text text-anchor="start" x="1139.96" y="-510.21" font-family="Monaco" font-size="11.00">@g</text>
<text text-anchor="start" x="1153.17" y="-510.21" font-family="Monaco" baseline-shift="super" font-size="8.00" fill="#00dd33">S64</text>
<text text-anchor="start" x="1167.57" y="-510.21" font-family="Monaco" baseline-shift="super" font-size="8.00" fill="#3311ff">r0</text>
<text text-anchor="start" x="1177.17" y="-510.21" font-family="Monaco" font-size="11.00">:in</text>
<text text-anchor="start" x="1196.97" y="-510.21" font-family="Monaco" baseline-shift="super" font-size="8.00" fill="#ff4411">q8|q7</text>
</g>
<!-- ndBlock3_3&#45;&gt;ndBlock3_4 -->
<g id="edge25" class="edge">
<title>ndBlock3_3&#45;&gt;ndBlock3_4</title>
<path fill="none" stroke="black" d="M1196.71,-493.21C1205.72,-484.07 1217.09,-472.54 1227.05,-462.43"/>
<polygon fill="black" stroke="black" points="1229.8,-464.63 1234.32,-455.05 1224.81,-459.72 1229.8,-464.63"/>
</g>
<!-- ndBlock3_4&#45;&gt;ndBlock3_0 -->
<g id="edge28" class="edge">
<title>ndBlock3_4&#45;&gt;ndBlock3_0</title>
<path fill="none" stroke="black" stroke-dasharray="1,5" d="M1262.56,-419.85C1268.69,-411.31 1276.27,-400.75 1283.11,-391.23"/>
<polygon fill="black" stroke="black" points="1286.13,-393.04 1289.12,-382.87 1280.44,-388.95 1286.13,-393.04"/>
</g>
</g>
</svg>
