<?xml version="1.0" encoding="UTF-8" standalone="no"?>
<!DOCTYPE svg PUBLIC "-//W3C//DTD SVG 1.1//EN"
 "http://www.w3.org/Graphics/SVG/1.1/DTD/svg11.dtd">
<!-- Generated by graphviz version 2.43.0 (0)
 -->
<!-- Title: Program_ Pages: 1 -->
<svg width="1888pt" height="585pt"
 viewBox="0.00 0.00 1888.21 584.67" xmlns="http://www.w3.org/2000/svg" xmlns:xlink="http://www.w3.org/1999/xlink">
<g id="graph0" class="graph" transform="scale(1 1) rotate(0) translate(4 580.67)">
<title>Program_</title>
<polygon fill="white" stroke="transparent" points="-4,4 -4,-580.67 1884.21,-580.67 1884.21,4 -4,4"/>
<g id="clust1" class="cluster">
<title>cluster_dfg_Block0</title>
<polygon fill="none" stroke="black" points="141.21,-411.67 141.21,-568.67 855.21,-568.67 855.21,-411.67 141.21,-411.67"/>
<text text-anchor="start" x="476.61" y="-556.07" font-family="Monaco" font-size="12.00">Block0</text>
<text text-anchor="start" x="423.8" y="-544.07" font-family="Monaco" font-size="12.00">(i</text>
<text text-anchor="start" x="438.2" y="-544.07" font-family="Monaco" baseline-shift="super" font-size="8.00" fill="#00aa11">S64</text>
<text text-anchor="start" x="452.6" y="-544.07" font-family="Monaco" baseline-shift="super" font-size="8.00" fill="#3311ff">r0</text>
<text text-anchor="start" x="462.2" y="-544.07" font-family="Monaco" font-size="12.00">=&gt;zero</text>
<text text-anchor="start" x="505.41" y="-544.07" font-family="Monaco" baseline-shift="super" font-size="8.00" fill="#00aa11">U1</text>
<text text-anchor="start" x="515.01" y="-544.07" font-family="Monaco" baseline-shift="super" font-size="8.00" fill="#3311ff">r2</text>
<text text-anchor="start" x="524.61" y="-544.07" font-family="Monaco" font-size="12.00">,@d</text>
<text text-anchor="start" x="546.22" y="-544.07" font-family="Monaco" baseline-shift="super" font-size="8.00" fill="#00aa11">U1</text>
<text text-anchor="start" x="555.82" y="-544.07" font-family="Monaco" baseline-shift="super" font-size="8.00" fill="#3311ff">r0</text>
<text text-anchor="start" x="565.42" y="-544.07" font-family="Monaco" font-size="12.00">)</text>
</g>
<g id="clust2" class="cluster">
<title>cluster_dfg_Block1</title>
<polygon fill="none" stroke="black" points="863.21,-411.67 863.21,-568.67 1138.21,-568.67 1138.21,-411.67 863.21,-411.67"/>
<text text-anchor="start" x="979.11" y="-556.07" font-family="Monaco" font-size="12.00">Block1</text>
<text text-anchor="start" x="915.5" y="-544.07" font-family="Monaco" font-size="12.00">(zero</text>
<text text-anchor="start" x="951.5" y="-544.07" font-family="Monaco" baseline-shift="super" font-size="8.00" fill="#00aa11">U1</text>
<text text-anchor="start" x="961.1" y="-544.07" font-family="Monaco" baseline-shift="super" font-size="8.00" fill="#3311ff">r2</text>
<text text-anchor="start" x="970.71" y="-544.07" font-family="Monaco" font-size="12.00">=&gt;zero</text>
<text text-anchor="start" x="1013.91" y="-544.07" font-family="Monaco" baseline-shift="super" font-size="8.00" fill="#00aa11">U1</text>
<text text-anchor="start" x="1023.51" y="-544.07" font-family="Monaco" baseline-shift="super" font-size="8.00" fill="#3311ff">r2</text>
<text text-anchor="start" x="1033.12" y="-544.07" font-family="Monaco" font-size="12.00">,@g</text>
<text text-anchor="start" x="1054.72" y="-544.07" font-family="Monaco" baseline-shift="super" font-size="8.00" fill="#00aa11">S64</text>
<text text-anchor="start" x="1069.12" y="-544.07" font-family="Monaco" baseline-shift="super" font-size="8.00" fill="#3311ff">r0</text>
<text text-anchor="start" x="1078.72" y="-544.07" font-family="Monaco" font-size="12.00">)</text>
</g>
<g id="clust3" class="cluster">
<title>cluster_dfg_Block2</title>
<polygon fill="none" stroke="black" points="1146.21,-411.67 1146.21,-568.67 1434.21,-568.67 1434.21,-411.67 1146.21,-411.67"/>
<text text-anchor="start" x="1268.61" y="-556.07" font-family="Monaco" font-size="12.00">Block2</text>
<text text-anchor="start" x="1205" y="-544.07" font-family="Monaco" font-size="12.00">(zero</text>
<text text-anchor="start" x="1241" y="-544.07" font-family="Monaco" baseline-shift="super" font-size="8.00" fill="#00aa11">U1</text>
<text text-anchor="start" x="1250.6" y="-544.07" font-family="Monaco" baseline-shift="super" font-size="8.00" fill="#3311ff">r2</text>
<text text-anchor="start" x="1260.21" y="-544.07" font-family="Monaco" font-size="12.00">=&gt;zero</text>
<text text-anchor="start" x="1303.41" y="-544.07" font-family="Monaco" baseline-shift="super" font-size="8.00" fill="#00aa11">U1</text>
<text text-anchor="start" x="1313.01" y="-544.07" font-family="Monaco" baseline-shift="super" font-size="8.00" fill="#3311ff">r2</text>
<text text-anchor="start" x="1322.62" y="-544.07" font-family="Monaco" font-size="12.00">,@j</text>
<text text-anchor="start" x="1344.22" y="-544.07" font-family="Monaco" baseline-shift="super" font-size="8.00" fill="#00aa11">S64</text>
<text text-anchor="start" x="1358.62" y="-544.07" font-family="Monaco" baseline-shift="super" font-size="8.00" fill="#3311ff">r0</text>
<text text-anchor="start" x="1368.22" y="-544.07" font-family="Monaco" font-size="12.00">)</text>
</g>
<g id="clust4" class="cluster">
<title>cluster_dfg_Block3</title>
<polygon fill="none" stroke="black" points="1442.21,-484.67 1442.21,-568.67 1872.21,-568.67 1872.21,-484.67 1442.21,-484.67"/>
<text text-anchor="start" x="1635.61" y="-556.07" font-family="Monaco" font-size="12.00">Block3</text>
<text text-anchor="start" x="1576.8" y="-544.07" font-family="Monaco" font-size="12.00">(zero</text>
<text text-anchor="start" x="1612.8" y="-544.07" font-family="Monaco" baseline-shift="super" font-size="8.00" fill="#00aa11">U1</text>
<text text-anchor="start" x="1622.4" y="-544.07" font-family="Monaco" baseline-shift="super" font-size="8.00" fill="#3311ff">r2</text>
<text text-anchor="start" x="1632.01" y="-544.07" font-family="Monaco" font-size="12.00">,@k</text>
<text text-anchor="start" x="1653.61" y="-544.07" font-family="Monaco" baseline-shift="super" font-size="8.00" fill="#00aa11">S64</text>
<text text-anchor="start" x="1668.01" y="-544.07" font-family="Monaco" baseline-shift="super" font-size="8.00" fill="#3311ff">r0</text>
<text text-anchor="start" x="1677.61" y="-544.07" font-family="Monaco" font-size="12.00">=&gt;@l</text>
<text text-anchor="start" x="1706.42" y="-544.07" font-family="Monaco" baseline-shift="super" font-size="8.00" fill="#00aa11">S64</text>
<text text-anchor="start" x="1720.82" y="-544.07" font-family="Monaco" baseline-shift="super" font-size="8.00" fill="#3311ff">r0</text>
<text text-anchor="start" x="1730.42" y="-544.07" font-family="Monaco" font-size="12.00">)</text>
</g>
<!-- Jump0 -->
<g id="node1" class="node">
<title>Jump0</title>
<polygon fill="none" stroke="black" points="132.82,-528.67 41.6,-528.67 41.6,-524.67 37.6,-524.67 37.6,-520.67 41.6,-520.67 41.6,-500.67 37.6,-500.67 37.6,-496.67 41.6,-496.67 41.6,-492.67 132.82,-492.67 132.82,-528.67"/>
<polyline fill="none" stroke="black" points="41.6,-524.67 45.6,-524.67 45.6,-520.67 41.6,-520.67 "/>
<polyline fill="none" stroke="black" points="41.6,-500.67 45.6,-500.67 45.6,-496.67 41.6,-496.67 "/>
<text text-anchor="start" x="49.4" y="-513.87" font-family="Monaco" baseline-shift="super" font-size="8.00" fill="#ff4411">q0</text>
<text text-anchor="start" x="59.01" y="-513.87" font-family="Monaco" font-size="11.00">StartFun.0</text>
<text text-anchor="start" x="71.91" y="-502.87" font-family="Monaco" font-size="11.00">i</text>
<text text-anchor="start" x="78.51" y="-502.87" font-family="Monaco" baseline-shift="super" font-size="8.00" fill="#00aa11">S64</text>
<text text-anchor="start" x="92.91" y="-502.87" font-family="Monaco" baseline-shift="super" font-size="8.00" fill="#3311ff">r0</text>
</g>
<!-- Block0 -->
<g id="node2" class="node">
<title>Block0</title>
<polygon fill="none" stroke="black" points="114.82,-455.67 59.6,-455.67 59.6,-419.67 114.82,-419.67 114.82,-455.67"/>
<text text-anchor="middle" x="87.21" y="-436.21" font-family="Monaco" font-size="11.00">Block0</text>
</g>
<!-- Jump0&#45;&gt;Block0 -->
<g id="edge1" class="edge">
<title>Jump0&#45;&gt;Block0</title>
<path fill="none" stroke="black" d="M87.21,-492.49C87.21,-484.46 87.21,-474.72 87.21,-465.74"/>
<polygon fill="black" stroke="black" points="90.71,-465.7 87.21,-455.7 83.71,-465.7 90.71,-465.7"/>
</g>
<!-- Jump1 -->
<g id="node3" class="node">
<title>Jump1</title>
<path fill="none" stroke="black" d="M116.82,-382.67C116.82,-382.67 57.6,-382.67 57.6,-382.67 51.6,-382.67 41.79,-378.04 37.98,-373.41 37.98,-373.41 23.6,-355.94 23.6,-355.94 19.78,-351.31 21.97,-346.67 27.97,-346.67 27.97,-346.67 146.45,-346.67 146.45,-346.67 152.45,-346.67 154.64,-351.31 150.82,-355.94 150.82,-355.94 136.44,-373.41 136.44,-373.41 132.63,-378.04 122.82,-382.67 116.82,-382.67"/>
<text text-anchor="start" x="56.01" y="-364.21" font-family="Monaco" baseline-shift="super" font-size="8.00" fill="#ff4411">q7</text>
<text text-anchor="start" x="65.61" y="-364.21" font-family="Monaco" font-size="11.00">Branch.1</text>
</g>
<!-- Block0&#45;&gt;Jump1 -->
<g id="edge2" class="edge">
<title>Block0&#45;&gt;Jump1</title>
<path fill="none" stroke="black" d="M87.21,-419.49C87.21,-411.46 87.21,-401.72 87.21,-392.74"/>
<polygon fill="black" stroke="black" points="90.71,-392.7 87.21,-382.7 83.71,-392.7 90.71,-392.7"/>
</g>
<!-- Block1 -->
<g id="node4" class="node">
<title>Block1</title>
<polygon fill="none" stroke="black" points="77.82,-296.01 22.6,-296.01 22.6,-260.01 77.82,-260.01 77.82,-296.01"/>
<text text-anchor="middle" x="50.21" y="-276.54" font-family="Monaco" font-size="11.00">Block1</text>
</g>
<!-- Jump1&#45;&gt;Block1 -->
<g id="edge3" class="edge">
<title>Jump1&#45;&gt;Block1</title>
<path fill="none" stroke="black" d="M79.72,-346.54C74.56,-334.72 67.59,-318.78 61.72,-305.35"/>
<polygon fill="black" stroke="black" points="64.9,-303.88 57.69,-296.11 58.48,-306.68 64.9,-303.88"/>
<text text-anchor="start" x="71.21" y="-319.87" font-family="Monaco" font-size="11.00">@d</text>
</g>
<!-- Block2 -->
<g id="node5" class="node">
<title>Block2</title>
<polygon fill="none" stroke="black" points="151.82,-296.01 96.6,-296.01 96.6,-260.01 151.82,-260.01 151.82,-296.01"/>
<text text-anchor="middle" x="124.21" y="-276.54" font-family="Monaco" font-size="11.00">Block2</text>
</g>
<!-- Jump1&#45;&gt;Block2 -->
<g id="edge4" class="edge">
<title>Jump1&#45;&gt;Block2</title>
<path fill="none" stroke="black" d="M94.7,-346.54C99.86,-334.72 106.83,-318.78 112.7,-305.35"/>
<polygon fill="black" stroke="black" points="115.94,-306.68 116.73,-296.11 109.52,-303.88 115.94,-306.68"/>
<text text-anchor="start" x="108.21" y="-319.87" font-family="Monaco" font-size="11.00">!@d</text>
</g>
<!-- Jump2 -->
<g id="node6" class="node">
<title>Jump2</title>
<path fill="none" stroke="black" d="M48.15,-173.34C48.15,-173.34 126.27,-173.34 126.27,-173.34 132.27,-173.34 142.53,-177.56 146.79,-181.78 146.79,-181.78 166.1,-200.89 166.1,-200.89 170.37,-205.12 168.63,-209.34 162.63,-209.34 162.63,-209.34 11.79,-209.34 11.79,-209.34 5.79,-209.34 4.05,-205.12 8.32,-200.89 8.32,-200.89 27.63,-181.78 27.63,-181.78 31.89,-177.56 42.15,-173.34 48.15,-173.34"/>
<text text-anchor="start" x="47.3" y="-190.87" font-family="Monaco" baseline-shift="super" font-size="8.00" fill="#ff4411">q10|q13</text>
<text text-anchor="start" x="80.91" y="-190.87" font-family="Monaco" font-size="11.00">Merge.2</text>
</g>
<!-- Block1&#45;&gt;Jump2 -->
<g id="edge5" class="edge">
<title>Block1&#45;&gt;Jump2</title>
<path fill="none" stroke="black" d="M57.7,-259.87C62.86,-248.05 69.83,-232.11 75.7,-218.68"/>
<polygon fill="black" stroke="black" points="78.94,-220.01 79.73,-209.45 72.52,-217.21 78.94,-220.01"/>
<text text-anchor="start" x="71.21" y="-233.21" font-family="Monaco" font-size="11.00">@g</text>
</g>
<!-- Block2&#45;&gt;Jump2 -->
<g id="edge6" class="edge">
<title>Block2&#45;&gt;Jump2</title>
<path fill="none" stroke="black" d="M116.72,-259.87C111.56,-248.05 104.59,-232.11 98.72,-218.68"/>
<polygon fill="black" stroke="black" points="101.9,-217.21 94.69,-209.45 95.48,-220.01 101.9,-217.21"/>
<text text-anchor="start" x="108.21" y="-233.21" font-family="Monaco" font-size="11.00">@j</text>
</g>
<!-- Block3 -->
<g id="node7" class="node">
<title>Block3</title>
<polygon fill="none" stroke="black" points="114.82,-122.67 59.6,-122.67 59.6,-86.67 114.82,-86.67 114.82,-122.67"/>
<text text-anchor="middle" x="87.21" y="-103.2" font-family="Monaco" font-size="11.00">Block3</text>
</g>
<!-- Jump2&#45;&gt;Block3 -->
<g id="edge7" class="edge">
<title>Jump2&#45;&gt;Block3</title>
<path fill="none" stroke="black" d="M87.21,-173.2C87.21,-161.61 87.21,-146.06 87.21,-132.8"/>
<polygon fill="black" stroke="black" points="90.71,-132.78 87.21,-122.78 83.71,-132.78 90.71,-132.78"/>
<text text-anchor="start" x="87.21" y="-146.54" font-family="Monaco" font-size="11.00">@k</text>
</g>
<!-- Jump3 -->
<g id="node8" class="node">
<title>Jump3</title>
<polygon fill="none" stroke="black" points="128.92,-30 63.5,-30 63.5,-36 45.5,-18 63.5,0 63.5,-6 110.92,-6 110.92,0 128.92,0 128.92,-30"/>
<text text-anchor="start" x="53.61" y="-17.53" font-family="Monaco" baseline-shift="super" font-size="8.00" fill="#ff4411">q17</text>
<text text-anchor="start" x="68.01" y="-17.53" font-family="Monaco" font-size="11.00">Return.3</text>
</g>
<!-- Block3&#45;&gt;Jump3 -->
<g id="edge8" class="edge">
<title>Block3&#45;&gt;Jump3</title>
<path fill="none" stroke="black" d="M87.21,-86.53C87.21,-74.94 87.21,-59.39 87.21,-46.13"/>
<polygon fill="black" stroke="black" points="90.71,-46.11 87.21,-36.11 83.71,-46.11 90.71,-46.11"/>
<text text-anchor="start" x="87.21" y="-59.87" font-family="Monaco" font-size="11.00">@l</text>
</g>
<!-- 0 -->
<g id="node9" class="node">
<title>0</title>
<ellipse fill="none" stroke="black" cx="588.21" cy="-510.67" rx="54.16" ry="18"/>
<text text-anchor="start" x="554.01" y="-510.21" font-family="Monaco" baseline-shift="super" font-size="8.00" fill="#ff4411">q1</text>
<text text-anchor="start" x="563.61" y="-510.21" font-family="Monaco" font-size="11.00">zero</text>
<text text-anchor="start" x="590.01" y="-510.21" font-family="Monaco" baseline-shift="super" font-size="8.00" fill="#00aa11">U1</text>
<text text-anchor="start" x="599.61" y="-510.21" font-family="Monaco" baseline-shift="super" font-size="8.00" fill="#3311ff">r2</text>
<text text-anchor="start" x="609.21" y="-510.21" font-family="Monaco" font-size="11.00">:0</text>
</g>
<!-- 5 -->
<g id="node10" class="node">
<title>5</title>
<ellipse fill="none" stroke="black" cx="656.21" cy="-437.67" rx="63.43" ry="18"/>
<text text-anchor="start" x="615.1" y="-437.21" font-family="Monaco" baseline-shift="super" font-size="8.00" fill="#ff4411">q5</text>
<text text-anchor="start" x="624.71" y="-437.21" font-family="Monaco" font-size="11.00">req a[zero]</text>
</g>
<!-- 0&#45;&gt;5 -->
<g id="edge12" class="edge">
<title>0&#45;&gt;5</title>
<path fill="none" stroke="black" d="M603.98,-493.21C612.61,-484.2 623.46,-472.86 633.04,-462.87"/>
<polygon fill="black" stroke="black" points="635.66,-465.19 640.05,-455.54 630.61,-460.35 635.66,-465.19"/>
</g>
<!-- 1 -->
<g id="node11" class="node">
<title>1</title>
<ellipse fill="none" stroke="black" cx="792.21" cy="-437.67" rx="54.93" ry="18"/>
<text text-anchor="start" x="757.7" y="-437.21" font-family="Monaco" baseline-shift="super" font-size="8.00" fill="#ff4411">q2</text>
<text text-anchor="start" x="767.31" y="-437.21" font-family="Monaco" font-size="11.00">a[zero]=i</text>
</g>
<!-- 0&#45;&gt;1 -->
<g id="edge9" class="edge">
<title>0&#45;&gt;1</title>
<path fill="none" stroke="black" d="M624.21,-497.14C658.23,-485.3 709.42,-467.49 746.35,-454.64"/>
<polygon fill="black" stroke="black" points="747.59,-457.91 755.88,-451.32 745.29,-451.3 747.59,-457.91"/>
</g>
<!-- 3 -->
<g id="node14" class="node">
<title>3</title>
<ellipse fill="none" stroke="black" cx="388.21" cy="-437.67" rx="58.93" ry="18"/>
<text text-anchor="start" x="350.4" y="-437.21" font-family="Monaco" baseline-shift="super" font-size="8.00" fill="#ff4411">q3</text>
<text text-anchor="start" x="360.01" y="-437.21" font-family="Monaco" font-size="11.00">a[zero]=@a</text>
</g>
<!-- 0&#45;&gt;3 -->
<g id="edge10" class="edge">
<title>0&#45;&gt;3</title>
<path fill="none" stroke="black" d="M552.45,-496.98C519.69,-485.35 470.98,-468.06 435.1,-455.32"/>
<polygon fill="black" stroke="black" points="435.95,-451.91 425.35,-451.86 433.6,-458.5 435.95,-451.91"/>
</g>
<!-- 4 -->
<g id="node16" class="node">
<title>4</title>
<ellipse fill="none" stroke="black" cx="520.21" cy="-437.67" rx="54.93" ry="18"/>
<text text-anchor="start" x="485.7" y="-437.21" font-family="Monaco" baseline-shift="super" font-size="8.00" fill="#ff4411">q4</text>
<text text-anchor="start" x="495.31" y="-437.21" font-family="Monaco" font-size="11.00">a[zero]=i</text>
</g>
<!-- 0&#45;&gt;4 -->
<g id="edge11" class="edge">
<title>0&#45;&gt;4</title>
<path fill="none" stroke="black" d="M572.44,-493.21C563.69,-484.07 552.64,-472.54 542.97,-462.43"/>
<polygon fill="black" stroke="black" points="545.34,-459.85 535.9,-455.05 540.29,-464.69 545.34,-459.85"/>
</g>
<!-- 6 -->
<g id="node12" class="node">
<title>6</title>
<ellipse fill="none" stroke="black" cx="230.21" cy="-510.67" rx="57.34" ry="18"/>
<text text-anchor="start" x="193.6" y="-510.21" font-family="Monaco" baseline-shift="super" font-size="8.00" fill="#ff4411">q6</text>
<text text-anchor="start" x="203.21" y="-510.21" font-family="Monaco" font-size="11.00">@b</text>
<text text-anchor="start" x="216.41" y="-510.21" font-family="Monaco" baseline-shift="super" font-size="8.00" fill="#00aa11">S64</text>
<text text-anchor="start" x="230.81" y="-510.21" font-family="Monaco" baseline-shift="super" font-size="8.00" fill="#3311ff">r0</text>
<text text-anchor="start" x="240.41" y="-510.21" font-family="Monaco" font-size="11.00">:a[]</text>
</g>
<!-- 8 -->
<g id="node15" class="node">
<title>8</title>
<ellipse fill="none" stroke="black" cx="230.21" cy="-437.67" rx="81.23" ry="18"/>
<text text-anchor="start" x="175" y="-437.21" font-family="Monaco" baseline-shift="super" font-size="8.00" fill="#ff4411">q7</text>
<text text-anchor="start" x="184.6" y="-437.21" font-family="Monaco" font-size="11.00">@d</text>
<text text-anchor="start" x="197.81" y="-437.21" font-family="Monaco" baseline-shift="super" font-size="8.00" fill="#00aa11">U1</text>
<text text-anchor="start" x="207.41" y="-437.21" font-family="Monaco" baseline-shift="super" font-size="8.00" fill="#3311ff">r0</text>
<text text-anchor="start" x="217.01" y="-437.21" font-family="Monaco" font-size="11.00">:@b&gt;=</text>
<text text-anchor="start" x="250.01" y="-437.21" font-family="Monaco" baseline-shift="super" font-size="8.00" fill="#3311ff">Bin0</text>
<text text-anchor="start" x="269.22" y="-437.21" font-family="Monaco" font-size="11.00">0</text>
<text text-anchor="start" x="275.82" y="-437.21" font-family="Monaco" baseline-shift="super" font-size="8.00" fill="#00aa11">S1</text>
</g>
<!-- 6&#45;&gt;8 -->
<g id="edge14" class="edge">
<title>6&#45;&gt;8</title>
<path fill="none" stroke="black" d="M230.21,-492.49C230.21,-484.46 230.21,-474.72 230.21,-465.74"/>
<polygon fill="black" stroke="black" points="233.71,-465.7 230.21,-455.7 226.71,-465.7 233.71,-465.7"/>
</g>
<!-- 2 -->
<g id="node13" class="node">
<title>2</title>
<ellipse fill="none" stroke="black" cx="388.21" cy="-510.67" rx="48.84" ry="18"/>
<text text-anchor="start" x="358.21" y="-510.21" font-family="Monaco" baseline-shift="super" font-size="8.00" fill="#ff4411">q1</text>
<text text-anchor="start" x="367.81" y="-510.21" font-family="Monaco" font-size="11.00">@a</text>
<text text-anchor="start" x="381.01" y="-510.21" font-family="Monaco" baseline-shift="super" font-size="8.00" fill="#00aa11">S64</text>
<text text-anchor="start" x="395.41" y="-510.21" font-family="Monaco" baseline-shift="super" font-size="8.00" fill="#3311ff">r1</text>
<text text-anchor="start" x="405.01" y="-510.21" font-family="Monaco" font-size="11.00">:1</text>
</g>
<!-- 2&#45;&gt;3 -->
<g id="edge13" class="edge">
<title>2&#45;&gt;3</title>
<path fill="none" stroke="black" d="M388.21,-492.49C388.21,-484.46 388.21,-474.72 388.21,-465.74"/>
<polygon fill="black" stroke="black" points="391.71,-465.7 388.21,-455.7 384.71,-465.7 391.71,-465.7"/>
</g>
<!-- 10 -->
<g id="node17" class="node">
<title>10</title>
<ellipse fill="none" stroke="black" cx="1073.21" cy="-510.67" rx="57.34" ry="18"/>
<text text-anchor="start" x="1036.6" y="-510.21" font-family="Monaco" baseline-shift="super" font-size="8.00" fill="#ff4411">q9</text>
<text text-anchor="start" x="1046.21" y="-510.21" font-family="Monaco" font-size="11.00">@e</text>
<text text-anchor="start" x="1059.41" y="-510.21" font-family="Monaco" baseline-shift="super" font-size="8.00" fill="#00aa11">S64</text>
<text text-anchor="start" x="1073.81" y="-510.21" font-family="Monaco" baseline-shift="super" font-size="8.00" fill="#3311ff">r0</text>
<text text-anchor="start" x="1083.41" y="-510.21" font-family="Monaco" font-size="11.00">:a[]</text>
</g>
<!-- 12 -->
<g id="node19" class="node">
<title>12</title>
<ellipse fill="none" stroke="black" cx="1044.21" cy="-437.67" rx="86.27" ry="18"/>
<text text-anchor="start" x="985.1" y="-437.21" font-family="Monaco" baseline-shift="super" font-size="8.00" fill="#ff4411">q10</text>
<text text-anchor="start" x="999.5" y="-437.21" font-family="Monaco" font-size="11.00">@g</text>
<text text-anchor="start" x="1012.71" y="-437.21" font-family="Monaco" baseline-shift="super" font-size="8.00" fill="#00aa11">S64</text>
<text text-anchor="start" x="1027.11" y="-437.21" font-family="Monaco" baseline-shift="super" font-size="8.00" fill="#3311ff">r0</text>
<text text-anchor="start" x="1036.71" y="-437.21" font-family="Monaco" font-size="11.00">:@e*</text>
<text text-anchor="start" x="1063.11" y="-437.21" font-family="Monaco" baseline-shift="super" font-size="8.00" fill="#3311ff">Bin1</text>
<text text-anchor="start" x="1082.32" y="-437.21" font-family="Monaco" font-size="11.00">2</text>
<text text-anchor="start" x="1088.92" y="-437.21" font-family="Monaco" baseline-shift="super" font-size="8.00" fill="#00aa11">S64</text>
</g>
<!-- 10&#45;&gt;12 -->
<g id="edge15" class="edge">
<title>10&#45;&gt;12</title>
<path fill="none" stroke="black" d="M1066.19,-492.49C1062.84,-484.29 1058.76,-474.3 1055.03,-465.16"/>
<polygon fill="black" stroke="black" points="1058.19,-463.64 1051.17,-455.7 1051.71,-466.28 1058.19,-463.64"/>
</g>
<!-- 9 -->
<g id="node18" class="node">
<title>9</title>
<ellipse fill="none" stroke="black" cx="934.21" cy="-510.67" rx="63.43" ry="18"/>
<text text-anchor="start" x="893.1" y="-510.21" font-family="Monaco" baseline-shift="super" font-size="8.00" fill="#ff4411">q8</text>
<text text-anchor="start" x="902.71" y="-510.21" font-family="Monaco" font-size="11.00">req a[zero]</text>
</g>
<!-- 14 -->
<g id="node20" class="node">
<title>14</title>
<ellipse fill="none" stroke="black" cx="1365.21" cy="-510.67" rx="60.52" ry="18"/>
<text text-anchor="start" x="1326.2" y="-510.21" font-family="Monaco" baseline-shift="super" font-size="8.00" fill="#ff4411">q12</text>
<text text-anchor="start" x="1340.61" y="-510.21" font-family="Monaco" font-size="11.00">@h</text>
<text text-anchor="start" x="1353.81" y="-510.21" font-family="Monaco" baseline-shift="super" font-size="8.00" fill="#00aa11">S64</text>
<text text-anchor="start" x="1368.21" y="-510.21" font-family="Monaco" baseline-shift="super" font-size="8.00" fill="#3311ff">r0</text>
<text text-anchor="start" x="1377.81" y="-510.21" font-family="Monaco" font-size="11.00">:a[]</text>
</g>
<!-- 16 -->
<g id="node22" class="node">
<title>16</title>
<ellipse fill="none" stroke="black" cx="1335.21" cy="-437.67" rx="90.77" ry="18"/>
<text text-anchor="start" x="1272.8" y="-437.21" font-family="Monaco" baseline-shift="super" font-size="8.00" fill="#ff4411">q13</text>
<text text-anchor="start" x="1287.2" y="-437.21" font-family="Monaco" font-size="11.00">@j</text>
<text text-anchor="start" x="1300.4" y="-437.21" font-family="Monaco" baseline-shift="super" font-size="8.00" fill="#00aa11">S64</text>
<text text-anchor="start" x="1314.81" y="-437.21" font-family="Monaco" baseline-shift="super" font-size="8.00" fill="#3311ff">r0</text>
<text text-anchor="start" x="1324.41" y="-437.21" font-family="Monaco" font-size="11.00">:@h*</text>
<text text-anchor="start" x="1350.81" y="-437.21" font-family="Monaco" baseline-shift="super" font-size="8.00" fill="#3311ff">Bin1</text>
<text text-anchor="start" x="1370.02" y="-437.21" font-family="Monaco" font-size="11.00">&#45;3</text>
<text text-anchor="start" x="1383.22" y="-437.21" font-family="Monaco" baseline-shift="super" font-size="8.00" fill="#00aa11">S64</text>
</g>
<!-- 14&#45;&gt;16 -->
<g id="edge16" class="edge">
<title>14&#45;&gt;16</title>
<path fill="none" stroke="black" d="M1357.95,-492.49C1354.48,-484.29 1350.26,-474.3 1346.4,-465.16"/>
<polygon fill="black" stroke="black" points="1349.52,-463.55 1342.41,-455.7 1343.07,-466.28 1349.52,-463.55"/>
</g>
<!-- 13 -->
<g id="node21" class="node">
<title>13</title>
<ellipse fill="none" stroke="black" cx="1220.21" cy="-510.67" rx="66.1" ry="18"/>
<text text-anchor="start" x="1176.7" y="-510.21" font-family="Monaco" baseline-shift="super" font-size="8.00" fill="#ff4411">q11</text>
<text text-anchor="start" x="1191.11" y="-510.21" font-family="Monaco" font-size="11.00">req a[zero]</text>
</g>
<!-- 17 -->
<g id="node23" class="node">
<title>17</title>
<ellipse fill="none" stroke="black" cx="1802.21" cy="-510.67" rx="62.11" ry="18"/>
<text text-anchor="start" x="1762" y="-510.21" font-family="Monaco" baseline-shift="super" font-size="8.00" fill="#ff4411">q14</text>
<text text-anchor="start" x="1776.41" y="-510.21" font-family="Monaco" font-size="11.00">a[zero]=@k</text>
</g>
<!-- 19 -->
<g id="node24" class="node">
<title>19</title>
<ellipse fill="none" stroke="black" cx="1661.21" cy="-510.67" rx="60.52" ry="18"/>
<text text-anchor="start" x="1622.2" y="-510.21" font-family="Monaco" baseline-shift="super" font-size="8.00" fill="#ff4411">q16</text>
<text text-anchor="start" x="1636.61" y="-510.21" font-family="Monaco" font-size="11.00">@l</text>
<text text-anchor="start" x="1649.81" y="-510.21" font-family="Monaco" baseline-shift="super" font-size="8.00" fill="#00aa11">S64</text>
<text text-anchor="start" x="1664.21" y="-510.21" font-family="Monaco" baseline-shift="super" font-size="8.00" fill="#3311ff">r0</text>
<text text-anchor="start" x="1673.81" y="-510.21" font-family="Monaco" font-size="11.00">:a[]</text>
</g>
<!-- 18 -->
<g id="node25" class="node">
<title>18</title>
<ellipse fill="none" stroke="black" cx="1516.21" cy="-510.67" rx="66.1" ry="18"/>
<text text-anchor="start" x="1472.7" y="-510.21" font-family="Monaco" baseline-shift="super" font-size="8.00" fill="#ff4411">q15</text>
<text text-anchor="start" x="1487.11" y="-510.21" font-family="Monaco" font-size="11.00">req a[zero]</text>
</g>
</g>
</svg>
