<?xml version="1.0" encoding="UTF-8" standalone="no"?>
<!DOCTYPE svg PUBLIC "-//W3C//DTD SVG 1.1//EN"
 "http://www.w3.org/Graphics/SVG/1.1/DTD/svg11.dtd">
<!-- Generated by graphviz version 2.43.0 (0)
 -->
<!-- Title: Program_ Pages: 1 -->
<svg width="1219pt" height="601pt"
 viewBox="0.00 0.00 1219.21 600.67" xmlns="http://www.w3.org/2000/svg" xmlns:xlink="http://www.w3.org/1999/xlink">
<g id="graph0" class="graph" transform="scale(1 1) rotate(0) translate(4 596.67)">
<title>Program_</title>
<polygon fill="white" stroke="transparent" points="-4,4 -4,-596.67 1215.21,-596.67 1215.21,4 -4,4"/>
<g id="clust1" class="cluster">
<title>cluster_dfg_Block0</title>
<polygon fill="none" stroke="black" points="187.21,-8 187.21,-584.67 489.21,-584.67 489.21,-8 187.21,-8"/>
<text text-anchor="start" x="316.61" y="-572.07" font-family="Monaco" font-size="12.00">Block0</text>
<text text-anchor="start" x="263.8" y="-560.07" font-family="Monaco" font-size="12.00">(i</text>
<text text-anchor="start" x="278.2" y="-560.07" font-family="Monaco" baseline-shift="super" font-size="8.00" fill="#00aa11">S64</text>
<text text-anchor="start" x="292.6" y="-560.07" font-family="Monaco" baseline-shift="super" font-size="8.00" fill="#3311ff">r0</text>
<text text-anchor="start" x="302.2" y="-560.07" font-family="Monaco" font-size="12.00">=&gt;zero</text>
<text text-anchor="start" x="345.41" y="-560.07" font-family="Monaco" baseline-shift="super" font-size="8.00" fill="#00aa11">U1</text>
<text text-anchor="start" x="355.01" y="-560.07" font-family="Monaco" baseline-shift="super" font-size="8.00" fill="#3311ff">r3</text>
<text text-anchor="start" x="364.61" y="-560.07" font-family="Monaco" font-size="12.00">,@d</text>
<text text-anchor="start" x="386.22" y="-560.07" font-family="Monaco" baseline-shift="super" font-size="8.00" fill="#00aa11">U1</text>
<text text-anchor="start" x="395.82" y="-560.07" font-family="Monaco" baseline-shift="super" font-size="8.00" fill="#3311ff">r0</text>
<text text-anchor="start" x="405.42" y="-560.07" font-family="Monaco" font-size="12.00">)</text>
</g>
<g id="clust2" class="cluster">
<title>cluster_dfg_Block1</title>
<polygon fill="none" stroke="black" points="497.21,-354.67 497.21,-584.67 743.21,-584.67 743.21,-354.67 497.21,-354.67"/>
<text text-anchor="start" x="598.61" y="-572.07" font-family="Monaco" font-size="12.00">Block1</text>
<text text-anchor="start" x="535" y="-560.07" font-family="Monaco" font-size="12.00">(zero</text>
<text text-anchor="start" x="571" y="-560.07" font-family="Monaco" baseline-shift="super" font-size="8.00" fill="#00aa11">U1</text>
<text text-anchor="start" x="580.6" y="-560.07" font-family="Monaco" baseline-shift="super" font-size="8.00" fill="#3311ff">r3</text>
<text text-anchor="start" x="590.21" y="-560.07" font-family="Monaco" font-size="12.00">=&gt;zero</text>
<text text-anchor="start" x="633.41" y="-560.07" font-family="Monaco" baseline-shift="super" font-size="8.00" fill="#00aa11">U1</text>
<text text-anchor="start" x="643.01" y="-560.07" font-family="Monaco" baseline-shift="super" font-size="8.00" fill="#3311ff">r3</text>
<text text-anchor="start" x="652.62" y="-560.07" font-family="Monaco" font-size="12.00">,@g</text>
<text text-anchor="start" x="674.22" y="-560.07" font-family="Monaco" baseline-shift="super" font-size="8.00" fill="#00aa11">S64</text>
<text text-anchor="start" x="688.62" y="-560.07" font-family="Monaco" baseline-shift="super" font-size="8.00" fill="#3311ff">r0</text>
<text text-anchor="start" x="698.22" y="-560.07" font-family="Monaco" font-size="12.00">)</text>
</g>
<g id="clust3" class="cluster">
<title>cluster_dfg_Block2</title>
<polygon fill="none" stroke="black" points="751.21,-354.67 751.21,-584.67 1019.21,-584.67 1019.21,-354.67 751.21,-354.67"/>
<text text-anchor="start" x="863.61" y="-572.07" font-family="Monaco" font-size="12.00">Block2</text>
<text text-anchor="start" x="800" y="-560.07" font-family="Monaco" font-size="12.00">(zero</text>
<text text-anchor="start" x="836" y="-560.07" font-family="Monaco" baseline-shift="super" font-size="8.00" fill="#00aa11">U1</text>
<text text-anchor="start" x="845.6" y="-560.07" font-family="Monaco" baseline-shift="super" font-size="8.00" fill="#3311ff">r3</text>
<text text-anchor="start" x="855.21" y="-560.07" font-family="Monaco" font-size="12.00">=&gt;zero</text>
<text text-anchor="start" x="898.41" y="-560.07" font-family="Monaco" baseline-shift="super" font-size="8.00" fill="#00aa11">U1</text>
<text text-anchor="start" x="908.01" y="-560.07" font-family="Monaco" baseline-shift="super" font-size="8.00" fill="#3311ff">r3</text>
<text text-anchor="start" x="917.62" y="-560.07" font-family="Monaco" font-size="12.00">,@j</text>
<text text-anchor="start" x="939.22" y="-560.07" font-family="Monaco" baseline-shift="super" font-size="8.00" fill="#00aa11">S64</text>
<text text-anchor="start" x="953.62" y="-560.07" font-family="Monaco" baseline-shift="super" font-size="8.00" fill="#3311ff">r0</text>
<text text-anchor="start" x="963.22" y="-560.07" font-family="Monaco" font-size="12.00">)</text>
</g>
<g id="clust4" class="cluster">
<title>cluster_dfg_Block3</title>
<polygon fill="none" stroke="black" points="1027.21,-354.67 1027.21,-584.67 1203.21,-584.67 1203.21,-354.67 1027.21,-354.67"/>
<text text-anchor="start" x="1093.61" y="-572.07" font-family="Monaco" font-size="12.00">Block3</text>
<text text-anchor="start" x="1034.8" y="-560.07" font-family="Monaco" font-size="12.00">(zero</text>
<text text-anchor="start" x="1070.8" y="-560.07" font-family="Monaco" baseline-shift="super" font-size="8.00" fill="#00aa11">U1</text>
<text text-anchor="start" x="1080.4" y="-560.07" font-family="Monaco" baseline-shift="super" font-size="8.00" fill="#3311ff">r3</text>
<text text-anchor="start" x="1090.01" y="-560.07" font-family="Monaco" font-size="12.00">,@k</text>
<text text-anchor="start" x="1111.61" y="-560.07" font-family="Monaco" baseline-shift="super" font-size="8.00" fill="#00aa11">S64</text>
<text text-anchor="start" x="1126.01" y="-560.07" font-family="Monaco" baseline-shift="super" font-size="8.00" fill="#3311ff">r0</text>
<text text-anchor="start" x="1135.61" y="-560.07" font-family="Monaco" font-size="12.00">=&gt;@l</text>
<text text-anchor="start" x="1164.42" y="-560.07" font-family="Monaco" baseline-shift="super" font-size="8.00" fill="#00aa11">S64</text>
<text text-anchor="start" x="1178.82" y="-560.07" font-family="Monaco" baseline-shift="super" font-size="8.00" fill="#3311ff">r0</text>
<text text-anchor="start" x="1188.42" y="-560.07" font-family="Monaco" font-size="12.00">)</text>
</g>
<!-- Jump0 -->
<g id="node1" class="node">
<title>Jump0</title>
<polygon fill="none" stroke="black" points="143.82,-544.67 52.6,-544.67 52.6,-540.67 48.6,-540.67 48.6,-536.67 52.6,-536.67 52.6,-516.67 48.6,-516.67 48.6,-512.67 52.6,-512.67 52.6,-508.67 143.82,-508.67 143.82,-544.67"/>
<polyline fill="none" stroke="black" points="52.6,-540.67 56.6,-540.67 56.6,-536.67 52.6,-536.67 "/>
<polyline fill="none" stroke="black" points="52.6,-516.67 56.6,-516.67 56.6,-512.67 52.6,-512.67 "/>
<text text-anchor="start" x="60.4" y="-529.87" font-family="Monaco" font-size="11.00">StartFun.0</text>
<text text-anchor="start" x="126.42" y="-529.87" font-family="Monaco" baseline-shift="super" font-size="8.00" fill="#ff4411">q0</text>
<text text-anchor="start" x="82.91" y="-518.87" font-family="Monaco" font-size="11.00">i</text>
<text text-anchor="start" x="89.51" y="-518.87" font-family="Monaco" baseline-shift="super" font-size="8.00" fill="#00aa11">S64</text>
<text text-anchor="start" x="103.91" y="-518.87" font-family="Monaco" baseline-shift="super" font-size="8.00" fill="#3311ff">r0</text>
</g>
<!-- Block0 -->
<g id="node2" class="node">
<title>Block0</title>
<polygon fill="none" stroke="black" points="125.82,-471.67 70.6,-471.67 70.6,-435.67 125.82,-435.67 125.82,-471.67"/>
<text text-anchor="middle" x="98.21" y="-452.21" font-family="Monaco" font-size="11.00">Block0</text>
</g>
<!-- Jump0&#45;&gt;Block0 -->
<g id="edge1" class="edge">
<title>Jump0&#45;&gt;Block0</title>
<path fill="none" stroke="black" d="M98.21,-508.49C98.21,-500.46 98.21,-490.72 98.21,-481.74"/>
<polygon fill="black" stroke="black" points="101.71,-481.7 98.21,-471.7 94.71,-481.7 101.71,-481.7"/>
</g>
<!-- Jump1 -->
<g id="node3" class="node">
<title>Jump1</title>
<path fill="none" stroke="black" d="M127.82,-398.67C127.82,-398.67 68.6,-398.67 68.6,-398.67 62.6,-398.67 52.79,-394.04 48.98,-389.41 48.98,-389.41 34.6,-371.94 34.6,-371.94 30.78,-367.31 32.97,-362.67 38.97,-362.67 38.97,-362.67 157.45,-362.67 157.45,-362.67 163.45,-362.67 165.64,-367.31 161.82,-371.94 161.82,-371.94 147.44,-389.41 147.44,-389.41 143.63,-394.04 133.82,-398.67 127.82,-398.67"/>
<text text-anchor="start" x="67.01" y="-380.21" font-family="Monaco" font-size="11.00">Branch.1</text>
<text text-anchor="start" x="119.81" y="-380.21" font-family="Monaco" baseline-shift="super" font-size="8.00" fill="#ff4411">q7</text>
</g>
<!-- Block0&#45;&gt;Jump1 -->
<g id="edge2" class="edge">
<title>Block0&#45;&gt;Jump1</title>
<path fill="none" stroke="black" d="M98.21,-435.49C98.21,-427.46 98.21,-417.72 98.21,-408.74"/>
<polygon fill="black" stroke="black" points="101.71,-408.7 98.21,-398.7 94.71,-408.7 101.71,-408.7"/>
</g>
<!-- Block1 -->
<g id="node4" class="node">
<title>Block1</title>
<polygon fill="none" stroke="black" points="102.82,-312.01 47.6,-312.01 47.6,-276.01 102.82,-276.01 102.82,-312.01"/>
<text text-anchor="middle" x="75.21" y="-292.54" font-family="Monaco" font-size="11.00">Block1</text>
</g>
<!-- Jump1&#45;&gt;Block1 -->
<g id="edge3" class="edge">
<title>Jump1&#45;&gt;Block1</title>
<path fill="none" stroke="black" d="M93.56,-362.54C90.41,-350.95 86.18,-335.4 82.58,-322.14"/>
<polygon fill="black" stroke="black" points="85.86,-320.85 79.86,-312.11 79.1,-322.68 85.86,-320.85"/>
<text text-anchor="middle" x="94.81" y="-335.87" font-family="Monaco" font-size="11.00">@d</text>
</g>
<!-- Block2 -->
<g id="node5" class="node">
<title>Block2</title>
<polygon fill="none" stroke="black" points="176.82,-312.01 121.6,-312.01 121.6,-276.01 176.82,-276.01 176.82,-312.01"/>
<text text-anchor="middle" x="149.21" y="-292.54" font-family="Monaco" font-size="11.00">Block2</text>
</g>
<!-- Jump1&#45;&gt;Block2 -->
<g id="edge4" class="edge">
<title>Jump1&#45;&gt;Block2</title>
<path fill="none" stroke="black" d="M108.53,-362.54C115.72,-350.6 125.44,-334.47 133.58,-320.96"/>
<polygon fill="black" stroke="black" points="136.74,-322.49 138.91,-312.11 130.75,-318.87 136.74,-322.49"/>
<text text-anchor="middle" x="137.11" y="-335.87" font-family="Monaco" font-size="11.00">!@d</text>
</g>
<!-- Jump2 -->
<g id="node6" class="node">
<title>Jump2</title>
<path fill="none" stroke="black" d="M48.15,-189.34C48.15,-189.34 126.27,-189.34 126.27,-189.34 132.27,-189.34 142.53,-193.56 146.79,-197.78 146.79,-197.78 166.1,-216.89 166.1,-216.89 170.37,-221.12 168.63,-225.34 162.63,-225.34 162.63,-225.34 11.79,-225.34 11.79,-225.34 5.79,-225.34 4.05,-221.12 8.32,-216.89 8.32,-216.89 27.63,-197.78 27.63,-197.78 31.89,-193.56 42.15,-189.34 48.15,-189.34"/>
<text text-anchor="start" x="47.3" y="-206.87" font-family="Monaco" font-size="11.00">Merge.2</text>
<text text-anchor="start" x="93.51" y="-206.87" font-family="Monaco" baseline-shift="super" font-size="8.00" fill="#ff4411">q11|q15</text>
</g>
<!-- Block1&#45;&gt;Jump2 -->
<g id="edge5" class="edge">
<title>Block1&#45;&gt;Jump2</title>
<path fill="none" stroke="black" d="M77.64,-275.87C79.28,-264.28 81.49,-248.73 83.37,-235.47"/>
<polygon fill="black" stroke="black" points="86.85,-235.84 84.79,-225.45 79.92,-234.86 86.85,-235.84"/>
<text text-anchor="middle" x="88.81" y="-249.21" font-family="Monaco" font-size="11.00">@g</text>
</g>
<!-- Block2&#45;&gt;Jump2 -->
<g id="edge6" class="edge">
<title>Block2&#45;&gt;Jump2</title>
<path fill="none" stroke="black" d="M136.66,-275.87C127.76,-263.71 115.65,-247.18 105.65,-233.52"/>
<polygon fill="black" stroke="black" points="108.47,-231.45 99.74,-225.45 102.82,-235.58 108.47,-231.45"/>
<text text-anchor="middle" x="128.81" y="-249.21" font-family="Monaco" font-size="11.00">@j</text>
</g>
<!-- Block3 -->
<g id="node7" class="node">
<title>Block3</title>
<polygon fill="none" stroke="black" points="114.82,-138.67 59.6,-138.67 59.6,-102.67 114.82,-102.67 114.82,-138.67"/>
<text text-anchor="middle" x="87.21" y="-119.2" font-family="Monaco" font-size="11.00">Block3</text>
</g>
<!-- Jump2&#45;&gt;Block3 -->
<g id="edge7" class="edge">
<title>Jump2&#45;&gt;Block3</title>
<path fill="none" stroke="black" d="M87.21,-189.2C87.21,-177.61 87.21,-162.06 87.21,-148.8"/>
<polygon fill="black" stroke="black" points="90.71,-148.78 87.21,-138.78 83.71,-148.78 90.71,-148.78"/>
<text text-anchor="middle" x="93.81" y="-162.54" font-family="Monaco" font-size="11.00">@k</text>
</g>
<!-- Jump3 -->
<g id="node8" class="node">
<title>Jump3</title>
<polygon fill="none" stroke="black" points="128.92,-46 63.5,-46 63.5,-52 45.5,-34 63.5,-16 63.5,-22 110.92,-22 110.92,-16 128.92,-16 128.92,-46"/>
<text text-anchor="start" x="53.61" y="-33.53" font-family="Monaco" font-size="11.00">Return.3</text>
<text text-anchor="start" x="106.41" y="-33.53" font-family="Monaco" baseline-shift="super" font-size="8.00" fill="#ff4411">q19</text>
</g>
<!-- Block3&#45;&gt;Jump3 -->
<g id="edge8" class="edge">
<title>Block3&#45;&gt;Jump3</title>
<path fill="none" stroke="black" d="M87.21,-102.53C87.21,-90.94 87.21,-75.39 87.21,-62.13"/>
<polygon fill="black" stroke="black" points="90.71,-62.11 87.21,-52.11 83.71,-62.11 90.71,-62.11"/>
<text text-anchor="middle" x="93.81" y="-75.87" font-family="Monaco" font-size="11.00">@l</text>
</g>
<!-- 0 -->
<g id="node9" class="node">
<title>0</title>
<ellipse fill="none" stroke="black" cx="249.21" cy="-526.67" rx="54.16" ry="18"/>
<text text-anchor="start" x="215.01" y="-526.21" font-family="Monaco" font-size="11.00">zero</text>
<text text-anchor="start" x="241.41" y="-526.21" font-family="Monaco" baseline-shift="super" font-size="8.00" fill="#00aa11">U1</text>
<text text-anchor="start" x="251.01" y="-526.21" font-family="Monaco" baseline-shift="super" font-size="8.00" fill="#3311ff">r3</text>
<text text-anchor="start" x="260.61" y="-526.21" font-family="Monaco" font-size="11.00">:0</text>
<text text-anchor="start" x="273.81" y="-526.21" font-family="Monaco" baseline-shift="super" font-size="8.00" fill="#ff4411">q1</text>
</g>
<!-- 5 -->
<g id="node10" class="node">
<title>5</title>
<ellipse fill="none" stroke="black" cx="282.21" cy="-207.34" rx="63.43" ry="18"/>
<text text-anchor="start" x="241.1" y="-206.87" font-family="Monaco" font-size="11.00">req a[zero]</text>
<text text-anchor="start" x="313.72" y="-206.87" font-family="Monaco" baseline-shift="super" font-size="8.00" fill="#ff4411">q5</text>
</g>
<!-- 0&#45;&gt;5 -->
<g id="edge12" class="edge">
<title>0&#45;&gt;5</title>
<path fill="none" stroke="black" d="M228.26,-510.05C213.45,-497.07 196.21,-477.13 196.21,-454.67 196.21,-454.67 196.21,-454.67 196.21,-293.01 196.21,-264.89 219.84,-242.99 242.33,-228.51"/>
<polygon fill="black" stroke="black" points="244.44,-231.32 251.16,-223.14 240.8,-225.34 244.44,-231.32"/>
</g>
<!-- 1 -->
<g id="node11" class="node">
<title>1</title>
<ellipse fill="none" stroke="black" cx="426.21" cy="-453.67" rx="54.93" ry="18"/>
<text text-anchor="start" x="391.7" y="-453.21" font-family="Monaco" font-size="11.00">a[zero]=i</text>
<text text-anchor="start" x="451.11" y="-453.21" font-family="Monaco" baseline-shift="super" font-size="8.00" fill="#ff4411">q2</text>
</g>
<!-- 0&#45;&gt;1 -->
<g id="edge9" class="edge">
<title>0&#45;&gt;1</title>
<path fill="none" stroke="black" d="M282.5,-512.32C310.97,-500.9 352.12,-484.39 383.1,-471.97"/>
<polygon fill="black" stroke="black" points="384.79,-475.06 392.77,-468.09 382.18,-468.56 384.79,-475.06"/>
</g>
<!-- 3 -->
<g id="node15" class="node">
<title>3</title>
<ellipse fill="none" stroke="black" cx="299.21" cy="-380.67" rx="58.93" ry="18"/>
<text text-anchor="start" x="261.4" y="-380.21" font-family="Monaco" font-size="11.00">a[zero]=@a</text>
<text text-anchor="start" x="327.42" y="-380.21" font-family="Monaco" baseline-shift="super" font-size="8.00" fill="#ff4411">q3</text>
</g>
<!-- 0&#45;&gt;3 -->
<g id="edge10" class="edge">
<title>0&#45;&gt;3</title>
<path fill="none" stroke="black" d="M244.64,-508.69C240.52,-490.04 236.45,-459.55 246.21,-435.67 251.1,-423.7 260.07,-412.96 269.25,-404.26"/>
<polygon fill="black" stroke="black" points="271.77,-406.71 276.93,-397.45 267.13,-401.47 271.77,-406.71"/>
</g>
<!-- 4 -->
<g id="node17" class="node">
<title>4</title>
<ellipse fill="none" stroke="black" cx="282.21" cy="-294.01" rx="54.93" ry="18"/>
<text text-anchor="start" x="247.7" y="-293.54" font-family="Monaco" font-size="11.00">a[zero]=i</text>
<text text-anchor="start" x="307.11" y="-293.54" font-family="Monaco" baseline-shift="super" font-size="8.00" fill="#ff4411">q4</text>
</g>
<!-- 0&#45;&gt;4 -->
<g id="edge11" class="edge">
<title>0&#45;&gt;4</title>
<path fill="none" stroke="black" d="M242.5,-508.54C231.2,-477.02 211.47,-408.16 231.21,-354.67 236.25,-341.02 245.96,-328.38 255.56,-318.28"/>
<polygon fill="black" stroke="black" points="258.19,-320.6 262.81,-311.07 253.25,-315.64 258.19,-320.6"/>
</g>
<!-- 6 -->
<g id="node12" class="node">
<title>6</title>
<ellipse fill="none" stroke="black" cx="362.21" cy="-120.67" rx="57.34" ry="18"/>
<text text-anchor="start" x="325.6" y="-120.2" font-family="Monaco" font-size="11.00">@b</text>
<text text-anchor="start" x="338.81" y="-120.2" font-family="Monaco" baseline-shift="super" font-size="8.00" fill="#00aa11">S64</text>
<text text-anchor="start" x="353.21" y="-120.2" font-family="Monaco" baseline-shift="super" font-size="8.00" fill="#3311ff">r0</text>
<text text-anchor="start" x="362.81" y="-120.2" font-family="Monaco" font-size="11.00">:a[]</text>
<text text-anchor="start" x="389.22" y="-120.2" font-family="Monaco" baseline-shift="super" font-size="8.00" fill="#ff4411">q6</text>
</g>
<!-- 5&#45;&gt;6 -->
<g id="edge19" class="edge">
<title>5&#45;&gt;6</title>
<path fill="none" stroke="black" d="M298.02,-189.61C309.93,-177 326.42,-159.55 339.71,-145.48"/>
<polygon fill="black" stroke="black" points="342.39,-147.75 346.71,-138.07 337.3,-142.94 342.39,-147.75"/>
</g>
<!-- 1&#45;&gt;3 -->
<g id="edge16" class="edge">
<title>1&#45;&gt;3</title>
<path fill="none" stroke="black" stroke-dasharray="1,5" d="M399.59,-437.79C380.83,-427.31 355.51,-413.15 334.99,-401.68"/>
<polygon fill="black" stroke="black" points="336.67,-398.61 326.24,-396.78 333.26,-404.72 336.67,-398.61"/>
</g>
<!-- 8 -->
<g id="node16" class="node">
<title>8</title>
<ellipse fill="none" stroke="black" cx="318.21" cy="-34" rx="79.37" ry="18"/>
<text text-anchor="start" x="264.5" y="-33.53" font-family="Monaco" font-size="11.00">@d</text>
<text text-anchor="start" x="277.7" y="-33.53" font-family="Monaco" baseline-shift="super" font-size="8.00" fill="#00aa11">U1</text>
<text text-anchor="start" x="287.31" y="-33.53" font-family="Monaco" baseline-shift="super" font-size="8.00" fill="#3311ff">r0</text>
<text text-anchor="start" x="296.91" y="-33.53" font-family="Monaco" font-size="11.00">:@b&gt;=</text>
<text text-anchor="start" x="329.91" y="-33.53" font-family="Monaco" baseline-shift="super" font-size="8.00" fill="#3311ff">Bin0</text>
<text text-anchor="start" x="349.12" y="-33.53" font-family="Monaco" font-size="11.00">@c</text>
<text text-anchor="start" x="362.32" y="-33.53" font-family="Monaco" baseline-shift="super" font-size="8.00" fill="#ff4411">q7</text>
</g>
<!-- 6&#45;&gt;8 -->
<g id="edge14" class="edge">
<title>6&#45;&gt;8</title>
<path fill="none" stroke="black" d="M353.31,-102.53C347.16,-90.71 338.88,-74.77 331.9,-61.35"/>
<polygon fill="black" stroke="black" points="334.82,-59.37 327.1,-52.11 328.61,-62.6 334.82,-59.37"/>
</g>
<!-- 2 -->
<g id="node13" class="node">
<title>2</title>
<ellipse fill="none" stroke="black" cx="304.21" cy="-453.67" rx="48.84" ry="18"/>
<text text-anchor="start" x="274.21" y="-453.21" font-family="Monaco" font-size="11.00">@a</text>
<text text-anchor="start" x="287.41" y="-453.21" font-family="Monaco" baseline-shift="super" font-size="8.00" fill="#00aa11">S64</text>
<text text-anchor="start" x="301.81" y="-453.21" font-family="Monaco" baseline-shift="super" font-size="8.00" fill="#3311ff">r1</text>
<text text-anchor="start" x="311.41" y="-453.21" font-family="Monaco" font-size="11.00">:1</text>
<text text-anchor="start" x="324.61" y="-453.21" font-family="Monaco" baseline-shift="super" font-size="8.00" fill="#ff4411">q1</text>
</g>
<!-- 2&#45;&gt;3 -->
<g id="edge13" class="edge">
<title>2&#45;&gt;3</title>
<path fill="none" stroke="black" d="M303,-435.49C302.44,-427.46 301.75,-417.72 301.12,-408.74"/>
<polygon fill="black" stroke="black" points="304.6,-408.43 300.41,-398.7 297.62,-408.92 304.6,-408.43"/>
</g>
<!-- 7 -->
<g id="node14" class="node">
<title>7</title>
<ellipse fill="none" stroke="black" cx="241.21" cy="-120.67" rx="45.66" ry="18"/>
<text text-anchor="start" x="213.61" y="-120.2" font-family="Monaco" font-size="11.00">@c</text>
<text text-anchor="start" x="226.81" y="-120.2" font-family="Monaco" baseline-shift="super" font-size="8.00" fill="#00aa11">S1</text>
<text text-anchor="start" x="236.41" y="-120.2" font-family="Monaco" baseline-shift="super" font-size="8.00" fill="#3311ff">r2</text>
<text text-anchor="start" x="246.01" y="-120.2" font-family="Monaco" font-size="11.00">:0</text>
<text text-anchor="start" x="259.21" y="-120.2" font-family="Monaco" baseline-shift="super" font-size="8.00" fill="#ff4411">q1</text>
</g>
<!-- 7&#45;&gt;8 -->
<g id="edge15" class="edge">
<title>7&#45;&gt;8</title>
<path fill="none" stroke="black" d="M256.06,-103.34C267.41,-90.86 283.25,-73.44 296.1,-59.31"/>
<polygon fill="black" stroke="black" points="298.74,-61.61 302.88,-51.85 293.57,-56.9 298.74,-61.61"/>
</g>
<!-- 3&#45;&gt;4 -->
<g id="edge17" class="edge">
<title>3&#45;&gt;4</title>
<path fill="none" stroke="black" stroke-dasharray="1,5" d="M295.77,-362.54C293.44,-350.95 290.32,-335.4 287.66,-322.14"/>
<polygon fill="black" stroke="black" points="291.05,-321.23 285.65,-312.11 284.18,-322.61 291.05,-321.23"/>
</g>
<!-- 4&#45;&gt;5 -->
<g id="edge18" class="edge">
<title>4&#45;&gt;5</title>
<path fill="none" stroke="black" stroke-dasharray="1,5" d="M282.21,-275.87C282.21,-264.28 282.21,-248.73 282.21,-235.47"/>
<polygon fill="black" stroke="black" points="285.71,-235.45 282.21,-225.45 278.71,-235.45 285.71,-235.45"/>
</g>
<!-- 10 -->
<g id="node18" class="node">
<title>10</title>
<ellipse fill="none" stroke="black" cx="678.21" cy="-453.67" rx="57.34" ry="18"/>
<text text-anchor="start" x="641.6" y="-453.21" font-family="Monaco" font-size="11.00">@e</text>
<text text-anchor="start" x="654.81" y="-453.21" font-family="Monaco" baseline-shift="super" font-size="8.00" fill="#00aa11">S64</text>
<text text-anchor="start" x="669.21" y="-453.21" font-family="Monaco" baseline-shift="super" font-size="8.00" fill="#3311ff">r1</text>
<text text-anchor="start" x="678.81" y="-453.21" font-family="Monaco" font-size="11.00">:a[]</text>
<text text-anchor="start" x="705.22" y="-453.21" font-family="Monaco" baseline-shift="super" font-size="8.00" fill="#ff4411">q9</text>
</g>
<!-- 12 -->
<g id="node21" class="node">
<title>12</title>
<ellipse fill="none" stroke="black" cx="620.21" cy="-380.67" rx="81.23" ry="18"/>
<text text-anchor="start" x="565" y="-380.21" font-family="Monaco" font-size="11.00">@g</text>
<text text-anchor="start" x="578.2" y="-380.21" font-family="Monaco" baseline-shift="super" font-size="8.00" fill="#00aa11">S64</text>
<text text-anchor="start" x="592.61" y="-380.21" font-family="Monaco" baseline-shift="super" font-size="8.00" fill="#3311ff">r0</text>
<text text-anchor="start" x="602.21" y="-380.21" font-family="Monaco" font-size="11.00">:@e*</text>
<text text-anchor="start" x="628.61" y="-380.21" font-family="Monaco" baseline-shift="super" font-size="8.00" fill="#3311ff">Bin1</text>
<text text-anchor="start" x="647.82" y="-380.21" font-family="Monaco" font-size="11.00">@f</text>
<text text-anchor="start" x="661.02" y="-380.21" font-family="Monaco" baseline-shift="super" font-size="8.00" fill="#ff4411">q10</text>
</g>
<!-- 10&#45;&gt;12 -->
<g id="edge20" class="edge">
<title>10&#45;&gt;12</title>
<path fill="none" stroke="black" d="M664.47,-435.85C657.35,-427.13 648.51,-416.32 640.62,-406.65"/>
<polygon fill="black" stroke="black" points="643.3,-404.4 634.26,-398.87 637.88,-408.83 643.3,-404.4"/>
</g>
<!-- 9 -->
<g id="node19" class="node">
<title>9</title>
<ellipse fill="none" stroke="black" cx="672.21" cy="-526.67" rx="63.43" ry="18"/>
<text text-anchor="start" x="631.1" y="-526.21" font-family="Monaco" font-size="11.00">req a[zero]</text>
<text text-anchor="start" x="703.72" y="-526.21" font-family="Monaco" baseline-shift="super" font-size="8.00" fill="#ff4411">q8</text>
</g>
<!-- 9&#45;&gt;10 -->
<g id="edge22" class="edge">
<title>9&#45;&gt;10</title>
<path fill="none" stroke="black" d="M673.66,-508.49C674.34,-500.46 675.16,-490.72 675.92,-481.74"/>
<polygon fill="black" stroke="black" points="679.42,-481.96 676.77,-471.7 672.44,-481.37 679.42,-481.96"/>
</g>
<!-- 11 -->
<g id="node20" class="node">
<title>11</title>
<ellipse fill="none" stroke="black" cx="554.21" cy="-453.67" rx="48.84" ry="18"/>
<text text-anchor="start" x="524.21" y="-453.21" font-family="Monaco" font-size="11.00">@f</text>
<text text-anchor="start" x="537.41" y="-453.21" font-family="Monaco" baseline-shift="super" font-size="8.00" fill="#00aa11">S64</text>
<text text-anchor="start" x="551.81" y="-453.21" font-family="Monaco" baseline-shift="super" font-size="8.00" fill="#3311ff">r0</text>
<text text-anchor="start" x="561.41" y="-453.21" font-family="Monaco" font-size="11.00">:2</text>
<text text-anchor="start" x="574.61" y="-453.21" font-family="Monaco" baseline-shift="super" font-size="8.00" fill="#ff4411">q8</text>
</g>
<!-- 11&#45;&gt;12 -->
<g id="edge21" class="edge">
<title>11&#45;&gt;12</title>
<path fill="none" stroke="black" d="M569.52,-436.21C577.81,-427.29 588.22,-416.09 597.45,-406.16"/>
<polygon fill="black" stroke="black" points="600.28,-408.25 604.53,-398.54 595.16,-403.49 600.28,-408.25"/>
</g>
<!-- 14 -->
<g id="node22" class="node">
<title>14</title>
<ellipse fill="none" stroke="black" cx="950.21" cy="-453.67" rx="60.52" ry="18"/>
<text text-anchor="start" x="911.2" y="-453.21" font-family="Monaco" font-size="11.00">@h</text>
<text text-anchor="start" x="924.41" y="-453.21" font-family="Monaco" baseline-shift="super" font-size="8.00" fill="#00aa11">S64</text>
<text text-anchor="start" x="938.81" y="-453.21" font-family="Monaco" baseline-shift="super" font-size="8.00" fill="#3311ff">r1</text>
<text text-anchor="start" x="948.41" y="-453.21" font-family="Monaco" font-size="11.00">:a[]</text>
<text text-anchor="start" x="974.81" y="-453.21" font-family="Monaco" baseline-shift="super" font-size="8.00" fill="#ff4411">q13</text>
</g>
<!-- 16 -->
<g id="node25" class="node">
<title>16</title>
<ellipse fill="none" stroke="black" cx="885.21" cy="-380.67" rx="81.23" ry="18"/>
<text text-anchor="start" x="830" y="-380.21" font-family="Monaco" font-size="11.00">@j</text>
<text text-anchor="start" x="843.2" y="-380.21" font-family="Monaco" baseline-shift="super" font-size="8.00" fill="#00aa11">S64</text>
<text text-anchor="start" x="857.61" y="-380.21" font-family="Monaco" baseline-shift="super" font-size="8.00" fill="#3311ff">r0</text>
<text text-anchor="start" x="867.21" y="-380.21" font-family="Monaco" font-size="11.00">:@h*</text>
<text text-anchor="start" x="893.61" y="-380.21" font-family="Monaco" baseline-shift="super" font-size="8.00" fill="#3311ff">Bin1</text>
<text text-anchor="start" x="912.82" y="-380.21" font-family="Monaco" font-size="11.00">@i</text>
<text text-anchor="start" x="926.02" y="-380.21" font-family="Monaco" baseline-shift="super" font-size="8.00" fill="#ff4411">q14</text>
</g>
<!-- 14&#45;&gt;16 -->
<g id="edge23" class="edge">
<title>14&#45;&gt;16</title>
<path fill="none" stroke="black" d="M935.13,-436.21C926.97,-427.29 916.72,-416.09 907.63,-406.16"/>
<polygon fill="black" stroke="black" points="909.99,-403.56 900.66,-398.54 904.83,-408.28 909.99,-403.56"/>
</g>
<!-- 13 -->
<g id="node23" class="node">
<title>13</title>
<ellipse fill="none" stroke="black" cx="945.21" cy="-526.67" rx="66.1" ry="18"/>
<text text-anchor="start" x="901.7" y="-526.21" font-family="Monaco" font-size="11.00">req a[zero]</text>
<text text-anchor="start" x="974.32" y="-526.21" font-family="Monaco" baseline-shift="super" font-size="8.00" fill="#ff4411">q12</text>
</g>
<!-- 13&#45;&gt;14 -->
<g id="edge25" class="edge">
<title>13&#45;&gt;14</title>
<path fill="none" stroke="black" d="M946.42,-508.49C946.99,-500.46 947.67,-490.72 948.3,-481.74"/>
<polygon fill="black" stroke="black" points="951.8,-481.92 949.01,-471.7 944.82,-481.43 951.8,-481.92"/>
</g>
<!-- 15 -->
<g id="node24" class="node">
<title>15</title>
<ellipse fill="none" stroke="black" cx="815.21" cy="-453.67" rx="56.02" ry="18"/>
<text text-anchor="start" x="779.5" y="-453.21" font-family="Monaco" font-size="11.00">@i</text>
<text text-anchor="start" x="792.71" y="-453.21" font-family="Monaco" baseline-shift="super" font-size="8.00" fill="#00aa11">S64</text>
<text text-anchor="start" x="807.11" y="-453.21" font-family="Monaco" baseline-shift="super" font-size="8.00" fill="#3311ff">r0</text>
<text text-anchor="start" x="816.71" y="-453.21" font-family="Monaco" font-size="11.00">:&#45;3</text>
<text text-anchor="start" x="836.51" y="-453.21" font-family="Monaco" baseline-shift="super" font-size="8.00" fill="#ff4411">q12</text>
</g>
<!-- 15&#45;&gt;16 -->
<g id="edge24" class="edge">
<title>15&#45;&gt;16</title>
<path fill="none" stroke="black" d="M831.45,-436.21C840.33,-427.2 851.5,-415.86 861.36,-405.87"/>
<polygon fill="black" stroke="black" points="864.05,-408.12 868.58,-398.54 859.06,-403.21 864.05,-408.12"/>
</g>
<!-- 17 -->
<g id="node26" class="node">
<title>17</title>
<ellipse fill="none" stroke="black" cx="1115.21" cy="-526.67" rx="62.11" ry="18"/>
<text text-anchor="start" x="1075" y="-526.21" font-family="Monaco" font-size="11.00">a[zero]=@k</text>
<text text-anchor="start" x="1141.01" y="-526.21" font-family="Monaco" baseline-shift="super" font-size="8.00" fill="#ff4411">q16</text>
</g>
<!-- 18 -->
<g id="node28" class="node">
<title>18</title>
<ellipse fill="none" stroke="black" cx="1115.21" cy="-453.67" rx="66.1" ry="18"/>
<text text-anchor="start" x="1071.7" y="-453.21" font-family="Monaco" font-size="11.00">req a[zero]</text>
<text text-anchor="start" x="1144.32" y="-453.21" font-family="Monaco" baseline-shift="super" font-size="8.00" fill="#ff4411">q17</text>
</g>
<!-- 17&#45;&gt;18 -->
<g id="edge26" class="edge">
<title>17&#45;&gt;18</title>
<path fill="none" stroke="black" stroke-dasharray="1,5" d="M1115.21,-508.49C1115.21,-500.46 1115.21,-490.72 1115.21,-481.74"/>
<polygon fill="black" stroke="black" points="1118.71,-481.7 1115.21,-471.7 1111.71,-481.7 1118.71,-481.7"/>
</g>
<!-- 19 -->
<g id="node27" class="node">
<title>19</title>
<ellipse fill="none" stroke="black" cx="1115.21" cy="-380.67" rx="60.52" ry="18"/>
<text text-anchor="start" x="1076.2" y="-380.21" font-family="Monaco" font-size="11.00">@l</text>
<text text-anchor="start" x="1089.41" y="-380.21" font-family="Monaco" baseline-shift="super" font-size="8.00" fill="#00aa11">S64</text>
<text text-anchor="start" x="1103.81" y="-380.21" font-family="Monaco" baseline-shift="super" font-size="8.00" fill="#3311ff">r0</text>
<text text-anchor="start" x="1113.41" y="-380.21" font-family="Monaco" font-size="11.00">:a[]</text>
<text text-anchor="start" x="1139.81" y="-380.21" font-family="Monaco" baseline-shift="super" font-size="8.00" fill="#ff4411">q18</text>
</g>
<!-- 18&#45;&gt;19 -->
<g id="edge27" class="edge">
<title>18&#45;&gt;19</title>
<path fill="none" stroke="black" d="M1115.21,-435.49C1115.21,-427.46 1115.21,-417.72 1115.21,-408.74"/>
<polygon fill="black" stroke="black" points="1118.71,-408.7 1115.21,-398.7 1111.71,-408.7 1118.71,-408.7"/>
</g>
</g>
</svg>
