<?xml version="1.0" encoding="UTF-8" standalone="no"?>
<!DOCTYPE svg PUBLIC "-//W3C//DTD SVG 1.1//EN"
 "http://www.w3.org/Graphics/SVG/1.1/DTD/svg11.dtd">
<!-- Generated by graphviz version 2.43.0 (0)
 -->
<!-- Title: Program_ Pages: 1 -->
<svg width="3053pt" height="599pt"
 viewBox="0.00 0.00 3052.64 598.60" xmlns="http://www.w3.org/2000/svg" xmlns:xlink="http://www.w3.org/1999/xlink">
<g id="graph0" class="graph" transform="scale(1 1) rotate(0) translate(4 594.6)">
<title>Program_</title>
<polygon fill="white" stroke="transparent" points="-4,4 -4,-594.6 3048.64,-594.6 3048.64,4 -4,4"/>
<g id="clust1" class="cluster">
<title>cluster_dfg_Block0</title>
<polygon fill="none" stroke="black" points="200.64,-490.59 200.64,-582.6 434.64,-582.6 434.64,-490.59 200.64,-490.59"/>
<text text-anchor="start" x="296.04" y="-569" font-family="Monaco" font-size="12.00">Block0</text>
<text text-anchor="start" x="303.24" y="-552.99" font-family="Monaco" font-size="12.00">(=&gt;)</text>
</g>
<g id="clust2" class="cluster">
<title>cluster_dfg_Block0_4</title>
<polygon fill="none" stroke="black" points="442.64,-490.59 442.64,-582.6 1491.64,-582.6 1491.64,-490.59 442.64,-490.59"/>
<text text-anchor="start" x="938.34" y="-569" font-family="Monaco" font-size="12.00">Block0_4</text>
<text text-anchor="start" x="952.74" y="-552.99" font-family="Monaco" font-size="12.00">(=&gt;)</text>
</g>
<g id="clust3" class="cluster">
<title>cluster_dfg_Block0_5</title>
<polygon fill="none" stroke="black" points="1499.64,-417.59 1499.64,-582.6 2790.64,-582.6 2790.64,-417.59 1499.64,-417.59"/>
<text text-anchor="start" x="2116.34" y="-569" font-family="Monaco" font-size="12.00">Block0_5</text>
<text text-anchor="start" x="2130.74" y="-552.99" font-family="Monaco" font-size="12.00">(=&gt;)</text>
</g>
<g id="clust4" class="cluster">
<title>cluster_dfg_Block1_7</title>
<polygon fill="none" stroke="black" points="2798.64,-417.59 2798.64,-582.6 3036.64,-582.6 3036.64,-417.59 2798.64,-417.59"/>
<text text-anchor="start" x="2888.84" y="-569" font-family="Monaco" font-size="12.00">Block1_7</text>
<text text-anchor="start" x="2903.24" y="-552.99" font-family="Monaco" font-size="12.00">(=&gt;)</text>
</g>
<!-- Jump0 -->
<g id="node1" class="node">
<title>Jump0</title>
<polygon fill="none" stroke="black" points="190.16,-534.59 93.13,-534.59 93.13,-530.59 89.13,-530.59 89.13,-526.59 93.13,-526.59 93.13,-506.59 89.13,-506.59 89.13,-502.59 93.13,-502.59 93.13,-498.59 190.16,-498.59 190.16,-534.59"/>
<polyline fill="none" stroke="black" points="93.13,-530.59 97.13,-530.59 97.13,-526.59 93.13,-526.59 "/>
<polyline fill="none" stroke="black" points="93.13,-506.59 97.13,-506.59 97.13,-502.59 93.13,-502.59 "/>
<text text-anchor="start" x="103.84" y="-519.79" font-family="Monaco" baseline-shift="super" font-size="8.00" fill="#ff4411">q0</text>
<text text-anchor="start" x="113.44" y="-519.79" font-family="Monaco" font-size="11.00">StartFun.0</text>
<text text-anchor="start" x="101.14" y="-508.79" font-family="Monaco" font-size="11.00">i</text>
<text text-anchor="start" x="107.74" y="-508.79" font-family="Monaco" baseline-shift="super" font-size="8.00" fill="#00aa11">U10</text>
<text text-anchor="start" x="122.14" y="-508.79" font-family="Monaco" baseline-shift="super" font-size="8.00" fill="#3311ff">r?</text>
<text text-anchor="start" x="131.74" y="-508.79" font-family="Monaco" font-size="11.00">,acc</text>
<text text-anchor="start" x="158.15" y="-508.79" font-family="Monaco" baseline-shift="super" font-size="8.00" fill="#00aa11">S64</text>
<text text-anchor="start" x="172.55" y="-508.79" font-family="Monaco" baseline-shift="super" font-size="8.00" fill="#3311ff">r?</text>
</g>
<!-- Block0 -->
<g id="node2" class="node">
<title>Block0</title>
<polygon fill="none" stroke="black" points="169.25,-461.59 114.04,-461.59 114.04,-425.59 169.25,-425.59 169.25,-461.59"/>
<text text-anchor="middle" x="141.64" y="-442.13" font-family="Monaco" font-size="11.00">Block0</text>
</g>
<!-- Jump0&#45;&gt;Block0 -->
<g id="edge1" class="edge">
<title>Jump0&#45;&gt;Block0</title>
<path fill="none" stroke="black" d="M141.64,-498.41C141.64,-490.38 141.64,-480.64 141.64,-471.66"/>
<polygon fill="black" stroke="black" points="145.14,-471.62 141.64,-461.62 138.14,-471.62 145.14,-471.62"/>
</g>
<!-- Jump1_7 -->
<g id="node3" class="node">
<title>Jump1_7</title>
<path fill="none" stroke="black" d="M178.28,-388.59C178.28,-388.59 105.01,-388.59 105.01,-388.59 99.01,-388.59 88.85,-384.27 84.69,-379.95 84.69,-379.95 66.69,-361.24 66.69,-361.24 62.53,-356.92 64.37,-352.59 70.37,-352.59 70.37,-352.59 212.92,-352.59 212.92,-352.59 218.92,-352.59 220.76,-356.92 216.6,-361.24 216.6,-361.24 198.6,-379.95 198.6,-379.95 194.44,-384.27 184.28,-388.59 178.28,-388.59"/>
<text text-anchor="start" x="103.84" y="-370.13" font-family="Monaco" baseline-shift="super" font-size="8.00" fill="#ff4411">q?</text>
<text text-anchor="start" x="113.44" y="-370.13" font-family="Monaco" font-size="11.00">Branch.1_7</text>
</g>
<!-- Block0&#45;&gt;Jump1_7 -->
<g id="edge2" class="edge">
<title>Block0&#45;&gt;Jump1_7</title>
<path fill="none" stroke="black" d="M141.64,-425.41C141.64,-417.38 141.64,-407.64 141.64,-398.66"/>
<polygon fill="black" stroke="black" points="145.14,-398.62 141.64,-388.62 138.14,-398.62 145.14,-398.62"/>
</g>
<!-- Block1_6 -->
<g id="node4" class="node">
<title>Block1_6</title>
<polygon fill="none" stroke="black" points="132.95,-301.88 64.33,-301.88 64.33,-260.05 132.95,-260.05 132.95,-301.88"/>
<text text-anchor="start" x="72.24" y="-289.12" font-family="Monaco" font-size="11.00">Block1_6</text>
<text text-anchor="middle" x="98.64" y="-274.46" font-family="Monaco" font-size="11.00">(0行)</text>
</g>
<!-- Jump1_7&#45;&gt;Block1_6 -->
<g id="edge3" class="edge">
<title>Jump1_7&#45;&gt;Block1_6</title>
<path fill="none" stroke="black" d="M133.15,-352.28C127.38,-340.53 119.61,-324.7 112.91,-311.04"/>
<polygon fill="black" stroke="black" points="116.02,-309.44 108.48,-302 109.74,-312.52 116.02,-309.44"/>
<text text-anchor="middle" x="141.15" y="-325.79" font-family="Monaco" font-size="11.00">@b&lt;a&gt;</text>
</g>
<!-- Block0_4 -->
<g id="node5" class="node">
<title>Block0_4</title>
<polygon fill="none" stroke="black" points="239.95,-298.96 171.33,-298.96 171.33,-262.96 239.95,-262.96 239.95,-298.96"/>
<text text-anchor="middle" x="205.64" y="-279.5" font-family="Monaco" font-size="11.00">Block0_4</text>
</g>
<!-- Jump1_7&#45;&gt;Block0_4 -->
<g id="edge4" class="edge">
<title>Jump1_7&#45;&gt;Block0_4</title>
<path fill="none" stroke="black" d="M154.29,-352.28C163.58,-339.56 176.36,-322.06 186.84,-307.7"/>
<polygon fill="black" stroke="black" points="189.95,-309.38 193.03,-299.24 184.3,-305.25 189.95,-309.38"/>
<text text-anchor="middle" x="197.45" y="-325.79" font-family="Monaco" font-size="11.00">!@b&lt;a&gt;</text>
</g>
<!-- Jump2_4_10 -->
<g id="node10" class="node">
<title>Jump2_4_10</title>
<polygon fill="none" stroke="black" points="114.56,-203.34 20.73,-203.34 20.73,-209.34 2.73,-191.34 20.73,-173.34 20.73,-179.34 96.56,-179.34 96.56,-173.34 114.56,-173.34 114.56,-203.34"/>
<text text-anchor="start" x="10.94" y="-190.87" font-family="Monaco" baseline-shift="super" font-size="8.00" fill="#ff4411">q?</text>
<text text-anchor="start" x="20.54" y="-190.87" font-family="Monaco" font-size="11.00">Return.2_4_10</text>
</g>
<!-- Block1_6&#45;&gt;Jump2_4_10 -->
<g id="edge10" class="edge">
<title>Block1_6&#45;&gt;Jump2_4_10</title>
<path fill="none" stroke="black" d="M89.37,-259.64C83.85,-247.55 76.79,-232.08 70.82,-219.02"/>
<polygon fill="black" stroke="black" points="73.86,-217.24 66.52,-209.6 67.49,-220.15 73.86,-217.24"/>
<text text-anchor="middle" x="101.45" y="-233.21" font-family="Monaco" font-size="11.00">acc&lt;a&gt;</text>
</g>
<!-- Jump1_8 -->
<g id="node6" class="node">
<title>Jump1_8</title>
<polygon fill="#fbb4ae" stroke="black" points="320.42,-196.9 226.64,-209.34 132.87,-196.9 132.95,-176.77 320.33,-176.77 320.42,-196.9"/>
<text text-anchor="start" x="175.64" y="-190.87" font-family="Monaco" baseline-shift="super" font-size="8.00" fill="#ff4411">q?</text>
<text text-anchor="start" x="185.24" y="-190.87" font-family="Monaco" font-size="11.00">ForLoopTop.1_8</text>
</g>
<!-- Block0_4&#45;&gt;Jump1_8 -->
<g id="edge5" class="edge">
<title>Block0_4&#45;&gt;Jump1_8</title>
<path fill="none" stroke="black" d="M209.79,-262.65C212.79,-250.13 216.9,-232.98 220.31,-218.75"/>
<polygon fill="black" stroke="black" points="223.72,-219.56 222.65,-209.02 216.91,-217.93 223.72,-219.56"/>
</g>
<!-- Block0_5 -->
<g id="node7" class="node">
<title>Block0_5</title>
<polygon fill="none" stroke="black" points="213.95,-122.67 145.33,-122.67 145.33,-86.67 213.95,-86.67 213.95,-122.67"/>
<text text-anchor="middle" x="179.64" y="-103.2" font-family="Monaco" font-size="11.00">Block0_5</text>
</g>
<!-- Jump1_8&#45;&gt;Block0_5 -->
<g id="edge6" class="edge">
<title>Jump1_8&#45;&gt;Block0_5</title>
<path fill="none" stroke="black" d="M214.35,-176.71C209.17,-170.5 203.34,-162.86 199.04,-155.34 194.94,-148.19 191.35,-140.01 188.41,-132.37"/>
<polygon fill="black" stroke="black" points="191.63,-130.99 184.92,-122.79 185.05,-133.38 191.63,-130.99"/>
<text text-anchor="middle" x="218.45" y="-146.54" font-family="Monaco" font-size="11.00">!@b&lt;b&gt;</text>
</g>
<!-- Block1_7 -->
<g id="node9" class="node">
<title>Block1_7</title>
<polygon fill="none" stroke="black" points="324.95,-122.67 256.33,-122.67 256.33,-86.67 324.95,-86.67 324.95,-122.67"/>
<text text-anchor="middle" x="290.64" y="-103.2" font-family="Monaco" font-size="11.00">Block1_7</text>
</g>
<!-- Jump1_8&#45;&gt;Block1_7 -->
<g id="edge8" class="edge">
<title>Jump1_8&#45;&gt;Block1_7</title>
<path fill="none" stroke="black" d="M236.93,-176.73C246.2,-164.46 260.08,-146.1 271.41,-131.11"/>
<polygon fill="black" stroke="black" points="274.5,-132.83 277.73,-122.75 268.91,-128.61 274.5,-132.83"/>
<text text-anchor="middle" x="278.15" y="-146.54" font-family="Monaco" font-size="11.00">@b&lt;b&gt;</text>
</g>
<!-- Jump1_9 -->
<g id="node8" class="node">
<title>Jump1_9</title>
<polygon fill="#fbb4ae" stroke="black" points="-0.14,-12.44 109.64,0 219.43,-12.44 219.33,-32.56 -0.04,-32.56 -0.14,-12.44"/>
<text text-anchor="start" x="48.73" y="-17.53" font-family="Monaco" baseline-shift="super" font-size="8.00" fill="#ff4411">q?</text>
<text text-anchor="start" x="58.34" y="-17.53" font-family="Monaco" font-size="11.00">ForLoopBottom.1_9</text>
</g>
<!-- Block0_5&#45;&gt;Jump1_9 -->
<g id="edge9" class="edge">
<title>Block0_5&#45;&gt;Jump1_9</title>
<path fill="none" stroke="black" d="M165.48,-86.53C154.52,-73.29 139.29,-54.86 127.5,-40.6"/>
<polygon fill="black" stroke="black" points="130.09,-38.23 121.02,-32.76 124.69,-42.69 130.09,-38.23"/>
</g>
<!-- Jump1_9&#45;&gt;Jump1_8 -->
<g id="edge7" class="edge">
<title>Jump1_9&#45;&gt;Jump1_8</title>
<path fill="none" stroke="#fbb4ae" d="M201.87,-32.6C263.86,-41.85 334.49,-52.65 335.64,-54 355.51,-77.18 346.33,-94.9 333.64,-122.67 323.1,-145.76 300.29,-161.79 278.43,-172.43"/>
<polygon fill="#fbb4ae" stroke="#fbb4ae" points="276.8,-169.33 269.15,-176.66 279.7,-175.69 276.8,-169.33"/>
</g>
<!-- Jump2_4_11 -->
<g id="node11" class="node">
<title>Jump2_4_11</title>
<polygon fill="none" stroke="black" points="348.56,-30 254.73,-30 254.73,-36 236.73,-18 254.73,0 254.73,-6 330.56,-6 330.56,0 348.56,0 348.56,-30"/>
<text text-anchor="start" x="244.94" y="-17.53" font-family="Monaco" baseline-shift="super" font-size="8.00" fill="#ff4411">q?</text>
<text text-anchor="start" x="254.54" y="-17.53" font-family="Monaco" font-size="11.00">Return.2_4_11</text>
</g>
<!-- Block1_7&#45;&gt;Jump2_4_11 -->
<g id="edge11" class="edge">
<title>Block1_7&#45;&gt;Jump2_4_11</title>
<path fill="none" stroke="black" d="M291.05,-86.53C291.32,-74.94 291.69,-59.39 292,-46.13"/>
<polygon fill="black" stroke="black" points="295.5,-46.19 292.24,-36.11 288.5,-46.02 295.5,-46.19"/>
<text text-anchor="middle" x="311.45" y="-59.87" font-family="Monaco" font-size="11.00">acc&lt;b&gt;</text>
</g>
<!-- 11 -->
<g id="node12" class="node">
<title>11</title>
<ellipse fill="none" stroke="black" cx="317.64" cy="-516.59" rx="109.35" ry="18"/>
<text text-anchor="start" x="240.83" y="-516.13" font-family="Monaco" baseline-shift="super" font-size="8.00" fill="#ff4411">q1</text>
<text text-anchor="start" x="250.43" y="-516.13" font-family="Monaco" font-size="11.00">@b&lt;a&gt;</text>
<text text-anchor="start" x="283.44" y="-516.13" font-family="Monaco" baseline-shift="super" font-size="8.00" fill="#00aa11">U1</text>
<text text-anchor="start" x="293.04" y="-516.13" font-family="Monaco" baseline-shift="super" font-size="8.00" fill="#3311ff">r?</text>
<text text-anchor="start" x="302.64" y="-516.13" font-family="Monaco" font-size="11.00">:i&lt;a&gt;==</text>
<text text-anchor="start" x="348.85" y="-516.13" font-family="Monaco" baseline-shift="super" font-size="8.00" fill="#3311ff">?</text>
<text text-anchor="start" x="353.65" y="-516.13" font-family="Monaco" font-size="11.00">1000</text>
<text text-anchor="start" x="380.05" y="-516.13" font-family="Monaco" baseline-shift="super" font-size="8.00" fill="#00aa11">U10</text>
</g>
<!-- 14 -->
<g id="node13" class="node">
<title>14</title>
<ellipse fill="none" stroke="black" cx="1391.64" cy="-516.59" rx="92.36" ry="18"/>
<text text-anchor="start" x="1328.03" y="-516.13" font-family="Monaco" baseline-shift="super" font-size="8.00" fill="#ff4411">q2</text>
<text text-anchor="start" x="1337.63" y="-516.13" font-family="Monaco" font-size="11.00">@g&lt;a&gt;</text>
<text text-anchor="start" x="1370.64" y="-516.13" font-family="Monaco" baseline-shift="super" font-size="8.00" fill="#00aa11">U10</text>
<text text-anchor="start" x="1385.04" y="-516.13" font-family="Monaco" baseline-shift="super" font-size="8.00" fill="#3311ff">r?</text>
<text text-anchor="start" x="1394.64" y="-516.13" font-family="Monaco" font-size="11.00">:i&lt;a&gt;+</text>
<text text-anchor="start" x="1434.25" y="-516.13" font-family="Monaco" baseline-shift="super" font-size="8.00" fill="#3311ff">?</text>
<text text-anchor="start" x="1439.05" y="-516.13" font-family="Monaco" font-size="11.00">1</text>
<text text-anchor="start" x="1445.65" y="-516.13" font-family="Monaco" baseline-shift="super" font-size="8.00" fill="#00aa11">U1</text>
</g>
<!-- 13 -->
<g id="node14" class="node">
<title>13</title>
<ellipse fill="none" stroke="black" cx="1218.64" cy="-516.59" rx="63.43" ry="18"/>
<text text-anchor="start" x="1177.54" y="-516.13" font-family="Monaco" baseline-shift="super" font-size="8.00" fill="#ff4411">q2</text>
<text text-anchor="start" x="1187.14" y="-516.13" font-family="Monaco" font-size="11.00">req a[i&lt;a&gt;]</text>
</g>
<!-- 17 -->
<g id="node15" class="node">
<title>17</title>
<ellipse fill="none" stroke="black" cx="1028.64" cy="-516.59" rx="109.35" ry="18"/>
<text text-anchor="start" x="951.83" y="-516.13" font-family="Monaco" baseline-shift="super" font-size="8.00" fill="#ff4411">q3</text>
<text text-anchor="start" x="961.43" y="-516.13" font-family="Monaco" font-size="11.00">@b&lt;b&gt;</text>
<text text-anchor="start" x="994.44" y="-516.13" font-family="Monaco" baseline-shift="super" font-size="8.00" fill="#00aa11">U1</text>
<text text-anchor="start" x="1004.04" y="-516.13" font-family="Monaco" baseline-shift="super" font-size="8.00" fill="#3311ff">r?</text>
<text text-anchor="start" x="1013.64" y="-516.13" font-family="Monaco" font-size="11.00">:i&lt;b&gt;==</text>
<text text-anchor="start" x="1059.85" y="-516.13" font-family="Monaco" baseline-shift="super" font-size="8.00" fill="#3311ff">?</text>
<text text-anchor="start" x="1064.65" y="-516.13" font-family="Monaco" font-size="11.00">1000</text>
<text text-anchor="start" x="1091.05" y="-516.13" font-family="Monaco" baseline-shift="super" font-size="8.00" fill="#00aa11">U10</text>
</g>
<!-- 12 -->
<g id="node16" class="node">
<title>12</title>
<ellipse fill="none" stroke="black" cx="838.64" cy="-516.59" rx="63.43" ry="18"/>
<text text-anchor="start" x="797.54" y="-516.13" font-family="Monaco" baseline-shift="super" font-size="8.00" fill="#ff4411">q2</text>
<text text-anchor="start" x="807.14" y="-516.13" font-family="Monaco" font-size="11.00">req b[i&lt;a&gt;]</text>
</g>
<!-- 16 -->
<g id="node17" class="node">
<title>16</title>
<ellipse fill="none" stroke="black" cx="687.64" cy="-516.59" rx="70.33" ry="18"/>
<text text-anchor="start" x="641.14" y="-516.13" font-family="Monaco" baseline-shift="super" font-size="8.00" fill="#ff4411">q3</text>
<text text-anchor="start" x="650.74" y="-516.13" font-family="Monaco" font-size="11.00">@c&lt;a&gt;</text>
<text text-anchor="start" x="683.74" y="-516.13" font-family="Monaco" baseline-shift="super" font-size="8.00" fill="#00aa11">S27</text>
<text text-anchor="start" x="698.15" y="-516.13" font-family="Monaco" baseline-shift="super" font-size="8.00" fill="#3311ff">r?</text>
<text text-anchor="start" x="707.75" y="-516.13" font-family="Monaco" font-size="11.00">:b[]</text>
</g>
<!-- 15 -->
<g id="node18" class="node">
<title>15</title>
<ellipse fill="none" stroke="black" cx="524.64" cy="-516.59" rx="74.33" ry="18"/>
<text text-anchor="start" x="474.84" y="-516.13" font-family="Monaco" baseline-shift="super" font-size="8.00" fill="#ff4411">q3</text>
<text text-anchor="start" x="484.44" y="-516.13" font-family="Monaco" font-size="11.00">a64&lt;a&gt;</text>
<text text-anchor="start" x="524.04" y="-516.13" font-family="Monaco" baseline-shift="super" font-size="8.00" fill="#00aa11">S64</text>
<text text-anchor="start" x="538.45" y="-516.13" font-family="Monaco" baseline-shift="super" font-size="8.00" fill="#3311ff">r?</text>
<text text-anchor="start" x="548.05" y="-516.13" font-family="Monaco" font-size="11.00">:a[]</text>
</g>
<!-- 20 -->
<g id="node19" class="node">
<title>20</title>
<ellipse fill="none" stroke="black" cx="2719.64" cy="-516.59" rx="63.43" ry="18"/>
<text text-anchor="start" x="2678.54" y="-516.13" font-family="Monaco" baseline-shift="super" font-size="8.00" fill="#ff4411">q4</text>
<text text-anchor="start" x="2688.14" y="-516.13" font-family="Monaco" font-size="11.00">req a[i&lt;b&gt;]</text>
</g>
<!-- 21 -->
<g id="node20" class="node">
<title>21</title>
<ellipse fill="none" stroke="black" cx="2546.64" cy="-516.59" rx="92.36" ry="18"/>
<text text-anchor="start" x="2483.03" y="-516.13" font-family="Monaco" baseline-shift="super" font-size="8.00" fill="#ff4411">q4</text>
<text text-anchor="start" x="2492.63" y="-516.13" font-family="Monaco" font-size="11.00">@g&lt;b&gt;</text>
<text text-anchor="start" x="2525.64" y="-516.13" font-family="Monaco" baseline-shift="super" font-size="8.00" fill="#00aa11">U10</text>
<text text-anchor="start" x="2540.04" y="-516.13" font-family="Monaco" baseline-shift="super" font-size="8.00" fill="#3311ff">r?</text>
<text text-anchor="start" x="2549.64" y="-516.13" font-family="Monaco" font-size="11.00">:i&lt;b&gt;+</text>
<text text-anchor="start" x="2589.25" y="-516.13" font-family="Monaco" baseline-shift="super" font-size="8.00" fill="#3311ff">?</text>
<text text-anchor="start" x="2594.05" y="-516.13" font-family="Monaco" font-size="11.00">1</text>
<text text-anchor="start" x="2600.65" y="-516.13" font-family="Monaco" baseline-shift="super" font-size="8.00" fill="#00aa11">U1</text>
</g>
<!-- 22 -->
<g id="node21" class="node">
<title>22</title>
<ellipse fill="none" stroke="black" cx="2324.64" cy="-443.59" rx="111.48" ry="18"/>
<text text-anchor="start" x="2246.03" y="-443.13" font-family="Monaco" baseline-shift="super" font-size="8.00" fill="#ff4411">q5</text>
<text text-anchor="start" x="2255.63" y="-443.13" font-family="Monaco" font-size="11.00">@e&lt;a&gt;</text>
<text text-anchor="start" x="2288.64" y="-443.13" font-family="Monaco" baseline-shift="super" font-size="8.00" fill="#00aa11">S64</text>
<text text-anchor="start" x="2303.04" y="-443.13" font-family="Monaco" baseline-shift="super" font-size="8.00" fill="#3311ff">r?</text>
<text text-anchor="start" x="2312.64" y="-443.13" font-family="Monaco" font-size="11.00">:acc&lt;a&gt;+</text>
<text text-anchor="start" x="2365.45" y="-443.13" font-family="Monaco" baseline-shift="super" font-size="8.00" fill="#3311ff">?</text>
<text text-anchor="start" x="2370.25" y="-443.13" font-family="Monaco" font-size="11.00">@d&lt;a&gt;</text>
</g>
<!-- 18 -->
<g id="node22" class="node">
<title>18</title>
<ellipse fill="none" stroke="black" cx="2324.64" cy="-516.59" rx="111.48" ry="18"/>
<text text-anchor="start" x="2246.03" y="-516.13" font-family="Monaco" baseline-shift="super" font-size="8.00" fill="#ff4411">q4</text>
<text text-anchor="start" x="2255.63" y="-516.13" font-family="Monaco" font-size="11.00">@d&lt;a&gt;</text>
<text text-anchor="start" x="2288.64" y="-516.13" font-family="Monaco" baseline-shift="super" font-size="8.00" fill="#00aa11">S64</text>
<text text-anchor="start" x="2303.04" y="-516.13" font-family="Monaco" baseline-shift="super" font-size="8.00" fill="#3311ff">r?</text>
<text text-anchor="start" x="2312.64" y="-516.13" font-family="Monaco" font-size="11.00">:a64&lt;a&gt;*</text>
<text text-anchor="start" x="2365.45" y="-516.13" font-family="Monaco" baseline-shift="super" font-size="8.00" fill="#3311ff">?</text>
<text text-anchor="start" x="2370.25" y="-516.13" font-family="Monaco" font-size="11.00">@c&lt;a&gt;</text>
</g>
<!-- 18&#45;&gt;22 -->
<g id="edge12" class="edge">
<title>18&#45;&gt;22</title>
<path fill="none" stroke="black" d="M2324.64,-498.41C2324.64,-490.38 2324.64,-480.64 2324.64,-471.66"/>
<polygon fill="black" stroke="black" points="2328.14,-471.62 2324.64,-461.62 2321.14,-471.62 2328.14,-471.62"/>
</g>
<!-- 23 -->
<g id="node23" class="node">
<title>23</title>
<ellipse fill="none" stroke="black" cx="2120.64" cy="-516.59" rx="74.33" ry="18"/>
<text text-anchor="start" x="2070.84" y="-516.13" font-family="Monaco" baseline-shift="super" font-size="8.00" fill="#ff4411">q5</text>
<text text-anchor="start" x="2080.44" y="-516.13" font-family="Monaco" font-size="11.00">a64&lt;b&gt;</text>
<text text-anchor="start" x="2120.04" y="-516.13" font-family="Monaco" baseline-shift="super" font-size="8.00" fill="#00aa11">S64</text>
<text text-anchor="start" x="2134.45" y="-516.13" font-family="Monaco" baseline-shift="super" font-size="8.00" fill="#3311ff">r?</text>
<text text-anchor="start" x="2144.05" y="-516.13" font-family="Monaco" font-size="11.00">:a[]</text>
</g>
<!-- 19 -->
<g id="node24" class="node">
<title>19</title>
<ellipse fill="none" stroke="black" cx="1964.64" cy="-516.59" rx="63.43" ry="18"/>
<text text-anchor="start" x="1923.54" y="-516.13" font-family="Monaco" baseline-shift="super" font-size="8.00" fill="#ff4411">q4</text>
<text text-anchor="start" x="1933.14" y="-516.13" font-family="Monaco" font-size="11.00">req b[i&lt;b&gt;]</text>
</g>
<!-- 24 -->
<g id="node25" class="node">
<title>24</title>
<ellipse fill="none" stroke="black" cx="1813.64" cy="-516.59" rx="70.33" ry="18"/>
<text text-anchor="start" x="1767.14" y="-516.13" font-family="Monaco" baseline-shift="super" font-size="8.00" fill="#ff4411">q5</text>
<text text-anchor="start" x="1776.74" y="-516.13" font-family="Monaco" font-size="11.00">@c&lt;b&gt;</text>
<text text-anchor="start" x="1809.74" y="-516.13" font-family="Monaco" baseline-shift="super" font-size="8.00" fill="#00aa11">S27</text>
<text text-anchor="start" x="1824.15" y="-516.13" font-family="Monaco" baseline-shift="super" font-size="8.00" fill="#3311ff">r?</text>
<text text-anchor="start" x="1833.75" y="-516.13" font-family="Monaco" font-size="11.00">:b[]</text>
</g>
<!-- 25 -->
<g id="node26" class="node">
<title>25</title>
<ellipse fill="none" stroke="black" cx="1616.64" cy="-516.59" rx="109.35" ry="18"/>
<text text-anchor="start" x="1539.83" y="-516.13" font-family="Monaco" baseline-shift="super" font-size="8.00" fill="#ff4411">q5</text>
<text text-anchor="start" x="1549.43" y="-516.13" font-family="Monaco" font-size="11.00">@b&lt;c&gt;</text>
<text text-anchor="start" x="1582.44" y="-516.13" font-family="Monaco" baseline-shift="super" font-size="8.00" fill="#00aa11">U1</text>
<text text-anchor="start" x="1592.04" y="-516.13" font-family="Monaco" baseline-shift="super" font-size="8.00" fill="#3311ff">r?</text>
<text text-anchor="start" x="1601.64" y="-516.13" font-family="Monaco" font-size="11.00">:i&lt;c&gt;==</text>
<text text-anchor="start" x="1647.85" y="-516.13" font-family="Monaco" baseline-shift="super" font-size="8.00" fill="#3311ff">?</text>
<text text-anchor="start" x="1652.65" y="-516.13" font-family="Monaco" font-size="11.00">1000</text>
<text text-anchor="start" x="1679.05" y="-516.13" font-family="Monaco" baseline-shift="super" font-size="8.00" fill="#00aa11">U10</text>
</g>
<!-- 26 -->
<g id="node27" class="node">
<title>26</title>
<ellipse fill="none" stroke="black" cx="2917.64" cy="-516.59" rx="111.48" ry="18"/>
<text text-anchor="start" x="2839.03" y="-516.13" font-family="Monaco" baseline-shift="super" font-size="8.00" fill="#ff4411">q6</text>
<text text-anchor="start" x="2848.63" y="-516.13" font-family="Monaco" font-size="11.00">@d&lt;a&gt;</text>
<text text-anchor="start" x="2881.64" y="-516.13" font-family="Monaco" baseline-shift="super" font-size="8.00" fill="#00aa11">S64</text>
<text text-anchor="start" x="2896.04" y="-516.13" font-family="Monaco" baseline-shift="super" font-size="8.00" fill="#3311ff">r?</text>
<text text-anchor="start" x="2905.64" y="-516.13" font-family="Monaco" font-size="11.00">:a64&lt;a&gt;*</text>
<text text-anchor="start" x="2958.45" y="-516.13" font-family="Monaco" baseline-shift="super" font-size="8.00" fill="#3311ff">?</text>
<text text-anchor="start" x="2963.25" y="-516.13" font-family="Monaco" font-size="11.00">@c&lt;a&gt;</text>
</g>
<!-- 27 -->
<g id="node28" class="node">
<title>27</title>
<ellipse fill="none" stroke="black" cx="2917.64" cy="-443.59" rx="111.48" ry="18"/>
<text text-anchor="start" x="2839.03" y="-443.13" font-family="Monaco" baseline-shift="super" font-size="8.00" fill="#ff4411">q7</text>
<text text-anchor="start" x="2848.63" y="-443.13" font-family="Monaco" font-size="11.00">@e&lt;a&gt;</text>
<text text-anchor="start" x="2881.64" y="-443.13" font-family="Monaco" baseline-shift="super" font-size="8.00" fill="#00aa11">S64</text>
<text text-anchor="start" x="2896.04" y="-443.13" font-family="Monaco" baseline-shift="super" font-size="8.00" fill="#3311ff">r?</text>
<text text-anchor="start" x="2905.64" y="-443.13" font-family="Monaco" font-size="11.00">:acc&lt;a&gt;+</text>
<text text-anchor="start" x="2958.45" y="-443.13" font-family="Monaco" baseline-shift="super" font-size="8.00" fill="#3311ff">?</text>
<text text-anchor="start" x="2963.25" y="-443.13" font-family="Monaco" font-size="11.00">@d&lt;a&gt;</text>
</g>
<!-- 26&#45;&gt;27 -->
<g id="edge13" class="edge">
<title>26&#45;&gt;27</title>
<path fill="none" stroke="black" d="M2917.64,-498.41C2917.64,-490.38 2917.64,-480.64 2917.64,-471.66"/>
<polygon fill="black" stroke="black" points="2921.14,-471.62 2917.64,-461.62 2914.14,-471.62 2921.14,-471.62"/>
</g>
</g>
</svg>
