<?xml version="1.0" encoding="UTF-8" standalone="no"?>
<!DOCTYPE svg PUBLIC "-//W3C//DTD SVG 1.1//EN"
 "http://www.w3.org/Graphics/SVG/1.1/DTD/svg11.dtd">
<!-- Generated by graphviz version 2.43.0 (0)
 -->
<!-- Title: Program_ Pages: 1 -->
<svg width="2401pt" height="599pt"
 viewBox="0.00 0.00 2400.64 598.60" xmlns="http://www.w3.org/2000/svg" xmlns:xlink="http://www.w3.org/1999/xlink">
<g id="graph0" class="graph" transform="scale(1 1) rotate(0) translate(4 594.6)">
<title>Program_</title>
<polygon fill="white" stroke="transparent" points="-4,4 -4,-594.6 2396.64,-594.6 2396.64,4 -4,4"/>
<g id="clust1" class="cluster">
<title>cluster_dfg_Block0</title>
<polygon fill="none" stroke="black" points="284.64,-490.59 284.64,-582.6 498.64,-582.6 498.64,-490.59 284.64,-490.59"/>
<text text-anchor="start" x="370.04" y="-569" font-family="Monaco" font-size="12.00">Block0</text>
<text text-anchor="start" x="377.24" y="-552.99" font-family="Monaco" font-size="12.00">(=&gt;)</text>
</g>
<g id="clust2" class="cluster">
<title>cluster_dfg_Block0_4</title>
<polygon fill="none" stroke="black" points="506.64,-417.59 506.64,-582.6 1223.64,-582.6 1223.64,-417.59 506.64,-417.59"/>
<text text-anchor="start" x="836.34" y="-569" font-family="Monaco" font-size="12.00">Block0_4</text>
<text text-anchor="start" x="850.74" y="-552.99" font-family="Monaco" font-size="12.00">(=&gt;)</text>
</g>
<g id="clust3" class="cluster">
<title>cluster_dfg_Block0_5</title>
<polygon fill="none" stroke="black" points="1231.64,-417.59 1231.64,-582.6 2176.64,-582.6 2176.64,-417.59 1231.64,-417.59"/>
<text text-anchor="start" x="1675.34" y="-569" font-family="Monaco" font-size="12.00">Block0_5</text>
<text text-anchor="start" x="1689.74" y="-552.99" font-family="Monaco" font-size="12.00">(=&gt;)</text>
</g>
<g id="clust4" class="cluster">
<title>cluster_dfg_Block1_7</title>
<polygon fill="none" stroke="black" points="2184.64,-417.59 2184.64,-582.6 2384.64,-582.6 2384.64,-417.59 2184.64,-417.59"/>
<text text-anchor="start" x="2255.84" y="-569" font-family="Monaco" font-size="12.00">Block1_7</text>
<text text-anchor="start" x="2270.24" y="-552.99" font-family="Monaco" font-size="12.00">(=&gt;)</text>
</g>
<!-- Jump0 -->
<g id="node1" class="node">
<title>Jump0</title>
<polygon fill="none" stroke="black" points="274.16,-534.59 177.13,-534.59 177.13,-530.59 173.13,-530.59 173.13,-526.59 177.13,-526.59 177.13,-506.59 173.13,-506.59 173.13,-502.59 177.13,-502.59 177.13,-498.59 274.16,-498.59 274.16,-534.59"/>
<polyline fill="none" stroke="black" points="177.13,-530.59 181.13,-530.59 181.13,-526.59 177.13,-526.59 "/>
<polyline fill="none" stroke="black" points="177.13,-506.59 181.13,-506.59 181.13,-502.59 177.13,-502.59 "/>
<text text-anchor="start" x="187.84" y="-519.79" font-family="Monaco" baseline-shift="super" font-size="8.00" fill="#ff4411">q0</text>
<text text-anchor="start" x="197.44" y="-519.79" font-family="Monaco" font-size="11.00">StartFun.0</text>
<text text-anchor="start" x="185.14" y="-508.79" font-family="Monaco" font-size="11.00">i</text>
<text text-anchor="start" x="191.74" y="-508.79" font-family="Monaco" baseline-shift="super" font-size="8.00" fill="#00aa11">U10</text>
<text text-anchor="start" x="206.14" y="-508.79" font-family="Monaco" baseline-shift="super" font-size="8.00" fill="#3311ff">r0</text>
<text text-anchor="start" x="215.74" y="-508.79" font-family="Monaco" font-size="11.00">,acc</text>
<text text-anchor="start" x="242.15" y="-508.79" font-family="Monaco" baseline-shift="super" font-size="8.00" fill="#00aa11">S64</text>
<text text-anchor="start" x="256.55" y="-508.79" font-family="Monaco" baseline-shift="super" font-size="8.00" fill="#3311ff">r0</text>
</g>
<!-- Block0 -->
<g id="node2" class="node">
<title>Block0</title>
<polygon fill="none" stroke="black" points="253.25,-461.59 198.04,-461.59 198.04,-425.59 253.25,-425.59 253.25,-461.59"/>
<text text-anchor="middle" x="225.64" y="-442.13" font-family="Monaco" font-size="11.00">Block0</text>
</g>
<!-- Jump0&#45;&gt;Block0 -->
<g id="edge1" class="edge">
<title>Jump0&#45;&gt;Block0</title>
<path fill="none" stroke="black" d="M225.64,-498.41C225.64,-490.38 225.64,-480.64 225.64,-471.66"/>
<polygon fill="black" stroke="black" points="229.14,-471.62 225.64,-461.62 222.14,-471.62 229.14,-471.62"/>
</g>
<!-- Jump1_7 -->
<g id="node3" class="node">
<title>Jump1_7</title>
<path fill="none" stroke="black" d="M262.28,-388.59C262.28,-388.59 189.01,-388.59 189.01,-388.59 183.01,-388.59 172.85,-384.27 168.69,-379.95 168.69,-379.95 150.69,-361.24 150.69,-361.24 146.53,-356.92 148.37,-352.59 154.37,-352.59 154.37,-352.59 296.92,-352.59 296.92,-352.59 302.92,-352.59 304.76,-356.92 300.6,-361.24 300.6,-361.24 282.6,-379.95 282.6,-379.95 278.44,-384.27 268.28,-388.59 262.28,-388.59"/>
<text text-anchor="start" x="187.84" y="-370.13" font-family="Monaco" baseline-shift="super" font-size="8.00" fill="#ff4411">q1</text>
<text text-anchor="start" x="197.44" y="-370.13" font-family="Monaco" font-size="11.00">Branch.1_7</text>
</g>
<!-- Block0&#45;&gt;Jump1_7 -->
<g id="edge2" class="edge">
<title>Block0&#45;&gt;Jump1_7</title>
<path fill="none" stroke="black" d="M225.64,-425.41C225.64,-417.38 225.64,-407.64 225.64,-398.66"/>
<polygon fill="black" stroke="black" points="229.14,-398.62 225.64,-388.62 222.14,-398.62 229.14,-398.62"/>
</g>
<!-- Block1_6 -->
<g id="node4" class="node">
<title>Block1_6</title>
<polygon fill="none" stroke="black" points="216.95,-301.88 148.33,-301.88 148.33,-260.05 216.95,-260.05 216.95,-301.88"/>
<text text-anchor="start" x="156.24" y="-289.12" font-family="Monaco" font-size="11.00">Block1_6</text>
<text text-anchor="middle" x="182.64" y="-274.46" font-family="Monaco" font-size="11.00">(0行)</text>
</g>
<!-- Jump1_7&#45;&gt;Block1_6 -->
<g id="edge3" class="edge">
<title>Jump1_7&#45;&gt;Block1_6</title>
<path fill="none" stroke="black" d="M217.15,-352.28C211.38,-340.53 203.61,-324.7 196.91,-311.04"/>
<polygon fill="black" stroke="black" points="200.02,-309.44 192.48,-302 193.74,-312.52 200.02,-309.44"/>
<text text-anchor="start" x="208.64" y="-326.79" font-family="Monaco" font-size="11.00">@b</text>
<text text-anchor="start" x="221.85" y="-326.79" font-family="Monaco" baseline-shift="sub" font-size="8.00" fill="#999999">a</text>
</g>
<!-- Block0_4 -->
<g id="node5" class="node">
<title>Block0_4</title>
<polygon fill="none" stroke="black" points="323.95,-298.96 255.33,-298.96 255.33,-262.96 323.95,-262.96 323.95,-298.96"/>
<text text-anchor="middle" x="289.64" y="-279.5" font-family="Monaco" font-size="11.00">Block0_4</text>
</g>
<!-- Jump1_7&#45;&gt;Block0_4 -->
<g id="edge4" class="edge">
<title>Jump1_7&#45;&gt;Block0_4</title>
<path fill="none" stroke="black" d="M238.29,-352.28C247.58,-339.56 260.36,-322.06 270.84,-307.7"/>
<polygon fill="black" stroke="black" points="273.95,-309.38 277.03,-299.24 268.3,-305.25 273.95,-309.38"/>
<text text-anchor="start" x="261.64" y="-326.79" font-family="Monaco" font-size="11.00">!@b</text>
<text text-anchor="start" x="281.45" y="-326.79" font-family="Monaco" baseline-shift="sub" font-size="8.00" fill="#999999">a</text>
</g>
<!-- Jump2_4_10 -->
<g id="node10" class="node">
<title>Jump2_4_10</title>
<polygon fill="none" stroke="black" points="198.56,-203.34 104.73,-203.34 104.73,-209.34 86.73,-191.34 104.73,-173.34 104.73,-179.34 180.56,-179.34 180.56,-173.34 198.56,-173.34 198.56,-203.34"/>
<text text-anchor="start" x="94.94" y="-190.87" font-family="Monaco" baseline-shift="super" font-size="8.00" fill="#ff4411">q1</text>
<text text-anchor="start" x="104.54" y="-190.87" font-family="Monaco" font-size="11.00">Return.2_4_10</text>
</g>
<!-- Block1_6&#45;&gt;Jump2_4_10 -->
<g id="edge10" class="edge">
<title>Block1_6&#45;&gt;Jump2_4_10</title>
<path fill="none" stroke="black" d="M173.37,-259.64C167.85,-247.55 160.79,-232.08 154.82,-219.02"/>
<polygon fill="black" stroke="black" points="157.86,-217.24 150.52,-209.6 151.49,-220.15 157.86,-217.24"/>
<text text-anchor="start" x="165.64" y="-234.21" font-family="Monaco" font-size="11.00">acc</text>
<text text-anchor="start" x="185.45" y="-234.21" font-family="Monaco" baseline-shift="sub" font-size="8.00" fill="#999999">a</text>
</g>
<!-- Jump1_8 -->
<g id="node6" class="node">
<title>Jump1_8</title>
<polygon fill="#fbb4ae" stroke="black" points="404.42,-196.9 310.64,-209.34 216.87,-196.9 216.95,-176.77 404.33,-176.77 404.42,-196.9"/>
<text text-anchor="start" x="259.64" y="-190.87" font-family="Monaco" baseline-shift="super" font-size="8.00" fill="#ff4411">q3</text>
<text text-anchor="start" x="269.24" y="-190.87" font-family="Monaco" font-size="11.00">ForLoopTop.1_8</text>
</g>
<!-- Block0_4&#45;&gt;Jump1_8 -->
<g id="edge5" class="edge">
<title>Block0_4&#45;&gt;Jump1_8</title>
<path fill="none" stroke="black" d="M293.79,-262.65C296.79,-250.13 300.9,-232.98 304.31,-218.75"/>
<polygon fill="black" stroke="black" points="307.72,-219.56 306.65,-209.02 300.91,-217.93 307.72,-219.56"/>
<text text-anchor="start" x="301.64" y="-234.21" font-family="Monaco" font-size="11.00" fill="#fbb4ae">@b</text>
<text text-anchor="start" x="314.85" y="-234.21" font-family="Monaco" baseline-shift="sub" font-size="8.00" fill="#999999">b</text>
<text text-anchor="start" x="319.65" y="-234.21" font-family="Monaco" font-size="11.00" fill="#fbb4ae">,acc</text>
<text text-anchor="start" x="346.05" y="-234.21" font-family="Monaco" baseline-shift="sub" font-size="8.00" fill="#999999">a</text>
<text text-anchor="start" x="350.85" y="-234.21" font-family="Monaco" font-size="11.00" fill="#fbb4ae">,i</text>
<text text-anchor="start" x="364.05" y="-234.21" font-family="Monaco" baseline-shift="sub" font-size="8.00" fill="#999999">a</text>
<text text-anchor="start" x="368.85" y="-234.21" font-family="Monaco" font-size="11.00" fill="#fbb4ae">,@g</text>
<text text-anchor="start" x="388.66" y="-234.21" font-family="Monaco" baseline-shift="sub" font-size="8.00" fill="#999999">a</text>
<text text-anchor="start" x="393.46" y="-234.21" font-family="Monaco" font-size="11.00" fill="#fbb4ae">,@d</text>
<text text-anchor="start" x="413.26" y="-234.21" font-family="Monaco" baseline-shift="sub" font-size="8.00" fill="#999999">a</text>
<text text-anchor="start" x="418.06" y="-234.21" font-family="Monaco" font-size="11.00" fill="#fbb4ae">,@e</text>
<text text-anchor="start" x="437.87" y="-234.21" font-family="Monaco" baseline-shift="sub" font-size="8.00" fill="#999999">b</text>
<text text-anchor="start" x="442.67" y="-234.21" font-family="Monaco" font-size="11.00" fill="#fbb4ae">,a64</text>
<text text-anchor="start" x="469.07" y="-234.21" font-family="Monaco" baseline-shift="sub" font-size="8.00" fill="#999999">a</text>
<text text-anchor="start" x="473.87" y="-234.21" font-family="Monaco" font-size="11.00" fill="#fbb4ae">,@e</text>
<text text-anchor="start" x="493.68" y="-234.21" font-family="Monaco" baseline-shift="sub" font-size="8.00" fill="#999999">a</text>
<text text-anchor="start" x="498.48" y="-234.21" font-family="Monaco" font-size="11.00" fill="#fbb4ae">,@g</text>
<text text-anchor="start" x="518.28" y="-234.21" font-family="Monaco" baseline-shift="sub" font-size="8.00" fill="#999999">a</text>
<text text-anchor="start" x="523.08" y="-234.21" font-family="Monaco" font-size="11.00" fill="#fbb4ae">,@e</text>
<text text-anchor="start" x="542.88" y="-234.21" font-family="Monaco" baseline-shift="sub" font-size="8.00" fill="#999999">a</text>
<text text-anchor="start" x="547.68" y="-234.21" font-family="Monaco" font-size="11.00" fill="#fbb4ae">,@d</text>
<text text-anchor="start" x="567.49" y="-234.21" font-family="Monaco" baseline-shift="sub" font-size="8.00" fill="#999999">b</text>
<text text-anchor="start" x="572.29" y="-234.21" font-family="Monaco" font-size="11.00" fill="#fbb4ae">,@c</text>
<text text-anchor="start" x="592.09" y="-234.21" font-family="Monaco" baseline-shift="sub" font-size="8.00" fill="#999999">a</text>
<text text-anchor="start" x="596.89" y="-234.21" font-family="Monaco" font-size="11.00" fill="#fbb4ae">,@g</text>
<text text-anchor="start" x="616.7" y="-234.21" font-family="Monaco" baseline-shift="sub" font-size="8.00" fill="#999999">b</text>
<text text-anchor="start" x="621.5" y="-234.21" font-family="Monaco" font-size="11.00" fill="#fbb4ae">,@c</text>
<text text-anchor="start" x="641.3" y="-234.21" font-family="Monaco" baseline-shift="sub" font-size="8.00" fill="#999999">b</text>
<text text-anchor="start" x="646.1" y="-234.21" font-family="Monaco" font-size="11.00" fill="#fbb4ae">,a64</text>
<text text-anchor="start" x="672.5" y="-234.21" font-family="Monaco" baseline-shift="sub" font-size="8.00" fill="#999999">b</text>
<text text-anchor="start" x="677.3" y="-234.21" font-family="Monaco" font-size="11.00" fill="#fbb4ae">,@b</text>
<text text-anchor="start" x="697.11" y="-234.21" font-family="Monaco" baseline-shift="sub" font-size="8.00" fill="#999999">a</text>
</g>
<!-- Block0_5 -->
<g id="node7" class="node">
<title>Block0_5</title>
<polygon fill="none" stroke="black" points="296.95,-122.67 228.33,-122.67 228.33,-86.67 296.95,-86.67 296.95,-122.67"/>
<text text-anchor="middle" x="262.64" y="-103.2" font-family="Monaco" font-size="11.00">Block0_5</text>
</g>
<!-- Jump1_8&#45;&gt;Block0_5 -->
<g id="edge6" class="edge">
<title>Jump1_8&#45;&gt;Block0_5</title>
<path fill="none" stroke="black" d="M302.93,-176.73C296.04,-164.58 285.76,-146.44 277.31,-131.53"/>
<polygon fill="black" stroke="black" points="280.3,-129.72 272.33,-122.75 274.21,-133.17 280.3,-129.72"/>
<text text-anchor="start" x="288.64" y="-147.54" font-family="Monaco" font-size="11.00">!@b</text>
<text text-anchor="start" x="308.45" y="-147.54" font-family="Monaco" baseline-shift="sub" font-size="8.00" fill="#999999">b</text>
</g>
<!-- Block1_7 -->
<g id="node9" class="node">
<title>Block1_7</title>
<polygon fill="none" stroke="black" points="460.95,-122.67 392.33,-122.67 392.33,-86.67 460.95,-86.67 460.95,-122.67"/>
<text text-anchor="middle" x="426.64" y="-103.2" font-family="Monaco" font-size="11.00">Block1_7</text>
</g>
<!-- Jump1_8&#45;&gt;Block1_7 -->
<g id="edge8" class="edge">
<title>Jump1_8&#45;&gt;Block1_7</title>
<path fill="none" stroke="black" d="M322.13,-176.53C331.49,-165.86 345.42,-151.18 359.64,-140.67 366.85,-135.34 374.98,-130.36 383.03,-125.93"/>
<polygon fill="black" stroke="black" points="384.82,-128.94 392.02,-121.16 381.55,-122.75 384.82,-128.94"/>
<text text-anchor="start" x="358.64" y="-147.54" font-family="Monaco" font-size="11.00">@b</text>
<text text-anchor="start" x="371.85" y="-147.54" font-family="Monaco" baseline-shift="sub" font-size="8.00" fill="#999999">b</text>
</g>
<!-- Jump1_9 -->
<g id="node8" class="node">
<title>Jump1_9</title>
<polygon fill="#fbb4ae" stroke="black" points="-0.14,-12.44 109.64,0 219.43,-12.44 219.33,-32.56 -0.04,-32.56 -0.14,-12.44"/>
<text text-anchor="start" x="48.73" y="-17.53" font-family="Monaco" baseline-shift="super" font-size="8.00" fill="#ff4411">q5</text>
<text text-anchor="start" x="58.34" y="-17.53" font-family="Monaco" font-size="11.00">ForLoopBottom.1_9</text>
</g>
<!-- Block0_5&#45;&gt;Jump1_9 -->
<g id="edge9" class="edge">
<title>Block0_5&#45;&gt;Jump1_9</title>
<path fill="none" stroke="black" d="M228.04,-100.86C186.73,-96.72 121.32,-87.33 106.38,-68.67 100.63,-61.49 100.23,-51.7 101.71,-42.71"/>
<polygon fill="black" stroke="black" points="105.18,-43.27 104.12,-32.73 98.37,-41.63 105.18,-43.27"/>
<text text-anchor="start" x="106.64" y="-60.87" font-family="Monaco" font-size="11.00" fill="#fbb4ae">@b</text>
<text text-anchor="start" x="119.85" y="-60.87" font-family="Monaco" baseline-shift="sub" font-size="8.00" fill="#999999">c</text>
<text text-anchor="start" x="124.65" y="-60.87" font-family="Monaco" font-size="11.00" fill="#fbb4ae">,@e</text>
<text text-anchor="start" x="144.45" y="-60.87" font-family="Monaco" baseline-shift="sub" font-size="8.00" fill="#999999">a</text>
<text text-anchor="start" x="149.25" y="-60.87" font-family="Monaco" font-size="11.00" fill="#fbb4ae">,@g</text>
<text text-anchor="start" x="169.05" y="-60.87" font-family="Monaco" baseline-shift="sub" font-size="8.00" fill="#999999">a</text>
<text text-anchor="start" x="173.85" y="-60.87" font-family="Monaco" font-size="11.00" fill="#fbb4ae">,@g</text>
<text text-anchor="start" x="193.66" y="-60.87" font-family="Monaco" baseline-shift="sub" font-size="8.00" fill="#999999">b</text>
<text text-anchor="start" x="198.46" y="-60.87" font-family="Monaco" font-size="11.00" fill="#fbb4ae">,@d</text>
<text text-anchor="start" x="218.26" y="-60.87" font-family="Monaco" baseline-shift="sub" font-size="8.00" fill="#999999">b</text>
<text text-anchor="start" x="223.06" y="-60.87" font-family="Monaco" font-size="11.00" fill="#fbb4ae">,@e</text>
<text text-anchor="start" x="242.87" y="-60.87" font-family="Monaco" baseline-shift="sub" font-size="8.00" fill="#999999">c</text>
<text text-anchor="start" x="247.67" y="-60.87" font-family="Monaco" font-size="11.00" fill="#fbb4ae">,a64</text>
<text text-anchor="start" x="274.07" y="-60.87" font-family="Monaco" baseline-shift="sub" font-size="8.00" fill="#999999">b</text>
<text text-anchor="start" x="278.87" y="-60.87" font-family="Monaco" font-size="11.00" fill="#fbb4ae">,@e</text>
<text text-anchor="start" x="298.68" y="-60.87" font-family="Monaco" baseline-shift="sub" font-size="8.00" fill="#999999">b</text>
<text text-anchor="start" x="303.48" y="-60.87" font-family="Monaco" font-size="11.00" fill="#fbb4ae">,@g</text>
<text text-anchor="start" x="323.28" y="-60.87" font-family="Monaco" baseline-shift="sub" font-size="8.00" fill="#999999">b</text>
<text text-anchor="start" x="328.08" y="-60.87" font-family="Monaco" font-size="11.00" fill="#fbb4ae">,@e</text>
<text text-anchor="start" x="347.88" y="-60.87" font-family="Monaco" baseline-shift="sub" font-size="8.00" fill="#999999">b</text>
<text text-anchor="start" x="352.68" y="-60.87" font-family="Monaco" font-size="11.00" fill="#fbb4ae">,@d</text>
<text text-anchor="start" x="372.49" y="-60.87" font-family="Monaco" baseline-shift="sub" font-size="8.00" fill="#999999">c</text>
<text text-anchor="start" x="377.29" y="-60.87" font-family="Monaco" font-size="11.00" fill="#fbb4ae">,@c</text>
<text text-anchor="start" x="397.09" y="-60.87" font-family="Monaco" baseline-shift="sub" font-size="8.00" fill="#999999">b</text>
<text text-anchor="start" x="401.89" y="-60.87" font-family="Monaco" font-size="11.00" fill="#fbb4ae">,@g</text>
<text text-anchor="start" x="421.7" y="-60.87" font-family="Monaco" baseline-shift="sub" font-size="8.00" fill="#999999">c</text>
<text text-anchor="start" x="426.5" y="-60.87" font-family="Monaco" font-size="11.00" fill="#fbb4ae">,@c</text>
<text text-anchor="start" x="446.3" y="-60.87" font-family="Monaco" baseline-shift="sub" font-size="8.00" fill="#999999">c</text>
<text text-anchor="start" x="451.1" y="-60.87" font-family="Monaco" font-size="11.00" fill="#fbb4ae">,a64</text>
<text text-anchor="start" x="477.5" y="-60.87" font-family="Monaco" baseline-shift="sub" font-size="8.00" fill="#999999">c</text>
<text text-anchor="start" x="482.3" y="-60.87" font-family="Monaco" font-size="11.00" fill="#fbb4ae">,@b</text>
<text text-anchor="start" x="502.11" y="-60.87" font-family="Monaco" baseline-shift="sub" font-size="8.00" fill="#999999">b</text>
</g>
<!-- Jump1_9&#45;&gt;Jump1_8 -->
<g id="edge7" class="edge">
<title>Jump1_9&#45;&gt;Jump1_8</title>
<path fill="none" stroke="#fbb4ae" d="M219.46,-24.19C344.12,-30.63 531.77,-42.21 542.64,-54 596.63,-112.53 475.91,-153.55 389.17,-174.44"/>
<polygon fill="#fbb4ae" stroke="#fbb4ae" points="388.24,-171.06 379.31,-176.76 389.84,-177.88 388.24,-171.06"/>
</g>
<!-- Jump2_4_11 -->
<g id="node11" class="node">
<title>Jump2_4_11</title>
<polygon fill="none" stroke="black" points="588.56,-30 494.73,-30 494.73,-36 476.73,-18 494.73,0 494.73,-6 570.56,-6 570.56,0 588.56,0 588.56,-30"/>
<text text-anchor="start" x="484.94" y="-17.53" font-family="Monaco" baseline-shift="super" font-size="8.00" fill="#ff4411">q7</text>
<text text-anchor="start" x="494.54" y="-17.53" font-family="Monaco" font-size="11.00">Return.2_4_11</text>
</g>
<!-- Block1_7&#45;&gt;Jump2_4_11 -->
<g id="edge11" class="edge">
<title>Block1_7&#45;&gt;Jump2_4_11</title>
<path fill="none" stroke="black" d="M461.1,-95.75C477.79,-90.44 497.09,-81.92 510.64,-68.67 517.07,-62.39 521.76,-53.9 525.11,-45.72"/>
<polygon fill="black" stroke="black" points="528.49,-46.66 528.57,-36.07 521.9,-44.3 528.49,-46.66"/>
<text text-anchor="start" x="520.64" y="-60.87" font-family="Monaco" font-size="11.00">@e</text>
<text text-anchor="start" x="533.85" y="-60.87" font-family="Monaco" baseline-shift="sub" font-size="8.00" fill="#999999">a</text>
</g>
<!-- 11 -->
<g id="node12" class="node">
<title>11</title>
<ellipse fill="none" stroke="black" cx="391.64" cy="-516.59" rx="99.26" ry="18"/>
<text text-anchor="start" x="322.63" y="-516.13" font-family="Monaco" baseline-shift="super" font-size="8.00" fill="#ff4411">q1</text>
<text text-anchor="start" x="332.23" y="-516.13" font-family="Monaco" font-size="11.00">@b</text>
<text text-anchor="start" x="345.44" y="-516.13" font-family="Monaco" baseline-shift="sub" font-size="8.00" fill="#999999">a</text>
<text text-anchor="start" x="350.24" y="-516.13" font-family="Monaco" baseline-shift="super" font-size="8.00" fill="#00aa11">U1</text>
<text text-anchor="start" x="359.84" y="-516.13" font-family="Monaco" baseline-shift="super" font-size="8.00" fill="#3311ff">r0</text>
<text text-anchor="start" x="369.44" y="-516.13" font-family="Monaco" font-size="11.00">:i</text>
<text text-anchor="start" x="382.64" y="-516.13" font-family="Monaco" baseline-shift="sub" font-size="8.00" fill="#999999">a</text>
<text text-anchor="start" x="387.44" y="-516.13" font-family="Monaco" font-size="11.00">==</text>
<text text-anchor="start" x="400.65" y="-516.13" font-family="Monaco" baseline-shift="super" font-size="8.00" fill="#3311ff">Bin0</text>
<text text-anchor="start" x="419.85" y="-516.13" font-family="Monaco" font-size="11.00">1000</text>
<text text-anchor="start" x="446.25" y="-516.13" font-family="Monaco" baseline-shift="super" font-size="8.00" fill="#00aa11">U10</text>
</g>
<!-- 14 -->
<g id="node13" class="node">
<title>14</title>
<ellipse fill="none" stroke="black" cx="1133.64" cy="-516.59" rx="82.28" ry="18"/>
<text text-anchor="start" x="1077.83" y="-516.13" font-family="Monaco" baseline-shift="super" font-size="8.00" fill="#ff4411">q2</text>
<text text-anchor="start" x="1087.44" y="-516.13" font-family="Monaco" font-size="11.00">@g</text>
<text text-anchor="start" x="1100.64" y="-516.13" font-family="Monaco" baseline-shift="sub" font-size="8.00" fill="#999999">a</text>
<text text-anchor="start" x="1105.44" y="-516.13" font-family="Monaco" baseline-shift="super" font-size="8.00" fill="#00aa11">U10</text>
<text text-anchor="start" x="1119.84" y="-516.13" font-family="Monaco" baseline-shift="super" font-size="8.00" fill="#3311ff">r0</text>
<text text-anchor="start" x="1129.44" y="-516.13" font-family="Monaco" font-size="11.00">:i</text>
<text text-anchor="start" x="1142.65" y="-516.13" font-family="Monaco" baseline-shift="sub" font-size="8.00" fill="#999999">a</text>
<text text-anchor="start" x="1147.45" y="-516.13" font-family="Monaco" font-size="11.00">+</text>
<text text-anchor="start" x="1154.05" y="-516.13" font-family="Monaco" baseline-shift="super" font-size="8.00" fill="#3311ff">Bin1</text>
<text text-anchor="start" x="1173.25" y="-516.13" font-family="Monaco" font-size="11.00">1</text>
<text text-anchor="start" x="1179.85" y="-516.13" font-family="Monaco" baseline-shift="super" font-size="8.00" fill="#00aa11">U1</text>
</g>
<!-- 17 -->
<g id="node15" class="node">
<title>17</title>
<ellipse fill="none" stroke="black" cx="1112.64" cy="-443.59" rx="103.26" ry="18"/>
<text text-anchor="start" x="1040.33" y="-443.13" font-family="Monaco" baseline-shift="super" font-size="8.00" fill="#ff4411">q3</text>
<text text-anchor="start" x="1049.93" y="-443.13" font-family="Monaco" font-size="11.00">@b</text>
<text text-anchor="start" x="1063.14" y="-443.13" font-family="Monaco" baseline-shift="sub" font-size="8.00" fill="#999999">b</text>
<text text-anchor="start" x="1067.94" y="-443.13" font-family="Monaco" baseline-shift="super" font-size="8.00" fill="#00aa11">U1</text>
<text text-anchor="start" x="1077.54" y="-443.13" font-family="Monaco" baseline-shift="super" font-size="8.00" fill="#3311ff">r0</text>
<text text-anchor="start" x="1087.14" y="-443.13" font-family="Monaco" font-size="11.00">:@g</text>
<text text-anchor="start" x="1106.94" y="-443.13" font-family="Monaco" baseline-shift="sub" font-size="8.00" fill="#999999">a</text>
<text text-anchor="start" x="1111.74" y="-443.13" font-family="Monaco" font-size="11.00">==</text>
<text text-anchor="start" x="1124.95" y="-443.13" font-family="Monaco" baseline-shift="super" font-size="8.00" fill="#3311ff">Bin0</text>
<text text-anchor="start" x="1144.15" y="-443.13" font-family="Monaco" font-size="11.00">1000</text>
<text text-anchor="start" x="1170.55" y="-443.13" font-family="Monaco" baseline-shift="super" font-size="8.00" fill="#00aa11">U10</text>
</g>
<!-- 14&#45;&gt;17 -->
<g id="edge12" class="edge">
<title>14&#45;&gt;17</title>
<path fill="none" stroke="black" d="M1128.56,-498.41C1126.16,-490.29 1123.24,-480.43 1120.56,-471.37"/>
<polygon fill="black" stroke="black" points="1123.87,-470.22 1117.68,-461.62 1117.16,-472.2 1123.87,-470.22"/>
</g>
<!-- 13 -->
<g id="node14" class="node">
<title>13</title>
<ellipse fill="none" stroke="black" cx="979.64" cy="-516.59" rx="53.61" ry="18"/>
<text text-anchor="start" x="946.04" y="-516.13" font-family="Monaco" baseline-shift="super" font-size="8.00" fill="#ff4411">q2</text>
<text text-anchor="start" x="955.64" y="-516.13" font-family="Monaco" font-size="11.00">req a[i</text>
<text text-anchor="start" x="1001.85" y="-516.13" font-family="Monaco" baseline-shift="sub" font-size="8.00" fill="#999999">a</text>
<text text-anchor="start" x="1006.65" y="-516.13" font-family="Monaco" font-size="11.00">]</text>
</g>
<!-- 12 -->
<g id="node16" class="node">
<title>12</title>
<ellipse fill="none" stroke="black" cx="854.64" cy="-516.59" rx="53.61" ry="18"/>
<text text-anchor="start" x="821.04" y="-516.13" font-family="Monaco" baseline-shift="super" font-size="8.00" fill="#ff4411">q2</text>
<text text-anchor="start" x="830.64" y="-516.13" font-family="Monaco" font-size="11.00">req b[i</text>
<text text-anchor="start" x="876.85" y="-516.13" font-family="Monaco" baseline-shift="sub" font-size="8.00" fill="#999999">a</text>
<text text-anchor="start" x="881.65" y="-516.13" font-family="Monaco" font-size="11.00">]</text>
</g>
<!-- 16 -->
<g id="node17" class="node">
<title>16</title>
<ellipse fill="none" stroke="black" cx="722.64" cy="-516.59" rx="60.52" ry="18"/>
<text text-anchor="start" x="683.64" y="-516.13" font-family="Monaco" baseline-shift="super" font-size="8.00" fill="#ff4411">q3</text>
<text text-anchor="start" x="693.24" y="-516.13" font-family="Monaco" font-size="11.00">@c</text>
<text text-anchor="start" x="706.44" y="-516.13" font-family="Monaco" baseline-shift="sub" font-size="8.00" fill="#999999">a</text>
<text text-anchor="start" x="711.24" y="-516.13" font-family="Monaco" baseline-shift="super" font-size="8.00" fill="#00aa11">S27</text>
<text text-anchor="start" x="725.64" y="-516.13" font-family="Monaco" baseline-shift="super" font-size="8.00" fill="#3311ff">r1</text>
<text text-anchor="start" x="735.25" y="-516.13" font-family="Monaco" font-size="11.00">:b[]</text>
</g>
<!-- 15 -->
<g id="node18" class="node">
<title>15</title>
<ellipse fill="none" stroke="black" cx="579.64" cy="-516.59" rx="64.52" ry="18"/>
<text text-anchor="start" x="537.34" y="-516.13" font-family="Monaco" baseline-shift="super" font-size="8.00" fill="#ff4411">q3</text>
<text text-anchor="start" x="546.94" y="-516.13" font-family="Monaco" font-size="11.00">a64</text>
<text text-anchor="start" x="566.74" y="-516.13" font-family="Monaco" baseline-shift="sub" font-size="8.00" fill="#999999">a</text>
<text text-anchor="start" x="571.54" y="-516.13" font-family="Monaco" baseline-shift="super" font-size="8.00" fill="#00aa11">S64</text>
<text text-anchor="start" x="585.94" y="-516.13" font-family="Monaco" baseline-shift="super" font-size="8.00" fill="#3311ff">r2</text>
<text text-anchor="start" x="595.55" y="-516.13" font-family="Monaco" font-size="11.00">:a[]</text>
</g>
<!-- 20 -->
<g id="node19" class="node">
<title>20</title>
<ellipse fill="none" stroke="black" cx="2110.64" cy="-516.59" rx="57.61" ry="18"/>
<text text-anchor="start" x="2073.74" y="-516.13" font-family="Monaco" baseline-shift="super" font-size="8.00" fill="#ff4411">q4</text>
<text text-anchor="start" x="2083.34" y="-516.13" font-family="Monaco" font-size="11.00">req a[@g</text>
<text text-anchor="start" x="2136.15" y="-516.13" font-family="Monaco" baseline-shift="sub" font-size="8.00" fill="#999999">a</text>
<text text-anchor="start" x="2140.95" y="-516.13" font-family="Monaco" font-size="11.00">]</text>
</g>
<!-- 21 -->
<g id="node20" class="node">
<title>21</title>
<ellipse fill="none" stroke="black" cx="1948.64" cy="-516.59" rx="86.27" ry="18"/>
<text text-anchor="start" x="1889.53" y="-516.13" font-family="Monaco" baseline-shift="super" font-size="8.00" fill="#ff4411">q4</text>
<text text-anchor="start" x="1899.14" y="-516.13" font-family="Monaco" font-size="11.00">@g</text>
<text text-anchor="start" x="1912.34" y="-516.13" font-family="Monaco" baseline-shift="sub" font-size="8.00" fill="#999999">b</text>
<text text-anchor="start" x="1917.14" y="-516.13" font-family="Monaco" baseline-shift="super" font-size="8.00" fill="#00aa11">U10</text>
<text text-anchor="start" x="1931.54" y="-516.13" font-family="Monaco" baseline-shift="super" font-size="8.00" fill="#3311ff">r0</text>
<text text-anchor="start" x="1941.14" y="-516.13" font-family="Monaco" font-size="11.00">:@g</text>
<text text-anchor="start" x="1960.95" y="-516.13" font-family="Monaco" baseline-shift="sub" font-size="8.00" fill="#999999">a</text>
<text text-anchor="start" x="1965.75" y="-516.13" font-family="Monaco" font-size="11.00">+</text>
<text text-anchor="start" x="1972.35" y="-516.13" font-family="Monaco" baseline-shift="super" font-size="8.00" fill="#3311ff">Bin1</text>
<text text-anchor="start" x="1991.55" y="-516.13" font-family="Monaco" font-size="11.00">1</text>
<text text-anchor="start" x="1998.15" y="-516.13" font-family="Monaco" baseline-shift="super" font-size="8.00" fill="#00aa11">U1</text>
</g>
<!-- 25 -->
<g id="node26" class="node">
<title>25</title>
<ellipse fill="none" stroke="black" cx="1958.64" cy="-443.59" rx="103.26" ry="18"/>
<text text-anchor="start" x="1886.33" y="-443.13" font-family="Monaco" baseline-shift="super" font-size="8.00" fill="#ff4411">q5</text>
<text text-anchor="start" x="1895.93" y="-443.13" font-family="Monaco" font-size="11.00">@b</text>
<text text-anchor="start" x="1909.14" y="-443.13" font-family="Monaco" baseline-shift="sub" font-size="8.00" fill="#999999">c</text>
<text text-anchor="start" x="1913.94" y="-443.13" font-family="Monaco" baseline-shift="super" font-size="8.00" fill="#00aa11">U1</text>
<text text-anchor="start" x="1923.54" y="-443.13" font-family="Monaco" baseline-shift="super" font-size="8.00" fill="#3311ff">r0</text>
<text text-anchor="start" x="1933.14" y="-443.13" font-family="Monaco" font-size="11.00">:@g</text>
<text text-anchor="start" x="1952.94" y="-443.13" font-family="Monaco" baseline-shift="sub" font-size="8.00" fill="#999999">b</text>
<text text-anchor="start" x="1957.74" y="-443.13" font-family="Monaco" font-size="11.00">==</text>
<text text-anchor="start" x="1970.95" y="-443.13" font-family="Monaco" baseline-shift="super" font-size="8.00" fill="#3311ff">Bin0</text>
<text text-anchor="start" x="1990.15" y="-443.13" font-family="Monaco" font-size="11.00">1000</text>
<text text-anchor="start" x="2016.55" y="-443.13" font-family="Monaco" baseline-shift="super" font-size="8.00" fill="#00aa11">U10</text>
</g>
<!-- 21&#45;&gt;25 -->
<g id="edge14" class="edge">
<title>21&#45;&gt;25</title>
<path fill="none" stroke="black" d="M1951.06,-498.41C1952.19,-490.38 1953.57,-480.64 1954.83,-471.66"/>
<polygon fill="black" stroke="black" points="1958.32,-472.01 1956.25,-461.62 1951.38,-471.04 1958.32,-472.01"/>
</g>
<!-- 22 -->
<g id="node21" class="node">
<title>22</title>
<ellipse fill="none" stroke="black" cx="1745.64" cy="-443.59" rx="91.59" ry="18"/>
<text text-anchor="start" x="1682.33" y="-443.13" font-family="Monaco" baseline-shift="super" font-size="8.00" fill="#ff4411">q5</text>
<text text-anchor="start" x="1691.94" y="-443.13" font-family="Monaco" font-size="11.00">@e</text>
<text text-anchor="start" x="1705.14" y="-443.13" font-family="Monaco" baseline-shift="sub" font-size="8.00" fill="#999999">a</text>
<text text-anchor="start" x="1709.94" y="-443.13" font-family="Monaco" baseline-shift="super" font-size="8.00" fill="#00aa11">S64</text>
<text text-anchor="start" x="1724.34" y="-443.13" font-family="Monaco" baseline-shift="super" font-size="8.00" fill="#3311ff">r0</text>
<text text-anchor="start" x="1733.94" y="-443.13" font-family="Monaco" font-size="11.00">:acc</text>
<text text-anchor="start" x="1760.35" y="-443.13" font-family="Monaco" baseline-shift="sub" font-size="8.00" fill="#999999">a</text>
<text text-anchor="start" x="1765.15" y="-443.13" font-family="Monaco" font-size="11.00">+</text>
<text text-anchor="start" x="1771.75" y="-443.13" font-family="Monaco" baseline-shift="super" font-size="8.00" fill="#3311ff">Bin3</text>
<text text-anchor="start" x="1790.95" y="-443.13" font-family="Monaco" font-size="11.00">@d</text>
<text text-anchor="start" x="1804.15" y="-443.13" font-family="Monaco" baseline-shift="sub" font-size="8.00" fill="#999999">a</text>
</g>
<!-- 18 -->
<g id="node22" class="node">
<title>18</title>
<ellipse fill="none" stroke="black" cx="1752.64" cy="-516.59" rx="91.59" ry="18"/>
<text text-anchor="start" x="1689.33" y="-516.13" font-family="Monaco" baseline-shift="super" font-size="8.00" fill="#ff4411">q4</text>
<text text-anchor="start" x="1698.94" y="-516.13" font-family="Monaco" font-size="11.00">@d</text>
<text text-anchor="start" x="1712.14" y="-516.13" font-family="Monaco" baseline-shift="sub" font-size="8.00" fill="#999999">a</text>
<text text-anchor="start" x="1716.94" y="-516.13" font-family="Monaco" baseline-shift="super" font-size="8.00" fill="#00aa11">S64</text>
<text text-anchor="start" x="1731.34" y="-516.13" font-family="Monaco" baseline-shift="super" font-size="8.00" fill="#3311ff">r1</text>
<text text-anchor="start" x="1740.94" y="-516.13" font-family="Monaco" font-size="11.00">:a64</text>
<text text-anchor="start" x="1767.35" y="-516.13" font-family="Monaco" baseline-shift="sub" font-size="8.00" fill="#999999">a</text>
<text text-anchor="start" x="1772.15" y="-516.13" font-family="Monaco" font-size="11.00">*</text>
<text text-anchor="start" x="1778.75" y="-516.13" font-family="Monaco" baseline-shift="super" font-size="8.00" fill="#3311ff">Bin2</text>
<text text-anchor="start" x="1797.95" y="-516.13" font-family="Monaco" font-size="11.00">@c</text>
<text text-anchor="start" x="1811.15" y="-516.13" font-family="Monaco" baseline-shift="sub" font-size="8.00" fill="#999999">a</text>
</g>
<!-- 18&#45;&gt;22 -->
<g id="edge13" class="edge">
<title>18&#45;&gt;22</title>
<path fill="none" stroke="black" d="M1750.95,-498.41C1750.16,-490.38 1749.2,-480.64 1748.31,-471.66"/>
<polygon fill="black" stroke="black" points="1751.79,-471.23 1747.32,-461.62 1744.82,-471.92 1751.79,-471.23"/>
</g>
<!-- 23 -->
<g id="node23" class="node">
<title>23</title>
<ellipse fill="none" stroke="black" cx="1577.64" cy="-516.59" rx="64.52" ry="18"/>
<text text-anchor="start" x="1535.34" y="-516.13" font-family="Monaco" baseline-shift="super" font-size="8.00" fill="#ff4411">q5</text>
<text text-anchor="start" x="1544.94" y="-516.13" font-family="Monaco" font-size="11.00">a64</text>
<text text-anchor="start" x="1564.74" y="-516.13" font-family="Monaco" baseline-shift="sub" font-size="8.00" fill="#999999">b</text>
<text text-anchor="start" x="1569.54" y="-516.13" font-family="Monaco" baseline-shift="super" font-size="8.00" fill="#00aa11">S64</text>
<text text-anchor="start" x="1583.94" y="-516.13" font-family="Monaco" baseline-shift="super" font-size="8.00" fill="#3311ff">r0</text>
<text text-anchor="start" x="1593.55" y="-516.13" font-family="Monaco" font-size="11.00">:a[]</text>
</g>
<!-- 19 -->
<g id="node24" class="node">
<title>19</title>
<ellipse fill="none" stroke="black" cx="1436.64" cy="-516.59" rx="57.61" ry="18"/>
<text text-anchor="start" x="1399.74" y="-516.13" font-family="Monaco" baseline-shift="super" font-size="8.00" fill="#ff4411">q4</text>
<text text-anchor="start" x="1409.34" y="-516.13" font-family="Monaco" font-size="11.00">req b[@g</text>
<text text-anchor="start" x="1462.15" y="-516.13" font-family="Monaco" baseline-shift="sub" font-size="8.00" fill="#999999">a</text>
<text text-anchor="start" x="1466.95" y="-516.13" font-family="Monaco" font-size="11.00">]</text>
</g>
<!-- 24 -->
<g id="node25" class="node">
<title>24</title>
<ellipse fill="none" stroke="black" cx="1300.64" cy="-516.59" rx="60.52" ry="18"/>
<text text-anchor="start" x="1261.64" y="-516.13" font-family="Monaco" baseline-shift="super" font-size="8.00" fill="#ff4411">q5</text>
<text text-anchor="start" x="1271.24" y="-516.13" font-family="Monaco" font-size="11.00">@c</text>
<text text-anchor="start" x="1284.44" y="-516.13" font-family="Monaco" baseline-shift="sub" font-size="8.00" fill="#999999">b</text>
<text text-anchor="start" x="1289.24" y="-516.13" font-family="Monaco" baseline-shift="super" font-size="8.00" fill="#00aa11">S27</text>
<text text-anchor="start" x="1303.64" y="-516.13" font-family="Monaco" baseline-shift="super" font-size="8.00" fill="#3311ff">r0</text>
<text text-anchor="start" x="1313.25" y="-516.13" font-family="Monaco" font-size="11.00">:b[]</text>
</g>
<!-- 26 -->
<g id="node27" class="node">
<title>26</title>
<ellipse fill="none" stroke="black" cx="2284.64" cy="-516.59" rx="91.59" ry="18"/>
<text text-anchor="start" x="2221.33" y="-516.13" font-family="Monaco" baseline-shift="super" font-size="8.00" fill="#ff4411">q6</text>
<text text-anchor="start" x="2230.94" y="-516.13" font-family="Monaco" font-size="11.00">@d</text>
<text text-anchor="start" x="2244.14" y="-516.13" font-family="Monaco" baseline-shift="sub" font-size="8.00" fill="#999999">a</text>
<text text-anchor="start" x="2248.94" y="-516.13" font-family="Monaco" baseline-shift="super" font-size="8.00" fill="#00aa11">S64</text>
<text text-anchor="start" x="2263.34" y="-516.13" font-family="Monaco" baseline-shift="super" font-size="8.00" fill="#3311ff">r1</text>
<text text-anchor="start" x="2272.94" y="-516.13" font-family="Monaco" font-size="11.00">:a64</text>
<text text-anchor="start" x="2299.35" y="-516.13" font-family="Monaco" baseline-shift="sub" font-size="8.00" fill="#999999">a</text>
<text text-anchor="start" x="2304.15" y="-516.13" font-family="Monaco" font-size="11.00">*</text>
<text text-anchor="start" x="2310.75" y="-516.13" font-family="Monaco" baseline-shift="super" font-size="8.00" fill="#3311ff">Bin2</text>
<text text-anchor="start" x="2329.95" y="-516.13" font-family="Monaco" font-size="11.00">@c</text>
<text text-anchor="start" x="2343.15" y="-516.13" font-family="Monaco" baseline-shift="sub" font-size="8.00" fill="#999999">a</text>
</g>
<!-- 27 -->
<g id="node28" class="node">
<title>27</title>
<ellipse fill="none" stroke="black" cx="2284.64" cy="-443.59" rx="91.59" ry="18"/>
<text text-anchor="start" x="2221.33" y="-443.13" font-family="Monaco" baseline-shift="super" font-size="8.00" fill="#ff4411">q7</text>
<text text-anchor="start" x="2230.94" y="-443.13" font-family="Monaco" font-size="11.00">@e</text>
<text text-anchor="start" x="2244.14" y="-443.13" font-family="Monaco" baseline-shift="sub" font-size="8.00" fill="#999999">a</text>
<text text-anchor="start" x="2248.94" y="-443.13" font-family="Monaco" baseline-shift="super" font-size="8.00" fill="#00aa11">S64</text>
<text text-anchor="start" x="2263.34" y="-443.13" font-family="Monaco" baseline-shift="super" font-size="8.00" fill="#3311ff">r0</text>
<text text-anchor="start" x="2272.94" y="-443.13" font-family="Monaco" font-size="11.00">:acc</text>
<text text-anchor="start" x="2299.35" y="-443.13" font-family="Monaco" baseline-shift="sub" font-size="8.00" fill="#999999">a</text>
<text text-anchor="start" x="2304.15" y="-443.13" font-family="Monaco" font-size="11.00">+</text>
<text text-anchor="start" x="2310.75" y="-443.13" font-family="Monaco" baseline-shift="super" font-size="8.00" fill="#3311ff">Bin3</text>
<text text-anchor="start" x="2329.95" y="-443.13" font-family="Monaco" font-size="11.00">@d</text>
<text text-anchor="start" x="2343.15" y="-443.13" font-family="Monaco" baseline-shift="sub" font-size="8.00" fill="#999999">a</text>
</g>
<!-- 26&#45;&gt;27 -->
<g id="edge15" class="edge">
<title>26&#45;&gt;27</title>
<path fill="none" stroke="black" d="M2284.64,-498.41C2284.64,-490.38 2284.64,-480.64 2284.64,-471.66"/>
<polygon fill="black" stroke="black" points="2288.14,-471.62 2284.64,-461.62 2281.14,-471.62 2288.14,-471.62"/>
</g>
</g>
</svg>
