<?xml version="1.0" encoding="UTF-8" standalone="no"?>
<!DOCTYPE svg PUBLIC "-//W3C//DTD SVG 1.1//EN"
 "http://www.w3.org/Graphics/SVG/1.1/DTD/svg11.dtd">
<!-- Generated by graphviz version 2.43.0 (0)
 -->
<!-- Title: Program_ Pages: 1 -->
<svg width="484pt" height="164pt"
 viewBox="0.00 0.00 483.51 164.00" xmlns="http://www.w3.org/2000/svg" xmlns:xlink="http://www.w3.org/1999/xlink">
<g id="graph0" class="graph" transform="scale(1 1) rotate(0) translate(4 160)">
<title>Program_</title>
<polygon fill="white" stroke="transparent" points="-4,4 -4,-160 479.51,-160 479.51,4 -4,4"/>
<g id="clust1" class="cluster">
<title>cluster_dfg_Block0</title>
<polygon fill="none" stroke="black" points="106.51,-64 106.51,-148 467.51,-148 467.51,-64 106.51,-64"/>
<text text-anchor="start" x="265.4" y="-135.4" font-family="Monaco" font-size="12.00">Block0</text>
<text text-anchor="start" x="114.18" y="-123.4" font-family="Monaco" font-size="12.00">(acc&lt;a&gt;</text>
<text text-anchor="start" x="164.59" y="-123.4" font-family="Monaco" baseline-shift="super" font-size="8.00" fill="#00aa11">S64</text>
<text text-anchor="start" x="178.99" y="-123.4" font-family="Monaco" baseline-shift="super" font-size="8.00" fill="#3311ff">r?</text>
<text text-anchor="start" x="188.59" y="-123.4" font-family="Monaco" font-size="12.00">,i&lt;a&gt;</text>
<text text-anchor="start" x="224.6" y="-123.4" font-family="Monaco" baseline-shift="super" font-size="8.00" fill="#00aa11">U10</text>
<text text-anchor="start" x="239" y="-123.4" font-family="Monaco" baseline-shift="super" font-size="8.00" fill="#3311ff">r?</text>
<text text-anchor="start" x="248.6" y="-123.4" font-family="Monaco" font-size="12.00">=&gt;acc&lt;a&gt;</text>
<text text-anchor="start" x="306.21" y="-123.4" font-family="Monaco" baseline-shift="super" font-size="8.00" fill="#00aa11">S64</text>
<text text-anchor="start" x="320.61" y="-123.4" font-family="Monaco" baseline-shift="super" font-size="8.00" fill="#3311ff">r?</text>
<text text-anchor="start" x="330.21" y="-123.4" font-family="Monaco" font-size="12.00">,i&lt;a&gt;</text>
<text text-anchor="start" x="366.22" y="-123.4" font-family="Monaco" baseline-shift="super" font-size="8.00" fill="#00aa11">U10</text>
<text text-anchor="start" x="380.62" y="-123.4" font-family="Monaco" baseline-shift="super" font-size="8.00" fill="#3311ff">r?</text>
<text text-anchor="start" x="390.22" y="-123.4" font-family="Monaco" font-size="12.00">,@b&lt;a&gt;</text>
<text text-anchor="start" x="433.43" y="-123.4" font-family="Monaco" baseline-shift="super" font-size="8.00" fill="#00aa11">U1</text>
<text text-anchor="start" x="443.03" y="-123.4" font-family="Monaco" baseline-shift="super" font-size="8.00" fill="#3311ff">r?</text>
<text text-anchor="start" x="452.63" y="-123.4" font-family="Monaco" font-size="12.00">)</text>
</g>
<!-- Jump0 -->
<g id="node1" class="node">
<title>Jump0</title>
<polygon fill="none" stroke="black" points="97.02,-108 -0.01,-108 -0.01,-104 -4.01,-104 -4.01,-100 -0.01,-100 -0.01,-80 -4.01,-80 -4.01,-76 -0.01,-76 -0.01,-72 97.02,-72 97.02,-108"/>
<polyline fill="none" stroke="black" points="-0.01,-104 3.99,-104 3.99,-100 -0.01,-100 "/>
<polyline fill="none" stroke="black" points="-0.01,-80 3.99,-80 3.99,-76 -0.01,-76 "/>
<text text-anchor="start" x="10.7" y="-93.2" font-family="Monaco" baseline-shift="super" font-size="8.00" fill="#ff4411">q0</text>
<text text-anchor="start" x="20.3" y="-93.2" font-family="Monaco" font-size="11.00">StartFun.0</text>
<text text-anchor="start" x="8" y="-82.2" font-family="Monaco" font-size="11.00">i</text>
<text text-anchor="start" x="14.6" y="-82.2" font-family="Monaco" baseline-shift="super" font-size="8.00" fill="#00aa11">U10</text>
<text text-anchor="start" x="29" y="-82.2" font-family="Monaco" baseline-shift="super" font-size="8.00" fill="#3311ff">r?</text>
<text text-anchor="start" x="38.6" y="-82.2" font-family="Monaco" font-size="11.00">,acc</text>
<text text-anchor="start" x="65.01" y="-82.2" font-family="Monaco" baseline-shift="super" font-size="8.00" fill="#00aa11">S64</text>
<text text-anchor="start" x="79.41" y="-82.2" font-family="Monaco" baseline-shift="super" font-size="8.00" fill="#3311ff">r?</text>
</g>
<!-- Block0 -->
<g id="node2" class="node">
<title>Block0</title>
<polygon fill="none" stroke="black" points="76.11,-36 20.9,-36 20.9,0 76.11,0 76.11,-36"/>
<text text-anchor="middle" x="48.51" y="-16.53" font-family="Monaco" font-size="11.00">Block0</text>
</g>
<!-- Jump0&#45;&gt;Block0 -->
<g id="edge1" class="edge">
<title>Jump0&#45;&gt;Block0</title>
<path fill="none" stroke="black" d="M48.51,-71.7C48.51,-63.98 48.51,-54.71 48.51,-46.11"/>
<polygon fill="black" stroke="black" points="52.01,-46.1 48.51,-36.1 45.01,-46.1 52.01,-46.1"/>
</g>
<!-- 1 -->
<g id="node3" class="node">
<title>1</title>
<ellipse fill="none" stroke="black" cx="287.51" cy="-90" rx="109.35" ry="18"/>
<text text-anchor="start" x="210.69" y="-89.53" font-family="Monaco" baseline-shift="super" font-size="8.00" fill="#ff4411">q1</text>
<text text-anchor="start" x="220.3" y="-89.53" font-family="Monaco" font-size="11.00">@b&lt;a&gt;</text>
<text text-anchor="start" x="253.3" y="-89.53" font-family="Monaco" baseline-shift="super" font-size="8.00" fill="#00aa11">U1</text>
<text text-anchor="start" x="262.9" y="-89.53" font-family="Monaco" baseline-shift="super" font-size="8.00" fill="#3311ff">r?</text>
<text text-anchor="start" x="272.5" y="-89.53" font-family="Monaco" font-size="11.00">:i&lt;a&gt;==</text>
<text text-anchor="start" x="318.71" y="-89.53" font-family="Monaco" baseline-shift="super" font-size="8.00" fill="#3311ff">?</text>
<text text-anchor="start" x="323.51" y="-89.53" font-family="Monaco" font-size="11.00">1000</text>
<text text-anchor="start" x="349.92" y="-89.53" font-family="Monaco" baseline-shift="super" font-size="8.00" fill="#00aa11">U10</text>
</g>
</g>
</svg>
