<?xml version="1.0" encoding="UTF-8" standalone="no"?>
<!DOCTYPE svg PUBLIC "-//W3C//DTD SVG 1.1//EN"
 "http://www.w3.org/Graphics/SVG/1.1/DTD/svg11.dtd">
<!-- Generated by graphviz version 2.43.0 (0)
 -->
<!-- Title: Program_ Pages: 1 -->
<svg width="1126pt" height="492pt"
 viewBox="0.00 0.00 1125.81 492.34" xmlns="http://www.w3.org/2000/svg" xmlns:xlink="http://www.w3.org/1999/xlink">
<g id="graph0" class="graph" transform="scale(1 1) rotate(0) translate(4 488.34)">
<title>Program_</title>
<polygon fill="white" stroke="transparent" points="-4,4 -4,-488.34 1121.81,-488.34 1121.81,4 -4,4"/>
<g id="clust1" class="cluster">
<title>cluster_dfg_Block0</title>
<polygon fill="none" stroke="black" points="174.81,-254.34 174.81,-476.34 562.81,-476.34 562.81,-254.34 174.81,-254.34"/>
<text text-anchor="middle" x="368.81" y="-462.74" font-family="Monaco" font-size="12.00">Block0</text>
</g>
<g id="clust2" class="cluster">
<title>cluster_dfg_Block1</title>
<polygon fill="none" stroke="black" points="570.81,-327.34 570.81,-476.34 700.81,-476.34 700.81,-327.34 570.81,-327.34"/>
<text text-anchor="middle" x="635.81" y="-462.74" font-family="Monaco" font-size="12.00">Block1</text>
</g>
<g id="clust3" class="cluster">
<title>cluster_dfg_Block2</title>
<polygon fill="none" stroke="black" points="708.81,-8 708.81,-476.34 1109.81,-476.34 1109.81,-8 708.81,-8"/>
<text text-anchor="middle" x="909.31" y="-462.74" font-family="Monaco" font-size="12.00">Block2</text>
</g>
<!-- Jump0 -->
<g id="node1" class="node">
<title>Jump0</title>
<polygon fill="none" stroke="black" points="141.42,-444.34 50.19,-444.34 50.19,-440.34 46.19,-440.34 46.19,-436.34 50.19,-436.34 50.19,-416.34 46.19,-416.34 46.19,-412.34 50.19,-412.34 50.19,-408.34 141.42,-408.34 141.42,-444.34"/>
<polyline fill="none" stroke="black" points="50.19,-440.34 54.19,-440.34 54.19,-436.34 50.19,-436.34 "/>
<polyline fill="none" stroke="black" points="50.19,-416.34 54.19,-416.34 54.19,-412.34 50.19,-412.34 "/>
<text text-anchor="start" x="58" y="-429.54" font-family="Monaco" font-size="11.00">StartFun.0</text>
<text text-anchor="start" x="124.01" y="-429.54" font-family="Monaco" baseline-shift="super" font-size="8.00" fill="#ff4411">q0</text>
<text text-anchor="start" x="79.3" y="-418.54" font-family="Monaco" font-size="11.00">i,acc</text>
</g>
<!-- Block0 -->
<g id="node2" class="node">
<title>Block0</title>
<polygon fill="none" stroke="black" points="123.41,-371.34 68.2,-371.34 68.2,-335.34 123.41,-335.34 123.41,-371.34"/>
<text text-anchor="middle" x="95.81" y="-351.87" font-family="Monaco" font-size="11.00">Block0</text>
</g>
<!-- Jump0&#45;&gt;Block0 -->
<g id="edge1" class="edge">
<title>Jump0&#45;&gt;Block0</title>
<path fill="none" stroke="black" d="M95.81,-408.15C95.81,-400.13 95.81,-390.38 95.81,-381.41"/>
<polygon fill="black" stroke="black" points="99.31,-381.37 95.81,-371.37 92.31,-381.37 99.31,-381.37"/>
</g>
<!-- Jump1 -->
<g id="node3" class="node">
<title>Jump1</title>
<path fill="none" stroke="black" d="M125.41,-298.34C125.41,-298.34 66.2,-298.34 66.2,-298.34 60.2,-298.34 50.39,-293.7 46.57,-289.07 46.57,-289.07 32.19,-271.6 32.19,-271.6 28.38,-266.97 30.57,-262.34 36.57,-262.34 36.57,-262.34 155.05,-262.34 155.05,-262.34 161.05,-262.34 163.23,-266.97 159.42,-271.6 159.42,-271.6 145.04,-289.07 145.04,-289.07 141.23,-293.7 131.41,-298.34 125.41,-298.34"/>
<text text-anchor="start" x="64.6" y="-279.87" font-family="Monaco" font-size="11.00">Branch.1</text>
<text text-anchor="start" x="117.41" y="-279.87" font-family="Monaco" baseline-shift="super" font-size="8.00" fill="#ff4411">q2</text>
</g>
<!-- Block0&#45;&gt;Jump1 -->
<g id="edge2" class="edge">
<title>Block0&#45;&gt;Jump1</title>
<path fill="none" stroke="black" d="M95.81,-335.15C95.81,-327.13 95.81,-317.38 95.81,-308.41"/>
<polygon fill="black" stroke="black" points="99.31,-308.37 95.81,-298.37 92.31,-308.37 99.31,-308.37"/>
</g>
<!-- Block1 -->
<g id="node4" class="node">
<title>Block1</title>
<polygon fill="none" stroke="black" points="86.41,-211.67 31.2,-211.67 31.2,-175.67 86.41,-175.67 86.41,-211.67"/>
<text text-anchor="middle" x="58.81" y="-192.2" font-family="Monaco" font-size="11.00">Block1</text>
</g>
<!-- Jump1&#45;&gt;Block1 -->
<g id="edge3" class="edge">
<title>Jump1&#45;&gt;Block1</title>
<path fill="none" stroke="black" d="M88.32,-262.2C83.15,-250.38 76.19,-234.44 70.32,-221.01"/>
<polygon fill="black" stroke="black" points="73.49,-219.54 66.28,-211.78 67.08,-222.34 73.49,-219.54"/>
<text text-anchor="middle" x="86.41" y="-235.54" font-family="Monaco" font-size="11.00">@b</text>
</g>
<!-- Block2 -->
<g id="node5" class="node">
<title>Block2</title>
<polygon fill="none" stroke="black" points="184.41,-211.67 129.2,-211.67 129.2,-175.67 184.41,-175.67 184.41,-211.67"/>
<text text-anchor="middle" x="156.81" y="-192.2" font-family="Monaco" font-size="11.00">Block2</text>
</g>
<!-- Jump1&#45;&gt;Block2 -->
<g id="edge4" class="edge">
<title>Jump1&#45;&gt;Block2</title>
<path fill="none" stroke="black" d="M108.15,-262.2C116.83,-250.15 128.6,-233.82 138.39,-220.23"/>
<polygon fill="black" stroke="black" points="141.47,-221.94 144.48,-211.78 135.79,-217.84 141.47,-221.94"/>
<text text-anchor="middle" x="140.71" y="-235.54" font-family="Monaco" font-size="11.00">!@b</text>
</g>
<!-- Jump2_4 -->
<g id="node6" class="node">
<title>Jump2_4</title>
<polygon fill="none" stroke="black" points="91.42,-119 18.19,-119 18.19,-125 0.19,-107 18.19,-89 18.19,-95 73.42,-95 73.42,-89 91.42,-89 91.42,-119"/>
<text text-anchor="start" x="8" y="-106.53" font-family="Monaco" font-size="11.00">Return.2_4</text>
<text text-anchor="start" x="74.01" y="-106.53" font-family="Monaco" baseline-shift="super" font-size="8.00" fill="#ff4411">q4</text>
</g>
<!-- Block1&#45;&gt;Jump2_4 -->
<g id="edge5" class="edge">
<title>Block1&#45;&gt;Jump2_4</title>
<path fill="none" stroke="black" d="M56.18,-175.53C54.4,-163.94 52.01,-148.39 49.97,-135.13"/>
<polygon fill="black" stroke="black" points="53.41,-134.46 48.43,-125.11 46.49,-135.52 53.41,-134.46"/>
<text text-anchor="middle" x="63.71" y="-148.87" font-family="Monaco" font-size="11.00">acc</text>
</g>
<!-- Jump2_5_6 -->
<g id="node7" class="node">
<title>Jump2_5_6</title>
<polygon fill="none" stroke="black" points="227.82,-125 109.79,-125 109.79,-121 105.79,-121 105.79,-117 109.79,-117 109.79,-97 105.79,-97 105.79,-93 109.79,-93 109.79,-89 227.82,-89 227.82,-125"/>
<polyline fill="none" stroke="black" points="109.79,-121 113.79,-121 113.79,-117 109.79,-117 "/>
<polyline fill="none" stroke="black" points="109.79,-97 113.79,-97 113.79,-93 109.79,-93 "/>
<text text-anchor="start" x="117.8" y="-110.2" font-family="Monaco" font-size="11.00">TailCall.2_5_6</text>
<text text-anchor="start" x="210.21" y="-110.2" font-family="Monaco" baseline-shift="super" font-size="8.00" fill="#ff4411">q9</text>
<text text-anchor="start" x="122.6" y="-99.2" font-family="Monaco" font-size="11.00">dotProd(@g,@e)</text>
</g>
<!-- Block2&#45;&gt;Jump2_5_6 -->
<g id="edge6" class="edge">
<title>Block2&#45;&gt;Jump2_5_6</title>
<path fill="none" stroke="black" d="M159.23,-175.53C160.88,-163.94 163.08,-148.39 164.96,-135.13"/>
<polygon fill="black" stroke="black" points="168.44,-135.5 166.38,-125.11 161.51,-134.52 168.44,-135.5"/>
</g>
<!-- 0 -->
<g id="node8" class="node">
<title>0</title>
<ellipse fill="none" stroke="black" cx="360.81" cy="-426.34" rx="61.83" ry="18"/>
<text text-anchor="start" x="320.9" y="-425.87" font-family="Monaco" font-size="11.00">@a</text>
<text text-anchor="start" x="334.1" y="-425.87" font-family="Monaco" baseline-shift="super" font-size="8.00" fill="#00aa11">U10</text>
<text text-anchor="start" x="348.5" y="-425.87" font-family="Monaco" baseline-shift="super" font-size="8.00" fill="#3311ff">r2</text>
<text text-anchor="start" x="358.11" y="-425.87" font-family="Monaco" font-size="11.00">:1000</text>
<text text-anchor="start" x="391.11" y="-425.87" font-family="Monaco" baseline-shift="super" font-size="8.00" fill="#ff4411">q0</text>
</g>
<!-- 1 -->
<g id="node10" class="node">
<title>1</title>
<ellipse fill="none" stroke="black" cx="359.81" cy="-353.34" rx="75.37" ry="18"/>
<text text-anchor="start" x="309.4" y="-352.87" font-family="Monaco" font-size="11.00">@b</text>
<text text-anchor="start" x="322.6" y="-352.87" font-family="Monaco" baseline-shift="super" font-size="8.00" fill="#00aa11">U1</text>
<text text-anchor="start" x="332.2" y="-352.87" font-family="Monaco" baseline-shift="super" font-size="8.00" fill="#3311ff">r2</text>
<text text-anchor="start" x="341.8" y="-352.87" font-family="Monaco" font-size="11.00">:i==</text>
<text text-anchor="start" x="368.21" y="-352.87" font-family="Monaco" baseline-shift="super" font-size="8.00" fill="#3311ff">Bin0</text>
<text text-anchor="start" x="387.41" y="-352.87" font-family="Monaco" font-size="11.00">@a</text>
<text text-anchor="start" x="400.61" y="-352.87" font-family="Monaco" baseline-shift="super" font-size="8.00" fill="#ff4411">q1</text>
</g>
<!-- 0&#45;&gt;1 -->
<g id="edge7" class="edge">
<title>0&#45;&gt;1</title>
<path fill="none" stroke="black" d="M360.56,-408.15C360.45,-400.13 360.31,-390.38 360.19,-381.41"/>
<polygon fill="black" stroke="black" points="363.69,-381.32 360.05,-371.37 356.69,-381.41 363.69,-381.32"/>
</g>
<!-- 20 -->
<g id="node9" class="node">
<title>20</title>
<ellipse fill="#ffffee" stroke="black" cx="503.81" cy="-353.34" rx="50.43" ry="18"/>
<text text-anchor="start" x="472.6" y="-352.87" font-family="Monaco" font-size="11.00">out(acc)</text>
<text text-anchor="start" x="525.41" y="-352.87" font-family="Monaco" baseline-shift="super" font-size="8.00" fill="#ff4411">q2</text>
</g>
<!-- 22 -->
<g id="node12" class="node">
<title>22</title>
<ellipse fill="#ffffee" stroke="black" cx="359.81" cy="-280.34" rx="46.44" ry="18"/>
<text text-anchor="start" x="331.9" y="-279.87" font-family="Monaco" font-size="11.00">out(@b)</text>
<text text-anchor="start" x="378.11" y="-279.87" font-family="Monaco" baseline-shift="super" font-size="8.00" fill="#ff4411">q2</text>
</g>
<!-- 1&#45;&gt;22 -->
<g id="edge8" class="edge">
<title>1&#45;&gt;22</title>
<path fill="none" stroke="black" d="M359.81,-335.15C359.81,-327.13 359.81,-317.38 359.81,-308.41"/>
<polygon fill="black" stroke="black" points="363.31,-308.37 359.81,-298.37 356.31,-308.37 363.31,-308.37"/>
</g>
<!-- 21 -->
<g id="node11" class="node">
<title>21</title>
<ellipse fill="#ffffee" stroke="black" cx="224.81" cy="-353.34" rx="41.94" ry="18"/>
<text text-anchor="start" x="200.2" y="-352.87" font-family="Monaco" font-size="11.00">out(i)</text>
<text text-anchor="start" x="239.81" y="-352.87" font-family="Monaco" baseline-shift="super" font-size="8.00" fill="#ff4411">q2</text>
</g>
<!-- 18 -->
<g id="node13" class="node">
<title>18</title>
<ellipse fill="#ffeeff" stroke="black" cx="497.81" cy="-426.34" rx="57.34" ry="18"/>
<text text-anchor="start" x="461.2" y="-425.87" font-family="Monaco" font-size="11.00">acc</text>
<text text-anchor="start" x="481" y="-425.87" font-family="Monaco" baseline-shift="super" font-size="8.00" fill="#00aa11">S64</text>
<text text-anchor="start" x="495.41" y="-425.87" font-family="Monaco" baseline-shift="super" font-size="8.00" fill="#3311ff">r1</text>
<text text-anchor="start" x="505.01" y="-425.87" font-family="Monaco" font-size="11.00">:in</text>
<text text-anchor="start" x="524.81" y="-425.87" font-family="Monaco" baseline-shift="super" font-size="8.00" fill="#ff4411">q0</text>
</g>
<!-- 18&#45;&gt;20 -->
<g id="edge9" class="edge">
<title>18&#45;&gt;20</title>
<path fill="none" stroke="black" d="M499.26,-408.15C499.94,-400.13 500.76,-390.38 501.52,-381.41"/>
<polygon fill="black" stroke="black" points="505.01,-381.62 502.37,-371.37 498.04,-381.04 505.01,-381.62"/>
</g>
<!-- 19 -->
<g id="node14" class="node">
<title>19</title>
<ellipse fill="#ffeeff" stroke="black" cx="231.81" cy="-426.34" rx="48.84" ry="18"/>
<text text-anchor="start" x="201.8" y="-425.87" font-family="Monaco" font-size="11.00">i</text>
<text text-anchor="start" x="208.4" y="-425.87" font-family="Monaco" baseline-shift="super" font-size="8.00" fill="#00aa11">U10</text>
<text text-anchor="start" x="222.8" y="-425.87" font-family="Monaco" baseline-shift="super" font-size="8.00" fill="#3311ff">r0</text>
<text text-anchor="start" x="232.41" y="-425.87" font-family="Monaco" font-size="11.00">:in</text>
<text text-anchor="start" x="252.21" y="-425.87" font-family="Monaco" baseline-shift="super" font-size="8.00" fill="#ff4411">q0</text>
</g>
<!-- 19&#45;&gt;1 -->
<g id="edge10" class="edge">
<title>19&#45;&gt;1</title>
<path fill="none" stroke="black" d="M257.71,-410.97C276.29,-400.66 301.61,-386.62 322.38,-375.1"/>
<polygon fill="black" stroke="black" points="324.22,-378.08 331.27,-370.17 320.83,-371.96 324.22,-378.08"/>
</g>
<!-- 19&#45;&gt;21 -->
<g id="edge11" class="edge">
<title>19&#45;&gt;21</title>
<path fill="none" stroke="black" d="M230.11,-408.15C229.32,-400.13 228.36,-390.38 227.47,-381.41"/>
<polygon fill="black" stroke="black" points="230.95,-380.97 226.49,-371.37 223.98,-381.66 230.95,-380.97"/>
</g>
<!-- 13 -->
<g id="node15" class="node">
<title>13</title>
<ellipse fill="#ffeeff" stroke="black" cx="635.81" cy="-426.34" rx="57.34" ry="18"/>
<text text-anchor="start" x="599.2" y="-425.87" font-family="Monaco" font-size="11.00">acc</text>
<text text-anchor="start" x="619" y="-425.87" font-family="Monaco" baseline-shift="super" font-size="8.00" fill="#00aa11">S64</text>
<text text-anchor="start" x="633.41" y="-425.87" font-family="Monaco" baseline-shift="super" font-size="8.00" fill="#3311ff">r1</text>
<text text-anchor="start" x="643.01" y="-425.87" font-family="Monaco" font-size="11.00">:in</text>
<text text-anchor="start" x="662.81" y="-425.87" font-family="Monaco" baseline-shift="super" font-size="8.00" fill="#ff4411">q2</text>
</g>
<!-- 14 -->
<g id="node16" class="node">
<title>14</title>
<ellipse fill="#ffffee" stroke="black" cx="635.81" cy="-353.34" rx="50.43" ry="18"/>
<text text-anchor="start" x="604.6" y="-352.87" font-family="Monaco" font-size="11.00">out(acc)</text>
<text text-anchor="start" x="657.41" y="-352.87" font-family="Monaco" baseline-shift="super" font-size="8.00" fill="#ff4411">q4</text>
</g>
<!-- 13&#45;&gt;14 -->
<g id="edge12" class="edge">
<title>13&#45;&gt;14</title>
<path fill="none" stroke="black" d="M635.81,-408.15C635.81,-400.13 635.81,-390.38 635.81,-381.41"/>
<polygon fill="black" stroke="black" points="639.31,-381.37 635.81,-371.37 632.31,-381.37 639.31,-381.37"/>
</g>
<!-- 5 -->
<g id="node17" class="node">
<title>5</title>
<ellipse fill="none" stroke="black" cx="1044.81" cy="-280.34" rx="57.34" ry="18"/>
<text text-anchor="start" x="1008.2" y="-279.87" font-family="Monaco" font-size="11.00">@c</text>
<text text-anchor="start" x="1021.4" y="-279.87" font-family="Monaco" baseline-shift="super" font-size="8.00" fill="#00aa11">S27</text>
<text text-anchor="start" x="1035.8" y="-279.87" font-family="Monaco" baseline-shift="super" font-size="8.00" fill="#3311ff">r2</text>
<text text-anchor="start" x="1045.41" y="-279.87" font-family="Monaco" font-size="11.00">:b[]</text>
<text text-anchor="start" x="1071.81" y="-279.87" font-family="Monaco" baseline-shift="super" font-size="8.00" fill="#ff4411">q6</text>
</g>
<!-- 6 -->
<g id="node19" class="node">
<title>6</title>
<ellipse fill="none" stroke="black" cx="959.81" cy="-193.67" rx="82.55" ry="18"/>
<text text-anchor="start" x="903.7" y="-193.2" font-family="Monaco" font-size="11.00">@d</text>
<text text-anchor="start" x="916.9" y="-193.2" font-family="Monaco" baseline-shift="super" font-size="8.00" fill="#00aa11">S64</text>
<text text-anchor="start" x="931.3" y="-193.2" font-family="Monaco" baseline-shift="super" font-size="8.00" fill="#3311ff">r2</text>
<text text-anchor="start" x="940.9" y="-193.2" font-family="Monaco" font-size="11.00">:a64*</text>
<text text-anchor="start" x="973.91" y="-193.2" font-family="Monaco" baseline-shift="super" font-size="8.00" fill="#3311ff">Bin2</text>
<text text-anchor="start" x="993.11" y="-193.2" font-family="Monaco" font-size="11.00">@c</text>
<text text-anchor="start" x="1006.31" y="-193.2" font-family="Monaco" baseline-shift="super" font-size="8.00" fill="#ff4411">q7</text>
</g>
<!-- 5&#45;&gt;6 -->
<g id="edge14" class="edge">
<title>5&#45;&gt;6</title>
<path fill="none" stroke="black" d="M1028.42,-263.01C1015.76,-250.41 998.07,-232.78 983.82,-218.59"/>
<polygon fill="black" stroke="black" points="986.28,-216.1 976.73,-211.52 981.34,-221.06 986.28,-216.1"/>
</g>
<!-- 24 -->
<g id="node18" class="node">
<title>24</title>
<ellipse fill="#ffffee" stroke="black" cx="837.81" cy="-34" rx="46.44" ry="18"/>
<text text-anchor="start" x="809.9" y="-33.53" font-family="Monaco" font-size="11.00">out(@e)</text>
<text text-anchor="start" x="856.11" y="-33.53" font-family="Monaco" baseline-shift="super" font-size="8.00" fill="#ff4411">q9</text>
</g>
<!-- 7 -->
<g id="node22" class="node">
<title>7</title>
<ellipse fill="none" stroke="black" cx="837.81" cy="-107" rx="82.55" ry="18"/>
<text text-anchor="start" x="781.7" y="-106.53" font-family="Monaco" font-size="11.00">@e</text>
<text text-anchor="start" x="794.9" y="-106.53" font-family="Monaco" baseline-shift="super" font-size="8.00" fill="#00aa11">S64</text>
<text text-anchor="start" x="809.3" y="-106.53" font-family="Monaco" baseline-shift="super" font-size="8.00" fill="#3311ff">r1</text>
<text text-anchor="start" x="818.9" y="-106.53" font-family="Monaco" font-size="11.00">:acc+</text>
<text text-anchor="start" x="851.91" y="-106.53" font-family="Monaco" baseline-shift="super" font-size="8.00" fill="#3311ff">Bin3</text>
<text text-anchor="start" x="871.11" y="-106.53" font-family="Monaco" font-size="11.00">@d</text>
<text text-anchor="start" x="884.31" y="-106.53" font-family="Monaco" baseline-shift="super" font-size="8.00" fill="#ff4411">q8</text>
</g>
<!-- 6&#45;&gt;7 -->
<g id="edge15" class="edge">
<title>6&#45;&gt;7</title>
<path fill="none" stroke="black" d="M936.28,-176.34C917.3,-163.17 890.4,-144.5 869.51,-130"/>
<polygon fill="black" stroke="black" points="871.47,-127.1 861.26,-124.27 867.48,-132.85 871.47,-127.1"/>
</g>
<!-- 9 -->
<g id="node20" class="node">
<title>9</title>
<ellipse fill="none" stroke="black" cx="790.81" cy="-353.34" rx="74.05" ry="18"/>
<text text-anchor="start" x="741.3" y="-352.87" font-family="Monaco" font-size="11.00">@g</text>
<text text-anchor="start" x="754.5" y="-352.87" font-family="Monaco" baseline-shift="super" font-size="8.00" fill="#00aa11">U10</text>
<text text-anchor="start" x="768.9" y="-352.87" font-family="Monaco" baseline-shift="super" font-size="8.00" fill="#3311ff">r0</text>
<text text-anchor="start" x="778.5" y="-352.87" font-family="Monaco" font-size="11.00">:i+</text>
<text text-anchor="start" x="798.31" y="-352.87" font-family="Monaco" baseline-shift="super" font-size="8.00" fill="#3311ff">Bin1</text>
<text text-anchor="start" x="817.51" y="-352.87" font-family="Monaco" font-size="11.00">@f</text>
<text text-anchor="start" x="830.71" y="-352.87" font-family="Monaco" baseline-shift="super" font-size="8.00" fill="#ff4411">q5</text>
</g>
<!-- 23 -->
<g id="node25" class="node">
<title>23</title>
<ellipse fill="#ffffee" stroke="black" cx="781.81" cy="-280.34" rx="46.44" ry="18"/>
<text text-anchor="start" x="753.9" y="-279.87" font-family="Monaco" font-size="11.00">out(@g)</text>
<text text-anchor="start" x="800.11" y="-279.87" font-family="Monaco" baseline-shift="super" font-size="8.00" fill="#ff4411">q9</text>
</g>
<!-- 9&#45;&gt;23 -->
<g id="edge18" class="edge">
<title>9&#45;&gt;23</title>
<path fill="none" stroke="black" d="M788.63,-335.15C787.61,-327.13 786.38,-317.38 785.24,-308.41"/>
<polygon fill="black" stroke="black" points="788.69,-307.85 783.96,-298.37 781.75,-308.73 788.69,-307.85"/>
</g>
<!-- 2 -->
<g id="node21" class="node">
<title>2</title>
<ellipse fill="none" stroke="black" cx="932.81" cy="-353.34" rx="50.43" ry="18"/>
<text text-anchor="start" x="901.6" y="-352.87" font-family="Monaco" font-size="11.00">req a[i]</text>
<text text-anchor="start" x="954.41" y="-352.87" font-family="Monaco" baseline-shift="super" font-size="8.00" fill="#ff4411">q5</text>
</g>
<!-- 3 -->
<g id="node23" class="node">
<title>3</title>
<ellipse fill="none" stroke="black" cx="907.81" cy="-280.34" rx="61.83" ry="18"/>
<text text-anchor="start" x="867.9" y="-279.87" font-family="Monaco" font-size="11.00">a64</text>
<text text-anchor="start" x="887.7" y="-279.87" font-family="Monaco" baseline-shift="super" font-size="8.00" fill="#00aa11">S64</text>
<text text-anchor="start" x="902.11" y="-279.87" font-family="Monaco" baseline-shift="super" font-size="8.00" fill="#3311ff">r3</text>
<text text-anchor="start" x="911.71" y="-279.87" font-family="Monaco" font-size="11.00">:a[]</text>
<text text-anchor="start" x="938.11" y="-279.87" font-family="Monaco" baseline-shift="super" font-size="8.00" fill="#ff4411">q6</text>
</g>
<!-- 2&#45;&gt;3 -->
<g id="edge23" class="edge">
<title>2&#45;&gt;3</title>
<path fill="none" stroke="black" stroke-dasharray="1,5" d="M926.75,-335.15C923.87,-326.95 920.35,-316.96 917.13,-307.82"/>
<polygon fill="black" stroke="black" points="920.42,-306.64 913.8,-298.37 913.82,-308.96 920.42,-306.64"/>
</g>
<!-- 7&#45;&gt;24 -->
<g id="edge16" class="edge">
<title>7&#45;&gt;24</title>
<path fill="none" stroke="black" d="M837.81,-88.81C837.81,-80.79 837.81,-71.05 837.81,-62.07"/>
<polygon fill="black" stroke="black" points="841.31,-62.03 837.81,-52.03 834.31,-62.03 841.31,-62.03"/>
</g>
<!-- 3&#45;&gt;6 -->
<g id="edge13" class="edge">
<title>3&#45;&gt;6</title>
<path fill="none" stroke="black" d="M918.33,-262.2C925.66,-250.27 935.57,-234.13 943.87,-220.62"/>
<polygon fill="black" stroke="black" points="947.05,-222.13 949.3,-211.78 941.08,-218.47 947.05,-222.13"/>
</g>
<!-- 16 -->
<g id="node24" class="node">
<title>16</title>
<ellipse fill="#ffeeff" stroke="black" cx="932.81" cy="-426.34" rx="48.84" ry="18"/>
<text text-anchor="start" x="902.8" y="-425.87" font-family="Monaco" font-size="11.00">i</text>
<text text-anchor="start" x="909.4" y="-425.87" font-family="Monaco" baseline-shift="super" font-size="8.00" fill="#00aa11">U10</text>
<text text-anchor="start" x="923.8" y="-425.87" font-family="Monaco" baseline-shift="super" font-size="8.00" fill="#3311ff">r0</text>
<text text-anchor="start" x="933.41" y="-425.87" font-family="Monaco" font-size="11.00">:in</text>
<text text-anchor="start" x="953.21" y="-425.87" font-family="Monaco" baseline-shift="super" font-size="8.00" fill="#ff4411">q2</text>
</g>
<!-- 16&#45;&gt;9 -->
<g id="edge22" class="edge">
<title>16&#45;&gt;9</title>
<path fill="none" stroke="black" d="M905.09,-411.48C884,-400.93 854.67,-386.27 831,-374.43"/>
<polygon fill="black" stroke="black" points="832.42,-371.23 821.91,-369.89 829.29,-377.49 832.42,-371.23"/>
</g>
<!-- 16&#45;&gt;2 -->
<g id="edge20" class="edge">
<title>16&#45;&gt;2</title>
<path fill="none" stroke="black" d="M932.81,-408.15C932.81,-400.13 932.81,-390.38 932.81,-381.41"/>
<polygon fill="black" stroke="black" points="936.31,-381.37 932.81,-371.37 929.31,-381.37 936.31,-381.37"/>
</g>
<!-- 4 -->
<g id="node27" class="node">
<title>4</title>
<ellipse fill="none" stroke="black" cx="1051.81" cy="-353.34" rx="50.43" ry="18"/>
<text text-anchor="start" x="1020.6" y="-352.87" font-family="Monaco" font-size="11.00">req b[i]</text>
<text text-anchor="start" x="1073.41" y="-352.87" font-family="Monaco" baseline-shift="super" font-size="8.00" fill="#ff4411">q5</text>
</g>
<!-- 16&#45;&gt;4 -->
<g id="edge21" class="edge">
<title>16&#45;&gt;4</title>
<path fill="none" stroke="black" d="M957.46,-410.63C974.98,-400.18 998.71,-386.02 1017.99,-374.51"/>
<polygon fill="black" stroke="black" points="1019.98,-377.4 1026.77,-369.27 1016.39,-371.39 1019.98,-377.4"/>
</g>
<!-- 8 -->
<g id="node26" class="node">
<title>8</title>
<ellipse fill="none" stroke="black" cx="790.81" cy="-426.34" rx="45.66" ry="18"/>
<text text-anchor="start" x="763.2" y="-425.87" font-family="Monaco" font-size="11.00">@f</text>
<text text-anchor="start" x="776.4" y="-425.87" font-family="Monaco" baseline-shift="super" font-size="8.00" fill="#00aa11">U1</text>
<text text-anchor="start" x="786.01" y="-425.87" font-family="Monaco" baseline-shift="super" font-size="8.00" fill="#3311ff">r2</text>
<text text-anchor="start" x="795.61" y="-425.87" font-family="Monaco" font-size="11.00">:1</text>
<text text-anchor="start" x="808.81" y="-425.87" font-family="Monaco" baseline-shift="super" font-size="8.00" fill="#ff4411">q2</text>
</g>
<!-- 8&#45;&gt;9 -->
<g id="edge17" class="edge">
<title>8&#45;&gt;9</title>
<path fill="none" stroke="black" d="M790.81,-408.15C790.81,-400.13 790.81,-390.38 790.81,-381.41"/>
<polygon fill="black" stroke="black" points="794.31,-381.37 790.81,-371.37 787.31,-381.37 794.31,-381.37"/>
</g>
<!-- 4&#45;&gt;5 -->
<g id="edge24" class="edge">
<title>4&#45;&gt;5</title>
<path fill="none" stroke="black" stroke-dasharray="1,5" d="M1050.11,-335.15C1049.32,-327.13 1048.36,-317.38 1047.47,-308.41"/>
<polygon fill="black" stroke="black" points="1050.95,-307.97 1046.49,-298.37 1043.98,-308.66 1050.95,-307.97"/>
</g>
<!-- 15 -->
<g id="node28" class="node">
<title>15</title>
<ellipse fill="#ffeeff" stroke="black" cx="801.81" cy="-193.67" rx="57.34" ry="18"/>
<text text-anchor="start" x="765.2" y="-193.2" font-family="Monaco" font-size="11.00">acc</text>
<text text-anchor="start" x="785" y="-193.2" font-family="Monaco" baseline-shift="super" font-size="8.00" fill="#00aa11">S64</text>
<text text-anchor="start" x="799.41" y="-193.2" font-family="Monaco" baseline-shift="super" font-size="8.00" fill="#3311ff">r1</text>
<text text-anchor="start" x="809.01" y="-193.2" font-family="Monaco" font-size="11.00">:in</text>
<text text-anchor="start" x="828.81" y="-193.2" font-family="Monaco" baseline-shift="super" font-size="8.00" fill="#ff4411">q2</text>
</g>
<!-- 15&#45;&gt;7 -->
<g id="edge19" class="edge">
<title>15&#45;&gt;7</title>
<path fill="none" stroke="black" d="M809.09,-175.53C814.12,-163.71 820.9,-147.77 826.6,-134.35"/>
<polygon fill="black" stroke="black" points="829.84,-135.68 830.53,-125.11 823.4,-132.94 829.84,-135.68"/>
</g>
</g>
</svg>
