<?xml version="1.0" encoding="UTF-8" standalone="no"?>
<!DOCTYPE svg PUBLIC "-//W3C//DTD SVG 1.1//EN"
 "http://www.w3.org/Graphics/SVG/1.1/DTD/svg11.dtd">
<!-- Generated by graphviz version 2.43.0 (0)
 -->
<!-- Title: Program_ Pages: 1 -->
<svg width="607pt" height="589pt"
 viewBox="0.00 0.00 607.37 588.51" xmlns="http://www.w3.org/2000/svg" xmlns:xlink="http://www.w3.org/1999/xlink">
<g id="graph0" class="graph" transform="scale(1 1) rotate(0) translate(4 584.51)">
<title>Program_</title>
<polygon fill="white" stroke="transparent" points="-4,4 -4,-584.51 603.37,-584.51 603.37,4 -4,4"/>
<g id="clust1" class="cluster">
<title>cluster_dfg_Block0</title>
<polygon fill="none" stroke="black" points="125.37,-423.51 125.37,-572.51 273.37,-572.51 273.37,-423.51 125.37,-423.51"/>
<text text-anchor="middle" x="199.37" y="-558.91" font-family="Monaco" font-size="12.00">Block0</text>
</g>
<g id="clust2" class="cluster">
<title>cluster_dfg_Block2</title>
<polygon fill="none" stroke="black" points="281.37,-260.88 281.37,-572.51 591.37,-572.51 591.37,-260.88 281.37,-260.88"/>
<text text-anchor="middle" x="436.37" y="-558.91" font-family="Monaco" font-size="12.00">Block2</text>
</g>
<!-- Jump0 -->
<g id="node1" class="node">
<title>Jump0</title>
<polygon fill="none" stroke="black" points="116.98,-540.51 25.76,-540.51 25.76,-536.51 21.76,-536.51 21.76,-532.51 25.76,-532.51 25.76,-512.51 21.76,-512.51 21.76,-508.51 25.76,-508.51 25.76,-504.51 116.98,-504.51 116.98,-540.51"/>
<polyline fill="none" stroke="black" points="25.76,-536.51 29.76,-536.51 29.76,-532.51 25.76,-532.51 "/>
<polyline fill="none" stroke="black" points="25.76,-512.51 29.76,-512.51 29.76,-508.51 25.76,-508.51 "/>
<text text-anchor="start" x="33.56" y="-525.71" font-family="Monaco" font-size="11.00">StartFun.0</text>
<text text-anchor="start" x="99.57" y="-525.71" font-family="Monaco" baseline-shift="super" font-size="8.00" fill="#ff4411">q?</text>
<text text-anchor="start" x="54.87" y="-514.71" font-family="Monaco" font-size="11.00">i,acc</text>
</g>
<!-- Block0 -->
<g id="node2" class="node">
<title>Block0</title>
<polygon fill="none" stroke="black" points="98.98,-467.51 43.76,-467.51 43.76,-431.51 98.98,-431.51 98.98,-467.51"/>
<text text-anchor="middle" x="71.37" y="-448.04" font-family="Monaco" font-size="11.00">Block0</text>
</g>
<!-- Jump0&#45;&gt;Block0 -->
<g id="edge1" class="edge">
<title>Jump0&#45;&gt;Block0</title>
<path fill="none" stroke="black" d="M71.37,-504.32C71.37,-496.3 71.37,-486.56 71.37,-477.58"/>
<polygon fill="black" stroke="black" points="74.87,-477.54 71.37,-467.54 67.87,-477.54 74.87,-477.54"/>
</g>
<!-- Jump1 -->
<g id="node3" class="node">
<title>Jump1</title>
<path fill="none" stroke="black" d="M100.98,-394.51C100.98,-394.51 41.76,-394.51 41.76,-394.51 35.76,-394.51 25.95,-389.88 22.14,-385.25 22.14,-385.25 7.76,-367.78 7.76,-367.78 3.94,-363.14 6.13,-358.51 12.13,-358.51 12.13,-358.51 130.61,-358.51 130.61,-358.51 136.61,-358.51 138.8,-363.14 134.98,-367.78 134.98,-367.78 120.6,-385.25 120.6,-385.25 116.79,-389.88 106.98,-394.51 100.98,-394.51"/>
<text text-anchor="start" x="40.17" y="-376.04" font-family="Monaco" font-size="11.00">Branch.1</text>
<text text-anchor="start" x="92.97" y="-376.04" font-family="Monaco" baseline-shift="super" font-size="8.00" fill="#ff4411">q?</text>
</g>
<!-- Block0&#45;&gt;Jump1 -->
<g id="edge2" class="edge">
<title>Block0&#45;&gt;Jump1</title>
<path fill="none" stroke="black" d="M71.37,-431.32C71.37,-423.3 71.37,-413.56 71.37,-404.58"/>
<polygon fill="black" stroke="black" points="74.87,-404.54 71.37,-394.54 67.87,-404.54 74.87,-404.54"/>
</g>
<!-- Block1 -->
<g id="node4" class="node">
<title>Block1</title>
<polygon fill="none" stroke="black" points="61.98,-307.8 6.76,-307.8 6.76,-265.96 61.98,-265.96 61.98,-307.8"/>
<text text-anchor="start" x="14.57" y="-295.04" font-family="Monaco" font-size="11.00">Block1</text>
<text text-anchor="middle" x="34.37" y="-280.37" font-family="Monaco" font-size="11.00">(0行)</text>
</g>
<!-- Jump1&#45;&gt;Block1 -->
<g id="edge3" class="edge">
<title>Jump1&#45;&gt;Block1</title>
<path fill="none" stroke="black" d="M64.06,-358.2C59.15,-346.56 52.54,-330.92 46.81,-317.35"/>
<polygon fill="black" stroke="black" points="49.94,-315.77 42.83,-307.92 43.5,-318.49 49.94,-315.77"/>
<text text-anchor="middle" x="62.97" y="-331.71" font-family="Monaco" font-size="11.00">@b</text>
</g>
<!-- Block2 -->
<g id="node5" class="node">
<title>Block2</title>
<polygon fill="none" stroke="black" points="135.98,-304.88 80.76,-304.88 80.76,-268.88 135.98,-268.88 135.98,-304.88"/>
<text text-anchor="middle" x="108.37" y="-285.42" font-family="Monaco" font-size="11.00">Block2</text>
</g>
<!-- Jump1&#45;&gt;Block2 -->
<g id="edge4" class="edge">
<title>Jump1&#45;&gt;Block2</title>
<path fill="none" stroke="black" d="M78.68,-358.2C83.95,-345.72 91.16,-328.64 97.16,-314.44"/>
<polygon fill="black" stroke="black" points="100.41,-315.73 101.08,-305.16 93.96,-313.01 100.41,-315.73"/>
<text text-anchor="middle" x="102.27" y="-331.71" font-family="Monaco" font-size="11.00">!@b</text>
</g>
<!-- Jump2 -->
<g id="node6" class="node">
<title>Jump2</title>
<path fill="none" stroke="black" d="M44.28,-179.26C44.28,-179.26 96.46,-179.26 96.46,-179.26 102.46,-179.26 112.07,-184.05 115.68,-188.84 115.68,-188.84 128.37,-205.67 128.37,-205.67 131.98,-210.46 129.59,-215.26 123.59,-215.26 123.59,-215.26 17.15,-215.26 17.15,-215.26 11.15,-215.26 8.76,-210.46 12.37,-205.67 12.37,-205.67 25.06,-188.84 25.06,-188.84 28.67,-184.05 38.28,-179.26 44.28,-179.26"/>
<text text-anchor="start" x="42.47" y="-196.79" font-family="Monaco" font-size="11.00">Merge.2</text>
<text text-anchor="start" x="88.67" y="-196.79" font-family="Monaco" baseline-shift="super" font-size="8.00" fill="#ff4411">q?</text>
</g>
<!-- Block1&#45;&gt;Jump2 -->
<g id="edge5" class="edge">
<title>Block1&#45;&gt;Jump2</title>
<path fill="none" stroke="black" d="M42.72,-265.56C47.69,-253.47 54.04,-238 59.41,-224.94"/>
<polygon fill="black" stroke="black" points="62.72,-226.1 63.28,-215.52 56.24,-223.44 62.72,-226.1"/>
<text text-anchor="middle" x="66.27" y="-239.12" font-family="Monaco" font-size="11.00">acc</text>
</g>
<!-- Block2&#45;&gt;Jump2 -->
<g id="edge6" class="edge">
<title>Block2&#45;&gt;Jump2</title>
<path fill="none" stroke="black" d="M100.86,-268.57C95.45,-256.09 88.04,-239.01 81.89,-224.81"/>
<polygon fill="black" stroke="black" points="85.05,-223.31 77.86,-215.53 78.63,-226.1 85.05,-223.31"/>
<text text-anchor="middle" x="98.97" y="-239.12" font-family="Monaco" font-size="11.00">@h</text>
</g>
<!-- Block3 -->
<g id="node7" class="node">
<title>Block3</title>
<polygon fill="none" stroke="black" points="97.98,-128.55 42.76,-128.55 42.76,-86.71 97.98,-86.71 97.98,-128.55"/>
<text text-anchor="start" x="50.57" y="-115.79" font-family="Monaco" font-size="11.00">Block3</text>
<text text-anchor="middle" x="70.37" y="-101.12" font-family="Monaco" font-size="11.00">(0行)</text>
</g>
<!-- Jump2&#45;&gt;Block3 -->
<g id="edge7" class="edge">
<title>Jump2&#45;&gt;Block3</title>
<path fill="none" stroke="black" d="M70.37,-178.94C70.37,-167.53 70.37,-152.27 70.37,-138.89"/>
<polygon fill="black" stroke="black" points="73.87,-138.66 70.37,-128.66 66.87,-138.66 73.87,-138.66"/>
<text text-anchor="middle" x="76.97" y="-152.46" font-family="Monaco" font-size="11.00">@i</text>
</g>
<!-- Jump3 -->
<g id="node8" class="node">
<title>Jump3</title>
<polygon fill="none" stroke="black" points="109.78,-30 48.96,-30 48.96,-36 30.96,-18 48.96,0 48.96,-6 91.78,-6 91.78,0 109.78,0 109.78,-30"/>
<text text-anchor="start" x="39.17" y="-17.53" font-family="Monaco" font-size="11.00">Return.3</text>
<text text-anchor="start" x="91.97" y="-17.53" font-family="Monaco" baseline-shift="super" font-size="8.00" fill="#ff4411">q?</text>
</g>
<!-- Block3&#45;&gt;Jump3 -->
<g id="edge8" class="edge">
<title>Block3&#45;&gt;Jump3</title>
<path fill="none" stroke="black" d="M70.37,-86.3C70.37,-74.45 70.37,-59.35 70.37,-46.45"/>
<polygon fill="black" stroke="black" points="73.87,-46.26 70.37,-36.26 66.87,-46.26 73.87,-46.26"/>
<text text-anchor="middle" x="76.97" y="-59.87" font-family="Monaco" font-size="11.00">@i</text>
</g>
<!-- ndBlock0_0 -->
<g id="node9" class="node">
<title>ndBlock0_0</title>
<ellipse fill="none" stroke="black" cx="199.37" cy="-522.51" rx="61.83" ry="18"/>
<text text-anchor="start" x="159.46" y="-522.04" font-family="Monaco" font-size="11.00">@a</text>
<text text-anchor="start" x="172.67" y="-522.04" font-family="Monaco" baseline-shift="super" font-size="8.00" fill="#00dd33">U10</text>
<text text-anchor="start" x="187.07" y="-522.04" font-family="Monaco" baseline-shift="super" font-size="8.00" fill="#3311ff">r?</text>
<text text-anchor="start" x="196.67" y="-522.04" font-family="Monaco" font-size="11.00">:1000</text>
<text text-anchor="start" x="229.68" y="-522.04" font-family="Monaco" baseline-shift="super" font-size="8.00" fill="#ff4411">q?</text>
</g>
<!-- ndBlock0_1 -->
<g id="node10" class="node">
<title>ndBlock0_1</title>
<ellipse fill="none" stroke="black" cx="199.37" cy="-449.51" rx="65.83" ry="18"/>
<text text-anchor="start" x="156.16" y="-449.04" font-family="Monaco" font-size="11.00">@b</text>
<text text-anchor="start" x="169.37" y="-449.04" font-family="Monaco" baseline-shift="super" font-size="8.00" fill="#00dd33">U1</text>
<text text-anchor="start" x="178.97" y="-449.04" font-family="Monaco" baseline-shift="super" font-size="8.00" fill="#3311ff">r?</text>
<text text-anchor="start" x="188.57" y="-449.04" font-family="Monaco" font-size="11.00">:i==</text>
<text text-anchor="start" x="214.97" y="-449.04" font-family="Monaco" baseline-shift="super" font-size="8.00" fill="#3311ff">?</text>
<text text-anchor="start" x="219.77" y="-449.04" font-family="Monaco" font-size="11.00">@a</text>
<text text-anchor="start" x="232.98" y="-449.04" font-family="Monaco" baseline-shift="super" font-size="8.00" fill="#ff4411">q?</text>
</g>
<!-- ndBlock0_0&#45;&gt;ndBlock0_1 -->
<g id="edge9" class="edge">
<title>ndBlock0_0&#45;&gt;ndBlock0_1</title>
<path fill="none" stroke="black" d="M199.37,-504.32C199.37,-496.3 199.37,-486.56 199.37,-477.58"/>
<polygon fill="black" stroke="black" points="202.87,-477.54 199.37,-467.54 195.87,-477.54 202.87,-477.54"/>
</g>
<!-- ndBlock2_0 -->
<g id="node11" class="node">
<title>ndBlock2_0</title>
<ellipse fill="none" stroke="black" cx="354.37" cy="-376.51" rx="64.52" ry="18"/>
<text text-anchor="start" x="312.06" y="-376.04" font-family="Monaco" font-size="11.00">@g</text>
<text text-anchor="start" x="325.27" y="-376.04" font-family="Monaco" baseline-shift="super" font-size="8.00" fill="#00dd33">U10</text>
<text text-anchor="start" x="339.67" y="-376.04" font-family="Monaco" baseline-shift="super" font-size="8.00" fill="#3311ff">r?</text>
<text text-anchor="start" x="349.27" y="-376.04" font-family="Monaco" font-size="11.00">:i+</text>
<text text-anchor="start" x="369.07" y="-376.04" font-family="Monaco" baseline-shift="super" font-size="8.00" fill="#3311ff">?</text>
<text text-anchor="start" x="373.87" y="-376.04" font-family="Monaco" font-size="11.00">@f</text>
<text text-anchor="start" x="387.08" y="-376.04" font-family="Monaco" baseline-shift="super" font-size="8.00" fill="#ff4411">q?</text>
</g>
<!-- ndBlock2_6 -->
<g id="node17" class="node">
<title>ndBlock2_6</title>
<ellipse fill="none" stroke="black" cx="436.37" cy="-286.88" rx="104.31" ry="18"/>
<text text-anchor="start" x="363.46" y="-286.42" font-family="Monaco" font-size="11.00">@h</text>
<text text-anchor="start" x="376.66" y="-286.42" font-family="Monaco" baseline-shift="super" font-size="8.00" fill="#00dd33">S64</text>
<text text-anchor="start" x="391.06" y="-286.42" font-family="Monaco" baseline-shift="super" font-size="8.00" fill="#3311ff">r?</text>
<text text-anchor="start" x="400.66" y="-286.42" font-family="Monaco" font-size="11.00">:dotProd(@g,@e)</text>
<text text-anchor="start" x="499.68" y="-286.42" font-family="Monaco" baseline-shift="super" font-size="8.00" fill="#ff4411">q?</text>
</g>
<!-- ndBlock2_0&#45;&gt;ndBlock2_6 -->
<g id="edge13" class="edge">
<title>ndBlock2_0&#45;&gt;ndBlock2_6</title>
<path fill="none" stroke="black" d="M369.79,-359.03C382.12,-345.86 399.58,-327.2 413.53,-312.29"/>
<polygon fill="black" stroke="black" points="416.18,-314.58 420.46,-304.89 411.07,-309.8 416.18,-314.58"/>
</g>
<!-- ndBlock2_1 -->
<g id="node12" class="node">
<title>ndBlock2_1</title>
<ellipse fill="none" stroke="black" cx="514.37" cy="-522.51" rx="65.83" ry="18"/>
<text text-anchor="start" x="471.16" y="-522.04" font-family="Monaco" font-size="11.00">a64</text>
<text text-anchor="start" x="490.97" y="-522.04" font-family="Monaco" baseline-shift="super" font-size="8.00" fill="#00dd33">S64</text>
<text text-anchor="start" x="505.37" y="-522.04" font-family="Monaco" baseline-shift="super" font-size="8.00" fill="#3311ff">r?</text>
<text text-anchor="start" x="514.97" y="-522.04" font-family="Monaco" font-size="11.00">:a[i]</text>
<text text-anchor="start" x="547.98" y="-522.04" font-family="Monaco" baseline-shift="super" font-size="8.00" fill="#ff4411">q?</text>
</g>
<!-- ndBlock2_3 -->
<g id="node14" class="node">
<title>ndBlock2_3</title>
<ellipse fill="none" stroke="black" cx="510.37" cy="-449.51" rx="73.01" ry="18"/>
<text text-anchor="start" x="461.46" y="-449.04" font-family="Monaco" font-size="11.00">@d</text>
<text text-anchor="start" x="474.66" y="-449.04" font-family="Monaco" baseline-shift="super" font-size="8.00" fill="#00dd33">S64</text>
<text text-anchor="start" x="489.07" y="-449.04" font-family="Monaco" baseline-shift="super" font-size="8.00" fill="#3311ff">r?</text>
<text text-anchor="start" x="498.67" y="-449.04" font-family="Monaco" font-size="11.00">:a64*</text>
<text text-anchor="start" x="531.67" y="-449.04" font-family="Monaco" baseline-shift="super" font-size="8.00" fill="#3311ff">?</text>
<text text-anchor="start" x="536.47" y="-449.04" font-family="Monaco" font-size="11.00">@c</text>
<text text-anchor="start" x="549.68" y="-449.04" font-family="Monaco" baseline-shift="super" font-size="8.00" fill="#ff4411">q?</text>
</g>
<!-- ndBlock2_1&#45;&gt;ndBlock2_3 -->
<g id="edge10" class="edge">
<title>ndBlock2_1&#45;&gt;ndBlock2_3</title>
<path fill="none" stroke="black" d="M513.4,-504.32C512.95,-496.3 512.4,-486.56 511.9,-477.58"/>
<polygon fill="black" stroke="black" points="515.39,-477.33 511.33,-467.54 508.4,-477.72 515.39,-477.33"/>
</g>
<!-- ndBlock2_2 -->
<g id="node13" class="node">
<title>ndBlock2_2</title>
<ellipse fill="none" stroke="black" cx="368.37" cy="-522.51" rx="61.83" ry="18"/>
<text text-anchor="start" x="328.46" y="-522.04" font-family="Monaco" font-size="11.00">@c</text>
<text text-anchor="start" x="341.67" y="-522.04" font-family="Monaco" baseline-shift="super" font-size="8.00" fill="#00dd33">S32</text>
<text text-anchor="start" x="356.07" y="-522.04" font-family="Monaco" baseline-shift="super" font-size="8.00" fill="#3311ff">r?</text>
<text text-anchor="start" x="365.67" y="-522.04" font-family="Monaco" font-size="11.00">:b[i]</text>
<text text-anchor="start" x="398.68" y="-522.04" font-family="Monaco" baseline-shift="super" font-size="8.00" fill="#ff4411">q?</text>
</g>
<!-- ndBlock2_2&#45;&gt;ndBlock2_3 -->
<g id="edge11" class="edge">
<title>ndBlock2_2&#45;&gt;ndBlock2_3</title>
<path fill="none" stroke="black" d="M398.14,-506.63C419.15,-496.12 447.54,-481.92 470.51,-470.44"/>
<polygon fill="black" stroke="black" points="472.28,-473.47 479.66,-465.87 469.15,-467.21 472.28,-473.47"/>
</g>
<!-- ndBlock2_4 -->
<g id="node15" class="node">
<title>ndBlock2_4</title>
<ellipse fill="none" stroke="black" cx="510.37" cy="-376.51" rx="73.01" ry="18"/>
<text text-anchor="start" x="461.46" y="-376.04" font-family="Monaco" font-size="11.00">@e</text>
<text text-anchor="start" x="474.66" y="-376.04" font-family="Monaco" baseline-shift="super" font-size="8.00" fill="#00dd33">S64</text>
<text text-anchor="start" x="489.07" y="-376.04" font-family="Monaco" baseline-shift="super" font-size="8.00" fill="#3311ff">r?</text>
<text text-anchor="start" x="498.67" y="-376.04" font-family="Monaco" font-size="11.00">:acc+</text>
<text text-anchor="start" x="531.67" y="-376.04" font-family="Monaco" baseline-shift="super" font-size="8.00" fill="#3311ff">?</text>
<text text-anchor="start" x="536.47" y="-376.04" font-family="Monaco" font-size="11.00">@d</text>
<text text-anchor="start" x="549.68" y="-376.04" font-family="Monaco" baseline-shift="super" font-size="8.00" fill="#ff4411">q?</text>
</g>
<!-- ndBlock2_3&#45;&gt;ndBlock2_4 -->
<g id="edge12" class="edge">
<title>ndBlock2_3&#45;&gt;ndBlock2_4</title>
<path fill="none" stroke="black" d="M510.37,-431.32C510.37,-423.3 510.37,-413.56 510.37,-404.58"/>
<polygon fill="black" stroke="black" points="513.87,-404.54 510.37,-394.54 506.87,-404.54 513.87,-404.54"/>
</g>
<!-- ndBlock2_4&#45;&gt;ndBlock2_6 -->
<g id="edge14" class="edge">
<title>ndBlock2_4&#45;&gt;ndBlock2_6</title>
<path fill="none" stroke="black" d="M496.1,-358.62C485.05,-345.52 469.57,-327.19 457.14,-312.48"/>
<polygon fill="black" stroke="black" points="459.72,-310.11 450.59,-304.73 454.37,-314.63 459.72,-310.11"/>
</g>
<!-- ndBlock2_5 -->
<g id="node16" class="node">
<title>ndBlock2_5</title>
<ellipse fill="none" stroke="black" cx="354.37" cy="-449.51" rx="45.66" ry="18"/>
<text text-anchor="start" x="326.77" y="-449.04" font-family="Monaco" font-size="11.00">@f</text>
<text text-anchor="start" x="339.97" y="-449.04" font-family="Monaco" baseline-shift="super" font-size="8.00" fill="#00dd33">U1</text>
<text text-anchor="start" x="349.57" y="-449.04" font-family="Monaco" baseline-shift="super" font-size="8.00" fill="#3311ff">r?</text>
<text text-anchor="start" x="359.17" y="-449.04" font-family="Monaco" font-size="11.00">:1</text>
<text text-anchor="start" x="372.37" y="-449.04" font-family="Monaco" baseline-shift="super" font-size="8.00" fill="#ff4411">q?</text>
</g>
<!-- ndBlock2_5&#45;&gt;ndBlock2_0 -->
<g id="edge15" class="edge">
<title>ndBlock2_5&#45;&gt;ndBlock2_0</title>
<path fill="none" stroke="black" d="M354.37,-431.32C354.37,-423.3 354.37,-413.56 354.37,-404.58"/>
<polygon fill="black" stroke="black" points="357.87,-404.54 354.37,-394.54 350.87,-404.54 357.87,-404.54"/>
</g>
</g>
</svg>
