<?xml version="1.0" encoding="UTF-8" standalone="no"?>
<!DOCTYPE svg PUBLIC "-//W3C//DTD SVG 1.1//EN"
 "http://www.w3.org/Graphics/SVG/1.1/DTD/svg11.dtd">
<!-- Generated by graphviz version 2.43.0 (0)
 -->
<!-- Title: Program_ Pages: 1 -->
<svg width="1181pt" height="419pt"
 viewBox="0.00 0.00 1180.81 419.34" xmlns="http://www.w3.org/2000/svg" xmlns:xlink="http://www.w3.org/1999/xlink">
<g id="graph0" class="graph" transform="scale(1 1) rotate(0) translate(4 415.34)">
<title>Program_</title>
<polygon fill="white" stroke="transparent" points="-4,4 -4,-415.34 1176.81,-415.34 1176.81,4 -4,4"/>
<g id="clust1" class="cluster">
<title>cluster_dfg_Block0</title>
<polygon fill="none" stroke="black" points="174.81,-181.34 174.81,-403.34 562.81,-403.34 562.81,-181.34 174.81,-181.34"/>
<text text-anchor="middle" x="368.81" y="-389.74" font-family="Monaco" font-size="12.00">Block0</text>
</g>
<g id="clust2" class="cluster">
<title>cluster_dfg_Block1</title>
<polygon fill="none" stroke="black" points="570.81,-254.34 570.81,-403.34 700.81,-403.34 700.81,-254.34 570.81,-254.34"/>
<text text-anchor="middle" x="635.81" y="-389.74" font-family="Monaco" font-size="12.00">Block1</text>
</g>
<g id="clust3" class="cluster">
<title>cluster_dfg_Block2</title>
<polygon fill="none" stroke="black" points="708.81,-8 708.81,-403.34 1164.81,-403.34 1164.81,-8 708.81,-8"/>
<text text-anchor="middle" x="936.81" y="-389.74" font-family="Monaco" font-size="12.00">Block2</text>
</g>
<!-- Jump0 -->
<g id="node1" class="node">
<title>Jump0</title>
<polygon fill="none" stroke="black" points="141.42,-371.34 50.19,-371.34 50.19,-367.34 46.19,-367.34 46.19,-363.34 50.19,-363.34 50.19,-343.34 46.19,-343.34 46.19,-339.34 50.19,-339.34 50.19,-335.34 141.42,-335.34 141.42,-371.34"/>
<polyline fill="none" stroke="black" points="50.19,-367.34 54.19,-367.34 54.19,-363.34 50.19,-363.34 "/>
<polyline fill="none" stroke="black" points="50.19,-343.34 54.19,-343.34 54.19,-339.34 50.19,-339.34 "/>
<text text-anchor="start" x="58" y="-356.54" font-family="Monaco" font-size="11.00">StartFun.0</text>
<text text-anchor="start" x="124.01" y="-356.54" font-family="Monaco" baseline-shift="super" font-size="8.00" fill="#ff4411">q0</text>
<text text-anchor="start" x="79.3" y="-345.54" font-family="Monaco" font-size="11.00">i,acc</text>
</g>
<!-- Block0 -->
<g id="node2" class="node">
<title>Block0</title>
<polygon fill="none" stroke="black" points="123.41,-298.34 68.2,-298.34 68.2,-262.34 123.41,-262.34 123.41,-298.34"/>
<text text-anchor="middle" x="95.81" y="-278.87" font-family="Monaco" font-size="11.00">Block0</text>
</g>
<!-- Jump0&#45;&gt;Block0 -->
<g id="edge1" class="edge">
<title>Jump0&#45;&gt;Block0</title>
<path fill="none" stroke="black" d="M95.81,-335.15C95.81,-327.13 95.81,-317.38 95.81,-308.41"/>
<polygon fill="black" stroke="black" points="99.31,-308.37 95.81,-298.37 92.31,-308.37 99.31,-308.37"/>
</g>
<!-- Jump1 -->
<g id="node3" class="node">
<title>Jump1</title>
<path fill="none" stroke="black" d="M125.41,-225.34C125.41,-225.34 66.2,-225.34 66.2,-225.34 60.2,-225.34 50.39,-220.7 46.57,-216.07 46.57,-216.07 32.19,-198.6 32.19,-198.6 28.38,-193.97 30.57,-189.34 36.57,-189.34 36.57,-189.34 155.05,-189.34 155.05,-189.34 161.05,-189.34 163.23,-193.97 159.42,-198.6 159.42,-198.6 145.04,-216.07 145.04,-216.07 141.23,-220.7 131.41,-225.34 125.41,-225.34"/>
<text text-anchor="start" x="64.6" y="-206.87" font-family="Monaco" font-size="11.00">Branch.1</text>
<text text-anchor="start" x="117.41" y="-206.87" font-family="Monaco" baseline-shift="super" font-size="8.00" fill="#ff4411">q2</text>
</g>
<!-- Block0&#45;&gt;Jump1 -->
<g id="edge2" class="edge">
<title>Block0&#45;&gt;Jump1</title>
<path fill="none" stroke="black" d="M95.81,-262.15C95.81,-254.13 95.81,-244.38 95.81,-235.41"/>
<polygon fill="black" stroke="black" points="99.31,-235.37 95.81,-225.37 92.31,-235.37 99.31,-235.37"/>
</g>
<!-- Block1 -->
<g id="node4" class="node">
<title>Block1</title>
<polygon fill="none" stroke="black" points="86.41,-138.67 31.2,-138.67 31.2,-102.67 86.41,-102.67 86.41,-138.67"/>
<text text-anchor="middle" x="58.81" y="-119.2" font-family="Monaco" font-size="11.00">Block1</text>
</g>
<!-- Jump1&#45;&gt;Block1 -->
<g id="edge3" class="edge">
<title>Jump1&#45;&gt;Block1</title>
<path fill="none" stroke="black" d="M88.32,-189.2C83.15,-177.38 76.19,-161.44 70.32,-148.01"/>
<polygon fill="black" stroke="black" points="73.49,-146.54 66.28,-138.78 67.08,-149.34 73.49,-146.54"/>
<text text-anchor="middle" x="86.41" y="-162.54" font-family="Monaco" font-size="11.00">@b</text>
</g>
<!-- Block2 -->
<g id="node5" class="node">
<title>Block2</title>
<polygon fill="none" stroke="black" points="184.41,-138.67 129.2,-138.67 129.2,-102.67 184.41,-102.67 184.41,-138.67"/>
<text text-anchor="middle" x="156.81" y="-119.2" font-family="Monaco" font-size="11.00">Block2</text>
</g>
<!-- Jump1&#45;&gt;Block2 -->
<g id="edge4" class="edge">
<title>Jump1&#45;&gt;Block2</title>
<path fill="none" stroke="black" d="M108.15,-189.2C116.83,-177.15 128.6,-160.82 138.39,-147.23"/>
<polygon fill="black" stroke="black" points="141.47,-148.94 144.48,-138.78 135.79,-144.84 141.47,-148.94"/>
<text text-anchor="middle" x="140.71" y="-162.54" font-family="Monaco" font-size="11.00">!@b</text>
</g>
<!-- Jump2_4 -->
<g id="node6" class="node">
<title>Jump2_4</title>
<polygon fill="none" stroke="black" points="91.42,-46 18.19,-46 18.19,-52 0.19,-34 18.19,-16 18.19,-22 73.42,-22 73.42,-16 91.42,-16 91.42,-46"/>
<text text-anchor="start" x="8" y="-33.53" font-family="Monaco" font-size="11.00">Return.2_4</text>
<text text-anchor="start" x="74.01" y="-33.53" font-family="Monaco" baseline-shift="super" font-size="8.00" fill="#ff4411">q4</text>
</g>
<!-- Block1&#45;&gt;Jump2_4 -->
<g id="edge5" class="edge">
<title>Block1&#45;&gt;Jump2_4</title>
<path fill="none" stroke="black" d="M56.18,-102.53C54.4,-90.94 52.01,-75.39 49.97,-62.13"/>
<polygon fill="black" stroke="black" points="53.41,-61.46 48.43,-52.11 46.49,-62.52 53.41,-61.46"/>
<text text-anchor="middle" x="63.71" y="-75.87" font-family="Monaco" font-size="11.00">acc</text>
</g>
<!-- Jump2_5_6 -->
<g id="node7" class="node">
<title>Jump2_5_6</title>
<polygon fill="none" stroke="black" points="227.82,-52 109.79,-52 109.79,-48 105.79,-48 105.79,-44 109.79,-44 109.79,-24 105.79,-24 105.79,-20 109.79,-20 109.79,-16 227.82,-16 227.82,-52"/>
<polyline fill="none" stroke="black" points="109.79,-48 113.79,-48 113.79,-44 109.79,-44 "/>
<polyline fill="none" stroke="black" points="109.79,-24 113.79,-24 113.79,-20 109.79,-20 "/>
<text text-anchor="start" x="117.8" y="-37.2" font-family="Monaco" font-size="11.00">TailCall.2_5_6</text>
<text text-anchor="start" x="210.21" y="-37.2" font-family="Monaco" baseline-shift="super" font-size="8.00" fill="#ff4411">q8</text>
<text text-anchor="start" x="122.6" y="-26.2" font-family="Monaco" font-size="11.00">dotProd(@g,@e)</text>
</g>
<!-- Block2&#45;&gt;Jump2_5_6 -->
<g id="edge6" class="edge">
<title>Block2&#45;&gt;Jump2_5_6</title>
<path fill="none" stroke="black" d="M159.23,-102.53C160.88,-90.94 163.08,-75.39 164.96,-62.13"/>
<polygon fill="black" stroke="black" points="168.44,-62.5 166.38,-52.11 161.51,-61.52 168.44,-62.5"/>
</g>
<!-- 0 -->
<g id="node8" class="node">
<title>0</title>
<ellipse fill="none" stroke="black" cx="492.81" cy="-353.34" rx="61.83" ry="18"/>
<text text-anchor="start" x="452.9" y="-352.87" font-family="Monaco" font-size="11.00">@a</text>
<text text-anchor="start" x="466.1" y="-352.87" font-family="Monaco" baseline-shift="super" font-size="8.00" fill="#00aa11">U10</text>
<text text-anchor="start" x="480.5" y="-352.87" font-family="Monaco" baseline-shift="super" font-size="8.00" fill="#3311ff">r2</text>
<text text-anchor="start" x="490.11" y="-352.87" font-family="Monaco" font-size="11.00">:1000</text>
<text text-anchor="start" x="523.11" y="-352.87" font-family="Monaco" baseline-shift="super" font-size="8.00" fill="#ff4411">q0</text>
</g>
<!-- 1 -->
<g id="node10" class="node">
<title>1</title>
<ellipse fill="none" stroke="black" cx="479.81" cy="-280.34" rx="75.37" ry="18"/>
<text text-anchor="start" x="429.4" y="-279.87" font-family="Monaco" font-size="11.00">@b</text>
<text text-anchor="start" x="442.6" y="-279.87" font-family="Monaco" baseline-shift="super" font-size="8.00" fill="#00aa11">U1</text>
<text text-anchor="start" x="452.2" y="-279.87" font-family="Monaco" baseline-shift="super" font-size="8.00" fill="#3311ff">r2</text>
<text text-anchor="start" x="461.8" y="-279.87" font-family="Monaco" font-size="11.00">:i==</text>
<text text-anchor="start" x="488.21" y="-279.87" font-family="Monaco" baseline-shift="super" font-size="8.00" fill="#3311ff">Bin0</text>
<text text-anchor="start" x="507.41" y="-279.87" font-family="Monaco" font-size="11.00">@a</text>
<text text-anchor="start" x="520.61" y="-279.87" font-family="Monaco" baseline-shift="super" font-size="8.00" fill="#ff4411">q1</text>
</g>
<!-- 0&#45;&gt;1 -->
<g id="edge7" class="edge">
<title>0&#45;&gt;1</title>
<path fill="none" stroke="black" d="M489.66,-335.15C488.19,-327.13 486.41,-317.38 484.76,-308.41"/>
<polygon fill="black" stroke="black" points="488.17,-307.57 482.92,-298.37 481.28,-308.83 488.17,-307.57"/>
</g>
<!-- 20 -->
<g id="node9" class="node">
<title>20</title>
<ellipse fill="#ffffee" stroke="black" cx="479.81" cy="-207.34" rx="46.44" ry="18"/>
<text text-anchor="start" x="451.9" y="-206.87" font-family="Monaco" font-size="11.00">out(@b)</text>
<text text-anchor="start" x="498.11" y="-206.87" font-family="Monaco" baseline-shift="super" font-size="8.00" fill="#ff4411">q2</text>
</g>
<!-- 1&#45;&gt;20 -->
<g id="edge8" class="edge">
<title>1&#45;&gt;20</title>
<path fill="none" stroke="black" d="M479.81,-262.15C479.81,-254.13 479.81,-244.38 479.81,-235.41"/>
<polygon fill="black" stroke="black" points="483.31,-235.37 479.81,-225.37 476.31,-235.37 483.31,-235.37"/>
</g>
<!-- 17 -->
<g id="node11" class="node">
<title>17</title>
<ellipse fill="#ffeeff" stroke="black" cx="363.81" cy="-353.34" rx="48.84" ry="18"/>
<text text-anchor="start" x="333.8" y="-352.87" font-family="Monaco" font-size="11.00">i</text>
<text text-anchor="start" x="340.4" y="-352.87" font-family="Monaco" baseline-shift="super" font-size="8.00" fill="#00aa11">U10</text>
<text text-anchor="start" x="354.8" y="-352.87" font-family="Monaco" baseline-shift="super" font-size="8.00" fill="#3311ff">r0</text>
<text text-anchor="start" x="364.41" y="-352.87" font-family="Monaco" font-size="11.00">:in</text>
<text text-anchor="start" x="384.21" y="-352.87" font-family="Monaco" baseline-shift="super" font-size="8.00" fill="#ff4411">q0</text>
</g>
<!-- 17&#45;&gt;1 -->
<g id="edge10" class="edge">
<title>17&#45;&gt;1</title>
<path fill="none" stroke="black" d="M387.84,-337.63C404.38,-327.5 426.61,-313.9 445.07,-302.6"/>
<polygon fill="black" stroke="black" points="447.08,-305.47 453.78,-297.26 443.43,-299.5 447.08,-305.47"/>
</g>
<!-- 19 -->
<g id="node14" class="node">
<title>19</title>
<ellipse fill="#ffffee" stroke="black" cx="344.81" cy="-280.34" rx="41.94" ry="18"/>
<text text-anchor="start" x="320.2" y="-279.87" font-family="Monaco" font-size="11.00">out(i)</text>
<text text-anchor="start" x="359.81" y="-279.87" font-family="Monaco" baseline-shift="super" font-size="8.00" fill="#ff4411">q2</text>
</g>
<!-- 17&#45;&gt;19 -->
<g id="edge11" class="edge">
<title>17&#45;&gt;19</title>
<path fill="none" stroke="black" d="M359.21,-335.15C357.04,-327.04 354.4,-317.17 351.97,-308.11"/>
<polygon fill="black" stroke="black" points="355.33,-307.12 349.36,-298.37 348.57,-308.93 355.33,-307.12"/>
</g>
<!-- 18 -->
<g id="node12" class="node">
<title>18</title>
<ellipse fill="#ffffee" stroke="black" cx="234.81" cy="-280.34" rx="50.43" ry="18"/>
<text text-anchor="start" x="203.6" y="-279.87" font-family="Monaco" font-size="11.00">out(acc)</text>
<text text-anchor="start" x="256.41" y="-279.87" font-family="Monaco" baseline-shift="super" font-size="8.00" fill="#ff4411">q2</text>
</g>
<!-- 16 -->
<g id="node13" class="node">
<title>16</title>
<ellipse fill="#ffeeff" stroke="black" cx="239.81" cy="-353.34" rx="57.34" ry="18"/>
<text text-anchor="start" x="203.2" y="-352.87" font-family="Monaco" font-size="11.00">acc</text>
<text text-anchor="start" x="223" y="-352.87" font-family="Monaco" baseline-shift="super" font-size="8.00" fill="#00aa11">S64</text>
<text text-anchor="start" x="237.41" y="-352.87" font-family="Monaco" baseline-shift="super" font-size="8.00" fill="#3311ff">r1</text>
<text text-anchor="start" x="247.01" y="-352.87" font-family="Monaco" font-size="11.00">:in</text>
<text text-anchor="start" x="266.81" y="-352.87" font-family="Monaco" baseline-shift="super" font-size="8.00" fill="#ff4411">q0</text>
</g>
<!-- 16&#45;&gt;18 -->
<g id="edge9" class="edge">
<title>16&#45;&gt;18</title>
<path fill="none" stroke="black" d="M238.6,-335.15C238.03,-327.13 237.34,-317.38 236.71,-308.41"/>
<polygon fill="black" stroke="black" points="240.2,-308.1 236.01,-298.37 233.22,-308.59 240.2,-308.1"/>
</g>
<!-- 11 -->
<g id="node15" class="node">
<title>11</title>
<ellipse fill="#ffeeff" stroke="black" cx="635.81" cy="-353.34" rx="57.34" ry="18"/>
<text text-anchor="start" x="599.2" y="-352.87" font-family="Monaco" font-size="11.00">acc</text>
<text text-anchor="start" x="619" y="-352.87" font-family="Monaco" baseline-shift="super" font-size="8.00" fill="#00aa11">S64</text>
<text text-anchor="start" x="633.41" y="-352.87" font-family="Monaco" baseline-shift="super" font-size="8.00" fill="#3311ff">r1</text>
<text text-anchor="start" x="643.01" y="-352.87" font-family="Monaco" font-size="11.00">:in</text>
<text text-anchor="start" x="662.81" y="-352.87" font-family="Monaco" baseline-shift="super" font-size="8.00" fill="#ff4411">q2</text>
</g>
<!-- 12 -->
<g id="node16" class="node">
<title>12</title>
<ellipse fill="#ffffee" stroke="black" cx="635.81" cy="-280.34" rx="50.43" ry="18"/>
<text text-anchor="start" x="604.6" y="-279.87" font-family="Monaco" font-size="11.00">out(acc)</text>
<text text-anchor="start" x="657.41" y="-279.87" font-family="Monaco" baseline-shift="super" font-size="8.00" fill="#ff4411">q4</text>
</g>
<!-- 11&#45;&gt;12 -->
<g id="edge12" class="edge">
<title>11&#45;&gt;12</title>
<path fill="none" stroke="black" d="M635.81,-335.15C635.81,-327.13 635.81,-317.38 635.81,-308.41"/>
<polygon fill="black" stroke="black" points="639.31,-308.37 635.81,-298.37 632.31,-308.37 639.31,-308.37"/>
</g>
<!-- 5 -->
<g id="node17" class="node">
<title>5</title>
<ellipse fill="none" stroke="black" cx="920.81" cy="-120.67" rx="82.55" ry="18"/>
<text text-anchor="start" x="864.7" y="-120.2" font-family="Monaco" font-size="11.00">@e</text>
<text text-anchor="start" x="877.9" y="-120.2" font-family="Monaco" baseline-shift="super" font-size="8.00" fill="#00aa11">S64</text>
<text text-anchor="start" x="892.3" y="-120.2" font-family="Monaco" baseline-shift="super" font-size="8.00" fill="#3311ff">r1</text>
<text text-anchor="start" x="901.9" y="-120.2" font-family="Monaco" font-size="11.00">:acc+</text>
<text text-anchor="start" x="934.91" y="-120.2" font-family="Monaco" baseline-shift="super" font-size="8.00" fill="#3311ff">Bin3</text>
<text text-anchor="start" x="954.11" y="-120.2" font-family="Monaco" font-size="11.00">@d</text>
<text text-anchor="start" x="967.31" y="-120.2" font-family="Monaco" baseline-shift="super" font-size="8.00" fill="#ff4411">q7</text>
</g>
<!-- 22 -->
<g id="node23" class="node">
<title>22</title>
<ellipse fill="#ffffee" stroke="black" cx="920.81" cy="-34" rx="46.44" ry="18"/>
<text text-anchor="start" x="892.9" y="-33.53" font-family="Monaco" font-size="11.00">out(@e)</text>
<text text-anchor="start" x="939.11" y="-33.53" font-family="Monaco" baseline-shift="super" font-size="8.00" fill="#ff4411">q8</text>
</g>
<!-- 5&#45;&gt;22 -->
<g id="edge16" class="edge">
<title>5&#45;&gt;22</title>
<path fill="none" stroke="black" d="M920.81,-102.53C920.81,-90.94 920.81,-75.39 920.81,-62.13"/>
<polygon fill="black" stroke="black" points="924.31,-62.11 920.81,-52.11 917.31,-62.11 924.31,-62.11"/>
</g>
<!-- 14 -->
<g id="node18" class="node">
<title>14</title>
<ellipse fill="#ffeeff" stroke="black" cx="944.81" cy="-353.34" rx="48.84" ry="18"/>
<text text-anchor="start" x="914.8" y="-352.87" font-family="Monaco" font-size="11.00">i</text>
<text text-anchor="start" x="921.4" y="-352.87" font-family="Monaco" baseline-shift="super" font-size="8.00" fill="#00aa11">U10</text>
<text text-anchor="start" x="935.8" y="-352.87" font-family="Monaco" baseline-shift="super" font-size="8.00" fill="#3311ff">r0</text>
<text text-anchor="start" x="945.41" y="-352.87" font-family="Monaco" font-size="11.00">:in</text>
<text text-anchor="start" x="965.21" y="-352.87" font-family="Monaco" baseline-shift="super" font-size="8.00" fill="#ff4411">q2</text>
</g>
<!-- 2 -->
<g id="node22" class="node">
<title>2</title>
<ellipse fill="none" stroke="black" cx="1090.81" cy="-280.34" rx="65.83" ry="18"/>
<text text-anchor="start" x="1047.6" y="-279.87" font-family="Monaco" font-size="11.00">a64</text>
<text text-anchor="start" x="1067.4" y="-279.87" font-family="Monaco" baseline-shift="super" font-size="8.00" fill="#00aa11">S64</text>
<text text-anchor="start" x="1081.8" y="-279.87" font-family="Monaco" baseline-shift="super" font-size="8.00" fill="#3311ff">r2</text>
<text text-anchor="start" x="1091.41" y="-279.87" font-family="Monaco" font-size="11.00">:a[i]</text>
<text text-anchor="start" x="1124.41" y="-279.87" font-family="Monaco" baseline-shift="super" font-size="8.00" fill="#ff4411">q5</text>
</g>
<!-- 14&#45;&gt;2 -->
<g id="edge20" class="edge">
<title>14&#45;&gt;2</title>
<path fill="none" stroke="black" d="M973.3,-338.48C995.38,-327.74 1026.23,-312.74 1050.79,-300.8"/>
<polygon fill="black" stroke="black" points="1052.39,-303.91 1059.86,-296.39 1049.33,-297.61 1052.39,-303.91"/>
</g>
<!-- 7 -->
<g id="node24" class="node">
<title>7</title>
<ellipse fill="none" stroke="black" cx="790.81" cy="-280.34" rx="74.05" ry="18"/>
<text text-anchor="start" x="741.3" y="-279.87" font-family="Monaco" font-size="11.00">@g</text>
<text text-anchor="start" x="754.5" y="-279.87" font-family="Monaco" baseline-shift="super" font-size="8.00" fill="#00aa11">U10</text>
<text text-anchor="start" x="768.9" y="-279.87" font-family="Monaco" baseline-shift="super" font-size="8.00" fill="#3311ff">r0</text>
<text text-anchor="start" x="778.5" y="-279.87" font-family="Monaco" font-size="11.00">:i+</text>
<text text-anchor="start" x="798.31" y="-279.87" font-family="Monaco" baseline-shift="super" font-size="8.00" fill="#3311ff">Bin1</text>
<text text-anchor="start" x="817.51" y="-279.87" font-family="Monaco" font-size="11.00">@f</text>
<text text-anchor="start" x="830.71" y="-279.87" font-family="Monaco" baseline-shift="super" font-size="8.00" fill="#ff4411">q5</text>
</g>
<!-- 14&#45;&gt;7 -->
<g id="edge22" class="edge">
<title>14&#45;&gt;7</title>
<path fill="none" stroke="black" d="M915.48,-338.82C892.16,-328.07 859.23,-312.88 833.07,-300.82"/>
<polygon fill="black" stroke="black" points="834.31,-297.54 823.76,-296.53 831.38,-303.9 834.31,-297.54"/>
</g>
<!-- 3 -->
<g id="node25" class="node">
<title>3</title>
<ellipse fill="none" stroke="black" cx="944.81" cy="-280.34" rx="61.83" ry="18"/>
<text text-anchor="start" x="904.9" y="-279.87" font-family="Monaco" font-size="11.00">@c</text>
<text text-anchor="start" x="918.1" y="-279.87" font-family="Monaco" baseline-shift="super" font-size="8.00" fill="#00aa11">S27</text>
<text text-anchor="start" x="932.5" y="-279.87" font-family="Monaco" baseline-shift="super" font-size="8.00" fill="#3311ff">r3</text>
<text text-anchor="start" x="942.11" y="-279.87" font-family="Monaco" font-size="11.00">:b[i]</text>
<text text-anchor="start" x="975.11" y="-279.87" font-family="Monaco" baseline-shift="super" font-size="8.00" fill="#ff4411">q5</text>
</g>
<!-- 14&#45;&gt;3 -->
<g id="edge21" class="edge">
<title>14&#45;&gt;3</title>
<path fill="none" stroke="black" d="M944.81,-335.15C944.81,-327.13 944.81,-317.38 944.81,-308.41"/>
<polygon fill="black" stroke="black" points="948.31,-308.37 944.81,-298.37 941.31,-308.37 948.31,-308.37"/>
</g>
<!-- 6 -->
<g id="node19" class="node">
<title>6</title>
<ellipse fill="none" stroke="black" cx="790.81" cy="-353.34" rx="45.66" ry="18"/>
<text text-anchor="start" x="763.2" y="-352.87" font-family="Monaco" font-size="11.00">@f</text>
<text text-anchor="start" x="776.4" y="-352.87" font-family="Monaco" baseline-shift="super" font-size="8.00" fill="#00aa11">U1</text>
<text text-anchor="start" x="786.01" y="-352.87" font-family="Monaco" baseline-shift="super" font-size="8.00" fill="#3311ff">r2</text>
<text text-anchor="start" x="795.61" y="-352.87" font-family="Monaco" font-size="11.00">:1</text>
<text text-anchor="start" x="808.81" y="-352.87" font-family="Monaco" baseline-shift="super" font-size="8.00" fill="#ff4411">q2</text>
</g>
<!-- 6&#45;&gt;7 -->
<g id="edge17" class="edge">
<title>6&#45;&gt;7</title>
<path fill="none" stroke="black" d="M790.81,-335.15C790.81,-327.13 790.81,-317.38 790.81,-308.41"/>
<polygon fill="black" stroke="black" points="794.31,-308.37 790.81,-298.37 787.31,-308.37 794.31,-308.37"/>
</g>
<!-- 21 -->
<g id="node20" class="node">
<title>21</title>
<ellipse fill="#ffffee" stroke="black" cx="895.81" cy="-207.34" rx="46.44" ry="18"/>
<text text-anchor="start" x="867.9" y="-206.87" font-family="Monaco" font-size="11.00">out(@g)</text>
<text text-anchor="start" x="914.11" y="-206.87" font-family="Monaco" baseline-shift="super" font-size="8.00" fill="#ff4411">q8</text>
</g>
<!-- 13 -->
<g id="node21" class="node">
<title>13</title>
<ellipse fill="#ffeeff" stroke="black" cx="773.81" cy="-207.34" rx="57.34" ry="18"/>
<text text-anchor="start" x="737.2" y="-206.87" font-family="Monaco" font-size="11.00">acc</text>
<text text-anchor="start" x="757" y="-206.87" font-family="Monaco" baseline-shift="super" font-size="8.00" fill="#00aa11">S64</text>
<text text-anchor="start" x="771.41" y="-206.87" font-family="Monaco" baseline-shift="super" font-size="8.00" fill="#3311ff">r1</text>
<text text-anchor="start" x="781.01" y="-206.87" font-family="Monaco" font-size="11.00">:in</text>
<text text-anchor="start" x="800.81" y="-206.87" font-family="Monaco" baseline-shift="super" font-size="8.00" fill="#ff4411">q2</text>
</g>
<!-- 13&#45;&gt;5 -->
<g id="edge19" class="edge">
<title>13&#45;&gt;5</title>
<path fill="none" stroke="black" d="M800.09,-191.2C823.5,-177.71 858.01,-157.84 884.14,-142.79"/>
<polygon fill="black" stroke="black" points="886.09,-145.71 893,-137.68 882.59,-139.64 886.09,-145.71"/>
</g>
<!-- 4 -->
<g id="node26" class="node">
<title>4</title>
<ellipse fill="none" stroke="black" cx="1042.81" cy="-207.34" rx="82.55" ry="18"/>
<text text-anchor="start" x="986.7" y="-206.87" font-family="Monaco" font-size="11.00">@d</text>
<text text-anchor="start" x="999.9" y="-206.87" font-family="Monaco" baseline-shift="super" font-size="8.00" fill="#00aa11">S64</text>
<text text-anchor="start" x="1014.3" y="-206.87" font-family="Monaco" baseline-shift="super" font-size="8.00" fill="#3311ff">r2</text>
<text text-anchor="start" x="1023.9" y="-206.87" font-family="Monaco" font-size="11.00">:a64*</text>
<text text-anchor="start" x="1056.91" y="-206.87" font-family="Monaco" baseline-shift="super" font-size="8.00" fill="#3311ff">Bin2</text>
<text text-anchor="start" x="1076.11" y="-206.87" font-family="Monaco" font-size="11.00">@c</text>
<text text-anchor="start" x="1089.31" y="-206.87" font-family="Monaco" baseline-shift="super" font-size="8.00" fill="#ff4411">q6</text>
</g>
<!-- 2&#45;&gt;4 -->
<g id="edge13" class="edge">
<title>2&#45;&gt;4</title>
<path fill="none" stroke="black" d="M1079.43,-262.51C1073.66,-253.97 1066.52,-243.42 1060.09,-233.9"/>
<polygon fill="black" stroke="black" points="1062.93,-231.86 1054.43,-225.54 1057.13,-235.78 1062.93,-231.86"/>
</g>
<!-- 7&#45;&gt;21 -->
<g id="edge18" class="edge">
<title>7&#45;&gt;21</title>
<path fill="none" stroke="black" d="M814.63,-263.23C829.54,-253.15 848.9,-240.06 864.97,-229.19"/>
<polygon fill="black" stroke="black" points="867.19,-231.91 873.51,-223.41 863.27,-226.12 867.19,-231.91"/>
</g>
<!-- 3&#45;&gt;4 -->
<g id="edge14" class="edge">
<title>3&#45;&gt;4</title>
<path fill="none" stroke="black" d="M967.04,-263.23C980.26,-253.65 997.23,-241.36 1011.75,-230.83"/>
<polygon fill="black" stroke="black" points="1013.93,-233.58 1019.98,-224.88 1009.82,-227.91 1013.93,-233.58"/>
</g>
<!-- 4&#45;&gt;5 -->
<g id="edge15" class="edge">
<title>4&#45;&gt;5</title>
<path fill="none" stroke="black" d="M1019.28,-190.01C1000.3,-176.83 973.4,-158.17 952.51,-143.67"/>
<polygon fill="black" stroke="black" points="954.47,-140.77 944.26,-137.94 950.48,-146.52 954.47,-140.77"/>
</g>
</g>
</svg>
