<?xml version="1.0" encoding="UTF-8" standalone="no"?>
<!DOCTYPE svg PUBLIC "-//W3C//DTD SVG 1.1//EN"
 "http://www.w3.org/Graphics/SVG/1.1/DTD/svg11.dtd">
<!-- Generated by graphviz version 2.43.0 (0)
 -->
<!-- Title: Program_ Pages: 1 -->
<svg width="1192pt" height="419pt"
 viewBox="0.00 0.00 1191.81 419.34" xmlns="http://www.w3.org/2000/svg" xmlns:xlink="http://www.w3.org/1999/xlink">
<g id="graph0" class="graph" transform="scale(1 1) rotate(0) translate(4 415.34)">
<title>Program_</title>
<polygon fill="white" stroke="transparent" points="-4,4 -4,-415.34 1187.81,-415.34 1187.81,4 -4,4"/>
<g id="clust1" class="cluster">
<title>cluster_dfg_Block0</title>
<polygon fill="none" stroke="black" points="174.81,-181.34 174.81,-403.34 573.81,-403.34 573.81,-181.34 174.81,-181.34"/>
<text text-anchor="middle" x="374.31" y="-389.74" font-family="Monaco" font-size="12.00">Block0</text>
</g>
<g id="clust2" class="cluster">
<title>cluster_dfg_Block1</title>
<polygon fill="none" stroke="black" points="581.81,-254.34 581.81,-403.34 711.81,-403.34 711.81,-254.34 581.81,-254.34"/>
<text text-anchor="middle" x="646.81" y="-389.74" font-family="Monaco" font-size="12.00">Block1</text>
</g>
<g id="clust3" class="cluster">
<title>cluster_dfg_Block2</title>
<polygon fill="none" stroke="black" points="719.81,-8 719.81,-403.34 1175.81,-403.34 1175.81,-8 719.81,-8"/>
<text text-anchor="middle" x="947.81" y="-389.74" font-family="Monaco" font-size="12.00">Block2</text>
</g>
<!-- Jump0 -->
<g id="node1" class="node">
<title>Jump0</title>
<polygon fill="none" stroke="black" points="141.42,-371.34 50.19,-371.34 50.19,-367.34 46.19,-367.34 46.19,-363.34 50.19,-363.34 50.19,-343.34 46.19,-343.34 46.19,-339.34 50.19,-339.34 50.19,-335.34 141.42,-335.34 141.42,-371.34"/>
<polyline fill="none" stroke="black" points="50.19,-367.34 54.19,-367.34 54.19,-363.34 50.19,-363.34 "/>
<polyline fill="none" stroke="black" points="50.19,-343.34 54.19,-343.34 54.19,-339.34 50.19,-339.34 "/>
<text text-anchor="start" x="58" y="-356.54" font-family="Monaco" font-size="11.00">StartFun.0</text>
<text text-anchor="start" x="124.01" y="-356.54" font-family="Monaco" baseline-shift="super" font-size="8.00" fill="#ff4411">q0</text>
<text text-anchor="start" x="79.3" y="-345.54" font-family="Monaco" font-size="11.00">i,acc</text>
</g>
<!-- Block0 -->
<g id="node2" class="node">
<title>Block0</title>
<polygon fill="none" stroke="black" points="123.41,-298.34 68.2,-298.34 68.2,-262.34 123.41,-262.34 123.41,-298.34"/>
<text text-anchor="middle" x="95.81" y="-278.87" font-family="Monaco" font-size="11.00">Block0</text>
</g>
<!-- Jump0&#45;&gt;Block0 -->
<g id="edge1" class="edge">
<title>Jump0&#45;&gt;Block0</title>
<path fill="none" stroke="black" d="M95.81,-335.15C95.81,-327.13 95.81,-317.38 95.81,-308.41"/>
<polygon fill="black" stroke="black" points="99.31,-308.37 95.81,-298.37 92.31,-308.37 99.31,-308.37"/>
</g>
<!-- Jump1 -->
<g id="node3" class="node">
<title>Jump1</title>
<path fill="none" stroke="black" d="M125.41,-225.34C125.41,-225.34 66.2,-225.34 66.2,-225.34 60.2,-225.34 50.39,-220.7 46.57,-216.07 46.57,-216.07 32.19,-198.6 32.19,-198.6 28.38,-193.97 30.57,-189.34 36.57,-189.34 36.57,-189.34 155.05,-189.34 155.05,-189.34 161.05,-189.34 163.23,-193.97 159.42,-198.6 159.42,-198.6 145.04,-216.07 145.04,-216.07 141.23,-220.7 131.41,-225.34 125.41,-225.34"/>
<text text-anchor="start" x="64.6" y="-206.87" font-family="Monaco" font-size="11.00">Branch.1</text>
<text text-anchor="start" x="117.41" y="-206.87" font-family="Monaco" baseline-shift="super" font-size="8.00" fill="#ff4411">q2</text>
</g>
<!-- Block0&#45;&gt;Jump1 -->
<g id="edge2" class="edge">
<title>Block0&#45;&gt;Jump1</title>
<path fill="none" stroke="black" d="M95.81,-262.15C95.81,-254.13 95.81,-244.38 95.81,-235.41"/>
<polygon fill="black" stroke="black" points="99.31,-235.37 95.81,-225.37 92.31,-235.37 99.31,-235.37"/>
</g>
<!-- Block1 -->
<g id="node4" class="node">
<title>Block1</title>
<polygon fill="none" stroke="black" points="86.41,-138.67 31.2,-138.67 31.2,-102.67 86.41,-102.67 86.41,-138.67"/>
<text text-anchor="middle" x="58.81" y="-119.2" font-family="Monaco" font-size="11.00">Block1</text>
</g>
<!-- Jump1&#45;&gt;Block1 -->
<g id="edge3" class="edge">
<title>Jump1&#45;&gt;Block1</title>
<path fill="none" stroke="black" d="M88.32,-189.2C83.15,-177.38 76.19,-161.44 70.32,-148.01"/>
<polygon fill="black" stroke="black" points="73.49,-146.54 66.28,-138.78 67.08,-149.34 73.49,-146.54"/>
<text text-anchor="middle" x="86.41" y="-162.54" font-family="Monaco" font-size="11.00">@b</text>
</g>
<!-- Block2 -->
<g id="node5" class="node">
<title>Block2</title>
<polygon fill="none" stroke="black" points="184.41,-138.67 129.2,-138.67 129.2,-102.67 184.41,-102.67 184.41,-138.67"/>
<text text-anchor="middle" x="156.81" y="-119.2" font-family="Monaco" font-size="11.00">Block2</text>
</g>
<!-- Jump1&#45;&gt;Block2 -->
<g id="edge4" class="edge">
<title>Jump1&#45;&gt;Block2</title>
<path fill="none" stroke="black" d="M108.15,-189.2C116.83,-177.15 128.6,-160.82 138.39,-147.23"/>
<polygon fill="black" stroke="black" points="141.47,-148.94 144.48,-138.78 135.79,-144.84 141.47,-148.94"/>
<text text-anchor="middle" x="140.71" y="-162.54" font-family="Monaco" font-size="11.00">!@b</text>
</g>
<!-- Jump2_4 -->
<g id="node6" class="node">
<title>Jump2_4</title>
<polygon fill="none" stroke="black" points="91.42,-46 18.19,-46 18.19,-52 0.19,-34 18.19,-16 18.19,-22 73.42,-22 73.42,-16 91.42,-16 91.42,-46"/>
<text text-anchor="start" x="8" y="-33.53" font-family="Monaco" font-size="11.00">Return.2_4</text>
<text text-anchor="start" x="74.01" y="-33.53" font-family="Monaco" baseline-shift="super" font-size="8.00" fill="#ff4411">q4</text>
</g>
<!-- Block1&#45;&gt;Jump2_4 -->
<g id="edge5" class="edge">
<title>Block1&#45;&gt;Jump2_4</title>
<path fill="none" stroke="black" d="M56.18,-102.53C54.4,-90.94 52.01,-75.39 49.97,-62.13"/>
<polygon fill="black" stroke="black" points="53.41,-61.46 48.43,-52.11 46.49,-62.52 53.41,-61.46"/>
<text text-anchor="middle" x="63.71" y="-75.87" font-family="Monaco" font-size="11.00">acc</text>
</g>
<!-- Jump2_5_6 -->
<g id="node7" class="node">
<title>Jump2_5_6</title>
<polygon fill="none" stroke="black" points="227.82,-52 109.79,-52 109.79,-48 105.79,-48 105.79,-44 109.79,-44 109.79,-24 105.79,-24 105.79,-20 109.79,-20 109.79,-16 227.82,-16 227.82,-52"/>
<polyline fill="none" stroke="black" points="109.79,-48 113.79,-48 113.79,-44 109.79,-44 "/>
<polyline fill="none" stroke="black" points="109.79,-24 113.79,-24 113.79,-20 109.79,-20 "/>
<text text-anchor="start" x="117.8" y="-37.2" font-family="Monaco" font-size="11.00">TailCall.2_5_6</text>
<text text-anchor="start" x="210.21" y="-37.2" font-family="Monaco" baseline-shift="super" font-size="8.00" fill="#ff4411">q8</text>
<text text-anchor="start" x="122.6" y="-26.2" font-family="Monaco" font-size="11.00">dotProd(@g,@e)</text>
</g>
<!-- Block2&#45;&gt;Jump2_5_6 -->
<g id="edge6" class="edge">
<title>Block2&#45;&gt;Jump2_5_6</title>
<path fill="none" stroke="black" d="M159.23,-102.53C160.88,-90.94 163.08,-75.39 164.96,-62.13"/>
<polygon fill="black" stroke="black" points="168.44,-62.5 166.38,-52.11 161.51,-61.52 168.44,-62.5"/>
</g>
<!-- ndBlock0_0 -->
<g id="node8" class="node">
<title>ndBlock0_0</title>
<ellipse fill="none" stroke="black" cx="515.81" cy="-280.34" rx="50.43" ry="18"/>
<text text-anchor="start" x="484.6" y="-279.87" font-family="Monaco" font-size="11.00">out(acc)</text>
<text text-anchor="start" x="537.41" y="-279.87" font-family="Monaco" baseline-shift="super" font-size="8.00" fill="#ff4411">q2</text>
</g>
<!-- ndBlock0_1 -->
<g id="node9" class="node">
<title>ndBlock0_1</title>
<ellipse fill="none" stroke="black" cx="508.81" cy="-353.34" rx="57.34" ry="18"/>
<text text-anchor="start" x="472.2" y="-352.87" font-family="Monaco" font-size="11.00">acc</text>
<text text-anchor="start" x="492" y="-352.87" font-family="Monaco" baseline-shift="super" font-size="8.00" fill="#00dd33">S64</text>
<text text-anchor="start" x="506.41" y="-352.87" font-family="Monaco" baseline-shift="super" font-size="8.00" fill="#3311ff">r1</text>
<text text-anchor="start" x="516.01" y="-352.87" font-family="Monaco" font-size="11.00">:in</text>
<text text-anchor="start" x="535.81" y="-352.87" font-family="Monaco" baseline-shift="super" font-size="8.00" fill="#ff4411">q0</text>
</g>
<!-- ndBlock0_1&#45;&gt;ndBlock0_0 -->
<g id="edge7" class="edge">
<title>ndBlock0_1&#45;&gt;ndBlock0_0</title>
<path fill="none" stroke="black" d="M510.5,-335.15C511.29,-327.13 512.25,-317.38 513.14,-308.41"/>
<polygon fill="black" stroke="black" points="516.63,-308.66 514.13,-298.37 509.66,-307.97 516.63,-308.66"/>
</g>
<!-- ndBlock0_2 -->
<g id="node10" class="node">
<title>ndBlock0_2</title>
<ellipse fill="none" stroke="black" cx="234.81" cy="-353.34" rx="48.84" ry="18"/>
<text text-anchor="start" x="204.8" y="-352.87" font-family="Monaco" font-size="11.00">i</text>
<text text-anchor="start" x="211.4" y="-352.87" font-family="Monaco" baseline-shift="super" font-size="8.00" fill="#00dd33">U10</text>
<text text-anchor="start" x="225.8" y="-352.87" font-family="Monaco" baseline-shift="super" font-size="8.00" fill="#3311ff">r0</text>
<text text-anchor="start" x="235.41" y="-352.87" font-family="Monaco" font-size="11.00">:in</text>
<text text-anchor="start" x="255.21" y="-352.87" font-family="Monaco" baseline-shift="super" font-size="8.00" fill="#ff4411">q0</text>
</g>
<!-- ndBlock0_5 -->
<g id="node13" class="node">
<title>ndBlock0_5</title>
<ellipse fill="none" stroke="black" cx="224.81" cy="-280.34" rx="41.94" ry="18"/>
<text text-anchor="start" x="200.2" y="-279.87" font-family="Monaco" font-size="11.00">out(i)</text>
<text text-anchor="start" x="239.81" y="-279.87" font-family="Monaco" baseline-shift="super" font-size="8.00" fill="#ff4411">q2</text>
</g>
<!-- ndBlock0_2&#45;&gt;ndBlock0_5 -->
<g id="edge11" class="edge">
<title>ndBlock0_2&#45;&gt;ndBlock0_5</title>
<path fill="none" stroke="black" d="M232.39,-335.15C231.26,-327.13 229.88,-317.38 228.62,-308.41"/>
<polygon fill="black" stroke="black" points="232.07,-307.78 227.2,-298.37 225.13,-308.76 232.07,-307.78"/>
</g>
<!-- ndBlock0_6 -->
<g id="node14" class="node">
<title>ndBlock0_6</title>
<ellipse fill="none" stroke="black" cx="365.81" cy="-280.34" rx="81.23" ry="18"/>
<text text-anchor="start" x="310.6" y="-279.87" font-family="Monaco" font-size="11.00">@b</text>
<text text-anchor="start" x="323.8" y="-279.87" font-family="Monaco" baseline-shift="super" font-size="8.00" fill="#00dd33">U1</text>
<text text-anchor="start" x="333.4" y="-279.87" font-family="Monaco" baseline-shift="super" font-size="8.00" fill="#3311ff">r2</text>
<text text-anchor="start" x="343" y="-279.87" font-family="Monaco" font-size="11.00">:i==</text>
<text text-anchor="start" x="369.41" y="-279.87" font-family="Monaco" baseline-shift="super" font-size="8.00" fill="#3311ff">Equal0</text>
<text text-anchor="start" x="398.21" y="-279.87" font-family="Monaco" font-size="11.00">@a</text>
<text text-anchor="start" x="411.41" y="-279.87" font-family="Monaco" baseline-shift="super" font-size="8.00" fill="#ff4411">q1</text>
</g>
<!-- ndBlock0_2&#45;&gt;ndBlock0_6 -->
<g id="edge9" class="edge">
<title>ndBlock0_2&#45;&gt;ndBlock0_6</title>
<path fill="none" stroke="black" d="M261.32,-337.97C280.42,-327.62 306.48,-313.49 327.79,-301.94"/>
<polygon fill="black" stroke="black" points="329.48,-305.01 336.6,-297.17 326.14,-298.85 329.48,-305.01"/>
</g>
<!-- ndBlock0_3 -->
<g id="node11" class="node">
<title>ndBlock0_3</title>
<ellipse fill="none" stroke="black" cx="365.81" cy="-207.34" rx="46.44" ry="18"/>
<text text-anchor="start" x="337.9" y="-206.87" font-family="Monaco" font-size="11.00">out(@b)</text>
<text text-anchor="start" x="384.11" y="-206.87" font-family="Monaco" baseline-shift="super" font-size="8.00" fill="#ff4411">q2</text>
</g>
<!-- ndBlock0_4 -->
<g id="node12" class="node">
<title>ndBlock0_4</title>
<ellipse fill="none" stroke="black" cx="365.81" cy="-353.34" rx="61.83" ry="18"/>
<text text-anchor="start" x="325.9" y="-352.87" font-family="Monaco" font-size="11.00">@a</text>
<text text-anchor="start" x="339.1" y="-352.87" font-family="Monaco" baseline-shift="super" font-size="8.00" fill="#00dd33">U10</text>
<text text-anchor="start" x="353.5" y="-352.87" font-family="Monaco" baseline-shift="super" font-size="8.00" fill="#3311ff">r2</text>
<text text-anchor="start" x="363.11" y="-352.87" font-family="Monaco" font-size="11.00">:1000</text>
<text text-anchor="start" x="396.11" y="-352.87" font-family="Monaco" baseline-shift="super" font-size="8.00" fill="#ff4411">q0</text>
</g>
<!-- ndBlock0_4&#45;&gt;ndBlock0_6 -->
<g id="edge10" class="edge">
<title>ndBlock0_4&#45;&gt;ndBlock0_6</title>
<path fill="none" stroke="black" d="M365.81,-335.15C365.81,-327.13 365.81,-317.38 365.81,-308.41"/>
<polygon fill="black" stroke="black" points="369.31,-308.37 365.81,-298.37 362.31,-308.37 369.31,-308.37"/>
</g>
<!-- ndBlock0_6&#45;&gt;ndBlock0_3 -->
<g id="edge8" class="edge">
<title>ndBlock0_6&#45;&gt;ndBlock0_3</title>
<path fill="none" stroke="black" d="M365.81,-262.15C365.81,-254.13 365.81,-244.38 365.81,-235.41"/>
<polygon fill="black" stroke="black" points="369.31,-235.37 365.81,-225.37 362.31,-235.37 369.31,-235.37"/>
</g>
<!-- ndBlock1_0 -->
<g id="node15" class="node">
<title>ndBlock1_0</title>
<ellipse fill="none" stroke="black" cx="646.81" cy="-353.34" rx="57.34" ry="18"/>
<text text-anchor="start" x="610.2" y="-352.87" font-family="Monaco" font-size="11.00">acc</text>
<text text-anchor="start" x="630" y="-352.87" font-family="Monaco" baseline-shift="super" font-size="8.00" fill="#00dd33">S64</text>
<text text-anchor="start" x="644.41" y="-352.87" font-family="Monaco" baseline-shift="super" font-size="8.00" fill="#3311ff">r1</text>
<text text-anchor="start" x="654.01" y="-352.87" font-family="Monaco" font-size="11.00">:in</text>
<text text-anchor="start" x="673.81" y="-352.87" font-family="Monaco" baseline-shift="super" font-size="8.00" fill="#ff4411">q2</text>
</g>
<!-- ndBlock1_1 -->
<g id="node16" class="node">
<title>ndBlock1_1</title>
<ellipse fill="none" stroke="black" cx="646.81" cy="-280.34" rx="50.43" ry="18"/>
<text text-anchor="start" x="615.6" y="-279.87" font-family="Monaco" font-size="11.00">out(acc)</text>
<text text-anchor="start" x="668.41" y="-279.87" font-family="Monaco" baseline-shift="super" font-size="8.00" fill="#ff4411">q4</text>
</g>
<!-- ndBlock1_0&#45;&gt;ndBlock1_1 -->
<g id="edge12" class="edge">
<title>ndBlock1_0&#45;&gt;ndBlock1_1</title>
<path fill="none" stroke="black" d="M646.81,-335.15C646.81,-327.13 646.81,-317.38 646.81,-308.41"/>
<polygon fill="black" stroke="black" points="650.31,-308.37 646.81,-298.37 643.31,-308.37 650.31,-308.37"/>
</g>
<!-- ndBlock2_0 -->
<g id="node17" class="node">
<title>ndBlock2_0</title>
<ellipse fill="none" stroke="black" cx="959.81" cy="-280.34" rx="65.83" ry="18"/>
<text text-anchor="start" x="916.6" y="-279.87" font-family="Monaco" font-size="11.00">a64</text>
<text text-anchor="start" x="936.4" y="-279.87" font-family="Monaco" baseline-shift="super" font-size="8.00" fill="#00dd33">S64</text>
<text text-anchor="start" x="950.8" y="-279.87" font-family="Monaco" baseline-shift="super" font-size="8.00" fill="#3311ff">r0</text>
<text text-anchor="start" x="960.41" y="-279.87" font-family="Monaco" font-size="11.00">:a[i]</text>
<text text-anchor="start" x="993.41" y="-279.87" font-family="Monaco" baseline-shift="super" font-size="8.00" fill="#ff4411">q5</text>
</g>
<!-- ndBlock2_4 -->
<g id="node21" class="node">
<title>ndBlock2_4</title>
<ellipse fill="none" stroke="black" cx="952.81" cy="-207.34" rx="82.55" ry="18"/>
<text text-anchor="start" x="896.7" y="-206.87" font-family="Monaco" font-size="11.00">@d</text>
<text text-anchor="start" x="909.9" y="-206.87" font-family="Monaco" baseline-shift="super" font-size="8.00" fill="#00dd33">S64</text>
<text text-anchor="start" x="924.3" y="-206.87" font-family="Monaco" baseline-shift="super" font-size="8.00" fill="#3311ff">r0</text>
<text text-anchor="start" x="933.9" y="-206.87" font-family="Monaco" font-size="11.00">:a64*</text>
<text text-anchor="start" x="966.91" y="-206.87" font-family="Monaco" baseline-shift="super" font-size="8.00" fill="#3311ff">Mul2</text>
<text text-anchor="start" x="986.11" y="-206.87" font-family="Monaco" font-size="11.00">@c</text>
<text text-anchor="start" x="999.31" y="-206.87" font-family="Monaco" baseline-shift="super" font-size="8.00" fill="#ff4411">q6</text>
</g>
<!-- ndBlock2_0&#45;&gt;ndBlock2_4 -->
<g id="edge21" class="edge">
<title>ndBlock2_0&#45;&gt;ndBlock2_4</title>
<path fill="none" stroke="black" d="M958.11,-262.15C957.32,-254.13 956.36,-244.38 955.47,-235.41"/>
<polygon fill="black" stroke="black" points="958.95,-234.97 954.49,-225.37 951.98,-235.66 958.95,-234.97"/>
</g>
<!-- ndBlock2_1 -->
<g id="node18" class="node">
<title>ndBlock2_1</title>
<ellipse fill="none" stroke="black" cx="1031.81" cy="-34" rx="46.44" ry="18"/>
<text text-anchor="start" x="1003.9" y="-33.53" font-family="Monaco" font-size="11.00">out(@e)</text>
<text text-anchor="start" x="1050.11" y="-33.53" font-family="Monaco" baseline-shift="super" font-size="8.00" fill="#ff4411">q8</text>
</g>
<!-- ndBlock2_2 -->
<g id="node19" class="node">
<title>ndBlock2_2</title>
<ellipse fill="none" stroke="black" cx="1110.81" cy="-207.34" rx="57.34" ry="18"/>
<text text-anchor="start" x="1074.2" y="-206.87" font-family="Monaco" font-size="11.00">acc</text>
<text text-anchor="start" x="1094" y="-206.87" font-family="Monaco" baseline-shift="super" font-size="8.00" fill="#00dd33">S64</text>
<text text-anchor="start" x="1108.41" y="-206.87" font-family="Monaco" baseline-shift="super" font-size="8.00" fill="#3311ff">r1</text>
<text text-anchor="start" x="1118.01" y="-206.87" font-family="Monaco" font-size="11.00">:in</text>
<text text-anchor="start" x="1137.81" y="-206.87" font-family="Monaco" baseline-shift="super" font-size="8.00" fill="#ff4411">q2</text>
</g>
<!-- ndBlock2_7 -->
<g id="node24" class="node">
<title>ndBlock2_7</title>
<ellipse fill="none" stroke="black" cx="1031.81" cy="-120.67" rx="82.55" ry="18"/>
<text text-anchor="start" x="975.7" y="-120.2" font-family="Monaco" font-size="11.00">@e</text>
<text text-anchor="start" x="988.9" y="-120.2" font-family="Monaco" baseline-shift="super" font-size="8.00" fill="#00dd33">S64</text>
<text text-anchor="start" x="1003.3" y="-120.2" font-family="Monaco" baseline-shift="super" font-size="8.00" fill="#3311ff">r0</text>
<text text-anchor="start" x="1012.9" y="-120.2" font-family="Monaco" font-size="11.00">:acc+</text>
<text text-anchor="start" x="1045.91" y="-120.2" font-family="Monaco" baseline-shift="super" font-size="8.00" fill="#3311ff">Add3</text>
<text text-anchor="start" x="1065.11" y="-120.2" font-family="Monaco" font-size="11.00">@d</text>
<text text-anchor="start" x="1078.31" y="-120.2" font-family="Monaco" baseline-shift="super" font-size="8.00" fill="#ff4411">q7</text>
</g>
<!-- ndBlock2_2&#45;&gt;ndBlock2_7 -->
<g id="edge15" class="edge">
<title>ndBlock2_2&#45;&gt;ndBlock2_7</title>
<path fill="none" stroke="black" d="M1095.2,-189.61C1083.51,-177.08 1067.36,-159.77 1054.28,-145.76"/>
<polygon fill="black" stroke="black" points="1056.76,-143.29 1047.38,-138.36 1051.64,-148.06 1056.76,-143.29"/>
</g>
<!-- ndBlock2_3 -->
<g id="node20" class="node">
<title>ndBlock2_3</title>
<ellipse fill="none" stroke="black" cx="801.81" cy="-207.34" rx="46.44" ry="18"/>
<text text-anchor="start" x="773.9" y="-206.87" font-family="Monaco" font-size="11.00">out(@g)</text>
<text text-anchor="start" x="820.11" y="-206.87" font-family="Monaco" baseline-shift="super" font-size="8.00" fill="#ff4411">q8</text>
</g>
<!-- ndBlock2_4&#45;&gt;ndBlock2_7 -->
<g id="edge16" class="edge">
<title>ndBlock2_4&#45;&gt;ndBlock2_7</title>
<path fill="none" stroke="black" d="M968.41,-189.61C980.1,-177.08 996.25,-159.77 1009.33,-145.76"/>
<polygon fill="black" stroke="black" points="1011.97,-148.06 1016.23,-138.36 1006.85,-143.29 1011.97,-148.06"/>
</g>
<!-- ndBlock2_5 -->
<g id="node22" class="node">
<title>ndBlock2_5</title>
<ellipse fill="none" stroke="black" cx="801.81" cy="-280.34" rx="74.05" ry="18"/>
<text text-anchor="start" x="752.3" y="-279.87" font-family="Monaco" font-size="11.00">@g</text>
<text text-anchor="start" x="765.5" y="-279.87" font-family="Monaco" baseline-shift="super" font-size="8.00" fill="#00dd33">U10</text>
<text text-anchor="start" x="779.9" y="-279.87" font-family="Monaco" baseline-shift="super" font-size="8.00" fill="#3311ff">r3</text>
<text text-anchor="start" x="789.5" y="-279.87" font-family="Monaco" font-size="11.00">:i+</text>
<text text-anchor="start" x="809.31" y="-279.87" font-family="Monaco" baseline-shift="super" font-size="8.00" fill="#3311ff">Add1</text>
<text text-anchor="start" x="828.51" y="-279.87" font-family="Monaco" font-size="11.00">@f</text>
<text text-anchor="start" x="841.71" y="-279.87" font-family="Monaco" baseline-shift="super" font-size="8.00" fill="#ff4411">q5</text>
</g>
<!-- ndBlock2_5&#45;&gt;ndBlock2_3 -->
<g id="edge13" class="edge">
<title>ndBlock2_5&#45;&gt;ndBlock2_3</title>
<path fill="none" stroke="black" d="M801.81,-262.15C801.81,-254.13 801.81,-244.38 801.81,-235.41"/>
<polygon fill="black" stroke="black" points="805.31,-235.37 801.81,-225.37 798.31,-235.37 805.31,-235.37"/>
</g>
<!-- ndBlock2_6 -->
<g id="node23" class="node">
<title>ndBlock2_6</title>
<ellipse fill="none" stroke="black" cx="801.81" cy="-353.34" rx="45.66" ry="18"/>
<text text-anchor="start" x="774.2" y="-352.87" font-family="Monaco" font-size="11.00">@f</text>
<text text-anchor="start" x="787.4" y="-352.87" font-family="Monaco" baseline-shift="super" font-size="8.00" fill="#00dd33">U1</text>
<text text-anchor="start" x="797.01" y="-352.87" font-family="Monaco" baseline-shift="super" font-size="8.00" fill="#3311ff">r2</text>
<text text-anchor="start" x="806.61" y="-352.87" font-family="Monaco" font-size="11.00">:1</text>
<text text-anchor="start" x="819.81" y="-352.87" font-family="Monaco" baseline-shift="super" font-size="8.00" fill="#ff4411">q2</text>
</g>
<!-- ndBlock2_6&#45;&gt;ndBlock2_5 -->
<g id="edge19" class="edge">
<title>ndBlock2_6&#45;&gt;ndBlock2_5</title>
<path fill="none" stroke="black" d="M801.81,-335.15C801.81,-327.13 801.81,-317.38 801.81,-308.41"/>
<polygon fill="black" stroke="black" points="805.31,-308.37 801.81,-298.37 798.31,-308.37 805.31,-308.37"/>
</g>
<!-- ndBlock2_7&#45;&gt;ndBlock2_1 -->
<g id="edge18" class="edge">
<title>ndBlock2_7&#45;&gt;ndBlock2_1</title>
<path fill="none" stroke="black" d="M1031.81,-102.53C1031.81,-90.94 1031.81,-75.39 1031.81,-62.13"/>
<polygon fill="black" stroke="black" points="1035.31,-62.11 1031.81,-52.11 1028.31,-62.11 1035.31,-62.11"/>
</g>
<!-- ndBlock2_8 -->
<g id="node25" class="node">
<title>ndBlock2_8</title>
<ellipse fill="none" stroke="black" cx="959.81" cy="-353.34" rx="48.84" ry="18"/>
<text text-anchor="start" x="929.8" y="-352.87" font-family="Monaco" font-size="11.00">i</text>
<text text-anchor="start" x="936.4" y="-352.87" font-family="Monaco" baseline-shift="super" font-size="8.00" fill="#00dd33">U10</text>
<text text-anchor="start" x="950.8" y="-352.87" font-family="Monaco" baseline-shift="super" font-size="8.00" fill="#3311ff">r0</text>
<text text-anchor="start" x="960.41" y="-352.87" font-family="Monaco" font-size="11.00">:in</text>
<text text-anchor="start" x="980.21" y="-352.87" font-family="Monaco" baseline-shift="super" font-size="8.00" fill="#ff4411">q2</text>
</g>
<!-- ndBlock2_8&#45;&gt;ndBlock2_0 -->
<g id="edge14" class="edge">
<title>ndBlock2_8&#45;&gt;ndBlock2_0</title>
<path fill="none" stroke="black" d="M959.81,-335.15C959.81,-327.13 959.81,-317.38 959.81,-308.41"/>
<polygon fill="black" stroke="black" points="963.31,-308.37 959.81,-298.37 956.31,-308.37 963.31,-308.37"/>
</g>
<!-- ndBlock2_8&#45;&gt;ndBlock2_5 -->
<g id="edge20" class="edge">
<title>ndBlock2_8&#45;&gt;ndBlock2_5</title>
<path fill="none" stroke="black" d="M930.09,-338.98C906.02,-328.17 871.79,-312.78 844.74,-300.63"/>
<polygon fill="black" stroke="black" points="846.06,-297.38 835.5,-296.48 843.19,-303.77 846.06,-297.38"/>
</g>
<!-- ndBlock2_9 -->
<g id="node26" class="node">
<title>ndBlock2_9</title>
<ellipse fill="none" stroke="black" cx="1105.81" cy="-280.34" rx="61.83" ry="18"/>
<text text-anchor="start" x="1065.9" y="-279.87" font-family="Monaco" font-size="11.00">@c</text>
<text text-anchor="start" x="1079.1" y="-279.87" font-family="Monaco" baseline-shift="super" font-size="8.00" fill="#00dd33">S32</text>
<text text-anchor="start" x="1093.5" y="-279.87" font-family="Monaco" baseline-shift="super" font-size="8.00" fill="#3311ff">r2</text>
<text text-anchor="start" x="1103.11" y="-279.87" font-family="Monaco" font-size="11.00">:b[i]</text>
<text text-anchor="start" x="1136.11" y="-279.87" font-family="Monaco" baseline-shift="super" font-size="8.00" fill="#ff4411">q5</text>
</g>
<!-- ndBlock2_8&#45;&gt;ndBlock2_9 -->
<g id="edge17" class="edge">
<title>ndBlock2_8&#45;&gt;ndBlock2_9</title>
<path fill="none" stroke="black" d="M988.3,-338.48C1010.53,-327.67 1041.65,-312.54 1066.28,-300.56"/>
<polygon fill="black" stroke="black" points="1067.91,-303.66 1075.37,-296.14 1064.84,-297.36 1067.91,-303.66"/>
</g>
<!-- ndBlock2_9&#45;&gt;ndBlock2_4 -->
<g id="edge22" class="edge">
<title>ndBlock2_9&#45;&gt;ndBlock2_4</title>
<path fill="none" stroke="black" d="M1074.48,-264.8C1051.68,-254.22 1020.56,-239.78 995.49,-228.15"/>
<polygon fill="black" stroke="black" points="996.76,-224.88 986.22,-223.84 993.81,-231.22 996.76,-224.88"/>
</g>
</g>
</svg>
