<?xml version="1.0" encoding="UTF-8" standalone="no"?>
<!DOCTYPE svg PUBLIC "-//W3C//DTD SVG 1.1//EN"
 "http://www.w3.org/Graphics/SVG/1.1/DTD/svg11.dtd">
<!-- Generated by graphviz version 2.43.0 (0)
 -->
<!-- Title: Program_ Pages: 1 -->
<svg width="1207pt" height="577pt"
 viewBox="0.00 0.00 1207.37 576.68" xmlns="http://www.w3.org/2000/svg" xmlns:xlink="http://www.w3.org/1999/xlink">
<g id="graph0" class="graph" transform="scale(1 1) rotate(0) translate(4 572.68)">
<title>Program_</title>
<polygon fill="white" stroke="transparent" points="-4,4 -4,-572.68 1203.37,-572.68 1203.37,4 -4,4"/>
<g id="clust1" class="cluster">
<title>cluster_dfg_Block0</title>
<polygon fill="none" stroke="black" points="158.37,-252.01 158.37,-560.68 553.37,-560.68 553.37,-252.01 158.37,-252.01"/>
<text text-anchor="middle" x="355.87" y="-547.08" font-family="Monaco" font-size="12.00">Block0</text>
</g>
<g id="clust2" class="cluster">
<title>cluster_dfg_Block1</title>
<polygon fill="none" stroke="black" points="561.37,-411.67 561.37,-560.68 657.37,-560.68 657.37,-411.67 561.37,-411.67"/>
<text text-anchor="middle" x="609.37" y="-547.08" font-family="Monaco" font-size="12.00">Block1</text>
</g>
<g id="clust3" class="cluster">
<title>cluster_dfg_Block2</title>
<polygon fill="none" stroke="black" points="665.37,-252.01 665.37,-560.68 1061.37,-560.68 1061.37,-252.01 665.37,-252.01"/>
<text text-anchor="middle" x="863.37" y="-547.08" font-family="Monaco" font-size="12.00">Block2</text>
</g>
<g id="clust4" class="cluster">
<title>cluster_dfg_Block3</title>
<polygon fill="none" stroke="black" points="1069.37,-411.67 1069.37,-560.68 1191.37,-560.68 1191.37,-411.67 1069.37,-411.67"/>
<text text-anchor="middle" x="1130.37" y="-547.08" font-family="Monaco" font-size="12.00">Block3</text>
</g>
<!-- Jump0 -->
<g id="node1" class="node">
<title>Jump0</title>
<polygon fill="none" stroke="black" points="116.98,-528.67 25.76,-528.67 25.76,-524.67 21.76,-524.67 21.76,-520.67 25.76,-520.67 25.76,-500.67 21.76,-500.67 21.76,-496.67 25.76,-496.67 25.76,-492.67 116.98,-492.67 116.98,-528.67"/>
<polyline fill="none" stroke="black" points="25.76,-524.67 29.76,-524.67 29.76,-520.67 25.76,-520.67 "/>
<polyline fill="none" stroke="black" points="25.76,-500.67 29.76,-500.67 29.76,-496.67 25.76,-496.67 "/>
<text text-anchor="start" x="33.56" y="-510.21" font-family="Monaco" font-size="11.00">StartFun.0</text>
<text text-anchor="start" x="99.57" y="-510.21" font-family="Monaco" baseline-shift="super" font-size="8.00" fill="#ff4411">q0</text>
</g>
<!-- Block0 -->
<g id="node2" class="node">
<title>Block0</title>
<polygon fill="none" stroke="black" points="98.98,-455.67 43.76,-455.67 43.76,-419.67 98.98,-419.67 98.98,-455.67"/>
<text text-anchor="middle" x="71.37" y="-436.21" font-family="Monaco" font-size="11.00">Block0</text>
</g>
<!-- Jump0&#45;&gt;Block0 -->
<g id="edge1" class="edge">
<title>Jump0&#45;&gt;Block0</title>
<path fill="none" stroke="black" d="M71.37,-492.49C71.37,-484.46 71.37,-474.72 71.37,-465.74"/>
<polygon fill="black" stroke="black" points="74.87,-465.7 71.37,-455.7 67.87,-465.7 74.87,-465.7"/>
</g>
<!-- Jump1 -->
<g id="node3" class="node">
<title>Jump1</title>
<path fill="none" stroke="black" d="M100.98,-382.67C100.98,-382.67 41.76,-382.67 41.76,-382.67 35.76,-382.67 25.95,-378.04 22.14,-373.41 22.14,-373.41 7.76,-355.94 7.76,-355.94 3.94,-351.31 6.13,-346.67 12.13,-346.67 12.13,-346.67 130.61,-346.67 130.61,-346.67 136.61,-346.67 138.8,-351.31 134.98,-355.94 134.98,-355.94 120.6,-373.41 120.6,-373.41 116.79,-378.04 106.98,-382.67 100.98,-382.67"/>
<text text-anchor="start" x="40.17" y="-364.21" font-family="Monaco" font-size="11.00">Branch.1</text>
<text text-anchor="start" x="92.97" y="-364.21" font-family="Monaco" baseline-shift="super" font-size="8.00" fill="#ff4411">q3</text>
</g>
<!-- Block0&#45;&gt;Jump1 -->
<g id="edge2" class="edge">
<title>Block0&#45;&gt;Jump1</title>
<path fill="none" stroke="black" d="M71.37,-419.49C71.37,-411.46 71.37,-401.72 71.37,-392.74"/>
<polygon fill="black" stroke="black" points="74.87,-392.7 71.37,-382.7 67.87,-392.7 74.87,-392.7"/>
</g>
<!-- Block1 -->
<g id="node4" class="node">
<title>Block1</title>
<polygon fill="none" stroke="black" points="75.98,-296.01 20.76,-296.01 20.76,-260.01 75.98,-260.01 75.98,-296.01"/>
<text text-anchor="middle" x="48.37" y="-276.54" font-family="Monaco" font-size="11.00">Block1</text>
</g>
<!-- Jump1&#45;&gt;Block1 -->
<g id="edge3" class="edge">
<title>Jump1&#45;&gt;Block1</title>
<path fill="none" stroke="black" d="M66.72,-346.54C63.57,-334.95 59.34,-319.4 55.74,-306.14"/>
<polygon fill="black" stroke="black" points="59.02,-304.85 53.02,-296.11 52.26,-306.68 59.02,-304.85"/>
<text text-anchor="middle" x="67.97" y="-319.87" font-family="Monaco" font-size="11.00">@2</text>
</g>
<!-- Block2 -->
<g id="node5" class="node">
<title>Block2</title>
<polygon fill="none" stroke="black" points="149.98,-296.01 94.76,-296.01 94.76,-260.01 149.98,-260.01 149.98,-296.01"/>
<text text-anchor="middle" x="122.37" y="-276.54" font-family="Monaco" font-size="11.00">Block2</text>
</g>
<!-- Jump1&#45;&gt;Block2 -->
<g id="edge4" class="edge">
<title>Jump1&#45;&gt;Block2</title>
<path fill="none" stroke="black" d="M81.69,-346.54C88.88,-334.6 98.6,-318.47 106.74,-304.96"/>
<polygon fill="black" stroke="black" points="109.9,-306.49 112.06,-296.11 103.91,-302.87 109.9,-306.49"/>
<text text-anchor="middle" x="110.27" y="-319.87" font-family="Monaco" font-size="11.00">!@2</text>
</g>
<!-- Jump2 -->
<g id="node6" class="node">
<title>Jump2</title>
<path fill="none" stroke="black" d="M51.56,-173.34C51.56,-173.34 119.18,-173.34 119.18,-173.34 125.18,-173.34 135.21,-177.78 139.24,-182.23 139.24,-182.23 155.75,-200.45 155.75,-200.45 159.78,-204.89 157.81,-209.34 151.81,-209.34 151.81,-209.34 18.93,-209.34 18.93,-209.34 12.93,-209.34 10.96,-204.89 14.99,-200.45 14.99,-200.45 31.5,-182.23 31.5,-182.23 35.53,-177.78 45.56,-173.34 51.56,-173.34"/>
<text text-anchor="start" x="50.26" y="-190.87" font-family="Monaco" font-size="11.00">Merge.2</text>
<text text-anchor="start" x="96.47" y="-190.87" font-family="Monaco" baseline-shift="super" font-size="8.00" fill="#ff4411">q5|q8</text>
</g>
<!-- Block1&#45;&gt;Jump2 -->
<g id="edge5" class="edge">
<title>Block1&#45;&gt;Jump2</title>
<path fill="none" stroke="black" d="M55.86,-259.87C61.02,-248.05 67.99,-232.11 73.86,-218.68"/>
<polygon fill="black" stroke="black" points="77.1,-220.01 77.89,-209.45 70.68,-217.21 77.1,-220.01"/>
<text text-anchor="middle" x="75.97" y="-233.21" font-family="Monaco" font-size="11.00">@3</text>
</g>
<!-- Block2&#45;&gt;Jump2 -->
<g id="edge6" class="edge">
<title>Block2&#45;&gt;Jump2</title>
<path fill="none" stroke="black" d="M114.88,-259.87C109.72,-248.05 102.75,-232.11 96.88,-218.68"/>
<polygon fill="black" stroke="black" points="100.06,-217.21 92.85,-209.45 93.64,-220.01 100.06,-217.21"/>
<text text-anchor="middle" x="112.97" y="-233.21" font-family="Monaco" font-size="11.00">@7</text>
</g>
<!-- Block3 -->
<g id="node7" class="node">
<title>Block3</title>
<polygon fill="none" stroke="black" points="112.98,-122.67 57.76,-122.67 57.76,-86.67 112.98,-86.67 112.98,-122.67"/>
<text text-anchor="middle" x="85.37" y="-103.2" font-family="Monaco" font-size="11.00">Block3</text>
</g>
<!-- Jump2&#45;&gt;Block3 -->
<g id="edge7" class="edge">
<title>Jump2&#45;&gt;Block3</title>
<path fill="none" stroke="black" d="M85.37,-173.2C85.37,-161.61 85.37,-146.06 85.37,-132.8"/>
<polygon fill="black" stroke="black" points="88.87,-132.78 85.37,-122.78 81.87,-132.78 88.87,-132.78"/>
<text text-anchor="middle" x="91.97" y="-146.54" font-family="Monaco" font-size="11.00">@8</text>
</g>
<!-- Jump3 -->
<g id="node8" class="node">
<title>Jump3</title>
<polygon fill="none" stroke="black" points="124.78,-30 63.96,-30 63.96,-36 45.96,-18 63.96,0 63.96,-6 106.78,-6 106.78,0 124.78,0 124.78,-30"/>
<text text-anchor="start" x="54.17" y="-17.53" font-family="Monaco" font-size="11.00">Return.3</text>
<text text-anchor="start" x="106.97" y="-17.53" font-family="Monaco" baseline-shift="super" font-size="8.00" fill="#ff4411">q9</text>
</g>
<!-- Block3&#45;&gt;Jump3 -->
<g id="edge8" class="edge">
<title>Block3&#45;&gt;Jump3</title>
<path fill="none" stroke="black" d="M85.37,-86.53C85.37,-74.94 85.37,-59.39 85.37,-46.13"/>
<polygon fill="black" stroke="black" points="88.87,-46.11 85.37,-36.11 81.87,-46.11 88.87,-46.11"/>
<text text-anchor="middle" x="91.97" y="-59.87" font-family="Monaco" font-size="11.00">@8</text>
</g>
<!-- ndBlock0_0 -->
<g id="node9" class="node">
<title>ndBlock0_0</title>
<ellipse fill="none" stroke="black" cx="353.37" cy="-364.67" rx="79.37" ry="18"/>
<text text-anchor="start" x="299.66" y="-364.21" font-family="Monaco" font-size="11.00">@2</text>
<text text-anchor="start" x="312.86" y="-364.21" font-family="Monaco" baseline-shift="super" font-size="8.00" fill="#3311ff">r3</text>
<text text-anchor="start" x="322.47" y="-364.21" font-family="Monaco" font-size="11.00">:n0==</text>
<text text-anchor="start" x="355.47" y="-364.21" font-family="Monaco" baseline-shift="super" font-size="8.00" fill="#3311ff">Equal1</text>
<text text-anchor="start" x="384.28" y="-364.21" font-family="Monaco" font-size="11.00">@1</text>
<text text-anchor="start" x="397.48" y="-364.21" font-family="Monaco" baseline-shift="super" font-size="8.00" fill="#ff4411">q2</text>
</g>
<!-- ndBlock0_1 -->
<g id="node10" class="node">
<title>ndBlock0_1</title>
<ellipse fill="none" stroke="black" cx="353.37" cy="-278.01" rx="29.45" ry="18"/>
<text text-anchor="start" x="338.67" y="-277.54" font-family="Monaco" font-size="11.00">out</text>
<text text-anchor="start" x="358.47" y="-277.54" font-family="Monaco" baseline-shift="super" font-size="8.00" fill="#ff4411">q3</text>
</g>
<!-- ndBlock0_0&#45;&gt;ndBlock0_1 -->
<g id="edge11" class="edge">
<title>ndBlock0_0&#45;&gt;ndBlock0_1</title>
<path fill="none" stroke="black" d="M353.37,-346.54C353.37,-334.95 353.37,-319.4 353.37,-306.14"/>
<polygon fill="black" stroke="black" points="356.87,-306.11 353.37,-296.11 349.87,-306.11 356.87,-306.11"/>
</g>
<!-- ndBlock0_2 -->
<g id="node11" class="node">
<title>ndBlock0_2</title>
<ellipse fill="none" stroke="black" cx="440.37" cy="-437.67" rx="29.45" ry="18"/>
<text text-anchor="start" x="425.67" y="-437.21" font-family="Monaco" font-size="11.00">out</text>
<text text-anchor="start" x="445.47" y="-437.21" font-family="Monaco" baseline-shift="super" font-size="8.00" fill="#ff4411">q3</text>
</g>
<!-- ndBlock0_3 -->
<g id="node12" class="node">
<title>ndBlock0_3</title>
<ellipse fill="none" stroke="black" cx="505.37" cy="-510.67" rx="39.8" ry="18"/>
<text text-anchor="start" x="482.57" y="-510.21" font-family="Monaco" font-size="11.00">a</text>
<text text-anchor="start" x="489.17" y="-510.21" font-family="Monaco" baseline-shift="super" font-size="8.00" fill="#3311ff">r0</text>
<text text-anchor="start" x="498.77" y="-510.21" font-family="Monaco" font-size="11.00">:in</text>
<text text-anchor="start" x="518.57" y="-510.21" font-family="Monaco" baseline-shift="super" font-size="8.00" fill="#ff4411">q0</text>
</g>
<!-- ndBlock0_5 -->
<g id="node14" class="node">
<title>ndBlock0_5</title>
<ellipse fill="none" stroke="black" cx="516.37" cy="-437.67" rx="29.45" ry="18"/>
<text text-anchor="start" x="501.67" y="-437.21" font-family="Monaco" font-size="11.00">out</text>
<text text-anchor="start" x="521.47" y="-437.21" font-family="Monaco" baseline-shift="super" font-size="8.00" fill="#ff4411">q3</text>
</g>
<!-- ndBlock0_3&#45;&gt;ndBlock0_5 -->
<g id="edge12" class="edge">
<title>ndBlock0_3&#45;&gt;ndBlock0_5</title>
<path fill="none" stroke="black" d="M508.03,-492.49C509.28,-484.46 510.79,-474.72 512.18,-465.74"/>
<polygon fill="black" stroke="black" points="515.66,-466.12 513.73,-455.7 508.74,-465.05 515.66,-466.12"/>
</g>
<!-- ndBlock0_4 -->
<g id="node13" class="node">
<title>ndBlock0_4</title>
<ellipse fill="none" stroke="black" cx="408.37" cy="-510.67" rx="39.8" ry="18"/>
<text text-anchor="start" x="385.57" y="-510.21" font-family="Monaco" font-size="11.00">b</text>
<text text-anchor="start" x="392.17" y="-510.21" font-family="Monaco" baseline-shift="super" font-size="8.00" fill="#3311ff">r1</text>
<text text-anchor="start" x="401.77" y="-510.21" font-family="Monaco" font-size="11.00">:in</text>
<text text-anchor="start" x="421.57" y="-510.21" font-family="Monaco" baseline-shift="super" font-size="8.00" fill="#ff4411">q0</text>
</g>
<!-- ndBlock0_4&#45;&gt;ndBlock0_2 -->
<g id="edge9" class="edge">
<title>ndBlock0_4&#45;&gt;ndBlock0_2</title>
<path fill="none" stroke="black" d="M415.95,-492.85C419.74,-484.45 424.4,-474.1 428.64,-464.7"/>
<polygon fill="black" stroke="black" points="431.92,-465.93 432.84,-455.38 425.54,-463.06 431.92,-465.93"/>
</g>
<!-- ndBlock0_6 -->
<g id="node15" class="node">
<title>ndBlock0_6</title>
<ellipse fill="none" stroke="black" cx="226.37" cy="-364.67" rx="29.45" ry="18"/>
<text text-anchor="start" x="211.67" y="-364.21" font-family="Monaco" font-size="11.00">out</text>
<text text-anchor="start" x="231.47" y="-364.21" font-family="Monaco" baseline-shift="super" font-size="8.00" fill="#ff4411">q3</text>
</g>
<!-- ndBlock0_7 -->
<g id="node16" class="node">
<title>ndBlock0_7</title>
<ellipse fill="none" stroke="black" cx="307.37" cy="-510.67" rx="39.8" ry="18"/>
<text text-anchor="start" x="284.57" y="-510.21" font-family="Monaco" font-size="11.00">@0</text>
<text text-anchor="start" x="297.77" y="-510.21" font-family="Monaco" baseline-shift="super" font-size="8.00" fill="#3311ff">r2</text>
<text text-anchor="start" x="307.37" y="-510.21" font-family="Monaco" font-size="11.00">:0</text>
<text text-anchor="start" x="320.57" y="-510.21" font-family="Monaco" baseline-shift="super" font-size="8.00" fill="#ff4411">q0</text>
</g>
<!-- ndBlock0_8 -->
<g id="node17" class="node">
<title>ndBlock0_8</title>
<ellipse fill="none" stroke="black" cx="231.37" cy="-437.67" rx="64.52" ry="18"/>
<text text-anchor="start" x="189.06" y="-437.21" font-family="Monaco" font-size="11.00">n0</text>
<text text-anchor="start" x="202.27" y="-437.21" font-family="Monaco" baseline-shift="super" font-size="8.00" fill="#3311ff">r2</text>
<text text-anchor="start" x="211.87" y="-437.21" font-family="Monaco" font-size="11.00">:n+</text>
<text text-anchor="start" x="231.67" y="-437.21" font-family="Monaco" baseline-shift="super" font-size="8.00" fill="#3311ff">Add0</text>
<text text-anchor="start" x="250.87" y="-437.21" font-family="Monaco" font-size="11.00">@0</text>
<text text-anchor="start" x="264.08" y="-437.21" font-family="Monaco" baseline-shift="super" font-size="8.00" fill="#ff4411">q1</text>
</g>
<!-- ndBlock0_7&#45;&gt;ndBlock0_8 -->
<g id="edge15" class="edge">
<title>ndBlock0_7&#45;&gt;ndBlock0_8</title>
<path fill="none" stroke="black" d="M290.88,-494.27C280.81,-484.86 267.72,-472.64 256.39,-462.05"/>
<polygon fill="black" stroke="black" points="258.58,-459.31 248.89,-455.04 253.8,-464.42 258.58,-459.31"/>
</g>
<!-- ndBlock0_8&#45;&gt;ndBlock0_0 -->
<g id="edge13" class="edge">
<title>ndBlock0_8&#45;&gt;ndBlock0_0</title>
<path fill="none" stroke="black" d="M258.14,-421.09C275.46,-411.01 298.22,-397.77 317.15,-386.75"/>
<polygon fill="black" stroke="black" points="318.93,-389.77 325.81,-381.71 315.41,-383.72 318.93,-389.77"/>
</g>
<!-- ndBlock0_8&#45;&gt;ndBlock0_6 -->
<g id="edge10" class="edge">
<title>ndBlock0_8&#45;&gt;ndBlock0_6</title>
<path fill="none" stroke="black" d="M230.16,-419.49C229.59,-411.46 228.91,-401.72 228.28,-392.74"/>
<polygon fill="black" stroke="black" points="231.76,-392.43 227.57,-382.7 224.78,-392.92 231.76,-392.43"/>
</g>
<!-- ndBlock0_9 -->
<g id="node18" class="node">
<title>ndBlock0_9</title>
<ellipse fill="none" stroke="black" cx="353.37" cy="-437.67" rx="39.8" ry="18"/>
<text text-anchor="start" x="330.57" y="-437.21" font-family="Monaco" font-size="11.00">@1</text>
<text text-anchor="start" x="343.77" y="-437.21" font-family="Monaco" baseline-shift="super" font-size="8.00" fill="#3311ff">r3</text>
<text text-anchor="start" x="353.37" y="-437.21" font-family="Monaco" font-size="11.00">:0</text>
<text text-anchor="start" x="366.57" y="-437.21" font-family="Monaco" baseline-shift="super" font-size="8.00" fill="#ff4411">q0</text>
</g>
<!-- ndBlock0_9&#45;&gt;ndBlock0_0 -->
<g id="edge14" class="edge">
<title>ndBlock0_9&#45;&gt;ndBlock0_0</title>
<path fill="none" stroke="black" d="M353.37,-419.49C353.37,-411.46 353.37,-401.72 353.37,-392.74"/>
<polygon fill="black" stroke="black" points="356.87,-392.7 353.37,-382.7 349.87,-392.7 356.87,-392.7"/>
</g>
<!-- ndBlock0_10 -->
<g id="node19" class="node">
<title>ndBlock0_10</title>
<ellipse fill="none" stroke="black" cx="210.37" cy="-510.67" rx="39.8" ry="18"/>
<text text-anchor="start" x="187.57" y="-510.21" font-family="Monaco" font-size="11.00">n</text>
<text text-anchor="start" x="194.17" y="-510.21" font-family="Monaco" baseline-shift="super" font-size="8.00" fill="#3311ff">r4</text>
<text text-anchor="start" x="203.77" y="-510.21" font-family="Monaco" font-size="11.00">:in</text>
<text text-anchor="start" x="223.57" y="-510.21" font-family="Monaco" baseline-shift="super" font-size="8.00" fill="#ff4411">q0</text>
</g>
<!-- ndBlock0_10&#45;&gt;ndBlock0_8 -->
<g id="edge16" class="edge">
<title>ndBlock0_10&#45;&gt;ndBlock0_8</title>
<path fill="none" stroke="black" d="M215.45,-492.49C217.85,-484.38 220.77,-474.51 223.45,-465.45"/>
<polygon fill="black" stroke="black" points="226.85,-466.28 226.33,-455.7 220.14,-464.3 226.85,-466.28"/>
</g>
<!-- ndBlock1_0 -->
<g id="node20" class="node">
<title>ndBlock1_0</title>
<ellipse fill="none" stroke="black" cx="609.37" cy="-510.67" rx="39.8" ry="18"/>
<text text-anchor="start" x="586.57" y="-510.21" font-family="Monaco" font-size="11.00">@3</text>
<text text-anchor="start" x="599.77" y="-510.21" font-family="Monaco" baseline-shift="super" font-size="8.00" fill="#3311ff">r0</text>
<text text-anchor="start" x="609.37" y="-510.21" font-family="Monaco" font-size="11.00">:1</text>
<text text-anchor="start" x="622.57" y="-510.21" font-family="Monaco" baseline-shift="super" font-size="8.00" fill="#ff4411">q3</text>
</g>
<!-- ndBlock1_1 -->
<g id="node21" class="node">
<title>ndBlock1_1</title>
<ellipse fill="none" stroke="black" cx="609.37" cy="-437.67" rx="29.45" ry="18"/>
<text text-anchor="start" x="594.67" y="-437.21" font-family="Monaco" font-size="11.00">out</text>
<text text-anchor="start" x="614.47" y="-437.21" font-family="Monaco" baseline-shift="super" font-size="8.00" fill="#ff4411">q5</text>
</g>
<!-- ndBlock1_0&#45;&gt;ndBlock1_1 -->
<g id="edge17" class="edge">
<title>ndBlock1_0&#45;&gt;ndBlock1_1</title>
<path fill="none" stroke="black" d="M609.37,-492.49C609.37,-484.46 609.37,-474.72 609.37,-465.74"/>
<polygon fill="black" stroke="black" points="612.87,-465.7 609.37,-455.7 605.87,-465.7 612.87,-465.7"/>
</g>
<!-- ndBlock2_0 -->
<g id="node22" class="node">
<title>ndBlock2_0</title>
<ellipse fill="none" stroke="black" cx="907.37" cy="-510.67" rx="39.8" ry="18"/>
<text text-anchor="start" x="884.57" y="-510.21" font-family="Monaco" font-size="11.00">@5</text>
<text text-anchor="start" x="897.77" y="-510.21" font-family="Monaco" baseline-shift="super" font-size="8.00" fill="#3311ff">r3</text>
<text text-anchor="start" x="907.37" y="-510.21" font-family="Monaco" font-size="11.00">:1</text>
<text text-anchor="start" x="920.57" y="-510.21" font-family="Monaco" baseline-shift="super" font-size="8.00" fill="#ff4411">q3</text>
</g>
<!-- ndBlock2_4 -->
<g id="node26" class="node">
<title>ndBlock2_4</title>
<ellipse fill="none" stroke="black" cx="941.37" cy="-437.67" rx="69.01" ry="18"/>
<text text-anchor="start" x="895.76" y="-437.21" font-family="Monaco" font-size="11.00">@6</text>
<text text-anchor="start" x="908.96" y="-437.21" font-family="Monaco" baseline-shift="super" font-size="8.00" fill="#3311ff">r2</text>
<text text-anchor="start" x="918.57" y="-437.21" font-family="Monaco" font-size="11.00">:n0&#45;</text>
<text text-anchor="start" x="944.97" y="-437.21" font-family="Monaco" baseline-shift="super" font-size="8.00" fill="#3311ff">Sub2</text>
<text text-anchor="start" x="964.17" y="-437.21" font-family="Monaco" font-size="11.00">@5</text>
<text text-anchor="start" x="977.38" y="-437.21" font-family="Monaco" baseline-shift="super" font-size="8.00" fill="#ff4411">q6</text>
</g>
<!-- ndBlock2_0&#45;&gt;ndBlock2_4 -->
<g id="edge24" class="edge">
<title>ndBlock2_0&#45;&gt;ndBlock2_4</title>
<path fill="none" stroke="black" d="M915.43,-492.85C919.39,-484.57 924.26,-474.4 928.71,-465.11"/>
<polygon fill="black" stroke="black" points="931.97,-466.4 933.13,-455.87 925.66,-463.38 931.97,-466.4"/>
</g>
<!-- ndBlock2_1 -->
<g id="node23" class="node">
<title>ndBlock2_1</title>
<ellipse fill="none" stroke="black" cx="810.37" cy="-510.67" rx="39.8" ry="18"/>
<text text-anchor="start" x="787.57" y="-510.21" font-family="Monaco" font-size="11.00">b</text>
<text text-anchor="start" x="794.17" y="-510.21" font-family="Monaco" baseline-shift="super" font-size="8.00" fill="#3311ff">r1</text>
<text text-anchor="start" x="803.77" y="-510.21" font-family="Monaco" font-size="11.00">:in</text>
<text text-anchor="start" x="823.57" y="-510.21" font-family="Monaco" baseline-shift="super" font-size="8.00" fill="#ff4411">q3</text>
</g>
<!-- ndBlock2_2 -->
<g id="node24" class="node">
<title>ndBlock2_2</title>
<ellipse fill="none" stroke="black" cx="793.37" cy="-437.67" rx="60.52" ry="18"/>
<text text-anchor="start" x="754.36" y="-437.21" font-family="Monaco" font-size="11.00">@4</text>
<text text-anchor="start" x="767.57" y="-437.21" font-family="Monaco" baseline-shift="super" font-size="8.00" fill="#3311ff">r1</text>
<text text-anchor="start" x="777.17" y="-437.21" font-family="Monaco" font-size="11.00">:a+</text>
<text text-anchor="start" x="796.97" y="-437.21" font-family="Monaco" baseline-shift="super" font-size="8.00" fill="#3311ff">Add0</text>
<text text-anchor="start" x="816.17" y="-437.21" font-family="Monaco" font-size="11.00">b</text>
<text text-anchor="start" x="822.78" y="-437.21" font-family="Monaco" baseline-shift="super" font-size="8.00" fill="#ff4411">q6</text>
</g>
<!-- ndBlock2_1&#45;&gt;ndBlock2_2 -->
<g id="edge18" class="edge">
<title>ndBlock2_1&#45;&gt;ndBlock2_2</title>
<path fill="none" stroke="black" d="M806.26,-492.49C804.31,-484.38 801.95,-474.51 799.78,-465.45"/>
<polygon fill="black" stroke="black" points="803.18,-464.61 797.45,-455.7 796.37,-466.24 803.18,-464.61"/>
</g>
<!-- ndBlock2_6 -->
<g id="node28" class="node">
<title>ndBlock2_6</title>
<ellipse fill="none" stroke="black" cx="793.37" cy="-364.67" rx="86.27" ry="18"/>
<text text-anchor="start" x="734.26" y="-364.21" font-family="Monaco" font-size="11.00">@7</text>
<text text-anchor="start" x="747.46" y="-364.21" font-family="Monaco" baseline-shift="super" font-size="8.00" fill="#3311ff">r0</text>
<text text-anchor="start" x="757.06" y="-364.21" font-family="Monaco" font-size="11.00">:fib(@6,@4,a)</text>
<text text-anchor="start" x="842.88" y="-364.21" font-family="Monaco" baseline-shift="super" font-size="8.00" fill="#ff4411">q7</text>
</g>
<!-- ndBlock2_2&#45;&gt;ndBlock2_6 -->
<g id="edge21" class="edge">
<title>ndBlock2_2&#45;&gt;ndBlock2_6</title>
<path fill="none" stroke="black" d="M793.37,-419.49C793.37,-411.46 793.37,-401.72 793.37,-392.74"/>
<polygon fill="black" stroke="black" points="796.87,-392.7 793.37,-382.7 789.87,-392.7 796.87,-392.7"/>
</g>
<!-- ndBlock2_3 -->
<g id="node25" class="node">
<title>ndBlock2_3</title>
<ellipse fill="none" stroke="black" cx="1009.37" cy="-510.67" rx="43.8" ry="18"/>
<text text-anchor="start" x="983.27" y="-510.21" font-family="Monaco" font-size="11.00">n0</text>
<text text-anchor="start" x="996.47" y="-510.21" font-family="Monaco" baseline-shift="super" font-size="8.00" fill="#3311ff">r2</text>
<text text-anchor="start" x="1006.07" y="-510.21" font-family="Monaco" font-size="11.00">:in</text>
<text text-anchor="start" x="1025.87" y="-510.21" font-family="Monaco" baseline-shift="super" font-size="8.00" fill="#ff4411">q3</text>
</g>
<!-- ndBlock2_3&#45;&gt;ndBlock2_4 -->
<g id="edge25" class="edge">
<title>ndBlock2_3&#45;&gt;ndBlock2_4</title>
<path fill="none" stroke="black" d="M993.94,-493.56C985.2,-484.43 974.09,-472.84 964.34,-462.66"/>
<polygon fill="black" stroke="black" points="966.66,-460.01 957.21,-455.21 961.6,-464.86 966.66,-460.01"/>
</g>
<!-- ndBlock2_4&#45;&gt;ndBlock2_6 -->
<g id="edge22" class="edge">
<title>ndBlock2_4&#45;&gt;ndBlock2_6</title>
<path fill="none" stroke="black" d="M909.98,-421.62C888.26,-411.2 859.1,-397.21 835.38,-385.83"/>
<polygon fill="black" stroke="black" points="836.78,-382.62 826.25,-381.45 833.75,-388.93 836.78,-382.62"/>
</g>
<!-- ndBlock2_5 -->
<g id="node27" class="node">
<title>ndBlock2_5</title>
<ellipse fill="none" stroke="black" cx="793.37" cy="-278.01" rx="29.45" ry="18"/>
<text text-anchor="start" x="778.67" y="-277.54" font-family="Monaco" font-size="11.00">out</text>
<text text-anchor="start" x="798.47" y="-277.54" font-family="Monaco" baseline-shift="super" font-size="8.00" fill="#ff4411">q8</text>
</g>
<!-- ndBlock2_6&#45;&gt;ndBlock2_5 -->
<g id="edge20" class="edge">
<title>ndBlock2_6&#45;&gt;ndBlock2_5</title>
<path fill="none" stroke="black" d="M793.37,-346.54C793.37,-334.95 793.37,-319.4 793.37,-306.14"/>
<polygon fill="black" stroke="black" points="796.87,-306.11 793.37,-296.11 789.87,-306.11 796.87,-306.11"/>
</g>
<!-- ndBlock2_7 -->
<g id="node29" class="node">
<title>ndBlock2_7</title>
<ellipse fill="none" stroke="black" cx="713.37" cy="-510.67" rx="39.8" ry="18"/>
<text text-anchor="start" x="690.57" y="-510.21" font-family="Monaco" font-size="11.00">a</text>
<text text-anchor="start" x="697.17" y="-510.21" font-family="Monaco" baseline-shift="super" font-size="8.00" fill="#3311ff">r0</text>
<text text-anchor="start" x="706.77" y="-510.21" font-family="Monaco" font-size="11.00">:in</text>
<text text-anchor="start" x="726.57" y="-510.21" font-family="Monaco" baseline-shift="super" font-size="8.00" fill="#ff4411">q3</text>
</g>
<!-- ndBlock2_7&#45;&gt;ndBlock2_2 -->
<g id="edge19" class="edge">
<title>ndBlock2_7&#45;&gt;ndBlock2_2</title>
<path fill="none" stroke="black" d="M730.73,-494.27C741.44,-484.77 755.37,-472.4 767.37,-461.75"/>
<polygon fill="black" stroke="black" points="769.78,-464.29 774.93,-455.04 765.13,-459.06 769.78,-464.29"/>
</g>
<!-- ndBlock2_7&#45;&gt;ndBlock2_6 -->
<g id="edge23" class="edge">
<title>ndBlock2_7&#45;&gt;ndBlock2_6</title>
<path fill="none" stroke="black" d="M710.93,-492.7C708.83,-472 708.2,-436.67 723.37,-411.67 729.5,-401.58 738.78,-393.26 748.6,-386.6"/>
<polygon fill="black" stroke="black" points="750.67,-389.44 757.31,-381.18 746.97,-383.5 750.67,-389.44"/>
</g>
<!-- ndBlock3_0 -->
<g id="node30" class="node">
<title>ndBlock3_0</title>
<ellipse fill="none" stroke="black" cx="1130.37" cy="-510.67" rx="53.34" ry="18"/>
<text text-anchor="start" x="1097.06" y="-510.21" font-family="Monaco" font-size="11.00">@8</text>
<text text-anchor="start" x="1110.27" y="-510.21" font-family="Monaco" baseline-shift="super" font-size="8.00" fill="#3311ff">r0</text>
<text text-anchor="start" x="1119.87" y="-510.21" font-family="Monaco" font-size="11.00">:in</text>
<text text-anchor="start" x="1139.67" y="-510.21" font-family="Monaco" baseline-shift="super" font-size="8.00" fill="#ff4411">q5|q8</text>
</g>
<!-- ndBlock3_1 -->
<g id="node31" class="node">
<title>ndBlock3_1</title>
<ellipse fill="none" stroke="black" cx="1130.37" cy="-437.67" rx="29.45" ry="18"/>
<text text-anchor="start" x="1115.67" y="-437.21" font-family="Monaco" font-size="11.00">out</text>
<text text-anchor="start" x="1135.47" y="-437.21" font-family="Monaco" baseline-shift="super" font-size="8.00" fill="#ff4411">q9</text>
</g>
<!-- ndBlock3_0&#45;&gt;ndBlock3_1 -->
<g id="edge26" class="edge">
<title>ndBlock3_0&#45;&gt;ndBlock3_1</title>
<path fill="none" stroke="black" d="M1130.37,-492.49C1130.37,-484.46 1130.37,-474.72 1130.37,-465.74"/>
<polygon fill="black" stroke="black" points="1133.87,-465.7 1130.37,-455.7 1126.87,-465.7 1133.87,-465.7"/>
</g>
</g>
</svg>
