<?xml version="1.0" encoding="UTF-8" standalone="no"?>
<!DOCTYPE svg PUBLIC "-//W3C//DTD SVG 1.1//EN"
 "http://www.w3.org/Graphics/SVG/1.1/DTD/svg11.dtd">
<!-- Generated by graphviz version 2.43.0 (0)
 -->
<!-- Title: Program_ Pages: 1 -->
<svg width="1176pt" height="403pt"
 viewBox="0.00 0.00 1175.81 403.34" xmlns="http://www.w3.org/2000/svg" xmlns:xlink="http://www.w3.org/1999/xlink">
<g id="graph0" class="graph" transform="scale(1 1) rotate(0) translate(4 399.34)">
<title>Program_</title>
<polygon fill="white" stroke="transparent" points="-4,4 -4,-399.34 1171.81,-399.34 1171.81,4 -4,4"/>
<g id="clust1" class="cluster">
<title>cluster_dfg_Block0</title>
<polygon fill="none" stroke="black" points="199.81,-78.67 199.81,-387.34 647.81,-387.34 647.81,-78.67 199.81,-78.67"/>
<text text-anchor="middle" x="423.81" y="-373.74" font-family="Monaco" font-size="12.00">Block0</text>
</g>
<g id="clust2" class="cluster">
<title>cluster_dfg_Block1</title>
<polygon fill="none" stroke="black" points="655.81,-238.34 655.81,-387.34 755.81,-387.34 755.81,-238.34 655.81,-238.34"/>
<text text-anchor="middle" x="705.81" y="-373.74" font-family="Monaco" font-size="12.00">Block1</text>
</g>
<g id="clust3" class="cluster">
<title>cluster_dfg_Block2</title>
<polygon fill="none" stroke="black" points="763.81,-165.34 763.81,-387.34 1159.81,-387.34 1159.81,-165.34 763.81,-165.34"/>
<text text-anchor="middle" x="961.81" y="-373.74" font-family="Monaco" font-size="12.00">Block2</text>
</g>
<!-- Jump0 -->
<g id="node1" class="node">
<title>Jump0</title>
<polygon fill="none" stroke="black" points="160.42,-355.34 69.19,-355.34 69.19,-351.34 65.19,-351.34 65.19,-347.34 69.19,-347.34 69.19,-327.34 65.19,-327.34 65.19,-323.34 69.19,-323.34 69.19,-319.34 160.42,-319.34 160.42,-355.34"/>
<polyline fill="none" stroke="black" points="69.19,-351.34 73.19,-351.34 73.19,-347.34 69.19,-347.34 "/>
<polyline fill="none" stroke="black" points="69.19,-327.34 73.19,-327.34 73.19,-323.34 69.19,-323.34 "/>
<text text-anchor="start" x="77" y="-340.54" font-family="Monaco" font-size="11.00">StartFun.0</text>
<text text-anchor="start" x="143.01" y="-340.54" font-family="Monaco" baseline-shift="super" font-size="8.00" fill="#ff4411">q0</text>
<text text-anchor="start" x="98.3" y="-329.54" font-family="Monaco" font-size="11.00">n,a,b</text>
</g>
<!-- Block0 -->
<g id="node2" class="node">
<title>Block0</title>
<polygon fill="none" stroke="black" points="142.41,-282.34 87.2,-282.34 87.2,-246.34 142.41,-246.34 142.41,-282.34"/>
<text text-anchor="middle" x="114.81" y="-262.87" font-family="Monaco" font-size="11.00">Block0</text>
</g>
<!-- Jump0&#45;&gt;Block0 -->
<g id="edge1" class="edge">
<title>Jump0&#45;&gt;Block0</title>
<path fill="none" stroke="black" d="M114.81,-319.15C114.81,-311.13 114.81,-301.38 114.81,-292.41"/>
<polygon fill="black" stroke="black" points="118.31,-292.37 114.81,-282.37 111.31,-292.37 118.31,-292.37"/>
</g>
<!-- Jump1 -->
<g id="node3" class="node">
<title>Jump1</title>
<path fill="none" stroke="black" d="M144.41,-209.34C144.41,-209.34 85.2,-209.34 85.2,-209.34 79.2,-209.34 69.39,-204.7 65.57,-200.07 65.57,-200.07 51.19,-182.6 51.19,-182.6 47.38,-177.97 49.57,-173.34 55.57,-173.34 55.57,-173.34 174.05,-173.34 174.05,-173.34 180.05,-173.34 182.23,-177.97 178.42,-182.6 178.42,-182.6 164.04,-200.07 164.04,-200.07 160.23,-204.7 150.41,-209.34 144.41,-209.34"/>
<text text-anchor="start" x="83.6" y="-190.87" font-family="Monaco" font-size="11.00">Branch.1</text>
<text text-anchor="start" x="136.41" y="-190.87" font-family="Monaco" baseline-shift="super" font-size="8.00" fill="#ff4411">q3</text>
</g>
<!-- Block0&#45;&gt;Jump1 -->
<g id="edge2" class="edge">
<title>Block0&#45;&gt;Jump1</title>
<path fill="none" stroke="black" d="M114.81,-246.15C114.81,-238.13 114.81,-228.38 114.81,-219.41"/>
<polygon fill="black" stroke="black" points="118.31,-219.37 114.81,-209.37 111.31,-219.37 118.31,-219.37"/>
</g>
<!-- Block1 -->
<g id="node4" class="node">
<title>Block1</title>
<polygon fill="none" stroke="black" points="84.41,-122.67 29.2,-122.67 29.2,-86.67 84.41,-86.67 84.41,-122.67"/>
<text text-anchor="middle" x="56.81" y="-103.2" font-family="Monaco" font-size="11.00">Block1</text>
</g>
<!-- Jump1&#45;&gt;Block1 -->
<g id="edge3" class="edge">
<title>Jump1&#45;&gt;Block1</title>
<path fill="none" stroke="black" d="M103.07,-173.2C94.81,-161.15 83.63,-144.82 74.32,-131.23"/>
<polygon fill="black" stroke="black" points="77.06,-129.05 68.53,-122.78 71.29,-133 77.06,-129.05"/>
<text text-anchor="middle" x="96.41" y="-146.54" font-family="Monaco" font-size="11.00">@2</text>
</g>
<!-- Block2 -->
<g id="node5" class="node">
<title>Block2</title>
<polygon fill="none" stroke="black" points="191.41,-122.67 136.2,-122.67 136.2,-86.67 191.41,-86.67 191.41,-122.67"/>
<text text-anchor="middle" x="163.81" y="-103.2" font-family="Monaco" font-size="11.00">Block2</text>
</g>
<!-- Jump1&#45;&gt;Block2 -->
<g id="edge4" class="edge">
<title>Jump1&#45;&gt;Block2</title>
<path fill="none" stroke="black" d="M124.72,-173.2C131.63,-161.27 140.97,-145.13 148.79,-131.62"/>
<polygon fill="black" stroke="black" points="151.93,-133.19 153.91,-122.78 145.87,-129.68 151.93,-133.19"/>
<text text-anchor="middle" x="152.71" y="-146.54" font-family="Monaco" font-size="11.00">!@2</text>
</g>
<!-- Jump2_4 -->
<g id="node6" class="node">
<title>Jump2_4</title>
<polygon fill="none" stroke="black" points="91.42,-30 18.19,-30 18.19,-36 0.19,-18 18.19,0 18.19,-6 73.42,-6 73.42,0 91.42,0 91.42,-30"/>
<text text-anchor="start" x="8" y="-17.53" font-family="Monaco" font-size="11.00">Return.2_4</text>
<text text-anchor="start" x="74.01" y="-17.53" font-family="Monaco" baseline-shift="super" font-size="8.00" fill="#ff4411">q5</text>
</g>
<!-- Block1&#45;&gt;Jump2_4 -->
<g id="edge5" class="edge">
<title>Block1&#45;&gt;Jump2_4</title>
<path fill="none" stroke="black" d="M54.58,-86.53C53.07,-74.94 51.05,-59.39 49.33,-46.13"/>
<polygon fill="black" stroke="black" points="52.79,-45.57 48.03,-36.11 45.85,-46.48 52.79,-45.57"/>
<text text-anchor="middle" x="56.11" y="-59.87" font-family="Monaco" font-size="11.00">a</text>
</g>
<!-- Jump2_5_6 -->
<g id="node7" class="node">
<title>Jump2_5_6</title>
<polygon fill="none" stroke="black" points="227.82,-36 109.79,-36 109.79,-32 105.79,-32 105.79,-28 109.79,-28 109.79,-8 105.79,-8 105.79,-4 109.79,-4 109.79,0 227.82,0 227.82,-36"/>
<polyline fill="none" stroke="black" points="109.79,-32 113.79,-32 113.79,-28 109.79,-28 "/>
<polyline fill="none" stroke="black" points="109.79,-8 113.79,-8 113.79,-4 109.79,-4 "/>
<text text-anchor="start" x="117.8" y="-21.2" font-family="Monaco" font-size="11.00">TailCall.2_5_6</text>
<text text-anchor="start" x="210.21" y="-21.2" font-family="Monaco" baseline-shift="super" font-size="8.00" fill="#ff4411">q7</text>
<text text-anchor="start" x="129.2" y="-10.2" font-family="Monaco" font-size="11.00">fib(@5,@3,a)</text>
</g>
<!-- Block2&#45;&gt;Jump2_5_6 -->
<g id="edge6" class="edge">
<title>Block2&#45;&gt;Jump2_5_6</title>
<path fill="none" stroke="black" d="M164.82,-86.53C165.5,-74.94 166.42,-59.39 167.2,-46.13"/>
<polygon fill="black" stroke="black" points="170.7,-46.3 167.8,-36.11 163.71,-45.88 170.7,-46.3"/>
</g>
<!-- ndBlock0_0 -->
<g id="node8" class="node">
<title>ndBlock0_0</title>
<ellipse fill="none" stroke="black" cx="347.81" cy="-264.34" rx="41.94" ry="18"/>
<text text-anchor="start" x="323.2" y="-263.87" font-family="Monaco" font-size="11.00">out(b)</text>
<text text-anchor="start" x="362.81" y="-263.87" font-family="Monaco" baseline-shift="super" font-size="8.00" fill="#ff4411">q3</text>
</g>
<!-- ndBlock0_1 -->
<g id="node9" class="node">
<title>ndBlock0_1</title>
<ellipse fill="none" stroke="black" cx="574.81" cy="-191.34" rx="46.44" ry="18"/>
<text text-anchor="start" x="546.9" y="-190.87" font-family="Monaco" font-size="11.00">out(n0)</text>
<text text-anchor="start" x="593.11" y="-190.87" font-family="Monaco" baseline-shift="super" font-size="8.00" fill="#ff4411">q3</text>
</g>
<!-- ndBlock0_2 -->
<g id="node10" class="node">
<title>ndBlock0_2</title>
<ellipse fill="none" stroke="black" cx="599.81" cy="-337.34" rx="39.8" ry="18"/>
<text text-anchor="start" x="577" y="-336.87" font-family="Monaco" font-size="11.00">n</text>
<text text-anchor="start" x="583.6" y="-336.87" font-family="Monaco" baseline-shift="super" font-size="8.00" fill="#3311ff">r0</text>
<text text-anchor="start" x="593.21" y="-336.87" font-family="Monaco" font-size="11.00">:in</text>
<text text-anchor="start" x="613.01" y="-336.87" font-family="Monaco" baseline-shift="super" font-size="8.00" fill="#ff4411">q0</text>
</g>
<!-- ndBlock0_4 -->
<g id="node12" class="node">
<title>ndBlock0_4</title>
<ellipse fill="none" stroke="black" cx="574.81" cy="-264.34" rx="64.52" ry="18"/>
<text text-anchor="start" x="532.5" y="-263.87" font-family="Monaco" font-size="11.00">n0</text>
<text text-anchor="start" x="545.7" y="-263.87" font-family="Monaco" baseline-shift="super" font-size="8.00" fill="#3311ff">r0</text>
<text text-anchor="start" x="555.3" y="-263.87" font-family="Monaco" font-size="11.00">:n+</text>
<text text-anchor="start" x="575.11" y="-263.87" font-family="Monaco" baseline-shift="super" font-size="8.00" fill="#3311ff">Add0</text>
<text text-anchor="start" x="594.31" y="-263.87" font-family="Monaco" font-size="11.00">@0</text>
<text text-anchor="start" x="607.51" y="-263.87" font-family="Monaco" baseline-shift="super" font-size="8.00" fill="#ff4411">q1</text>
</g>
<!-- ndBlock0_2&#45;&gt;ndBlock0_4 -->
<g id="edge9" class="edge">
<title>ndBlock0_2&#45;&gt;ndBlock0_4</title>
<path fill="none" stroke="black" d="M593.88,-319.51C591,-311.32 587.46,-301.27 584.22,-292.07"/>
<polygon fill="black" stroke="black" points="587.48,-290.81 580.86,-282.54 580.88,-293.13 587.48,-290.81"/>
</g>
<!-- ndBlock0_3 -->
<g id="node11" class="node">
<title>ndBlock0_3</title>
<ellipse fill="none" stroke="black" cx="502.81" cy="-337.34" rx="39.8" ry="18"/>
<text text-anchor="start" x="480" y="-336.87" font-family="Monaco" font-size="11.00">@0</text>
<text text-anchor="start" x="493.2" y="-336.87" font-family="Monaco" baseline-shift="super" font-size="8.00" fill="#3311ff">r3</text>
<text text-anchor="start" x="502.81" y="-336.87" font-family="Monaco" font-size="11.00">:0</text>
<text text-anchor="start" x="516.01" y="-336.87" font-family="Monaco" baseline-shift="super" font-size="8.00" fill="#ff4411">q0</text>
</g>
<!-- ndBlock0_3&#45;&gt;ndBlock0_4 -->
<g id="edge10" class="edge">
<title>ndBlock0_3&#45;&gt;ndBlock0_4</title>
<path fill="none" stroke="black" d="M518.79,-320.58C528.19,-311.31 540.26,-299.4 550.79,-289.02"/>
<polygon fill="black" stroke="black" points="553.46,-291.3 558.12,-281.79 548.54,-286.32 553.46,-291.3"/>
</g>
<!-- ndBlock0_4&#45;&gt;ndBlock0_1 -->
<g id="edge14" class="edge">
<title>ndBlock0_4&#45;&gt;ndBlock0_1</title>
<path fill="none" stroke="black" d="M574.81,-246.15C574.81,-238.13 574.81,-228.38 574.81,-219.41"/>
<polygon fill="black" stroke="black" points="578.31,-219.37 574.81,-209.37 571.31,-219.37 578.31,-219.37"/>
</g>
<!-- ndBlock0_10 -->
<g id="node18" class="node">
<title>ndBlock0_10</title>
<ellipse fill="none" stroke="black" cx="358.81" cy="-191.34" rx="79.37" ry="18"/>
<text text-anchor="start" x="305.1" y="-190.87" font-family="Monaco" font-size="11.00">@2</text>
<text text-anchor="start" x="318.3" y="-190.87" font-family="Monaco" baseline-shift="super" font-size="8.00" fill="#3311ff">r3</text>
<text text-anchor="start" x="327.9" y="-190.87" font-family="Monaco" font-size="11.00">:n0==</text>
<text text-anchor="start" x="360.91" y="-190.87" font-family="Monaco" baseline-shift="super" font-size="8.00" fill="#3311ff">Equal1</text>
<text text-anchor="start" x="389.71" y="-190.87" font-family="Monaco" font-size="11.00">@1</text>
<text text-anchor="start" x="402.91" y="-190.87" font-family="Monaco" baseline-shift="super" font-size="8.00" fill="#ff4411">q2</text>
</g>
<!-- ndBlock0_4&#45;&gt;ndBlock0_10 -->
<g id="edge11" class="edge">
<title>ndBlock0_4&#45;&gt;ndBlock0_10</title>
<path fill="none" stroke="black" d="M535.28,-249.88C524.14,-246.12 512.01,-242.04 500.81,-238.34 471.55,-228.66 438.84,-218.05 412.2,-209.46"/>
<polygon fill="black" stroke="black" points="413.26,-206.12 402.67,-206.39 411.12,-212.79 413.26,-206.12"/>
</g>
<!-- ndBlock0_5 -->
<g id="node13" class="node">
<title>ndBlock0_5</title>
<ellipse fill="none" stroke="black" cx="358.81" cy="-104.67" rx="46.44" ry="18"/>
<text text-anchor="start" x="330.9" y="-104.2" font-family="Monaco" font-size="11.00">out(@2)</text>
<text text-anchor="start" x="377.11" y="-104.2" font-family="Monaco" baseline-shift="super" font-size="8.00" fill="#ff4411">q3</text>
</g>
<!-- ndBlock0_6 -->
<g id="node14" class="node">
<title>ndBlock0_6</title>
<ellipse fill="none" stroke="black" cx="405.81" cy="-337.34" rx="39.8" ry="18"/>
<text text-anchor="start" x="383" y="-336.87" font-family="Monaco" font-size="11.00">a</text>
<text text-anchor="start" x="389.6" y="-336.87" font-family="Monaco" baseline-shift="super" font-size="8.00" fill="#3311ff">r1</text>
<text text-anchor="start" x="399.21" y="-336.87" font-family="Monaco" font-size="11.00">:in</text>
<text text-anchor="start" x="419.01" y="-336.87" font-family="Monaco" baseline-shift="super" font-size="8.00" fill="#ff4411">q0</text>
</g>
<!-- ndBlock0_8 -->
<g id="node16" class="node">
<title>ndBlock0_8</title>
<ellipse fill="none" stroke="black" cx="449.81" cy="-264.34" rx="41.94" ry="18"/>
<text text-anchor="start" x="425.2" y="-263.87" font-family="Monaco" font-size="11.00">out(a)</text>
<text text-anchor="start" x="464.81" y="-263.87" font-family="Monaco" baseline-shift="super" font-size="8.00" fill="#ff4411">q3</text>
</g>
<!-- ndBlock0_6&#45;&gt;ndBlock0_8 -->
<g id="edge8" class="edge">
<title>ndBlock0_6&#45;&gt;ndBlock0_8</title>
<path fill="none" stroke="black" d="M416.01,-319.87C421.38,-311.21 428.07,-300.41 434.08,-290.71"/>
<polygon fill="black" stroke="black" points="437.06,-292.55 439.35,-282.21 431.11,-288.86 437.06,-292.55"/>
</g>
<!-- ndBlock0_7 -->
<g id="node15" class="node">
<title>ndBlock0_7</title>
<ellipse fill="none" stroke="black" cx="308.81" cy="-337.34" rx="39.8" ry="18"/>
<text text-anchor="start" x="286" y="-336.87" font-family="Monaco" font-size="11.00">b</text>
<text text-anchor="start" x="292.6" y="-336.87" font-family="Monaco" baseline-shift="super" font-size="8.00" fill="#3311ff">r2</text>
<text text-anchor="start" x="302.21" y="-336.87" font-family="Monaco" font-size="11.00">:in</text>
<text text-anchor="start" x="322.01" y="-336.87" font-family="Monaco" baseline-shift="super" font-size="8.00" fill="#ff4411">q0</text>
</g>
<!-- ndBlock0_7&#45;&gt;ndBlock0_0 -->
<g id="edge13" class="edge">
<title>ndBlock0_7&#45;&gt;ndBlock0_0</title>
<path fill="none" stroke="black" d="M318.05,-319.51C322.71,-311.02 328.47,-300.54 333.67,-291.07"/>
<polygon fill="black" stroke="black" points="336.88,-292.49 338.63,-282.04 330.75,-289.12 336.88,-292.49"/>
</g>
<!-- ndBlock0_9 -->
<g id="node17" class="node">
<title>ndBlock0_9</title>
<ellipse fill="none" stroke="black" cx="247.81" cy="-264.34" rx="39.8" ry="18"/>
<text text-anchor="start" x="225" y="-263.87" font-family="Monaco" font-size="11.00">@1</text>
<text text-anchor="start" x="238.2" y="-263.87" font-family="Monaco" baseline-shift="super" font-size="8.00" fill="#3311ff">r4</text>
<text text-anchor="start" x="247.81" y="-263.87" font-family="Monaco" font-size="11.00">:0</text>
<text text-anchor="start" x="261.01" y="-263.87" font-family="Monaco" baseline-shift="super" font-size="8.00" fill="#ff4411">q0</text>
</g>
<!-- ndBlock0_9&#45;&gt;ndBlock0_10 -->
<g id="edge12" class="edge">
<title>ndBlock0_9&#45;&gt;ndBlock0_10</title>
<path fill="none" stroke="black" d="M269.74,-249.31C285.48,-239.24 307,-225.47 324.95,-214"/>
<polygon fill="black" stroke="black" points="326.89,-216.91 333.43,-208.57 323.12,-211.01 326.89,-216.91"/>
</g>
<!-- ndBlock0_10&#45;&gt;ndBlock0_5 -->
<g id="edge7" class="edge">
<title>ndBlock0_10&#45;&gt;ndBlock0_5</title>
<path fill="none" stroke="black" d="M358.81,-173.2C358.81,-161.61 358.81,-146.06 358.81,-132.8"/>
<polygon fill="black" stroke="black" points="362.31,-132.78 358.81,-122.78 355.31,-132.78 362.31,-132.78"/>
</g>
<!-- ndBlock1_0 -->
<g id="node19" class="node">
<title>ndBlock1_0</title>
<ellipse fill="none" stroke="black" cx="705.81" cy="-337.34" rx="39.8" ry="18"/>
<text text-anchor="start" x="683" y="-336.87" font-family="Monaco" font-size="11.00">a</text>
<text text-anchor="start" x="689.6" y="-336.87" font-family="Monaco" baseline-shift="super" font-size="8.00" fill="#3311ff">r1</text>
<text text-anchor="start" x="699.21" y="-336.87" font-family="Monaco" font-size="11.00">:in</text>
<text text-anchor="start" x="719.01" y="-336.87" font-family="Monaco" baseline-shift="super" font-size="8.00" fill="#ff4411">q3</text>
</g>
<!-- ndBlock1_1 -->
<g id="node20" class="node">
<title>ndBlock1_1</title>
<ellipse fill="none" stroke="black" cx="705.81" cy="-264.34" rx="41.94" ry="18"/>
<text text-anchor="start" x="681.2" y="-263.87" font-family="Monaco" font-size="11.00">out(a)</text>
<text text-anchor="start" x="720.81" y="-263.87" font-family="Monaco" baseline-shift="super" font-size="8.00" fill="#ff4411">q5</text>
</g>
<!-- ndBlock1_0&#45;&gt;ndBlock1_1 -->
<g id="edge15" class="edge">
<title>ndBlock1_0&#45;&gt;ndBlock1_1</title>
<path fill="none" stroke="black" d="M705.81,-319.15C705.81,-311.13 705.81,-301.38 705.81,-292.41"/>
<polygon fill="black" stroke="black" points="709.31,-292.37 705.81,-282.37 702.31,-292.37 709.31,-292.37"/>
</g>
<!-- ndBlock2_0 -->
<g id="node21" class="node">
<title>ndBlock2_0</title>
<ellipse fill="none" stroke="black" cx="989.81" cy="-264.34" rx="60.52" ry="18"/>
<text text-anchor="start" x="950.8" y="-263.87" font-family="Monaco" font-size="11.00">@3</text>
<text text-anchor="start" x="964" y="-263.87" font-family="Monaco" baseline-shift="super" font-size="8.00" fill="#3311ff">r2</text>
<text text-anchor="start" x="973.6" y="-263.87" font-family="Monaco" font-size="11.00">:a+</text>
<text text-anchor="start" x="993.41" y="-263.87" font-family="Monaco" baseline-shift="super" font-size="8.00" fill="#3311ff">Add0</text>
<text text-anchor="start" x="1012.61" y="-263.87" font-family="Monaco" font-size="11.00">b</text>
<text text-anchor="start" x="1019.21" y="-263.87" font-family="Monaco" baseline-shift="super" font-size="8.00" fill="#ff4411">q6</text>
</g>
<!-- ndBlock2_2 -->
<g id="node23" class="node">
<title>ndBlock2_2</title>
<ellipse fill="none" stroke="black" cx="989.81" cy="-191.34" rx="46.44" ry="18"/>
<text text-anchor="start" x="961.9" y="-190.87" font-family="Monaco" font-size="11.00">out(@3)</text>
<text text-anchor="start" x="1008.11" y="-190.87" font-family="Monaco" baseline-shift="super" font-size="8.00" fill="#ff4411">q7</text>
</g>
<!-- ndBlock2_0&#45;&gt;ndBlock2_2 -->
<g id="edge18" class="edge">
<title>ndBlock2_0&#45;&gt;ndBlock2_2</title>
<path fill="none" stroke="black" d="M989.81,-246.15C989.81,-238.13 989.81,-228.38 989.81,-219.41"/>
<polygon fill="black" stroke="black" points="993.31,-219.37 989.81,-209.37 986.31,-219.37 993.31,-219.37"/>
</g>
<!-- ndBlock2_1 -->
<g id="node22" class="node">
<title>ndBlock2_1</title>
<ellipse fill="none" stroke="black" cx="917.81" cy="-337.34" rx="39.8" ry="18"/>
<text text-anchor="start" x="895" y="-336.87" font-family="Monaco" font-size="11.00">@4</text>
<text text-anchor="start" x="908.2" y="-336.87" font-family="Monaco" baseline-shift="super" font-size="8.00" fill="#3311ff">r3</text>
<text text-anchor="start" x="917.81" y="-336.87" font-family="Monaco" font-size="11.00">:1</text>
<text text-anchor="start" x="931.01" y="-336.87" font-family="Monaco" baseline-shift="super" font-size="8.00" fill="#ff4411">q3</text>
</g>
<!-- ndBlock2_6 -->
<g id="node27" class="node">
<title>ndBlock2_6</title>
<ellipse fill="none" stroke="black" cx="841.81" cy="-264.34" rx="69.01" ry="18"/>
<text text-anchor="start" x="796.2" y="-263.87" font-family="Monaco" font-size="11.00">@5</text>
<text text-anchor="start" x="809.4" y="-263.87" font-family="Monaco" baseline-shift="super" font-size="8.00" fill="#3311ff">r0</text>
<text text-anchor="start" x="819" y="-263.87" font-family="Monaco" font-size="11.00">:n0&#45;</text>
<text text-anchor="start" x="845.41" y="-263.87" font-family="Monaco" baseline-shift="super" font-size="8.00" fill="#3311ff">Sub2</text>
<text text-anchor="start" x="864.61" y="-263.87" font-family="Monaco" font-size="11.00">@4</text>
<text text-anchor="start" x="877.81" y="-263.87" font-family="Monaco" baseline-shift="super" font-size="8.00" fill="#ff4411">q6</text>
</g>
<!-- ndBlock2_1&#45;&gt;ndBlock2_6 -->
<g id="edge21" class="edge">
<title>ndBlock2_1&#45;&gt;ndBlock2_6</title>
<path fill="none" stroke="black" d="M901.32,-320.93C891.31,-311.59 878.34,-299.47 867.07,-288.94"/>
<polygon fill="black" stroke="black" points="869.29,-286.22 859.59,-281.95 864.51,-291.34 869.29,-286.22"/>
</g>
<!-- ndBlock2_3 -->
<g id="node24" class="node">
<title>ndBlock2_3</title>
<ellipse fill="none" stroke="black" cx="1111.81" cy="-337.34" rx="39.8" ry="18"/>
<text text-anchor="start" x="1089" y="-336.87" font-family="Monaco" font-size="11.00">a</text>
<text text-anchor="start" x="1095.6" y="-336.87" font-family="Monaco" baseline-shift="super" font-size="8.00" fill="#3311ff">r1</text>
<text text-anchor="start" x="1105.21" y="-336.87" font-family="Monaco" font-size="11.00">:in</text>
<text text-anchor="start" x="1125.01" y="-336.87" font-family="Monaco" baseline-shift="super" font-size="8.00" fill="#ff4411">q3</text>
</g>
<!-- ndBlock2_3&#45;&gt;ndBlock2_0 -->
<g id="edge19" class="edge">
<title>ndBlock2_3&#45;&gt;ndBlock2_0</title>
<path fill="none" stroke="black" d="M1088.28,-322.65C1070.31,-312.19 1045.25,-297.6 1024.9,-285.76"/>
<polygon fill="black" stroke="black" points="1026.63,-282.71 1016.22,-280.71 1023.1,-288.77 1026.63,-282.71"/>
</g>
<!-- ndBlock2_4 -->
<g id="node25" class="node">
<title>ndBlock2_4</title>
<ellipse fill="none" stroke="black" cx="1109.81" cy="-264.34" rx="41.94" ry="18"/>
<text text-anchor="start" x="1085.2" y="-263.87" font-family="Monaco" font-size="11.00">out(a)</text>
<text text-anchor="start" x="1124.81" y="-263.87" font-family="Monaco" baseline-shift="super" font-size="8.00" fill="#ff4411">q7</text>
</g>
<!-- ndBlock2_3&#45;&gt;ndBlock2_4 -->
<g id="edge16" class="edge">
<title>ndBlock2_3&#45;&gt;ndBlock2_4</title>
<path fill="none" stroke="black" d="M1111.32,-319.15C1111.1,-311.13 1110.82,-301.38 1110.57,-292.41"/>
<polygon fill="black" stroke="black" points="1114.07,-292.26 1110.29,-282.37 1107.07,-292.46 1114.07,-292.26"/>
</g>
<!-- ndBlock2_5 -->
<g id="node26" class="node">
<title>ndBlock2_5</title>
<ellipse fill="none" stroke="black" cx="841.81" cy="-191.34" rx="46.44" ry="18"/>
<text text-anchor="start" x="813.9" y="-190.87" font-family="Monaco" font-size="11.00">out(@5)</text>
<text text-anchor="start" x="860.11" y="-190.87" font-family="Monaco" baseline-shift="super" font-size="8.00" fill="#ff4411">q7</text>
</g>
<!-- ndBlock2_6&#45;&gt;ndBlock2_5 -->
<g id="edge17" class="edge">
<title>ndBlock2_6&#45;&gt;ndBlock2_5</title>
<path fill="none" stroke="black" d="M841.81,-246.15C841.81,-238.13 841.81,-228.38 841.81,-219.41"/>
<polygon fill="black" stroke="black" points="845.31,-219.37 841.81,-209.37 838.31,-219.37 845.31,-219.37"/>
</g>
<!-- ndBlock2_7 -->
<g id="node28" class="node">
<title>ndBlock2_7</title>
<ellipse fill="none" stroke="black" cx="1014.81" cy="-337.34" rx="39.8" ry="18"/>
<text text-anchor="start" x="992" y="-336.87" font-family="Monaco" font-size="11.00">b</text>
<text text-anchor="start" x="998.6" y="-336.87" font-family="Monaco" baseline-shift="super" font-size="8.00" fill="#3311ff">r2</text>
<text text-anchor="start" x="1008.21" y="-336.87" font-family="Monaco" font-size="11.00">:in</text>
<text text-anchor="start" x="1028.01" y="-336.87" font-family="Monaco" baseline-shift="super" font-size="8.00" fill="#ff4411">q3</text>
</g>
<!-- ndBlock2_7&#45;&gt;ndBlock2_0 -->
<g id="edge20" class="edge">
<title>ndBlock2_7&#45;&gt;ndBlock2_0</title>
<path fill="none" stroke="black" d="M1008.88,-319.51C1006,-311.32 1002.46,-301.27 999.22,-292.07"/>
<polygon fill="black" stroke="black" points="1002.48,-290.81 995.86,-282.54 995.88,-293.13 1002.48,-290.81"/>
</g>
<!-- ndBlock2_8 -->
<g id="node29" class="node">
<title>ndBlock2_8</title>
<ellipse fill="none" stroke="black" cx="815.81" cy="-337.34" rx="43.8" ry="18"/>
<text text-anchor="start" x="789.7" y="-336.87" font-family="Monaco" font-size="11.00">n0</text>
<text text-anchor="start" x="802.9" y="-336.87" font-family="Monaco" baseline-shift="super" font-size="8.00" fill="#3311ff">r0</text>
<text text-anchor="start" x="812.51" y="-336.87" font-family="Monaco" font-size="11.00">:in</text>
<text text-anchor="start" x="832.31" y="-336.87" font-family="Monaco" baseline-shift="super" font-size="8.00" fill="#ff4411">q3</text>
</g>
<!-- ndBlock2_8&#45;&gt;ndBlock2_6 -->
<g id="edge22" class="edge">
<title>ndBlock2_8&#45;&gt;ndBlock2_6</title>
<path fill="none" stroke="black" d="M821.97,-319.51C824.97,-311.32 828.65,-301.27 832.02,-292.07"/>
<polygon fill="black" stroke="black" points="835.36,-293.13 835.51,-282.54 828.78,-290.72 835.36,-293.13"/>
</g>
</g>
</svg>
