<?xml version="1.0" encoding="UTF-8" standalone="no"?>
<!DOCTYPE svg PUBLIC "-//W3C//DTD SVG 1.1//EN"
 "http://www.w3.org/Graphics/SVG/1.1/DTD/svg11.dtd">
<!-- Generated by graphviz version 2.43.0 (0)
 -->
<!-- Title: Program_ Pages: 1 -->
<svg width="1276pt" height="403pt"
 viewBox="0.00 0.00 1275.81 403.34" xmlns="http://www.w3.org/2000/svg" xmlns:xlink="http://www.w3.org/1999/xlink">
<g id="graph0" class="graph" transform="scale(1 1) rotate(0) translate(4 399.34)">
<title>Program_</title>
<polygon fill="white" stroke="transparent" points="-4,4 -4,-399.34 1271.81,-399.34 1271.81,4 -4,4"/>
<g id="clust1" class="cluster">
<title>cluster_dfg_Block0</title>
<polygon fill="none" stroke="black" points="199.81,-78.67 199.81,-387.34 671.81,-387.34 671.81,-78.67 199.81,-78.67"/>
<text text-anchor="middle" x="435.81" y="-373.74" font-family="Monaco" font-size="12.00">Block0</text>
</g>
<g id="clust2" class="cluster">
<title>cluster_dfg_Block1</title>
<polygon fill="none" stroke="black" points="679.81,-238.34 679.81,-387.34 793.81,-387.34 793.81,-238.34 679.81,-238.34"/>
<text text-anchor="middle" x="736.81" y="-373.74" font-family="Monaco" font-size="12.00">Block1</text>
</g>
<g id="clust3" class="cluster">
<title>cluster_dfg_Block2</title>
<polygon fill="none" stroke="black" points="801.81,-165.34 801.81,-387.34 1259.81,-387.34 1259.81,-165.34 801.81,-165.34"/>
<text text-anchor="middle" x="1030.81" y="-373.74" font-family="Monaco" font-size="12.00">Block2</text>
</g>
<!-- Jump0 -->
<g id="node1" class="node">
<title>Jump0</title>
<polygon fill="none" stroke="black" points="160.42,-355.34 69.19,-355.34 69.19,-351.34 65.19,-351.34 65.19,-347.34 69.19,-347.34 69.19,-327.34 65.19,-327.34 65.19,-323.34 69.19,-323.34 69.19,-319.34 160.42,-319.34 160.42,-355.34"/>
<polyline fill="none" stroke="black" points="69.19,-351.34 73.19,-351.34 73.19,-347.34 69.19,-347.34 "/>
<polyline fill="none" stroke="black" points="69.19,-327.34 73.19,-327.34 73.19,-323.34 69.19,-323.34 "/>
<text text-anchor="start" x="77" y="-340.54" font-family="Monaco" font-size="11.00">StartFun.0</text>
<text text-anchor="start" x="143.01" y="-340.54" font-family="Monaco" baseline-shift="super" font-size="8.00" fill="#ff4411">q0</text>
<text text-anchor="start" x="98.3" y="-329.54" font-family="Monaco" font-size="11.00">n,a,b</text>
</g>
<!-- Block0 -->
<g id="node2" class="node">
<title>Block0</title>
<polygon fill="none" stroke="black" points="142.41,-282.34 87.2,-282.34 87.2,-246.34 142.41,-246.34 142.41,-282.34"/>
<text text-anchor="middle" x="114.81" y="-262.87" font-family="Monaco" font-size="11.00">Block0</text>
</g>
<!-- Jump0&#45;&gt;Block0 -->
<g id="edge1" class="edge">
<title>Jump0&#45;&gt;Block0</title>
<path fill="none" stroke="black" d="M114.81,-319.15C114.81,-311.13 114.81,-301.38 114.81,-292.41"/>
<polygon fill="black" stroke="black" points="118.31,-292.37 114.81,-282.37 111.31,-292.37 118.31,-292.37"/>
</g>
<!-- Jump1 -->
<g id="node3" class="node">
<title>Jump1</title>
<path fill="none" stroke="black" d="M144.41,-209.34C144.41,-209.34 85.2,-209.34 85.2,-209.34 79.2,-209.34 69.39,-204.7 65.57,-200.07 65.57,-200.07 51.19,-182.6 51.19,-182.6 47.38,-177.97 49.57,-173.34 55.57,-173.34 55.57,-173.34 174.05,-173.34 174.05,-173.34 180.05,-173.34 182.23,-177.97 178.42,-182.6 178.42,-182.6 164.04,-200.07 164.04,-200.07 160.23,-204.7 150.41,-209.34 144.41,-209.34"/>
<text text-anchor="start" x="83.6" y="-190.87" font-family="Monaco" font-size="11.00">Branch.1</text>
<text text-anchor="start" x="136.41" y="-190.87" font-family="Monaco" baseline-shift="super" font-size="8.00" fill="#ff4411">q3</text>
</g>
<!-- Block0&#45;&gt;Jump1 -->
<g id="edge2" class="edge">
<title>Block0&#45;&gt;Jump1</title>
<path fill="none" stroke="black" d="M114.81,-246.15C114.81,-238.13 114.81,-228.38 114.81,-219.41"/>
<polygon fill="black" stroke="black" points="118.31,-219.37 114.81,-209.37 111.31,-219.37 118.31,-219.37"/>
</g>
<!-- Block1 -->
<g id="node4" class="node">
<title>Block1</title>
<polygon fill="none" stroke="black" points="84.41,-122.67 29.2,-122.67 29.2,-86.67 84.41,-86.67 84.41,-122.67"/>
<text text-anchor="middle" x="56.81" y="-103.2" font-family="Monaco" font-size="11.00">Block1</text>
</g>
<!-- Jump1&#45;&gt;Block1 -->
<g id="edge3" class="edge">
<title>Jump1&#45;&gt;Block1</title>
<path fill="none" stroke="black" d="M103.07,-173.2C94.81,-161.15 83.63,-144.82 74.32,-131.23"/>
<polygon fill="black" stroke="black" points="77.06,-129.05 68.53,-122.78 71.29,-133 77.06,-129.05"/>
<text text-anchor="middle" x="96.41" y="-146.54" font-family="Monaco" font-size="11.00">@c</text>
</g>
<!-- Block2 -->
<g id="node5" class="node">
<title>Block2</title>
<polygon fill="none" stroke="black" points="191.41,-122.67 136.2,-122.67 136.2,-86.67 191.41,-86.67 191.41,-122.67"/>
<text text-anchor="middle" x="163.81" y="-103.2" font-family="Monaco" font-size="11.00">Block2</text>
</g>
<!-- Jump1&#45;&gt;Block2 -->
<g id="edge4" class="edge">
<title>Jump1&#45;&gt;Block2</title>
<path fill="none" stroke="black" d="M124.72,-173.2C131.63,-161.27 140.97,-145.13 148.79,-131.62"/>
<polygon fill="black" stroke="black" points="151.93,-133.19 153.91,-122.78 145.87,-129.68 151.93,-133.19"/>
<text text-anchor="middle" x="152.71" y="-146.54" font-family="Monaco" font-size="11.00">!@c</text>
</g>
<!-- Jump2_4 -->
<g id="node6" class="node">
<title>Jump2_4</title>
<polygon fill="none" stroke="black" points="91.42,-30 18.19,-30 18.19,-36 0.19,-18 18.19,0 18.19,-6 73.42,-6 73.42,0 91.42,0 91.42,-30"/>
<text text-anchor="start" x="8" y="-17.53" font-family="Monaco" font-size="11.00">Return.2_4</text>
<text text-anchor="start" x="74.01" y="-17.53" font-family="Monaco" baseline-shift="super" font-size="8.00" fill="#ff4411">q5</text>
</g>
<!-- Block1&#45;&gt;Jump2_4 -->
<g id="edge5" class="edge">
<title>Block1&#45;&gt;Jump2_4</title>
<path fill="none" stroke="black" d="M54.58,-86.53C53.07,-74.94 51.05,-59.39 49.33,-46.13"/>
<polygon fill="black" stroke="black" points="52.79,-45.57 48.03,-36.11 45.85,-46.48 52.79,-45.57"/>
<text text-anchor="middle" x="56.11" y="-59.87" font-family="Monaco" font-size="11.00">a</text>
</g>
<!-- Jump2_5_6 -->
<g id="node7" class="node">
<title>Jump2_5_6</title>
<polygon fill="none" stroke="black" points="227.82,-36 109.79,-36 109.79,-32 105.79,-32 105.79,-28 109.79,-28 109.79,-8 105.79,-8 105.79,-4 109.79,-4 109.79,0 227.82,0 227.82,-36"/>
<polyline fill="none" stroke="black" points="109.79,-32 113.79,-32 113.79,-28 109.79,-28 "/>
<polyline fill="none" stroke="black" points="109.79,-8 113.79,-8 113.79,-4 109.79,-4 "/>
<text text-anchor="start" x="117.8" y="-21.2" font-family="Monaco" font-size="11.00">TailCall.2_5_6</text>
<text text-anchor="start" x="210.21" y="-21.2" font-family="Monaco" baseline-shift="super" font-size="8.00" fill="#ff4411">q7</text>
<text text-anchor="start" x="129.2" y="-10.2" font-family="Monaco" font-size="11.00">fib(@f,@d,a)</text>
</g>
<!-- Block2&#45;&gt;Jump2_5_6 -->
<g id="edge6" class="edge">
<title>Block2&#45;&gt;Jump2_5_6</title>
<path fill="none" stroke="black" d="M164.82,-86.53C165.5,-74.94 166.42,-59.39 167.2,-46.13"/>
<polygon fill="black" stroke="black" points="170.7,-46.3 167.8,-36.11 163.71,-45.88 170.7,-46.3"/>
</g>
<!-- 0 -->
<g id="node8" class="node">
<title>0</title>
<ellipse fill="none" stroke="black" cx="369.81" cy="-337.34" rx="45.66" ry="18"/>
<text text-anchor="start" x="342.2" y="-336.87" font-family="Monaco" font-size="11.00">@a</text>
<text text-anchor="start" x="355.4" y="-336.87" font-family="Monaco" baseline-shift="super" font-size="8.00" fill="#00aa11">U1</text>
<text text-anchor="start" x="365.01" y="-336.87" font-family="Monaco" baseline-shift="super" font-size="8.00" fill="#3311ff">r3</text>
<text text-anchor="start" x="374.61" y="-336.87" font-family="Monaco" font-size="11.00">:0</text>
<text text-anchor="start" x="387.81" y="-336.87" font-family="Monaco" baseline-shift="super" font-size="8.00" fill="#ff4411">q0</text>
</g>
<!-- 1 -->
<g id="node10" class="node">
<title>1</title>
<ellipse fill="none" stroke="black" cx="380.81" cy="-264.34" rx="70.87" ry="18"/>
<text text-anchor="start" x="333.7" y="-263.87" font-family="Monaco" font-size="11.00">n0</text>
<text text-anchor="start" x="346.9" y="-263.87" font-family="Monaco" baseline-shift="super" font-size="8.00" fill="#00aa11">U6</text>
<text text-anchor="start" x="356.5" y="-263.87" font-family="Monaco" baseline-shift="super" font-size="8.00" fill="#3311ff">r0</text>
<text text-anchor="start" x="366.1" y="-263.87" font-family="Monaco" font-size="11.00">:n+</text>
<text text-anchor="start" x="385.91" y="-263.87" font-family="Monaco" baseline-shift="super" font-size="8.00" fill="#3311ff">Bin0</text>
<text text-anchor="start" x="405.11" y="-263.87" font-family="Monaco" font-size="11.00">@a</text>
<text text-anchor="start" x="418.31" y="-263.87" font-family="Monaco" baseline-shift="super" font-size="8.00" fill="#ff4411">q1</text>
</g>
<!-- 0&#45;&gt;1 -->
<g id="edge7" class="edge">
<title>0&#45;&gt;1</title>
<path fill="none" stroke="black" d="M372.47,-319.15C373.71,-311.13 375.22,-301.38 376.61,-292.41"/>
<polygon fill="black" stroke="black" points="380.1,-292.78 378.17,-282.37 373.18,-291.71 380.1,-292.78"/>
</g>
<!-- 20 -->
<g id="node9" class="node">
<title>20</title>
<ellipse fill="#ffffee" stroke="black" cx="380.81" cy="-191.34" rx="46.44" ry="18"/>
<text text-anchor="start" x="352.9" y="-190.87" font-family="Monaco" font-size="11.00">out(n0)</text>
<text text-anchor="start" x="399.11" y="-190.87" font-family="Monaco" baseline-shift="super" font-size="8.00" fill="#ff4411">q3</text>
</g>
<!-- 1&#45;&gt;20 -->
<g id="edge9" class="edge">
<title>1&#45;&gt;20</title>
<path fill="none" stroke="black" d="M380.81,-246.15C380.81,-238.13 380.81,-228.38 380.81,-219.41"/>
<polygon fill="black" stroke="black" points="384.31,-219.37 380.81,-209.37 377.31,-219.37 384.31,-219.37"/>
</g>
<!-- 3 -->
<g id="node15" class="node">
<title>3</title>
<ellipse fill="none" stroke="black" cx="554.81" cy="-191.34" rx="79.37" ry="18"/>
<text text-anchor="start" x="501.1" y="-190.87" font-family="Monaco" font-size="11.00">@c</text>
<text text-anchor="start" x="514.3" y="-190.87" font-family="Monaco" baseline-shift="super" font-size="8.00" fill="#00aa11">U1</text>
<text text-anchor="start" x="523.9" y="-190.87" font-family="Monaco" baseline-shift="super" font-size="8.00" fill="#3311ff">r3</text>
<text text-anchor="start" x="533.5" y="-190.87" font-family="Monaco" font-size="11.00">:n0==</text>
<text text-anchor="start" x="566.51" y="-190.87" font-family="Monaco" baseline-shift="super" font-size="8.00" fill="#3311ff">Bin1</text>
<text text-anchor="start" x="585.71" y="-190.87" font-family="Monaco" font-size="11.00">@b</text>
<text text-anchor="start" x="598.91" y="-190.87" font-family="Monaco" baseline-shift="super" font-size="8.00" fill="#ff4411">q2</text>
</g>
<!-- 1&#45;&gt;3 -->
<g id="edge8" class="edge">
<title>1&#45;&gt;3</title>
<path fill="none" stroke="black" d="M416.86,-248.63C443.42,-237.79 479.76,-222.96 508.48,-211.24"/>
<polygon fill="black" stroke="black" points="509.96,-214.41 517.9,-207.4 507.32,-207.93 509.96,-214.41"/>
</g>
<!-- 21 -->
<g id="node11" class="node">
<title>21</title>
<ellipse fill="#ffffee" stroke="black" cx="249.81" cy="-264.34" rx="41.94" ry="18"/>
<text text-anchor="start" x="225.2" y="-263.87" font-family="Monaco" font-size="11.00">out(b)</text>
<text text-anchor="start" x="264.81" y="-263.87" font-family="Monaco" baseline-shift="super" font-size="8.00" fill="#ff4411">q3</text>
</g>
<!-- 2 -->
<g id="node12" class="node">
<title>2</title>
<ellipse fill="none" stroke="black" cx="617.81" cy="-264.34" rx="45.66" ry="18"/>
<text text-anchor="start" x="590.2" y="-263.87" font-family="Monaco" font-size="11.00">@b</text>
<text text-anchor="start" x="603.4" y="-263.87" font-family="Monaco" baseline-shift="super" font-size="8.00" fill="#00aa11">U1</text>
<text text-anchor="start" x="613.01" y="-263.87" font-family="Monaco" baseline-shift="super" font-size="8.00" fill="#3311ff">r4</text>
<text text-anchor="start" x="622.61" y="-263.87" font-family="Monaco" font-size="11.00">:0</text>
<text text-anchor="start" x="635.81" y="-263.87" font-family="Monaco" baseline-shift="super" font-size="8.00" fill="#ff4411">q0</text>
</g>
<!-- 2&#45;&gt;3 -->
<g id="edge10" class="edge">
<title>2&#45;&gt;3</title>
<path fill="none" stroke="black" d="M603.51,-247.23C595.6,-238.32 585.61,-227.05 576.74,-217.05"/>
<polygon fill="black" stroke="black" points="579.18,-214.53 569.92,-209.37 573.94,-219.18 579.18,-214.53"/>
</g>
<!-- 17 -->
<g id="node13" class="node">
<title>17</title>
<ellipse fill="#ffeeff" stroke="black" cx="592.81" cy="-337.34" rx="48.84" ry="18"/>
<text text-anchor="start" x="562.8" y="-336.87" font-family="Monaco" font-size="11.00">a</text>
<text text-anchor="start" x="569.4" y="-336.87" font-family="Monaco" baseline-shift="super" font-size="8.00" fill="#00aa11">U32</text>
<text text-anchor="start" x="583.8" y="-336.87" font-family="Monaco" baseline-shift="super" font-size="8.00" fill="#3311ff">r1</text>
<text text-anchor="start" x="593.41" y="-336.87" font-family="Monaco" font-size="11.00">:in</text>
<text text-anchor="start" x="613.21" y="-336.87" font-family="Monaco" baseline-shift="super" font-size="8.00" fill="#ff4411">q0</text>
</g>
<!-- 19 -->
<g id="node18" class="node">
<title>19</title>
<ellipse fill="#ffffee" stroke="black" cx="511.81" cy="-264.34" rx="41.94" ry="18"/>
<text text-anchor="start" x="487.2" y="-263.87" font-family="Monaco" font-size="11.00">out(a)</text>
<text text-anchor="start" x="526.81" y="-263.87" font-family="Monaco" baseline-shift="super" font-size="8.00" fill="#ff4411">q3</text>
</g>
<!-- 17&#45;&gt;19 -->
<g id="edge13" class="edge">
<title>17&#45;&gt;19</title>
<path fill="none" stroke="black" d="M574.83,-320.58C563.74,-310.86 549.35,-298.25 537.12,-287.53"/>
<polygon fill="black" stroke="black" points="539.28,-284.77 529.45,-280.81 534.67,-290.03 539.28,-284.77"/>
</g>
<!-- 22 -->
<g id="node14" class="node">
<title>22</title>
<ellipse fill="#ffffee" stroke="black" cx="554.81" cy="-104.67" rx="46.44" ry="18"/>
<text text-anchor="start" x="526.9" y="-104.2" font-family="Monaco" font-size="11.00">out(@c)</text>
<text text-anchor="start" x="573.11" y="-104.2" font-family="Monaco" baseline-shift="super" font-size="8.00" fill="#ff4411">q3</text>
</g>
<!-- 3&#45;&gt;22 -->
<g id="edge11" class="edge">
<title>3&#45;&gt;22</title>
<path fill="none" stroke="black" d="M554.81,-173.2C554.81,-161.61 554.81,-146.06 554.81,-132.8"/>
<polygon fill="black" stroke="black" points="558.31,-132.78 554.81,-122.78 551.31,-132.78 558.31,-132.78"/>
</g>
<!-- 18 -->
<g id="node16" class="node">
<title>18</title>
<ellipse fill="#ffeeff" stroke="black" cx="256.81" cy="-337.34" rx="48.84" ry="18"/>
<text text-anchor="start" x="226.8" y="-336.87" font-family="Monaco" font-size="11.00">b</text>
<text text-anchor="start" x="233.4" y="-336.87" font-family="Monaco" baseline-shift="super" font-size="8.00" fill="#00aa11">U32</text>
<text text-anchor="start" x="247.8" y="-336.87" font-family="Monaco" baseline-shift="super" font-size="8.00" fill="#3311ff">r2</text>
<text text-anchor="start" x="257.41" y="-336.87" font-family="Monaco" font-size="11.00">:in</text>
<text text-anchor="start" x="277.21" y="-336.87" font-family="Monaco" baseline-shift="super" font-size="8.00" fill="#ff4411">q0</text>
</g>
<!-- 18&#45;&gt;21 -->
<g id="edge14" class="edge">
<title>18&#45;&gt;21</title>
<path fill="none" stroke="black" d="M255.11,-319.15C254.32,-311.13 253.36,-301.38 252.47,-292.41"/>
<polygon fill="black" stroke="black" points="255.95,-291.97 251.49,-282.37 248.98,-292.66 255.95,-291.97"/>
</g>
<!-- 16 -->
<g id="node17" class="node">
<title>16</title>
<ellipse fill="#ffeeff" stroke="black" cx="479.81" cy="-337.34" rx="45.66" ry="18"/>
<text text-anchor="start" x="452.2" y="-336.87" font-family="Monaco" font-size="11.00">n</text>
<text text-anchor="start" x="458.8" y="-336.87" font-family="Monaco" baseline-shift="super" font-size="8.00" fill="#00aa11">U6</text>
<text text-anchor="start" x="468.4" y="-336.87" font-family="Monaco" baseline-shift="super" font-size="8.00" fill="#3311ff">r0</text>
<text text-anchor="start" x="478.01" y="-336.87" font-family="Monaco" font-size="11.00">:in</text>
<text text-anchor="start" x="497.81" y="-336.87" font-family="Monaco" baseline-shift="super" font-size="8.00" fill="#ff4411">q0</text>
</g>
<!-- 16&#45;&gt;1 -->
<g id="edge12" class="edge">
<title>16&#45;&gt;1</title>
<path fill="none" stroke="black" d="M458.81,-321.28C445.11,-311.46 427,-298.47 411.68,-287.48"/>
<polygon fill="black" stroke="black" points="413.66,-284.59 403.5,-281.61 409.58,-290.28 413.66,-284.59"/>
</g>
<!-- 10 -->
<g id="node19" class="node">
<title>10</title>
<ellipse fill="#ffeeff" stroke="black" cx="736.81" cy="-337.34" rx="48.84" ry="18"/>
<text text-anchor="start" x="706.8" y="-336.87" font-family="Monaco" font-size="11.00">a</text>
<text text-anchor="start" x="713.4" y="-336.87" font-family="Monaco" baseline-shift="super" font-size="8.00" fill="#00aa11">U32</text>
<text text-anchor="start" x="727.8" y="-336.87" font-family="Monaco" baseline-shift="super" font-size="8.00" fill="#3311ff">r1</text>
<text text-anchor="start" x="737.41" y="-336.87" font-family="Monaco" font-size="11.00">:in</text>
<text text-anchor="start" x="757.21" y="-336.87" font-family="Monaco" baseline-shift="super" font-size="8.00" fill="#ff4411">q3</text>
</g>
<!-- 11 -->
<g id="node20" class="node">
<title>11</title>
<ellipse fill="#ffffee" stroke="black" cx="736.81" cy="-264.34" rx="41.94" ry="18"/>
<text text-anchor="start" x="712.2" y="-263.87" font-family="Monaco" font-size="11.00">out(a)</text>
<text text-anchor="start" x="751.81" y="-263.87" font-family="Monaco" baseline-shift="super" font-size="8.00" fill="#ff4411">q5</text>
</g>
<!-- 10&#45;&gt;11 -->
<g id="edge15" class="edge">
<title>10&#45;&gt;11</title>
<path fill="none" stroke="black" d="M736.81,-319.15C736.81,-311.13 736.81,-301.38 736.81,-292.41"/>
<polygon fill="black" stroke="black" points="740.31,-292.37 736.81,-282.37 733.31,-292.37 740.31,-292.37"/>
</g>
<!-- 5 -->
<g id="node21" class="node">
<title>5</title>
<ellipse fill="none" stroke="black" cx="1087.81" cy="-337.34" rx="45.66" ry="18"/>
<text text-anchor="start" x="1060.2" y="-336.87" font-family="Monaco" font-size="11.00">@e</text>
<text text-anchor="start" x="1073.4" y="-336.87" font-family="Monaco" baseline-shift="super" font-size="8.00" fill="#00aa11">U1</text>
<text text-anchor="start" x="1083.01" y="-336.87" font-family="Monaco" baseline-shift="super" font-size="8.00" fill="#3311ff">r3</text>
<text text-anchor="start" x="1092.61" y="-336.87" font-family="Monaco" font-size="11.00">:1</text>
<text text-anchor="start" x="1105.81" y="-336.87" font-family="Monaco" baseline-shift="super" font-size="8.00" fill="#ff4411">q3</text>
</g>
<!-- 6 -->
<g id="node23" class="node">
<title>6</title>
<ellipse fill="none" stroke="black" cx="1160.81" cy="-264.34" rx="75.37" ry="18"/>
<text text-anchor="start" x="1110.4" y="-263.87" font-family="Monaco" font-size="11.00">@f</text>
<text text-anchor="start" x="1123.6" y="-263.87" font-family="Monaco" baseline-shift="super" font-size="8.00" fill="#00aa11">U6</text>
<text text-anchor="start" x="1133.2" y="-263.87" font-family="Monaco" baseline-shift="super" font-size="8.00" fill="#3311ff">r0</text>
<text text-anchor="start" x="1142.8" y="-263.87" font-family="Monaco" font-size="11.00">:n0&#45;</text>
<text text-anchor="start" x="1169.21" y="-263.87" font-family="Monaco" baseline-shift="super" font-size="8.00" fill="#3311ff">Bin2</text>
<text text-anchor="start" x="1188.41" y="-263.87" font-family="Monaco" font-size="11.00">@e</text>
<text text-anchor="start" x="1201.61" y="-263.87" font-family="Monaco" baseline-shift="super" font-size="8.00" fill="#ff4411">q6</text>
</g>
<!-- 5&#45;&gt;6 -->
<g id="edge17" class="edge">
<title>5&#45;&gt;6</title>
<path fill="none" stroke="black" d="M1104.37,-320.23C1113.85,-311.01 1125.91,-299.27 1136.45,-289.02"/>
<polygon fill="black" stroke="black" points="1139.07,-291.36 1143.8,-281.88 1134.19,-286.34 1139.07,-291.36"/>
</g>
<!-- 14 -->
<g id="node22" class="node">
<title>14</title>
<ellipse fill="#ffeeff" stroke="black" cx="974.81" cy="-337.34" rx="48.84" ry="18"/>
<text text-anchor="start" x="944.8" y="-336.87" font-family="Monaco" font-size="11.00">b</text>
<text text-anchor="start" x="951.4" y="-336.87" font-family="Monaco" baseline-shift="super" font-size="8.00" fill="#00aa11">U32</text>
<text text-anchor="start" x="965.8" y="-336.87" font-family="Monaco" baseline-shift="super" font-size="8.00" fill="#3311ff">r2</text>
<text text-anchor="start" x="975.41" y="-336.87" font-family="Monaco" font-size="11.00">:in</text>
<text text-anchor="start" x="995.21" y="-336.87" font-family="Monaco" baseline-shift="super" font-size="8.00" fill="#ff4411">q3</text>
</g>
<!-- 4 -->
<g id="node27" class="node">
<title>4</title>
<ellipse fill="none" stroke="black" cx="981.81" cy="-264.34" rx="69.56" ry="18"/>
<text text-anchor="start" x="935.6" y="-263.87" font-family="Monaco" font-size="11.00">@d</text>
<text text-anchor="start" x="948.8" y="-263.87" font-family="Monaco" baseline-shift="super" font-size="8.00" fill="#00aa11">U32</text>
<text text-anchor="start" x="963.2" y="-263.87" font-family="Monaco" baseline-shift="super" font-size="8.00" fill="#3311ff">r2</text>
<text text-anchor="start" x="972.8" y="-263.87" font-family="Monaco" font-size="11.00">:a+</text>
<text text-anchor="start" x="992.61" y="-263.87" font-family="Monaco" baseline-shift="super" font-size="8.00" fill="#3311ff">Bin0</text>
<text text-anchor="start" x="1011.81" y="-263.87" font-family="Monaco" font-size="11.00">b</text>
<text text-anchor="start" x="1018.41" y="-263.87" font-family="Monaco" baseline-shift="super" font-size="8.00" fill="#ff4411">q6</text>
</g>
<!-- 14&#45;&gt;4 -->
<g id="edge22" class="edge">
<title>14&#45;&gt;4</title>
<path fill="none" stroke="black" d="M976.5,-319.15C977.29,-311.13 978.25,-301.38 979.14,-292.41"/>
<polygon fill="black" stroke="black" points="982.63,-292.66 980.13,-282.37 975.66,-291.97 982.63,-292.66"/>
</g>
<!-- 23 -->
<g id="node26" class="node">
<title>23</title>
<ellipse fill="#ffffee" stroke="black" cx="1160.81" cy="-191.34" rx="46.44" ry="18"/>
<text text-anchor="start" x="1132.9" y="-190.87" font-family="Monaco" font-size="11.00">out(@f)</text>
<text text-anchor="start" x="1179.11" y="-190.87" font-family="Monaco" baseline-shift="super" font-size="8.00" fill="#ff4411">q7</text>
</g>
<!-- 6&#45;&gt;23 -->
<g id="edge18" class="edge">
<title>6&#45;&gt;23</title>
<path fill="none" stroke="black" d="M1160.81,-246.15C1160.81,-238.13 1160.81,-228.38 1160.81,-219.41"/>
<polygon fill="black" stroke="black" points="1164.31,-219.37 1160.81,-209.37 1157.31,-219.37 1164.31,-219.37"/>
</g>
<!-- 13 -->
<g id="node24" class="node">
<title>13</title>
<ellipse fill="#ffeeff" stroke="black" cx="1201.81" cy="-337.34" rx="50.16" ry="18"/>
<text text-anchor="start" x="1170.9" y="-336.87" font-family="Monaco" font-size="11.00">n0</text>
<text text-anchor="start" x="1184.1" y="-336.87" font-family="Monaco" baseline-shift="super" font-size="8.00" fill="#00aa11">U6</text>
<text text-anchor="start" x="1193.7" y="-336.87" font-family="Monaco" baseline-shift="super" font-size="8.00" fill="#3311ff">r0</text>
<text text-anchor="start" x="1203.31" y="-336.87" font-family="Monaco" font-size="11.00">:in</text>
<text text-anchor="start" x="1223.11" y="-336.87" font-family="Monaco" baseline-shift="super" font-size="8.00" fill="#ff4411">q3</text>
</g>
<!-- 13&#45;&gt;6 -->
<g id="edge21" class="edge">
<title>13&#45;&gt;6</title>
<path fill="none" stroke="black" d="M1192.09,-319.51C1187.26,-311.15 1181.31,-300.85 1175.9,-291.48"/>
<polygon fill="black" stroke="black" points="1178.77,-289.44 1170.74,-282.54 1172.71,-292.95 1178.77,-289.44"/>
</g>
<!-- 12 -->
<g id="node25" class="node">
<title>12</title>
<ellipse fill="#ffeeff" stroke="black" cx="858.81" cy="-337.34" rx="48.84" ry="18"/>
<text text-anchor="start" x="828.8" y="-336.87" font-family="Monaco" font-size="11.00">a</text>
<text text-anchor="start" x="835.4" y="-336.87" font-family="Monaco" baseline-shift="super" font-size="8.00" fill="#00aa11">U32</text>
<text text-anchor="start" x="849.8" y="-336.87" font-family="Monaco" baseline-shift="super" font-size="8.00" fill="#3311ff">r1</text>
<text text-anchor="start" x="859.41" y="-336.87" font-family="Monaco" font-size="11.00">:in</text>
<text text-anchor="start" x="879.21" y="-336.87" font-family="Monaco" baseline-shift="super" font-size="8.00" fill="#ff4411">q3</text>
</g>
<!-- 12&#45;&gt;4 -->
<g id="edge19" class="edge">
<title>12&#45;&gt;4</title>
<path fill="none" stroke="black" d="M883.99,-321.8C901.79,-311.52 925.91,-297.6 945.74,-286.15"/>
<polygon fill="black" stroke="black" points="947.6,-289.12 954.52,-281.09 944.11,-283.06 947.6,-289.12"/>
</g>
<!-- 25 -->
<g id="node29" class="node">
<title>25</title>
<ellipse fill="#ffffee" stroke="black" cx="851.81" cy="-264.34" rx="41.94" ry="18"/>
<text text-anchor="start" x="827.2" y="-263.87" font-family="Monaco" font-size="11.00">out(a)</text>
<text text-anchor="start" x="866.81" y="-263.87" font-family="Monaco" baseline-shift="super" font-size="8.00" fill="#ff4411">q7</text>
</g>
<!-- 12&#45;&gt;25 -->
<g id="edge20" class="edge">
<title>12&#45;&gt;25</title>
<path fill="none" stroke="black" d="M857.11,-319.15C856.32,-311.13 855.36,-301.38 854.47,-292.41"/>
<polygon fill="black" stroke="black" points="857.95,-291.97 853.49,-282.37 850.98,-292.66 857.95,-291.97"/>
</g>
<!-- 24 -->
<g id="node28" class="node">
<title>24</title>
<ellipse fill="#ffffee" stroke="black" cx="981.81" cy="-191.34" rx="46.44" ry="18"/>
<text text-anchor="start" x="953.9" y="-190.87" font-family="Monaco" font-size="11.00">out(@d)</text>
<text text-anchor="start" x="1000.11" y="-190.87" font-family="Monaco" baseline-shift="super" font-size="8.00" fill="#ff4411">q7</text>
</g>
<!-- 4&#45;&gt;24 -->
<g id="edge16" class="edge">
<title>4&#45;&gt;24</title>
<path fill="none" stroke="black" d="M981.81,-246.15C981.81,-238.13 981.81,-228.38 981.81,-219.41"/>
<polygon fill="black" stroke="black" points="985.31,-219.37 981.81,-209.37 978.31,-219.37 985.31,-219.37"/>
</g>
</g>
</svg>
