<?xml version="1.0" encoding="UTF-8" standalone="no"?>
<!DOCTYPE svg PUBLIC "-//W3C//DTD SVG 1.1//EN"
 "http://www.w3.org/Graphics/SVG/1.1/DTD/svg11.dtd">
<!-- Generated by graphviz version 2.43.0 (0)
 -->
<!-- Title: Program_ Pages: 1 -->
<svg width="1183pt" height="403pt"
 viewBox="0.00 0.00 1182.81 403.34" xmlns="http://www.w3.org/2000/svg" xmlns:xlink="http://www.w3.org/1999/xlink">
<g id="graph0" class="graph" transform="scale(1 1) rotate(0) translate(4 399.34)">
<title>Program_</title>
<polygon fill="white" stroke="transparent" points="-4,4 -4,-399.34 1178.81,-399.34 1178.81,4 -4,4"/>
<g id="clust1" class="cluster">
<title>cluster_dfg_Block0</title>
<polygon fill="none" stroke="black" points="199.81,-78.67 199.81,-387.34 646.81,-387.34 646.81,-78.67 199.81,-78.67"/>
<text text-anchor="middle" x="423.31" y="-373.74" font-family="Monaco" font-size="12.00">Block0</text>
</g>
<g id="clust2" class="cluster">
<title>cluster_dfg_Block1</title>
<polygon fill="none" stroke="black" points="654.81,-238.34 654.81,-387.34 762.81,-387.34 762.81,-238.34 654.81,-238.34"/>
<text text-anchor="middle" x="708.81" y="-373.74" font-family="Monaco" font-size="12.00">Block1</text>
</g>
<g id="clust3" class="cluster">
<title>cluster_dfg_Block2</title>
<polygon fill="none" stroke="black" points="770.81,-165.34 770.81,-387.34 1166.81,-387.34 1166.81,-165.34 770.81,-165.34"/>
<text text-anchor="middle" x="968.81" y="-373.74" font-family="Monaco" font-size="12.00">Block2</text>
</g>
<!-- Jump0 -->
<g id="node1" class="node">
<title>Jump0</title>
<polygon fill="none" stroke="black" points="157.42,-355.34 66.19,-355.34 66.19,-351.34 62.19,-351.34 62.19,-347.34 66.19,-347.34 66.19,-327.34 62.19,-327.34 62.19,-323.34 66.19,-323.34 66.19,-319.34 157.42,-319.34 157.42,-355.34"/>
<polyline fill="none" stroke="black" points="66.19,-351.34 70.19,-351.34 70.19,-347.34 66.19,-347.34 "/>
<polyline fill="none" stroke="black" points="66.19,-327.34 70.19,-327.34 70.19,-323.34 66.19,-323.34 "/>
<text text-anchor="start" x="74" y="-336.87" font-family="Monaco" font-size="11.00">StartFun.0</text>
<text text-anchor="start" x="140.01" y="-336.87" font-family="Monaco" baseline-shift="super" font-size="8.00" fill="#ff4411">q0</text>
</g>
<!-- Block0 -->
<g id="node2" class="node">
<title>Block0</title>
<polygon fill="none" stroke="black" points="139.41,-282.34 84.2,-282.34 84.2,-246.34 139.41,-246.34 139.41,-282.34"/>
<text text-anchor="middle" x="111.81" y="-262.87" font-family="Monaco" font-size="11.00">Block0</text>
</g>
<!-- Jump0&#45;&gt;Block0 -->
<g id="edge1" class="edge">
<title>Jump0&#45;&gt;Block0</title>
<path fill="none" stroke="black" d="M111.81,-319.15C111.81,-311.13 111.81,-301.38 111.81,-292.41"/>
<polygon fill="black" stroke="black" points="115.31,-292.37 111.81,-282.37 108.31,-292.37 115.31,-292.37"/>
</g>
<!-- Jump1 -->
<g id="node3" class="node">
<title>Jump1</title>
<path fill="none" stroke="black" d="M141.41,-209.34C141.41,-209.34 82.2,-209.34 82.2,-209.34 76.2,-209.34 66.39,-204.7 62.57,-200.07 62.57,-200.07 48.19,-182.6 48.19,-182.6 44.38,-177.97 46.57,-173.34 52.57,-173.34 52.57,-173.34 171.05,-173.34 171.05,-173.34 177.05,-173.34 179.23,-177.97 175.42,-182.6 175.42,-182.6 161.04,-200.07 161.04,-200.07 157.23,-204.7 147.41,-209.34 141.41,-209.34"/>
<text text-anchor="start" x="80.6" y="-190.87" font-family="Monaco" font-size="11.00">Branch.1</text>
<text text-anchor="start" x="133.41" y="-190.87" font-family="Monaco" baseline-shift="super" font-size="8.00" fill="#ff4411">q3</text>
</g>
<!-- Block0&#45;&gt;Jump1 -->
<g id="edge2" class="edge">
<title>Block0&#45;&gt;Jump1</title>
<path fill="none" stroke="black" d="M111.81,-246.15C111.81,-238.13 111.81,-228.38 111.81,-219.41"/>
<polygon fill="black" stroke="black" points="115.31,-219.37 111.81,-209.37 108.31,-219.37 115.31,-219.37"/>
</g>
<!-- Block1 -->
<g id="node4" class="node">
<title>Block1</title>
<polygon fill="none" stroke="black" points="83.41,-122.67 28.2,-122.67 28.2,-86.67 83.41,-86.67 83.41,-122.67"/>
<text text-anchor="middle" x="55.81" y="-103.2" font-family="Monaco" font-size="11.00">Block1</text>
</g>
<!-- Jump1&#45;&gt;Block1 -->
<g id="edge3" class="edge">
<title>Jump1&#45;&gt;Block1</title>
<path fill="none" stroke="black" d="M100.47,-173.2C92.5,-161.15 81.7,-144.82 72.72,-131.23"/>
<polygon fill="black" stroke="black" points="75.56,-129.19 67.12,-122.78 69.72,-133.05 75.56,-129.19"/>
<text text-anchor="middle" x="94.41" y="-146.54" font-family="Monaco" font-size="11.00">@2</text>
</g>
<!-- Block2 -->
<g id="node5" class="node">
<title>Block2</title>
<polygon fill="none" stroke="black" points="191.41,-122.67 136.2,-122.67 136.2,-86.67 191.41,-86.67 191.41,-122.67"/>
<text text-anchor="middle" x="163.81" y="-103.2" font-family="Monaco" font-size="11.00">Block2</text>
</g>
<!-- Jump1&#45;&gt;Block2 -->
<g id="edge4" class="edge">
<title>Jump1&#45;&gt;Block2</title>
<path fill="none" stroke="black" d="M122.33,-173.2C129.66,-161.27 139.57,-145.13 147.87,-131.62"/>
<polygon fill="black" stroke="black" points="151.05,-133.13 153.3,-122.78 145.08,-129.47 151.05,-133.13"/>
<text text-anchor="middle" x="151.71" y="-146.54" font-family="Monaco" font-size="11.00">!@2</text>
</g>
<!-- Jump2_4 -->
<g id="node6" class="node">
<title>Jump2_4</title>
<polygon fill="none" stroke="black" points="91.42,-30 18.19,-30 18.19,-36 0.19,-18 18.19,0 18.19,-6 73.42,-6 73.42,0 91.42,0 91.42,-30"/>
<text text-anchor="start" x="8" y="-17.53" font-family="Monaco" font-size="11.00">Return.2_4</text>
<text text-anchor="start" x="74.01" y="-17.53" font-family="Monaco" baseline-shift="super" font-size="8.00" fill="#ff4411">q5</text>
</g>
<!-- Block1&#45;&gt;Jump2_4 -->
<g id="edge5" class="edge">
<title>Block1&#45;&gt;Jump2_4</title>
<path fill="none" stroke="black" d="M53.78,-86.53C52.41,-74.94 50.58,-59.39 49.01,-46.13"/>
<polygon fill="black" stroke="black" points="52.48,-45.63 47.83,-36.11 45.52,-46.45 52.48,-45.63"/>
<text text-anchor="middle" x="58.41" y="-59.87" font-family="Monaco" font-size="11.00">@3</text>
</g>
<!-- Jump2_5_6 -->
<g id="node7" class="node">
<title>Jump2_5_6</title>
<polygon fill="none" stroke="black" points="227.82,-36 109.79,-36 109.79,-32 105.79,-32 105.79,-28 109.79,-28 109.79,-8 105.79,-8 105.79,-4 109.79,-4 109.79,0 227.82,0 227.82,-36"/>
<polyline fill="none" stroke="black" points="109.79,-32 113.79,-32 113.79,-28 109.79,-28 "/>
<polyline fill="none" stroke="black" points="109.79,-8 113.79,-8 113.79,-4 109.79,-4 "/>
<text text-anchor="start" x="117.8" y="-21.2" font-family="Monaco" font-size="11.00">TailCall.2_5_6</text>
<text text-anchor="start" x="210.21" y="-21.2" font-family="Monaco" baseline-shift="super" font-size="8.00" fill="#ff4411">q7</text>
<text text-anchor="start" x="129.2" y="-10.2" font-family="Monaco" font-size="11.00">fib(@6,@4,a)</text>
</g>
<!-- Block2&#45;&gt;Jump2_5_6 -->
<g id="edge6" class="edge">
<title>Block2&#45;&gt;Jump2_5_6</title>
<path fill="none" stroke="black" d="M164.82,-86.53C165.5,-74.94 166.42,-59.39 167.2,-46.13"/>
<polygon fill="black" stroke="black" points="170.7,-46.3 167.8,-36.11 163.71,-45.88 170.7,-46.3"/>
</g>
<!-- ndBlock0_0 -->
<g id="node8" class="node">
<title>ndBlock0_0</title>
<ellipse fill="none" stroke="black" cx="397.81" cy="-191.34" rx="79.37" ry="18"/>
<text text-anchor="start" x="344.1" y="-190.87" font-family="Monaco" font-size="11.00">@2</text>
<text text-anchor="start" x="357.3" y="-190.87" font-family="Monaco" baseline-shift="super" font-size="8.00" fill="#3311ff">r3</text>
<text text-anchor="start" x="366.9" y="-190.87" font-family="Monaco" font-size="11.00">:n0==</text>
<text text-anchor="start" x="399.91" y="-190.87" font-family="Monaco" baseline-shift="super" font-size="8.00" fill="#3311ff">Equal1</text>
<text text-anchor="start" x="428.71" y="-190.87" font-family="Monaco" font-size="11.00">@1</text>
<text text-anchor="start" x="441.91" y="-190.87" font-family="Monaco" baseline-shift="super" font-size="8.00" fill="#ff4411">q2</text>
</g>
<!-- ndBlock0_1 -->
<g id="node9" class="node">
<title>ndBlock0_1</title>
<ellipse fill="none" stroke="black" cx="397.81" cy="-104.67" rx="46.44" ry="18"/>
<text text-anchor="start" x="369.9" y="-104.2" font-family="Monaco" font-size="11.00">out(@2)</text>
<text text-anchor="start" x="416.11" y="-104.2" font-family="Monaco" baseline-shift="super" font-size="8.00" fill="#ff4411">q3</text>
</g>
<!-- ndBlock0_0&#45;&gt;ndBlock0_1 -->
<g id="edge9" class="edge">
<title>ndBlock0_0&#45;&gt;ndBlock0_1</title>
<path fill="none" stroke="black" d="M397.81,-173.2C397.81,-161.61 397.81,-146.06 397.81,-132.8"/>
<polygon fill="black" stroke="black" points="401.31,-132.78 397.81,-122.78 394.31,-132.78 401.31,-132.78"/>
</g>
<!-- ndBlock0_2 -->
<g id="node10" class="node">
<title>ndBlock0_2</title>
<ellipse fill="none" stroke="black" cx="494.81" cy="-264.34" rx="41.94" ry="18"/>
<text text-anchor="start" x="470.2" y="-263.87" font-family="Monaco" font-size="11.00">out(b)</text>
<text text-anchor="start" x="509.81" y="-263.87" font-family="Monaco" baseline-shift="super" font-size="8.00" fill="#ff4411">q3</text>
</g>
<!-- ndBlock0_3 -->
<g id="node11" class="node">
<title>ndBlock0_3</title>
<ellipse fill="none" stroke="black" cx="596.81" cy="-337.34" rx="39.8" ry="18"/>
<text text-anchor="start" x="574" y="-336.87" font-family="Monaco" font-size="11.00">a</text>
<text text-anchor="start" x="580.6" y="-336.87" font-family="Monaco" baseline-shift="super" font-size="8.00" fill="#3311ff">r0</text>
<text text-anchor="start" x="590.21" y="-336.87" font-family="Monaco" font-size="11.00">:in</text>
<text text-anchor="start" x="610.01" y="-336.87" font-family="Monaco" baseline-shift="super" font-size="8.00" fill="#ff4411">q0</text>
</g>
<!-- ndBlock0_5 -->
<g id="node13" class="node">
<title>ndBlock0_5</title>
<ellipse fill="none" stroke="black" cx="596.81" cy="-264.34" rx="41.94" ry="18"/>
<text text-anchor="start" x="572.2" y="-263.87" font-family="Monaco" font-size="11.00">out(a)</text>
<text text-anchor="start" x="611.81" y="-263.87" font-family="Monaco" baseline-shift="super" font-size="8.00" fill="#ff4411">q3</text>
</g>
<!-- ndBlock0_3&#45;&gt;ndBlock0_5 -->
<g id="edge10" class="edge">
<title>ndBlock0_3&#45;&gt;ndBlock0_5</title>
<path fill="none" stroke="black" d="M596.81,-319.15C596.81,-311.13 596.81,-301.38 596.81,-292.41"/>
<polygon fill="black" stroke="black" points="600.31,-292.37 596.81,-282.37 593.31,-292.37 600.31,-292.37"/>
</g>
<!-- ndBlock0_4 -->
<g id="node12" class="node">
<title>ndBlock0_4</title>
<ellipse fill="none" stroke="black" cx="494.81" cy="-337.34" rx="39.8" ry="18"/>
<text text-anchor="start" x="472" y="-336.87" font-family="Monaco" font-size="11.00">b</text>
<text text-anchor="start" x="478.6" y="-336.87" font-family="Monaco" baseline-shift="super" font-size="8.00" fill="#3311ff">r1</text>
<text text-anchor="start" x="488.21" y="-336.87" font-family="Monaco" font-size="11.00">:in</text>
<text text-anchor="start" x="508.01" y="-336.87" font-family="Monaco" baseline-shift="super" font-size="8.00" fill="#ff4411">q0</text>
</g>
<!-- ndBlock0_4&#45;&gt;ndBlock0_2 -->
<g id="edge7" class="edge">
<title>ndBlock0_4&#45;&gt;ndBlock0_2</title>
<path fill="none" stroke="black" d="M494.81,-319.15C494.81,-311.13 494.81,-301.38 494.81,-292.41"/>
<polygon fill="black" stroke="black" points="498.31,-292.37 494.81,-282.37 491.31,-292.37 498.31,-292.37"/>
</g>
<!-- ndBlock0_6 -->
<g id="node14" class="node">
<title>ndBlock0_6</title>
<ellipse fill="none" stroke="black" cx="253.81" cy="-191.34" rx="46.44" ry="18"/>
<text text-anchor="start" x="225.9" y="-190.87" font-family="Monaco" font-size="11.00">out(n0)</text>
<text text-anchor="start" x="272.11" y="-190.87" font-family="Monaco" baseline-shift="super" font-size="8.00" fill="#ff4411">q3</text>
</g>
<!-- ndBlock0_7 -->
<g id="node15" class="node">
<title>ndBlock0_7</title>
<ellipse fill="none" stroke="black" cx="353.81" cy="-337.34" rx="39.8" ry="18"/>
<text text-anchor="start" x="331" y="-336.87" font-family="Monaco" font-size="11.00">@0</text>
<text text-anchor="start" x="344.2" y="-336.87" font-family="Monaco" baseline-shift="super" font-size="8.00" fill="#3311ff">r2</text>
<text text-anchor="start" x="353.81" y="-336.87" font-family="Monaco" font-size="11.00">:0</text>
<text text-anchor="start" x="367.01" y="-336.87" font-family="Monaco" baseline-shift="super" font-size="8.00" fill="#ff4411">q0</text>
</g>
<!-- ndBlock0_8 -->
<g id="node16" class="node">
<title>ndBlock0_8</title>
<ellipse fill="none" stroke="black" cx="272.81" cy="-264.34" rx="64.52" ry="18"/>
<text text-anchor="start" x="230.5" y="-263.87" font-family="Monaco" font-size="11.00">n0</text>
<text text-anchor="start" x="243.7" y="-263.87" font-family="Monaco" baseline-shift="super" font-size="8.00" fill="#3311ff">r2</text>
<text text-anchor="start" x="253.3" y="-263.87" font-family="Monaco" font-size="11.00">:n+</text>
<text text-anchor="start" x="273.11" y="-263.87" font-family="Monaco" baseline-shift="super" font-size="8.00" fill="#3311ff">Add0</text>
<text text-anchor="start" x="292.31" y="-263.87" font-family="Monaco" font-size="11.00">@0</text>
<text text-anchor="start" x="305.51" y="-263.87" font-family="Monaco" baseline-shift="super" font-size="8.00" fill="#ff4411">q1</text>
</g>
<!-- ndBlock0_7&#45;&gt;ndBlock0_8 -->
<g id="edge13" class="edge">
<title>ndBlock0_7&#45;&gt;ndBlock0_8</title>
<path fill="none" stroke="black" d="M336.23,-320.93C325.39,-311.43 311.28,-299.06 299.13,-288.41"/>
<polygon fill="black" stroke="black" points="301.3,-285.66 291.47,-281.7 296.69,-290.92 301.3,-285.66"/>
</g>
<!-- ndBlock0_8&#45;&gt;ndBlock0_0 -->
<g id="edge11" class="edge">
<title>ndBlock0_8&#45;&gt;ndBlock0_0</title>
<path fill="none" stroke="black" d="M299.93,-247.93C317.78,-237.79 341.38,-224.39 360.93,-213.29"/>
<polygon fill="black" stroke="black" points="362.9,-216.19 369.87,-208.2 359.45,-210.1 362.9,-216.19"/>
</g>
<!-- ndBlock0_8&#45;&gt;ndBlock0_6 -->
<g id="edge8" class="edge">
<title>ndBlock0_8&#45;&gt;ndBlock0_6</title>
<path fill="none" stroke="black" d="M268.21,-246.15C266.04,-238.04 263.4,-228.17 260.97,-219.11"/>
<polygon fill="black" stroke="black" points="264.33,-218.12 258.36,-209.37 257.57,-219.93 264.33,-218.12"/>
</g>
<!-- ndBlock0_9 -->
<g id="node17" class="node">
<title>ndBlock0_9</title>
<ellipse fill="none" stroke="black" cx="394.81" cy="-264.34" rx="39.8" ry="18"/>
<text text-anchor="start" x="372" y="-263.87" font-family="Monaco" font-size="11.00">@1</text>
<text text-anchor="start" x="385.2" y="-263.87" font-family="Monaco" baseline-shift="super" font-size="8.00" fill="#3311ff">r3</text>
<text text-anchor="start" x="394.81" y="-263.87" font-family="Monaco" font-size="11.00">:0</text>
<text text-anchor="start" x="408.01" y="-263.87" font-family="Monaco" baseline-shift="super" font-size="8.00" fill="#ff4411">q0</text>
</g>
<!-- ndBlock0_9&#45;&gt;ndBlock0_0 -->
<g id="edge12" class="edge">
<title>ndBlock0_9&#45;&gt;ndBlock0_0</title>
<path fill="none" stroke="black" d="M395.53,-246.15C395.87,-238.13 396.28,-228.38 396.66,-219.41"/>
<polygon fill="black" stroke="black" points="400.16,-219.5 397.09,-209.37 393.17,-219.21 400.16,-219.5"/>
</g>
<!-- ndBlock0_10 -->
<g id="node18" class="node">
<title>ndBlock0_10</title>
<ellipse fill="none" stroke="black" cx="256.81" cy="-337.34" rx="39.8" ry="18"/>
<text text-anchor="start" x="234" y="-336.87" font-family="Monaco" font-size="11.00">n</text>
<text text-anchor="start" x="240.6" y="-336.87" font-family="Monaco" baseline-shift="super" font-size="8.00" fill="#3311ff">r4</text>
<text text-anchor="start" x="250.21" y="-336.87" font-family="Monaco" font-size="11.00">:in</text>
<text text-anchor="start" x="270.01" y="-336.87" font-family="Monaco" baseline-shift="super" font-size="8.00" fill="#ff4411">q0</text>
</g>
<!-- ndBlock0_10&#45;&gt;ndBlock0_8 -->
<g id="edge14" class="edge">
<title>ndBlock0_10&#45;&gt;ndBlock0_8</title>
<path fill="none" stroke="black" d="M260.68,-319.15C262.49,-311.13 264.68,-301.38 266.71,-292.41"/>
<polygon fill="black" stroke="black" points="270.18,-292.89 268.97,-282.37 263.36,-291.35 270.18,-292.89"/>
</g>
<!-- ndBlock1_0 -->
<g id="node19" class="node">
<title>ndBlock1_0</title>
<ellipse fill="none" stroke="black" cx="708.81" cy="-337.34" rx="39.8" ry="18"/>
<text text-anchor="start" x="686" y="-336.87" font-family="Monaco" font-size="11.00">@3</text>
<text text-anchor="start" x="699.2" y="-336.87" font-family="Monaco" baseline-shift="super" font-size="8.00" fill="#3311ff">r0</text>
<text text-anchor="start" x="708.81" y="-336.87" font-family="Monaco" font-size="11.00">:1</text>
<text text-anchor="start" x="722.01" y="-336.87" font-family="Monaco" baseline-shift="super" font-size="8.00" fill="#ff4411">q3</text>
</g>
<!-- ndBlock1_1 -->
<g id="node20" class="node">
<title>ndBlock1_1</title>
<ellipse fill="none" stroke="black" cx="708.81" cy="-264.34" rx="46.44" ry="18"/>
<text text-anchor="start" x="680.9" y="-263.87" font-family="Monaco" font-size="11.00">out(@3)</text>
<text text-anchor="start" x="727.11" y="-263.87" font-family="Monaco" baseline-shift="super" font-size="8.00" fill="#ff4411">q5</text>
</g>
<!-- ndBlock1_0&#45;&gt;ndBlock1_1 -->
<g id="edge15" class="edge">
<title>ndBlock1_0&#45;&gt;ndBlock1_1</title>
<path fill="none" stroke="black" d="M708.81,-319.15C708.81,-311.13 708.81,-301.38 708.81,-292.41"/>
<polygon fill="black" stroke="black" points="712.31,-292.37 708.81,-282.37 705.31,-292.37 712.31,-292.37"/>
</g>
<!-- ndBlock2_0 -->
<g id="node21" class="node">
<title>ndBlock2_0</title>
<ellipse fill="none" stroke="black" cx="924.81" cy="-337.34" rx="39.8" ry="18"/>
<text text-anchor="start" x="902" y="-336.87" font-family="Monaco" font-size="11.00">@5</text>
<text text-anchor="start" x="915.2" y="-336.87" font-family="Monaco" baseline-shift="super" font-size="8.00" fill="#3311ff">r3</text>
<text text-anchor="start" x="924.81" y="-336.87" font-family="Monaco" font-size="11.00">:1</text>
<text text-anchor="start" x="938.01" y="-336.87" font-family="Monaco" baseline-shift="super" font-size="8.00" fill="#ff4411">q3</text>
</g>
<!-- ndBlock2_8 -->
<g id="node29" class="node">
<title>ndBlock2_8</title>
<ellipse fill="none" stroke="black" cx="848.81" cy="-264.34" rx="69.01" ry="18"/>
<text text-anchor="start" x="803.2" y="-263.87" font-family="Monaco" font-size="11.00">@6</text>
<text text-anchor="start" x="816.4" y="-263.87" font-family="Monaco" baseline-shift="super" font-size="8.00" fill="#3311ff">r2</text>
<text text-anchor="start" x="826" y="-263.87" font-family="Monaco" font-size="11.00">:n0&#45;</text>
<text text-anchor="start" x="852.41" y="-263.87" font-family="Monaco" baseline-shift="super" font-size="8.00" fill="#3311ff">Sub2</text>
<text text-anchor="start" x="871.61" y="-263.87" font-family="Monaco" font-size="11.00">@5</text>
<text text-anchor="start" x="884.81" y="-263.87" font-family="Monaco" baseline-shift="super" font-size="8.00" fill="#ff4411">q6</text>
</g>
<!-- ndBlock2_0&#45;&gt;ndBlock2_8 -->
<g id="edge19" class="edge">
<title>ndBlock2_0&#45;&gt;ndBlock2_8</title>
<path fill="none" stroke="black" d="M908.32,-320.93C898.31,-311.59 885.34,-299.47 874.07,-288.94"/>
<polygon fill="black" stroke="black" points="876.29,-286.22 866.59,-281.95 871.51,-291.34 876.29,-286.22"/>
</g>
<!-- ndBlock2_1 -->
<g id="node22" class="node">
<title>ndBlock2_1</title>
<ellipse fill="none" stroke="black" cx="996.81" cy="-191.34" rx="46.44" ry="18"/>
<text text-anchor="start" x="968.9" y="-190.87" font-family="Monaco" font-size="11.00">out(@4)</text>
<text text-anchor="start" x="1015.11" y="-190.87" font-family="Monaco" baseline-shift="super" font-size="8.00" fill="#ff4411">q7</text>
</g>
<!-- ndBlock2_2 -->
<g id="node23" class="node">
<title>ndBlock2_2</title>
<ellipse fill="none" stroke="black" cx="1118.81" cy="-337.34" rx="39.8" ry="18"/>
<text text-anchor="start" x="1096" y="-336.87" font-family="Monaco" font-size="11.00">a</text>
<text text-anchor="start" x="1102.6" y="-336.87" font-family="Monaco" baseline-shift="super" font-size="8.00" fill="#3311ff">r0</text>
<text text-anchor="start" x="1112.21" y="-336.87" font-family="Monaco" font-size="11.00">:in</text>
<text text-anchor="start" x="1132.01" y="-336.87" font-family="Monaco" baseline-shift="super" font-size="8.00" fill="#ff4411">q3</text>
</g>
<!-- ndBlock2_5 -->
<g id="node26" class="node">
<title>ndBlock2_5</title>
<ellipse fill="none" stroke="black" cx="996.81" cy="-264.34" rx="60.52" ry="18"/>
<text text-anchor="start" x="957.8" y="-263.87" font-family="Monaco" font-size="11.00">@4</text>
<text text-anchor="start" x="971" y="-263.87" font-family="Monaco" baseline-shift="super" font-size="8.00" fill="#3311ff">r1</text>
<text text-anchor="start" x="980.6" y="-263.87" font-family="Monaco" font-size="11.00">:a+</text>
<text text-anchor="start" x="1000.41" y="-263.87" font-family="Monaco" baseline-shift="super" font-size="8.00" fill="#3311ff">Add0</text>
<text text-anchor="start" x="1019.61" y="-263.87" font-family="Monaco" font-size="11.00">b</text>
<text text-anchor="start" x="1026.21" y="-263.87" font-family="Monaco" baseline-shift="super" font-size="8.00" fill="#ff4411">q6</text>
</g>
<!-- ndBlock2_2&#45;&gt;ndBlock2_5 -->
<g id="edge16" class="edge">
<title>ndBlock2_2&#45;&gt;ndBlock2_5</title>
<path fill="none" stroke="black" d="M1095.28,-322.65C1077.31,-312.19 1052.25,-297.6 1031.9,-285.76"/>
<polygon fill="black" stroke="black" points="1033.63,-282.71 1023.22,-280.71 1030.1,-288.77 1033.63,-282.71"/>
</g>
<!-- ndBlock2_6 -->
<g id="node27" class="node">
<title>ndBlock2_6</title>
<ellipse fill="none" stroke="black" cx="1116.81" cy="-264.34" rx="41.94" ry="18"/>
<text text-anchor="start" x="1092.2" y="-263.87" font-family="Monaco" font-size="11.00">out(a)</text>
<text text-anchor="start" x="1131.81" y="-263.87" font-family="Monaco" baseline-shift="super" font-size="8.00" fill="#ff4411">q7</text>
</g>
<!-- ndBlock2_2&#45;&gt;ndBlock2_6 -->
<g id="edge21" class="edge">
<title>ndBlock2_2&#45;&gt;ndBlock2_6</title>
<path fill="none" stroke="black" d="M1118.32,-319.15C1118.1,-311.13 1117.82,-301.38 1117.57,-292.41"/>
<polygon fill="black" stroke="black" points="1121.07,-292.26 1117.29,-282.37 1114.07,-292.46 1121.07,-292.26"/>
</g>
<!-- ndBlock2_3 -->
<g id="node24" class="node">
<title>ndBlock2_3</title>
<ellipse fill="none" stroke="black" cx="1021.81" cy="-337.34" rx="39.8" ry="18"/>
<text text-anchor="start" x="999" y="-336.87" font-family="Monaco" font-size="11.00">b</text>
<text text-anchor="start" x="1005.6" y="-336.87" font-family="Monaco" baseline-shift="super" font-size="8.00" fill="#3311ff">r1</text>
<text text-anchor="start" x="1015.21" y="-336.87" font-family="Monaco" font-size="11.00">:in</text>
<text text-anchor="start" x="1035.01" y="-336.87" font-family="Monaco" baseline-shift="super" font-size="8.00" fill="#ff4411">q3</text>
</g>
<!-- ndBlock2_3&#45;&gt;ndBlock2_5 -->
<g id="edge17" class="edge">
<title>ndBlock2_3&#45;&gt;ndBlock2_5</title>
<path fill="none" stroke="black" d="M1015.88,-319.51C1013,-311.32 1009.46,-301.27 1006.22,-292.07"/>
<polygon fill="black" stroke="black" points="1009.48,-290.81 1002.86,-282.54 1002.88,-293.13 1009.48,-290.81"/>
</g>
<!-- ndBlock2_4 -->
<g id="node25" class="node">
<title>ndBlock2_4</title>
<ellipse fill="none" stroke="black" cx="848.81" cy="-191.34" rx="46.44" ry="18"/>
<text text-anchor="start" x="820.9" y="-190.87" font-family="Monaco" font-size="11.00">out(@6)</text>
<text text-anchor="start" x="867.11" y="-190.87" font-family="Monaco" baseline-shift="super" font-size="8.00" fill="#ff4411">q7</text>
</g>
<!-- ndBlock2_5&#45;&gt;ndBlock2_1 -->
<g id="edge18" class="edge">
<title>ndBlock2_5&#45;&gt;ndBlock2_1</title>
<path fill="none" stroke="black" d="M996.81,-246.15C996.81,-238.13 996.81,-228.38 996.81,-219.41"/>
<polygon fill="black" stroke="black" points="1000.31,-219.37 996.81,-209.37 993.31,-219.37 1000.31,-219.37"/>
</g>
<!-- ndBlock2_7 -->
<g id="node28" class="node">
<title>ndBlock2_7</title>
<ellipse fill="none" stroke="black" cx="822.81" cy="-337.34" rx="43.8" ry="18"/>
<text text-anchor="start" x="796.7" y="-336.87" font-family="Monaco" font-size="11.00">n0</text>
<text text-anchor="start" x="809.9" y="-336.87" font-family="Monaco" baseline-shift="super" font-size="8.00" fill="#3311ff">r2</text>
<text text-anchor="start" x="819.51" y="-336.87" font-family="Monaco" font-size="11.00">:in</text>
<text text-anchor="start" x="839.31" y="-336.87" font-family="Monaco" baseline-shift="super" font-size="8.00" fill="#ff4411">q3</text>
</g>
<!-- ndBlock2_7&#45;&gt;ndBlock2_8 -->
<g id="edge20" class="edge">
<title>ndBlock2_7&#45;&gt;ndBlock2_8</title>
<path fill="none" stroke="black" d="M828.97,-319.51C831.97,-311.32 835.65,-301.27 839.02,-292.07"/>
<polygon fill="black" stroke="black" points="842.36,-293.13 842.51,-282.54 835.78,-290.72 842.36,-293.13"/>
</g>
<!-- ndBlock2_8&#45;&gt;ndBlock2_4 -->
<g id="edge22" class="edge">
<title>ndBlock2_8&#45;&gt;ndBlock2_4</title>
<path fill="none" stroke="black" d="M848.81,-246.15C848.81,-238.13 848.81,-228.38 848.81,-219.41"/>
<polygon fill="black" stroke="black" points="852.31,-219.37 848.81,-209.37 845.31,-219.37 852.31,-219.37"/>
</g>
</g>
</svg>
