<?xml version="1.0" encoding="UTF-8" standalone="no"?>
<!DOCTYPE svg PUBLIC "-//W3C//DTD SVG 1.1//EN"
 "http://www.w3.org/Graphics/SVG/1.1/DTD/svg11.dtd">
<!-- Generated by graphviz version 2.43.0 (0)
 -->
<!-- Title: Program_ Pages: 1 -->
<svg width="760pt" height="435pt"
 viewBox="0.00 0.00 759.81 435.34" xmlns="http://www.w3.org/2000/svg" xmlns:xlink="http://www.w3.org/1999/xlink">
<g id="graph0" class="graph" transform="scale(1 1) rotate(0) translate(4 431.34)">
<title>Program_</title>
<polygon fill="white" stroke="transparent" points="-4,4 -4,-431.34 755.81,-431.34 755.81,4 -4,4"/>
<g id="clust1" class="cluster">
<title>cluster_dfg_Block0</title>
<polygon fill="none" stroke="black" points="163.81,-311.34 163.81,-419.34 333.81,-419.34 333.81,-311.34 163.81,-311.34"/>
<text text-anchor="start" x="227.2" y="-406.74" font-family="Monaco" font-size="12.00">Block0</text>
<text text-anchor="start" x="193.6" y="-394.74" font-family="Monaco" font-size="12.00">(n</text>
<text text-anchor="start" x="208" y="-394.74" font-family="Monaco" baseline-shift="super" font-size="8.00" fill="#00aa11">U6</text>
<text text-anchor="start" x="217.6" y="-394.74" font-family="Monaco" baseline-shift="super" font-size="8.00" fill="#3311ff">r0</text>
<text text-anchor="start" x="227.2" y="-394.74" font-family="Monaco" font-size="12.00">,a</text>
<text text-anchor="start" x="241.6" y="-394.74" font-family="Monaco" baseline-shift="super" font-size="8.00" fill="#00aa11">U32</text>
<text text-anchor="start" x="256.01" y="-394.74" font-family="Monaco" baseline-shift="super" font-size="8.00" fill="#3311ff">r1</text>
<text text-anchor="start" x="265.61" y="-394.74" font-family="Monaco" font-size="12.00">,b</text>
<text text-anchor="start" x="280.01" y="-394.74" font-family="Monaco" baseline-shift="super" font-size="8.00" fill="#00aa11">U32</text>
<text text-anchor="start" x="294.41" y="-394.74" font-family="Monaco" baseline-shift="super" font-size="8.00" fill="#3311ff">r2</text>
<text text-anchor="start" x="241.6" y="-382.74" font-family="Monaco" font-size="12.00">=&gt;</text>
<text text-anchor="start" x="173.19" y="-370.74" font-family="Monaco" font-size="12.00">a</text>
<text text-anchor="start" x="180.4" y="-370.74" font-family="Monaco" baseline-shift="super" font-size="8.00" fill="#00aa11">U32</text>
<text text-anchor="start" x="194.8" y="-370.74" font-family="Monaco" baseline-shift="super" font-size="8.00" fill="#3311ff">r1</text>
<text text-anchor="start" x="204.4" y="-370.74" font-family="Monaco" font-size="12.00">,n</text>
<text text-anchor="start" x="218.8" y="-370.74" font-family="Monaco" baseline-shift="super" font-size="8.00" fill="#00aa11">U6</text>
<text text-anchor="start" x="228.4" y="-370.74" font-family="Monaco" baseline-shift="super" font-size="8.00" fill="#3311ff">r0</text>
<text text-anchor="start" x="238" y="-370.74" font-family="Monaco" font-size="12.00">,b</text>
<text text-anchor="start" x="252.41" y="-370.74" font-family="Monaco" baseline-shift="super" font-size="8.00" fill="#00aa11">U32</text>
<text text-anchor="start" x="266.81" y="-370.74" font-family="Monaco" baseline-shift="super" font-size="8.00" fill="#3311ff">r2</text>
<text text-anchor="start" x="276.41" y="-370.74" font-family="Monaco" font-size="12.00">,@c</text>
<text text-anchor="start" x="298.01" y="-370.74" font-family="Monaco" baseline-shift="super" font-size="8.00" fill="#00aa11">U1</text>
<text text-anchor="start" x="307.62" y="-370.74" font-family="Monaco" baseline-shift="super" font-size="8.00" fill="#3311ff">r3</text>
<text text-anchor="start" x="317.22" y="-370.74" font-family="Monaco" font-size="12.00">)</text>
</g>
<g id="clust2" class="cluster">
<title>cluster_dfg_Block1</title>
<polygon fill="none" stroke="black" points="341.81,-311.34 341.81,-419.34 415.81,-419.34 415.81,-311.34 341.81,-311.34"/>
<text text-anchor="start" x="357.2" y="-406.74" font-family="Monaco" font-size="12.00">Block1</text>
<text text-anchor="start" x="359.6" y="-394.74" font-family="Monaco" font-size="12.00">(a</text>
<text text-anchor="start" x="374.01" y="-394.74" font-family="Monaco" baseline-shift="super" font-size="8.00" fill="#00aa11">U32</text>
<text text-anchor="start" x="388.41" y="-394.74" font-family="Monaco" baseline-shift="super" font-size="8.00" fill="#3311ff">r1</text>
<text text-anchor="start" x="371.6" y="-382.74" font-family="Monaco" font-size="12.00">=&gt;</text>
<text text-anchor="start" x="359.6" y="-370.74" font-family="Monaco" font-size="12.00">a</text>
<text text-anchor="start" x="366.8" y="-370.74" font-family="Monaco" baseline-shift="super" font-size="8.00" fill="#00aa11">U32</text>
<text text-anchor="start" x="381.21" y="-370.74" font-family="Monaco" baseline-shift="super" font-size="8.00" fill="#3311ff">r1</text>
<text text-anchor="start" x="390.81" y="-370.74" font-family="Monaco" font-size="12.00">)</text>
</g>
<g id="clust3" class="cluster">
<title>cluster_dfg_Block2</title>
<polygon fill="none" stroke="black" points="423.81,-311.34 423.81,-419.34 743.81,-419.34 743.81,-311.34 423.81,-311.34"/>
<text text-anchor="start" x="562.2" y="-406.74" font-family="Monaco" font-size="12.00">Block2</text>
<text text-anchor="start" x="528.6" y="-394.74" font-family="Monaco" font-size="12.00">(n</text>
<text text-anchor="start" x="543" y="-394.74" font-family="Monaco" baseline-shift="super" font-size="8.00" fill="#00aa11">U6</text>
<text text-anchor="start" x="552.6" y="-394.74" font-family="Monaco" baseline-shift="super" font-size="8.00" fill="#3311ff">r0</text>
<text text-anchor="start" x="562.2" y="-394.74" font-family="Monaco" font-size="12.00">,a</text>
<text text-anchor="start" x="576.6" y="-394.74" font-family="Monaco" baseline-shift="super" font-size="8.00" fill="#00aa11">U32</text>
<text text-anchor="start" x="591.01" y="-394.74" font-family="Monaco" baseline-shift="super" font-size="8.00" fill="#3311ff">r1</text>
<text text-anchor="start" x="600.61" y="-394.74" font-family="Monaco" font-size="12.00">,b</text>
<text text-anchor="start" x="615.01" y="-394.74" font-family="Monaco" baseline-shift="super" font-size="8.00" fill="#00aa11">U32</text>
<text text-anchor="start" x="629.41" y="-394.74" font-family="Monaco" baseline-shift="super" font-size="8.00" fill="#3311ff">r2</text>
<text text-anchor="start" x="576.6" y="-382.74" font-family="Monaco" font-size="12.00">=&gt;</text>
<text text-anchor="start" x="521.4" y="-370.74" font-family="Monaco" font-size="12.00">@k</text>
<text text-anchor="start" x="535.8" y="-370.74" font-family="Monaco" baseline-shift="super" font-size="8.00" fill="#00aa11">U6</text>
<text text-anchor="start" x="545.4" y="-370.74" font-family="Monaco" baseline-shift="super" font-size="8.00" fill="#3311ff">r2</text>
<text text-anchor="start" x="555" y="-370.74" font-family="Monaco" font-size="12.00">,@h</text>
<text text-anchor="start" x="576.6" y="-370.74" font-family="Monaco" baseline-shift="super" font-size="8.00" fill="#00aa11">U32</text>
<text text-anchor="start" x="591.01" y="-370.74" font-family="Monaco" baseline-shift="super" font-size="8.00" fill="#3311ff">r0</text>
<text text-anchor="start" x="600.61" y="-370.74" font-family="Monaco" font-size="12.00">,a</text>
<text text-anchor="start" x="615.01" y="-370.74" font-family="Monaco" baseline-shift="super" font-size="8.00" fill="#00aa11">U32</text>
<text text-anchor="start" x="629.41" y="-370.74" font-family="Monaco" baseline-shift="super" font-size="8.00" fill="#3311ff">r1</text>
<text text-anchor="start" x="639.02" y="-370.74" font-family="Monaco" font-size="12.00">)</text>
</g>
<!-- Jump0 -->
<g id="node1" class="node">
<title>Jump0</title>
<polygon fill="none" stroke="black" points="154.02,-355.34 37.59,-355.34 37.59,-351.34 33.59,-351.34 33.59,-347.34 37.59,-347.34 37.59,-327.34 33.59,-327.34 33.59,-323.34 37.59,-323.34 37.59,-319.34 154.02,-319.34 154.02,-355.34"/>
<polyline fill="none" stroke="black" points="37.59,-351.34 41.59,-351.34 41.59,-347.34 37.59,-347.34 "/>
<polyline fill="none" stroke="black" points="37.59,-327.34 41.59,-327.34 41.59,-323.34 37.59,-323.34 "/>
<text text-anchor="start" x="58" y="-340.54" font-family="Monaco" baseline-shift="super" font-size="8.00" fill="#ff4411">q0</text>
<text text-anchor="start" x="67.6" y="-340.54" font-family="Monaco" font-size="11.00">StartFun.0</text>
<text text-anchor="start" x="45.7" y="-329.54" font-family="Monaco" font-size="11.00">n</text>
<text text-anchor="start" x="52.3" y="-329.54" font-family="Monaco" baseline-shift="super" font-size="8.00" fill="#00aa11">U6</text>
<text text-anchor="start" x="61.9" y="-329.54" font-family="Monaco" baseline-shift="super" font-size="8.00" fill="#3311ff">r0</text>
<text text-anchor="start" x="71.5" y="-329.54" font-family="Monaco" font-size="11.00">,a</text>
<text text-anchor="start" x="84.7" y="-329.54" font-family="Monaco" baseline-shift="super" font-size="8.00" fill="#00aa11">U32</text>
<text text-anchor="start" x="99.11" y="-329.54" font-family="Monaco" baseline-shift="super" font-size="8.00" fill="#3311ff">r1</text>
<text text-anchor="start" x="108.71" y="-329.54" font-family="Monaco" font-size="11.00">,b</text>
<text text-anchor="start" x="121.91" y="-329.54" font-family="Monaco" baseline-shift="super" font-size="8.00" fill="#00aa11">U32</text>
<text text-anchor="start" x="136.31" y="-329.54" font-family="Monaco" baseline-shift="super" font-size="8.00" fill="#3311ff">r2</text>
</g>
<!-- Block0 -->
<g id="node2" class="node">
<title>Block0</title>
<polygon fill="none" stroke="black" points="123.41,-282.34 68.2,-282.34 68.2,-246.34 123.41,-246.34 123.41,-282.34"/>
<text text-anchor="middle" x="95.81" y="-262.87" font-family="Monaco" font-size="11.00">Block0</text>
</g>
<!-- Jump0&#45;&gt;Block0 -->
<g id="edge1" class="edge">
<title>Jump0&#45;&gt;Block0</title>
<path fill="none" stroke="black" d="M95.81,-319.15C95.81,-311.13 95.81,-301.38 95.81,-292.41"/>
<polygon fill="black" stroke="black" points="99.31,-292.37 95.81,-282.37 92.31,-292.37 99.31,-292.37"/>
</g>
<!-- Jump1 -->
<g id="node3" class="node">
<title>Jump1</title>
<path fill="none" stroke="black" d="M125.41,-209.34C125.41,-209.34 66.2,-209.34 66.2,-209.34 60.2,-209.34 50.39,-204.7 46.57,-200.07 46.57,-200.07 32.19,-182.6 32.19,-182.6 28.38,-177.97 30.57,-173.34 36.57,-173.34 36.57,-173.34 155.05,-173.34 155.05,-173.34 161.05,-173.34 163.23,-177.97 159.42,-182.6 159.42,-182.6 145.04,-200.07 145.04,-200.07 141.23,-204.7 131.41,-209.34 125.41,-209.34"/>
<text text-anchor="start" x="64.6" y="-190.87" font-family="Monaco" baseline-shift="super" font-size="8.00" fill="#ff4411">q1</text>
<text text-anchor="start" x="74.2" y="-190.87" font-family="Monaco" font-size="11.00">Branch.1</text>
</g>
<!-- Block0&#45;&gt;Jump1 -->
<g id="edge2" class="edge">
<title>Block0&#45;&gt;Jump1</title>
<path fill="none" stroke="black" d="M95.81,-246.15C95.81,-238.13 95.81,-228.38 95.81,-219.41"/>
<polygon fill="black" stroke="black" points="99.31,-219.37 95.81,-209.37 92.31,-219.37 99.31,-219.37"/>
</g>
<!-- Block1 -->
<g id="node4" class="node">
<title>Block1</title>
<polygon fill="none" stroke="black" points="86.41,-122.67 31.2,-122.67 31.2,-86.67 86.41,-86.67 86.41,-122.67"/>
<text text-anchor="middle" x="58.81" y="-103.2" font-family="Monaco" font-size="11.00">Block1</text>
</g>
<!-- Jump1&#45;&gt;Block1 -->
<g id="edge3" class="edge">
<title>Jump1&#45;&gt;Block1</title>
<path fill="none" stroke="black" d="M88.32,-173.2C83.15,-161.38 76.19,-145.44 70.32,-132.01"/>
<polygon fill="black" stroke="black" points="73.49,-130.54 66.28,-122.78 67.08,-133.34 73.49,-130.54"/>
<text text-anchor="start" x="79.81" y="-146.54" font-family="Monaco" font-size="11.00">@c</text>
</g>
<!-- Block2 -->
<g id="node5" class="node">
<title>Block2</title>
<polygon fill="none" stroke="black" points="184.41,-122.67 129.2,-122.67 129.2,-86.67 184.41,-86.67 184.41,-122.67"/>
<text text-anchor="middle" x="156.81" y="-103.2" font-family="Monaco" font-size="11.00">Block2</text>
</g>
<!-- Jump1&#45;&gt;Block2 -->
<g id="edge4" class="edge">
<title>Jump1&#45;&gt;Block2</title>
<path fill="none" stroke="black" d="M108.15,-173.2C116.83,-161.15 128.6,-144.82 138.39,-131.23"/>
<polygon fill="black" stroke="black" points="141.47,-132.94 144.48,-122.78 135.79,-128.84 141.47,-132.94"/>
<text text-anchor="start" x="130.81" y="-146.54" font-family="Monaco" font-size="11.00">!@c</text>
</g>
<!-- Jump2_4 -->
<g id="node6" class="node">
<title>Jump2_4</title>
<polygon fill="none" stroke="black" points="91.42,-30 18.19,-30 18.19,-36 0.19,-18 18.19,0 18.19,-6 73.42,-6 73.42,0 91.42,0 91.42,-30"/>
<text text-anchor="start" x="8" y="-17.53" font-family="Monaco" baseline-shift="super" font-size="8.00" fill="#ff4411">q2</text>
<text text-anchor="start" x="17.6" y="-17.53" font-family="Monaco" font-size="11.00">Return.2_4</text>
</g>
<!-- Block1&#45;&gt;Jump2_4 -->
<g id="edge5" class="edge">
<title>Block1&#45;&gt;Jump2_4</title>
<path fill="none" stroke="black" d="M56.18,-86.53C54.4,-74.94 52.01,-59.39 49.97,-46.13"/>
<polygon fill="black" stroke="black" points="53.41,-45.46 48.43,-36.11 46.49,-46.52 53.41,-45.46"/>
<text text-anchor="start" x="53.81" y="-59.87" font-family="Monaco" font-size="11.00">a</text>
</g>
<!-- Jump2_5_6 -->
<g id="node7" class="node">
<title>Jump2_5_6</title>
<polygon fill="none" stroke="black" points="227.82,-36 109.79,-36 109.79,-32 105.79,-32 105.79,-28 109.79,-28 109.79,-8 105.79,-8 105.79,-4 109.79,-4 109.79,0 227.82,0 227.82,-36"/>
<polyline fill="none" stroke="black" points="109.79,-32 113.79,-32 113.79,-28 109.79,-28 "/>
<polyline fill="none" stroke="black" points="109.79,-8 113.79,-8 113.79,-4 109.79,-4 "/>
<text text-anchor="start" x="117.8" y="-21.2" font-family="Monaco" baseline-shift="super" font-size="8.00" fill="#ff4411">q3</text>
<text text-anchor="start" x="127.4" y="-21.2" font-family="Monaco" font-size="11.00">TailCall.2_5_6</text>
<text text-anchor="start" x="129.2" y="-10.2" font-family="Monaco" font-size="11.00">fib(@k,@h,a)</text>
</g>
<!-- Block2&#45;&gt;Jump2_5_6 -->
<g id="edge6" class="edge">
<title>Block2&#45;&gt;Jump2_5_6</title>
<path fill="none" stroke="black" d="M159.23,-86.53C160.88,-74.94 163.08,-59.39 164.96,-46.13"/>
<polygon fill="black" stroke="black" points="168.44,-46.5 166.38,-36.11 161.51,-45.52 168.44,-46.5"/>
</g>
<!-- 1 -->
<g id="node8" class="node">
<title>1</title>
<ellipse fill="none" stroke="black" cx="248.81" cy="-337.34" rx="77.23" ry="18"/>
<text text-anchor="start" x="196.9" y="-336.87" font-family="Monaco" baseline-shift="super" font-size="8.00" fill="#ff4411">q1</text>
<text text-anchor="start" x="206.5" y="-336.87" font-family="Monaco" font-size="11.00">@c</text>
<text text-anchor="start" x="219.7" y="-336.87" font-family="Monaco" baseline-shift="super" font-size="8.00" fill="#00aa11">U1</text>
<text text-anchor="start" x="229.3" y="-336.87" font-family="Monaco" baseline-shift="super" font-size="8.00" fill="#3311ff">r3</text>
<text text-anchor="start" x="238.9" y="-336.87" font-family="Monaco" font-size="11.00">:n==</text>
<text text-anchor="start" x="265.31" y="-336.87" font-family="Monaco" baseline-shift="super" font-size="8.00" fill="#3311ff">Bin0</text>
<text text-anchor="start" x="284.51" y="-336.87" font-family="Monaco" font-size="11.00">0</text>
<text text-anchor="start" x="291.11" y="-336.87" font-family="Monaco" baseline-shift="super" font-size="8.00" fill="#00aa11">U1</text>
</g>
<!-- 2 -->
<g id="node9" class="node">
<title>2</title>
<ellipse fill="none" stroke="black" cx="378.81" cy="-337.34" rx="29.45" ry="18"/>
<text text-anchor="start" x="364.1" y="-336.87" font-family="Monaco" baseline-shift="super" font-size="8.00" fill="#ff4411">q2</text>
<text text-anchor="start" x="373.71" y="-336.87" font-family="Monaco" font-size="11.00">nop</text>
</g>
<!-- 3 -->
<g id="node10" class="node">
<title>3</title>
<ellipse fill="none" stroke="black" cx="665.81" cy="-337.34" rx="69.56" ry="18"/>
<text text-anchor="start" x="619.6" y="-336.87" font-family="Monaco" baseline-shift="super" font-size="8.00" fill="#ff4411">q3</text>
<text text-anchor="start" x="629.2" y="-336.87" font-family="Monaco" font-size="11.00">@h</text>
<text text-anchor="start" x="642.4" y="-336.87" font-family="Monaco" baseline-shift="super" font-size="8.00" fill="#00aa11">U32</text>
<text text-anchor="start" x="656.8" y="-336.87" font-family="Monaco" baseline-shift="super" font-size="8.00" fill="#3311ff">r0</text>
<text text-anchor="start" x="666.41" y="-336.87" font-family="Monaco" font-size="11.00">:a+</text>
<text text-anchor="start" x="686.21" y="-336.87" font-family="Monaco" baseline-shift="super" font-size="8.00" fill="#3311ff">Bin1</text>
<text text-anchor="start" x="705.41" y="-336.87" font-family="Monaco" font-size="11.00">b</text>
</g>
<!-- 5 -->
<g id="node11" class="node">
<title>5</title>
<ellipse fill="none" stroke="black" cx="504.81" cy="-337.34" rx="72.74" ry="18"/>
<text text-anchor="start" x="456.2" y="-336.87" font-family="Monaco" baseline-shift="super" font-size="8.00" fill="#ff4411">q3</text>
<text text-anchor="start" x="465.8" y="-336.87" font-family="Monaco" font-size="11.00">@k</text>
<text text-anchor="start" x="479" y="-336.87" font-family="Monaco" baseline-shift="super" font-size="8.00" fill="#00aa11">U6</text>
<text text-anchor="start" x="488.6" y="-336.87" font-family="Monaco" baseline-shift="super" font-size="8.00" fill="#3311ff">r2</text>
<text text-anchor="start" x="498.21" y="-336.87" font-family="Monaco" font-size="11.00">:n&#45;</text>
<text text-anchor="start" x="518.01" y="-336.87" font-family="Monaco" baseline-shift="super" font-size="8.00" fill="#3311ff">Bin2</text>
<text text-anchor="start" x="537.21" y="-336.87" font-family="Monaco" font-size="11.00">1</text>
<text text-anchor="start" x="543.81" y="-336.87" font-family="Monaco" baseline-shift="super" font-size="8.00" fill="#00aa11">U1</text>
</g>
</g>
</svg>
