<?xml version="1.0" encoding="UTF-8" standalone="no"?>
<!DOCTYPE svg PUBLIC "-//W3C//DTD SVG 1.1//EN"
 "http://www.w3.org/Graphics/SVG/1.1/DTD/svg11.dtd">
<!-- Generated by graphviz version 2.43.0 (0)
 -->
<!-- Title: Program_ Pages: 1 -->
<svg width="1006pt" height="577pt"
 viewBox="0.00 0.00 1005.80 576.68" xmlns="http://www.w3.org/2000/svg" xmlns:xlink="http://www.w3.org/1999/xlink">
<g id="graph0" class="graph" transform="scale(1 1) rotate(0) translate(4 572.68)">
<title>Program_</title>
<polygon fill="white" stroke="transparent" points="-4,4 -4,-572.68 1001.8,-572.68 1001.8,4 -4,4"/>
<g id="clust1" class="cluster">
<title>cluster_dfg_Block1</title>
<polygon fill="none" stroke="black" points="135.8,-338.67 135.8,-560.68 458.8,-560.68 458.8,-338.67 135.8,-338.67"/>
<text text-anchor="middle" x="297.3" y="-547.08" font-family="Monaco" font-size="12.00">Block1</text>
</g>
<g id="clust2" class="cluster">
<title>cluster_dfg_Block2</title>
<polygon fill="none" stroke="black" points="466.8,-411.67 466.8,-560.68 546.8,-560.68 546.8,-411.67 466.8,-411.67"/>
<text text-anchor="middle" x="506.8" y="-547.08" font-family="Monaco" font-size="12.00">Block2</text>
</g>
<g id="clust3" class="cluster">
<title>cluster_dfg_Block3</title>
<polygon fill="none" stroke="black" points="554.8,-252.01 554.8,-560.68 885.8,-560.68 885.8,-252.01 554.8,-252.01"/>
<text text-anchor="middle" x="720.3" y="-547.08" font-family="Monaco" font-size="12.00">Block3</text>
</g>
<g id="clust4" class="cluster">
<title>cluster_dfg_Block4</title>
<polygon fill="none" stroke="black" points="893.8,-411.67 893.8,-560.68 989.8,-560.68 989.8,-411.67 893.8,-411.67"/>
<text text-anchor="middle" x="941.8" y="-547.08" font-family="Monaco" font-size="12.00">Block4</text>
</g>
<!-- Jump2 -->
<g id="node1" class="node">
<title>Jump2</title>
<polygon fill="none" stroke="black" points="105.81,-528.67 23.79,-528.67 23.79,-524.67 19.79,-524.67 19.79,-520.67 23.79,-520.67 23.79,-500.67 19.79,-500.67 19.79,-496.67 23.79,-496.67 23.79,-492.67 105.81,-492.67 105.81,-528.67"/>
<polyline fill="none" stroke="black" points="23.79,-524.67 27.79,-524.67 27.79,-520.67 23.79,-520.67 "/>
<polyline fill="none" stroke="black" points="23.79,-500.67 27.79,-500.67 27.79,-496.67 23.79,-496.67 "/>
<text text-anchor="middle" x="64.8" y="-509.21" font-family="Monaco" font-size="11.00">StartFun.2</text>
</g>
<!-- Block1 -->
<g id="node2" class="node">
<title>Block1</title>
<polygon fill="none" stroke="black" points="92.41,-455.67 37.2,-455.67 37.2,-419.67 92.41,-419.67 92.41,-455.67"/>
<text text-anchor="middle" x="64.8" y="-436.21" font-family="Monaco" font-size="11.00">Block1</text>
</g>
<!-- Jump2&#45;&gt;Block1 -->
<g id="edge1" class="edge">
<title>Jump2&#45;&gt;Block1</title>
<path fill="none" stroke="black" d="M64.8,-492.49C64.8,-484.46 64.8,-474.72 64.8,-465.74"/>
<polygon fill="black" stroke="black" points="68.3,-465.7 64.8,-455.7 61.3,-465.7 68.3,-465.7"/>
</g>
<!-- Jump3 -->
<g id="node3" class="node">
<title>Jump3</title>
<path fill="none" stroke="black" d="M89.46,-382.67C89.46,-382.67 40.15,-382.67 40.15,-382.67 34.15,-382.67 24.63,-377.82 21.1,-372.96 21.1,-372.96 9.09,-356.39 9.09,-356.39 5.56,-351.53 8.04,-346.67 14.04,-346.67 14.04,-346.67 115.57,-346.67 115.57,-346.67 121.57,-346.67 124.04,-351.53 120.52,-356.39 120.52,-356.39 108.5,-372.96 108.5,-372.96 104.98,-377.82 95.46,-382.67 89.46,-382.67"/>
<text text-anchor="middle" x="64.8" y="-363.21" font-family="Monaco" font-size="11.00">Branch.3</text>
</g>
<!-- Block1&#45;&gt;Jump3 -->
<g id="edge2" class="edge">
<title>Block1&#45;&gt;Jump3</title>
<path fill="none" stroke="black" d="M64.8,-419.49C64.8,-411.46 64.8,-401.72 64.8,-392.74"/>
<polygon fill="black" stroke="black" points="68.3,-392.7 64.8,-382.7 61.3,-392.7 68.3,-392.7"/>
</g>
<!-- Block2 -->
<g id="node4" class="node">
<title>Block2</title>
<polygon fill="none" stroke="black" points="55.41,-296.01 0.2,-296.01 0.2,-260.01 55.41,-260.01 55.41,-296.01"/>
<text text-anchor="middle" x="27.8" y="-276.54" font-family="Monaco" font-size="11.00">Block2</text>
</g>
<!-- Jump3&#45;&gt;Block2 -->
<g id="edge3" class="edge">
<title>Jump3&#45;&gt;Block2</title>
<path fill="none" stroke="black" d="M57.32,-346.54C52.15,-334.72 45.18,-318.78 39.32,-305.35"/>
<polygon fill="black" stroke="black" points="42.49,-303.88 35.28,-296.11 36.08,-306.68 42.49,-303.88"/>
<text text-anchor="middle" x="55.4" y="-319.87" font-family="Monaco" font-size="11.00">~8</text>
</g>
<!-- Block3 -->
<g id="node5" class="node">
<title>Block3</title>
<polygon fill="none" stroke="black" points="129.41,-296.01 74.2,-296.01 74.2,-260.01 129.41,-260.01 129.41,-296.01"/>
<text text-anchor="middle" x="101.8" y="-276.54" font-family="Monaco" font-size="11.00">Block3</text>
</g>
<!-- Jump3&#45;&gt;Block3 -->
<g id="edge4" class="edge">
<title>Jump3&#45;&gt;Block3</title>
<path fill="none" stroke="black" d="M72.29,-346.54C77.46,-334.72 84.42,-318.78 90.29,-305.35"/>
<polygon fill="black" stroke="black" points="93.53,-306.68 94.33,-296.11 87.12,-303.88 93.53,-306.68"/>
<text text-anchor="middle" x="95.7" y="-319.87" font-family="Monaco" font-size="11.00">!~8</text>
</g>
<!-- Jump4 -->
<g id="node6" class="node">
<title>Jump4</title>
<path fill="none" stroke="black" d="M43.66,-173.34C43.66,-173.34 85.94,-173.34 85.94,-173.34 91.94,-173.34 101.23,-178.35 104.52,-183.37 104.52,-183.37 114.97,-199.3 114.97,-199.3 118.26,-204.32 115.55,-209.34 109.55,-209.34 109.55,-209.34 20.06,-209.34 20.06,-209.34 14.06,-209.34 11.35,-204.32 14.64,-199.3 14.64,-199.3 25.08,-183.37 25.08,-183.37 28.37,-178.35 37.66,-173.34 43.66,-173.34"/>
<text text-anchor="middle" x="64.8" y="-189.87" font-family="Monaco" font-size="11.00">Merge.4</text>
</g>
<!-- Block2&#45;&gt;Jump4 -->
<g id="edge5" class="edge">
<title>Block2&#45;&gt;Jump4</title>
<path fill="none" stroke="black" d="M35.29,-259.87C40.46,-248.05 47.42,-232.11 53.29,-218.68"/>
<polygon fill="black" stroke="black" points="56.53,-220.01 57.33,-209.45 50.12,-217.21 56.53,-220.01"/>
<text text-anchor="middle" x="55.4" y="-233.21" font-family="Monaco" font-size="11.00">~9</text>
</g>
<!-- Block3&#45;&gt;Jump4 -->
<g id="edge6" class="edge">
<title>Block3&#45;&gt;Jump4</title>
<path fill="none" stroke="black" d="M94.32,-259.87C89.15,-248.05 82.18,-232.11 76.32,-218.68"/>
<polygon fill="black" stroke="black" points="79.49,-217.21 72.28,-209.45 73.08,-220.01 79.49,-217.21"/>
<text text-anchor="middle" x="95.7" y="-233.21" font-family="Monaco" font-size="11.00">~13</text>
</g>
<!-- Block4 -->
<g id="node7" class="node">
<title>Block4</title>
<polygon fill="none" stroke="black" points="92.41,-122.67 37.2,-122.67 37.2,-86.67 92.41,-86.67 92.41,-122.67"/>
<text text-anchor="middle" x="64.8" y="-103.2" font-family="Monaco" font-size="11.00">Block4</text>
</g>
<!-- Jump4&#45;&gt;Block4 -->
<g id="edge7" class="edge">
<title>Jump4&#45;&gt;Block4</title>
<path fill="none" stroke="black" d="M64.8,-173.2C64.8,-161.61 64.8,-146.06 64.8,-132.8"/>
<polygon fill="black" stroke="black" points="68.3,-132.78 64.8,-122.78 61.3,-132.78 68.3,-132.78"/>
<text text-anchor="middle" x="74.7" y="-146.54" font-family="Monaco" font-size="11.00">~14</text>
</g>
<!-- Jump5 -->
<g id="node8" class="node">
<title>Jump5</title>
<polygon fill="none" stroke="black" points="99.11,-30 48.49,-30 48.49,-36 30.49,-18 48.49,0 48.49,-6 81.11,-6 81.11,0 99.11,0 99.11,-30"/>
<text text-anchor="middle" x="64.8" y="-16.53" font-family="Monaco" font-size="11.00">Return.5</text>
</g>
<!-- Block4&#45;&gt;Jump5 -->
<g id="edge8" class="edge">
<title>Block4&#45;&gt;Jump5</title>
<path fill="none" stroke="black" d="M64.8,-86.53C64.8,-74.94 64.8,-59.39 64.8,-46.13"/>
<polygon fill="black" stroke="black" points="68.3,-46.11 64.8,-36.11 61.3,-46.11 68.3,-46.11"/>
<text text-anchor="middle" x="74.7" y="-59.87" font-family="Monaco" font-size="11.00">~14</text>
</g>
<!-- ndBlock1_0 -->
<g id="node9" class="node">
<title>ndBlock1_0</title>
<ellipse fill="none" stroke="black" cx="256.8" cy="-437.67" rx="35.58" ry="18"/>
<text text-anchor="middle" x="256.8" y="-436.21" font-family="Monaco" font-size="11.00">~8: ==</text>
</g>
<!-- ndBlock1_1 -->
<g id="node10" class="node">
<title>ndBlock1_1</title>
<ellipse fill="none" stroke="black" cx="256.8" cy="-364.67" rx="27" ry="18"/>
<text text-anchor="middle" x="256.8" y="-363.21" font-family="Monaco" font-size="11.00">out</text>
</g>
<!-- ndBlock1_0&#45;&gt;ndBlock1_1 -->
<g id="edge9" class="edge">
<title>ndBlock1_0&#45;&gt;ndBlock1_1</title>
<path fill="none" stroke="black" d="M256.8,-419.49C256.8,-411.46 256.8,-401.72 256.8,-392.74"/>
<polygon fill="black" stroke="black" points="260.3,-392.7 256.8,-382.7 253.3,-392.7 260.3,-392.7"/>
</g>
<!-- ndBlock1_2 -->
<g id="node11" class="node">
<title>ndBlock1_2</title>
<ellipse fill="none" stroke="black" cx="337.8" cy="-437.67" rx="27" ry="18"/>
<text text-anchor="middle" x="337.8" y="-436.21" font-family="Monaco" font-size="11.00">out</text>
</g>
<!-- ndBlock1_3 -->
<g id="node12" class="node">
<title>ndBlock1_3</title>
<ellipse fill="none" stroke="black" cx="418.8" cy="-510.67" rx="31.58" ry="18"/>
<text text-anchor="middle" x="418.8" y="-509.21" font-family="Monaco" font-size="11.00">a: in</text>
</g>
<!-- ndBlock1_7 -->
<g id="node16" class="node">
<title>ndBlock1_7</title>
<ellipse fill="none" stroke="black" cx="418.8" cy="-437.67" rx="27" ry="18"/>
<text text-anchor="middle" x="418.8" y="-436.21" font-family="Monaco" font-size="11.00">out</text>
</g>
<!-- ndBlock1_3&#45;&gt;ndBlock1_7 -->
<g id="edge10" class="edge">
<title>ndBlock1_3&#45;&gt;ndBlock1_7</title>
<path fill="none" stroke="black" d="M418.8,-492.49C418.8,-484.46 418.8,-474.72 418.8,-465.74"/>
<polygon fill="black" stroke="black" points="422.3,-465.7 418.8,-455.7 415.3,-465.7 422.3,-465.7"/>
</g>
<!-- ndBlock1_4 -->
<g id="node13" class="node">
<title>ndBlock1_4</title>
<ellipse fill="none" stroke="black" cx="337.8" cy="-510.67" rx="31.58" ry="18"/>
<text text-anchor="middle" x="337.8" y="-509.21" font-family="Monaco" font-size="11.00">b: in</text>
</g>
<!-- ndBlock1_4&#45;&gt;ndBlock1_2 -->
<g id="edge11" class="edge">
<title>ndBlock1_4&#45;&gt;ndBlock1_2</title>
<path fill="none" stroke="black" d="M337.8,-492.49C337.8,-484.46 337.8,-474.72 337.8,-465.74"/>
<polygon fill="black" stroke="black" points="341.3,-465.7 337.8,-455.7 334.3,-465.7 341.3,-465.7"/>
</g>
<!-- ndBlock1_5 -->
<g id="node14" class="node">
<title>ndBlock1_5</title>
<ellipse fill="none" stroke="black" cx="256.8" cy="-510.67" rx="31.58" ry="18"/>
<text text-anchor="middle" x="256.8" y="-509.21" font-family="Monaco" font-size="11.00">~7: 0</text>
</g>
<!-- ndBlock1_5&#45;&gt;ndBlock1_0 -->
<g id="edge12" class="edge">
<title>ndBlock1_5&#45;&gt;ndBlock1_0</title>
<path fill="none" stroke="black" d="M256.8,-492.49C256.8,-484.46 256.8,-474.72 256.8,-465.74"/>
<polygon fill="black" stroke="black" points="260.3,-465.7 256.8,-455.7 253.3,-465.7 260.3,-465.7"/>
</g>
<!-- ndBlock1_6 -->
<g id="node15" class="node">
<title>ndBlock1_6</title>
<ellipse fill="none" stroke="black" cx="175.8" cy="-437.67" rx="27" ry="18"/>
<text text-anchor="middle" x="175.8" y="-436.21" font-family="Monaco" font-size="11.00">out</text>
</g>
<!-- ndBlock1_8 -->
<g id="node17" class="node">
<title>ndBlock1_8</title>
<ellipse fill="none" stroke="black" cx="175.8" cy="-510.67" rx="31.58" ry="18"/>
<text text-anchor="middle" x="175.8" y="-509.21" font-family="Monaco" font-size="11.00">n: in</text>
</g>
<!-- ndBlock1_8&#45;&gt;ndBlock1_0 -->
<g id="edge13" class="edge">
<title>ndBlock1_8&#45;&gt;ndBlock1_0</title>
<path fill="none" stroke="black" d="M192.59,-494.96C204.02,-484.94 219.35,-471.5 232.17,-460.27"/>
<polygon fill="black" stroke="black" points="234.55,-462.83 239.76,-453.61 229.94,-457.57 234.55,-462.83"/>
</g>
<!-- ndBlock1_8&#45;&gt;ndBlock1_6 -->
<g id="edge14" class="edge">
<title>ndBlock1_8&#45;&gt;ndBlock1_6</title>
<path fill="none" stroke="black" d="M175.8,-492.49C175.8,-484.46 175.8,-474.72 175.8,-465.74"/>
<polygon fill="black" stroke="black" points="179.3,-465.7 175.8,-455.7 172.3,-465.7 179.3,-465.7"/>
</g>
<!-- ndBlock2_0 -->
<g id="node18" class="node">
<title>ndBlock2_0</title>
<ellipse fill="none" stroke="black" cx="506.8" cy="-510.67" rx="31.58" ry="18"/>
<text text-anchor="middle" x="506.8" y="-509.21" font-family="Monaco" font-size="11.00">~9: 1</text>
</g>
<!-- ndBlock2_1 -->
<g id="node19" class="node">
<title>ndBlock2_1</title>
<ellipse fill="none" stroke="black" cx="506.8" cy="-437.67" rx="27" ry="18"/>
<text text-anchor="middle" x="506.8" y="-436.21" font-family="Monaco" font-size="11.00">out</text>
</g>
<!-- ndBlock2_0&#45;&gt;ndBlock2_1 -->
<g id="edge15" class="edge">
<title>ndBlock2_0&#45;&gt;ndBlock2_1</title>
<path fill="none" stroke="black" d="M506.8,-492.49C506.8,-484.46 506.8,-474.72 506.8,-465.74"/>
<polygon fill="black" stroke="black" points="510.3,-465.7 506.8,-455.7 503.3,-465.7 510.3,-465.7"/>
</g>
<!-- ndBlock3_0 -->
<g id="node20" class="node">
<title>ndBlock3_0</title>
<ellipse fill="none" stroke="black" cx="679.8" cy="-437.67" rx="35.58" ry="18"/>
<text text-anchor="middle" x="679.8" y="-436.21" font-family="Monaco" font-size="11.00">~12: &#45;</text>
</g>
<!-- ndBlock3_7 -->
<g id="node27" class="node">
<title>ndBlock3_7</title>
<ellipse fill="none" stroke="black" cx="777.8" cy="-364.67" rx="91.04" ry="18"/>
<text text-anchor="middle" x="777.8" y="-363.21" font-family="Monaco" font-size="11.00">~13: fib(~12,~10,a)</text>
</g>
<!-- ndBlock3_0&#45;&gt;ndBlock3_7 -->
<g id="edge16" class="edge">
<title>ndBlock3_0&#45;&gt;ndBlock3_7</title>
<path fill="none" stroke="black" d="M699.63,-422.31C713.13,-412.53 731.27,-399.39 746.68,-388.22"/>
<polygon fill="black" stroke="black" points="748.86,-390.96 754.91,-382.26 744.76,-385.29 748.86,-390.96"/>
</g>
<!-- ndBlock3_1 -->
<g id="node21" class="node">
<title>ndBlock3_1</title>
<ellipse fill="none" stroke="black" cx="845.8" cy="-510.67" rx="31.58" ry="18"/>
<text text-anchor="middle" x="845.8" y="-509.21" font-family="Monaco" font-size="11.00">a: in</text>
</g>
<!-- ndBlock3_6 -->
<g id="node26" class="node">
<title>ndBlock3_6</title>
<ellipse fill="none" stroke="black" cx="777.8" cy="-437.67" rx="35.58" ry="18"/>
<text text-anchor="middle" x="777.8" y="-436.21" font-family="Monaco" font-size="11.00">~10: +</text>
</g>
<!-- ndBlock3_1&#45;&gt;ndBlock3_6 -->
<g id="edge17" class="edge">
<title>ndBlock3_1&#45;&gt;ndBlock3_6</title>
<path fill="none" stroke="black" d="M831.38,-494.62C822.22,-485.05 810.18,-472.48 799.84,-461.68"/>
<polygon fill="black" stroke="black" points="802.12,-459 792.67,-454.2 797.06,-463.84 802.12,-459"/>
</g>
<!-- ndBlock3_1&#45;&gt;ndBlock3_7 -->
<g id="edge18" class="edge">
<title>ndBlock3_1&#45;&gt;ndBlock3_7</title>
<path fill="none" stroke="black" d="M844.57,-492.38C842.49,-471.98 837.03,-437.56 822.8,-411.67 818.47,-403.79 812.42,-396.32 806.15,-389.78"/>
<polygon fill="black" stroke="black" points="808.37,-387.06 798.78,-382.55 803.47,-392.05 808.37,-387.06"/>
</g>
<!-- ndBlock3_2 -->
<g id="node22" class="node">
<title>ndBlock3_2</title>
<ellipse fill="none" stroke="black" cx="764.8" cy="-510.67" rx="31.58" ry="18"/>
<text text-anchor="middle" x="764.8" y="-509.21" font-family="Monaco" font-size="11.00">b: in</text>
</g>
<!-- ndBlock3_2&#45;&gt;ndBlock3_6 -->
<g id="edge19" class="edge">
<title>ndBlock3_2&#45;&gt;ndBlock3_6</title>
<path fill="none" stroke="black" d="M767.95,-492.49C769.42,-484.46 771.2,-474.72 772.85,-465.74"/>
<polygon fill="black" stroke="black" points="776.33,-466.17 774.69,-455.7 769.44,-464.91 776.33,-466.17"/>
</g>
<!-- ndBlock3_3 -->
<g id="node23" class="node">
<title>ndBlock3_3</title>
<ellipse fill="none" stroke="black" cx="777.8" cy="-278.01" rx="27" ry="18"/>
<text text-anchor="middle" x="777.8" y="-276.54" font-family="Monaco" font-size="11.00">out</text>
</g>
<!-- ndBlock3_4 -->
<g id="node24" class="node">
<title>ndBlock3_4</title>
<ellipse fill="none" stroke="black" cx="679.8" cy="-510.67" rx="35.58" ry="18"/>
<text text-anchor="middle" x="679.8" y="-509.21" font-family="Monaco" font-size="11.00">~11: 1</text>
</g>
<!-- ndBlock3_4&#45;&gt;ndBlock3_0 -->
<g id="edge20" class="edge">
<title>ndBlock3_4&#45;&gt;ndBlock3_0</title>
<path fill="none" stroke="black" d="M679.8,-492.49C679.8,-484.46 679.8,-474.72 679.8,-465.74"/>
<polygon fill="black" stroke="black" points="683.3,-465.7 679.8,-455.7 676.3,-465.7 683.3,-465.7"/>
</g>
<!-- ndBlock3_5 -->
<g id="node25" class="node">
<title>ndBlock3_5</title>
<ellipse fill="none" stroke="black" cx="594.8" cy="-510.67" rx="31.58" ry="18"/>
<text text-anchor="middle" x="594.8" y="-509.21" font-family="Monaco" font-size="11.00">n: in</text>
</g>
<!-- ndBlock3_5&#45;&gt;ndBlock3_0 -->
<g id="edge21" class="edge">
<title>ndBlock3_5&#45;&gt;ndBlock3_0</title>
<path fill="none" stroke="black" d="M612,-495.31C624.17,-485.14 640.68,-471.35 654.37,-459.92"/>
<polygon fill="black" stroke="black" points="656.61,-462.61 662.04,-453.51 652.12,-457.23 656.61,-462.61"/>
</g>
<!-- ndBlock3_6&#45;&gt;ndBlock3_7 -->
<g id="edge22" class="edge">
<title>ndBlock3_6&#45;&gt;ndBlock3_7</title>
<path fill="none" stroke="black" d="M777.8,-419.49C777.8,-411.46 777.8,-401.72 777.8,-392.74"/>
<polygon fill="black" stroke="black" points="781.3,-392.7 777.8,-382.7 774.3,-392.7 781.3,-392.7"/>
</g>
<!-- ndBlock3_7&#45;&gt;ndBlock3_3 -->
<g id="edge23" class="edge">
<title>ndBlock3_7&#45;&gt;ndBlock3_3</title>
<path fill="none" stroke="black" d="M777.8,-346.54C777.8,-334.95 777.8,-319.4 777.8,-306.14"/>
<polygon fill="black" stroke="black" points="781.3,-306.11 777.8,-296.11 774.3,-306.11 781.3,-306.11"/>
</g>
<!-- ndBlock4_0 -->
<g id="node28" class="node">
<title>ndBlock4_0</title>
<ellipse fill="none" stroke="black" cx="941.8" cy="-510.67" rx="40.08" ry="18"/>
<text text-anchor="middle" x="941.8" y="-509.21" font-family="Monaco" font-size="11.00">~14: in</text>
</g>
<!-- ndBlock4_1 -->
<g id="node29" class="node">
<title>ndBlock4_1</title>
<ellipse fill="none" stroke="black" cx="941.8" cy="-437.67" rx="27" ry="18"/>
<text text-anchor="middle" x="941.8" y="-436.21" font-family="Monaco" font-size="11.00">out</text>
</g>
<!-- ndBlock4_0&#45;&gt;ndBlock4_1 -->
<g id="edge24" class="edge">
<title>ndBlock4_0&#45;&gt;ndBlock4_1</title>
<path fill="none" stroke="black" d="M941.8,-492.49C941.8,-484.46 941.8,-474.72 941.8,-465.74"/>
<polygon fill="black" stroke="black" points="945.3,-465.7 941.8,-455.7 938.3,-465.7 945.3,-465.7"/>
</g>
</g>
</svg>
