<?xml version="1.0" encoding="UTF-8" standalone="no"?>
<!DOCTYPE svg PUBLIC "-//W3C//DTD SVG 1.1//EN"
 "http://www.w3.org/Graphics/SVG/1.1/DTD/svg11.dtd">
<!-- Generated by graphviz version 2.43.0 (0)
 -->
<!-- Title: Program_ Pages: 1 -->
<svg width="772pt" height="417pt"
 viewBox="0.00 0.00 771.81 417.26" xmlns="http://www.w3.org/2000/svg" xmlns:xlink="http://www.w3.org/1999/xlink">
<g id="graph0" class="graph" transform="scale(1 1) rotate(0) translate(4 413.26)">
<title>Program_</title>
<polygon fill="white" stroke="transparent" points="-4,4 -4,-413.26 767.81,-413.26 767.81,4 -4,4"/>
<g id="clust1" class="cluster">
<title>cluster_dfg_Block0</title>
<polygon fill="none" stroke="black" points="176.81,-171.26 176.81,-401.26 475.81,-401.26 475.81,-171.26 176.81,-171.26"/>
<text text-anchor="start" x="304.7" y="-388.66" font-family="Monaco" font-size="12.00">Block0</text>
<text text-anchor="start" x="184.68" y="-376.66" font-family="Monaco" font-size="12.00">(n</text>
<text text-anchor="start" x="199.09" y="-376.66" font-family="Monaco" baseline-shift="super" font-size="8.00" fill="#00aa11">U6</text>
<text text-anchor="start" x="208.69" y="-376.66" font-family="Monaco" baseline-shift="super" font-size="8.00" fill="#3311ff">r0</text>
<text text-anchor="start" x="218.29" y="-376.66" font-family="Monaco" font-size="12.00">,a</text>
<text text-anchor="start" x="232.69" y="-376.66" font-family="Monaco" baseline-shift="super" font-size="8.00" fill="#00aa11">U32</text>
<text text-anchor="start" x="247.09" y="-376.66" font-family="Monaco" baseline-shift="super" font-size="8.00" fill="#3311ff">r1</text>
<text text-anchor="start" x="256.69" y="-376.66" font-family="Monaco" font-size="12.00">,b</text>
<text text-anchor="start" x="271.1" y="-376.66" font-family="Monaco" baseline-shift="super" font-size="8.00" fill="#00aa11">U32</text>
<text text-anchor="start" x="285.5" y="-376.66" font-family="Monaco" baseline-shift="super" font-size="8.00" fill="#3311ff">r2</text>
<text text-anchor="start" x="295.1" y="-376.66" font-family="Monaco" font-size="12.00">=&gt;a</text>
<text text-anchor="start" x="316.7" y="-376.66" font-family="Monaco" baseline-shift="super" font-size="8.00" fill="#00aa11">U32</text>
<text text-anchor="start" x="331.11" y="-376.66" font-family="Monaco" baseline-shift="super" font-size="8.00" fill="#3311ff">r1</text>
<text text-anchor="start" x="340.71" y="-376.66" font-family="Monaco" font-size="12.00">,n0</text>
<text text-anchor="start" x="362.31" y="-376.66" font-family="Monaco" baseline-shift="super" font-size="8.00" fill="#00aa11">U6</text>
<text text-anchor="start" x="371.91" y="-376.66" font-family="Monaco" baseline-shift="super" font-size="8.00" fill="#3311ff">r0</text>
<text text-anchor="start" x="381.52" y="-376.66" font-family="Monaco" font-size="12.00">,b</text>
<text text-anchor="start" x="395.92" y="-376.66" font-family="Monaco" baseline-shift="super" font-size="8.00" fill="#00aa11">U32</text>
<text text-anchor="start" x="410.32" y="-376.66" font-family="Monaco" baseline-shift="super" font-size="8.00" fill="#3311ff">r2</text>
<text text-anchor="start" x="419.92" y="-376.66" font-family="Monaco" font-size="12.00">,@c</text>
<text text-anchor="start" x="441.52" y="-376.66" font-family="Monaco" baseline-shift="super" font-size="8.00" fill="#00aa11">U1</text>
<text text-anchor="start" x="451.13" y="-376.66" font-family="Monaco" baseline-shift="super" font-size="8.00" fill="#3311ff">r3</text>
<text text-anchor="start" x="460.73" y="-376.66" font-family="Monaco" font-size="12.00">)</text>
</g>
<g id="clust2" class="cluster">
<title>cluster_dfg_Block2</title>
<polygon fill="none" stroke="black" points="483.81,-244.26 483.81,-401.26 755.81,-401.26 755.81,-244.26 483.81,-244.26"/>
<text text-anchor="start" x="598.2" y="-388.66" font-family="Monaco" font-size="12.00">Block2</text>
<text text-anchor="start" x="491.39" y="-376.66" font-family="Monaco" font-size="12.00">(a</text>
<text text-anchor="start" x="505.79" y="-376.66" font-family="Monaco" baseline-shift="super" font-size="8.00" fill="#00aa11">U32</text>
<text text-anchor="start" x="520.19" y="-376.66" font-family="Monaco" baseline-shift="super" font-size="8.00" fill="#3311ff">r1</text>
<text text-anchor="start" x="529.79" y="-376.66" font-family="Monaco" font-size="12.00">,n0</text>
<text text-anchor="start" x="551.4" y="-376.66" font-family="Monaco" baseline-shift="super" font-size="8.00" fill="#00aa11">U6</text>
<text text-anchor="start" x="561" y="-376.66" font-family="Monaco" baseline-shift="super" font-size="8.00" fill="#3311ff">r0</text>
<text text-anchor="start" x="570.6" y="-376.66" font-family="Monaco" font-size="12.00">,b</text>
<text text-anchor="start" x="585" y="-376.66" font-family="Monaco" baseline-shift="super" font-size="8.00" fill="#00aa11">U32</text>
<text text-anchor="start" x="599.4" y="-376.66" font-family="Monaco" baseline-shift="super" font-size="8.00" fill="#3311ff">r2</text>
<text text-anchor="start" x="609" y="-376.66" font-family="Monaco" font-size="12.00">=&gt;@f</text>
<text text-anchor="start" x="637.81" y="-376.66" font-family="Monaco" baseline-shift="super" font-size="8.00" fill="#00aa11">U6</text>
<text text-anchor="start" x="647.41" y="-376.66" font-family="Monaco" baseline-shift="super" font-size="8.00" fill="#3311ff">r0</text>
<text text-anchor="start" x="657.01" y="-376.66" font-family="Monaco" font-size="12.00">,@d</text>
<text text-anchor="start" x="678.62" y="-376.66" font-family="Monaco" baseline-shift="super" font-size="8.00" fill="#00aa11">U32</text>
<text text-anchor="start" x="693.02" y="-376.66" font-family="Monaco" baseline-shift="super" font-size="8.00" fill="#3311ff">r3</text>
<text text-anchor="start" x="702.62" y="-376.66" font-family="Monaco" font-size="12.00">,a</text>
<text text-anchor="start" x="717.02" y="-376.66" font-family="Monaco" baseline-shift="super" font-size="8.00" fill="#00aa11">U32</text>
<text text-anchor="start" x="731.42" y="-376.66" font-family="Monaco" baseline-shift="super" font-size="8.00" fill="#3311ff">r1</text>
<text text-anchor="start" x="741.03" y="-376.66" font-family="Monaco" font-size="12.00">)</text>
</g>
<!-- Jump0 -->
<g id="node1" class="node">
<title>Jump0</title>
<polygon fill="none" stroke="black" points="154.02,-361.26 37.59,-361.26 37.59,-357.26 33.59,-357.26 33.59,-353.26 37.59,-353.26 37.59,-333.26 33.59,-333.26 33.59,-329.26 37.59,-329.26 37.59,-325.26 154.02,-325.26 154.02,-361.26"/>
<polyline fill="none" stroke="black" points="37.59,-357.26 41.59,-357.26 41.59,-353.26 37.59,-353.26 "/>
<polyline fill="none" stroke="black" points="37.59,-333.26 41.59,-333.26 41.59,-329.26 37.59,-329.26 "/>
<text text-anchor="start" x="58" y="-346.46" font-family="Monaco" font-size="11.00">StartFun.0</text>
<text text-anchor="start" x="124.01" y="-346.46" font-family="Monaco" baseline-shift="super" font-size="8.00" fill="#ff4411">q0</text>
<text text-anchor="start" x="45.7" y="-335.46" font-family="Monaco" font-size="11.00">n</text>
<text text-anchor="start" x="52.3" y="-335.46" font-family="Monaco" baseline-shift="super" font-size="8.00" fill="#00aa11">U6</text>
<text text-anchor="start" x="61.9" y="-335.46" font-family="Monaco" baseline-shift="super" font-size="8.00" fill="#3311ff">r0</text>
<text text-anchor="start" x="71.5" y="-335.46" font-family="Monaco" font-size="11.00">,a</text>
<text text-anchor="start" x="84.7" y="-335.46" font-family="Monaco" baseline-shift="super" font-size="8.00" fill="#00aa11">U32</text>
<text text-anchor="start" x="99.11" y="-335.46" font-family="Monaco" baseline-shift="super" font-size="8.00" fill="#3311ff">r1</text>
<text text-anchor="start" x="108.71" y="-335.46" font-family="Monaco" font-size="11.00">,b</text>
<text text-anchor="start" x="121.91" y="-335.46" font-family="Monaco" baseline-shift="super" font-size="8.00" fill="#00aa11">U32</text>
<text text-anchor="start" x="136.31" y="-335.46" font-family="Monaco" baseline-shift="super" font-size="8.00" fill="#3311ff">r2</text>
</g>
<!-- Block0 -->
<g id="node2" class="node">
<title>Block0</title>
<polygon fill="none" stroke="black" points="123.41,-288.26 68.2,-288.26 68.2,-252.26 123.41,-252.26 123.41,-288.26"/>
<text text-anchor="middle" x="95.81" y="-268.79" font-family="Monaco" font-size="11.00">Block0</text>
</g>
<!-- Jump0&#45;&gt;Block0 -->
<g id="edge1" class="edge">
<title>Jump0&#45;&gt;Block0</title>
<path fill="none" stroke="black" d="M95.81,-325.07C95.81,-317.04 95.81,-307.3 95.81,-298.32"/>
<polygon fill="black" stroke="black" points="99.31,-298.28 95.81,-288.28 92.31,-298.28 99.31,-298.28"/>
</g>
<!-- Jump1 -->
<g id="node3" class="node">
<title>Jump1</title>
<path fill="none" stroke="black" d="M125.41,-215.26C125.41,-215.26 66.2,-215.26 66.2,-215.26 60.2,-215.26 50.39,-210.62 46.57,-205.99 46.57,-205.99 32.19,-188.52 32.19,-188.52 28.38,-183.89 30.57,-179.26 36.57,-179.26 36.57,-179.26 155.05,-179.26 155.05,-179.26 161.05,-179.26 163.23,-183.89 159.42,-188.52 159.42,-188.52 145.04,-205.99 145.04,-205.99 141.23,-210.62 131.41,-215.26 125.41,-215.26"/>
<text text-anchor="start" x="64.6" y="-196.79" font-family="Monaco" font-size="11.00">Branch.1</text>
<text text-anchor="start" x="117.41" y="-196.79" font-family="Monaco" baseline-shift="super" font-size="8.00" fill="#ff4411">q3</text>
</g>
<!-- Block0&#45;&gt;Jump1 -->
<g id="edge2" class="edge">
<title>Block0&#45;&gt;Jump1</title>
<path fill="none" stroke="black" d="M95.81,-252.07C95.81,-244.04 95.81,-234.3 95.81,-225.32"/>
<polygon fill="black" stroke="black" points="99.31,-225.28 95.81,-215.28 92.31,-225.28 99.31,-225.28"/>
</g>
<!-- Block1 -->
<g id="node4" class="node">
<title>Block1</title>
<polygon fill="none" stroke="black" points="86.41,-128.55 31.2,-128.55 31.2,-86.71 86.41,-86.71 86.41,-128.55"/>
<text text-anchor="start" x="39" y="-115.79" font-family="Monaco" font-size="11.00">Block1</text>
<text text-anchor="middle" x="58.81" y="-101.12" font-family="Monaco" font-size="11.00">(0行)</text>
</g>
<!-- Jump1&#45;&gt;Block1 -->
<g id="edge3" class="edge">
<title>Jump1&#45;&gt;Block1</title>
<path fill="none" stroke="black" d="M88.5,-178.94C83.58,-167.3 76.98,-151.67 71.25,-138.1"/>
<polygon fill="black" stroke="black" points="74.38,-136.52 67.27,-128.66 67.93,-139.24 74.38,-136.52"/>
<text text-anchor="middle" x="87.41" y="-152.46" font-family="Monaco" font-size="11.00">@c</text>
</g>
<!-- Block2 -->
<g id="node5" class="node">
<title>Block2</title>
<polygon fill="none" stroke="black" points="184.41,-125.63 129.2,-125.63 129.2,-89.63 184.41,-89.63 184.41,-125.63"/>
<text text-anchor="middle" x="156.81" y="-106.16" font-family="Monaco" font-size="11.00">Block2</text>
</g>
<!-- Jump1&#45;&gt;Block2 -->
<g id="edge4" class="edge">
<title>Jump1&#45;&gt;Block2</title>
<path fill="none" stroke="black" d="M107.86,-178.94C116.71,-166.22 128.89,-148.72 138.89,-134.37"/>
<polygon fill="black" stroke="black" points="141.94,-136.11 144.78,-125.9 136.19,-132.11 141.94,-136.11"/>
<text text-anchor="middle" x="140.71" y="-152.46" font-family="Monaco" font-size="11.00">!@c</text>
</g>
<!-- Jump2_4 -->
<g id="node6" class="node">
<title>Jump2_4</title>
<polygon fill="none" stroke="black" points="91.42,-30 18.19,-30 18.19,-36 0.19,-18 18.19,0 18.19,-6 73.42,-6 73.42,0 91.42,0 91.42,-30"/>
<text text-anchor="start" x="8" y="-17.53" font-family="Monaco" font-size="11.00">Return.2_4</text>
<text text-anchor="start" x="74.01" y="-17.53" font-family="Monaco" baseline-shift="super" font-size="8.00" fill="#ff4411">q4</text>
</g>
<!-- Block1&#45;&gt;Jump2_4 -->
<g id="edge5" class="edge">
<title>Block1&#45;&gt;Jump2_4</title>
<path fill="none" stroke="black" d="M55.79,-86.3C54.03,-74.45 51.79,-59.35 49.88,-46.45"/>
<polygon fill="black" stroke="black" points="53.3,-45.64 48.37,-36.26 46.37,-46.67 53.3,-45.64"/>
<text text-anchor="middle" x="57.11" y="-59.87" font-family="Monaco" font-size="11.00">a</text>
</g>
<!-- Jump2_5_6 -->
<g id="node7" class="node">
<title>Jump2_5_6</title>
<polygon fill="none" stroke="black" points="227.82,-36 109.79,-36 109.79,-32 105.79,-32 105.79,-28 109.79,-28 109.79,-8 105.79,-8 105.79,-4 109.79,-4 109.79,0 227.82,0 227.82,-36"/>
<polyline fill="none" stroke="black" points="109.79,-32 113.79,-32 113.79,-28 109.79,-28 "/>
<polyline fill="none" stroke="black" points="109.79,-8 113.79,-8 113.79,-4 109.79,-4 "/>
<text text-anchor="start" x="117.8" y="-21.2" font-family="Monaco" font-size="11.00">TailCall.2_5_6</text>
<text text-anchor="start" x="210.21" y="-21.2" font-family="Monaco" baseline-shift="super" font-size="8.00" fill="#ff4411">q7</text>
<text text-anchor="start" x="129.2" y="-10.2" font-family="Monaco" font-size="11.00">fib(@f,@d,a)</text>
</g>
<!-- Block2&#45;&gt;Jump2_5_6 -->
<g id="edge6" class="edge">
<title>Block2&#45;&gt;Jump2_5_6</title>
<path fill="none" stroke="black" d="M159.18,-89.32C160.85,-77.07 163.14,-60.41 165.06,-46.38"/>
<polygon fill="black" stroke="black" points="168.55,-46.66 166.44,-36.28 161.62,-45.71 168.55,-46.66"/>
</g>
<!-- 0 -->
<g id="node8" class="node">
<title>0</title>
<ellipse fill="none" stroke="black" cx="378.81" cy="-343.26" rx="45.66" ry="18"/>
<text text-anchor="start" x="351.2" y="-342.79" font-family="Monaco" font-size="11.00">@a</text>
<text text-anchor="start" x="364.4" y="-342.79" font-family="Monaco" baseline-shift="super" font-size="8.00" fill="#00aa11">U1</text>
<text text-anchor="start" x="374.01" y="-342.79" font-family="Monaco" baseline-shift="super" font-size="8.00" fill="#3311ff">r4</text>
<text text-anchor="start" x="383.61" y="-342.79" font-family="Monaco" font-size="11.00">:0</text>
<text text-anchor="start" x="396.81" y="-342.79" font-family="Monaco" baseline-shift="super" font-size="8.00" fill="#ff4411">q1</text>
</g>
<!-- 1 -->
<g id="node9" class="node">
<title>1</title>
<ellipse fill="none" stroke="black" cx="378.81" cy="-270.26" rx="70.87" ry="18"/>
<text text-anchor="start" x="331.7" y="-269.79" font-family="Monaco" font-size="11.00">n0</text>
<text text-anchor="start" x="344.9" y="-269.79" font-family="Monaco" baseline-shift="super" font-size="8.00" fill="#00aa11">U6</text>
<text text-anchor="start" x="354.5" y="-269.79" font-family="Monaco" baseline-shift="super" font-size="8.00" fill="#3311ff">r0</text>
<text text-anchor="start" x="364.1" y="-269.79" font-family="Monaco" font-size="11.00">:n+</text>
<text text-anchor="start" x="383.91" y="-269.79" font-family="Monaco" baseline-shift="super" font-size="8.00" fill="#3311ff">Bin0</text>
<text text-anchor="start" x="403.11" y="-269.79" font-family="Monaco" font-size="11.00">@a</text>
<text text-anchor="start" x="416.31" y="-269.79" font-family="Monaco" baseline-shift="super" font-size="8.00" fill="#ff4411">q2</text>
</g>
<!-- 0&#45;&gt;1 -->
<g id="edge7" class="edge">
<title>0&#45;&gt;1</title>
<path fill="none" stroke="black" d="M378.81,-325.07C378.81,-317.04 378.81,-307.3 378.81,-298.32"/>
<polygon fill="black" stroke="black" points="382.31,-298.28 378.81,-288.28 375.31,-298.28 382.31,-298.28"/>
</g>
<!-- 3 -->
<g id="node11" class="node">
<title>3</title>
<ellipse fill="none" stroke="black" cx="264.81" cy="-197.26" rx="79.37" ry="18"/>
<text text-anchor="start" x="211.1" y="-196.79" font-family="Monaco" font-size="11.00">@c</text>
<text text-anchor="start" x="224.3" y="-196.79" font-family="Monaco" baseline-shift="super" font-size="8.00" fill="#00aa11">U1</text>
<text text-anchor="start" x="233.9" y="-196.79" font-family="Monaco" baseline-shift="super" font-size="8.00" fill="#3311ff">r3</text>
<text text-anchor="start" x="243.5" y="-196.79" font-family="Monaco" font-size="11.00">:n0==</text>
<text text-anchor="start" x="276.51" y="-196.79" font-family="Monaco" baseline-shift="super" font-size="8.00" fill="#3311ff">Bin1</text>
<text text-anchor="start" x="295.71" y="-196.79" font-family="Monaco" font-size="11.00">@b</text>
<text text-anchor="start" x="308.91" y="-196.79" font-family="Monaco" baseline-shift="super" font-size="8.00" fill="#ff4411">q3</text>
</g>
<!-- 1&#45;&gt;3 -->
<g id="edge8" class="edge">
<title>1&#45;&gt;3</title>
<path fill="none" stroke="black" d="M353.22,-253.32C337.35,-243.43 316.74,-230.6 299.42,-219.81"/>
<polygon fill="black" stroke="black" points="301.04,-216.7 290.7,-214.38 297.34,-222.64 301.04,-216.7"/>
</g>
<!-- 2 -->
<g id="node10" class="node">
<title>2</title>
<ellipse fill="none" stroke="black" cx="243.81" cy="-270.26" rx="45.66" ry="18"/>
<text text-anchor="start" x="216.2" y="-269.79" font-family="Monaco" font-size="11.00">@b</text>
<text text-anchor="start" x="229.4" y="-269.79" font-family="Monaco" baseline-shift="super" font-size="8.00" fill="#00aa11">U1</text>
<text text-anchor="start" x="239.01" y="-269.79" font-family="Monaco" baseline-shift="super" font-size="8.00" fill="#3311ff">r3</text>
<text text-anchor="start" x="248.61" y="-269.79" font-family="Monaco" font-size="11.00">:0</text>
<text text-anchor="start" x="261.81" y="-269.79" font-family="Monaco" baseline-shift="super" font-size="8.00" fill="#ff4411">q1</text>
</g>
<!-- 2&#45;&gt;3 -->
<g id="edge9" class="edge">
<title>2&#45;&gt;3</title>
<path fill="none" stroke="black" d="M248.89,-252.07C251.29,-243.96 254.21,-234.09 256.89,-225.03"/>
<polygon fill="black" stroke="black" points="260.29,-225.87 259.77,-215.28 253.58,-223.88 260.29,-225.87"/>
</g>
<!-- 4 -->
<g id="node12" class="node">
<title>4</title>
<ellipse fill="none" stroke="black" cx="677.81" cy="-343.26" rx="69.56" ry="18"/>
<text text-anchor="start" x="631.6" y="-342.79" font-family="Monaco" font-size="11.00">@d</text>
<text text-anchor="start" x="644.8" y="-342.79" font-family="Monaco" baseline-shift="super" font-size="8.00" fill="#00aa11">U32</text>
<text text-anchor="start" x="659.2" y="-342.79" font-family="Monaco" baseline-shift="super" font-size="8.00" fill="#3311ff">r3</text>
<text text-anchor="start" x="668.8" y="-342.79" font-family="Monaco" font-size="11.00">:a+</text>
<text text-anchor="start" x="688.61" y="-342.79" font-family="Monaco" baseline-shift="super" font-size="8.00" fill="#3311ff">Bin0</text>
<text text-anchor="start" x="707.81" y="-342.79" font-family="Monaco" font-size="11.00">b</text>
<text text-anchor="start" x="714.41" y="-342.79" font-family="Monaco" baseline-shift="super" font-size="8.00" fill="#ff4411">q5</text>
</g>
<!-- 5 -->
<g id="node13" class="node">
<title>5</title>
<ellipse fill="none" stroke="black" cx="543.81" cy="-343.26" rx="45.66" ry="18"/>
<text text-anchor="start" x="516.2" y="-342.79" font-family="Monaco" font-size="11.00">@e</text>
<text text-anchor="start" x="529.4" y="-342.79" font-family="Monaco" baseline-shift="super" font-size="8.00" fill="#00aa11">U1</text>
<text text-anchor="start" x="539.01" y="-342.79" font-family="Monaco" baseline-shift="super" font-size="8.00" fill="#3311ff">r2</text>
<text text-anchor="start" x="548.61" y="-342.79" font-family="Monaco" font-size="11.00">:1</text>
<text text-anchor="start" x="561.81" y="-342.79" font-family="Monaco" baseline-shift="super" font-size="8.00" fill="#ff4411">q5</text>
</g>
<!-- 6 -->
<g id="node14" class="node">
<title>6</title>
<ellipse fill="none" stroke="black" cx="566.81" cy="-270.26" rx="75.37" ry="18"/>
<text text-anchor="start" x="516.4" y="-269.79" font-family="Monaco" font-size="11.00">@f</text>
<text text-anchor="start" x="529.6" y="-269.79" font-family="Monaco" baseline-shift="super" font-size="8.00" fill="#00aa11">U6</text>
<text text-anchor="start" x="539.2" y="-269.79" font-family="Monaco" baseline-shift="super" font-size="8.00" fill="#3311ff">r0</text>
<text text-anchor="start" x="548.8" y="-269.79" font-family="Monaco" font-size="11.00">:n0&#45;</text>
<text text-anchor="start" x="575.21" y="-269.79" font-family="Monaco" baseline-shift="super" font-size="8.00" fill="#3311ff">Bin2</text>
<text text-anchor="start" x="594.41" y="-269.79" font-family="Monaco" font-size="11.00">@e</text>
<text text-anchor="start" x="607.61" y="-269.79" font-family="Monaco" baseline-shift="super" font-size="8.00" fill="#ff4411">q6</text>
</g>
<!-- 5&#45;&gt;6 -->
<g id="edge10" class="edge">
<title>5&#45;&gt;6</title>
<path fill="none" stroke="black" d="M549.37,-325.07C552,-316.96 555.2,-307.09 558.13,-298.03"/>
<polygon fill="black" stroke="black" points="561.54,-298.88 561.29,-288.28 554.88,-296.72 561.54,-298.88"/>
</g>
</g>
</svg>
