<?xml version="1.0" encoding="UTF-8" standalone="no"?>
<!DOCTYPE svg PUBLIC "-//W3C//DTD SVG 1.1//EN"
 "http://www.w3.org/Graphics/SVG/1.1/DTD/svg11.dtd">
<!-- Generated by graphviz version 2.43.0 (0)
 -->
<!-- Title: Program_ Pages: 1 -->
<svg width="712pt" height="589pt"
 viewBox="0.00 0.00 712.37 588.51" xmlns="http://www.w3.org/2000/svg" xmlns:xlink="http://www.w3.org/1999/xlink">
<g id="graph0" class="graph" transform="scale(1 1) rotate(0) translate(4 584.51)">
<title>Program_</title>
<polygon fill="white" stroke="transparent" points="-4,4 -4,-584.51 708.37,-584.51 708.37,4 -4,4"/>
<g id="clust1" class="cluster">
<title>cluster_dfg_Block0</title>
<polygon fill="none" stroke="black" points="152.37,-350.51 152.37,-572.51 401.37,-572.51 401.37,-350.51 152.37,-350.51"/>
<text text-anchor="middle" x="276.87" y="-558.91" font-family="Monaco" font-size="12.00">Block0</text>
</g>
<g id="clust2" class="cluster">
<title>cluster_dfg_Block2</title>
<polygon fill="none" stroke="black" points="409.37,-350.51 409.37,-572.51 696.37,-572.51 696.37,-350.51 409.37,-350.51"/>
<text text-anchor="middle" x="552.87" y="-558.91" font-family="Monaco" font-size="12.00">Block2</text>
</g>
<!-- Jump0 -->
<g id="node1" class="node">
<title>Jump0</title>
<polygon fill="none" stroke="black" points="116.98,-540.51 25.76,-540.51 25.76,-536.51 21.76,-536.51 21.76,-532.51 25.76,-532.51 25.76,-512.51 21.76,-512.51 21.76,-508.51 25.76,-508.51 25.76,-504.51 116.98,-504.51 116.98,-540.51"/>
<polyline fill="none" stroke="black" points="25.76,-536.51 29.76,-536.51 29.76,-532.51 25.76,-532.51 "/>
<polyline fill="none" stroke="black" points="25.76,-512.51 29.76,-512.51 29.76,-508.51 25.76,-508.51 "/>
<text text-anchor="start" x="33.56" y="-525.71" font-family="Monaco" font-size="11.00">StartFun.0</text>
<text text-anchor="start" x="99.57" y="-525.71" font-family="Monaco" baseline-shift="super" font-size="8.00" fill="#ff4411">q?</text>
<text text-anchor="start" x="54.87" y="-514.71" font-family="Monaco" font-size="11.00">n,a,b</text>
</g>
<!-- Block0 -->
<g id="node2" class="node">
<title>Block0</title>
<polygon fill="none" stroke="black" points="98.98,-467.51 43.76,-467.51 43.76,-431.51 98.98,-431.51 98.98,-467.51"/>
<text text-anchor="middle" x="71.37" y="-448.04" font-family="Monaco" font-size="11.00">Block0</text>
</g>
<!-- Jump0&#45;&gt;Block0 -->
<g id="edge1" class="edge">
<title>Jump0&#45;&gt;Block0</title>
<path fill="none" stroke="black" d="M71.37,-504.32C71.37,-496.3 71.37,-486.56 71.37,-477.58"/>
<polygon fill="black" stroke="black" points="74.87,-477.54 71.37,-467.54 67.87,-477.54 74.87,-477.54"/>
</g>
<!-- Jump1 -->
<g id="node3" class="node">
<title>Jump1</title>
<path fill="none" stroke="black" d="M100.98,-394.51C100.98,-394.51 41.76,-394.51 41.76,-394.51 35.76,-394.51 25.95,-389.88 22.14,-385.25 22.14,-385.25 7.76,-367.78 7.76,-367.78 3.94,-363.14 6.13,-358.51 12.13,-358.51 12.13,-358.51 130.61,-358.51 130.61,-358.51 136.61,-358.51 138.8,-363.14 134.98,-367.78 134.98,-367.78 120.6,-385.25 120.6,-385.25 116.79,-389.88 106.98,-394.51 100.98,-394.51"/>
<text text-anchor="start" x="40.17" y="-376.04" font-family="Monaco" font-size="11.00">Branch.1</text>
<text text-anchor="start" x="92.97" y="-376.04" font-family="Monaco" baseline-shift="super" font-size="8.00" fill="#ff4411">q?</text>
</g>
<!-- Block0&#45;&gt;Jump1 -->
<g id="edge2" class="edge">
<title>Block0&#45;&gt;Jump1</title>
<path fill="none" stroke="black" d="M71.37,-431.32C71.37,-423.3 71.37,-413.56 71.37,-404.58"/>
<polygon fill="black" stroke="black" points="74.87,-404.54 71.37,-394.54 67.87,-404.54 74.87,-404.54"/>
</g>
<!-- Block1 -->
<g id="node4" class="node">
<title>Block1</title>
<polygon fill="none" stroke="black" points="61.98,-307.8 6.76,-307.8 6.76,-265.96 61.98,-265.96 61.98,-307.8"/>
<text text-anchor="start" x="14.57" y="-295.04" font-family="Monaco" font-size="11.00">Block1</text>
<text text-anchor="middle" x="34.37" y="-280.37" font-family="Monaco" font-size="11.00">(0行)</text>
</g>
<!-- Jump1&#45;&gt;Block1 -->
<g id="edge3" class="edge">
<title>Jump1&#45;&gt;Block1</title>
<path fill="none" stroke="black" d="M64.06,-358.2C59.15,-346.56 52.54,-330.92 46.81,-317.35"/>
<polygon fill="black" stroke="black" points="49.94,-315.77 42.83,-307.92 43.5,-318.49 49.94,-315.77"/>
<text text-anchor="middle" x="62.97" y="-331.71" font-family="Monaco" font-size="11.00">@c</text>
</g>
<!-- Block2 -->
<g id="node5" class="node">
<title>Block2</title>
<polygon fill="none" stroke="black" points="135.98,-304.88 80.76,-304.88 80.76,-268.88 135.98,-268.88 135.98,-304.88"/>
<text text-anchor="middle" x="108.37" y="-285.42" font-family="Monaco" font-size="11.00">Block2</text>
</g>
<!-- Jump1&#45;&gt;Block2 -->
<g id="edge4" class="edge">
<title>Jump1&#45;&gt;Block2</title>
<path fill="none" stroke="black" d="M78.68,-358.2C83.95,-345.72 91.16,-328.64 97.16,-314.44"/>
<polygon fill="black" stroke="black" points="100.41,-315.73 101.08,-305.16 93.96,-313.01 100.41,-315.73"/>
<text text-anchor="middle" x="102.27" y="-331.71" font-family="Monaco" font-size="11.00">!@c</text>
</g>
<!-- Jump2 -->
<g id="node6" class="node">
<title>Jump2</title>
<path fill="none" stroke="black" d="M45.28,-179.26C45.28,-179.26 97.46,-179.26 97.46,-179.26 103.46,-179.26 113.07,-184.05 116.68,-188.84 116.68,-188.84 129.37,-205.67 129.37,-205.67 132.98,-210.46 130.59,-215.26 124.59,-215.26 124.59,-215.26 18.15,-215.26 18.15,-215.26 12.15,-215.26 9.76,-210.46 13.37,-205.67 13.37,-205.67 26.06,-188.84 26.06,-188.84 29.67,-184.05 39.28,-179.26 45.28,-179.26"/>
<text text-anchor="start" x="43.47" y="-196.79" font-family="Monaco" font-size="11.00">Merge.2</text>
<text text-anchor="start" x="89.67" y="-196.79" font-family="Monaco" baseline-shift="super" font-size="8.00" fill="#ff4411">q?</text>
</g>
<!-- Block1&#45;&gt;Jump2 -->
<g id="edge5" class="edge">
<title>Block1&#45;&gt;Jump2</title>
<path fill="none" stroke="black" d="M42.95,-265.56C48.06,-253.47 54.59,-238 60.1,-224.94"/>
<polygon fill="black" stroke="black" points="63.42,-226.09 64.08,-215.52 56.97,-223.37 63.42,-226.09"/>
<text text-anchor="middle" x="59.67" y="-239.12" font-family="Monaco" font-size="11.00">a</text>
</g>
<!-- Block2&#45;&gt;Jump2 -->
<g id="edge6" class="edge">
<title>Block2&#45;&gt;Jump2</title>
<path fill="none" stroke="black" d="M101.06,-268.57C95.79,-256.09 88.58,-239.01 82.58,-224.81"/>
<polygon fill="black" stroke="black" points="85.78,-223.38 78.67,-215.53 79.33,-226.11 85.78,-223.38"/>
<text text-anchor="middle" x="98.97" y="-239.12" font-family="Monaco" font-size="11.00">@g</text>
</g>
<!-- Block3 -->
<g id="node7" class="node">
<title>Block3</title>
<polygon fill="none" stroke="black" points="98.98,-128.55 43.76,-128.55 43.76,-86.71 98.98,-86.71 98.98,-128.55"/>
<text text-anchor="start" x="51.57" y="-115.79" font-family="Monaco" font-size="11.00">Block3</text>
<text text-anchor="middle" x="71.37" y="-101.12" font-family="Monaco" font-size="11.00">(0行)</text>
</g>
<!-- Jump2&#45;&gt;Block3 -->
<g id="edge7" class="edge">
<title>Jump2&#45;&gt;Block3</title>
<path fill="none" stroke="black" d="M71.37,-178.94C71.37,-167.53 71.37,-152.27 71.37,-138.89"/>
<polygon fill="black" stroke="black" points="74.87,-138.66 71.37,-128.66 67.87,-138.66 74.87,-138.66"/>
<text text-anchor="middle" x="77.97" y="-152.46" font-family="Monaco" font-size="11.00">@h</text>
</g>
<!-- Jump3 -->
<g id="node8" class="node">
<title>Jump3</title>
<polygon fill="none" stroke="black" points="110.78,-30 49.96,-30 49.96,-36 31.96,-18 49.96,0 49.96,-6 92.78,-6 92.78,0 110.78,0 110.78,-30"/>
<text text-anchor="start" x="40.17" y="-17.53" font-family="Monaco" font-size="11.00">Return.3</text>
<text text-anchor="start" x="92.97" y="-17.53" font-family="Monaco" baseline-shift="super" font-size="8.00" fill="#ff4411">q?</text>
</g>
<!-- Block3&#45;&gt;Jump3 -->
<g id="edge8" class="edge">
<title>Block3&#45;&gt;Jump3</title>
<path fill="none" stroke="black" d="M71.37,-86.3C71.37,-74.45 71.37,-59.35 71.37,-46.45"/>
<polygon fill="black" stroke="black" points="74.87,-46.26 71.37,-36.26 67.87,-46.26 74.87,-46.26"/>
<text text-anchor="middle" x="77.97" y="-59.87" font-family="Monaco" font-size="11.00">@h</text>
</g>
<!-- ndBlock0_0 -->
<g id="node9" class="node">
<title>ndBlock0_0</title>
<ellipse fill="none" stroke="black" cx="331.37" cy="-522.51" rx="45.66" ry="18"/>
<text text-anchor="start" x="303.77" y="-522.04" font-family="Monaco" font-size="11.00">@a</text>
<text text-anchor="start" x="316.97" y="-522.04" font-family="Monaco" baseline-shift="super" font-size="8.00" fill="#00dd33">U1</text>
<text text-anchor="start" x="326.57" y="-522.04" font-family="Monaco" baseline-shift="super" font-size="8.00" fill="#3311ff">r?</text>
<text text-anchor="start" x="336.17" y="-522.04" font-family="Monaco" font-size="11.00">:0</text>
<text text-anchor="start" x="349.37" y="-522.04" font-family="Monaco" baseline-shift="super" font-size="8.00" fill="#ff4411">q?</text>
</g>
<!-- ndBlock0_1 -->
<g id="node10" class="node">
<title>ndBlock0_1</title>
<ellipse fill="none" stroke="black" cx="331.37" cy="-449.51" rx="61.83" ry="18"/>
<text text-anchor="start" x="291.46" y="-449.04" font-family="Monaco" font-size="11.00">n0</text>
<text text-anchor="start" x="304.67" y="-449.04" font-family="Monaco" baseline-shift="super" font-size="8.00" fill="#00dd33">U6</text>
<text text-anchor="start" x="314.27" y="-449.04" font-family="Monaco" baseline-shift="super" font-size="8.00" fill="#3311ff">r?</text>
<text text-anchor="start" x="323.87" y="-449.04" font-family="Monaco" font-size="11.00">:n+</text>
<text text-anchor="start" x="343.67" y="-449.04" font-family="Monaco" baseline-shift="super" font-size="8.00" fill="#3311ff">?</text>
<text text-anchor="start" x="348.47" y="-449.04" font-family="Monaco" font-size="11.00">@a</text>
<text text-anchor="start" x="361.68" y="-449.04" font-family="Monaco" baseline-shift="super" font-size="8.00" fill="#ff4411">q?</text>
</g>
<!-- ndBlock0_0&#45;&gt;ndBlock0_1 -->
<g id="edge9" class="edge">
<title>ndBlock0_0&#45;&gt;ndBlock0_1</title>
<path fill="none" stroke="black" d="M331.37,-504.32C331.37,-496.3 331.37,-486.56 331.37,-477.58"/>
<polygon fill="black" stroke="black" points="334.87,-477.54 331.37,-467.54 327.87,-477.54 334.87,-477.54"/>
</g>
<!-- ndBlock0_3 -->
<g id="node12" class="node">
<title>ndBlock0_3</title>
<ellipse fill="none" stroke="black" cx="231.37" cy="-376.51" rx="70.33" ry="18"/>
<text text-anchor="start" x="184.86" y="-376.04" font-family="Monaco" font-size="11.00">@c</text>
<text text-anchor="start" x="198.06" y="-376.04" font-family="Monaco" baseline-shift="super" font-size="8.00" fill="#00dd33">U1</text>
<text text-anchor="start" x="207.67" y="-376.04" font-family="Monaco" baseline-shift="super" font-size="8.00" fill="#3311ff">r?</text>
<text text-anchor="start" x="217.27" y="-376.04" font-family="Monaco" font-size="11.00">:n0==</text>
<text text-anchor="start" x="250.27" y="-376.04" font-family="Monaco" baseline-shift="super" font-size="8.00" fill="#3311ff">?</text>
<text text-anchor="start" x="255.07" y="-376.04" font-family="Monaco" font-size="11.00">@b</text>
<text text-anchor="start" x="268.28" y="-376.04" font-family="Monaco" baseline-shift="super" font-size="8.00" fill="#ff4411">q?</text>
</g>
<!-- ndBlock0_1&#45;&gt;ndBlock0_3 -->
<g id="edge10" class="edge">
<title>ndBlock0_1&#45;&gt;ndBlock0_3</title>
<path fill="none" stroke="black" d="M308.68,-432.4C295,-422.69 277.38,-410.18 262.42,-399.56"/>
<polygon fill="black" stroke="black" points="264.15,-396.49 253.97,-393.56 260.1,-402.2 264.15,-396.49"/>
</g>
<!-- ndBlock0_2 -->
<g id="node11" class="node">
<title>ndBlock0_2</title>
<ellipse fill="none" stroke="black" cx="206.37" cy="-449.51" rx="45.66" ry="18"/>
<text text-anchor="start" x="178.77" y="-449.04" font-family="Monaco" font-size="11.00">@b</text>
<text text-anchor="start" x="191.97" y="-449.04" font-family="Monaco" baseline-shift="super" font-size="8.00" fill="#00dd33">U1</text>
<text text-anchor="start" x="201.57" y="-449.04" font-family="Monaco" baseline-shift="super" font-size="8.00" fill="#3311ff">r?</text>
<text text-anchor="start" x="211.17" y="-449.04" font-family="Monaco" font-size="11.00">:0</text>
<text text-anchor="start" x="224.37" y="-449.04" font-family="Monaco" baseline-shift="super" font-size="8.00" fill="#ff4411">q?</text>
</g>
<!-- ndBlock0_2&#45;&gt;ndBlock0_3 -->
<g id="edge11" class="edge">
<title>ndBlock0_2&#45;&gt;ndBlock0_3</title>
<path fill="none" stroke="black" d="M212.42,-431.32C215.31,-423.13 218.83,-413.13 222.04,-404"/>
<polygon fill="black" stroke="black" points="225.35,-405.13 225.37,-394.54 218.75,-402.81 225.35,-405.13"/>
</g>
<!-- ndBlock2_0 -->
<g id="node13" class="node">
<title>ndBlock2_0</title>
<ellipse fill="none" stroke="black" cx="627.37" cy="-449.51" rx="60.52" ry="18"/>
<text text-anchor="start" x="588.36" y="-449.04" font-family="Monaco" font-size="11.00">@d</text>
<text text-anchor="start" x="601.57" y="-449.04" font-family="Monaco" baseline-shift="super" font-size="8.00" fill="#00dd33">U32</text>
<text text-anchor="start" x="615.97" y="-449.04" font-family="Monaco" baseline-shift="super" font-size="8.00" fill="#3311ff">r?</text>
<text text-anchor="start" x="625.57" y="-449.04" font-family="Monaco" font-size="11.00">:a+</text>
<text text-anchor="start" x="645.37" y="-449.04" font-family="Monaco" baseline-shift="super" font-size="8.00" fill="#3311ff">?</text>
<text text-anchor="start" x="650.17" y="-449.04" font-family="Monaco" font-size="11.00">b</text>
<text text-anchor="start" x="656.78" y="-449.04" font-family="Monaco" baseline-shift="super" font-size="8.00" fill="#ff4411">q?</text>
</g>
<!-- ndBlock2_3 -->
<g id="node16" class="node">
<title>ndBlock2_3</title>
<ellipse fill="none" stroke="black" cx="552.37" cy="-376.51" rx="95.81" ry="18"/>
<text text-anchor="start" x="486.06" y="-376.04" font-family="Monaco" font-size="11.00">@g</text>
<text text-anchor="start" x="499.26" y="-376.04" font-family="Monaco" baseline-shift="super" font-size="8.00" fill="#00dd33">U32</text>
<text text-anchor="start" x="513.66" y="-376.04" font-family="Monaco" baseline-shift="super" font-size="8.00" fill="#3311ff">r?</text>
<text text-anchor="start" x="523.27" y="-376.04" font-family="Monaco" font-size="11.00">:fib(@f,@d,a)</text>
<text text-anchor="start" x="609.08" y="-376.04" font-family="Monaco" baseline-shift="super" font-size="8.00" fill="#ff4411">q?</text>
</g>
<!-- ndBlock2_0&#45;&gt;ndBlock2_3 -->
<g id="edge13" class="edge">
<title>ndBlock2_0&#45;&gt;ndBlock2_3</title>
<path fill="none" stroke="black" d="M609.98,-432.04C600.36,-422.95 588.25,-411.48 577.62,-401.41"/>
<polygon fill="black" stroke="black" points="579.86,-398.71 570.19,-394.38 575.05,-403.8 579.86,-398.71"/>
</g>
<!-- ndBlock2_1 -->
<g id="node14" class="node">
<title>ndBlock2_1</title>
<ellipse fill="none" stroke="black" cx="483.37" cy="-522.51" rx="45.66" ry="18"/>
<text text-anchor="start" x="455.77" y="-522.04" font-family="Monaco" font-size="11.00">@e</text>
<text text-anchor="start" x="468.97" y="-522.04" font-family="Monaco" baseline-shift="super" font-size="8.00" fill="#00dd33">U1</text>
<text text-anchor="start" x="478.57" y="-522.04" font-family="Monaco" baseline-shift="super" font-size="8.00" fill="#3311ff">r?</text>
<text text-anchor="start" x="488.17" y="-522.04" font-family="Monaco" font-size="11.00">:1</text>
<text text-anchor="start" x="501.37" y="-522.04" font-family="Monaco" baseline-shift="super" font-size="8.00" fill="#ff4411">q?</text>
</g>
<!-- ndBlock2_2 -->
<g id="node15" class="node">
<title>ndBlock2_2</title>
<ellipse fill="none" stroke="black" cx="483.37" cy="-449.51" rx="65.83" ry="18"/>
<text text-anchor="start" x="440.16" y="-449.04" font-family="Monaco" font-size="11.00">@f</text>
<text text-anchor="start" x="453.37" y="-449.04" font-family="Monaco" baseline-shift="super" font-size="8.00" fill="#00dd33">U6</text>
<text text-anchor="start" x="462.97" y="-449.04" font-family="Monaco" baseline-shift="super" font-size="8.00" fill="#3311ff">r?</text>
<text text-anchor="start" x="472.57" y="-449.04" font-family="Monaco" font-size="11.00">:n0&#45;</text>
<text text-anchor="start" x="498.97" y="-449.04" font-family="Monaco" baseline-shift="super" font-size="8.00" fill="#3311ff">?</text>
<text text-anchor="start" x="503.77" y="-449.04" font-family="Monaco" font-size="11.00">@e</text>
<text text-anchor="start" x="516.98" y="-449.04" font-family="Monaco" baseline-shift="super" font-size="8.00" fill="#ff4411">q?</text>
</g>
<!-- ndBlock2_1&#45;&gt;ndBlock2_2 -->
<g id="edge12" class="edge">
<title>ndBlock2_1&#45;&gt;ndBlock2_2</title>
<path fill="none" stroke="black" d="M483.37,-504.32C483.37,-496.3 483.37,-486.56 483.37,-477.58"/>
<polygon fill="black" stroke="black" points="486.87,-477.54 483.37,-467.54 479.87,-477.54 486.87,-477.54"/>
</g>
<!-- ndBlock2_2&#45;&gt;ndBlock2_3 -->
<g id="edge14" class="edge">
<title>ndBlock2_2&#45;&gt;ndBlock2_3</title>
<path fill="none" stroke="black" d="M499.37,-432.04C508.13,-423.03 519.14,-411.7 528.86,-401.71"/>
<polygon fill="black" stroke="black" points="531.52,-403.99 535.97,-394.38 526.5,-399.11 531.52,-403.99"/>
</g>
</g>
</svg>
