<?xml version="1.0" encoding="UTF-8" standalone="no"?>
<!DOCTYPE svg PUBLIC "-//W3C//DTD SVG 1.1//EN"
 "http://www.w3.org/Graphics/SVG/1.1/DTD/svg11.dtd">
<!-- Generated by graphviz version 2.43.0 (0)
 -->
<!-- Title: Program_ Pages: 1 -->
<svg width="1200pt" height="403pt"
 viewBox="0.00 0.00 1199.81 403.34" xmlns="http://www.w3.org/2000/svg" xmlns:xlink="http://www.w3.org/1999/xlink">
<g id="graph0" class="graph" transform="scale(1 1) rotate(0) translate(4 399.34)">
<title>Program_</title>
<polygon fill="white" stroke="transparent" points="-4,4 -4,-399.34 1195.81,-399.34 1195.81,4 -4,4"/>
<g id="clust1" class="cluster">
<title>cluster_dfg_Block1</title>
<polygon fill="none" stroke="black" points="199.81,-78.67 199.81,-387.34 646.81,-387.34 646.81,-78.67 199.81,-78.67"/>
<text text-anchor="middle" x="423.31" y="-373.74" font-family="Monaco" font-size="12.00">Block1</text>
</g>
<g id="clust2" class="cluster">
<title>cluster_dfg_Block2</title>
<polygon fill="none" stroke="black" points="654.81,-238.34 654.81,-387.34 754.81,-387.34 754.81,-238.34 654.81,-238.34"/>
<text text-anchor="middle" x="704.81" y="-373.74" font-family="Monaco" font-size="12.00">Block2</text>
</g>
<g id="clust3" class="cluster">
<title>cluster_dfg_Block3</title>
<polygon fill="none" stroke="black" points="762.81,-165.34 762.81,-387.34 1183.81,-387.34 1183.81,-165.34 762.81,-165.34"/>
<text text-anchor="middle" x="973.31" y="-373.74" font-family="Monaco" font-size="12.00">Block3</text>
</g>
<!-- Jump2 -->
<g id="node1" class="node">
<title>Jump2</title>
<polygon fill="none" stroke="black" points="160.42,-355.34 69.19,-355.34 69.19,-351.34 65.19,-351.34 65.19,-347.34 69.19,-347.34 69.19,-327.34 65.19,-327.34 65.19,-323.34 69.19,-323.34 69.19,-319.34 160.42,-319.34 160.42,-355.34"/>
<polyline fill="none" stroke="black" points="69.19,-351.34 73.19,-351.34 73.19,-347.34 69.19,-347.34 "/>
<polyline fill="none" stroke="black" points="69.19,-327.34 73.19,-327.34 73.19,-323.34 69.19,-323.34 "/>
<text text-anchor="start" x="77" y="-340.54" font-family="Monaco" font-size="11.00">StartFun.2</text>
<text text-anchor="start" x="143.01" y="-340.54" font-family="Monaco" baseline-shift="super" font-size="8.00" fill="#ff4411">q0</text>
<text text-anchor="start" x="98.3" y="-329.54" font-family="Monaco" font-size="11.00">n,a,b</text>
</g>
<!-- Block1 -->
<g id="node2" class="node">
<title>Block1</title>
<polygon fill="none" stroke="black" points="142.41,-282.34 87.2,-282.34 87.2,-246.34 142.41,-246.34 142.41,-282.34"/>
<text text-anchor="middle" x="114.81" y="-262.87" font-family="Monaco" font-size="11.00">Block1</text>
</g>
<!-- Jump2&#45;&gt;Block1 -->
<g id="edge1" class="edge">
<title>Jump2&#45;&gt;Block1</title>
<path fill="none" stroke="black" d="M114.81,-319.15C114.81,-311.13 114.81,-301.38 114.81,-292.41"/>
<polygon fill="black" stroke="black" points="118.31,-292.37 114.81,-282.37 111.31,-292.37 118.31,-292.37"/>
</g>
<!-- Jump3 -->
<g id="node3" class="node">
<title>Jump3</title>
<path fill="none" stroke="black" d="M144.41,-209.34C144.41,-209.34 85.2,-209.34 85.2,-209.34 79.2,-209.34 69.39,-204.7 65.57,-200.07 65.57,-200.07 51.19,-182.6 51.19,-182.6 47.38,-177.97 49.57,-173.34 55.57,-173.34 55.57,-173.34 174.05,-173.34 174.05,-173.34 180.05,-173.34 182.23,-177.97 178.42,-182.6 178.42,-182.6 164.04,-200.07 164.04,-200.07 160.23,-204.7 150.41,-209.34 144.41,-209.34"/>
<text text-anchor="start" x="83.6" y="-190.87" font-family="Monaco" font-size="11.00">Branch.3</text>
<text text-anchor="start" x="136.41" y="-190.87" font-family="Monaco" baseline-shift="super" font-size="8.00" fill="#ff4411">q3</text>
</g>
<!-- Block1&#45;&gt;Jump3 -->
<g id="edge2" class="edge">
<title>Block1&#45;&gt;Jump3</title>
<path fill="none" stroke="black" d="M114.81,-246.15C114.81,-238.13 114.81,-228.38 114.81,-219.41"/>
<polygon fill="black" stroke="black" points="118.31,-219.37 114.81,-209.37 111.31,-219.37 118.31,-219.37"/>
</g>
<!-- Block2 -->
<g id="node4" class="node">
<title>Block2</title>
<polygon fill="none" stroke="black" points="84.41,-122.67 29.2,-122.67 29.2,-86.67 84.41,-86.67 84.41,-122.67"/>
<text text-anchor="middle" x="56.81" y="-103.2" font-family="Monaco" font-size="11.00">Block2</text>
</g>
<!-- Jump3&#45;&gt;Block2 -->
<g id="edge3" class="edge">
<title>Jump3&#45;&gt;Block2</title>
<path fill="none" stroke="black" d="M103.07,-173.2C94.81,-161.15 83.63,-144.82 74.32,-131.23"/>
<polygon fill="black" stroke="black" points="77.06,-129.05 68.53,-122.78 71.29,-133 77.06,-129.05"/>
<text text-anchor="middle" x="96.41" y="-146.54" font-family="Monaco" font-size="11.00">@9</text>
</g>
<!-- Block3 -->
<g id="node5" class="node">
<title>Block3</title>
<polygon fill="none" stroke="black" points="191.41,-122.67 136.2,-122.67 136.2,-86.67 191.41,-86.67 191.41,-122.67"/>
<text text-anchor="middle" x="163.81" y="-103.2" font-family="Monaco" font-size="11.00">Block3</text>
</g>
<!-- Jump3&#45;&gt;Block3 -->
<g id="edge4" class="edge">
<title>Jump3&#45;&gt;Block3</title>
<path fill="none" stroke="black" d="M124.72,-173.2C131.63,-161.27 140.97,-145.13 148.79,-131.62"/>
<polygon fill="black" stroke="black" points="151.93,-133.19 153.91,-122.78 145.87,-129.68 151.93,-133.19"/>
<text text-anchor="middle" x="152.71" y="-146.54" font-family="Monaco" font-size="11.00">!@9</text>
</g>
<!-- Jump4_6 -->
<g id="node6" class="node">
<title>Jump4_6</title>
<polygon fill="none" stroke="black" points="91.42,-30 18.19,-30 18.19,-36 0.19,-18 18.19,0 18.19,-6 73.42,-6 73.42,0 91.42,0 91.42,-30"/>
<text text-anchor="start" x="8" y="-17.53" font-family="Monaco" font-size="11.00">Return.4_6</text>
<text text-anchor="start" x="74.01" y="-17.53" font-family="Monaco" baseline-shift="super" font-size="8.00" fill="#ff4411">q5</text>
</g>
<!-- Block2&#45;&gt;Jump4_6 -->
<g id="edge5" class="edge">
<title>Block2&#45;&gt;Jump4_6</title>
<path fill="none" stroke="black" d="M54.58,-86.53C53.07,-74.94 51.05,-59.39 49.33,-46.13"/>
<polygon fill="black" stroke="black" points="52.79,-45.57 48.03,-36.11 45.85,-46.48 52.79,-45.57"/>
<text text-anchor="middle" x="56.11" y="-59.87" font-family="Monaco" font-size="11.00">a</text>
</g>
<!-- Jump4_7_8 -->
<g id="node7" class="node">
<title>Jump4_7_8</title>
<polygon fill="none" stroke="black" points="227.82,-36 109.79,-36 109.79,-32 105.79,-32 105.79,-28 109.79,-28 109.79,-8 105.79,-8 105.79,-4 109.79,-4 109.79,0 227.82,0 227.82,-36"/>
<polyline fill="none" stroke="black" points="109.79,-32 113.79,-32 113.79,-28 109.79,-28 "/>
<polyline fill="none" stroke="black" points="109.79,-8 113.79,-8 113.79,-4 109.79,-4 "/>
<text text-anchor="start" x="117.8" y="-21.2" font-family="Monaco" font-size="11.00">TailCall.4_7_8</text>
<text text-anchor="start" x="210.21" y="-21.2" font-family="Monaco" baseline-shift="super" font-size="8.00" fill="#ff4411">q7</text>
<text text-anchor="start" x="122.6" y="-10.2" font-family="Monaco" font-size="11.00">fib(@12,@10,a)</text>
</g>
<!-- Block3&#45;&gt;Jump4_7_8 -->
<g id="edge6" class="edge">
<title>Block3&#45;&gt;Jump4_7_8</title>
<path fill="none" stroke="black" d="M164.82,-86.53C165.5,-74.94 166.42,-59.39 167.2,-46.13"/>
<polygon fill="black" stroke="black" points="170.7,-46.3 167.8,-36.11 163.71,-45.88 170.7,-46.3"/>
</g>
<!-- ndBlock1_0 -->
<g id="node8" class="node">
<title>ndBlock1_0</title>
<ellipse fill="none" stroke="black" cx="596.81" cy="-337.34" rx="39.8" ry="18"/>
<text text-anchor="start" x="574" y="-336.87" font-family="Monaco" font-size="11.00">a</text>
<text text-anchor="start" x="580.6" y="-336.87" font-family="Monaco" baseline-shift="super" font-size="8.00" fill="#3311ff">r1</text>
<text text-anchor="start" x="590.21" y="-336.87" font-family="Monaco" font-size="11.00">:in</text>
<text text-anchor="start" x="610.01" y="-336.87" font-family="Monaco" baseline-shift="super" font-size="8.00" fill="#ff4411">q0</text>
</g>
<!-- ndBlock1_2 -->
<g id="node10" class="node">
<title>ndBlock1_2</title>
<ellipse fill="none" stroke="black" cx="596.81" cy="-264.34" rx="41.94" ry="18"/>
<text text-anchor="start" x="572.2" y="-263.87" font-family="Monaco" font-size="11.00">out(a)</text>
<text text-anchor="start" x="611.81" y="-263.87" font-family="Monaco" baseline-shift="super" font-size="8.00" fill="#ff4411">q3</text>
</g>
<!-- ndBlock1_0&#45;&gt;ndBlock1_2 -->
<g id="edge10" class="edge">
<title>ndBlock1_0&#45;&gt;ndBlock1_2</title>
<path fill="none" stroke="black" d="M596.81,-319.15C596.81,-311.13 596.81,-301.38 596.81,-292.41"/>
<polygon fill="black" stroke="black" points="600.31,-292.37 596.81,-282.37 593.31,-292.37 600.31,-292.37"/>
</g>
<!-- ndBlock1_1 -->
<g id="node9" class="node">
<title>ndBlock1_1</title>
<ellipse fill="none" stroke="black" cx="496.81" cy="-264.34" rx="39.8" ry="18"/>
<text text-anchor="start" x="474" y="-263.87" font-family="Monaco" font-size="11.00">@8</text>
<text text-anchor="start" x="487.2" y="-263.87" font-family="Monaco" baseline-shift="super" font-size="8.00" fill="#3311ff">r3</text>
<text text-anchor="start" x="496.81" y="-263.87" font-family="Monaco" font-size="11.00">:0</text>
<text text-anchor="start" x="510.01" y="-263.87" font-family="Monaco" baseline-shift="super" font-size="8.00" fill="#ff4411">q0</text>
</g>
<!-- ndBlock1_7 -->
<g id="node15" class="node">
<title>ndBlock1_7</title>
<ellipse fill="none" stroke="black" cx="496.81" cy="-191.34" rx="79.37" ry="18"/>
<text text-anchor="start" x="443.1" y="-190.87" font-family="Monaco" font-size="11.00">@9</text>
<text text-anchor="start" x="456.3" y="-190.87" font-family="Monaco" baseline-shift="super" font-size="8.00" fill="#3311ff">r3</text>
<text text-anchor="start" x="465.9" y="-190.87" font-family="Monaco" font-size="11.00">:n0==</text>
<text text-anchor="start" x="498.91" y="-190.87" font-family="Monaco" baseline-shift="super" font-size="8.00" fill="#3311ff">Equal3</text>
<text text-anchor="start" x="527.71" y="-190.87" font-family="Monaco" font-size="11.00">@8</text>
<text text-anchor="start" x="540.91" y="-190.87" font-family="Monaco" baseline-shift="super" font-size="8.00" fill="#ff4411">q2</text>
</g>
<!-- ndBlock1_1&#45;&gt;ndBlock1_7 -->
<g id="edge13" class="edge">
<title>ndBlock1_1&#45;&gt;ndBlock1_7</title>
<path fill="none" stroke="black" d="M496.81,-246.15C496.81,-238.13 496.81,-228.38 496.81,-219.41"/>
<polygon fill="black" stroke="black" points="500.31,-219.37 496.81,-209.37 493.31,-219.37 500.31,-219.37"/>
</g>
<!-- ndBlock1_3 -->
<g id="node11" class="node">
<title>ndBlock1_3</title>
<ellipse fill="none" stroke="black" cx="453.81" cy="-337.34" rx="39.8" ry="18"/>
<text text-anchor="start" x="431" y="-336.87" font-family="Monaco" font-size="11.00">@7</text>
<text text-anchor="start" x="444.2" y="-336.87" font-family="Monaco" baseline-shift="super" font-size="8.00" fill="#3311ff">r4</text>
<text text-anchor="start" x="453.81" y="-336.87" font-family="Monaco" font-size="11.00">:0</text>
<text text-anchor="start" x="467.01" y="-336.87" font-family="Monaco" baseline-shift="super" font-size="8.00" fill="#ff4411">q0</text>
</g>
<!-- ndBlock1_10 -->
<g id="node18" class="node">
<title>ndBlock1_10</title>
<ellipse fill="none" stroke="black" cx="374.81" cy="-264.34" rx="64.52" ry="18"/>
<text text-anchor="start" x="332.5" y="-263.87" font-family="Monaco" font-size="11.00">n0</text>
<text text-anchor="start" x="345.7" y="-263.87" font-family="Monaco" baseline-shift="super" font-size="8.00" fill="#3311ff">r0</text>
<text text-anchor="start" x="355.3" y="-263.87" font-family="Monaco" font-size="11.00">:n+</text>
<text text-anchor="start" x="375.11" y="-263.87" font-family="Monaco" baseline-shift="super" font-size="8.00" fill="#3311ff">Add2</text>
<text text-anchor="start" x="394.31" y="-263.87" font-family="Monaco" font-size="11.00">@7</text>
<text text-anchor="start" x="407.51" y="-263.87" font-family="Monaco" baseline-shift="super" font-size="8.00" fill="#ff4411">q1</text>
</g>
<!-- ndBlock1_3&#45;&gt;ndBlock1_10 -->
<g id="edge11" class="edge">
<title>ndBlock1_3&#45;&gt;ndBlock1_10</title>
<path fill="none" stroke="black" d="M436.66,-320.93C426.09,-311.43 412.33,-299.06 400.48,-288.41"/>
<polygon fill="black" stroke="black" points="402.79,-285.78 393.01,-281.7 398.11,-290.99 402.79,-285.78"/>
</g>
<!-- ndBlock1_4 -->
<g id="node12" class="node">
<title>ndBlock1_4</title>
<ellipse fill="none" stroke="black" cx="496.81" cy="-104.67" rx="46.44" ry="18"/>
<text text-anchor="start" x="468.9" y="-104.2" font-family="Monaco" font-size="11.00">out(@9)</text>
<text text-anchor="start" x="515.11" y="-104.2" font-family="Monaco" baseline-shift="super" font-size="8.00" fill="#ff4411">q3</text>
</g>
<!-- ndBlock1_5 -->
<g id="node13" class="node">
<title>ndBlock1_5</title>
<ellipse fill="none" stroke="black" cx="352.81" cy="-191.34" rx="46.44" ry="18"/>
<text text-anchor="start" x="324.9" y="-190.87" font-family="Monaco" font-size="11.00">out(n0)</text>
<text text-anchor="start" x="371.11" y="-190.87" font-family="Monaco" baseline-shift="super" font-size="8.00" fill="#ff4411">q3</text>
</g>
<!-- ndBlock1_6 -->
<g id="node14" class="node">
<title>ndBlock1_6</title>
<ellipse fill="none" stroke="black" cx="356.81" cy="-337.34" rx="39.8" ry="18"/>
<text text-anchor="start" x="334" y="-336.87" font-family="Monaco" font-size="11.00">n</text>
<text text-anchor="start" x="340.6" y="-336.87" font-family="Monaco" baseline-shift="super" font-size="8.00" fill="#3311ff">r0</text>
<text text-anchor="start" x="350.21" y="-336.87" font-family="Monaco" font-size="11.00">:in</text>
<text text-anchor="start" x="370.01" y="-336.87" font-family="Monaco" baseline-shift="super" font-size="8.00" fill="#ff4411">q0</text>
</g>
<!-- ndBlock1_6&#45;&gt;ndBlock1_10 -->
<g id="edge12" class="edge">
<title>ndBlock1_6&#45;&gt;ndBlock1_10</title>
<path fill="none" stroke="black" d="M361.16,-319.15C363.22,-311.04 365.72,-301.17 368.02,-292.11"/>
<polygon fill="black" stroke="black" points="371.42,-292.92 370.49,-282.37 364.64,-291.2 371.42,-292.92"/>
</g>
<!-- ndBlock1_7&#45;&gt;ndBlock1_4 -->
<g id="edge9" class="edge">
<title>ndBlock1_7&#45;&gt;ndBlock1_4</title>
<path fill="none" stroke="black" d="M496.81,-173.2C496.81,-161.61 496.81,-146.06 496.81,-132.8"/>
<polygon fill="black" stroke="black" points="500.31,-132.78 496.81,-122.78 493.31,-132.78 500.31,-132.78"/>
</g>
<!-- ndBlock1_8 -->
<g id="node16" class="node">
<title>ndBlock1_8</title>
<ellipse fill="none" stroke="black" cx="249.81" cy="-264.34" rx="41.94" ry="18"/>
<text text-anchor="start" x="225.2" y="-263.87" font-family="Monaco" font-size="11.00">out(b)</text>
<text text-anchor="start" x="264.81" y="-263.87" font-family="Monaco" baseline-shift="super" font-size="8.00" fill="#ff4411">q3</text>
</g>
<!-- ndBlock1_9 -->
<g id="node17" class="node">
<title>ndBlock1_9</title>
<ellipse fill="none" stroke="black" cx="249.81" cy="-337.34" rx="39.8" ry="18"/>
<text text-anchor="start" x="227" y="-336.87" font-family="Monaco" font-size="11.00">b</text>
<text text-anchor="start" x="233.6" y="-336.87" font-family="Monaco" baseline-shift="super" font-size="8.00" fill="#3311ff">r2</text>
<text text-anchor="start" x="243.21" y="-336.87" font-family="Monaco" font-size="11.00">:in</text>
<text text-anchor="start" x="263.01" y="-336.87" font-family="Monaco" baseline-shift="super" font-size="8.00" fill="#ff4411">q0</text>
</g>
<!-- ndBlock1_9&#45;&gt;ndBlock1_8 -->
<g id="edge7" class="edge">
<title>ndBlock1_9&#45;&gt;ndBlock1_8</title>
<path fill="none" stroke="black" d="M249.81,-319.15C249.81,-311.13 249.81,-301.38 249.81,-292.41"/>
<polygon fill="black" stroke="black" points="253.31,-292.37 249.81,-282.37 246.31,-292.37 253.31,-292.37"/>
</g>
<!-- ndBlock1_10&#45;&gt;ndBlock1_5 -->
<g id="edge8" class="edge">
<title>ndBlock1_10&#45;&gt;ndBlock1_5</title>
<path fill="none" stroke="black" d="M369.48,-246.15C366.97,-238.04 363.91,-228.17 361.1,-219.11"/>
<polygon fill="black" stroke="black" points="364.39,-217.88 358.08,-209.37 357.7,-219.95 364.39,-217.88"/>
</g>
<!-- ndBlock1_10&#45;&gt;ndBlock1_7 -->
<g id="edge14" class="edge">
<title>ndBlock1_10&#45;&gt;ndBlock1_7</title>
<path fill="none" stroke="black" d="M401.58,-247.76C418.9,-237.68 441.66,-224.43 460.58,-213.42"/>
<polygon fill="black" stroke="black" points="462.37,-216.43 469.25,-208.37 458.85,-210.38 462.37,-216.43"/>
</g>
<!-- ndBlock2_0 -->
<g id="node19" class="node">
<title>ndBlock2_0</title>
<ellipse fill="none" stroke="black" cx="704.81" cy="-337.34" rx="39.8" ry="18"/>
<text text-anchor="start" x="682" y="-336.87" font-family="Monaco" font-size="11.00">a</text>
<text text-anchor="start" x="688.6" y="-336.87" font-family="Monaco" baseline-shift="super" font-size="8.00" fill="#3311ff">r1</text>
<text text-anchor="start" x="698.21" y="-336.87" font-family="Monaco" font-size="11.00">:in</text>
<text text-anchor="start" x="718.01" y="-336.87" font-family="Monaco" baseline-shift="super" font-size="8.00" fill="#ff4411">q3</text>
</g>
<!-- ndBlock2_1 -->
<g id="node20" class="node">
<title>ndBlock2_1</title>
<ellipse fill="none" stroke="black" cx="704.81" cy="-264.34" rx="41.94" ry="18"/>
<text text-anchor="start" x="680.2" y="-263.87" font-family="Monaco" font-size="11.00">out(a)</text>
<text text-anchor="start" x="719.81" y="-263.87" font-family="Monaco" baseline-shift="super" font-size="8.00" fill="#ff4411">q5</text>
</g>
<!-- ndBlock2_0&#45;&gt;ndBlock2_1 -->
<g id="edge15" class="edge">
<title>ndBlock2_0&#45;&gt;ndBlock2_1</title>
<path fill="none" stroke="black" d="M704.81,-319.15C704.81,-311.13 704.81,-301.38 704.81,-292.41"/>
<polygon fill="black" stroke="black" points="708.31,-292.37 704.81,-282.37 701.31,-292.37 708.31,-292.37"/>
</g>
<!-- ndBlock3_0 -->
<g id="node21" class="node">
<title>ndBlock3_0</title>
<ellipse fill="none" stroke="black" cx="848.81" cy="-264.34" rx="77.51" ry="18"/>
<text text-anchor="start" x="796.6" y="-263.87" font-family="Monaco" font-size="11.00">@12</text>
<text text-anchor="start" x="816.4" y="-263.87" font-family="Monaco" baseline-shift="super" font-size="8.00" fill="#3311ff">r2</text>
<text text-anchor="start" x="826" y="-263.87" font-family="Monaco" font-size="11.00">:n0&#45;</text>
<text text-anchor="start" x="852.41" y="-263.87" font-family="Monaco" baseline-shift="super" font-size="8.00" fill="#3311ff">Sub4</text>
<text text-anchor="start" x="871.61" y="-263.87" font-family="Monaco" font-size="11.00">@11</text>
<text text-anchor="start" x="891.41" y="-263.87" font-family="Monaco" baseline-shift="super" font-size="8.00" fill="#ff4411">q6</text>
</g>
<!-- ndBlock3_3 -->
<g id="node24" class="node">
<title>ndBlock3_3</title>
<ellipse fill="none" stroke="black" cx="848.81" cy="-191.34" rx="50.43" ry="18"/>
<text text-anchor="start" x="817.6" y="-190.87" font-family="Monaco" font-size="11.00">out(@12)</text>
<text text-anchor="start" x="870.41" y="-190.87" font-family="Monaco" baseline-shift="super" font-size="8.00" fill="#ff4411">q7</text>
</g>
<!-- ndBlock3_0&#45;&gt;ndBlock3_3 -->
<g id="edge16" class="edge">
<title>ndBlock3_0&#45;&gt;ndBlock3_3</title>
<path fill="none" stroke="black" d="M848.81,-246.15C848.81,-238.13 848.81,-228.38 848.81,-219.41"/>
<polygon fill="black" stroke="black" points="852.31,-219.37 848.81,-209.37 845.31,-219.37 852.31,-219.37"/>
</g>
<!-- ndBlock3_1 -->
<g id="node22" class="node">
<title>ndBlock3_1</title>
<ellipse fill="none" stroke="black" cx="1126.81" cy="-337.34" rx="39.8" ry="18"/>
<text text-anchor="start" x="1104" y="-336.87" font-family="Monaco" font-size="11.00">a</text>
<text text-anchor="start" x="1110.6" y="-336.87" font-family="Monaco" baseline-shift="super" font-size="8.00" fill="#3311ff">r1</text>
<text text-anchor="start" x="1120.21" y="-336.87" font-family="Monaco" font-size="11.00">:in</text>
<text text-anchor="start" x="1140.01" y="-336.87" font-family="Monaco" baseline-shift="super" font-size="8.00" fill="#ff4411">q3</text>
</g>
<!-- ndBlock3_2 -->
<g id="node23" class="node">
<title>ndBlock3_2</title>
<ellipse fill="none" stroke="black" cx="1008.81" cy="-264.34" rx="64.52" ry="18"/>
<text text-anchor="start" x="966.5" y="-263.87" font-family="Monaco" font-size="11.00">@10</text>
<text text-anchor="start" x="986.3" y="-263.87" font-family="Monaco" baseline-shift="super" font-size="8.00" fill="#3311ff">r0</text>
<text text-anchor="start" x="995.9" y="-263.87" font-family="Monaco" font-size="11.00">:a+</text>
<text text-anchor="start" x="1015.71" y="-263.87" font-family="Monaco" baseline-shift="super" font-size="8.00" fill="#3311ff">Add2</text>
<text text-anchor="start" x="1034.91" y="-263.87" font-family="Monaco" font-size="11.00">b</text>
<text text-anchor="start" x="1041.51" y="-263.87" font-family="Monaco" baseline-shift="super" font-size="8.00" fill="#ff4411">q6</text>
</g>
<!-- ndBlock3_1&#45;&gt;ndBlock3_2 -->
<g id="edge20" class="edge">
<title>ndBlock3_1&#45;&gt;ndBlock3_2</title>
<path fill="none" stroke="black" d="M1103.77,-322.48C1086.56,-312.12 1062.73,-297.79 1043.26,-286.07"/>
<polygon fill="black" stroke="black" points="1045.02,-283.04 1034.65,-280.89 1041.42,-289.04 1045.02,-283.04"/>
</g>
<!-- ndBlock3_4 -->
<g id="node25" class="node">
<title>ndBlock3_4</title>
<ellipse fill="none" stroke="black" cx="1133.81" cy="-264.34" rx="41.94" ry="18"/>
<text text-anchor="start" x="1109.2" y="-263.87" font-family="Monaco" font-size="11.00">out(a)</text>
<text text-anchor="start" x="1148.81" y="-263.87" font-family="Monaco" baseline-shift="super" font-size="8.00" fill="#ff4411">q7</text>
</g>
<!-- ndBlock3_1&#45;&gt;ndBlock3_4 -->
<g id="edge19" class="edge">
<title>ndBlock3_1&#45;&gt;ndBlock3_4</title>
<path fill="none" stroke="black" d="M1128.5,-319.15C1129.29,-311.13 1130.25,-301.38 1131.14,-292.41"/>
<polygon fill="black" stroke="black" points="1134.63,-292.66 1132.13,-282.37 1127.66,-291.97 1134.63,-292.66"/>
</g>
<!-- ndBlock3_8 -->
<g id="node29" class="node">
<title>ndBlock3_8</title>
<ellipse fill="none" stroke="black" cx="1008.81" cy="-191.34" rx="50.43" ry="18"/>
<text text-anchor="start" x="977.6" y="-190.87" font-family="Monaco" font-size="11.00">out(@10)</text>
<text text-anchor="start" x="1030.41" y="-190.87" font-family="Monaco" baseline-shift="super" font-size="8.00" fill="#ff4411">q7</text>
</g>
<!-- ndBlock3_2&#45;&gt;ndBlock3_8 -->
<g id="edge22" class="edge">
<title>ndBlock3_2&#45;&gt;ndBlock3_8</title>
<path fill="none" stroke="black" d="M1008.81,-246.15C1008.81,-238.13 1008.81,-228.38 1008.81,-219.41"/>
<polygon fill="black" stroke="black" points="1012.31,-219.37 1008.81,-209.37 1005.31,-219.37 1012.31,-219.37"/>
</g>
<!-- ndBlock3_5 -->
<g id="node26" class="node">
<title>ndBlock3_5</title>
<ellipse fill="none" stroke="black" cx="920.81" cy="-337.34" rx="43.8" ry="18"/>
<text text-anchor="start" x="894.7" y="-336.87" font-family="Monaco" font-size="11.00">@11</text>
<text text-anchor="start" x="914.51" y="-336.87" font-family="Monaco" baseline-shift="super" font-size="8.00" fill="#3311ff">r3</text>
<text text-anchor="start" x="924.11" y="-336.87" font-family="Monaco" font-size="11.00">:1</text>
<text text-anchor="start" x="937.31" y="-336.87" font-family="Monaco" baseline-shift="super" font-size="8.00" fill="#ff4411">q3</text>
</g>
<!-- ndBlock3_5&#45;&gt;ndBlock3_0 -->
<g id="edge17" class="edge">
<title>ndBlock3_5&#45;&gt;ndBlock3_0</title>
<path fill="none" stroke="black" d="M904.47,-320.23C895.19,-311.07 883.39,-299.44 873.05,-289.24"/>
<polygon fill="black" stroke="black" points="875.41,-286.65 865.83,-282.12 870.49,-291.64 875.41,-286.65"/>
</g>
<!-- ndBlock3_6 -->
<g id="node27" class="node">
<title>ndBlock3_6</title>
<ellipse fill="none" stroke="black" cx="814.81" cy="-337.34" rx="43.8" ry="18"/>
<text text-anchor="start" x="788.7" y="-336.87" font-family="Monaco" font-size="11.00">n0</text>
<text text-anchor="start" x="801.9" y="-336.87" font-family="Monaco" baseline-shift="super" font-size="8.00" fill="#3311ff">r0</text>
<text text-anchor="start" x="811.51" y="-336.87" font-family="Monaco" font-size="11.00">:in</text>
<text text-anchor="start" x="831.31" y="-336.87" font-family="Monaco" baseline-shift="super" font-size="8.00" fill="#ff4411">q3</text>
</g>
<!-- ndBlock3_6&#45;&gt;ndBlock3_0 -->
<g id="edge18" class="edge">
<title>ndBlock3_6&#45;&gt;ndBlock3_0</title>
<path fill="none" stroke="black" d="M822.86,-319.51C826.83,-311.23 831.7,-301.06 836.15,-291.77"/>
<polygon fill="black" stroke="black" points="839.41,-293.07 840.57,-282.54 833.09,-290.04 839.41,-293.07"/>
</g>
<!-- ndBlock3_7 -->
<g id="node28" class="node">
<title>ndBlock3_7</title>
<ellipse fill="none" stroke="black" cx="1022.81" cy="-337.34" rx="39.8" ry="18"/>
<text text-anchor="start" x="1000" y="-336.87" font-family="Monaco" font-size="11.00">b</text>
<text text-anchor="start" x="1006.6" y="-336.87" font-family="Monaco" baseline-shift="super" font-size="8.00" fill="#3311ff">r2</text>
<text text-anchor="start" x="1016.21" y="-336.87" font-family="Monaco" font-size="11.00">:in</text>
<text text-anchor="start" x="1036.01" y="-336.87" font-family="Monaco" baseline-shift="super" font-size="8.00" fill="#ff4411">q3</text>
</g>
<!-- ndBlock3_7&#45;&gt;ndBlock3_2 -->
<g id="edge21" class="edge">
<title>ndBlock3_7&#45;&gt;ndBlock3_2</title>
<path fill="none" stroke="black" d="M1019.42,-319.15C1017.84,-311.13 1015.91,-301.38 1014.14,-292.41"/>
<polygon fill="black" stroke="black" points="1017.53,-291.5 1012.16,-282.37 1010.66,-292.85 1017.53,-291.5"/>
</g>
</g>
</svg>
