<?xml version="1.0" encoding="UTF-8" standalone="no"?>
<!DOCTYPE svg PUBLIC "-//W3C//DTD SVG 1.1//EN"
 "http://www.w3.org/Graphics/SVG/1.1/DTD/svg11.dtd">
<!-- Generated by graphviz version 2.43.0 (0)
 -->
<!-- Title: Program_ Pages: 1 -->
<svg width="590pt" height="180pt"
 viewBox="0.00 0.00 590.11 180.00" xmlns="http://www.w3.org/2000/svg" xmlns:xlink="http://www.w3.org/1999/xlink">
<g id="graph0" class="graph" transform="scale(1 1) rotate(0) translate(4 176)">
<title>Program_</title>
<polygon fill="white" stroke="transparent" points="-4,4 -4,-176 586.11,-176 586.11,4 -4,4"/>
<g id="clust1" class="cluster">
<title>cluster_dfg_Block0</title>
<polygon fill="none" stroke="black" points="124.11,-8 124.11,-164 574.11,-164 574.11,-8 124.11,-8"/>
<text text-anchor="start" x="327.5" y="-151.4" font-family="Monaco" font-size="12.00">Block0</text>
<text text-anchor="start" x="131.87" y="-139.4" font-family="Monaco" font-size="12.00">(n&lt;a&gt;</text>
<text text-anchor="start" x="167.88" y="-139.4" font-family="Monaco" baseline-shift="super" font-size="8.00" fill="#00aa11">U6</text>
<text text-anchor="start" x="177.48" y="-139.4" font-family="Monaco" baseline-shift="super" font-size="8.00" fill="#3311ff">r?</text>
<text text-anchor="start" x="187.08" y="-139.4" font-family="Monaco" font-size="12.00">,a&lt;a&gt;</text>
<text text-anchor="start" x="223.09" y="-139.4" font-family="Monaco" baseline-shift="super" font-size="8.00" fill="#00aa11">U32</text>
<text text-anchor="start" x="237.49" y="-139.4" font-family="Monaco" baseline-shift="super" font-size="8.00" fill="#3311ff">r?</text>
<text text-anchor="start" x="247.09" y="-139.4" font-family="Monaco" font-size="12.00">,b&lt;a&gt;</text>
<text text-anchor="start" x="283.1" y="-139.4" font-family="Monaco" baseline-shift="super" font-size="8.00" fill="#00aa11">U32</text>
<text text-anchor="start" x="297.5" y="-139.4" font-family="Monaco" baseline-shift="super" font-size="8.00" fill="#3311ff">r?</text>
<text text-anchor="start" x="307.1" y="-139.4" font-family="Monaco" font-size="12.00">=&gt;a&lt;a&gt;</text>
<text text-anchor="start" x="350.31" y="-139.4" font-family="Monaco" baseline-shift="super" font-size="8.00" fill="#00aa11">U32</text>
<text text-anchor="start" x="364.71" y="-139.4" font-family="Monaco" baseline-shift="super" font-size="8.00" fill="#3311ff">r?</text>
<text text-anchor="start" x="374.31" y="-139.4" font-family="Monaco" font-size="12.00">,n0&lt;a&gt;</text>
<text text-anchor="start" x="417.52" y="-139.4" font-family="Monaco" baseline-shift="super" font-size="8.00" fill="#00aa11">U6</text>
<text text-anchor="start" x="427.12" y="-139.4" font-family="Monaco" baseline-shift="super" font-size="8.00" fill="#3311ff">r?</text>
<text text-anchor="start" x="436.72" y="-139.4" font-family="Monaco" font-size="12.00">,b&lt;a&gt;</text>
<text text-anchor="start" x="472.73" y="-139.4" font-family="Monaco" baseline-shift="super" font-size="8.00" fill="#00aa11">U32</text>
<text text-anchor="start" x="487.13" y="-139.4" font-family="Monaco" baseline-shift="super" font-size="8.00" fill="#3311ff">r?</text>
<text text-anchor="start" x="496.73" y="-139.4" font-family="Monaco" font-size="12.00">,@c&lt;a&gt;</text>
<text text-anchor="start" x="539.94" y="-139.4" font-family="Monaco" baseline-shift="super" font-size="8.00" fill="#00aa11">U1</text>
<text text-anchor="start" x="549.54" y="-139.4" font-family="Monaco" baseline-shift="super" font-size="8.00" fill="#3311ff">r?</text>
<text text-anchor="start" x="559.14" y="-139.4" font-family="Monaco" font-size="12.00">)</text>
</g>
<!-- Jump0 -->
<g id="node1" class="node">
<title>Jump0</title>
<polygon fill="none" stroke="black" points="116.32,-124 -0.11,-124 -0.11,-120 -4.11,-120 -4.11,-116 -0.11,-116 -0.11,-96 -4.11,-96 -4.11,-92 -0.11,-92 -0.11,-88 116.32,-88 116.32,-124"/>
<polyline fill="none" stroke="black" points="-0.11,-120 3.89,-120 3.89,-116 -0.11,-116 "/>
<polyline fill="none" stroke="black" points="-0.11,-96 3.89,-96 3.89,-92 -0.11,-92 "/>
<text text-anchor="start" x="20.3" y="-109.2" font-family="Monaco" baseline-shift="super" font-size="8.00" fill="#ff4411">q0</text>
<text text-anchor="start" x="29.9" y="-109.2" font-family="Monaco" font-size="11.00">StartFun.0</text>
<text text-anchor="start" x="8" y="-98.2" font-family="Monaco" font-size="11.00">n</text>
<text text-anchor="start" x="14.6" y="-98.2" font-family="Monaco" baseline-shift="super" font-size="8.00" fill="#00aa11">U6</text>
<text text-anchor="start" x="24.2" y="-98.2" font-family="Monaco" baseline-shift="super" font-size="8.00" fill="#3311ff">r?</text>
<text text-anchor="start" x="33.8" y="-98.2" font-family="Monaco" font-size="11.00">,a</text>
<text text-anchor="start" x="47.01" y="-98.2" font-family="Monaco" baseline-shift="super" font-size="8.00" fill="#00aa11">U32</text>
<text text-anchor="start" x="61.41" y="-98.2" font-family="Monaco" baseline-shift="super" font-size="8.00" fill="#3311ff">r?</text>
<text text-anchor="start" x="71.01" y="-98.2" font-family="Monaco" font-size="11.00">,b</text>
<text text-anchor="start" x="84.21" y="-98.2" font-family="Monaco" baseline-shift="super" font-size="8.00" fill="#00aa11">U32</text>
<text text-anchor="start" x="98.61" y="-98.2" font-family="Monaco" baseline-shift="super" font-size="8.00" fill="#3311ff">r?</text>
</g>
<!-- Block0 -->
<g id="node2" class="node">
<title>Block0</title>
<polygon fill="none" stroke="black" points="85.72,-52 30.5,-52 30.5,-16 85.72,-16 85.72,-52"/>
<text text-anchor="middle" x="58.11" y="-32.53" font-family="Monaco" font-size="11.00">Block0</text>
</g>
<!-- Jump0&#45;&gt;Block0 -->
<g id="edge1" class="edge">
<title>Jump0&#45;&gt;Block0</title>
<path fill="none" stroke="black" d="M58.11,-87.7C58.11,-79.98 58.11,-70.71 58.11,-62.11"/>
<polygon fill="black" stroke="black" points="61.61,-62.1 58.11,-52.1 54.61,-62.1 61.61,-62.1"/>
</g>
<!-- 1 -->
<g id="node3" class="node">
<title>1</title>
<ellipse fill="none" stroke="black" cx="349.11" cy="-106" rx="89.18" ry="18"/>
<text text-anchor="start" x="287.9" y="-105.53" font-family="Monaco" baseline-shift="super" font-size="8.00" fill="#ff4411">q1</text>
<text text-anchor="start" x="297.5" y="-105.53" font-family="Monaco" font-size="11.00">n0&lt;a&gt;</text>
<text text-anchor="start" x="330.51" y="-105.53" font-family="Monaco" baseline-shift="super" font-size="8.00" fill="#00aa11">U6</text>
<text text-anchor="start" x="340.11" y="-105.53" font-family="Monaco" baseline-shift="super" font-size="8.00" fill="#3311ff">r?</text>
<text text-anchor="start" x="349.71" y="-105.53" font-family="Monaco" font-size="11.00">:n&lt;a&gt;+</text>
<text text-anchor="start" x="389.31" y="-105.53" font-family="Monaco" baseline-shift="super" font-size="8.00" fill="#3311ff">?</text>
<text text-anchor="start" x="394.12" y="-105.53" font-family="Monaco" font-size="11.00">0</text>
<text text-anchor="start" x="400.72" y="-105.53" font-family="Monaco" baseline-shift="super" font-size="8.00" fill="#00aa11">U1</text>
</g>
<!-- 3 -->
<g id="node4" class="node">
<title>3</title>
<ellipse fill="none" stroke="black" cx="349.11" cy="-34" rx="97.67" ry="18"/>
<text text-anchor="start" x="281.3" y="-33.53" font-family="Monaco" baseline-shift="super" font-size="8.00" fill="#ff4411">q2</text>
<text text-anchor="start" x="290.9" y="-33.53" font-family="Monaco" font-size="11.00">@c&lt;a&gt;</text>
<text text-anchor="start" x="323.9" y="-33.53" font-family="Monaco" baseline-shift="super" font-size="8.00" fill="#00aa11">U1</text>
<text text-anchor="start" x="333.51" y="-33.53" font-family="Monaco" baseline-shift="super" font-size="8.00" fill="#3311ff">r?</text>
<text text-anchor="start" x="343.11" y="-33.53" font-family="Monaco" font-size="11.00">:n0&lt;a&gt;==</text>
<text text-anchor="start" x="395.92" y="-33.53" font-family="Monaco" baseline-shift="super" font-size="8.00" fill="#3311ff">?</text>
<text text-anchor="start" x="400.72" y="-33.53" font-family="Monaco" font-size="11.00">0</text>
<text text-anchor="start" x="407.32" y="-33.53" font-family="Monaco" baseline-shift="super" font-size="8.00" fill="#00aa11">U1</text>
</g>
<!-- 1&#45;&gt;3 -->
<g id="edge2" class="edge">
<title>1&#45;&gt;3</title>
<path fill="none" stroke="black" d="M349.11,-87.7C349.11,-79.98 349.11,-70.71 349.11,-62.11"/>
<polygon fill="black" stroke="black" points="352.61,-62.1 349.11,-52.1 345.61,-62.1 352.61,-62.1"/>
</g>
</g>
</svg>
