<?xml version="1.0" encoding="UTF-8" standalone="no"?>
<!DOCTYPE svg PUBLIC "-//W3C//DTD SVG 1.1//EN"
 "http://www.w3.org/Graphics/SVG/1.1/DTD/svg11.dtd">
<!-- Generated by graphviz version 2.43.0 (0)
 -->
<!-- Title: Program_ Pages: 1 -->
<svg width="1134pt" height="425pt"
 viewBox="0.00 0.00 1133.64 425.26" xmlns="http://www.w3.org/2000/svg" xmlns:xlink="http://www.w3.org/1999/xlink">
<g id="graph0" class="graph" transform="scale(1 1) rotate(0) translate(4 421.26)">
<title>Program_</title>
<polygon fill="white" stroke="transparent" points="-4,4 -4,-421.26 1129.64,-421.26 1129.64,4 -4,4"/>
<g id="clust1" class="cluster">
<title>cluster_dfg_Block0</title>
<polygon fill="none" stroke="black" points="283.64,-244.26 283.64,-409.26 495.64,-409.26 495.64,-244.26 283.64,-244.26"/>
<text text-anchor="start" x="368.04" y="-395.66" font-family="Monaco" font-size="12.00">Block0</text>
<text text-anchor="start" x="375.24" y="-379.66" font-family="Monaco" font-size="12.00">(=&gt;)</text>
</g>
<g id="clust2" class="cluster">
<title>cluster_dfg_Block0_4</title>
<polygon fill="none" stroke="black" points="503.64,-244.26 503.64,-409.26 1117.64,-409.26 1117.64,-244.26 503.64,-244.26"/>
<text text-anchor="start" x="781.84" y="-395.66" font-family="Monaco" font-size="12.00">Block0_4</text>
<text text-anchor="start" x="796.24" y="-379.66" font-family="Monaco" font-size="12.00">(=&gt;)</text>
</g>
<!-- Jump0 -->
<g id="node1" class="node">
<title>Jump0</title>
<polygon fill="none" stroke="black" points="275.86,-361.26 159.43,-361.26 159.43,-357.26 155.43,-357.26 155.43,-353.26 159.43,-353.26 159.43,-333.26 155.43,-333.26 155.43,-329.26 159.43,-329.26 159.43,-325.26 275.86,-325.26 275.86,-361.26"/>
<polyline fill="none" stroke="black" points="159.43,-357.26 163.43,-357.26 163.43,-353.26 159.43,-353.26 "/>
<polyline fill="none" stroke="black" points="159.43,-333.26 163.43,-333.26 163.43,-329.26 159.43,-329.26 "/>
<text text-anchor="start" x="179.84" y="-346.46" font-family="Monaco" baseline-shift="super" font-size="8.00" fill="#ff4411">q0</text>
<text text-anchor="start" x="189.44" y="-346.46" font-family="Monaco" font-size="11.00">StartFun.0</text>
<text text-anchor="start" x="167.54" y="-335.46" font-family="Monaco" font-size="11.00">n</text>
<text text-anchor="start" x="174.14" y="-335.46" font-family="Monaco" baseline-shift="super" font-size="8.00" fill="#00aa11">U6</text>
<text text-anchor="start" x="183.74" y="-335.46" font-family="Monaco" baseline-shift="super" font-size="8.00" fill="#3311ff">r?</text>
<text text-anchor="start" x="193.34" y="-335.46" font-family="Monaco" font-size="11.00">,a</text>
<text text-anchor="start" x="206.54" y="-335.46" font-family="Monaco" baseline-shift="super" font-size="8.00" fill="#00aa11">U32</text>
<text text-anchor="start" x="220.94" y="-335.46" font-family="Monaco" baseline-shift="super" font-size="8.00" fill="#3311ff">r?</text>
<text text-anchor="start" x="230.55" y="-335.46" font-family="Monaco" font-size="11.00">,b</text>
<text text-anchor="start" x="243.75" y="-335.46" font-family="Monaco" baseline-shift="super" font-size="8.00" fill="#00aa11">U32</text>
<text text-anchor="start" x="258.15" y="-335.46" font-family="Monaco" baseline-shift="super" font-size="8.00" fill="#3311ff">r?</text>
</g>
<!-- Block0 -->
<g id="node2" class="node">
<title>Block0</title>
<polygon fill="none" stroke="black" points="245.25,-288.26 190.04,-288.26 190.04,-252.26 245.25,-252.26 245.25,-288.26"/>
<text text-anchor="middle" x="217.64" y="-268.79" font-family="Monaco" font-size="11.00">Block0</text>
</g>
<!-- Jump0&#45;&gt;Block0 -->
<g id="edge1" class="edge">
<title>Jump0&#45;&gt;Block0</title>
<path fill="none" stroke="black" d="M217.64,-325.07C217.64,-317.04 217.64,-307.3 217.64,-298.32"/>
<polygon fill="black" stroke="black" points="221.14,-298.28 217.64,-288.28 214.14,-298.28 221.14,-298.28"/>
</g>
<!-- Jump1_7 -->
<g id="node3" class="node">
<title>Jump1_7</title>
<polygon fill="#fbb4ae" stroke="black" points="311.42,-202.82 217.64,-215.26 123.87,-202.82 123.95,-182.69 311.33,-182.69 311.42,-202.82"/>
<text text-anchor="start" x="166.64" y="-196.79" font-family="Monaco" baseline-shift="super" font-size="8.00" fill="#ff4411">q?</text>
<text text-anchor="start" x="176.24" y="-196.79" font-family="Monaco" font-size="11.00">ForLoopTop.1_7</text>
</g>
<!-- Block0&#45;&gt;Jump1_7 -->
<g id="edge2" class="edge">
<title>Block0&#45;&gt;Jump1_7</title>
<path fill="none" stroke="black" d="M217.64,-252.07C217.64,-244.04 217.64,-234.3 217.64,-225.32"/>
<polygon fill="black" stroke="black" points="221.14,-225.28 217.64,-215.28 214.14,-225.28 221.14,-225.28"/>
</g>
<!-- Block0_4 -->
<g id="node4" class="node">
<title>Block0_4</title>
<polygon fill="none" stroke="black" points="208.95,-125.63 140.33,-125.63 140.33,-89.63 208.95,-89.63 208.95,-125.63"/>
<text text-anchor="middle" x="174.64" y="-106.16" font-family="Monaco" font-size="11.00">Block0_4</text>
</g>
<!-- Jump1_7&#45;&gt;Block0_4 -->
<g id="edge3" class="edge">
<title>Jump1_7&#45;&gt;Block0_4</title>
<path fill="none" stroke="black" d="M210.93,-182.56C204.7,-169.89 195.28,-150.69 187.6,-135.04"/>
<polygon fill="black" stroke="black" points="190.64,-133.27 183.09,-125.84 184.35,-136.35 190.64,-133.27"/>
<text text-anchor="middle" x="220.45" y="-152.46" font-family="Monaco" font-size="11.00">!@c&lt;a&gt;</text>
</g>
<!-- Block1_5 -->
<g id="node6" class="node">
<title>Block1_5</title>
<polygon fill="none" stroke="black" points="318.95,-128.55 250.33,-128.55 250.33,-86.71 318.95,-86.71 318.95,-128.55"/>
<text text-anchor="start" x="258.24" y="-115.79" font-family="Monaco" font-size="11.00">Block1_5</text>
<text text-anchor="middle" x="284.64" y="-101.12" font-family="Monaco" font-size="11.00">(0行)</text>
</g>
<!-- Jump1_7&#45;&gt;Block1_5 -->
<g id="edge5" class="edge">
<title>Jump1_7&#45;&gt;Block1_5</title>
<path fill="none" stroke="black" d="M228.18,-182.64C233.18,-176.17 239.23,-168.32 244.64,-161.26 250.75,-153.28 257.37,-144.6 263.42,-136.63"/>
<polygon fill="black" stroke="black" points="266.22,-138.73 269.48,-128.65 260.65,-134.49 266.22,-138.73"/>
<text text-anchor="middle" x="273.15" y="-152.46" font-family="Monaco" font-size="11.00">@c&lt;a&gt;</text>
</g>
<!-- Jump1_8 -->
<g id="node5" class="node">
<title>Jump1_8</title>
<polygon fill="#fbb4ae" stroke="black" points="-0.14,-12.44 109.64,0 219.43,-12.44 219.33,-32.56 -0.04,-32.56 -0.14,-12.44"/>
<text text-anchor="start" x="48.73" y="-17.53" font-family="Monaco" baseline-shift="super" font-size="8.00" fill="#ff4411">q?</text>
<text text-anchor="start" x="58.34" y="-17.53" font-family="Monaco" font-size="11.00">ForLoopBottom.1_8</text>
</g>
<!-- Block0_4&#45;&gt;Jump1_8 -->
<g id="edge6" class="edge">
<title>Block0_4&#45;&gt;Jump1_8</title>
<path fill="none" stroke="black" d="M161.8,-89.32C151.53,-75.47 137.07,-55.98 125.98,-41.02"/>
<polygon fill="black" stroke="black" points="128.66,-38.77 119.9,-32.82 123.04,-42.94 128.66,-38.77"/>
</g>
<!-- Jump1_8&#45;&gt;Jump1_7 -->
<g id="edge4" class="edge">
<title>Jump1_8&#45;&gt;Jump1_7</title>
<path fill="none" stroke="#fbb4ae" d="M202.71,-32.57C255.5,-40.63 312,-50.04 316.64,-54 342.13,-75.76 340.78,-97.76 327.64,-128.59 317.64,-152.07 294.79,-168.04 272.49,-178.55"/>
<polygon fill="#fbb4ae" stroke="#fbb4ae" points="271.08,-175.35 263.34,-182.58 273.9,-181.75 271.08,-175.35"/>
</g>
<!-- Jump2_4_9 -->
<g id="node7" class="node">
<title>Jump2_4_9</title>
<polygon fill="none" stroke="black" points="341.96,-30 255.33,-30 255.33,-36 237.33,-18 255.33,0 255.33,-6 323.96,-6 323.96,0 341.96,0 341.96,-30"/>
<text text-anchor="start" x="245.24" y="-17.53" font-family="Monaco" baseline-shift="super" font-size="8.00" fill="#ff4411">q?</text>
<text text-anchor="start" x="254.84" y="-17.53" font-family="Monaco" font-size="11.00">Return.2_4_9</text>
</g>
<!-- Block1_5&#45;&gt;Jump2_4_9 -->
<g id="edge7" class="edge">
<title>Block1_5&#45;&gt;Jump2_4_9</title>
<path fill="none" stroke="black" d="M285.8,-86.3C286.48,-74.45 287.34,-59.35 288.08,-46.45"/>
<polygon fill="black" stroke="black" points="291.58,-46.44 288.66,-36.26 284.59,-46.04 291.58,-46.44"/>
<text text-anchor="middle" x="299.85" y="-59.87" font-family="Monaco" font-size="11.00">a&lt;a&gt;</text>
</g>
<!-- 8 -->
<g id="node8" class="node">
<title>8</title>
<ellipse fill="none" stroke="black" cx="389.64" cy="-343.26" rx="89.18" ry="18"/>
<text text-anchor="start" x="328.43" y="-342.79" font-family="Monaco" baseline-shift="super" font-size="8.00" fill="#ff4411">q1</text>
<text text-anchor="start" x="338.04" y="-342.79" font-family="Monaco" font-size="11.00">n0&lt;a&gt;</text>
<text text-anchor="start" x="371.04" y="-342.79" font-family="Monaco" baseline-shift="super" font-size="8.00" fill="#00aa11">U6</text>
<text text-anchor="start" x="380.64" y="-342.79" font-family="Monaco" baseline-shift="super" font-size="8.00" fill="#3311ff">r?</text>
<text text-anchor="start" x="390.24" y="-342.79" font-family="Monaco" font-size="11.00">:n&lt;a&gt;+</text>
<text text-anchor="start" x="429.85" y="-342.79" font-family="Monaco" baseline-shift="super" font-size="8.00" fill="#3311ff">?</text>
<text text-anchor="start" x="434.65" y="-342.79" font-family="Monaco" font-size="11.00">0</text>
<text text-anchor="start" x="441.25" y="-342.79" font-family="Monaco" baseline-shift="super" font-size="8.00" fill="#00aa11">U1</text>
</g>
<!-- 9 -->
<g id="node9" class="node">
<title>9</title>
<ellipse fill="none" stroke="black" cx="389.64" cy="-270.26" rx="97.67" ry="18"/>
<text text-anchor="start" x="321.83" y="-269.79" font-family="Monaco" baseline-shift="super" font-size="8.00" fill="#ff4411">q2</text>
<text text-anchor="start" x="331.43" y="-269.79" font-family="Monaco" font-size="11.00">@c&lt;a&gt;</text>
<text text-anchor="start" x="364.44" y="-269.79" font-family="Monaco" baseline-shift="super" font-size="8.00" fill="#00aa11">U1</text>
<text text-anchor="start" x="374.04" y="-269.79" font-family="Monaco" baseline-shift="super" font-size="8.00" fill="#3311ff">r?</text>
<text text-anchor="start" x="383.64" y="-269.79" font-family="Monaco" font-size="11.00">:n0&lt;a&gt;==</text>
<text text-anchor="start" x="436.45" y="-269.79" font-family="Monaco" baseline-shift="super" font-size="8.00" fill="#3311ff">?</text>
<text text-anchor="start" x="441.25" y="-269.79" font-family="Monaco" font-size="11.00">0</text>
<text text-anchor="start" x="447.85" y="-269.79" font-family="Monaco" baseline-shift="super" font-size="8.00" fill="#00aa11">U1</text>
</g>
<!-- 8&#45;&gt;9 -->
<g id="edge8" class="edge">
<title>8&#45;&gt;9</title>
<path fill="none" stroke="black" d="M389.64,-325.07C389.64,-317.04 389.64,-307.3 389.64,-298.32"/>
<polygon fill="black" stroke="black" points="393.14,-298.28 389.64,-288.28 386.14,-298.28 393.14,-298.28"/>
</g>
<!-- 10 -->
<g id="node10" class="node">
<title>10</title>
<ellipse fill="none" stroke="black" cx="1016.64" cy="-343.26" rx="93.18" ry="18"/>
<text text-anchor="start" x="952.13" y="-342.79" font-family="Monaco" baseline-shift="super" font-size="8.00" fill="#ff4411">q3</text>
<text text-anchor="start" x="961.73" y="-342.79" font-family="Monaco" font-size="11.00">@f&lt;a&gt;</text>
<text text-anchor="start" x="994.74" y="-342.79" font-family="Monaco" baseline-shift="super" font-size="8.00" fill="#00aa11">U6</text>
<text text-anchor="start" x="1004.34" y="-342.79" font-family="Monaco" baseline-shift="super" font-size="8.00" fill="#3311ff">r?</text>
<text text-anchor="start" x="1013.94" y="-342.79" font-family="Monaco" font-size="11.00">:n0&lt;a&gt;&#45;</text>
<text text-anchor="start" x="1060.15" y="-342.79" font-family="Monaco" baseline-shift="super" font-size="8.00" fill="#3311ff">?</text>
<text text-anchor="start" x="1064.95" y="-342.79" font-family="Monaco" font-size="11.00">1</text>
<text text-anchor="start" x="1071.55" y="-342.79" font-family="Monaco" baseline-shift="super" font-size="8.00" fill="#00aa11">U1</text>
</g>
<!-- 11 -->
<g id="node11" class="node">
<title>11</title>
<ellipse fill="none" stroke="black" cx="806.64" cy="-343.26" rx="98.99" ry="18"/>
<text text-anchor="start" x="737.93" y="-342.79" font-family="Monaco" baseline-shift="super" font-size="8.00" fill="#ff4411">q3</text>
<text text-anchor="start" x="747.53" y="-342.79" font-family="Monaco" font-size="11.00">@d&lt;a&gt;</text>
<text text-anchor="start" x="780.54" y="-342.79" font-family="Monaco" baseline-shift="super" font-size="8.00" fill="#00aa11">U32</text>
<text text-anchor="start" x="794.94" y="-342.79" font-family="Monaco" baseline-shift="super" font-size="8.00" fill="#3311ff">r?</text>
<text text-anchor="start" x="804.54" y="-342.79" font-family="Monaco" font-size="11.00">:a&lt;a&gt;+</text>
<text text-anchor="start" x="844.15" y="-342.79" font-family="Monaco" baseline-shift="super" font-size="8.00" fill="#3311ff">?</text>
<text text-anchor="start" x="848.95" y="-342.79" font-family="Monaco" font-size="11.00">b&lt;a&gt;</text>
</g>
<!-- 12 -->
<g id="node12" class="node">
<title>12</title>
<ellipse fill="none" stroke="black" cx="600.64" cy="-343.26" rx="89.18" ry="18"/>
<text text-anchor="start" x="539.43" y="-342.79" font-family="Monaco" baseline-shift="super" font-size="8.00" fill="#ff4411">q4</text>
<text text-anchor="start" x="549.04" y="-342.79" font-family="Monaco" font-size="11.00">n0&lt;b&gt;</text>
<text text-anchor="start" x="582.04" y="-342.79" font-family="Monaco" baseline-shift="super" font-size="8.00" fill="#00aa11">U6</text>
<text text-anchor="start" x="591.64" y="-342.79" font-family="Monaco" baseline-shift="super" font-size="8.00" fill="#3311ff">r?</text>
<text text-anchor="start" x="601.24" y="-342.79" font-family="Monaco" font-size="11.00">:n&lt;b&gt;+</text>
<text text-anchor="start" x="640.85" y="-342.79" font-family="Monaco" baseline-shift="super" font-size="8.00" fill="#3311ff">?</text>
<text text-anchor="start" x="645.65" y="-342.79" font-family="Monaco" font-size="11.00">0</text>
<text text-anchor="start" x="652.25" y="-342.79" font-family="Monaco" baseline-shift="super" font-size="8.00" fill="#00aa11">U1</text>
</g>
<!-- 13 -->
<g id="node13" class="node">
<title>13</title>
<ellipse fill="none" stroke="black" cx="609.64" cy="-270.26" rx="97.67" ry="18"/>
<text text-anchor="start" x="541.83" y="-269.79" font-family="Monaco" baseline-shift="super" font-size="8.00" fill="#ff4411">q5</text>
<text text-anchor="start" x="551.43" y="-269.79" font-family="Monaco" font-size="11.00">@c&lt;b&gt;</text>
<text text-anchor="start" x="584.44" y="-269.79" font-family="Monaco" baseline-shift="super" font-size="8.00" fill="#00aa11">U1</text>
<text text-anchor="start" x="594.04" y="-269.79" font-family="Monaco" baseline-shift="super" font-size="8.00" fill="#3311ff">r?</text>
<text text-anchor="start" x="603.64" y="-269.79" font-family="Monaco" font-size="11.00">:n0&lt;b&gt;==</text>
<text text-anchor="start" x="656.45" y="-269.79" font-family="Monaco" baseline-shift="super" font-size="8.00" fill="#3311ff">?</text>
<text text-anchor="start" x="661.25" y="-269.79" font-family="Monaco" font-size="11.00">0</text>
<text text-anchor="start" x="667.85" y="-269.79" font-family="Monaco" baseline-shift="super" font-size="8.00" fill="#00aa11">U1</text>
</g>
<!-- 12&#45;&gt;13 -->
<g id="edge9" class="edge">
<title>12&#45;&gt;13</title>
<path fill="none" stroke="black" d="M602.82,-325.07C603.84,-317.04 605.07,-307.3 606.21,-298.32"/>
<polygon fill="black" stroke="black" points="609.7,-298.65 607.49,-288.28 602.76,-297.76 609.7,-298.65"/>
</g>
</g>
</svg>
