<?xml version="1.0" encoding="UTF-8" standalone="no"?>
<!DOCTYPE svg PUBLIC "-//W3C//DTD SVG 1.1//EN"
 "http://www.w3.org/Graphics/SVG/1.1/DTD/svg11.dtd">
<!-- Generated by graphviz version 2.43.0 (0)
 -->
<!-- Title: Program_ Pages: 1 -->
<svg width="1104pt" height="403pt"
 viewBox="0.00 0.00 1104.21 403.34" xmlns="http://www.w3.org/2000/svg" xmlns:xlink="http://www.w3.org/1999/xlink">
<g id="graph0" class="graph" transform="scale(1 1) rotate(0) translate(4 399.34)">
<title>Program_</title>
<polygon fill="white" stroke="transparent" points="-4,4 -4,-399.34 1100.21,-399.34 1100.21,4 -4,4"/>
<g id="clust1" class="cluster">
<title>cluster_dfg_Block1</title>
<polygon fill="none" stroke="black" points="168.21,-78.67 168.21,-387.34 563.21,-387.34 563.21,-78.67 168.21,-78.67"/>
<text text-anchor="middle" x="365.71" y="-373.74" font-family="Monaco" font-size="12.00">Block1</text>
</g>
<g id="clust2" class="cluster">
<title>cluster_dfg_Block2</title>
<polygon fill="none" stroke="black" points="571.21,-238.34 571.21,-387.34 675.21,-387.34 675.21,-238.34 571.21,-238.34"/>
<text text-anchor="middle" x="623.21" y="-373.74" font-family="Monaco" font-size="12.00">Block2</text>
</g>
<g id="clust3" class="cluster">
<title>cluster_dfg_Block3</title>
<polygon fill="none" stroke="black" points="683.21,-78.67 683.21,-387.34 1088.21,-387.34 1088.21,-78.67 683.21,-78.67"/>
<text text-anchor="middle" x="885.71" y="-373.74" font-family="Monaco" font-size="12.00">Block3</text>
</g>
<!-- Jump2 -->
<g id="node1" class="node">
<title>Jump2</title>
<polygon fill="none" stroke="black" points="130.82,-355.34 39.59,-355.34 39.59,-351.34 35.59,-351.34 35.59,-347.34 39.59,-347.34 39.59,-327.34 35.59,-327.34 35.59,-323.34 39.59,-323.34 39.59,-319.34 130.82,-319.34 130.82,-355.34"/>
<polyline fill="none" stroke="black" points="39.59,-351.34 43.59,-351.34 43.59,-347.34 39.59,-347.34 "/>
<polyline fill="none" stroke="black" points="39.59,-327.34 43.59,-327.34 43.59,-323.34 39.59,-323.34 "/>
<text text-anchor="start" x="47.4" y="-336.87" font-family="Monaco" font-size="11.00">StartFun.2</text>
<text text-anchor="start" x="113.41" y="-336.87" font-family="Monaco" baseline-shift="super" font-size="8.00" fill="#ff4411">q0</text>
</g>
<!-- Block1 -->
<g id="node2" class="node">
<title>Block1</title>
<polygon fill="none" stroke="black" points="112.81,-282.34 57.6,-282.34 57.6,-246.34 112.81,-246.34 112.81,-282.34"/>
<text text-anchor="middle" x="85.21" y="-262.87" font-family="Monaco" font-size="11.00">Block1</text>
</g>
<!-- Jump2&#45;&gt;Block1 -->
<g id="edge1" class="edge">
<title>Jump2&#45;&gt;Block1</title>
<path fill="none" stroke="black" d="M85.21,-319.15C85.21,-311.13 85.21,-301.38 85.21,-292.41"/>
<polygon fill="black" stroke="black" points="88.71,-292.37 85.21,-282.37 81.71,-292.37 88.71,-292.37"/>
</g>
<!-- Jump3 -->
<g id="node3" class="node">
<title>Jump3</title>
<path fill="none" stroke="black" d="M114.81,-209.34C114.81,-209.34 55.6,-209.34 55.6,-209.34 49.6,-209.34 39.79,-204.7 35.97,-200.07 35.97,-200.07 21.59,-182.6 21.59,-182.6 17.78,-177.97 19.96,-173.34 25.96,-173.34 25.96,-173.34 144.45,-173.34 144.45,-173.34 150.45,-173.34 152.63,-177.97 148.82,-182.6 148.82,-182.6 134.44,-200.07 134.44,-200.07 130.62,-204.7 120.81,-209.34 114.81,-209.34"/>
<text text-anchor="start" x="54" y="-190.87" font-family="Monaco" font-size="11.00">Branch.3</text>
<text text-anchor="start" x="106.81" y="-190.87" font-family="Monaco" baseline-shift="super" font-size="8.00" fill="#ff4411">q4</text>
</g>
<!-- Block1&#45;&gt;Jump3 -->
<g id="edge2" class="edge">
<title>Block1&#45;&gt;Jump3</title>
<path fill="none" stroke="black" d="M85.21,-246.15C85.21,-238.13 85.21,-228.38 85.21,-219.41"/>
<polygon fill="black" stroke="black" points="88.71,-219.37 85.21,-209.37 81.71,-219.37 88.71,-219.37"/>
</g>
<!-- Block2 -->
<g id="node4" class="node">
<title>Block2</title>
<polygon fill="none" stroke="black" points="73.81,-122.67 18.6,-122.67 18.6,-86.67 73.81,-86.67 73.81,-122.67"/>
<text text-anchor="middle" x="46.21" y="-103.2" font-family="Monaco" font-size="11.00">Block2</text>
</g>
<!-- Jump3&#45;&gt;Block2 -->
<g id="edge3" class="edge">
<title>Jump3&#45;&gt;Block2</title>
<path fill="none" stroke="black" d="M77.31,-173.2C71.87,-161.38 64.52,-145.44 58.34,-132.01"/>
<polygon fill="black" stroke="black" points="61.45,-130.4 54.09,-122.78 55.09,-133.32 61.45,-130.4"/>
<text text-anchor="middle" x="74.81" y="-146.54" font-family="Monaco" font-size="11.00">@9</text>
</g>
<!-- Block3 -->
<g id="node5" class="node">
<title>Block3</title>
<polygon fill="none" stroke="black" points="159.81,-122.67 104.6,-122.67 104.6,-86.67 159.81,-86.67 159.81,-122.67"/>
<text text-anchor="middle" x="132.21" y="-103.2" font-family="Monaco" font-size="11.00">Block3</text>
</g>
<!-- Jump3&#45;&gt;Block3 -->
<g id="edge4" class="edge">
<title>Jump3&#45;&gt;Block3</title>
<path fill="none" stroke="black" d="M94.72,-173.2C101.34,-161.27 110.3,-145.13 117.8,-131.62"/>
<polygon fill="black" stroke="black" points="120.91,-133.22 122.71,-122.78 114.79,-129.82 120.91,-133.22"/>
<text text-anchor="middle" x="122.11" y="-146.54" font-family="Monaco" font-size="11.00">!@9</text>
</g>
<!-- Jump6 -->
<g id="node6" class="node">
<title>Jump6</title>
<polygon fill="none" stroke="black" points="78.62,-30 17.79,-30 17.79,-36 -0.21,-18 17.79,0 17.79,-6 60.62,-6 60.62,0 78.62,0 78.62,-30"/>
<text text-anchor="start" x="8" y="-17.53" font-family="Monaco" font-size="11.00">Return.6</text>
<text text-anchor="start" x="60.81" y="-17.53" font-family="Monaco" baseline-shift="super" font-size="8.00" fill="#ff4411">q5</text>
</g>
<!-- Block2&#45;&gt;Jump6 -->
<g id="edge5" class="edge">
<title>Block2&#45;&gt;Jump6</title>
<path fill="none" stroke="black" d="M44.79,-86.53C43.83,-74.94 42.54,-59.39 41.45,-46.13"/>
<polygon fill="black" stroke="black" points="44.93,-45.79 40.62,-36.11 37.96,-46.36 44.93,-45.79"/>
<text text-anchor="middle" x="53.11" y="-59.87" font-family="Monaco" font-size="11.00">@10</text>
</g>
<!-- Jump7 -->
<g id="node7" class="node">
<title>Jump7</title>
<polygon fill="none" stroke="black" points="174.62,-30 113.79,-30 113.79,-36 95.79,-18 113.79,0 113.79,-6 156.62,-6 156.62,0 174.62,0 174.62,-30"/>
<text text-anchor="start" x="104" y="-17.53" font-family="Monaco" font-size="11.00">Return.7</text>
<text text-anchor="start" x="156.81" y="-17.53" font-family="Monaco" baseline-shift="super" font-size="8.00" fill="#ff4411">q7</text>
</g>
<!-- Block3&#45;&gt;Jump7 -->
<g id="edge6" class="edge">
<title>Block3&#45;&gt;Jump7</title>
<path fill="none" stroke="black" d="M132.81,-86.53C133.22,-74.94 133.77,-59.39 134.24,-46.13"/>
<polygon fill="black" stroke="black" points="137.74,-46.23 134.6,-36.11 130.75,-45.98 137.74,-46.23"/>
<text text-anchor="middle" x="144.11" y="-59.87" font-family="Monaco" font-size="11.00">@14</text>
</g>
<!-- ndBlock1_0 -->
<g id="node8" class="node">
<title>ndBlock1_0</title>
<ellipse fill="none" stroke="black" cx="515.21" cy="-337.34" rx="39.8" ry="18"/>
<text text-anchor="start" x="492.4" y="-336.87" font-family="Monaco" font-size="11.00">a</text>
<text text-anchor="start" x="499" y="-336.87" font-family="Monaco" baseline-shift="super" font-size="8.00" fill="#3311ff">r3</text>
<text text-anchor="start" x="508.6" y="-336.87" font-family="Monaco" font-size="11.00">:in</text>
<text text-anchor="start" x="528.41" y="-336.87" font-family="Monaco" baseline-shift="super" font-size="8.00" fill="#ff4411">q0</text>
</g>
<!-- ndBlock1_2 -->
<g id="node10" class="node">
<title>ndBlock1_2</title>
<ellipse fill="none" stroke="black" cx="526.21" cy="-264.34" rx="29.45" ry="18"/>
<text text-anchor="start" x="511.5" y="-263.87" font-family="Monaco" font-size="11.00">out</text>
<text text-anchor="start" x="531.31" y="-263.87" font-family="Monaco" baseline-shift="super" font-size="8.00" fill="#ff4411">q3</text>
</g>
<!-- ndBlock1_0&#45;&gt;ndBlock1_2 -->
<g id="edge10" class="edge">
<title>ndBlock1_0&#45;&gt;ndBlock1_2</title>
<path fill="none" stroke="black" d="M517.87,-319.15C519.11,-311.13 520.62,-301.38 522.01,-292.41"/>
<polygon fill="black" stroke="black" points="525.49,-292.78 523.57,-282.37 518.58,-291.71 525.49,-292.78"/>
</g>
<!-- ndBlock1_1 -->
<g id="node9" class="node">
<title>ndBlock1_1</title>
<ellipse fill="none" stroke="black" cx="439.21" cy="-264.34" rx="39.8" ry="18"/>
<text text-anchor="start" x="416.4" y="-263.87" font-family="Monaco" font-size="11.00">@8</text>
<text text-anchor="start" x="429.6" y="-263.87" font-family="Monaco" baseline-shift="super" font-size="8.00" fill="#3311ff">r1</text>
<text text-anchor="start" x="439.21" y="-263.87" font-family="Monaco" font-size="11.00">:0</text>
<text text-anchor="start" x="452.41" y="-263.87" font-family="Monaco" baseline-shift="super" font-size="8.00" fill="#ff4411">q0</text>
</g>
<!-- ndBlock1_7 -->
<g id="node15" class="node">
<title>ndBlock1_7</title>
<ellipse fill="none" stroke="black" cx="439.21" cy="-191.34" rx="79.37" ry="18"/>
<text text-anchor="start" x="385.5" y="-190.87" font-family="Monaco" font-size="11.00">@9</text>
<text text-anchor="start" x="398.7" y="-190.87" font-family="Monaco" baseline-shift="super" font-size="8.00" fill="#3311ff">r1</text>
<text text-anchor="start" x="408.3" y="-190.87" font-family="Monaco" font-size="11.00">:n0==</text>
<text text-anchor="start" x="441.31" y="-190.87" font-family="Monaco" baseline-shift="super" font-size="8.00" fill="#3311ff">Equal3</text>
<text text-anchor="start" x="470.11" y="-190.87" font-family="Monaco" font-size="11.00">@8</text>
<text text-anchor="start" x="483.31" y="-190.87" font-family="Monaco" baseline-shift="super" font-size="8.00" fill="#ff4411">q2</text>
</g>
<!-- ndBlock1_1&#45;&gt;ndBlock1_7 -->
<g id="edge13" class="edge">
<title>ndBlock1_1&#45;&gt;ndBlock1_7</title>
<path fill="none" stroke="black" d="M439.21,-246.15C439.21,-238.13 439.21,-228.38 439.21,-219.41"/>
<polygon fill="black" stroke="black" points="442.71,-219.37 439.21,-209.37 435.71,-219.37 442.71,-219.37"/>
</g>
<!-- ndBlock1_3 -->
<g id="node11" class="node">
<title>ndBlock1_3</title>
<ellipse fill="none" stroke="black" cx="411.21" cy="-337.34" rx="39.8" ry="18"/>
<text text-anchor="start" x="388.4" y="-336.87" font-family="Monaco" font-size="11.00">@7</text>
<text text-anchor="start" x="401.6" y="-336.87" font-family="Monaco" baseline-shift="super" font-size="8.00" fill="#3311ff">r4</text>
<text text-anchor="start" x="411.21" y="-336.87" font-family="Monaco" font-size="11.00">:0</text>
<text text-anchor="start" x="424.41" y="-336.87" font-family="Monaco" baseline-shift="super" font-size="8.00" fill="#ff4411">q0</text>
</g>
<!-- ndBlock1_10 -->
<g id="node18" class="node">
<title>ndBlock1_10</title>
<ellipse fill="none" stroke="black" cx="317.21" cy="-264.34" rx="64.52" ry="18"/>
<text text-anchor="start" x="274.9" y="-263.87" font-family="Monaco" font-size="11.00">n0</text>
<text text-anchor="start" x="288.1" y="-263.87" font-family="Monaco" baseline-shift="super" font-size="8.00" fill="#3311ff">r2</text>
<text text-anchor="start" x="297.7" y="-263.87" font-family="Monaco" font-size="11.00">:n+</text>
<text text-anchor="start" x="317.51" y="-263.87" font-family="Monaco" baseline-shift="super" font-size="8.00" fill="#3311ff">Add2</text>
<text text-anchor="start" x="336.71" y="-263.87" font-family="Monaco" font-size="11.00">@7</text>
<text text-anchor="start" x="349.91" y="-263.87" font-family="Monaco" baseline-shift="super" font-size="8.00" fill="#ff4411">q1</text>
</g>
<!-- ndBlock1_3&#45;&gt;ndBlock1_10 -->
<g id="edge11" class="edge">
<title>ndBlock1_3&#45;&gt;ndBlock1_10</title>
<path fill="none" stroke="black" d="M391.73,-321.63C378.78,-311.85 361.53,-298.82 346.89,-287.76"/>
<polygon fill="black" stroke="black" points="348.71,-284.75 338.62,-281.51 344.49,-290.33 348.71,-284.75"/>
</g>
<!-- ndBlock1_4 -->
<g id="node12" class="node">
<title>ndBlock1_4</title>
<ellipse fill="none" stroke="black" cx="439.21" cy="-104.67" rx="29.45" ry="18"/>
<text text-anchor="start" x="424.5" y="-104.2" font-family="Monaco" font-size="11.00">out</text>
<text text-anchor="start" x="444.31" y="-104.2" font-family="Monaco" baseline-shift="super" font-size="8.00" fill="#ff4411">q3</text>
</g>
<!-- ndBlock1_5 -->
<g id="node13" class="node">
<title>ndBlock1_5</title>
<ellipse fill="none" stroke="black" cx="312.21" cy="-191.34" rx="29.45" ry="18"/>
<text text-anchor="start" x="297.5" y="-190.87" font-family="Monaco" font-size="11.00">out</text>
<text text-anchor="start" x="317.31" y="-190.87" font-family="Monaco" baseline-shift="super" font-size="8.00" fill="#ff4411">q3</text>
</g>
<!-- ndBlock1_6 -->
<g id="node14" class="node">
<title>ndBlock1_6</title>
<ellipse fill="none" stroke="black" cx="314.21" cy="-337.34" rx="39.8" ry="18"/>
<text text-anchor="start" x="291.4" y="-336.87" font-family="Monaco" font-size="11.00">n</text>
<text text-anchor="start" x="298" y="-336.87" font-family="Monaco" baseline-shift="super" font-size="8.00" fill="#3311ff">r2</text>
<text text-anchor="start" x="307.6" y="-336.87" font-family="Monaco" font-size="11.00">:in</text>
<text text-anchor="start" x="327.41" y="-336.87" font-family="Monaco" baseline-shift="super" font-size="8.00" fill="#ff4411">q0</text>
</g>
<!-- ndBlock1_6&#45;&gt;ndBlock1_10 -->
<g id="edge12" class="edge">
<title>ndBlock1_6&#45;&gt;ndBlock1_10</title>
<path fill="none" stroke="black" d="M314.93,-319.15C315.27,-311.13 315.68,-301.38 316.06,-292.41"/>
<polygon fill="black" stroke="black" points="319.56,-292.5 316.49,-282.37 312.57,-292.21 319.56,-292.5"/>
</g>
<!-- ndBlock1_7&#45;&gt;ndBlock1_4 -->
<g id="edge9" class="edge">
<title>ndBlock1_7&#45;&gt;ndBlock1_4</title>
<path fill="none" stroke="black" d="M439.21,-173.2C439.21,-161.61 439.21,-146.06 439.21,-132.8"/>
<polygon fill="black" stroke="black" points="442.71,-132.78 439.21,-122.78 435.71,-132.78 442.71,-132.78"/>
</g>
<!-- ndBlock1_8 -->
<g id="node16" class="node">
<title>ndBlock1_8</title>
<ellipse fill="none" stroke="black" cx="205.21" cy="-264.34" rx="29.45" ry="18"/>
<text text-anchor="start" x="190.5" y="-263.87" font-family="Monaco" font-size="11.00">out</text>
<text text-anchor="start" x="210.31" y="-263.87" font-family="Monaco" baseline-shift="super" font-size="8.00" fill="#ff4411">q3</text>
</g>
<!-- ndBlock1_9 -->
<g id="node17" class="node">
<title>ndBlock1_9</title>
<ellipse fill="none" stroke="black" cx="216.21" cy="-337.34" rx="39.8" ry="18"/>
<text text-anchor="start" x="193.4" y="-336.87" font-family="Monaco" font-size="11.00">b</text>
<text text-anchor="start" x="200" y="-336.87" font-family="Monaco" baseline-shift="super" font-size="8.00" fill="#3311ff">r0</text>
<text text-anchor="start" x="209.6" y="-336.87" font-family="Monaco" font-size="11.00">:in</text>
<text text-anchor="start" x="229.41" y="-336.87" font-family="Monaco" baseline-shift="super" font-size="8.00" fill="#ff4411">q0</text>
</g>
<!-- ndBlock1_9&#45;&gt;ndBlock1_8 -->
<g id="edge7" class="edge">
<title>ndBlock1_9&#45;&gt;ndBlock1_8</title>
<path fill="none" stroke="black" d="M213.54,-319.15C212.3,-311.13 210.79,-301.38 209.4,-292.41"/>
<polygon fill="black" stroke="black" points="212.83,-291.71 207.84,-282.37 205.92,-292.78 212.83,-291.71"/>
</g>
<!-- ndBlock1_10&#45;&gt;ndBlock1_5 -->
<g id="edge8" class="edge">
<title>ndBlock1_10&#45;&gt;ndBlock1_5</title>
<path fill="none" stroke="black" d="M315.99,-246.15C315.43,-238.13 314.74,-228.38 314.11,-219.41"/>
<polygon fill="black" stroke="black" points="317.6,-219.1 313.4,-209.37 310.62,-219.59 317.6,-219.1"/>
</g>
<!-- ndBlock1_10&#45;&gt;ndBlock1_7 -->
<g id="edge14" class="edge">
<title>ndBlock1_10&#45;&gt;ndBlock1_7</title>
<path fill="none" stroke="black" d="M343.98,-247.76C361.3,-237.68 384.06,-224.43 402.98,-213.42"/>
<polygon fill="black" stroke="black" points="404.77,-216.43 411.65,-208.37 401.25,-210.38 404.77,-216.43"/>
</g>
<!-- ndBlock2_0 -->
<g id="node19" class="node">
<title>ndBlock2_0</title>
<ellipse fill="none" stroke="black" cx="623.21" cy="-337.34" rx="43.8" ry="18"/>
<text text-anchor="start" x="597.1" y="-336.87" font-family="Monaco" font-size="11.00">@10</text>
<text text-anchor="start" x="616.9" y="-336.87" font-family="Monaco" baseline-shift="super" font-size="8.00" fill="#3311ff">r0</text>
<text text-anchor="start" x="626.51" y="-336.87" font-family="Monaco" font-size="11.00">:1</text>
<text text-anchor="start" x="639.71" y="-336.87" font-family="Monaco" baseline-shift="super" font-size="8.00" fill="#ff4411">q4</text>
</g>
<!-- ndBlock2_1 -->
<g id="node20" class="node">
<title>ndBlock2_1</title>
<ellipse fill="none" stroke="black" cx="623.21" cy="-264.34" rx="29.45" ry="18"/>
<text text-anchor="start" x="608.5" y="-263.87" font-family="Monaco" font-size="11.00">out</text>
<text text-anchor="start" x="628.31" y="-263.87" font-family="Monaco" baseline-shift="super" font-size="8.00" fill="#ff4411">q5</text>
</g>
<!-- ndBlock2_0&#45;&gt;ndBlock2_1 -->
<g id="edge15" class="edge">
<title>ndBlock2_0&#45;&gt;ndBlock2_1</title>
<path fill="none" stroke="black" d="M623.21,-319.15C623.21,-311.13 623.21,-301.38 623.21,-292.41"/>
<polygon fill="black" stroke="black" points="626.71,-292.37 623.21,-282.37 619.71,-292.37 626.71,-292.37"/>
</g>
<!-- ndBlock3_0 -->
<g id="node21" class="node">
<title>ndBlock3_0</title>
<ellipse fill="none" stroke="black" cx="841.21" cy="-337.34" rx="43.8" ry="18"/>
<text text-anchor="start" x="815.1" y="-336.87" font-family="Monaco" font-size="11.00">@12</text>
<text text-anchor="start" x="834.9" y="-336.87" font-family="Monaco" baseline-shift="super" font-size="8.00" fill="#3311ff">r1</text>
<text text-anchor="start" x="844.51" y="-336.87" font-family="Monaco" font-size="11.00">:1</text>
<text text-anchor="start" x="857.71" y="-336.87" font-family="Monaco" baseline-shift="super" font-size="8.00" fill="#ff4411">q4</text>
</g>
<!-- ndBlock3_5 -->
<g id="node26" class="node">
<title>ndBlock3_5</title>
<ellipse fill="none" stroke="black" cx="796.21" cy="-264.34" rx="77.51" ry="18"/>
<text text-anchor="start" x="744" y="-263.87" font-family="Monaco" font-size="11.00">@13</text>
<text text-anchor="start" x="763.8" y="-263.87" font-family="Monaco" baseline-shift="super" font-size="8.00" fill="#3311ff">r0</text>
<text text-anchor="start" x="773.4" y="-263.87" font-family="Monaco" font-size="11.00">:n0&#45;</text>
<text text-anchor="start" x="799.81" y="-263.87" font-family="Monaco" baseline-shift="super" font-size="8.00" fill="#3311ff">Sub4</text>
<text text-anchor="start" x="819.01" y="-263.87" font-family="Monaco" font-size="11.00">@12</text>
<text text-anchor="start" x="838.81" y="-263.87" font-family="Monaco" baseline-shift="super" font-size="8.00" fill="#ff4411">q5</text>
</g>
<!-- ndBlock3_0&#45;&gt;ndBlock3_5 -->
<g id="edge22" class="edge">
<title>ndBlock3_0&#45;&gt;ndBlock3_5</title>
<path fill="none" stroke="black" d="M830.54,-319.51C825.18,-311.06 818.57,-300.63 812.59,-291.19"/>
<polygon fill="black" stroke="black" points="815.42,-289.11 807.11,-282.54 809.5,-292.86 815.42,-289.11"/>
</g>
<!-- ndBlock3_1 -->
<g id="node22" class="node">
<title>ndBlock3_1</title>
<ellipse fill="none" stroke="black" cx="956.21" cy="-264.34" rx="64.52" ry="18"/>
<text text-anchor="start" x="913.9" y="-263.87" font-family="Monaco" font-size="11.00">@11</text>
<text text-anchor="start" x="933.7" y="-263.87" font-family="Monaco" baseline-shift="super" font-size="8.00" fill="#3311ff">r1</text>
<text text-anchor="start" x="943.3" y="-263.87" font-family="Monaco" font-size="11.00">:a+</text>
<text text-anchor="start" x="963.11" y="-263.87" font-family="Monaco" baseline-shift="super" font-size="8.00" fill="#3311ff">Add2</text>
<text text-anchor="start" x="982.31" y="-263.87" font-family="Monaco" font-size="11.00">b</text>
<text text-anchor="start" x="988.91" y="-263.87" font-family="Monaco" baseline-shift="super" font-size="8.00" fill="#ff4411">q5</text>
</g>
<!-- ndBlock3_7 -->
<g id="node28" class="node">
<title>ndBlock3_7</title>
<ellipse fill="none" stroke="black" cx="956.21" cy="-191.34" rx="99.26" ry="18"/>
<text text-anchor="start" x="887.19" y="-190.87" font-family="Monaco" font-size="11.00">@14</text>
<text text-anchor="start" x="907" y="-190.87" font-family="Monaco" baseline-shift="super" font-size="8.00" fill="#3311ff">r0</text>
<text text-anchor="start" x="916.6" y="-190.87" font-family="Monaco" font-size="11.00">:fib(@13,@11,a)</text>
<text text-anchor="start" x="1015.61" y="-190.87" font-family="Monaco" baseline-shift="super" font-size="8.00" fill="#ff4411">q6</text>
</g>
<!-- ndBlock3_1&#45;&gt;ndBlock3_7 -->
<g id="edge17" class="edge">
<title>ndBlock3_1&#45;&gt;ndBlock3_7</title>
<path fill="none" stroke="black" d="M956.21,-246.15C956.21,-238.13 956.21,-228.38 956.21,-219.41"/>
<polygon fill="black" stroke="black" points="959.71,-219.37 956.21,-209.37 952.71,-219.37 959.71,-219.37"/>
</g>
<!-- ndBlock3_2 -->
<g id="node23" class="node">
<title>ndBlock3_2</title>
<ellipse fill="none" stroke="black" cx="1040.21" cy="-337.34" rx="39.8" ry="18"/>
<text text-anchor="start" x="1017.4" y="-336.87" font-family="Monaco" font-size="11.00">a</text>
<text text-anchor="start" x="1024" y="-336.87" font-family="Monaco" baseline-shift="super" font-size="8.00" fill="#3311ff">r3</text>
<text text-anchor="start" x="1033.6" y="-336.87" font-family="Monaco" font-size="11.00">:in</text>
<text text-anchor="start" x="1053.41" y="-336.87" font-family="Monaco" baseline-shift="super" font-size="8.00" fill="#ff4411">q4</text>
</g>
<!-- ndBlock3_2&#45;&gt;ndBlock3_1 -->
<g id="edge20" class="edge">
<title>ndBlock3_2&#45;&gt;ndBlock3_1</title>
<path fill="none" stroke="black" d="M1021.98,-320.93C1010.74,-311.43 996.11,-299.06 983.5,-288.41"/>
<polygon fill="black" stroke="black" points="985.46,-285.48 975.57,-281.7 980.94,-290.83 985.46,-285.48"/>
</g>
<!-- ndBlock3_2&#45;&gt;ndBlock3_7 -->
<g id="edge18" class="edge">
<title>ndBlock3_2&#45;&gt;ndBlock3_7</title>
<path fill="none" stroke="black" d="M1042.75,-319.3C1044.95,-298.54 1045.69,-263.14 1030.21,-238.34 1023.82,-228.11 1014.24,-219.8 1004.07,-213.19"/>
<polygon fill="black" stroke="black" points="1005.83,-210.16 995.45,-208.04 1002.24,-216.17 1005.83,-210.16"/>
</g>
<!-- ndBlock3_3 -->
<g id="node24" class="node">
<title>ndBlock3_3</title>
<ellipse fill="none" stroke="black" cx="943.21" cy="-337.34" rx="39.8" ry="18"/>
<text text-anchor="start" x="920.4" y="-336.87" font-family="Monaco" font-size="11.00">b</text>
<text text-anchor="start" x="927" y="-336.87" font-family="Monaco" baseline-shift="super" font-size="8.00" fill="#3311ff">r0</text>
<text text-anchor="start" x="936.6" y="-336.87" font-family="Monaco" font-size="11.00">:in</text>
<text text-anchor="start" x="956.41" y="-336.87" font-family="Monaco" baseline-shift="super" font-size="8.00" fill="#ff4411">q4</text>
</g>
<!-- ndBlock3_3&#45;&gt;ndBlock3_1 -->
<g id="edge21" class="edge">
<title>ndBlock3_3&#45;&gt;ndBlock3_1</title>
<path fill="none" stroke="black" d="M946.35,-319.15C947.82,-311.13 949.6,-301.38 951.25,-292.41"/>
<polygon fill="black" stroke="black" points="954.73,-292.83 953.09,-282.37 947.84,-291.57 954.73,-292.83"/>
</g>
<!-- ndBlock3_4 -->
<g id="node25" class="node">
<title>ndBlock3_4</title>
<ellipse fill="none" stroke="black" cx="956.21" cy="-104.67" rx="29.45" ry="18"/>
<text text-anchor="start" x="941.5" y="-104.2" font-family="Monaco" font-size="11.00">out</text>
<text text-anchor="start" x="961.31" y="-104.2" font-family="Monaco" baseline-shift="super" font-size="8.00" fill="#ff4411">q7</text>
</g>
<!-- ndBlock3_5&#45;&gt;ndBlock3_7 -->
<g id="edge19" class="edge">
<title>ndBlock3_5&#45;&gt;ndBlock3_7</title>
<path fill="none" stroke="black" d="M830.53,-248.11C854.06,-237.66 885.52,-223.7 911.08,-212.36"/>
<polygon fill="black" stroke="black" points="912.83,-215.41 920.55,-208.16 909.99,-209.01 912.83,-215.41"/>
</g>
<!-- ndBlock3_6 -->
<g id="node27" class="node">
<title>ndBlock3_6</title>
<ellipse fill="none" stroke="black" cx="735.21" cy="-337.34" rx="43.8" ry="18"/>
<text text-anchor="start" x="709.1" y="-336.87" font-family="Monaco" font-size="11.00">n0</text>
<text text-anchor="start" x="722.3" y="-336.87" font-family="Monaco" baseline-shift="super" font-size="8.00" fill="#3311ff">r2</text>
<text text-anchor="start" x="731.9" y="-336.87" font-family="Monaco" font-size="11.00">:in</text>
<text text-anchor="start" x="751.71" y="-336.87" font-family="Monaco" baseline-shift="super" font-size="8.00" fill="#ff4411">q4</text>
</g>
<!-- ndBlock3_6&#45;&gt;ndBlock3_5 -->
<g id="edge23" class="edge">
<title>ndBlock3_6&#45;&gt;ndBlock3_5</title>
<path fill="none" stroke="black" d="M749.05,-320.23C756.7,-311.32 766.38,-300.05 774.97,-290.05"/>
<polygon fill="black" stroke="black" points="777.71,-292.24 781.57,-282.37 772.4,-287.68 777.71,-292.24"/>
</g>
<!-- ndBlock3_7&#45;&gt;ndBlock3_4 -->
<g id="edge16" class="edge">
<title>ndBlock3_7&#45;&gt;ndBlock3_4</title>
<path fill="none" stroke="black" d="M956.21,-173.2C956.21,-161.61 956.21,-146.06 956.21,-132.8"/>
<polygon fill="black" stroke="black" points="959.71,-132.78 956.21,-122.78 952.71,-132.78 959.71,-132.78"/>
</g>
</g>
</svg>
