<?xml version="1.0" encoding="UTF-8" standalone="no"?>
<!DOCTYPE svg PUBLIC "-//W3C//DTD SVG 1.1//EN"
 "http://www.w3.org/Graphics/SVG/1.1/DTD/svg11.dtd">
<!-- Generated by graphviz version 2.43.0 (0)
 -->
<!-- Title: Program_ Pages: 1 -->
<svg width="919pt" height="403pt"
 viewBox="0.00 0.00 919.40 403.34" xmlns="http://www.w3.org/2000/svg" xmlns:xlink="http://www.w3.org/1999/xlink">
<g id="graph0" class="graph" transform="scale(1 1) rotate(0) translate(4 399.34)">
<title>Program_</title>
<polygon fill="white" stroke="transparent" points="-4,4 -4,-399.34 915.4,-399.34 915.4,4 -4,4"/>
<g id="clust1" class="cluster">
<title>cluster_dfg_Block1</title>
<polygon fill="none" stroke="black" points="146.4,-165.34 146.4,-387.34 476.4,-387.34 476.4,-165.34 146.4,-165.34"/>
<text text-anchor="middle" x="311.4" y="-373.74" font-family="Monaco" font-size="12.00">Block1</text>
</g>
<g id="clust2" class="cluster">
<title>cluster_dfg_Block2</title>
<polygon fill="none" stroke="black" points="484.4,-238.34 484.4,-387.34 564.4,-387.34 564.4,-238.34 484.4,-238.34"/>
<text text-anchor="middle" x="524.4" y="-373.74" font-family="Monaco" font-size="12.00">Block2</text>
</g>
<g id="clust3" class="cluster">
<title>cluster_dfg_Block3</title>
<polygon fill="none" stroke="black" points="572.4,-78.67 572.4,-387.34 903.4,-387.34 903.4,-78.67 572.4,-78.67"/>
<text text-anchor="middle" x="737.9" y="-373.74" font-family="Monaco" font-size="12.00">Block3</text>
</g>
<!-- Jump2 -->
<g id="node1" class="node">
<title>Jump2</title>
<polygon fill="none" stroke="black" points="116.42,-355.34 34.39,-355.34 34.39,-351.34 30.39,-351.34 30.39,-347.34 34.39,-347.34 34.39,-327.34 30.39,-327.34 30.39,-323.34 34.39,-323.34 34.39,-319.34 116.42,-319.34 116.42,-355.34"/>
<polyline fill="none" stroke="black" points="34.39,-351.34 38.39,-351.34 38.39,-347.34 34.39,-347.34 "/>
<polyline fill="none" stroke="black" points="34.39,-327.34 38.39,-327.34 38.39,-323.34 34.39,-323.34 "/>
<text text-anchor="middle" x="75.4" y="-335.87" font-family="Monaco" font-size="11.00">StartFun.2</text>
</g>
<!-- Block1 -->
<g id="node2" class="node">
<title>Block1</title>
<polygon fill="none" stroke="black" points="103.01,-282.34 47.8,-282.34 47.8,-246.34 103.01,-246.34 103.01,-282.34"/>
<text text-anchor="middle" x="75.4" y="-262.87" font-family="Monaco" font-size="11.00">Block1</text>
</g>
<!-- Jump2&#45;&gt;Block1 -->
<g id="edge1" class="edge">
<title>Jump2&#45;&gt;Block1</title>
<path fill="none" stroke="black" d="M75.4,-319.15C75.4,-311.13 75.4,-301.38 75.4,-292.41"/>
<polygon fill="black" stroke="black" points="78.9,-292.37 75.4,-282.37 71.9,-292.37 78.9,-292.37"/>
</g>
<!-- Jump3 -->
<g id="node3" class="node">
<title>Jump3</title>
<path fill="none" stroke="black" d="M100.06,-209.34C100.06,-209.34 50.75,-209.34 50.75,-209.34 44.75,-209.34 35.23,-204.48 31.71,-199.62 31.71,-199.62 19.69,-183.05 19.69,-183.05 16.17,-178.19 18.64,-173.34 24.64,-173.34 24.64,-173.34 126.17,-173.34 126.17,-173.34 132.17,-173.34 134.64,-178.19 131.12,-183.05 131.12,-183.05 119.1,-199.62 119.1,-199.62 115.58,-204.48 106.06,-209.34 100.06,-209.34"/>
<text text-anchor="middle" x="75.4" y="-189.87" font-family="Monaco" font-size="11.00">Branch.3</text>
</g>
<!-- Block1&#45;&gt;Jump3 -->
<g id="edge2" class="edge">
<title>Block1&#45;&gt;Jump3</title>
<path fill="none" stroke="black" d="M75.4,-246.15C75.4,-238.13 75.4,-228.38 75.4,-219.41"/>
<polygon fill="black" stroke="black" points="78.9,-219.37 75.4,-209.37 71.9,-219.37 78.9,-219.37"/>
</g>
<!-- Block2 -->
<g id="node4" class="node">
<title>Block2</title>
<polygon fill="none" stroke="black" points="66.01,-122.67 10.8,-122.67 10.8,-86.67 66.01,-86.67 66.01,-122.67"/>
<text text-anchor="middle" x="38.4" y="-103.2" font-family="Monaco" font-size="11.00">Block2</text>
</g>
<!-- Jump3&#45;&gt;Block2 -->
<g id="edge3" class="edge">
<title>Jump3&#45;&gt;Block2</title>
<path fill="none" stroke="black" d="M67.92,-173.2C62.75,-161.38 55.78,-145.44 49.92,-132.01"/>
<polygon fill="black" stroke="black" points="53.09,-130.54 45.88,-122.78 46.68,-133.34 53.09,-130.54"/>
<text text-anchor="middle" x="66.01" y="-146.54" font-family="Monaco" font-size="11.00">@8</text>
</g>
<!-- Block3 -->
<g id="node5" class="node">
<title>Block3</title>
<polygon fill="none" stroke="black" points="146.01,-122.67 90.8,-122.67 90.8,-86.67 146.01,-86.67 146.01,-122.67"/>
<text text-anchor="middle" x="118.4" y="-103.2" font-family="Monaco" font-size="11.00">Block3</text>
</g>
<!-- Jump3&#45;&gt;Block3 -->
<g id="edge4" class="edge">
<title>Jump3&#45;&gt;Block3</title>
<path fill="none" stroke="black" d="M84.11,-173.2C90.11,-161.38 98.21,-145.44 105.02,-132.01"/>
<polygon fill="black" stroke="black" points="108.31,-133.28 109.72,-122.78 102.07,-130.11 108.31,-133.28"/>
<text text-anchor="middle" x="110.31" y="-146.54" font-family="Monaco" font-size="11.00">!@8</text>
</g>
<!-- Jump6 -->
<g id="node6" class="node">
<title>Jump6</title>
<polygon fill="none" stroke="black" points="68.71,-30 18.1,-30 18.1,-36 0.1,-18 18.1,0 18.1,-6 50.71,-6 50.71,0 68.71,0 68.71,-30"/>
<text text-anchor="middle" x="34.4" y="-16.53" font-family="Monaco" font-size="11.00">Return.6</text>
</g>
<!-- Block2&#45;&gt;Jump6 -->
<g id="edge5" class="edge">
<title>Block2&#45;&gt;Jump6</title>
<path fill="none" stroke="black" d="M37.59,-86.53C37.05,-74.94 36.31,-59.39 35.69,-46.13"/>
<polygon fill="black" stroke="black" points="39.18,-45.93 35.21,-36.11 32.19,-46.26 39.18,-45.93"/>
<text text-anchor="middle" x="44.01" y="-59.87" font-family="Monaco" font-size="11.00">@9</text>
</g>
<!-- Jump7 -->
<g id="node7" class="node">
<title>Jump7</title>
<polygon fill="none" stroke="black" points="155.71,-30 105.1,-30 105.1,-36 87.1,-18 105.1,0 105.1,-6 137.71,-6 137.71,0 155.71,0 155.71,-30"/>
<text text-anchor="middle" x="121.4" y="-16.53" font-family="Monaco" font-size="11.00">Return.7</text>
</g>
<!-- Block3&#45;&gt;Jump7 -->
<g id="edge6" class="edge">
<title>Block3&#45;&gt;Jump7</title>
<path fill="none" stroke="black" d="M119.01,-86.53C119.42,-74.94 119.97,-59.39 120.44,-46.13"/>
<polygon fill="black" stroke="black" points="123.94,-46.23 120.8,-36.11 116.95,-45.98 123.94,-46.23"/>
<text text-anchor="middle" x="130.31" y="-59.87" font-family="Monaco" font-size="11.00">@13</text>
</g>
<!-- ndBlock1_0 -->
<g id="node8" class="node">
<title>ndBlock1_0</title>
<ellipse fill="none" stroke="black" cx="275.4" cy="-191.34" rx="27" ry="18"/>
<text text-anchor="middle" x="275.4" y="-189.87" font-family="Monaco" font-size="11.00">out</text>
</g>
<!-- ndBlock1_1 -->
<g id="node9" class="node">
<title>ndBlock1_1</title>
<ellipse fill="none" stroke="black" cx="275.4" cy="-264.34" rx="48.57" ry="18"/>
<text text-anchor="middle" x="275.4" y="-262.87" font-family="Monaco" font-size="11.00">@8: n==@7</text>
</g>
<!-- ndBlock1_1&#45;&gt;ndBlock1_0 -->
<g id="edge12" class="edge">
<title>ndBlock1_1&#45;&gt;ndBlock1_0</title>
<path fill="none" stroke="black" d="M275.4,-246.15C275.4,-238.13 275.4,-228.38 275.4,-219.41"/>
<polygon fill="black" stroke="black" points="278.9,-219.37 275.4,-209.37 271.9,-219.37 278.9,-219.37"/>
</g>
<!-- ndBlock1_2 -->
<g id="node10" class="node">
<title>ndBlock1_2</title>
<ellipse fill="none" stroke="black" cx="369.4" cy="-264.34" rx="27" ry="18"/>
<text text-anchor="middle" x="369.4" y="-262.87" font-family="Monaco" font-size="11.00">out</text>
</g>
<!-- ndBlock1_3 -->
<g id="node11" class="node">
<title>ndBlock1_3</title>
<ellipse fill="none" stroke="black" cx="436.4" cy="-337.34" rx="31.58" ry="18"/>
<text text-anchor="middle" x="436.4" y="-335.87" font-family="Monaco" font-size="11.00">a: in</text>
</g>
<!-- ndBlock1_6 -->
<g id="node14" class="node">
<title>ndBlock1_6</title>
<ellipse fill="none" stroke="black" cx="441.4" cy="-264.34" rx="27" ry="18"/>
<text text-anchor="middle" x="441.4" y="-262.87" font-family="Monaco" font-size="11.00">out</text>
</g>
<!-- ndBlock1_3&#45;&gt;ndBlock1_6 -->
<g id="edge11" class="edge">
<title>ndBlock1_3&#45;&gt;ndBlock1_6</title>
<path fill="none" stroke="black" d="M437.61,-319.15C438.18,-311.13 438.87,-301.38 439.5,-292.41"/>
<polygon fill="black" stroke="black" points="442.99,-292.59 440.21,-282.37 436.01,-292.1 442.99,-292.59"/>
</g>
<!-- ndBlock1_4 -->
<g id="node12" class="node">
<title>ndBlock1_4</title>
<ellipse fill="none" stroke="black" cx="355.4" cy="-337.34" rx="31.58" ry="18"/>
<text text-anchor="middle" x="355.4" y="-335.87" font-family="Monaco" font-size="11.00">b: in</text>
</g>
<!-- ndBlock1_4&#45;&gt;ndBlock1_2 -->
<g id="edge7" class="edge">
<title>ndBlock1_4&#45;&gt;ndBlock1_2</title>
<path fill="none" stroke="black" d="M358.79,-319.15C360.38,-311.13 362.3,-301.38 364.07,-292.41"/>
<polygon fill="black" stroke="black" points="367.55,-292.85 366.05,-282.37 360.68,-291.5 367.55,-292.85"/>
</g>
<!-- ndBlock1_5 -->
<g id="node13" class="node">
<title>ndBlock1_5</title>
<ellipse fill="none" stroke="black" cx="181.4" cy="-264.34" rx="27" ry="18"/>
<text text-anchor="middle" x="181.4" y="-262.87" font-family="Monaco" font-size="11.00">out</text>
</g>
<!-- ndBlock1_7 -->
<g id="node15" class="node">
<title>ndBlock1_7</title>
<ellipse fill="none" stroke="black" cx="274.4" cy="-337.34" rx="31.58" ry="18"/>
<text text-anchor="middle" x="274.4" y="-335.87" font-family="Monaco" font-size="11.00">@7: 0</text>
</g>
<!-- ndBlock1_7&#45;&gt;ndBlock1_1 -->
<g id="edge8" class="edge">
<title>ndBlock1_7&#45;&gt;ndBlock1_1</title>
<path fill="none" stroke="black" d="M274.65,-319.15C274.76,-311.13 274.9,-301.38 275.02,-292.41"/>
<polygon fill="black" stroke="black" points="278.52,-292.41 275.16,-282.37 271.52,-292.32 278.52,-292.41"/>
</g>
<!-- ndBlock1_8 -->
<g id="node16" class="node">
<title>ndBlock1_8</title>
<ellipse fill="none" stroke="black" cx="190.4" cy="-337.34" rx="31.58" ry="18"/>
<text text-anchor="middle" x="190.4" y="-335.87" font-family="Monaco" font-size="11.00">n: in</text>
</g>
<!-- ndBlock1_8&#45;&gt;ndBlock1_1 -->
<g id="edge9" class="edge">
<title>ndBlock1_8&#45;&gt;ndBlock1_1</title>
<path fill="none" stroke="black" d="M207.61,-321.97C219.34,-312.17 235.11,-299 248.49,-287.82"/>
<polygon fill="black" stroke="black" points="251.02,-290.26 256.45,-281.17 246.54,-284.89 251.02,-290.26"/>
</g>
<!-- ndBlock1_8&#45;&gt;ndBlock1_5 -->
<g id="edge10" class="edge">
<title>ndBlock1_8&#45;&gt;ndBlock1_5</title>
<path fill="none" stroke="black" d="M188.23,-319.15C187.21,-311.13 185.97,-301.38 184.84,-292.41"/>
<polygon fill="black" stroke="black" points="188.29,-291.85 183.56,-282.37 181.35,-292.73 188.29,-291.85"/>
</g>
<!-- ndBlock2_0 -->
<g id="node17" class="node">
<title>ndBlock2_0</title>
<ellipse fill="none" stroke="black" cx="524.4" cy="-337.34" rx="31.58" ry="18"/>
<text text-anchor="middle" x="524.4" y="-335.87" font-family="Monaco" font-size="11.00">@9: 1</text>
</g>
<!-- ndBlock2_1 -->
<g id="node18" class="node">
<title>ndBlock2_1</title>
<ellipse fill="none" stroke="black" cx="524.4" cy="-264.34" rx="27" ry="18"/>
<text text-anchor="middle" x="524.4" y="-262.87" font-family="Monaco" font-size="11.00">out</text>
</g>
<!-- ndBlock2_0&#45;&gt;ndBlock2_1 -->
<g id="edge13" class="edge">
<title>ndBlock2_0&#45;&gt;ndBlock2_1</title>
<path fill="none" stroke="black" d="M524.4,-319.15C524.4,-311.13 524.4,-301.38 524.4,-292.41"/>
<polygon fill="black" stroke="black" points="527.9,-292.37 524.4,-282.37 520.9,-292.37 527.9,-292.37"/>
</g>
<!-- ndBlock3_0 -->
<g id="node19" class="node">
<title>ndBlock3_0</title>
<ellipse fill="none" stroke="black" cx="863.4" cy="-337.34" rx="31.58" ry="18"/>
<text text-anchor="middle" x="863.4" y="-335.87" font-family="Monaco" font-size="11.00">a: in</text>
</g>
<!-- ndBlock3_2 -->
<g id="node21" class="node">
<title>ndBlock3_2</title>
<ellipse fill="none" stroke="black" cx="800.4" cy="-264.34" rx="44.07" ry="18"/>
<text text-anchor="middle" x="800.4" y="-262.87" font-family="Monaco" font-size="11.00">@10: a+b</text>
</g>
<!-- ndBlock3_0&#45;&gt;ndBlock3_2 -->
<g id="edge19" class="edge">
<title>ndBlock3_0&#45;&gt;ndBlock3_2</title>
<path fill="none" stroke="black" d="M849.73,-320.93C841.49,-311.64 830.81,-299.6 821.5,-289.11"/>
<polygon fill="black" stroke="black" points="823.96,-286.61 814.7,-281.45 818.72,-291.25 823.96,-286.61"/>
</g>
<!-- ndBlock3_6 -->
<g id="node25" class="node">
<title>ndBlock3_6</title>
<ellipse fill="none" stroke="black" cx="800.4" cy="-191.34" rx="91.04" ry="18"/>
<text text-anchor="middle" x="800.4" y="-189.87" font-family="Monaco" font-size="11.00">@13: fib(@12,@10,a)</text>
</g>
<!-- ndBlock3_0&#45;&gt;ndBlock3_6 -->
<g id="edge16" class="edge">
<title>ndBlock3_0&#45;&gt;ndBlock3_6</title>
<path fill="none" stroke="black" d="M865.31,-319.32C866.81,-298.89 866.8,-264.14 853.4,-238.34 848.91,-229.68 842.05,-221.94 834.73,-215.39"/>
<polygon fill="black" stroke="black" points="836.65,-212.43 826.71,-208.76 832.19,-217.83 836.65,-212.43"/>
</g>
<!-- ndBlock3_1 -->
<g id="node20" class="node">
<title>ndBlock3_1</title>
<ellipse fill="none" stroke="black" cx="782.4" cy="-337.34" rx="31.58" ry="18"/>
<text text-anchor="middle" x="782.4" y="-335.87" font-family="Monaco" font-size="11.00">b: in</text>
</g>
<!-- ndBlock3_1&#45;&gt;ndBlock3_2 -->
<g id="edge20" class="edge">
<title>ndBlock3_1&#45;&gt;ndBlock3_2</title>
<path fill="none" stroke="black" d="M786.76,-319.15C788.82,-311.04 791.32,-301.17 793.62,-292.11"/>
<polygon fill="black" stroke="black" points="797.02,-292.92 796.09,-282.37 790.24,-291.2 797.02,-292.92"/>
</g>
<!-- ndBlock3_2&#45;&gt;ndBlock3_6 -->
<g id="edge17" class="edge">
<title>ndBlock3_2&#45;&gt;ndBlock3_6</title>
<path fill="none" stroke="black" d="M800.4,-246.15C800.4,-238.13 800.4,-228.38 800.4,-219.41"/>
<polygon fill="black" stroke="black" points="803.9,-219.37 800.4,-209.37 796.9,-219.37 803.9,-219.37"/>
</g>
<!-- ndBlock3_3 -->
<g id="node22" class="node">
<title>ndBlock3_3</title>
<ellipse fill="none" stroke="black" cx="800.4" cy="-104.67" rx="27" ry="18"/>
<text text-anchor="middle" x="800.4" y="-103.2" font-family="Monaco" font-size="11.00">out</text>
</g>
<!-- ndBlock3_4 -->
<g id="node23" class="node">
<title>ndBlock3_4</title>
<ellipse fill="none" stroke="black" cx="697.4" cy="-337.34" rx="35.58" ry="18"/>
<text text-anchor="middle" x="697.4" y="-335.87" font-family="Monaco" font-size="11.00">@11: 1</text>
</g>
<!-- ndBlock3_5 -->
<g id="node24" class="node">
<title>ndBlock3_5</title>
<ellipse fill="none" stroke="black" cx="685.4" cy="-264.34" rx="52.57" ry="18"/>
<text text-anchor="middle" x="685.4" y="-262.87" font-family="Monaco" font-size="11.00">@12: n&#45;@11</text>
</g>
<!-- ndBlock3_4&#45;&gt;ndBlock3_5 -->
<g id="edge14" class="edge">
<title>ndBlock3_4&#45;&gt;ndBlock3_5</title>
<path fill="none" stroke="black" d="M694.5,-319.15C693.14,-311.13 691.5,-301.38 689.98,-292.41"/>
<polygon fill="black" stroke="black" points="693.4,-291.64 688.28,-282.37 686.5,-292.81 693.4,-291.64"/>
</g>
<!-- ndBlock3_5&#45;&gt;ndBlock3_6 -->
<g id="edge18" class="edge">
<title>ndBlock3_5&#45;&gt;ndBlock3_6</title>
<path fill="none" stroke="black" d="M709.79,-248.28C726,-238.27 747.53,-224.98 765.53,-213.87"/>
<polygon fill="black" stroke="black" points="767.38,-216.84 774.05,-208.61 763.7,-210.88 767.38,-216.84"/>
</g>
<!-- ndBlock3_6&#45;&gt;ndBlock3_3 -->
<g id="edge21" class="edge">
<title>ndBlock3_6&#45;&gt;ndBlock3_3</title>
<path fill="none" stroke="black" d="M800.4,-173.2C800.4,-161.61 800.4,-146.06 800.4,-132.8"/>
<polygon fill="black" stroke="black" points="803.9,-132.78 800.4,-122.78 796.9,-132.78 803.9,-132.78"/>
</g>
<!-- ndBlock3_7 -->
<g id="node26" class="node">
<title>ndBlock3_7</title>
<ellipse fill="none" stroke="black" cx="612.4" cy="-337.34" rx="31.58" ry="18"/>
<text text-anchor="middle" x="612.4" y="-335.87" font-family="Monaco" font-size="11.00">n: in</text>
</g>
<!-- ndBlock3_7&#45;&gt;ndBlock3_5 -->
<g id="edge15" class="edge">
<title>ndBlock3_7&#45;&gt;ndBlock3_5</title>
<path fill="none" stroke="black" d="M627.89,-321.28C637.61,-311.82 650.36,-299.42 661.38,-288.71"/>
<polygon fill="black" stroke="black" points="663.95,-291.09 668.67,-281.61 659.06,-286.07 663.95,-291.09"/>
</g>
</g>
</svg>
