<?xml version="1.0" encoding="UTF-8" standalone="no"?>
<!DOCTYPE svg PUBLIC "-//W3C//DTD SVG 1.1//EN"
 "http://www.w3.org/Graphics/SVG/1.1/DTD/svg11.dtd">
<!-- Generated by graphviz version 2.43.0 (0)
 -->
<!-- Title: Program_ Pages: 1 -->
<svg width="1276pt" height="403pt"
 viewBox="0.00 0.00 1275.81 403.34" xmlns="http://www.w3.org/2000/svg" xmlns:xlink="http://www.w3.org/1999/xlink">
<g id="graph0" class="graph" transform="scale(1 1) rotate(0) translate(4 399.34)">
<title>Program_</title>
<polygon fill="white" stroke="transparent" points="-4,4 -4,-399.34 1271.81,-399.34 1271.81,4 -4,4"/>
<g id="clust1" class="cluster">
<title>cluster_dfg_Block0</title>
<polygon fill="none" stroke="black" points="199.81,-78.67 199.81,-387.34 671.81,-387.34 671.81,-78.67 199.81,-78.67"/>
<text text-anchor="middle" x="435.81" y="-373.74" font-family="Monaco" font-size="12.00">Block0</text>
</g>
<g id="clust2" class="cluster">
<title>cluster_dfg_Block1</title>
<polygon fill="none" stroke="black" points="679.81,-238.34 679.81,-387.34 793.81,-387.34 793.81,-238.34 679.81,-238.34"/>
<text text-anchor="middle" x="736.81" y="-373.74" font-family="Monaco" font-size="12.00">Block1</text>
</g>
<g id="clust3" class="cluster">
<title>cluster_dfg_Block2</title>
<polygon fill="none" stroke="black" points="801.81,-165.34 801.81,-387.34 1259.81,-387.34 1259.81,-165.34 801.81,-165.34"/>
<text text-anchor="middle" x="1030.81" y="-373.74" font-family="Monaco" font-size="12.00">Block2</text>
</g>
<!-- Jump0 -->
<g id="node1" class="node">
<title>Jump0</title>
<polygon fill="none" stroke="black" points="160.42,-355.34 69.19,-355.34 69.19,-351.34 65.19,-351.34 65.19,-347.34 69.19,-347.34 69.19,-327.34 65.19,-327.34 65.19,-323.34 69.19,-323.34 69.19,-319.34 160.42,-319.34 160.42,-355.34"/>
<polyline fill="none" stroke="black" points="69.19,-351.34 73.19,-351.34 73.19,-347.34 69.19,-347.34 "/>
<polyline fill="none" stroke="black" points="69.19,-327.34 73.19,-327.34 73.19,-323.34 69.19,-323.34 "/>
<text text-anchor="start" x="77" y="-340.54" font-family="Monaco" font-size="11.00">StartFun.0</text>
<text text-anchor="start" x="143.01" y="-340.54" font-family="Monaco" baseline-shift="super" font-size="8.00" fill="#ff4411">q0</text>
<text text-anchor="start" x="98.3" y="-329.54" font-family="Monaco" font-size="11.00">n,a,b</text>
</g>
<!-- Block0 -->
<g id="node2" class="node">
<title>Block0</title>
<polygon fill="none" stroke="black" points="142.41,-282.34 87.2,-282.34 87.2,-246.34 142.41,-246.34 142.41,-282.34"/>
<text text-anchor="middle" x="114.81" y="-262.87" font-family="Monaco" font-size="11.00">Block0</text>
</g>
<!-- Jump0&#45;&gt;Block0 -->
<g id="edge1" class="edge">
<title>Jump0&#45;&gt;Block0</title>
<path fill="none" stroke="black" d="M114.81,-319.15C114.81,-311.13 114.81,-301.38 114.81,-292.41"/>
<polygon fill="black" stroke="black" points="118.31,-292.37 114.81,-282.37 111.31,-292.37 118.31,-292.37"/>
</g>
<!-- Jump1 -->
<g id="node3" class="node">
<title>Jump1</title>
<path fill="none" stroke="black" d="M144.41,-209.34C144.41,-209.34 85.2,-209.34 85.2,-209.34 79.2,-209.34 69.39,-204.7 65.57,-200.07 65.57,-200.07 51.19,-182.6 51.19,-182.6 47.38,-177.97 49.57,-173.34 55.57,-173.34 55.57,-173.34 174.05,-173.34 174.05,-173.34 180.05,-173.34 182.23,-177.97 178.42,-182.6 178.42,-182.6 164.04,-200.07 164.04,-200.07 160.23,-204.7 150.41,-209.34 144.41,-209.34"/>
<text text-anchor="start" x="83.6" y="-190.87" font-family="Monaco" font-size="11.00">Branch.1</text>
<text text-anchor="start" x="136.41" y="-190.87" font-family="Monaco" baseline-shift="super" font-size="8.00" fill="#ff4411">q3</text>
</g>
<!-- Block0&#45;&gt;Jump1 -->
<g id="edge2" class="edge">
<title>Block0&#45;&gt;Jump1</title>
<path fill="none" stroke="black" d="M114.81,-246.15C114.81,-238.13 114.81,-228.38 114.81,-219.41"/>
<polygon fill="black" stroke="black" points="118.31,-219.37 114.81,-209.37 111.31,-219.37 118.31,-219.37"/>
</g>
<!-- Block1 -->
<g id="node4" class="node">
<title>Block1</title>
<polygon fill="none" stroke="black" points="84.41,-122.67 29.2,-122.67 29.2,-86.67 84.41,-86.67 84.41,-122.67"/>
<text text-anchor="middle" x="56.81" y="-103.2" font-family="Monaco" font-size="11.00">Block1</text>
</g>
<!-- Jump1&#45;&gt;Block1 -->
<g id="edge3" class="edge">
<title>Jump1&#45;&gt;Block1</title>
<path fill="none" stroke="black" d="M103.07,-173.2C94.81,-161.15 83.63,-144.82 74.32,-131.23"/>
<polygon fill="black" stroke="black" points="77.06,-129.05 68.53,-122.78 71.29,-133 77.06,-129.05"/>
<text text-anchor="middle" x="96.41" y="-146.54" font-family="Monaco" font-size="11.00">@c</text>
</g>
<!-- Block2 -->
<g id="node5" class="node">
<title>Block2</title>
<polygon fill="none" stroke="black" points="191.41,-122.67 136.2,-122.67 136.2,-86.67 191.41,-86.67 191.41,-122.67"/>
<text text-anchor="middle" x="163.81" y="-103.2" font-family="Monaco" font-size="11.00">Block2</text>
</g>
<!-- Jump1&#45;&gt;Block2 -->
<g id="edge4" class="edge">
<title>Jump1&#45;&gt;Block2</title>
<path fill="none" stroke="black" d="M124.72,-173.2C131.63,-161.27 140.97,-145.13 148.79,-131.62"/>
<polygon fill="black" stroke="black" points="151.93,-133.19 153.91,-122.78 145.87,-129.68 151.93,-133.19"/>
<text text-anchor="middle" x="152.71" y="-146.54" font-family="Monaco" font-size="11.00">!@c</text>
</g>
<!-- Jump2_4 -->
<g id="node6" class="node">
<title>Jump2_4</title>
<polygon fill="none" stroke="black" points="91.42,-30 18.19,-30 18.19,-36 0.19,-18 18.19,0 18.19,-6 73.42,-6 73.42,0 91.42,0 91.42,-30"/>
<text text-anchor="start" x="8" y="-17.53" font-family="Monaco" font-size="11.00">Return.2_4</text>
<text text-anchor="start" x="74.01" y="-17.53" font-family="Monaco" baseline-shift="super" font-size="8.00" fill="#ff4411">q5</text>
</g>
<!-- Block1&#45;&gt;Jump2_4 -->
<g id="edge5" class="edge">
<title>Block1&#45;&gt;Jump2_4</title>
<path fill="none" stroke="black" d="M54.58,-86.53C53.07,-74.94 51.05,-59.39 49.33,-46.13"/>
<polygon fill="black" stroke="black" points="52.79,-45.57 48.03,-36.11 45.85,-46.48 52.79,-45.57"/>
<text text-anchor="middle" x="56.11" y="-59.87" font-family="Monaco" font-size="11.00">a</text>
</g>
<!-- Jump2_5_6 -->
<g id="node7" class="node">
<title>Jump2_5_6</title>
<polygon fill="none" stroke="black" points="227.82,-36 109.79,-36 109.79,-32 105.79,-32 105.79,-28 109.79,-28 109.79,-8 105.79,-8 105.79,-4 109.79,-4 109.79,0 227.82,0 227.82,-36"/>
<polyline fill="none" stroke="black" points="109.79,-32 113.79,-32 113.79,-28 109.79,-28 "/>
<polyline fill="none" stroke="black" points="109.79,-8 113.79,-8 113.79,-4 109.79,-4 "/>
<text text-anchor="start" x="117.8" y="-21.2" font-family="Monaco" font-size="11.00">TailCall.2_5_6</text>
<text text-anchor="start" x="210.21" y="-21.2" font-family="Monaco" baseline-shift="super" font-size="8.00" fill="#ff4411">q7</text>
<text text-anchor="start" x="129.2" y="-10.2" font-family="Monaco" font-size="11.00">fib(@f,@d,a)</text>
</g>
<!-- Block2&#45;&gt;Jump2_5_6 -->
<g id="edge6" class="edge">
<title>Block2&#45;&gt;Jump2_5_6</title>
<path fill="none" stroke="black" d="M164.82,-86.53C165.5,-74.94 166.42,-59.39 167.2,-46.13"/>
<polygon fill="black" stroke="black" points="170.7,-46.3 167.8,-36.11 163.71,-45.88 170.7,-46.3"/>
</g>
<!-- ndBlock0_0 -->
<g id="node8" class="node">
<title>ndBlock0_0</title>
<ellipse fill="none" stroke="black" cx="409.81" cy="-264.34" rx="41.94" ry="18"/>
<text text-anchor="start" x="385.2" y="-263.87" font-family="Monaco" font-size="11.00">out(b)</text>
<text text-anchor="start" x="424.81" y="-263.87" font-family="Monaco" baseline-shift="super" font-size="8.00" fill="#ff4411">q3</text>
</g>
<!-- ndBlock0_1 -->
<g id="node9" class="node">
<title>ndBlock0_1</title>
<ellipse fill="none" stroke="black" cx="278.81" cy="-191.34" rx="46.44" ry="18"/>
<text text-anchor="start" x="250.9" y="-190.87" font-family="Monaco" font-size="11.00">out(n0)</text>
<text text-anchor="start" x="297.11" y="-190.87" font-family="Monaco" baseline-shift="super" font-size="8.00" fill="#ff4411">q3</text>
</g>
<!-- ndBlock0_2 -->
<g id="node10" class="node">
<title>ndBlock0_2</title>
<ellipse fill="none" stroke="black" cx="617.81" cy="-264.34" rx="45.66" ry="18"/>
<text text-anchor="start" x="590.2" y="-263.87" font-family="Monaco" font-size="11.00">@b</text>
<text text-anchor="start" x="603.4" y="-263.87" font-family="Monaco" baseline-shift="super" font-size="8.00" fill="#00dd33">U1</text>
<text text-anchor="start" x="613.01" y="-263.87" font-family="Monaco" baseline-shift="super" font-size="8.00" fill="#3311ff">r3</text>
<text text-anchor="start" x="622.61" y="-263.87" font-family="Monaco" font-size="11.00">:0</text>
<text text-anchor="start" x="635.81" y="-263.87" font-family="Monaco" baseline-shift="super" font-size="8.00" fill="#ff4411">q0</text>
</g>
<!-- ndBlock0_6 -->
<g id="node14" class="node">
<title>ndBlock0_6</title>
<ellipse fill="none" stroke="black" cx="502.81" cy="-191.34" rx="85.73" ry="18"/>
<text text-anchor="start" x="444.3" y="-190.87" font-family="Monaco" font-size="11.00">@c</text>
<text text-anchor="start" x="457.5" y="-190.87" font-family="Monaco" baseline-shift="super" font-size="8.00" fill="#00dd33">U1</text>
<text text-anchor="start" x="467.1" y="-190.87" font-family="Monaco" baseline-shift="super" font-size="8.00" fill="#3311ff">r3</text>
<text text-anchor="start" x="476.7" y="-190.87" font-family="Monaco" font-size="11.00">:n0==</text>
<text text-anchor="start" x="509.71" y="-190.87" font-family="Monaco" baseline-shift="super" font-size="8.00" fill="#3311ff">Equal1</text>
<text text-anchor="start" x="538.51" y="-190.87" font-family="Monaco" font-size="11.00">@b</text>
<text text-anchor="start" x="551.71" y="-190.87" font-family="Monaco" baseline-shift="super" font-size="8.00" fill="#ff4411">q2</text>
</g>
<!-- ndBlock0_2&#45;&gt;ndBlock0_6 -->
<g id="edge9" class="edge">
<title>ndBlock0_2&#45;&gt;ndBlock0_6</title>
<path fill="none" stroke="black" d="M594.26,-248.8C577.99,-238.76 556.08,-225.23 537.79,-213.93"/>
<polygon fill="black" stroke="black" points="539.48,-210.87 529.14,-208.59 535.81,-216.82 539.48,-210.87"/>
</g>
<!-- ndBlock0_3 -->
<g id="node11" class="node">
<title>ndBlock0_3</title>
<ellipse fill="none" stroke="black" cx="502.81" cy="-104.67" rx="46.44" ry="18"/>
<text text-anchor="start" x="474.9" y="-104.2" font-family="Monaco" font-size="11.00">out(@c)</text>
<text text-anchor="start" x="521.11" y="-104.2" font-family="Monaco" baseline-shift="super" font-size="8.00" fill="#ff4411">q3</text>
</g>
<!-- ndBlock0_4 -->
<g id="node12" class="node">
<title>ndBlock0_4</title>
<ellipse fill="none" stroke="black" cx="592.81" cy="-337.34" rx="48.84" ry="18"/>
<text text-anchor="start" x="562.8" y="-336.87" font-family="Monaco" font-size="11.00">a</text>
<text text-anchor="start" x="569.4" y="-336.87" font-family="Monaco" baseline-shift="super" font-size="8.00" fill="#00dd33">U32</text>
<text text-anchor="start" x="583.8" y="-336.87" font-family="Monaco" baseline-shift="super" font-size="8.00" fill="#3311ff">r1</text>
<text text-anchor="start" x="593.41" y="-336.87" font-family="Monaco" font-size="11.00">:in</text>
<text text-anchor="start" x="613.21" y="-336.87" font-family="Monaco" baseline-shift="super" font-size="8.00" fill="#ff4411">q0</text>
</g>
<!-- ndBlock0_10 -->
<g id="node18" class="node">
<title>ndBlock0_10</title>
<ellipse fill="none" stroke="black" cx="511.81" cy="-264.34" rx="41.94" ry="18"/>
<text text-anchor="start" x="487.2" y="-263.87" font-family="Monaco" font-size="11.00">out(a)</text>
<text text-anchor="start" x="526.81" y="-263.87" font-family="Monaco" baseline-shift="super" font-size="8.00" fill="#ff4411">q3</text>
</g>
<!-- ndBlock0_4&#45;&gt;ndBlock0_10 -->
<g id="edge7" class="edge">
<title>ndBlock0_4&#45;&gt;ndBlock0_10</title>
<path fill="none" stroke="black" d="M574.83,-320.58C563.74,-310.86 549.35,-298.25 537.12,-287.53"/>
<polygon fill="black" stroke="black" points="539.28,-284.77 529.45,-280.81 534.67,-290.03 539.28,-284.77"/>
</g>
<!-- ndBlock0_5 -->
<g id="node13" class="node">
<title>ndBlock0_5</title>
<ellipse fill="none" stroke="black" cx="476.81" cy="-337.34" rx="48.84" ry="18"/>
<text text-anchor="start" x="446.8" y="-336.87" font-family="Monaco" font-size="11.00">b</text>
<text text-anchor="start" x="453.4" y="-336.87" font-family="Monaco" baseline-shift="super" font-size="8.00" fill="#00dd33">U32</text>
<text text-anchor="start" x="467.8" y="-336.87" font-family="Monaco" baseline-shift="super" font-size="8.00" fill="#3311ff">r2</text>
<text text-anchor="start" x="477.41" y="-336.87" font-family="Monaco" font-size="11.00">:in</text>
<text text-anchor="start" x="497.21" y="-336.87" font-family="Monaco" baseline-shift="super" font-size="8.00" fill="#ff4411">q0</text>
</g>
<!-- ndBlock0_5&#45;&gt;ndBlock0_0 -->
<g id="edge13" class="edge">
<title>ndBlock0_5&#45;&gt;ndBlock0_0</title>
<path fill="none" stroke="black" d="M461.6,-320.23C452.87,-310.97 441.73,-299.17 432.03,-288.89"/>
<polygon fill="black" stroke="black" points="434.36,-286.26 424.95,-281.38 429.27,-291.06 434.36,-286.26"/>
</g>
<!-- ndBlock0_6&#45;&gt;ndBlock0_3 -->
<g id="edge8" class="edge">
<title>ndBlock0_6&#45;&gt;ndBlock0_3</title>
<path fill="none" stroke="black" d="M502.81,-173.2C502.81,-161.61 502.81,-146.06 502.81,-132.8"/>
<polygon fill="black" stroke="black" points="506.31,-132.78 502.81,-122.78 499.31,-132.78 506.31,-132.78"/>
</g>
<!-- ndBlock0_7 -->
<g id="node15" class="node">
<title>ndBlock0_7</title>
<ellipse fill="none" stroke="black" cx="363.81" cy="-337.34" rx="45.66" ry="18"/>
<text text-anchor="start" x="336.2" y="-336.87" font-family="Monaco" font-size="11.00">@a</text>
<text text-anchor="start" x="349.4" y="-336.87" font-family="Monaco" baseline-shift="super" font-size="8.00" fill="#00dd33">U1</text>
<text text-anchor="start" x="359.01" y="-336.87" font-family="Monaco" baseline-shift="super" font-size="8.00" fill="#3311ff">r4</text>
<text text-anchor="start" x="368.61" y="-336.87" font-family="Monaco" font-size="11.00">:0</text>
<text text-anchor="start" x="381.81" y="-336.87" font-family="Monaco" baseline-shift="super" font-size="8.00" fill="#ff4411">q0</text>
</g>
<!-- ndBlock0_9 -->
<g id="node17" class="node">
<title>ndBlock0_9</title>
<ellipse fill="none" stroke="black" cx="278.81" cy="-264.34" rx="70.87" ry="18"/>
<text text-anchor="start" x="231.7" y="-263.87" font-family="Monaco" font-size="11.00">n0</text>
<text text-anchor="start" x="244.9" y="-263.87" font-family="Monaco" baseline-shift="super" font-size="8.00" fill="#00dd33">U6</text>
<text text-anchor="start" x="254.5" y="-263.87" font-family="Monaco" baseline-shift="super" font-size="8.00" fill="#3311ff">r0</text>
<text text-anchor="start" x="264.1" y="-263.87" font-family="Monaco" font-size="11.00">:n+</text>
<text text-anchor="start" x="283.91" y="-263.87" font-family="Monaco" baseline-shift="super" font-size="8.00" fill="#3311ff">Add0</text>
<text text-anchor="start" x="303.11" y="-263.87" font-family="Monaco" font-size="11.00">@a</text>
<text text-anchor="start" x="316.31" y="-263.87" font-family="Monaco" baseline-shift="super" font-size="8.00" fill="#ff4411">q1</text>
</g>
<!-- ndBlock0_7&#45;&gt;ndBlock0_9 -->
<g id="edge11" class="edge">
<title>ndBlock0_7&#45;&gt;ndBlock0_9</title>
<path fill="none" stroke="black" d="M344.94,-320.58C333.63,-311.13 319.04,-298.94 306.44,-288.42"/>
<polygon fill="black" stroke="black" points="308.42,-285.51 298.5,-281.79 303.93,-290.89 308.42,-285.51"/>
</g>
<!-- ndBlock0_8 -->
<g id="node16" class="node">
<title>ndBlock0_8</title>
<ellipse fill="none" stroke="black" cx="253.81" cy="-337.34" rx="45.66" ry="18"/>
<text text-anchor="start" x="226.2" y="-336.87" font-family="Monaco" font-size="11.00">n</text>
<text text-anchor="start" x="232.8" y="-336.87" font-family="Monaco" baseline-shift="super" font-size="8.00" fill="#00dd33">U6</text>
<text text-anchor="start" x="242.4" y="-336.87" font-family="Monaco" baseline-shift="super" font-size="8.00" fill="#3311ff">r0</text>
<text text-anchor="start" x="252.01" y="-336.87" font-family="Monaco" font-size="11.00">:in</text>
<text text-anchor="start" x="271.81" y="-336.87" font-family="Monaco" baseline-shift="super" font-size="8.00" fill="#ff4411">q0</text>
</g>
<!-- ndBlock0_8&#45;&gt;ndBlock0_9 -->
<g id="edge12" class="edge">
<title>ndBlock0_8&#45;&gt;ndBlock0_9</title>
<path fill="none" stroke="black" d="M259.86,-319.15C262.74,-310.95 266.26,-300.96 269.48,-291.82"/>
<polygon fill="black" stroke="black" points="272.79,-292.96 272.81,-282.37 266.19,-290.64 272.79,-292.96"/>
</g>
<!-- ndBlock0_9&#45;&gt;ndBlock0_1 -->
<g id="edge14" class="edge">
<title>ndBlock0_9&#45;&gt;ndBlock0_1</title>
<path fill="none" stroke="black" d="M278.81,-246.15C278.81,-238.13 278.81,-228.38 278.81,-219.41"/>
<polygon fill="black" stroke="black" points="282.31,-219.37 278.81,-209.37 275.31,-219.37 282.31,-219.37"/>
</g>
<!-- ndBlock0_9&#45;&gt;ndBlock0_6 -->
<g id="edge10" class="edge">
<title>ndBlock0_9&#45;&gt;ndBlock0_6</title>
<path fill="none" stroke="black" d="M321.2,-249.9C357.1,-238.52 408.8,-222.13 447.86,-209.75"/>
<polygon fill="black" stroke="black" points="449.03,-213.05 457.51,-206.7 446.92,-206.38 449.03,-213.05"/>
</g>
<!-- ndBlock1_0 -->
<g id="node19" class="node">
<title>ndBlock1_0</title>
<ellipse fill="none" stroke="black" cx="736.81" cy="-337.34" rx="48.84" ry="18"/>
<text text-anchor="start" x="706.8" y="-336.87" font-family="Monaco" font-size="11.00">a</text>
<text text-anchor="start" x="713.4" y="-336.87" font-family="Monaco" baseline-shift="super" font-size="8.00" fill="#00dd33">U32</text>
<text text-anchor="start" x="727.8" y="-336.87" font-family="Monaco" baseline-shift="super" font-size="8.00" fill="#3311ff">r1</text>
<text text-anchor="start" x="737.41" y="-336.87" font-family="Monaco" font-size="11.00">:in</text>
<text text-anchor="start" x="757.21" y="-336.87" font-family="Monaco" baseline-shift="super" font-size="8.00" fill="#ff4411">q3</text>
</g>
<!-- ndBlock1_1 -->
<g id="node20" class="node">
<title>ndBlock1_1</title>
<ellipse fill="none" stroke="black" cx="736.81" cy="-264.34" rx="41.94" ry="18"/>
<text text-anchor="start" x="712.2" y="-263.87" font-family="Monaco" font-size="11.00">out(a)</text>
<text text-anchor="start" x="751.81" y="-263.87" font-family="Monaco" baseline-shift="super" font-size="8.00" fill="#ff4411">q5</text>
</g>
<!-- ndBlock1_0&#45;&gt;ndBlock1_1 -->
<g id="edge15" class="edge">
<title>ndBlock1_0&#45;&gt;ndBlock1_1</title>
<path fill="none" stroke="black" d="M736.81,-319.15C736.81,-311.13 736.81,-301.38 736.81,-292.41"/>
<polygon fill="black" stroke="black" points="740.31,-292.37 736.81,-282.37 733.31,-292.37 740.31,-292.37"/>
</g>
<!-- ndBlock2_0 -->
<g id="node21" class="node">
<title>ndBlock2_0</title>
<ellipse fill="none" stroke="black" cx="973.81" cy="-337.34" rx="45.66" ry="18"/>
<text text-anchor="start" x="946.2" y="-336.87" font-family="Monaco" font-size="11.00">@e</text>
<text text-anchor="start" x="959.4" y="-336.87" font-family="Monaco" baseline-shift="super" font-size="8.00" fill="#00dd33">U1</text>
<text text-anchor="start" x="969.01" y="-336.87" font-family="Monaco" baseline-shift="super" font-size="8.00" fill="#3311ff">r3</text>
<text text-anchor="start" x="978.61" y="-336.87" font-family="Monaco" font-size="11.00">:1</text>
<text text-anchor="start" x="991.81" y="-336.87" font-family="Monaco" baseline-shift="super" font-size="8.00" fill="#ff4411">q3</text>
</g>
<!-- ndBlock2_1 -->
<g id="node22" class="node">
<title>ndBlock2_1</title>
<ellipse fill="none" stroke="black" cx="900.81" cy="-264.34" rx="75.37" ry="18"/>
<text text-anchor="start" x="850.4" y="-263.87" font-family="Monaco" font-size="11.00">@f</text>
<text text-anchor="start" x="863.6" y="-263.87" font-family="Monaco" baseline-shift="super" font-size="8.00" fill="#00dd33">U6</text>
<text text-anchor="start" x="873.2" y="-263.87" font-family="Monaco" baseline-shift="super" font-size="8.00" fill="#3311ff">r2</text>
<text text-anchor="start" x="882.8" y="-263.87" font-family="Monaco" font-size="11.00">:n0&#45;</text>
<text text-anchor="start" x="909.21" y="-263.87" font-family="Monaco" baseline-shift="super" font-size="8.00" fill="#3311ff">Sub2</text>
<text text-anchor="start" x="928.41" y="-263.87" font-family="Monaco" font-size="11.00">@e</text>
<text text-anchor="start" x="941.61" y="-263.87" font-family="Monaco" baseline-shift="super" font-size="8.00" fill="#ff4411">q6</text>
</g>
<!-- ndBlock2_0&#45;&gt;ndBlock2_1 -->
<g id="edge20" class="edge">
<title>ndBlock2_0&#45;&gt;ndBlock2_1</title>
<path fill="none" stroke="black" d="M957.24,-320.23C947.76,-311.01 935.7,-299.27 925.16,-289.02"/>
<polygon fill="black" stroke="black" points="927.42,-286.34 917.81,-281.88 922.54,-291.36 927.42,-286.34"/>
</g>
<!-- ndBlock2_6 -->
<g id="node27" class="node">
<title>ndBlock2_6</title>
<ellipse fill="none" stroke="black" cx="900.81" cy="-191.34" rx="46.44" ry="18"/>
<text text-anchor="start" x="872.9" y="-190.87" font-family="Monaco" font-size="11.00">out(@f)</text>
<text text-anchor="start" x="919.11" y="-190.87" font-family="Monaco" baseline-shift="super" font-size="8.00" fill="#ff4411">q7</text>
</g>
<!-- ndBlock2_1&#45;&gt;ndBlock2_6 -->
<g id="edge22" class="edge">
<title>ndBlock2_1&#45;&gt;ndBlock2_6</title>
<path fill="none" stroke="black" d="M900.81,-246.15C900.81,-238.13 900.81,-228.38 900.81,-219.41"/>
<polygon fill="black" stroke="black" points="904.31,-219.37 900.81,-209.37 897.31,-219.37 904.31,-219.37"/>
</g>
<!-- ndBlock2_2 -->
<g id="node23" class="node">
<title>ndBlock2_2</title>
<ellipse fill="none" stroke="black" cx="1079.81" cy="-191.34" rx="46.44" ry="18"/>
<text text-anchor="start" x="1051.9" y="-190.87" font-family="Monaco" font-size="11.00">out(@d)</text>
<text text-anchor="start" x="1098.11" y="-190.87" font-family="Monaco" baseline-shift="super" font-size="8.00" fill="#ff4411">q7</text>
</g>
<!-- ndBlock2_3 -->
<g id="node24" class="node">
<title>ndBlock2_3</title>
<ellipse fill="none" stroke="black" cx="1079.81" cy="-264.34" rx="69.56" ry="18"/>
<text text-anchor="start" x="1033.6" y="-263.87" font-family="Monaco" font-size="11.00">@d</text>
<text text-anchor="start" x="1046.8" y="-263.87" font-family="Monaco" baseline-shift="super" font-size="8.00" fill="#00dd33">U32</text>
<text text-anchor="start" x="1061.2" y="-263.87" font-family="Monaco" baseline-shift="super" font-size="8.00" fill="#3311ff">r0</text>
<text text-anchor="start" x="1070.8" y="-263.87" font-family="Monaco" font-size="11.00">:a+</text>
<text text-anchor="start" x="1090.61" y="-263.87" font-family="Monaco" baseline-shift="super" font-size="8.00" fill="#3311ff">Add0</text>
<text text-anchor="start" x="1109.81" y="-263.87" font-family="Monaco" font-size="11.00">b</text>
<text text-anchor="start" x="1116.41" y="-263.87" font-family="Monaco" baseline-shift="super" font-size="8.00" fill="#ff4411">q6</text>
</g>
<!-- ndBlock2_3&#45;&gt;ndBlock2_2 -->
<g id="edge17" class="edge">
<title>ndBlock2_3&#45;&gt;ndBlock2_2</title>
<path fill="none" stroke="black" d="M1079.81,-246.15C1079.81,-238.13 1079.81,-228.38 1079.81,-219.41"/>
<polygon fill="black" stroke="black" points="1083.31,-219.37 1079.81,-209.37 1076.31,-219.37 1083.31,-219.37"/>
</g>
<!-- ndBlock2_4 -->
<g id="node25" class="node">
<title>ndBlock2_4</title>
<ellipse fill="none" stroke="black" cx="1202.81" cy="-337.34" rx="48.84" ry="18"/>
<text text-anchor="start" x="1172.8" y="-336.87" font-family="Monaco" font-size="11.00">a</text>
<text text-anchor="start" x="1179.4" y="-336.87" font-family="Monaco" baseline-shift="super" font-size="8.00" fill="#00dd33">U32</text>
<text text-anchor="start" x="1193.8" y="-336.87" font-family="Monaco" baseline-shift="super" font-size="8.00" fill="#3311ff">r1</text>
<text text-anchor="start" x="1203.41" y="-336.87" font-family="Monaco" font-size="11.00">:in</text>
<text text-anchor="start" x="1223.21" y="-336.87" font-family="Monaco" baseline-shift="super" font-size="8.00" fill="#ff4411">q3</text>
</g>
<!-- ndBlock2_4&#45;&gt;ndBlock2_3 -->
<g id="edge18" class="edge">
<title>ndBlock2_4&#45;&gt;ndBlock2_3</title>
<path fill="none" stroke="black" d="M1177.62,-321.8C1159.82,-311.52 1135.7,-297.6 1115.87,-286.15"/>
<polygon fill="black" stroke="black" points="1117.51,-283.06 1107.1,-281.09 1114.01,-289.12 1117.51,-283.06"/>
</g>
<!-- ndBlock2_5 -->
<g id="node26" class="node">
<title>ndBlock2_5</title>
<ellipse fill="none" stroke="black" cx="1209.81" cy="-264.34" rx="41.94" ry="18"/>
<text text-anchor="start" x="1185.2" y="-263.87" font-family="Monaco" font-size="11.00">out(a)</text>
<text text-anchor="start" x="1224.81" y="-263.87" font-family="Monaco" baseline-shift="super" font-size="8.00" fill="#ff4411">q7</text>
</g>
<!-- ndBlock2_4&#45;&gt;ndBlock2_5 -->
<g id="edge16" class="edge">
<title>ndBlock2_4&#45;&gt;ndBlock2_5</title>
<path fill="none" stroke="black" d="M1204.5,-319.15C1205.29,-311.13 1206.25,-301.38 1207.14,-292.41"/>
<polygon fill="black" stroke="black" points="1210.63,-292.66 1208.13,-282.37 1203.66,-291.97 1210.63,-292.66"/>
</g>
<!-- ndBlock2_7 -->
<g id="node28" class="node">
<title>ndBlock2_7</title>
<ellipse fill="none" stroke="black" cx="1086.81" cy="-337.34" rx="48.84" ry="18"/>
<text text-anchor="start" x="1056.8" y="-336.87" font-family="Monaco" font-size="11.00">b</text>
<text text-anchor="start" x="1063.4" y="-336.87" font-family="Monaco" baseline-shift="super" font-size="8.00" fill="#00dd33">U32</text>
<text text-anchor="start" x="1077.8" y="-336.87" font-family="Monaco" baseline-shift="super" font-size="8.00" fill="#3311ff">r2</text>
<text text-anchor="start" x="1087.41" y="-336.87" font-family="Monaco" font-size="11.00">:in</text>
<text text-anchor="start" x="1107.21" y="-336.87" font-family="Monaco" baseline-shift="super" font-size="8.00" fill="#ff4411">q3</text>
</g>
<!-- ndBlock2_7&#45;&gt;ndBlock2_3 -->
<g id="edge19" class="edge">
<title>ndBlock2_7&#45;&gt;ndBlock2_3</title>
<path fill="none" stroke="black" d="M1085.11,-319.15C1084.32,-311.13 1083.36,-301.38 1082.47,-292.41"/>
<polygon fill="black" stroke="black" points="1085.95,-291.97 1081.49,-282.37 1078.98,-292.66 1085.95,-291.97"/>
</g>
<!-- ndBlock2_8 -->
<g id="node29" class="node">
<title>ndBlock2_8</title>
<ellipse fill="none" stroke="black" cx="859.81" cy="-337.34" rx="50.16" ry="18"/>
<text text-anchor="start" x="828.9" y="-336.87" font-family="Monaco" font-size="11.00">n0</text>
<text text-anchor="start" x="842.1" y="-336.87" font-family="Monaco" baseline-shift="super" font-size="8.00" fill="#00dd33">U6</text>
<text text-anchor="start" x="851.7" y="-336.87" font-family="Monaco" baseline-shift="super" font-size="8.00" fill="#3311ff">r0</text>
<text text-anchor="start" x="861.31" y="-336.87" font-family="Monaco" font-size="11.00">:in</text>
<text text-anchor="start" x="881.11" y="-336.87" font-family="Monaco" baseline-shift="super" font-size="8.00" fill="#ff4411">q3</text>
</g>
<!-- ndBlock2_8&#45;&gt;ndBlock2_1 -->
<g id="edge21" class="edge">
<title>ndBlock2_8&#45;&gt;ndBlock2_1</title>
<path fill="none" stroke="black" d="M869.52,-319.51C874.35,-311.15 880.3,-300.85 885.71,-291.48"/>
<polygon fill="black" stroke="black" points="888.9,-292.95 890.87,-282.54 882.84,-289.44 888.9,-292.95"/>
</g>
</g>
</svg>
