<?xml version="1.0" encoding="UTF-8" standalone="no"?>
<!DOCTYPE svg PUBLIC "-//W3C//DTD SVG 1.1//EN"
 "http://www.w3.org/Graphics/SVG/1.1/DTD/svg11.dtd">
<!-- Generated by graphviz version 2.43.0 (0)
 -->
<!-- Title: Program_ Pages: 1 -->
<svg width="412pt" height="607pt"
 viewBox="0.00 0.00 412.00 606.67" xmlns="http://www.w3.org/2000/svg" xmlns:xlink="http://www.w3.org/1999/xlink">
<g id="graph0" class="graph" transform="scale(1 1) rotate(0) translate(4 602.67)">
<title>Program_</title>
<polygon fill="white" stroke="transparent" points="-4,4 -4,-602.67 408,-602.67 408,4 -4,4"/>
<!-- Jump2 -->
<g id="node1" class="node">
<title>Jump2</title>
<polygon fill="none" stroke="black" points="218.51,-598.67 136.49,-598.67 136.49,-594.67 132.49,-594.67 132.49,-590.67 136.49,-590.67 136.49,-570.67 132.49,-570.67 132.49,-566.67 136.49,-566.67 136.49,-562.67 218.51,-562.67 218.51,-598.67"/>
<polyline fill="none" stroke="black" points="136.49,-594.67 140.49,-594.67 140.49,-590.67 136.49,-590.67 "/>
<polyline fill="none" stroke="black" points="136.49,-570.67 140.49,-570.67 140.49,-566.67 136.49,-566.67 "/>
<text text-anchor="middle" x="177.5" y="-579.21" font-family="Monaco" font-size="11.00">StartFun.2</text>
</g>
<!-- Block1 -->
<g id="node2" class="node">
<title>Block1</title>
<polygon fill="none" stroke="black" points="0.5,-505.67 0.5,-525.67 355.5,-525.67 355.5,-505.67 0.5,-505.67"/>
<text text-anchor="start" x="3.5" y="-513.87" font-family="Monaco" font-size="11.00">Vector(~7 =Const 0L, Input(&quot;n&quot;), &quot;~8&quot; =BinOP n == ~7)</text>
</g>
<!-- Jump2&#45;&gt;Block1 -->
<g id="edge1" class="edge">
<title>Jump2&#45;&gt;Block1</title>
<path fill="none" stroke="black" d="M177.5,-562.46C177.5,-554.25 177.5,-544.4 177.5,-535.95"/>
<polygon fill="black" stroke="black" points="181,-535.89 177.5,-525.89 174,-535.89 181,-535.89"/>
</g>
<!-- Jump3 -->
<g id="node3" class="node">
<title>Jump3</title>
<path fill="none" stroke="black" d="M216.21,-468.67C216.21,-468.67 138.79,-468.67 138.79,-468.67 132.79,-468.67 122.54,-464.44 118.29,-460.2 118.29,-460.2 99.17,-441.15 99.17,-441.15 94.92,-436.91 96.67,-432.67 102.67,-432.67 102.67,-432.67 252.33,-432.67 252.33,-432.67 258.33,-432.67 260.08,-436.91 255.83,-441.15 255.83,-441.15 236.71,-460.2 236.71,-460.2 232.46,-464.44 222.21,-468.67 216.21,-468.67"/>
<text text-anchor="middle" x="177.5" y="-449.21" font-family="Monaco" font-size="11.00">Branch.3(~8)</text>
</g>
<!-- Block1&#45;&gt;Jump3 -->
<g id="edge2" class="edge">
<title>Block1&#45;&gt;Jump3</title>
<path fill="none" stroke="black" d="M177.5,-505.65C177.5,-498.6 177.5,-488.43 177.5,-478.8"/>
<polygon fill="black" stroke="black" points="181,-478.75 177.5,-468.75 174,-478.76 181,-478.75"/>
</g>
<!-- Block2 -->
<g id="node4" class="node">
<title>Block2</title>
<polygon fill="none" stroke="black" points="4.5,-303.01 4.5,-323.01 142.5,-323.01 142.5,-303.01 4.5,-303.01"/>
<text text-anchor="start" x="7.5" y="-311.21" font-family="Monaco" font-size="11.00">Vector(~9 =Const 1L)</text>
</g>
<!-- Jump3&#45;&gt;Block2 -->
<g id="edge3" class="edge">
<title>Jump3&#45;&gt;Block2</title>
<path fill="none" stroke="black" d="M164.33,-432.49C144.38,-406.47 106.72,-357.34 86.73,-331.27"/>
<polygon fill="black" stroke="black" points="89.32,-328.89 80.46,-323.08 83.77,-333.15 89.32,-328.89"/>
<text text-anchor="middle" x="163.7" y="-405.87" font-family="Monaco" font-size="11.00">true</text>
</g>
<!-- Block3 -->
<g id="node5" class="node">
<title>Block3</title>
<polygon fill="none" stroke="black" points="161.5,-244.01 161.5,-382.01 404.5,-382.01 404.5,-244.01 161.5,-244.01"/>
<text text-anchor="start" x="164.5" y="-370.21" font-family="Monaco" font-size="11.00">Vector(</text>
<text text-anchor="start" x="164.5" y="-355.54" font-family="Monaco" font-size="11.00"> &#160;Input(&quot;a&quot;),</text>
<text text-anchor="start" x="164.5" y="-340.87" font-family="Monaco" font-size="11.00"> &#160;Input(&quot;b&quot;),</text>
<text text-anchor="start" x="164.5" y="-326.2" font-family="Monaco" font-size="11.00"> &#160;&quot;~10&quot; =BinOP a + b,</text>
<text text-anchor="start" x="164.5" y="-311.53" font-family="Monaco" font-size="11.00"> &#160;~11 =Const 1L,</text>
<text text-anchor="start" x="164.5" y="-296.86" font-family="Monaco" font-size="11.00"> &#160;Input(&quot;n&quot;),</text>
<text text-anchor="start" x="164.5" y="-282.19" font-family="Monaco" font-size="11.00"> &#160;&quot;~12&quot; =BinOP n &#45; ~11,</text>
<text text-anchor="start" x="164.5" y="-267.53" font-family="Monaco" font-size="11.00"> &#160;&quot;~13&quot; =Call fib(&quot;~12&quot;, &quot;~10&quot;, &quot;a&quot;)</text>
<text text-anchor="start" x="164.5" y="-252.86" font-family="Monaco" font-size="11.00">)</text>
</g>
<!-- Jump3&#45;&gt;Block3 -->
<g id="edge4" class="edge">
<title>Jump3&#45;&gt;Block3</title>
<path fill="none" stroke="black" d="M190.8,-432.49C199.35,-421.44 211.13,-406.22 223.39,-390.37"/>
<polygon fill="black" stroke="black" points="226.49,-392.1 229.84,-382.05 220.95,-387.81 226.49,-392.1"/>
<text text-anchor="middle" x="231" y="-405.87" font-family="Monaco" font-size="11.00">false</text>
</g>
<!-- Jump4 -->
<g id="node6" class="node">
<title>Jump4</title>
<path fill="none" stroke="black" d="M156.36,-157.34C156.36,-157.34 198.64,-157.34 198.64,-157.34 204.64,-157.34 213.93,-162.35 217.22,-167.37 217.22,-167.37 227.66,-183.3 227.66,-183.3 230.95,-188.32 228.24,-193.34 222.24,-193.34 222.24,-193.34 132.76,-193.34 132.76,-193.34 126.76,-193.34 124.05,-188.32 127.34,-183.3 127.34,-183.3 137.78,-167.37 137.78,-167.37 141.07,-162.35 150.36,-157.34 156.36,-157.34"/>
<text text-anchor="middle" x="177.5" y="-173.87" font-family="Monaco" font-size="11.00">Merge.4</text>
</g>
<!-- Block2&#45;&gt;Jump4 -->
<g id="edge5" class="edge">
<title>Block2&#45;&gt;Jump4</title>
<path fill="none" stroke="black" d="M80.65,-302.68C96.42,-282.11 134.66,-232.22 158.1,-201.65"/>
<polygon fill="black" stroke="black" points="160.98,-203.65 164.28,-193.58 155.42,-199.39 160.98,-203.65"/>
<text text-anchor="middle" x="157.1" y="-217.21" font-family="Monaco" font-size="11.00">~9</text>
</g>
<!-- Block3&#45;&gt;Jump4 -->
<g id="edge6" class="edge">
<title>Block3&#45;&gt;Jump4</title>
<path fill="none" stroke="black" d="M229.69,-243.77C218.02,-228.69 206.37,-213.64 197.05,-201.59"/>
<polygon fill="black" stroke="black" points="199.59,-199.16 190.7,-193.4 194.06,-203.45 199.59,-199.16"/>
<text text-anchor="middle" x="224.4" y="-217.21" font-family="Monaco" font-size="11.00">~13</text>
</g>
<!-- Block4 -->
<g id="node7" class="node">
<title>Block4</title>
<polygon fill="none" stroke="black" points="108.5,-86.67 108.5,-106.67 246.5,-106.67 246.5,-86.67 108.5,-86.67"/>
<text text-anchor="start" x="111.5" y="-94.87" font-family="Monaco" font-size="11.00">Vector(Input(&quot;~14&quot;))</text>
</g>
<!-- Jump4&#45;&gt;Block4 -->
<g id="edge7" class="edge">
<title>Jump4&#45;&gt;Block4</title>
<path fill="none" stroke="black" d="M177.5,-157.32C177.5,-145.43 177.5,-129.53 177.5,-117.14"/>
<polygon fill="black" stroke="black" points="181,-116.95 177.5,-106.95 174,-116.95 181,-116.95"/>
<text text-anchor="middle" x="187.4" y="-130.54" font-family="Monaco" font-size="11.00">~14</text>
</g>
<!-- Jump5 -->
<g id="node8" class="node">
<title>Jump5</title>
<polygon fill="none" stroke="black" points="211.81,-30 161.19,-30 161.19,-36 143.19,-18 161.19,0 161.19,-6 193.81,-6 193.81,0 211.81,0 211.81,-30"/>
<text text-anchor="middle" x="177.5" y="-16.53" font-family="Monaco" font-size="11.00">Return.5</text>
</g>
<!-- Block4&#45;&gt;Jump5 -->
<g id="edge8" class="edge">
<title>Block4&#45;&gt;Jump5</title>
<path fill="none" stroke="black" d="M177.5,-86.57C177.5,-76.71 177.5,-60.49 177.5,-46.42"/>
<polygon fill="black" stroke="black" points="181,-46.21 177.5,-36.21 174,-46.21 181,-46.21"/>
<text text-anchor="middle" x="187.4" y="-59.87" font-family="Monaco" font-size="11.00">~14</text>
</g>
</g>
</svg>
