<?xml version="1.0" encoding="UTF-8" standalone="no"?>
<!DOCTYPE svg PUBLIC "-//W3C//DTD SVG 1.1//EN"
 "http://www.w3.org/Graphics/SVG/1.1/DTD/svg11.dtd">
<!-- Generated by graphviz version 2.43.0 (0)
 -->
<!-- Title: Program_ Pages: 1 -->
<svg width="901pt" height="577pt"
 viewBox="0.00 0.00 900.66 576.68" xmlns="http://www.w3.org/2000/svg" xmlns:xlink="http://www.w3.org/1999/xlink">
<g id="graph0" class="graph" transform="scale(1 1) rotate(0) translate(4 572.68)">
<title>Program_</title>
<polygon fill="white" stroke="transparent" points="-4,4 -4,-572.68 896.66,-572.68 896.66,4 -4,4"/>
<g id="clust1" class="cluster">
<title>cluster_dfg_Block1</title>
<polygon fill="none" stroke="black" points="181.66,-338.67 181.66,-560.68 342.66,-560.68 342.66,-338.67 181.66,-338.67"/>
<text text-anchor="middle" x="262.16" y="-547.08" font-family="Monaco" font-size="12.00">Block1</text>
</g>
<g id="clust2" class="cluster">
<title>cluster_dfg_Block2</title>
<polygon fill="none" stroke="black" points="350.66,-411.67 350.66,-560.68 430.66,-560.68 430.66,-411.67 350.66,-411.67"/>
<text text-anchor="middle" x="390.66" y="-547.08" font-family="Monaco" font-size="12.00">Block2</text>
</g>
<g id="clust3" class="cluster">
<title>cluster_dfg_Block3</title>
<polygon fill="none" stroke="black" points="438.66,-252.01 438.66,-560.68 780.66,-560.68 780.66,-252.01 438.66,-252.01"/>
<text text-anchor="middle" x="609.66" y="-547.08" font-family="Monaco" font-size="12.00">Block3</text>
</g>
<g id="clust4" class="cluster">
<title>cluster_dfg_Block4</title>
<polygon fill="none" stroke="black" points="788.66,-411.67 788.66,-560.68 884.66,-560.68 884.66,-411.67 788.66,-411.67"/>
<text text-anchor="middle" x="836.66" y="-547.08" font-family="Monaco" font-size="12.00">Block4</text>
</g>
<!-- Jump2 -->
<g id="node1" class="node">
<title>Jump2</title>
<polygon fill="none" stroke="black" points="127.68,-528.67 45.65,-528.67 45.65,-524.67 41.65,-524.67 41.65,-520.67 45.65,-520.67 45.65,-500.67 41.65,-500.67 41.65,-496.67 45.65,-496.67 45.65,-492.67 127.68,-492.67 127.68,-528.67"/>
<polyline fill="none" stroke="black" points="45.65,-524.67 49.65,-524.67 49.65,-520.67 45.65,-520.67 "/>
<polyline fill="none" stroke="black" points="45.65,-500.67 49.65,-500.67 49.65,-496.67 45.65,-496.67 "/>
<text text-anchor="middle" x="86.66" y="-509.21" font-family="Monaco" font-size="11.00">StartFun.2</text>
</g>
<!-- Block1 -->
<g id="node2" class="node">
<title>Block1</title>
<polygon fill="none" stroke="black" points="114.27,-455.67 59.06,-455.67 59.06,-419.67 114.27,-419.67 114.27,-455.67"/>
<text text-anchor="middle" x="86.66" y="-436.21" font-family="Monaco" font-size="11.00">Block1</text>
</g>
<!-- Jump2&#45;&gt;Block1 -->
<g id="edge1" class="edge">
<title>Jump2&#45;&gt;Block1</title>
<path fill="none" stroke="black" d="M86.66,-492.49C86.66,-484.46 86.66,-474.72 86.66,-465.74"/>
<polygon fill="black" stroke="black" points="90.16,-465.7 86.66,-455.7 83.16,-465.7 90.16,-465.7"/>
</g>
<!-- Jump3 -->
<g id="node3" class="node">
<title>Jump3</title>
<path fill="none" stroke="black" d="M125.37,-382.67C125.37,-382.67 47.95,-382.67 47.95,-382.67 41.95,-382.67 31.71,-378.44 27.46,-374.2 27.46,-374.2 8.33,-355.15 8.33,-355.15 4.08,-350.91 5.84,-346.67 11.84,-346.67 11.84,-346.67 161.49,-346.67 161.49,-346.67 167.49,-346.67 169.24,-350.91 164.99,-355.15 164.99,-355.15 145.87,-374.2 145.87,-374.2 141.62,-378.44 131.37,-382.67 125.37,-382.67"/>
<text text-anchor="middle" x="86.66" y="-363.21" font-family="Monaco" font-size="11.00">Branch.3(~8)</text>
</g>
<!-- Block1&#45;&gt;Jump3 -->
<g id="edge2" class="edge">
<title>Block1&#45;&gt;Jump3</title>
<path fill="none" stroke="black" d="M86.66,-419.49C86.66,-411.46 86.66,-401.72 86.66,-392.74"/>
<polygon fill="black" stroke="black" points="90.16,-392.7 86.66,-382.7 83.16,-392.7 90.16,-392.7"/>
</g>
<!-- Block2 -->
<g id="node4" class="node">
<title>Block2</title>
<polygon fill="none" stroke="black" points="78.27,-296.01 23.06,-296.01 23.06,-260.01 78.27,-260.01 78.27,-296.01"/>
<text text-anchor="middle" x="50.66" y="-276.54" font-family="Monaco" font-size="11.00">Block2</text>
</g>
<!-- Jump3&#45;&gt;Block2 -->
<g id="edge3" class="edge">
<title>Jump3&#45;&gt;Block2</title>
<path fill="none" stroke="black" d="M77.63,-346.39C74.82,-340.8 71.8,-334.52 69.26,-328.67 66.05,-321.28 62.85,-313.12 60.04,-305.6"/>
<polygon fill="black" stroke="black" points="63.33,-304.38 56.6,-296.19 56.75,-306.78 63.33,-304.38"/>
<text text-anchor="middle" x="82.87" y="-319.87" font-family="Monaco" font-size="11.00">true</text>
</g>
<!-- Block3 -->
<g id="node5" class="node">
<title>Block3</title>
<polygon fill="none" stroke="black" points="152.27,-296.01 97.06,-296.01 97.06,-260.01 152.27,-260.01 152.27,-296.01"/>
<text text-anchor="middle" x="124.66" y="-276.54" font-family="Monaco" font-size="11.00">Block3</text>
</g>
<!-- Jump3&#45;&gt;Block3 -->
<g id="edge4" class="edge">
<title>Jump3&#45;&gt;Block3</title>
<path fill="none" stroke="black" d="M94.35,-346.54C99.66,-334.72 106.81,-318.78 112.84,-305.35"/>
<polygon fill="black" stroke="black" points="116.08,-306.67 116.99,-296.11 109.7,-303.8 116.08,-306.67"/>
<text text-anchor="middle" x="125.17" y="-319.87" font-family="Monaco" font-size="11.00">false</text>
</g>
<!-- Jump4 -->
<g id="node6" class="node">
<title>Jump4</title>
<path fill="none" stroke="black" d="M66.52,-173.34C66.52,-173.34 108.8,-173.34 108.8,-173.34 114.8,-173.34 124.09,-178.35 127.38,-183.37 127.38,-183.37 137.83,-199.3 137.83,-199.3 141.12,-204.32 138.41,-209.34 132.41,-209.34 132.41,-209.34 42.92,-209.34 42.92,-209.34 36.92,-209.34 34.21,-204.32 37.5,-199.3 37.5,-199.3 47.94,-183.37 47.94,-183.37 51.23,-178.35 60.52,-173.34 66.52,-173.34"/>
<text text-anchor="middle" x="87.66" y="-189.87" font-family="Monaco" font-size="11.00">Merge.4</text>
</g>
<!-- Block2&#45;&gt;Jump4 -->
<g id="edge5" class="edge">
<title>Block2&#45;&gt;Jump4</title>
<path fill="none" stroke="black" d="M58.15,-259.87C63.32,-248.05 70.28,-232.11 76.15,-218.68"/>
<polygon fill="black" stroke="black" points="79.39,-220.01 80.19,-209.45 72.98,-217.21 79.39,-220.01"/>
<text text-anchor="middle" x="78.27" y="-233.21" font-family="Monaco" font-size="11.00">~9</text>
</g>
<!-- Block3&#45;&gt;Jump4 -->
<g id="edge6" class="edge">
<title>Block3&#45;&gt;Jump4</title>
<path fill="none" stroke="black" d="M117.18,-259.87C112.01,-248.05 105.04,-232.11 99.18,-218.68"/>
<polygon fill="black" stroke="black" points="102.35,-217.21 95.14,-209.45 95.94,-220.01 102.35,-217.21"/>
<text text-anchor="middle" x="118.57" y="-233.21" font-family="Monaco" font-size="11.00">~13</text>
</g>
<!-- Block4 -->
<g id="node7" class="node">
<title>Block4</title>
<polygon fill="none" stroke="black" points="115.27,-122.67 60.06,-122.67 60.06,-86.67 115.27,-86.67 115.27,-122.67"/>
<text text-anchor="middle" x="87.66" y="-103.2" font-family="Monaco" font-size="11.00">Block4</text>
</g>
<!-- Jump4&#45;&gt;Block4 -->
<g id="edge7" class="edge">
<title>Jump4&#45;&gt;Block4</title>
<path fill="none" stroke="black" d="M87.66,-173.2C87.66,-161.61 87.66,-146.06 87.66,-132.8"/>
<polygon fill="black" stroke="black" points="91.16,-132.78 87.66,-122.78 84.16,-132.78 91.16,-132.78"/>
<text text-anchor="middle" x="97.57" y="-146.54" font-family="Monaco" font-size="11.00">~14</text>
</g>
<!-- Jump5 -->
<g id="node8" class="node">
<title>Jump5</title>
<polygon fill="none" stroke="black" points="121.97,-30 71.36,-30 71.36,-36 53.36,-18 71.36,0 71.36,-6 103.97,-6 103.97,0 121.97,0 121.97,-30"/>
<text text-anchor="middle" x="87.66" y="-16.53" font-family="Monaco" font-size="11.00">Return.5</text>
</g>
<!-- Block4&#45;&gt;Jump5 -->
<g id="edge8" class="edge">
<title>Block4&#45;&gt;Jump5</title>
<path fill="none" stroke="black" d="M87.66,-86.53C87.66,-74.94 87.66,-59.39 87.66,-46.13"/>
<polygon fill="black" stroke="black" points="91.16,-46.11 87.66,-36.11 84.16,-46.11 91.16,-46.11"/>
<text text-anchor="middle" x="97.57" y="-59.87" font-family="Monaco" font-size="11.00">~14</text>
</g>
<!-- ndBlock1_0 -->
<g id="node9" class="node">
<title>ndBlock1_0</title>
<ellipse fill="none" stroke="black" cx="302.66" cy="-510.67" rx="31.58" ry="18"/>
<text text-anchor="middle" x="302.66" y="-509.21" font-family="Monaco" font-size="11.00">~7: 0</text>
</g>
<!-- ndBlock1_1 -->
<g id="node10" class="node">
<title>ndBlock1_1</title>
<ellipse fill="none" stroke="black" cx="306.66" cy="-437.67" rx="27" ry="18"/>
<text text-anchor="middle" x="306.66" y="-436.21" font-family="Monaco" font-size="11.00">out</text>
</g>
<!-- ndBlock1_0&#45;&gt;ndBlock1_1 -->
<g id="edge9" class="edge">
<title>ndBlock1_0&#45;&gt;ndBlock1_1</title>
<path fill="none" stroke="black" d="M303.63,-492.49C304.08,-484.46 304.63,-474.72 305.14,-465.74"/>
<polygon fill="black" stroke="black" points="308.64,-465.88 305.71,-455.7 301.65,-465.49 308.64,-465.88"/>
</g>
<!-- ndBlock1_3 -->
<g id="node12" class="node">
<title>ndBlock1_3</title>
<ellipse fill="none" stroke="black" cx="225.66" cy="-437.67" rx="35.58" ry="18"/>
<text text-anchor="middle" x="225.66" y="-436.21" font-family="Monaco" font-size="11.00">~8: ==</text>
</g>
<!-- ndBlock1_0&#45;&gt;ndBlock1_3 -->
<g id="edge10" class="edge">
<title>ndBlock1_0&#45;&gt;ndBlock1_3</title>
<path fill="none" stroke="black" d="M286.71,-494.96C276.01,-485.1 261.73,-471.93 249.67,-460.81"/>
<polygon fill="black" stroke="black" points="251.85,-458.06 242.13,-453.86 247.11,-463.21 251.85,-458.06"/>
</g>
<!-- ndBlock1_2 -->
<g id="node11" class="node">
<title>ndBlock1_2</title>
<ellipse fill="none" stroke="black" cx="221.66" cy="-510.67" rx="31.58" ry="18"/>
<text text-anchor="middle" x="221.66" y="-509.21" font-family="Monaco" font-size="11.00">n: in</text>
</g>
<!-- ndBlock1_2&#45;&gt;ndBlock1_3 -->
<g id="edge11" class="edge">
<title>ndBlock1_2&#45;&gt;ndBlock1_3</title>
<path fill="none" stroke="black" d="M222.63,-492.49C223.08,-484.46 223.63,-474.72 224.14,-465.74"/>
<polygon fill="black" stroke="black" points="227.64,-465.88 224.71,-455.7 220.65,-465.49 227.64,-465.88"/>
</g>
<!-- ndBlock1_4 -->
<g id="node13" class="node">
<title>ndBlock1_4</title>
<ellipse fill="none" stroke="black" cx="225.66" cy="-364.67" rx="27" ry="18"/>
<text text-anchor="middle" x="225.66" y="-363.21" font-family="Monaco" font-size="11.00">out</text>
</g>
<!-- ndBlock1_3&#45;&gt;ndBlock1_4 -->
<g id="edge12" class="edge">
<title>ndBlock1_3&#45;&gt;ndBlock1_4</title>
<path fill="none" stroke="black" d="M225.66,-419.49C225.66,-411.46 225.66,-401.72 225.66,-392.74"/>
<polygon fill="black" stroke="black" points="229.16,-392.7 225.66,-382.7 222.16,-392.7 229.16,-392.7"/>
</g>
<!-- ndBlock2_0 -->
<g id="node14" class="node">
<title>ndBlock2_0</title>
<ellipse fill="none" stroke="black" cx="390.66" cy="-510.67" rx="31.58" ry="18"/>
<text text-anchor="middle" x="390.66" y="-509.21" font-family="Monaco" font-size="11.00">~9: 1</text>
</g>
<!-- ndBlock2_1 -->
<g id="node15" class="node">
<title>ndBlock2_1</title>
<ellipse fill="none" stroke="black" cx="390.66" cy="-437.67" rx="27" ry="18"/>
<text text-anchor="middle" x="390.66" y="-436.21" font-family="Monaco" font-size="11.00">out</text>
</g>
<!-- ndBlock2_0&#45;&gt;ndBlock2_1 -->
<g id="edge13" class="edge">
<title>ndBlock2_0&#45;&gt;ndBlock2_1</title>
<path fill="none" stroke="black" d="M390.66,-492.49C390.66,-484.46 390.66,-474.72 390.66,-465.74"/>
<polygon fill="black" stroke="black" points="394.16,-465.7 390.66,-455.7 387.16,-465.7 394.16,-465.7"/>
</g>
<!-- ndBlock3_0 -->
<g id="node16" class="node">
<title>ndBlock3_0</title>
<ellipse fill="none" stroke="black" cx="648.66" cy="-510.67" rx="31.58" ry="18"/>
<text text-anchor="middle" x="648.66" y="-509.21" font-family="Monaco" font-size="11.00">a: in</text>
</g>
<!-- ndBlock3_2 -->
<g id="node18" class="node">
<title>ndBlock3_2</title>
<ellipse fill="none" stroke="black" cx="704.66" cy="-437.67" rx="35.58" ry="18"/>
<text text-anchor="middle" x="704.66" y="-436.21" font-family="Monaco" font-size="11.00">~10: +</text>
</g>
<!-- ndBlock3_0&#45;&gt;ndBlock3_2 -->
<g id="edge14" class="edge">
<title>ndBlock3_0&#45;&gt;ndBlock3_2</title>
<path fill="none" stroke="black" d="M661.09,-493.92C668.31,-484.76 677.56,-473.04 685.68,-462.75"/>
<polygon fill="black" stroke="black" points="688.44,-464.9 691.88,-454.88 682.94,-460.56 688.44,-464.9"/>
</g>
<!-- ndBlock3_9 -->
<g id="node25" class="node">
<title>ndBlock3_9</title>
<ellipse fill="none" stroke="black" cx="609.66" cy="-364.67" rx="91.04" ry="18"/>
<text text-anchor="middle" x="609.66" y="-363.21" font-family="Monaco" font-size="11.00">~13: fib(~12,~10,a)</text>
</g>
<!-- ndBlock3_0&#45;&gt;ndBlock3_9 -->
<g id="edge15" class="edge">
<title>ndBlock3_0&#45;&gt;ndBlock3_9</title>
<path fill="none" stroke="black" d="M644.04,-492.59C637.35,-467.91 624.93,-422.02 616.99,-392.71"/>
<polygon fill="black" stroke="black" points="620.28,-391.47 614.29,-382.74 613.52,-393.3 620.28,-391.47"/>
</g>
<!-- ndBlock3_1 -->
<g id="node17" class="node">
<title>ndBlock3_1</title>
<ellipse fill="none" stroke="black" cx="729.66" cy="-510.67" rx="31.58" ry="18"/>
<text text-anchor="middle" x="729.66" y="-509.21" font-family="Monaco" font-size="11.00">b: in</text>
</g>
<!-- ndBlock3_1&#45;&gt;ndBlock3_2 -->
<g id="edge16" class="edge">
<title>ndBlock3_1&#45;&gt;ndBlock3_2</title>
<path fill="none" stroke="black" d="M723.74,-492.85C720.86,-484.66 717.32,-474.61 714.08,-465.41"/>
<polygon fill="black" stroke="black" points="717.34,-464.14 710.72,-455.87 710.74,-466.47 717.34,-464.14"/>
</g>
<!-- ndBlock3_3 -->
<g id="node19" class="node">
<title>ndBlock3_3</title>
<ellipse fill="none" stroke="black" cx="745.66" cy="-364.67" rx="27" ry="18"/>
<text text-anchor="middle" x="745.66" y="-363.21" font-family="Monaco" font-size="11.00">out</text>
</g>
<!-- ndBlock3_2&#45;&gt;ndBlock3_3 -->
<g id="edge17" class="edge">
<title>ndBlock3_2&#45;&gt;ndBlock3_3</title>
<path fill="none" stroke="black" d="M714.17,-420.21C719.19,-411.51 725.46,-400.66 731.08,-390.93"/>
<polygon fill="black" stroke="black" points="734.24,-392.46 736.21,-382.05 728.17,-388.96 734.24,-392.46"/>
</g>
<!-- ndBlock3_2&#45;&gt;ndBlock3_9 -->
<g id="edge18" class="edge">
<title>ndBlock3_2&#45;&gt;ndBlock3_9</title>
<path fill="none" stroke="black" d="M685.44,-422.31C672.48,-412.62 655.1,-399.63 640.25,-388.54"/>
<polygon fill="black" stroke="black" points="641.96,-385.44 631.86,-382.26 637.77,-391.05 641.96,-385.44"/>
</g>
<!-- ndBlock3_4 -->
<g id="node20" class="node">
<title>ndBlock3_4</title>
<ellipse fill="none" stroke="black" cx="563.66" cy="-510.67" rx="35.58" ry="18"/>
<text text-anchor="middle" x="563.66" y="-509.21" font-family="Monaco" font-size="11.00">~11: 1</text>
</g>
<!-- ndBlock3_5 -->
<g id="node21" class="node">
<title>ndBlock3_5</title>
<ellipse fill="none" stroke="black" cx="563.66" cy="-437.67" rx="27" ry="18"/>
<text text-anchor="middle" x="563.66" y="-436.21" font-family="Monaco" font-size="11.00">out</text>
</g>
<!-- ndBlock3_4&#45;&gt;ndBlock3_5 -->
<g id="edge19" class="edge">
<title>ndBlock3_4&#45;&gt;ndBlock3_5</title>
<path fill="none" stroke="black" d="M563.66,-492.49C563.66,-484.46 563.66,-474.72 563.66,-465.74"/>
<polygon fill="black" stroke="black" points="567.16,-465.7 563.66,-455.7 560.16,-465.7 567.16,-465.7"/>
</g>
<!-- ndBlock3_7 -->
<g id="node23" class="node">
<title>ndBlock3_7</title>
<ellipse fill="none" stroke="black" cx="482.66" cy="-437.67" rx="35.58" ry="18"/>
<text text-anchor="middle" x="482.66" y="-436.21" font-family="Monaco" font-size="11.00">~12: &#45;</text>
</g>
<!-- ndBlock3_4&#45;&gt;ndBlock3_7 -->
<g id="edge20" class="edge">
<title>ndBlock3_4&#45;&gt;ndBlock3_7</title>
<path fill="none" stroke="black" d="M546.49,-494.62C535.21,-484.73 520.28,-471.64 507.69,-460.61"/>
<polygon fill="black" stroke="black" points="509.64,-457.67 499.82,-453.71 505.03,-462.93 509.64,-457.67"/>
</g>
<!-- ndBlock3_6 -->
<g id="node22" class="node">
<title>ndBlock3_6</title>
<ellipse fill="none" stroke="black" cx="478.66" cy="-510.67" rx="31.58" ry="18"/>
<text text-anchor="middle" x="478.66" y="-509.21" font-family="Monaco" font-size="11.00">n: in</text>
</g>
<!-- ndBlock3_6&#45;&gt;ndBlock3_7 -->
<g id="edge21" class="edge">
<title>ndBlock3_6&#45;&gt;ndBlock3_7</title>
<path fill="none" stroke="black" d="M479.63,-492.49C480.08,-484.46 480.63,-474.72 481.14,-465.74"/>
<polygon fill="black" stroke="black" points="484.64,-465.88 481.71,-455.7 477.65,-465.49 484.64,-465.88"/>
</g>
<!-- ndBlock3_8 -->
<g id="node24" class="node">
<title>ndBlock3_8</title>
<ellipse fill="none" stroke="black" cx="473.66" cy="-364.67" rx="27" ry="18"/>
<text text-anchor="middle" x="473.66" y="-363.21" font-family="Monaco" font-size="11.00">out</text>
</g>
<!-- ndBlock3_7&#45;&gt;ndBlock3_8 -->
<g id="edge22" class="edge">
<title>ndBlock3_7&#45;&gt;ndBlock3_8</title>
<path fill="none" stroke="black" d="M480.49,-419.49C479.47,-411.46 478.23,-401.72 477.1,-392.74"/>
<polygon fill="black" stroke="black" points="480.55,-392.18 475.82,-382.7 473.61,-393.06 480.55,-392.18"/>
</g>
<!-- ndBlock3_7&#45;&gt;ndBlock3_9 -->
<g id="edge23" class="edge">
<title>ndBlock3_7&#45;&gt;ndBlock3_9</title>
<path fill="none" stroke="black" d="M505.66,-423.82C524.05,-413.54 550.22,-398.91 571.7,-386.9"/>
<polygon fill="black" stroke="black" points="573.57,-389.86 580.59,-381.93 570.15,-383.75 573.57,-389.86"/>
</g>
<!-- ndBlock3_10 -->
<g id="node26" class="node">
<title>ndBlock3_10</title>
<ellipse fill="none" stroke="black" cx="609.66" cy="-278.01" rx="27" ry="18"/>
<text text-anchor="middle" x="609.66" y="-276.54" font-family="Monaco" font-size="11.00">out</text>
</g>
<!-- ndBlock3_9&#45;&gt;ndBlock3_10 -->
<g id="edge24" class="edge">
<title>ndBlock3_9&#45;&gt;ndBlock3_10</title>
<path fill="none" stroke="black" d="M609.66,-346.54C609.66,-334.95 609.66,-319.4 609.66,-306.14"/>
<polygon fill="black" stroke="black" points="613.16,-306.11 609.66,-296.11 606.16,-306.11 613.16,-306.11"/>
</g>
<!-- ndBlock4_0 -->
<g id="node27" class="node">
<title>ndBlock4_0</title>
<ellipse fill="none" stroke="black" cx="836.66" cy="-510.67" rx="40.08" ry="18"/>
<text text-anchor="middle" x="836.66" y="-509.21" font-family="Monaco" font-size="11.00">~14: in</text>
</g>
<!-- ndBlock4_1 -->
<g id="node28" class="node">
<title>ndBlock4_1</title>
<ellipse fill="none" stroke="black" cx="836.66" cy="-437.67" rx="27" ry="18"/>
<text text-anchor="middle" x="836.66" y="-436.21" font-family="Monaco" font-size="11.00">out</text>
</g>
<!-- ndBlock4_0&#45;&gt;ndBlock4_1 -->
<g id="edge25" class="edge">
<title>ndBlock4_0&#45;&gt;ndBlock4_1</title>
<path fill="none" stroke="black" d="M836.66,-492.49C836.66,-484.46 836.66,-474.72 836.66,-465.74"/>
<polygon fill="black" stroke="black" points="840.16,-465.7 836.66,-455.7 833.16,-465.7 840.16,-465.7"/>
</g>
</g>
</svg>
