<?xml version="1.0" encoding="UTF-8" standalone="no"?>
<!DOCTYPE svg PUBLIC "-//W3C//DTD SVG 1.1//EN"
 "http://www.w3.org/Graphics/SVG/1.1/DTD/svg11.dtd">
<!-- Generated by graphviz version 2.43.0 (0)
 -->
<!-- Title: Program_ Pages: 1 -->
<svg width="1073pt" height="403pt"
 viewBox="0.00 0.00 1073.21 403.34" xmlns="http://www.w3.org/2000/svg" xmlns:xlink="http://www.w3.org/1999/xlink">
<g id="graph0" class="graph" transform="scale(1 1) rotate(0) translate(4 399.34)">
<title>Program_</title>
<polygon fill="white" stroke="transparent" points="-4,4 -4,-399.34 1069.21,-399.34 1069.21,4 -4,4"/>
<g id="clust1" class="cluster">
<title>cluster_dfg_Block1</title>
<polygon fill="none" stroke="black" points="161.21,-165.34 161.21,-387.34 548.21,-387.34 548.21,-165.34 161.21,-165.34"/>
<text text-anchor="middle" x="354.71" y="-373.74" font-family="Monaco" font-size="12.00">Block1</text>
</g>
<g id="clust2" class="cluster">
<title>cluster_dfg_Block2</title>
<polygon fill="none" stroke="black" points="556.21,-238.34 556.21,-387.34 652.21,-387.34 652.21,-238.34 556.21,-238.34"/>
<text text-anchor="middle" x="604.21" y="-373.74" font-family="Monaco" font-size="12.00">Block2</text>
</g>
<g id="clust3" class="cluster">
<title>cluster_dfg_Block3</title>
<polygon fill="none" stroke="black" points="660.21,-78.67 660.21,-387.34 1057.21,-387.34 1057.21,-78.67 660.21,-78.67"/>
<text text-anchor="middle" x="858.71" y="-373.74" font-family="Monaco" font-size="12.00">Block3</text>
</g>
<!-- Jump2 -->
<g id="node1" class="node">
<title>Jump2</title>
<polygon fill="none" stroke="black" points="127.82,-355.34 36.59,-355.34 36.59,-351.34 32.59,-351.34 32.59,-347.34 36.59,-347.34 36.59,-327.34 32.59,-327.34 32.59,-323.34 36.59,-323.34 36.59,-319.34 127.82,-319.34 127.82,-355.34"/>
<polyline fill="none" stroke="black" points="36.59,-351.34 40.59,-351.34 40.59,-347.34 36.59,-347.34 "/>
<polyline fill="none" stroke="black" points="36.59,-327.34 40.59,-327.34 40.59,-323.34 36.59,-323.34 "/>
<text text-anchor="start" x="44.4" y="-336.87" font-family="Monaco" font-size="11.00">StartFun.2</text>
<text text-anchor="start" x="110.41" y="-336.87" font-family="Monaco" baseline-shift="super" font-size="8.00" fill="#ff4411">q0</text>
</g>
<!-- Block1 -->
<g id="node2" class="node">
<title>Block1</title>
<polygon fill="none" stroke="black" points="109.81,-282.34 54.6,-282.34 54.6,-246.34 109.81,-246.34 109.81,-282.34"/>
<text text-anchor="middle" x="82.21" y="-262.87" font-family="Monaco" font-size="11.00">Block1</text>
</g>
<!-- Jump2&#45;&gt;Block1 -->
<g id="edge1" class="edge">
<title>Jump2&#45;&gt;Block1</title>
<path fill="none" stroke="black" d="M82.21,-319.15C82.21,-311.13 82.21,-301.38 82.21,-292.41"/>
<polygon fill="black" stroke="black" points="85.71,-292.37 82.21,-282.37 78.71,-292.37 85.71,-292.37"/>
</g>
<!-- Jump3 -->
<g id="node3" class="node">
<title>Jump3</title>
<path fill="none" stroke="black" d="M111.81,-209.34C111.81,-209.34 52.6,-209.34 52.6,-209.34 46.6,-209.34 36.79,-204.7 32.97,-200.07 32.97,-200.07 18.59,-182.6 18.59,-182.6 14.78,-177.97 16.96,-173.34 22.96,-173.34 22.96,-173.34 141.45,-173.34 141.45,-173.34 147.45,-173.34 149.63,-177.97 145.82,-182.6 145.82,-182.6 131.44,-200.07 131.44,-200.07 127.62,-204.7 117.81,-209.34 111.81,-209.34"/>
<text text-anchor="start" x="51" y="-190.87" font-family="Monaco" font-size="11.00">Branch.3</text>
<text text-anchor="start" x="103.81" y="-190.87" font-family="Monaco" baseline-shift="super" font-size="8.00" fill="#ff4411">q3</text>
</g>
<!-- Block1&#45;&gt;Jump3 -->
<g id="edge2" class="edge">
<title>Block1&#45;&gt;Jump3</title>
<path fill="none" stroke="black" d="M82.21,-246.15C82.21,-238.13 82.21,-228.38 82.21,-219.41"/>
<polygon fill="black" stroke="black" points="85.71,-219.37 82.21,-209.37 78.71,-219.37 85.71,-219.37"/>
</g>
<!-- Block2 -->
<g id="node4" class="node">
<title>Block2</title>
<polygon fill="none" stroke="black" points="72.81,-122.67 17.6,-122.67 17.6,-86.67 72.81,-86.67 72.81,-122.67"/>
<text text-anchor="middle" x="45.21" y="-103.2" font-family="Monaco" font-size="11.00">Block2</text>
</g>
<!-- Jump3&#45;&gt;Block2 -->
<g id="edge3" class="edge">
<title>Jump3&#45;&gt;Block2</title>
<path fill="none" stroke="black" d="M74.72,-173.2C69.55,-161.38 62.59,-145.44 56.72,-132.01"/>
<polygon fill="black" stroke="black" points="59.89,-130.54 52.68,-122.78 53.48,-133.34 59.89,-130.54"/>
<text text-anchor="middle" x="72.81" y="-146.54" font-family="Monaco" font-size="11.00">@8</text>
</g>
<!-- Block3 -->
<g id="node5" class="node">
<title>Block3</title>
<polygon fill="none" stroke="black" points="157.81,-122.67 102.6,-122.67 102.6,-86.67 157.81,-86.67 157.81,-122.67"/>
<text text-anchor="middle" x="130.21" y="-103.2" font-family="Monaco" font-size="11.00">Block3</text>
</g>
<!-- Jump3&#45;&gt;Block3 -->
<g id="edge4" class="edge">
<title>Jump3&#45;&gt;Block3</title>
<path fill="none" stroke="black" d="M91.92,-173.2C98.68,-161.27 107.83,-145.13 115.49,-131.62"/>
<polygon fill="black" stroke="black" points="118.62,-133.2 120.51,-122.78 112.53,-129.75 118.62,-133.2"/>
<text text-anchor="middle" x="119.11" y="-146.54" font-family="Monaco" font-size="11.00">!@8</text>
</g>
<!-- Jump6 -->
<g id="node6" class="node">
<title>Jump6</title>
<polygon fill="none" stroke="black" points="78.62,-30 17.79,-30 17.79,-36 -0.21,-18 17.79,0 17.79,-6 60.62,-6 60.62,0 78.62,0 78.62,-30"/>
<text text-anchor="start" x="8" y="-17.53" font-family="Monaco" font-size="11.00">Return.6</text>
<text text-anchor="start" x="60.81" y="-17.53" font-family="Monaco" baseline-shift="super" font-size="8.00" fill="#ff4411">q4</text>
</g>
<!-- Block2&#45;&gt;Jump6 -->
<g id="edge5" class="edge">
<title>Block2&#45;&gt;Jump6</title>
<path fill="none" stroke="black" d="M43.99,-86.53C43.17,-74.94 42.07,-59.39 41.13,-46.13"/>
<polygon fill="black" stroke="black" points="44.62,-45.84 40.42,-36.11 37.63,-46.33 44.62,-45.84"/>
<text text-anchor="middle" x="49.81" y="-59.87" font-family="Monaco" font-size="11.00">@9</text>
</g>
<!-- Jump7 -->
<g id="node7" class="node">
<title>Jump7</title>
<polygon fill="none" stroke="black" points="174.62,-30 113.79,-30 113.79,-36 95.79,-18 113.79,0 113.79,-6 156.62,-6 156.62,0 174.62,0 174.62,-30"/>
<text text-anchor="start" x="104" y="-17.53" font-family="Monaco" font-size="11.00">Return.7</text>
<text text-anchor="start" x="156.81" y="-17.53" font-family="Monaco" baseline-shift="super" font-size="8.00" fill="#ff4411">q6</text>
</g>
<!-- Block3&#45;&gt;Jump7 -->
<g id="edge6" class="edge">
<title>Block3&#45;&gt;Jump7</title>
<path fill="none" stroke="black" d="M131.22,-86.53C131.9,-74.94 132.82,-59.39 133.6,-46.13"/>
<polygon fill="black" stroke="black" points="137.1,-46.3 134.19,-36.11 130.11,-45.88 137.1,-46.3"/>
<text text-anchor="middle" x="143.11" y="-59.87" font-family="Monaco" font-size="11.00">@13</text>
</g>
<!-- ndBlock1_0 -->
<g id="node8" class="node">
<title>ndBlock1_0</title>
<ellipse fill="none" stroke="black" cx="303.21" cy="-191.34" rx="29.45" ry="18"/>
<text text-anchor="start" x="288.5" y="-190.87" font-family="Monaco" font-size="11.00">out</text>
<text text-anchor="start" x="308.31" y="-190.87" font-family="Monaco" baseline-shift="super" font-size="8.00" fill="#ff4411">q2</text>
</g>
<!-- ndBlock1_1 -->
<g id="node9" class="node">
<title>ndBlock1_1</title>
<ellipse fill="none" stroke="black" cx="303.21" cy="-264.34" rx="56.79" ry="18"/>
<text text-anchor="start" x="267.2" y="-263.87" font-family="Monaco" font-size="11.00">@8</text>
<text text-anchor="start" x="280.4" y="-263.87" font-family="Monaco" baseline-shift="super" font-size="8.00" fill="#3311ff">r3</text>
<text text-anchor="start" x="290" y="-263.87" font-family="Monaco" font-size="11.00">:n==@7</text>
<text text-anchor="start" x="329.61" y="-263.87" font-family="Monaco" baseline-shift="super" font-size="8.00" fill="#ff4411">q1</text>
</g>
<!-- ndBlock1_1&#45;&gt;ndBlock1_0 -->
<g id="edge12" class="edge">
<title>ndBlock1_1&#45;&gt;ndBlock1_0</title>
<path fill="none" stroke="black" d="M303.21,-246.15C303.21,-238.13 303.21,-228.38 303.21,-219.41"/>
<polygon fill="black" stroke="black" points="306.71,-219.37 303.21,-209.37 299.71,-219.37 306.71,-219.37"/>
</g>
<!-- ndBlock1_2 -->
<g id="node10" class="node">
<title>ndBlock1_2</title>
<ellipse fill="none" stroke="black" cx="407.21" cy="-264.34" rx="29.45" ry="18"/>
<text text-anchor="start" x="392.5" y="-263.87" font-family="Monaco" font-size="11.00">out</text>
<text text-anchor="start" x="412.31" y="-263.87" font-family="Monaco" baseline-shift="super" font-size="8.00" fill="#ff4411">q2</text>
</g>
<!-- ndBlock1_3 -->
<g id="node11" class="node">
<title>ndBlock1_3</title>
<ellipse fill="none" stroke="black" cx="500.21" cy="-337.34" rx="39.8" ry="18"/>
<text text-anchor="start" x="477.4" y="-336.87" font-family="Monaco" font-size="11.00">a</text>
<text text-anchor="start" x="484" y="-336.87" font-family="Monaco" baseline-shift="super" font-size="8.00" fill="#3311ff">r2</text>
<text text-anchor="start" x="493.6" y="-336.87" font-family="Monaco" font-size="11.00">:in</text>
<text text-anchor="start" x="513.41" y="-336.87" font-family="Monaco" baseline-shift="super" font-size="8.00" fill="#ff4411">q0</text>
</g>
<!-- ndBlock1_6 -->
<g id="node14" class="node">
<title>ndBlock1_6</title>
<ellipse fill="none" stroke="black" cx="500.21" cy="-264.34" rx="29.45" ry="18"/>
<text text-anchor="start" x="485.5" y="-263.87" font-family="Monaco" font-size="11.00">out</text>
<text text-anchor="start" x="505.31" y="-263.87" font-family="Monaco" baseline-shift="super" font-size="8.00" fill="#ff4411">q2</text>
</g>
<!-- ndBlock1_3&#45;&gt;ndBlock1_6 -->
<g id="edge11" class="edge">
<title>ndBlock1_3&#45;&gt;ndBlock1_6</title>
<path fill="none" stroke="black" d="M500.21,-319.15C500.21,-311.13 500.21,-301.38 500.21,-292.41"/>
<polygon fill="black" stroke="black" points="503.71,-292.37 500.21,-282.37 496.71,-292.37 503.71,-292.37"/>
</g>
<!-- ndBlock1_4 -->
<g id="node12" class="node">
<title>ndBlock1_4</title>
<ellipse fill="none" stroke="black" cx="403.21" cy="-337.34" rx="39.8" ry="18"/>
<text text-anchor="start" x="380.4" y="-336.87" font-family="Monaco" font-size="11.00">b</text>
<text text-anchor="start" x="387" y="-336.87" font-family="Monaco" baseline-shift="super" font-size="8.00" fill="#3311ff">r0</text>
<text text-anchor="start" x="396.6" y="-336.87" font-family="Monaco" font-size="11.00">:in</text>
<text text-anchor="start" x="416.41" y="-336.87" font-family="Monaco" baseline-shift="super" font-size="8.00" fill="#ff4411">q0</text>
</g>
<!-- ndBlock1_4&#45;&gt;ndBlock1_2 -->
<g id="edge7" class="edge">
<title>ndBlock1_4&#45;&gt;ndBlock1_2</title>
<path fill="none" stroke="black" d="M404.17,-319.15C404.63,-311.13 405.17,-301.38 405.68,-292.41"/>
<polygon fill="black" stroke="black" points="409.18,-292.55 406.25,-282.37 402.19,-292.15 409.18,-292.55"/>
</g>
<!-- ndBlock1_5 -->
<g id="node13" class="node">
<title>ndBlock1_5</title>
<ellipse fill="none" stroke="black" cx="199.21" cy="-264.34" rx="29.45" ry="18"/>
<text text-anchor="start" x="184.5" y="-263.87" font-family="Monaco" font-size="11.00">out</text>
<text text-anchor="start" x="204.31" y="-263.87" font-family="Monaco" baseline-shift="super" font-size="8.00" fill="#ff4411">q2</text>
</g>
<!-- ndBlock1_7 -->
<g id="node15" class="node">
<title>ndBlock1_7</title>
<ellipse fill="none" stroke="black" cx="306.21" cy="-337.34" rx="39.8" ry="18"/>
<text text-anchor="start" x="283.4" y="-336.87" font-family="Monaco" font-size="11.00">@7</text>
<text text-anchor="start" x="296.6" y="-336.87" font-family="Monaco" baseline-shift="super" font-size="8.00" fill="#3311ff">r3</text>
<text text-anchor="start" x="306.21" y="-336.87" font-family="Monaco" font-size="11.00">:0</text>
<text text-anchor="start" x="319.41" y="-336.87" font-family="Monaco" baseline-shift="super" font-size="8.00" fill="#ff4411">q0</text>
</g>
<!-- ndBlock1_7&#45;&gt;ndBlock1_1 -->
<g id="edge8" class="edge">
<title>ndBlock1_7&#45;&gt;ndBlock1_1</title>
<path fill="none" stroke="black" d="M305.48,-319.15C305.14,-311.13 304.73,-301.38 304.35,-292.41"/>
<polygon fill="black" stroke="black" points="307.84,-292.21 303.92,-282.37 300.85,-292.5 307.84,-292.21"/>
</g>
<!-- ndBlock1_8 -->
<g id="node16" class="node">
<title>ndBlock1_8</title>
<ellipse fill="none" stroke="black" cx="209.21" cy="-337.34" rx="39.8" ry="18"/>
<text text-anchor="start" x="186.4" y="-336.87" font-family="Monaco" font-size="11.00">n</text>
<text text-anchor="start" x="193" y="-336.87" font-family="Monaco" baseline-shift="super" font-size="8.00" fill="#3311ff">r1</text>
<text text-anchor="start" x="202.6" y="-336.87" font-family="Monaco" font-size="11.00">:in</text>
<text text-anchor="start" x="222.41" y="-336.87" font-family="Monaco" baseline-shift="super" font-size="8.00" fill="#ff4411">q0</text>
</g>
<!-- ndBlock1_8&#45;&gt;ndBlock1_1 -->
<g id="edge9" class="edge">
<title>ndBlock1_8&#45;&gt;ndBlock1_1</title>
<path fill="none" stroke="black" d="M228.68,-321.63C241.72,-311.78 259.12,-298.64 273.82,-287.53"/>
<polygon fill="black" stroke="black" points="276.25,-290.08 282.12,-281.26 272.03,-284.5 276.25,-290.08"/>
</g>
<!-- ndBlock1_8&#45;&gt;ndBlock1_5 -->
<g id="edge10" class="edge">
<title>ndBlock1_8&#45;&gt;ndBlock1_5</title>
<path fill="none" stroke="black" d="M206.78,-319.15C205.65,-311.13 204.28,-301.38 203.02,-292.41"/>
<polygon fill="black" stroke="black" points="206.46,-291.78 201.6,-282.37 199.53,-292.76 206.46,-291.78"/>
</g>
<!-- ndBlock2_0 -->
<g id="node17" class="node">
<title>ndBlock2_0</title>
<ellipse fill="none" stroke="black" cx="604.21" cy="-337.34" rx="39.8" ry="18"/>
<text text-anchor="start" x="581.4" y="-336.87" font-family="Monaco" font-size="11.00">@9</text>
<text text-anchor="start" x="594.6" y="-336.87" font-family="Monaco" baseline-shift="super" font-size="8.00" fill="#3311ff">r0</text>
<text text-anchor="start" x="604.21" y="-336.87" font-family="Monaco" font-size="11.00">:1</text>
<text text-anchor="start" x="617.41" y="-336.87" font-family="Monaco" baseline-shift="super" font-size="8.00" fill="#ff4411">q3</text>
</g>
<!-- ndBlock2_1 -->
<g id="node18" class="node">
<title>ndBlock2_1</title>
<ellipse fill="none" stroke="black" cx="604.21" cy="-264.34" rx="29.45" ry="18"/>
<text text-anchor="start" x="589.5" y="-263.87" font-family="Monaco" font-size="11.00">out</text>
<text text-anchor="start" x="609.31" y="-263.87" font-family="Monaco" baseline-shift="super" font-size="8.00" fill="#ff4411">q4</text>
</g>
<!-- ndBlock2_0&#45;&gt;ndBlock2_1 -->
<g id="edge13" class="edge">
<title>ndBlock2_0&#45;&gt;ndBlock2_1</title>
<path fill="none" stroke="black" d="M604.21,-319.15C604.21,-311.13 604.21,-301.38 604.21,-292.41"/>
<polygon fill="black" stroke="black" points="607.71,-292.37 604.21,-282.37 600.71,-292.37 607.71,-292.37"/>
</g>
<!-- ndBlock3_0 -->
<g id="node19" class="node">
<title>ndBlock3_0</title>
<ellipse fill="none" stroke="black" cx="1009.21" cy="-337.34" rx="39.8" ry="18"/>
<text text-anchor="start" x="986.4" y="-336.87" font-family="Monaco" font-size="11.00">a</text>
<text text-anchor="start" x="993" y="-336.87" font-family="Monaco" baseline-shift="super" font-size="8.00" fill="#3311ff">r2</text>
<text text-anchor="start" x="1002.6" y="-336.87" font-family="Monaco" font-size="11.00">:in</text>
<text text-anchor="start" x="1022.41" y="-336.87" font-family="Monaco" baseline-shift="super" font-size="8.00" fill="#ff4411">q3</text>
</g>
<!-- ndBlock3_2 -->
<g id="node21" class="node">
<title>ndBlock3_2</title>
<ellipse fill="none" stroke="black" cx="938.21" cy="-264.34" rx="52.3" ry="18"/>
<text text-anchor="start" x="905.5" y="-263.87" font-family="Monaco" font-size="11.00">@10</text>
<text text-anchor="start" x="925.3" y="-263.87" font-family="Monaco" baseline-shift="super" font-size="8.00" fill="#3311ff">r0</text>
<text text-anchor="start" x="934.9" y="-263.87" font-family="Monaco" font-size="11.00">:a+b</text>
<text text-anchor="start" x="961.31" y="-263.87" font-family="Monaco" baseline-shift="super" font-size="8.00" fill="#ff4411">q4</text>
</g>
<!-- ndBlock3_0&#45;&gt;ndBlock3_2 -->
<g id="edge19" class="edge">
<title>ndBlock3_0&#45;&gt;ndBlock3_2</title>
<path fill="none" stroke="black" d="M993.45,-320.58C984.11,-311.24 972.1,-299.24 961.67,-288.8"/>
<polygon fill="black" stroke="black" points="963.96,-286.14 954.41,-281.54 959.01,-291.09 963.96,-286.14"/>
</g>
<!-- ndBlock3_6 -->
<g id="node25" class="node">
<title>ndBlock3_6</title>
<ellipse fill="none" stroke="black" cx="938.21" cy="-191.34" rx="99.26" ry="18"/>
<text text-anchor="start" x="869.19" y="-190.87" font-family="Monaco" font-size="11.00">@13</text>
<text text-anchor="start" x="889" y="-190.87" font-family="Monaco" baseline-shift="super" font-size="8.00" fill="#3311ff">r0</text>
<text text-anchor="start" x="898.6" y="-190.87" font-family="Monaco" font-size="11.00">:fib(@12,@10,a)</text>
<text text-anchor="start" x="997.61" y="-190.87" font-family="Monaco" baseline-shift="super" font-size="8.00" fill="#ff4411">q5</text>
</g>
<!-- ndBlock3_0&#45;&gt;ndBlock3_6 -->
<g id="edge16" class="edge">
<title>ndBlock3_0&#45;&gt;ndBlock3_6</title>
<path fill="none" stroke="black" d="M1011.41,-319.16C1013.21,-298.57 1013.48,-263.67 999.21,-238.34 993.97,-229.05 986.02,-221.07 977.57,-214.48"/>
<polygon fill="black" stroke="black" points="979.54,-211.59 969.38,-208.59 975.46,-217.27 979.54,-211.59"/>
</g>
<!-- ndBlock3_1 -->
<g id="node20" class="node">
<title>ndBlock3_1</title>
<ellipse fill="none" stroke="black" cx="912.21" cy="-337.34" rx="39.8" ry="18"/>
<text text-anchor="start" x="889.4" y="-336.87" font-family="Monaco" font-size="11.00">b</text>
<text text-anchor="start" x="896" y="-336.87" font-family="Monaco" baseline-shift="super" font-size="8.00" fill="#3311ff">r0</text>
<text text-anchor="start" x="905.6" y="-336.87" font-family="Monaco" font-size="11.00">:in</text>
<text text-anchor="start" x="925.41" y="-336.87" font-family="Monaco" baseline-shift="super" font-size="8.00" fill="#ff4411">q3</text>
</g>
<!-- ndBlock3_1&#45;&gt;ndBlock3_2 -->
<g id="edge20" class="edge">
<title>ndBlock3_1&#45;&gt;ndBlock3_2</title>
<path fill="none" stroke="black" d="M918.37,-319.51C921.37,-311.32 925.04,-301.27 928.42,-292.07"/>
<polygon fill="black" stroke="black" points="931.75,-293.13 931.91,-282.54 925.18,-290.72 931.75,-293.13"/>
</g>
<!-- ndBlock3_2&#45;&gt;ndBlock3_6 -->
<g id="edge17" class="edge">
<title>ndBlock3_2&#45;&gt;ndBlock3_6</title>
<path fill="none" stroke="black" d="M938.21,-246.15C938.21,-238.13 938.21,-228.38 938.21,-219.41"/>
<polygon fill="black" stroke="black" points="941.71,-219.37 938.21,-209.37 934.71,-219.37 941.71,-219.37"/>
</g>
<!-- ndBlock3_3 -->
<g id="node22" class="node">
<title>ndBlock3_3</title>
<ellipse fill="none" stroke="black" cx="938.21" cy="-104.67" rx="29.45" ry="18"/>
<text text-anchor="start" x="923.5" y="-104.2" font-family="Monaco" font-size="11.00">out</text>
<text text-anchor="start" x="943.31" y="-104.2" font-family="Monaco" baseline-shift="super" font-size="8.00" fill="#ff4411">q6</text>
</g>
<!-- ndBlock3_4 -->
<g id="node23" class="node">
<title>ndBlock3_4</title>
<ellipse fill="none" stroke="black" cx="810.21" cy="-337.34" rx="43.8" ry="18"/>
<text text-anchor="start" x="784.1" y="-336.87" font-family="Monaco" font-size="11.00">@11</text>
<text text-anchor="start" x="803.9" y="-336.87" font-family="Monaco" baseline-shift="super" font-size="8.00" fill="#3311ff">r3</text>
<text text-anchor="start" x="813.51" y="-336.87" font-family="Monaco" font-size="11.00">:1</text>
<text text-anchor="start" x="826.71" y="-336.87" font-family="Monaco" baseline-shift="super" font-size="8.00" fill="#ff4411">q3</text>
</g>
<!-- ndBlock3_5 -->
<g id="node24" class="node">
<title>ndBlock3_5</title>
<ellipse fill="none" stroke="black" cx="807.21" cy="-264.34" rx="60.79" ry="18"/>
<text text-anchor="start" x="767.9" y="-263.87" font-family="Monaco" font-size="11.00">@12</text>
<text text-anchor="start" x="787.7" y="-263.87" font-family="Monaco" baseline-shift="super" font-size="8.00" fill="#3311ff">r1</text>
<text text-anchor="start" x="797.3" y="-263.87" font-family="Monaco" font-size="11.00">:n&#45;@11</text>
<text text-anchor="start" x="836.91" y="-263.87" font-family="Monaco" baseline-shift="super" font-size="8.00" fill="#ff4411">q4</text>
</g>
<!-- ndBlock3_4&#45;&gt;ndBlock3_5 -->
<g id="edge14" class="edge">
<title>ndBlock3_4&#45;&gt;ndBlock3_5</title>
<path fill="none" stroke="black" d="M809.48,-319.15C809.14,-311.13 808.73,-301.38 808.35,-292.41"/>
<polygon fill="black" stroke="black" points="811.84,-292.21 807.92,-282.37 804.85,-292.5 811.84,-292.21"/>
</g>
<!-- ndBlock3_5&#45;&gt;ndBlock3_6 -->
<g id="edge18" class="edge">
<title>ndBlock3_5&#45;&gt;ndBlock3_6</title>
<path fill="none" stroke="black" d="M834.99,-248.28C853.7,-238.14 878.64,-224.62 899.32,-213.41"/>
<polygon fill="black" stroke="black" points="901.06,-216.45 908.18,-208.61 897.72,-210.3 901.06,-216.45"/>
</g>
<!-- ndBlock3_6&#45;&gt;ndBlock3_3 -->
<g id="edge21" class="edge">
<title>ndBlock3_6&#45;&gt;ndBlock3_3</title>
<path fill="none" stroke="black" d="M938.21,-173.2C938.21,-161.61 938.21,-146.06 938.21,-132.8"/>
<polygon fill="black" stroke="black" points="941.71,-132.78 938.21,-122.78 934.71,-132.78 941.71,-132.78"/>
</g>
<!-- ndBlock3_7 -->
<g id="node26" class="node">
<title>ndBlock3_7</title>
<ellipse fill="none" stroke="black" cx="708.21" cy="-337.34" rx="39.8" ry="18"/>
<text text-anchor="start" x="685.4" y="-336.87" font-family="Monaco" font-size="11.00">n</text>
<text text-anchor="start" x="692" y="-336.87" font-family="Monaco" baseline-shift="super" font-size="8.00" fill="#3311ff">r1</text>
<text text-anchor="start" x="701.6" y="-336.87" font-family="Monaco" font-size="11.00">:in</text>
<text text-anchor="start" x="721.41" y="-336.87" font-family="Monaco" baseline-shift="super" font-size="8.00" fill="#ff4411">q3</text>
</g>
<!-- ndBlock3_7&#45;&gt;ndBlock3_5 -->
<g id="edge15" class="edge">
<title>ndBlock3_7&#45;&gt;ndBlock3_5</title>
<path fill="none" stroke="black" d="M728.72,-321.63C742.58,-311.69 761.11,-298.39 776.69,-287.22"/>
<polygon fill="black" stroke="black" points="778.91,-289.94 785,-281.26 774.83,-284.25 778.91,-289.94"/>
</g>
</g>
</svg>
