<?xml version="1.0" encoding="UTF-8" standalone="no"?>
<!DOCTYPE svg PUBLIC "-//W3C//DTD SVG 1.1//EN"
 "http://www.w3.org/Graphics/SVG/1.1/DTD/svg11.dtd">
<!-- Generated by graphviz version 2.43.0 (0)
 -->
<!-- Title: Program_ Pages: 1 -->
<svg width="966pt" height="403pt"
 viewBox="0.00 0.00 966.21 403.34" xmlns="http://www.w3.org/2000/svg" xmlns:xlink="http://www.w3.org/1999/xlink">
<g id="graph0" class="graph" transform="scale(1 1) rotate(0) translate(4 399.34)">
<title>Program_</title>
<polygon fill="white" stroke="transparent" points="-4,4 -4,-399.34 962.21,-399.34 962.21,4 -4,4"/>
<g id="clust1" class="cluster">
<title>cluster_dfg_Block1</title>
<polygon fill="none" stroke="black" points="161.21,-165.34 161.21,-387.34 507.21,-387.34 507.21,-165.34 161.21,-165.34"/>
<text text-anchor="middle" x="334.21" y="-373.74" font-family="Monaco" font-size="12.00">Block1</text>
</g>
<g id="clust2" class="cluster">
<title>cluster_dfg_Block2</title>
<polygon fill="none" stroke="black" points="515.21,-238.34 515.21,-387.34 597.21,-387.34 597.21,-238.34 515.21,-238.34"/>
<text text-anchor="middle" x="556.21" y="-373.74" font-family="Monaco" font-size="12.00">Block2</text>
</g>
<g id="clust3" class="cluster">
<title>cluster_dfg_Block3</title>
<polygon fill="none" stroke="black" points="605.21,-78.67 605.21,-387.34 950.21,-387.34 950.21,-78.67 605.21,-78.67"/>
<text text-anchor="middle" x="777.71" y="-373.74" font-family="Monaco" font-size="12.00">Block3</text>
</g>
<!-- Jump2 -->
<g id="node1" class="node">
<title>Jump2</title>
<polygon fill="none" stroke="black" points="127.82,-355.34 36.59,-355.34 36.59,-351.34 32.59,-351.34 32.59,-347.34 36.59,-347.34 36.59,-327.34 32.59,-327.34 32.59,-323.34 36.59,-323.34 36.59,-319.34 127.82,-319.34 127.82,-355.34"/>
<polyline fill="none" stroke="black" points="36.59,-351.34 40.59,-351.34 40.59,-347.34 36.59,-347.34 "/>
<polyline fill="none" stroke="black" points="36.59,-327.34 40.59,-327.34 40.59,-323.34 36.59,-323.34 "/>
<text text-anchor="start" x="44.4" y="-336.87" font-family="Monaco" font-size="11.00">StartFun.2</text>
<text text-anchor="start" x="110.41" y="-336.87" font-family="Monaco" baseline-shift="super" font-size="8.00" fill="#ff4411">q0</text>
</g>
<!-- Block1 -->
<g id="node2" class="node">
<title>Block1</title>
<polygon fill="none" stroke="black" points="109.81,-282.34 54.6,-282.34 54.6,-246.34 109.81,-246.34 109.81,-282.34"/>
<text text-anchor="middle" x="82.21" y="-262.87" font-family="Monaco" font-size="11.00">Block1</text>
</g>
<!-- Jump2&#45;&gt;Block1 -->
<g id="edge1" class="edge">
<title>Jump2&#45;&gt;Block1</title>
<path fill="none" stroke="black" d="M82.21,-319.15C82.21,-311.13 82.21,-301.38 82.21,-292.41"/>
<polygon fill="black" stroke="black" points="85.71,-292.37 82.21,-282.37 78.71,-292.37 85.71,-292.37"/>
</g>
<!-- Jump3 -->
<g id="node3" class="node">
<title>Jump3</title>
<path fill="none" stroke="black" d="M111.81,-209.34C111.81,-209.34 52.6,-209.34 52.6,-209.34 46.6,-209.34 36.79,-204.7 32.97,-200.07 32.97,-200.07 18.59,-182.6 18.59,-182.6 14.78,-177.97 16.96,-173.34 22.96,-173.34 22.96,-173.34 141.45,-173.34 141.45,-173.34 147.45,-173.34 149.63,-177.97 145.82,-182.6 145.82,-182.6 131.44,-200.07 131.44,-200.07 127.62,-204.7 117.81,-209.34 111.81,-209.34"/>
<text text-anchor="start" x="51" y="-190.87" font-family="Monaco" font-size="11.00">Branch.3</text>
<text text-anchor="start" x="103.81" y="-190.87" font-family="Monaco" baseline-shift="super" font-size="8.00" fill="#ff4411">q3</text>
</g>
<!-- Block1&#45;&gt;Jump3 -->
<g id="edge2" class="edge">
<title>Block1&#45;&gt;Jump3</title>
<path fill="none" stroke="black" d="M82.21,-246.15C82.21,-238.13 82.21,-228.38 82.21,-219.41"/>
<polygon fill="black" stroke="black" points="85.71,-219.37 82.21,-209.37 78.71,-219.37 85.71,-219.37"/>
</g>
<!-- Block2 -->
<g id="node4" class="node">
<title>Block2</title>
<polygon fill="none" stroke="black" points="72.81,-122.67 17.6,-122.67 17.6,-86.67 72.81,-86.67 72.81,-122.67"/>
<text text-anchor="middle" x="45.21" y="-103.2" font-family="Monaco" font-size="11.00">Block2</text>
</g>
<!-- Jump3&#45;&gt;Block2 -->
<g id="edge3" class="edge">
<title>Jump3&#45;&gt;Block2</title>
<path fill="none" stroke="black" d="M74.72,-173.2C69.55,-161.38 62.59,-145.44 56.72,-132.01"/>
<polygon fill="black" stroke="black" points="59.89,-130.54 52.68,-122.78 53.48,-133.34 59.89,-130.54"/>
<text text-anchor="middle" x="72.81" y="-146.54" font-family="Monaco" font-size="11.00">@8</text>
</g>
<!-- Block3 -->
<g id="node5" class="node">
<title>Block3</title>
<polygon fill="none" stroke="black" points="157.81,-122.67 102.6,-122.67 102.6,-86.67 157.81,-86.67 157.81,-122.67"/>
<text text-anchor="middle" x="130.21" y="-103.2" font-family="Monaco" font-size="11.00">Block3</text>
</g>
<!-- Jump3&#45;&gt;Block3 -->
<g id="edge4" class="edge">
<title>Jump3&#45;&gt;Block3</title>
<path fill="none" stroke="black" d="M91.92,-173.2C98.68,-161.27 107.83,-145.13 115.49,-131.62"/>
<polygon fill="black" stroke="black" points="118.62,-133.2 120.51,-122.78 112.53,-129.75 118.62,-133.2"/>
<text text-anchor="middle" x="119.11" y="-146.54" font-family="Monaco" font-size="11.00">!@8</text>
</g>
<!-- Jump6 -->
<g id="node6" class="node">
<title>Jump6</title>
<polygon fill="none" stroke="black" points="78.62,-30 17.79,-30 17.79,-36 -0.21,-18 17.79,0 17.79,-6 60.62,-6 60.62,0 78.62,0 78.62,-30"/>
<text text-anchor="start" x="8" y="-17.53" font-family="Monaco" font-size="11.00">Return.6</text>
<text text-anchor="start" x="60.81" y="-17.53" font-family="Monaco" baseline-shift="super" font-size="8.00" fill="#ff4411">q4</text>
</g>
<!-- Block2&#45;&gt;Jump6 -->
<g id="edge5" class="edge">
<title>Block2&#45;&gt;Jump6</title>
<path fill="none" stroke="black" d="M43.99,-86.53C43.17,-74.94 42.07,-59.39 41.13,-46.13"/>
<polygon fill="black" stroke="black" points="44.62,-45.84 40.42,-36.11 37.63,-46.33 44.62,-45.84"/>
<text text-anchor="middle" x="49.81" y="-59.87" font-family="Monaco" font-size="11.00">@9</text>
</g>
<!-- Jump7 -->
<g id="node7" class="node">
<title>Jump7</title>
<polygon fill="none" stroke="black" points="174.62,-30 113.79,-30 113.79,-36 95.79,-18 113.79,0 113.79,-6 156.62,-6 156.62,0 174.62,0 174.62,-30"/>
<text text-anchor="start" x="104" y="-17.53" font-family="Monaco" font-size="11.00">Return.7</text>
<text text-anchor="start" x="156.81" y="-17.53" font-family="Monaco" baseline-shift="super" font-size="8.00" fill="#ff4411">q6</text>
</g>
<!-- Block3&#45;&gt;Jump7 -->
<g id="edge6" class="edge">
<title>Block3&#45;&gt;Jump7</title>
<path fill="none" stroke="black" d="M131.22,-86.53C131.9,-74.94 132.82,-59.39 133.6,-46.13"/>
<polygon fill="black" stroke="black" points="137.1,-46.3 134.19,-36.11 130.11,-45.88 137.1,-46.3"/>
<text text-anchor="middle" x="143.11" y="-59.87" font-family="Monaco" font-size="11.00">@13</text>
</g>
<!-- ndBlock1_0 -->
<g id="node8" class="node">
<title>ndBlock1_0</title>
<ellipse fill="none" stroke="black" cx="296.21" cy="-191.34" rx="29.45" ry="18"/>
<text text-anchor="start" x="281.5" y="-190.87" font-family="Monaco" font-size="11.00">out</text>
<text text-anchor="start" x="301.31" y="-190.87" font-family="Monaco" baseline-shift="super" font-size="8.00" fill="#ff4411">q2</text>
</g>
<!-- ndBlock1_1 -->
<g id="node9" class="node">
<title>ndBlock1_1</title>
<ellipse fill="none" stroke="black" cx="296.21" cy="-264.34" rx="50.43" ry="18"/>
<text text-anchor="start" x="265" y="-263.87" font-family="Monaco" font-size="11.00">@8:n==@7</text>
<text text-anchor="start" x="317.81" y="-263.87" font-family="Monaco" baseline-shift="super" font-size="8.00" fill="#ff4411">q1</text>
</g>
<!-- ndBlock1_1&#45;&gt;ndBlock1_0 -->
<g id="edge12" class="edge">
<title>ndBlock1_1&#45;&gt;ndBlock1_0</title>
<path fill="none" stroke="black" d="M296.21,-246.15C296.21,-238.13 296.21,-228.38 296.21,-219.41"/>
<polygon fill="black" stroke="black" points="299.71,-219.37 296.21,-209.37 292.71,-219.37 299.71,-219.37"/>
</g>
<!-- ndBlock1_2 -->
<g id="node10" class="node">
<title>ndBlock1_2</title>
<ellipse fill="none" stroke="black" cx="394.21" cy="-264.34" rx="29.45" ry="18"/>
<text text-anchor="start" x="379.5" y="-263.87" font-family="Monaco" font-size="11.00">out</text>
<text text-anchor="start" x="399.31" y="-263.87" font-family="Monaco" baseline-shift="super" font-size="8.00" fill="#ff4411">q2</text>
</g>
<!-- ndBlock1_3 -->
<g id="node11" class="node">
<title>ndBlock1_3</title>
<ellipse fill="none" stroke="black" cx="466.21" cy="-337.34" rx="33.44" ry="18"/>
<text text-anchor="start" x="448.2" y="-336.87" font-family="Monaco" font-size="11.00">a:in</text>
<text text-anchor="start" x="474.61" y="-336.87" font-family="Monaco" baseline-shift="super" font-size="8.00" fill="#ff4411">q0</text>
</g>
<!-- ndBlock1_6 -->
<g id="node14" class="node">
<title>ndBlock1_6</title>
<ellipse fill="none" stroke="black" cx="470.21" cy="-264.34" rx="29.45" ry="18"/>
<text text-anchor="start" x="455.5" y="-263.87" font-family="Monaco" font-size="11.00">out</text>
<text text-anchor="start" x="475.31" y="-263.87" font-family="Monaco" baseline-shift="super" font-size="8.00" fill="#ff4411">q2</text>
</g>
<!-- ndBlock1_3&#45;&gt;ndBlock1_6 -->
<g id="edge11" class="edge">
<title>ndBlock1_3&#45;&gt;ndBlock1_6</title>
<path fill="none" stroke="black" d="M467.17,-319.15C467.63,-311.13 468.17,-301.38 468.68,-292.41"/>
<polygon fill="black" stroke="black" points="472.18,-292.55 469.25,-282.37 465.19,-292.15 472.18,-292.55"/>
</g>
<!-- ndBlock1_4 -->
<g id="node12" class="node">
<title>ndBlock1_4</title>
<ellipse fill="none" stroke="black" cx="381.21" cy="-337.34" rx="33.44" ry="18"/>
<text text-anchor="start" x="363.2" y="-336.87" font-family="Monaco" font-size="11.00">b:in</text>
<text text-anchor="start" x="389.61" y="-336.87" font-family="Monaco" baseline-shift="super" font-size="8.00" fill="#ff4411">q0</text>
</g>
<!-- ndBlock1_4&#45;&gt;ndBlock1_2 -->
<g id="edge7" class="edge">
<title>ndBlock1_4&#45;&gt;ndBlock1_2</title>
<path fill="none" stroke="black" d="M384.35,-319.15C385.82,-311.13 387.6,-301.38 389.25,-292.41"/>
<polygon fill="black" stroke="black" points="392.73,-292.83 391.09,-282.37 385.84,-291.57 392.73,-292.83"/>
</g>
<!-- ndBlock1_5 -->
<g id="node13" class="node">
<title>ndBlock1_5</title>
<ellipse fill="none" stroke="black" cx="198.21" cy="-264.34" rx="29.45" ry="18"/>
<text text-anchor="start" x="183.5" y="-263.87" font-family="Monaco" font-size="11.00">out</text>
<text text-anchor="start" x="203.31" y="-263.87" font-family="Monaco" baseline-shift="super" font-size="8.00" fill="#ff4411">q2</text>
</g>
<!-- ndBlock1_7 -->
<g id="node15" class="node">
<title>ndBlock1_7</title>
<ellipse fill="none" stroke="black" cx="296.21" cy="-337.34" rx="33.44" ry="18"/>
<text text-anchor="start" x="278.2" y="-336.87" font-family="Monaco" font-size="11.00">@7:0</text>
<text text-anchor="start" x="304.61" y="-336.87" font-family="Monaco" baseline-shift="super" font-size="8.00" fill="#ff4411">q0</text>
</g>
<!-- ndBlock1_7&#45;&gt;ndBlock1_1 -->
<g id="edge8" class="edge">
<title>ndBlock1_7&#45;&gt;ndBlock1_1</title>
<path fill="none" stroke="black" d="M296.21,-319.15C296.21,-311.13 296.21,-301.38 296.21,-292.41"/>
<polygon fill="black" stroke="black" points="299.71,-292.37 296.21,-282.37 292.71,-292.37 299.71,-292.37"/>
</g>
<!-- ndBlock1_8 -->
<g id="node16" class="node">
<title>ndBlock1_8</title>
<ellipse fill="none" stroke="black" cx="207.21" cy="-337.34" rx="33.44" ry="18"/>
<text text-anchor="start" x="189.2" y="-336.87" font-family="Monaco" font-size="11.00">n:in</text>
<text text-anchor="start" x="215.61" y="-336.87" font-family="Monaco" baseline-shift="super" font-size="8.00" fill="#ff4411">q0</text>
</g>
<!-- ndBlock1_8&#45;&gt;ndBlock1_1 -->
<g id="edge9" class="edge">
<title>ndBlock1_8&#45;&gt;ndBlock1_1</title>
<path fill="none" stroke="black" d="M225.22,-321.97C237.61,-312.08 254.33,-298.75 268.42,-287.5"/>
<polygon fill="black" stroke="black" points="270.73,-290.14 276.36,-281.17 266.36,-284.67 270.73,-290.14"/>
</g>
<!-- ndBlock1_8&#45;&gt;ndBlock1_5 -->
<g id="edge10" class="edge">
<title>ndBlock1_8&#45;&gt;ndBlock1_5</title>
<path fill="none" stroke="black" d="M205.03,-319.15C204.01,-311.13 202.77,-301.38 201.64,-292.41"/>
<polygon fill="black" stroke="black" points="205.09,-291.85 200.36,-282.37 198.15,-292.73 205.09,-291.85"/>
</g>
<!-- ndBlock2_0 -->
<g id="node17" class="node">
<title>ndBlock2_0</title>
<ellipse fill="none" stroke="black" cx="556.21" cy="-337.34" rx="33.44" ry="18"/>
<text text-anchor="start" x="538.2" y="-336.87" font-family="Monaco" font-size="11.00">@9:1</text>
<text text-anchor="start" x="564.61" y="-336.87" font-family="Monaco" baseline-shift="super" font-size="8.00" fill="#ff4411">q3</text>
</g>
<!-- ndBlock2_1 -->
<g id="node18" class="node">
<title>ndBlock2_1</title>
<ellipse fill="none" stroke="black" cx="556.21" cy="-264.34" rx="29.45" ry="18"/>
<text text-anchor="start" x="541.5" y="-263.87" font-family="Monaco" font-size="11.00">out</text>
<text text-anchor="start" x="561.31" y="-263.87" font-family="Monaco" baseline-shift="super" font-size="8.00" fill="#ff4411">q4</text>
</g>
<!-- ndBlock2_0&#45;&gt;ndBlock2_1 -->
<g id="edge13" class="edge">
<title>ndBlock2_0&#45;&gt;ndBlock2_1</title>
<path fill="none" stroke="black" d="M556.21,-319.15C556.21,-311.13 556.21,-301.38 556.21,-292.41"/>
<polygon fill="black" stroke="black" points="559.71,-292.37 556.21,-282.37 552.71,-292.37 559.71,-292.37"/>
</g>
<!-- ndBlock3_0 -->
<g id="node19" class="node">
<title>ndBlock3_0</title>
<ellipse fill="none" stroke="black" cx="909.21" cy="-337.34" rx="33.44" ry="18"/>
<text text-anchor="start" x="891.2" y="-336.87" font-family="Monaco" font-size="11.00">a:in</text>
<text text-anchor="start" x="917.61" y="-336.87" font-family="Monaco" baseline-shift="super" font-size="8.00" fill="#ff4411">q3</text>
</g>
<!-- ndBlock3_2 -->
<g id="node21" class="node">
<title>ndBlock3_2</title>
<ellipse fill="none" stroke="black" cx="844.21" cy="-264.34" rx="46.44" ry="18"/>
<text text-anchor="start" x="816.3" y="-263.87" font-family="Monaco" font-size="11.00">@10:a+b</text>
<text text-anchor="start" x="862.51" y="-263.87" font-family="Monaco" baseline-shift="super" font-size="8.00" fill="#ff4411">q4</text>
</g>
<!-- ndBlock3_0&#45;&gt;ndBlock3_2 -->
<g id="edge19" class="edge">
<title>ndBlock3_0&#45;&gt;ndBlock3_2</title>
<path fill="none" stroke="black" d="M895.1,-320.93C886.59,-311.64 875.57,-299.6 865.97,-289.11"/>
<polygon fill="black" stroke="black" points="868.29,-286.46 858.96,-281.45 863.13,-291.19 868.29,-286.46"/>
</g>
<!-- ndBlock3_6 -->
<g id="node25" class="node">
<title>ndBlock3_6</title>
<ellipse fill="none" stroke="black" cx="844.21" cy="-191.34" rx="92.9" ry="18"/>
<text text-anchor="start" x="779.99" y="-190.87" font-family="Monaco" font-size="11.00">@13:fib(@12,@10,a)</text>
<text text-anchor="start" x="898.81" y="-190.87" font-family="Monaco" baseline-shift="super" font-size="8.00" fill="#ff4411">q5</text>
</g>
<!-- ndBlock3_0&#45;&gt;ndBlock3_6 -->
<g id="edge16" class="edge">
<title>ndBlock3_0&#45;&gt;ndBlock3_6</title>
<path fill="none" stroke="black" d="M911.19,-319.28C912.77,-298.81 912.84,-264.02 899.21,-238.34 894.53,-229.54 887.41,-221.74 879.81,-215.18"/>
<polygon fill="black" stroke="black" points="881.5,-212.05 871.49,-208.57 877.14,-217.53 881.5,-212.05"/>
</g>
<!-- ndBlock3_1 -->
<g id="node20" class="node">
<title>ndBlock3_1</title>
<ellipse fill="none" stroke="black" cx="824.21" cy="-337.34" rx="33.44" ry="18"/>
<text text-anchor="start" x="806.2" y="-336.87" font-family="Monaco" font-size="11.00">b:in</text>
<text text-anchor="start" x="832.61" y="-336.87" font-family="Monaco" baseline-shift="super" font-size="8.00" fill="#ff4411">q3</text>
</g>
<!-- ndBlock3_1&#45;&gt;ndBlock3_2 -->
<g id="edge20" class="edge">
<title>ndBlock3_1&#45;&gt;ndBlock3_2</title>
<path fill="none" stroke="black" d="M828.94,-319.51C831.23,-311.41 834.02,-301.49 836.59,-292.36"/>
<polygon fill="black" stroke="black" points="840.02,-293.11 839.36,-282.54 833.28,-291.21 840.02,-293.11"/>
</g>
<!-- ndBlock3_2&#45;&gt;ndBlock3_6 -->
<g id="edge17" class="edge">
<title>ndBlock3_2&#45;&gt;ndBlock3_6</title>
<path fill="none" stroke="black" d="M844.21,-246.15C844.21,-238.13 844.21,-228.38 844.21,-219.41"/>
<polygon fill="black" stroke="black" points="847.71,-219.37 844.21,-209.37 840.71,-219.37 847.71,-219.37"/>
</g>
<!-- ndBlock3_3 -->
<g id="node22" class="node">
<title>ndBlock3_3</title>
<ellipse fill="none" stroke="black" cx="844.21" cy="-104.67" rx="29.45" ry="18"/>
<text text-anchor="start" x="829.5" y="-104.2" font-family="Monaco" font-size="11.00">out</text>
<text text-anchor="start" x="849.31" y="-104.2" font-family="Monaco" baseline-shift="super" font-size="8.00" fill="#ff4411">q6</text>
</g>
<!-- ndBlock3_4 -->
<g id="node23" class="node">
<title>ndBlock3_4</title>
<ellipse fill="none" stroke="black" cx="735.21" cy="-337.34" rx="37.94" ry="18"/>
<text text-anchor="start" x="713.9" y="-336.87" font-family="Monaco" font-size="11.00">@11:1</text>
<text text-anchor="start" x="746.91" y="-336.87" font-family="Monaco" baseline-shift="super" font-size="8.00" fill="#ff4411">q3</text>
</g>
<!-- ndBlock3_5 -->
<g id="node24" class="node">
<title>ndBlock3_5</title>
<ellipse fill="none" stroke="black" cx="725.21" cy="-264.34" rx="54.93" ry="18"/>
<text text-anchor="start" x="690.7" y="-263.87" font-family="Monaco" font-size="11.00">@12:n&#45;@11</text>
<text text-anchor="start" x="750.11" y="-263.87" font-family="Monaco" baseline-shift="super" font-size="8.00" fill="#ff4411">q4</text>
</g>
<!-- ndBlock3_4&#45;&gt;ndBlock3_5 -->
<g id="edge14" class="edge">
<title>ndBlock3_4&#45;&gt;ndBlock3_5</title>
<path fill="none" stroke="black" d="M732.78,-319.15C731.65,-311.13 730.28,-301.38 729.02,-292.41"/>
<polygon fill="black" stroke="black" points="732.46,-291.78 727.6,-282.37 725.53,-292.76 732.46,-291.78"/>
</g>
<!-- ndBlock3_5&#45;&gt;ndBlock3_6 -->
<g id="edge18" class="edge">
<title>ndBlock3_5&#45;&gt;ndBlock3_6</title>
<path fill="none" stroke="black" d="M750.44,-248.28C767.21,-238.27 789.49,-224.98 808.12,-213.87"/>
<polygon fill="black" stroke="black" points="810.14,-216.74 816.93,-208.61 806.55,-210.73 810.14,-216.74"/>
</g>
<!-- ndBlock3_6&#45;&gt;ndBlock3_3 -->
<g id="edge21" class="edge">
<title>ndBlock3_6&#45;&gt;ndBlock3_3</title>
<path fill="none" stroke="black" d="M844.21,-173.2C844.21,-161.61 844.21,-146.06 844.21,-132.8"/>
<polygon fill="black" stroke="black" points="847.71,-132.78 844.21,-122.78 840.71,-132.78 847.71,-132.78"/>
</g>
<!-- ndBlock3_7 -->
<g id="node26" class="node">
<title>ndBlock3_7</title>
<ellipse fill="none" stroke="black" cx="646.21" cy="-337.34" rx="33.44" ry="18"/>
<text text-anchor="start" x="628.2" y="-336.87" font-family="Monaco" font-size="11.00">n:in</text>
<text text-anchor="start" x="654.61" y="-336.87" font-family="Monaco" baseline-shift="super" font-size="8.00" fill="#ff4411">q3</text>
</g>
<!-- ndBlock3_7&#45;&gt;ndBlock3_5 -->
<g id="edge15" class="edge">
<title>ndBlock3_7&#45;&gt;ndBlock3_5</title>
<path fill="none" stroke="black" d="M662.57,-321.63C673.25,-312.03 687.41,-299.3 699.56,-288.38"/>
<polygon fill="black" stroke="black" points="702.11,-290.8 707.2,-281.51 697.43,-285.6 702.11,-290.8"/>
</g>
</g>
</svg>
