<?xml version="1.0" encoding="UTF-8" standalone="no"?>
<!DOCTYPE svg PUBLIC "-//W3C//DTD SVG 1.1//EN"
 "http://www.w3.org/Graphics/SVG/1.1/DTD/svg11.dtd">
<!-- Generated by graphviz version 2.43.0 (0)
 -->
<!-- Title: Program_ Pages: 1 -->
<svg width="822pt" height="439pt"
 viewBox="0.00 0.00 821.64 438.93" xmlns="http://www.w3.org/2000/svg" xmlns:xlink="http://www.w3.org/1999/xlink">
<g id="graph0" class="graph" transform="scale(1 1) rotate(0) translate(4 434.93)">
<title>Program_</title>
<polygon fill="white" stroke="transparent" points="-4,4 -4,-434.93 817.64,-434.93 817.64,4 -4,4"/>
<g id="clust1" class="cluster">
<title>cluster_dfg_Block0</title>
<polygon fill="none" stroke="black" points="247.64,-257.92 247.64,-422.93 439.64,-422.93 439.64,-257.92 247.64,-257.92"/>
<text text-anchor="start" x="322.04" y="-409.33" font-family="Monaco" font-size="12.00">Block0</text>
<text text-anchor="start" x="329.24" y="-393.33" font-family="Monaco" font-size="12.00">(=&gt;)</text>
</g>
<g id="clust2" class="cluster">
<title>cluster_dfg_Block0_4</title>
<polygon fill="none" stroke="black" points="447.64,-171.26 447.64,-422.93 805.64,-422.93 805.64,-171.26 447.64,-171.26"/>
<text text-anchor="start" x="597.84" y="-409.33" font-family="Monaco" font-size="12.00">Block0_4</text>
<text text-anchor="start" x="612.24" y="-393.33" font-family="Monaco" font-size="12.00">(=&gt;)</text>
</g>
<!-- Jump0 -->
<g id="node1" class="node">
<title>Jump0</title>
<polygon fill="none" stroke="black" points="239.86,-374.92 123.43,-374.92 123.43,-370.92 119.43,-370.92 119.43,-366.92 123.43,-366.92 123.43,-346.92 119.43,-346.92 119.43,-342.92 123.43,-342.92 123.43,-338.92 239.86,-338.92 239.86,-374.92"/>
<polyline fill="none" stroke="black" points="123.43,-370.92 127.43,-370.92 127.43,-366.92 123.43,-366.92 "/>
<polyline fill="none" stroke="black" points="123.43,-346.92 127.43,-346.92 127.43,-342.92 123.43,-342.92 "/>
<text text-anchor="start" x="143.84" y="-360.12" font-family="Monaco" baseline-shift="super" font-size="8.00" fill="#ff4411">q0</text>
<text text-anchor="start" x="153.44" y="-360.12" font-family="Monaco" font-size="11.00">StartFun.0</text>
<text text-anchor="start" x="131.54" y="-349.12" font-family="Monaco" font-size="11.00">n</text>
<text text-anchor="start" x="138.14" y="-349.12" font-family="Monaco" baseline-shift="super" font-size="8.00" fill="#00aa11">U6</text>
<text text-anchor="start" x="147.74" y="-349.12" font-family="Monaco" baseline-shift="super" font-size="8.00" fill="#3311ff">r0</text>
<text text-anchor="start" x="157.34" y="-349.12" font-family="Monaco" font-size="11.00">,a</text>
<text text-anchor="start" x="170.54" y="-349.12" font-family="Monaco" baseline-shift="super" font-size="8.00" fill="#00aa11">U32</text>
<text text-anchor="start" x="184.94" y="-349.12" font-family="Monaco" baseline-shift="super" font-size="8.00" fill="#3311ff">r0</text>
<text text-anchor="start" x="194.55" y="-349.12" font-family="Monaco" font-size="11.00">,b</text>
<text text-anchor="start" x="207.75" y="-349.12" font-family="Monaco" baseline-shift="super" font-size="8.00" fill="#00aa11">U32</text>
<text text-anchor="start" x="222.15" y="-349.12" font-family="Monaco" baseline-shift="super" font-size="8.00" fill="#3311ff">r0</text>
</g>
<!-- Block0 -->
<g id="node2" class="node">
<title>Block0</title>
<polygon fill="none" stroke="black" points="209.25,-301.92 154.04,-301.92 154.04,-265.92 209.25,-265.92 209.25,-301.92"/>
<text text-anchor="middle" x="181.64" y="-282.46" font-family="Monaco" font-size="11.00">Block0</text>
</g>
<!-- Jump0&#45;&gt;Block0 -->
<g id="edge1" class="edge">
<title>Jump0&#45;&gt;Block0</title>
<path fill="none" stroke="black" d="M181.64,-338.74C181.64,-330.71 181.64,-320.97 181.64,-311.99"/>
<polygon fill="black" stroke="black" points="185.14,-311.95 181.64,-301.95 178.14,-311.95 185.14,-311.95"/>
</g>
<!-- Jump1_7 -->
<g id="node3" class="node">
<title>Jump1_7</title>
<polygon fill="#fbb4ae" stroke="black" points="275.42,-202.82 181.64,-215.26 87.87,-202.82 87.95,-182.69 275.33,-182.69 275.42,-202.82"/>
<text text-anchor="start" x="130.64" y="-196.79" font-family="Monaco" baseline-shift="super" font-size="8.00" fill="#ff4411">q2</text>
<text text-anchor="start" x="140.24" y="-196.79" font-family="Monaco" font-size="11.00">ForLoopTop.1_7</text>
</g>
<!-- Block0&#45;&gt;Jump1_7 -->
<g id="edge2" class="edge">
<title>Block0&#45;&gt;Jump1_7</title>
<path fill="none" stroke="black" d="M181.64,-265.79C181.64,-254.2 181.64,-238.65 181.64,-225.39"/>
<polygon fill="black" stroke="black" points="185.14,-225.36 181.64,-215.36 178.14,-225.36 185.14,-225.36"/>
<text text-anchor="start" x="181.64" y="-240.12" font-family="Monaco" font-size="11.00" fill="#fbb4ae">a</text>
<text text-anchor="start" x="188.24" y="-240.12" font-family="Monaco" baseline-shift="sub" font-size="8.00" fill="#999999">a</text>
<text text-anchor="start" x="193.05" y="-240.12" font-family="Monaco" font-size="11.00" fill="#fbb4ae">,@c</text>
<text text-anchor="start" x="212.85" y="-240.12" font-family="Monaco" baseline-shift="sub" font-size="8.00" fill="#999999">a</text>
<text text-anchor="start" x="217.65" y="-240.12" font-family="Monaco" font-size="11.00" fill="#fbb4ae">,@d</text>
<text text-anchor="start" x="237.45" y="-240.12" font-family="Monaco" baseline-shift="sub" font-size="8.00" fill="#999999">a</text>
<text text-anchor="start" x="242.25" y="-240.12" font-family="Monaco" font-size="11.00" fill="#fbb4ae">,@f</text>
<text text-anchor="start" x="262.06" y="-240.12" font-family="Monaco" baseline-shift="sub" font-size="8.00" fill="#999999">a</text>
<text text-anchor="start" x="266.86" y="-240.12" font-family="Monaco" font-size="11.00" fill="#fbb4ae">,n</text>
<text text-anchor="start" x="280.06" y="-240.12" font-family="Monaco" baseline-shift="sub" font-size="8.00" fill="#999999">a</text>
<text text-anchor="start" x="284.86" y="-240.12" font-family="Monaco" font-size="11.00" fill="#fbb4ae">,b</text>
<text text-anchor="start" x="298.06" y="-240.12" font-family="Monaco" baseline-shift="sub" font-size="8.00" fill="#999999">a</text>
<text text-anchor="start" x="302.86" y="-240.12" font-family="Monaco" font-size="11.00" fill="#fbb4ae">,n0</text>
<text text-anchor="start" x="322.67" y="-240.12" font-family="Monaco" baseline-shift="sub" font-size="8.00" fill="#999999">a</text>
</g>
<!-- Block0_4 -->
<g id="node4" class="node">
<title>Block0_4</title>
<polygon fill="none" stroke="black" points="172.95,-125.63 104.33,-125.63 104.33,-89.63 172.95,-89.63 172.95,-125.63"/>
<text text-anchor="middle" x="138.64" y="-106.16" font-family="Monaco" font-size="11.00">Block0_4</text>
</g>
<!-- Jump1_7&#45;&gt;Block0_4 -->
<g id="edge3" class="edge">
<title>Jump1_7&#45;&gt;Block0_4</title>
<path fill="none" stroke="black" d="M174.93,-182.56C168.7,-169.89 159.28,-150.69 151.6,-135.04"/>
<polygon fill="black" stroke="black" points="154.64,-133.27 147.09,-125.84 148.35,-136.35 154.64,-133.27"/>
<text text-anchor="start" x="164.64" y="-153.46" font-family="Monaco" font-size="11.00">!@c</text>
<text text-anchor="start" x="184.45" y="-153.46" font-family="Monaco" baseline-shift="sub" font-size="8.00" fill="#999999">a</text>
</g>
<!-- Block1_5 -->
<g id="node6" class="node">
<title>Block1_5</title>
<polygon fill="none" stroke="black" points="274.95,-128.55 206.33,-128.55 206.33,-86.71 274.95,-86.71 274.95,-128.55"/>
<text text-anchor="start" x="214.24" y="-115.79" font-family="Monaco" font-size="11.00">Block1_5</text>
<text text-anchor="middle" x="240.64" y="-101.12" font-family="Monaco" font-size="11.00">(0行)</text>
</g>
<!-- Jump1_7&#45;&gt;Block1_5 -->
<g id="edge5" class="edge">
<title>Jump1_7&#45;&gt;Block1_5</title>
<path fill="none" stroke="black" d="M190.86,-182.56C198.99,-170.49 211.1,-152.51 221.34,-137.3"/>
<polygon fill="black" stroke="black" points="224.43,-138.98 227.11,-128.73 218.62,-135.07 224.43,-138.98"/>
<text text-anchor="start" x="215.64" y="-153.46" font-family="Monaco" font-size="11.00">@c</text>
<text text-anchor="start" x="228.85" y="-153.46" font-family="Monaco" baseline-shift="sub" font-size="8.00" fill="#999999">a</text>
</g>
<!-- Jump1_8 -->
<g id="node5" class="node">
<title>Jump1_8</title>
<polygon fill="#fbb4ae" stroke="black" points="-0.14,-12.44 109.64,0 219.43,-12.44 219.33,-32.56 -0.04,-32.56 -0.14,-12.44"/>
<text text-anchor="start" x="48.73" y="-17.53" font-family="Monaco" baseline-shift="super" font-size="8.00" fill="#ff4411">q5</text>
<text text-anchor="start" x="58.34" y="-17.53" font-family="Monaco" font-size="11.00">ForLoopBottom.1_8</text>
</g>
<!-- Block0_4&#45;&gt;Jump1_8 -->
<g id="edge6" class="edge">
<title>Block0_4&#45;&gt;Jump1_8</title>
<path fill="none" stroke="black" d="M122.45,-89.4C117.72,-83.31 113.15,-76.11 110.62,-68.67 107.88,-60.61 107.1,-51.37 107.19,-43.08"/>
<polygon fill="black" stroke="black" points="110.7,-43.04 107.71,-32.88 103.71,-42.69 110.7,-43.04"/>
<text text-anchor="start" x="110.64" y="-60.87" font-family="Monaco" font-size="11.00" fill="#fbb4ae">@d</text>
<text text-anchor="start" x="123.85" y="-60.87" font-family="Monaco" baseline-shift="sub" font-size="8.00" fill="#999999">a</text>
<text text-anchor="start" x="128.65" y="-60.87" font-family="Monaco" font-size="11.00" fill="#fbb4ae">,@c</text>
<text text-anchor="start" x="148.45" y="-60.87" font-family="Monaco" baseline-shift="sub" font-size="8.00" fill="#999999">b</text>
<text text-anchor="start" x="153.25" y="-60.87" font-family="Monaco" font-size="11.00" fill="#fbb4ae">,@d</text>
<text text-anchor="start" x="173.05" y="-60.87" font-family="Monaco" baseline-shift="sub" font-size="8.00" fill="#999999">b</text>
<text text-anchor="start" x="177.85" y="-60.87" font-family="Monaco" font-size="11.00" fill="#fbb4ae">,@f</text>
<text text-anchor="start" x="197.66" y="-60.87" font-family="Monaco" baseline-shift="sub" font-size="8.00" fill="#999999">b</text>
<text text-anchor="start" x="202.46" y="-60.87" font-family="Monaco" font-size="11.00" fill="#fbb4ae">,@f</text>
<text text-anchor="start" x="222.26" y="-60.87" font-family="Monaco" baseline-shift="sub" font-size="8.00" fill="#999999">a</text>
<text text-anchor="start" x="227.06" y="-60.87" font-family="Monaco" font-size="11.00" fill="#fbb4ae">,a</text>
<text text-anchor="start" x="240.26" y="-60.87" font-family="Monaco" baseline-shift="sub" font-size="8.00" fill="#999999">a</text>
<text text-anchor="start" x="245.07" y="-60.87" font-family="Monaco" font-size="11.00" fill="#fbb4ae">,n0</text>
<text text-anchor="start" x="264.87" y="-60.87" font-family="Monaco" baseline-shift="sub" font-size="8.00" fill="#999999">b</text>
</g>
<!-- Jump1_8&#45;&gt;Jump1_7 -->
<g id="edge4" class="edge">
<title>Jump1_8&#45;&gt;Jump1_7</title>
<path fill="none" stroke="#fbb4ae" d="M208.58,-32.58C248.1,-39.01 285.73,-46.84 291.64,-54 312.88,-79.7 300.87,-100.04 283.64,-128.59 270.35,-150.62 246.81,-166.95 225.7,-178.04"/>
<polygon fill="#fbb4ae" stroke="#fbb4ae" points="223.9,-175.02 216.52,-182.62 227.03,-181.28 223.9,-175.02"/>
</g>
<!-- Jump2_4_9 -->
<g id="node7" class="node">
<title>Jump2_4_9</title>
<polygon fill="none" stroke="black" points="343.96,-30 257.33,-30 257.33,-36 239.33,-18 257.33,0 257.33,-6 325.96,-6 325.96,0 343.96,0 343.96,-30"/>
<text text-anchor="start" x="247.24" y="-17.53" font-family="Monaco" baseline-shift="super" font-size="8.00" fill="#ff4411">q2</text>
<text text-anchor="start" x="256.84" y="-17.53" font-family="Monaco" font-size="11.00">Return.2_4_9</text>
</g>
<!-- Block1_5&#45;&gt;Jump2_4_9 -->
<g id="edge7" class="edge">
<title>Block1_5&#45;&gt;Jump2_4_9</title>
<path fill="none" stroke="black" d="M257.52,-86.36C261.75,-80.81 266.09,-74.66 269.64,-68.67 273.97,-61.37 277.97,-53.06 281.35,-45.36"/>
<polygon fill="black" stroke="black" points="284.61,-46.62 285.26,-36.04 278.16,-43.91 284.61,-46.62"/>
<text text-anchor="start" x="276.64" y="-60.87" font-family="Monaco" font-size="11.00">a</text>
<text text-anchor="start" x="283.24" y="-60.87" font-family="Monaco" baseline-shift="sub" font-size="8.00" fill="#999999">a</text>
</g>
<!-- 8 -->
<g id="node8" class="node">
<title>8</title>
<ellipse fill="none" stroke="black" cx="343.64" cy="-356.92" rx="79.1" ry="18"/>
<text text-anchor="start" x="290.24" y="-356.46" font-family="Monaco" baseline-shift="super" font-size="8.00" fill="#ff4411">q1</text>
<text text-anchor="start" x="299.84" y="-356.46" font-family="Monaco" font-size="11.00">n0</text>
<text text-anchor="start" x="313.04" y="-356.46" font-family="Monaco" baseline-shift="sub" font-size="8.00" fill="#999999">a</text>
<text text-anchor="start" x="317.84" y="-356.46" font-family="Monaco" baseline-shift="super" font-size="8.00" fill="#00aa11">U6</text>
<text text-anchor="start" x="327.44" y="-356.46" font-family="Monaco" baseline-shift="super" font-size="8.00" fill="#3311ff">r0</text>
<text text-anchor="start" x="337.04" y="-356.46" font-family="Monaco" font-size="11.00">:n</text>
<text text-anchor="start" x="350.24" y="-356.46" font-family="Monaco" baseline-shift="sub" font-size="8.00" fill="#999999">a</text>
<text text-anchor="start" x="355.05" y="-356.46" font-family="Monaco" font-size="11.00">+</text>
<text text-anchor="start" x="361.65" y="-356.46" font-family="Monaco" baseline-shift="super" font-size="8.00" fill="#3311ff">Bin0</text>
<text text-anchor="start" x="380.85" y="-356.46" font-family="Monaco" font-size="11.00">0</text>
<text text-anchor="start" x="387.45" y="-356.46" font-family="Monaco" baseline-shift="super" font-size="8.00" fill="#00aa11">U1</text>
</g>
<!-- 9 -->
<g id="node9" class="node">
<title>9</title>
<ellipse fill="none" stroke="black" cx="343.64" cy="-283.92" rx="87.59" ry="18"/>
<text text-anchor="start" x="283.63" y="-283.46" font-family="Monaco" baseline-shift="super" font-size="8.00" fill="#ff4411">q2</text>
<text text-anchor="start" x="293.24" y="-283.46" font-family="Monaco" font-size="11.00">@c</text>
<text text-anchor="start" x="306.44" y="-283.46" font-family="Monaco" baseline-shift="sub" font-size="8.00" fill="#999999">a</text>
<text text-anchor="start" x="311.24" y="-283.46" font-family="Monaco" baseline-shift="super" font-size="8.00" fill="#00aa11">U1</text>
<text text-anchor="start" x="320.84" y="-283.46" font-family="Monaco" baseline-shift="super" font-size="8.00" fill="#3311ff">r0</text>
<text text-anchor="start" x="330.44" y="-283.46" font-family="Monaco" font-size="11.00">:n0</text>
<text text-anchor="start" x="350.24" y="-283.46" font-family="Monaco" baseline-shift="sub" font-size="8.00" fill="#999999">a</text>
<text text-anchor="start" x="355.05" y="-283.46" font-family="Monaco" font-size="11.00">==</text>
<text text-anchor="start" x="368.25" y="-283.46" font-family="Monaco" baseline-shift="super" font-size="8.00" fill="#3311ff">Bin1</text>
<text text-anchor="start" x="387.45" y="-283.46" font-family="Monaco" font-size="11.00">0</text>
<text text-anchor="start" x="394.05" y="-283.46" font-family="Monaco" baseline-shift="super" font-size="8.00" fill="#00aa11">U1</text>
</g>
<!-- 8&#45;&gt;9 -->
<g id="edge8" class="edge">
<title>8&#45;&gt;9</title>
<path fill="none" stroke="black" d="M343.64,-338.74C343.64,-330.71 343.64,-320.97 343.64,-311.99"/>
<polygon fill="black" stroke="black" points="347.14,-311.95 343.64,-301.95 340.14,-311.95 347.14,-311.95"/>
</g>
<!-- 10 -->
<g id="node10" class="node">
<title>10</title>
<ellipse fill="none" stroke="black" cx="714.64" cy="-356.92" rx="83.09" ry="18"/>
<text text-anchor="start" x="657.93" y="-356.46" font-family="Monaco" baseline-shift="super" font-size="8.00" fill="#ff4411">q3</text>
<text text-anchor="start" x="667.54" y="-356.46" font-family="Monaco" font-size="11.00">@f</text>
<text text-anchor="start" x="680.74" y="-356.46" font-family="Monaco" baseline-shift="sub" font-size="8.00" fill="#999999">a</text>
<text text-anchor="start" x="685.54" y="-356.46" font-family="Monaco" baseline-shift="super" font-size="8.00" fill="#00aa11">U6</text>
<text text-anchor="start" x="695.14" y="-356.46" font-family="Monaco" baseline-shift="super" font-size="8.00" fill="#3311ff">r0</text>
<text text-anchor="start" x="704.74" y="-356.46" font-family="Monaco" font-size="11.00">:n0</text>
<text text-anchor="start" x="724.55" y="-356.46" font-family="Monaco" baseline-shift="sub" font-size="8.00" fill="#999999">a</text>
<text text-anchor="start" x="729.35" y="-356.46" font-family="Monaco" font-size="11.00">&#45;</text>
<text text-anchor="start" x="735.95" y="-356.46" font-family="Monaco" baseline-shift="super" font-size="8.00" fill="#3311ff">Bin2</text>
<text text-anchor="start" x="755.15" y="-356.46" font-family="Monaco" font-size="11.00">1</text>
<text text-anchor="start" x="761.75" y="-356.46" font-family="Monaco" baseline-shift="super" font-size="8.00" fill="#00aa11">U1</text>
</g>
<!-- 12 -->
<g id="node12" class="node">
<title>12</title>
<ellipse fill="none" stroke="black" cx="712.64" cy="-283.92" rx="83.09" ry="18"/>
<text text-anchor="start" x="655.93" y="-283.46" font-family="Monaco" baseline-shift="super" font-size="8.00" fill="#ff4411">q4</text>
<text text-anchor="start" x="665.54" y="-283.46" font-family="Monaco" font-size="11.00">n0</text>
<text text-anchor="start" x="678.74" y="-283.46" font-family="Monaco" baseline-shift="sub" font-size="8.00" fill="#999999">b</text>
<text text-anchor="start" x="683.54" y="-283.46" font-family="Monaco" baseline-shift="super" font-size="8.00" fill="#00aa11">U6</text>
<text text-anchor="start" x="693.14" y="-283.46" font-family="Monaco" baseline-shift="super" font-size="8.00" fill="#3311ff">r0</text>
<text text-anchor="start" x="702.74" y="-283.46" font-family="Monaco" font-size="11.00">:@f</text>
<text text-anchor="start" x="722.55" y="-283.46" font-family="Monaco" baseline-shift="sub" font-size="8.00" fill="#999999">a</text>
<text text-anchor="start" x="727.35" y="-283.46" font-family="Monaco" font-size="11.00">+</text>
<text text-anchor="start" x="733.95" y="-283.46" font-family="Monaco" baseline-shift="super" font-size="8.00" fill="#3311ff">Bin0</text>
<text text-anchor="start" x="753.15" y="-283.46" font-family="Monaco" font-size="11.00">0</text>
<text text-anchor="start" x="759.75" y="-283.46" font-family="Monaco" baseline-shift="super" font-size="8.00" fill="#00aa11">U1</text>
</g>
<!-- 10&#45;&gt;12 -->
<g id="edge9" class="edge">
<title>10&#45;&gt;12</title>
<path fill="none" stroke="black" d="M714.16,-338.74C713.93,-330.71 713.66,-320.97 713.41,-311.99"/>
<polygon fill="black" stroke="black" points="716.9,-311.85 713.12,-301.95 709.91,-312.05 716.9,-311.85"/>
</g>
<!-- 11 -->
<g id="node11" class="node">
<title>11</title>
<ellipse fill="none" stroke="black" cx="534.64" cy="-356.92" rx="79.1" ry="18"/>
<text text-anchor="start" x="481.24" y="-356.46" font-family="Monaco" baseline-shift="super" font-size="8.00" fill="#ff4411">q3</text>
<text text-anchor="start" x="490.84" y="-356.46" font-family="Monaco" font-size="11.00">@d</text>
<text text-anchor="start" x="504.04" y="-356.46" font-family="Monaco" baseline-shift="sub" font-size="8.00" fill="#999999">a</text>
<text text-anchor="start" x="508.84" y="-356.46" font-family="Monaco" baseline-shift="super" font-size="8.00" fill="#00aa11">U32</text>
<text text-anchor="start" x="523.24" y="-356.46" font-family="Monaco" baseline-shift="super" font-size="8.00" fill="#3311ff">r0</text>
<text text-anchor="start" x="532.84" y="-356.46" font-family="Monaco" font-size="11.00">:a</text>
<text text-anchor="start" x="546.05" y="-356.46" font-family="Monaco" baseline-shift="sub" font-size="8.00" fill="#999999">a</text>
<text text-anchor="start" x="550.85" y="-356.46" font-family="Monaco" font-size="11.00">+</text>
<text text-anchor="start" x="557.45" y="-356.46" font-family="Monaco" baseline-shift="super" font-size="8.00" fill="#3311ff">Bin0</text>
<text text-anchor="start" x="576.65" y="-356.46" font-family="Monaco" font-size="11.00">b</text>
<text text-anchor="start" x="583.25" y="-356.46" font-family="Monaco" baseline-shift="sub" font-size="8.00" fill="#999999">a</text>
</g>
<!-- 13 -->
<g id="node13" class="node">
<title>13</title>
<ellipse fill="none" stroke="black" cx="709.64" cy="-197.26" rx="87.59" ry="18"/>
<text text-anchor="start" x="649.63" y="-196.79" font-family="Monaco" baseline-shift="super" font-size="8.00" fill="#ff4411">q5</text>
<text text-anchor="start" x="659.24" y="-196.79" font-family="Monaco" font-size="11.00">@c</text>
<text text-anchor="start" x="672.44" y="-196.79" font-family="Monaco" baseline-shift="sub" font-size="8.00" fill="#999999">b</text>
<text text-anchor="start" x="677.24" y="-196.79" font-family="Monaco" baseline-shift="super" font-size="8.00" fill="#00aa11">U1</text>
<text text-anchor="start" x="686.84" y="-196.79" font-family="Monaco" baseline-shift="super" font-size="8.00" fill="#3311ff">r0</text>
<text text-anchor="start" x="696.44" y="-196.79" font-family="Monaco" font-size="11.00">:n0</text>
<text text-anchor="start" x="716.24" y="-196.79" font-family="Monaco" baseline-shift="sub" font-size="8.00" fill="#999999">b</text>
<text text-anchor="start" x="721.05" y="-196.79" font-family="Monaco" font-size="11.00">==</text>
<text text-anchor="start" x="734.25" y="-196.79" font-family="Monaco" baseline-shift="super" font-size="8.00" fill="#3311ff">Bin1</text>
<text text-anchor="start" x="753.45" y="-196.79" font-family="Monaco" font-size="11.00">0</text>
<text text-anchor="start" x="760.05" y="-196.79" font-family="Monaco" baseline-shift="super" font-size="8.00" fill="#00aa11">U1</text>
</g>
<!-- 12&#45;&gt;13 -->
<g id="edge10" class="edge">
<title>12&#45;&gt;13</title>
<path fill="none" stroke="black" d="M712.04,-265.79C711.63,-254.2 711.07,-238.65 710.61,-225.39"/>
<polygon fill="black" stroke="black" points="714.1,-225.23 710.25,-215.36 707.11,-225.48 714.1,-225.23"/>
</g>
</g>
</svg>
