<?xml version="1.0" encoding="UTF-8" standalone="no"?>
<!DOCTYPE svg PUBLIC "-//W3C//DTD SVG 1.1//EN"
 "http://www.w3.org/Graphics/SVG/1.1/DTD/svg11.dtd">
<!-- Generated by graphviz version 2.43.0 (0)
 -->
<!-- Title: Program_ Pages: 1 -->
<svg width="1181pt" height="419pt"
 viewBox="0.00 0.00 1180.81 419.34" xmlns="http://www.w3.org/2000/svg" xmlns:xlink="http://www.w3.org/1999/xlink">
<g id="graph0" class="graph" transform="scale(1 1) rotate(0) translate(4 415.34)">
<title>Program_</title>
<polygon fill="white" stroke="transparent" points="-4,4 -4,-415.34 1176.81,-415.34 1176.81,4 -4,4"/>
<g id="clust2" class="cluster">
<title>cluster_dfg_Block1</title>
<polygon fill="none" stroke="black" points="570.81,-254.34 570.81,-403.34 700.81,-403.34 700.81,-254.34 570.81,-254.34"/>
<text text-anchor="middle" x="635.81" y="-389.74" font-family="Monaco" font-size="12.00">Block1</text>
</g>
<g id="clust3" class="cluster">
<title>cluster_dfg_Block2</title>
<polygon fill="none" stroke="black" points="708.81,-8 708.81,-403.34 1164.81,-403.34 1164.81,-8 708.81,-8"/>
<text text-anchor="middle" x="936.81" y="-389.74" font-family="Monaco" font-size="12.00">Block2</text>
</g>
<g id="clust1" class="cluster">
<title>cluster_dfg_Block0</title>
<polygon fill="none" stroke="black" points="174.81,-181.34 174.81,-403.34 562.81,-403.34 562.81,-181.34 174.81,-181.34"/>
<text text-anchor="middle" x="368.81" y="-389.74" font-family="Monaco" font-size="12.00">Block0</text>
</g>
<!-- Jump0 -->
<g id="node1" class="node">
<title>Jump0</title>
<polygon fill="none" stroke="black" points="141.42,-371.34 50.19,-371.34 50.19,-367.34 46.19,-367.34 46.19,-363.34 50.19,-363.34 50.19,-343.34 46.19,-343.34 46.19,-339.34 50.19,-339.34 50.19,-335.34 141.42,-335.34 141.42,-371.34"/>
<polyline fill="none" stroke="black" points="50.19,-367.34 54.19,-367.34 54.19,-363.34 50.19,-363.34 "/>
<polyline fill="none" stroke="black" points="50.19,-343.34 54.19,-343.34 54.19,-339.34 50.19,-339.34 "/>
<text text-anchor="start" x="58" y="-356.54" font-family="Monaco" font-size="11.00">StartFun.0</text>
<text text-anchor="start" x="124.01" y="-356.54" font-family="Monaco" baseline-shift="super" font-size="8.00" fill="#ff4411">q0</text>
<text text-anchor="start" x="79.3" y="-345.54" font-family="Monaco" font-size="11.00">i,acc</text>
</g>
<!-- Block0 -->
<g id="node2" class="node">
<title>Block0</title>
<polygon fill="none" stroke="black" points="123.41,-298.34 68.2,-298.34 68.2,-262.34 123.41,-262.34 123.41,-298.34"/>
<text text-anchor="middle" x="95.81" y="-278.87" font-family="Monaco" font-size="11.00">Block0</text>
</g>
<!-- Jump0&#45;&gt;Block0 -->
<g id="edge1" class="edge">
<title>Jump0&#45;&gt;Block0</title>
<path fill="none" stroke="black" d="M95.81,-335.15C95.81,-327.13 95.81,-317.38 95.81,-308.41"/>
<polygon fill="black" stroke="black" points="99.31,-308.37 95.81,-298.37 92.31,-308.37 99.31,-308.37"/>
</g>
<!-- Jump1 -->
<g id="node3" class="node">
<title>Jump1</title>
<path fill="none" stroke="black" d="M125.41,-225.34C125.41,-225.34 66.2,-225.34 66.2,-225.34 60.2,-225.34 50.39,-220.7 46.57,-216.07 46.57,-216.07 32.19,-198.6 32.19,-198.6 28.38,-193.97 30.57,-189.34 36.57,-189.34 36.57,-189.34 155.05,-189.34 155.05,-189.34 161.05,-189.34 163.23,-193.97 159.42,-198.6 159.42,-198.6 145.04,-216.07 145.04,-216.07 141.23,-220.7 131.41,-225.34 125.41,-225.34"/>
<text text-anchor="start" x="64.6" y="-206.87" font-family="Monaco" font-size="11.00">Branch.1</text>
<text text-anchor="start" x="117.41" y="-206.87" font-family="Monaco" baseline-shift="super" font-size="8.00" fill="#ff4411">q2</text>
</g>
<!-- Block0&#45;&gt;Jump1 -->
<g id="edge2" class="edge">
<title>Block0&#45;&gt;Jump1</title>
<path fill="none" stroke="black" d="M95.81,-262.15C95.81,-254.13 95.81,-244.38 95.81,-235.41"/>
<polygon fill="black" stroke="black" points="99.31,-235.37 95.81,-225.37 92.31,-235.37 99.31,-235.37"/>
</g>
<!-- Block1 -->
<g id="node4" class="node">
<title>Block1</title>
<polygon fill="none" stroke="black" points="86.41,-138.67 31.2,-138.67 31.2,-102.67 86.41,-102.67 86.41,-138.67"/>
<text text-anchor="middle" x="58.81" y="-119.2" font-family="Monaco" font-size="11.00">Block1</text>
</g>
<!-- Jump1&#45;&gt;Block1 -->
<g id="edge3" class="edge">
<title>Jump1&#45;&gt;Block1</title>
<path fill="none" stroke="black" d="M88.32,-189.2C83.15,-177.38 76.19,-161.44 70.32,-148.01"/>
<polygon fill="black" stroke="black" points="73.49,-146.54 66.28,-138.78 67.08,-149.34 73.49,-146.54"/>
<text text-anchor="middle" x="86.41" y="-162.54" font-family="Monaco" font-size="11.00">@b</text>
</g>
<!-- Block2 -->
<g id="node5" class="node">
<title>Block2</title>
<polygon fill="none" stroke="black" points="184.41,-138.67 129.2,-138.67 129.2,-102.67 184.41,-102.67 184.41,-138.67"/>
<text text-anchor="middle" x="156.81" y="-119.2" font-family="Monaco" font-size="11.00">Block2</text>
</g>
<!-- Jump1&#45;&gt;Block2 -->
<g id="edge4" class="edge">
<title>Jump1&#45;&gt;Block2</title>
<path fill="none" stroke="black" d="M108.15,-189.2C116.83,-177.15 128.6,-160.82 138.39,-147.23"/>
<polygon fill="black" stroke="black" points="141.47,-148.94 144.48,-138.78 135.79,-144.84 141.47,-148.94"/>
<text text-anchor="middle" x="140.71" y="-162.54" font-family="Monaco" font-size="11.00">!@b</text>
</g>
<!-- Jump2_4 -->
<g id="node6" class="node">
<title>Jump2_4</title>
<polygon fill="none" stroke="black" points="91.42,-46 18.19,-46 18.19,-52 0.19,-34 18.19,-16 18.19,-22 73.42,-22 73.42,-16 91.42,-16 91.42,-46"/>
<text text-anchor="start" x="8" y="-33.53" font-family="Monaco" font-size="11.00">Return.2_4</text>
<text text-anchor="start" x="74.01" y="-33.53" font-family="Monaco" baseline-shift="super" font-size="8.00" fill="#ff4411">q4</text>
</g>
<!-- Block1&#45;&gt;Jump2_4 -->
<g id="edge5" class="edge">
<title>Block1&#45;&gt;Jump2_4</title>
<path fill="none" stroke="black" d="M56.18,-102.53C54.4,-90.94 52.01,-75.39 49.97,-62.13"/>
<polygon fill="black" stroke="black" points="53.41,-61.46 48.43,-52.11 46.49,-62.52 53.41,-61.46"/>
<text text-anchor="middle" x="63.71" y="-75.87" font-family="Monaco" font-size="11.00">acc</text>
</g>
<!-- Jump2_5_6 -->
<g id="node7" class="node">
<title>Jump2_5_6</title>
<polygon fill="none" stroke="black" points="227.82,-52 109.79,-52 109.79,-48 105.79,-48 105.79,-44 109.79,-44 109.79,-24 105.79,-24 105.79,-20 109.79,-20 109.79,-16 227.82,-16 227.82,-52"/>
<polyline fill="none" stroke="black" points="109.79,-48 113.79,-48 113.79,-44 109.79,-44 "/>
<polyline fill="none" stroke="black" points="109.79,-24 113.79,-24 113.79,-20 109.79,-20 "/>
<text text-anchor="start" x="117.8" y="-37.2" font-family="Monaco" font-size="11.00">TailCall.2_5_6</text>
<text text-anchor="start" x="210.21" y="-37.2" font-family="Monaco" baseline-shift="super" font-size="8.00" fill="#ff4411">q9</text>
<text text-anchor="start" x="129.2" y="-26.2" font-family="Monaco" font-size="11.00">norm2(@g,@e)</text>
</g>
<!-- Block2&#45;&gt;Jump2_5_6 -->
<g id="edge6" class="edge">
<title>Block2&#45;&gt;Jump2_5_6</title>
<path fill="none" stroke="black" d="M159.23,-102.53C160.88,-90.94 163.08,-75.39 164.96,-62.13"/>
<polygon fill="black" stroke="black" points="168.44,-62.5 166.38,-52.11 161.51,-61.52 168.44,-62.5"/>
</g>
<!-- ndBlock0_0 -->
<g id="node8" class="node">
<title>ndBlock0_0</title>
<ellipse fill="none" stroke="black" cx="503.81" cy="-280.34" rx="50.43" ry="18"/>
<text text-anchor="start" x="472.6" y="-279.87" font-family="Monaco" font-size="11.00">out(acc)</text>
<text text-anchor="start" x="525.41" y="-279.87" font-family="Monaco" baseline-shift="super" font-size="8.00" fill="#ff4411">q2</text>
</g>
<!-- ndBlock0_1 -->
<g id="node9" class="node">
<title>ndBlock0_1</title>
<ellipse fill="none" stroke="black" cx="497.81" cy="-353.34" rx="57.34" ry="18"/>
<text text-anchor="start" x="461.2" y="-352.87" font-family="Monaco" font-size="11.00">acc</text>
<text text-anchor="start" x="481" y="-352.87" font-family="Monaco" baseline-shift="super" font-size="8.00" fill="#00dd33">S64</text>
<text text-anchor="start" x="495.41" y="-352.87" font-family="Monaco" baseline-shift="super" font-size="8.00" fill="#3311ff">r1</text>
<text text-anchor="start" x="505.01" y="-352.87" font-family="Monaco" font-size="11.00">:in</text>
<text text-anchor="start" x="524.81" y="-352.87" font-family="Monaco" baseline-shift="super" font-size="8.00" fill="#ff4411">q0</text>
</g>
<!-- ndBlock0_1&#45;&gt;ndBlock0_0 -->
<g id="edge7" class="edge">
<title>ndBlock0_1&#45;&gt;ndBlock0_0</title>
<path fill="none" stroke="black" d="M499.26,-335.15C499.94,-327.13 500.76,-317.38 501.52,-308.41"/>
<polygon fill="black" stroke="black" points="505.01,-308.62 502.37,-298.37 498.04,-308.04 505.01,-308.62"/>
</g>
<!-- ndBlock0_2 -->
<g id="node10" class="node">
<title>ndBlock0_2</title>
<ellipse fill="none" stroke="black" cx="231.81" cy="-353.34" rx="48.84" ry="18"/>
<text text-anchor="start" x="201.8" y="-352.87" font-family="Monaco" font-size="11.00">i</text>
<text text-anchor="start" x="208.4" y="-352.87" font-family="Monaco" baseline-shift="super" font-size="8.00" fill="#00dd33">U10</text>
<text text-anchor="start" x="222.8" y="-352.87" font-family="Monaco" baseline-shift="super" font-size="8.00" fill="#3311ff">r0</text>
<text text-anchor="start" x="232.41" y="-352.87" font-family="Monaco" font-size="11.00">:in</text>
<text text-anchor="start" x="252.21" y="-352.87" font-family="Monaco" baseline-shift="super" font-size="8.00" fill="#ff4411">q0</text>
</g>
<!-- ndBlock0_4 -->
<g id="node12" class="node">
<title>ndBlock0_4</title>
<ellipse fill="none" stroke="black" cx="224.81" cy="-280.34" rx="41.94" ry="18"/>
<text text-anchor="start" x="200.2" y="-279.87" font-family="Monaco" font-size="11.00">out(i)</text>
<text text-anchor="start" x="239.81" y="-279.87" font-family="Monaco" baseline-shift="super" font-size="8.00" fill="#ff4411">q2</text>
</g>
<!-- ndBlock0_2&#45;&gt;ndBlock0_4 -->
<g id="edge8" class="edge">
<title>ndBlock0_2&#45;&gt;ndBlock0_4</title>
<path fill="none" stroke="black" d="M230.11,-335.15C229.32,-327.13 228.36,-317.38 227.47,-308.41"/>
<polygon fill="black" stroke="black" points="230.95,-307.97 226.49,-298.37 223.98,-308.66 230.95,-307.97"/>
</g>
<!-- ndBlock0_6 -->
<g id="node14" class="node">
<title>ndBlock0_6</title>
<ellipse fill="none" stroke="black" cx="359.81" cy="-280.34" rx="75.37" ry="18"/>
<text text-anchor="start" x="309.4" y="-279.87" font-family="Monaco" font-size="11.00">@b</text>
<text text-anchor="start" x="322.6" y="-279.87" font-family="Monaco" baseline-shift="super" font-size="8.00" fill="#00dd33">U1</text>
<text text-anchor="start" x="332.2" y="-279.87" font-family="Monaco" baseline-shift="super" font-size="8.00" fill="#3311ff">r2</text>
<text text-anchor="start" x="341.8" y="-279.87" font-family="Monaco" font-size="11.00">:i==</text>
<text text-anchor="start" x="368.21" y="-279.87" font-family="Monaco" baseline-shift="super" font-size="8.00" fill="#3311ff">Bin0</text>
<text text-anchor="start" x="387.41" y="-279.87" font-family="Monaco" font-size="11.00">@a</text>
<text text-anchor="start" x="400.61" y="-279.87" font-family="Monaco" baseline-shift="super" font-size="8.00" fill="#ff4411">q1</text>
</g>
<!-- ndBlock0_2&#45;&gt;ndBlock0_6 -->
<g id="edge9" class="edge">
<title>ndBlock0_2&#45;&gt;ndBlock0_6</title>
<path fill="none" stroke="black" d="M257.71,-337.97C276.29,-327.66 301.61,-313.62 322.38,-302.1"/>
<polygon fill="black" stroke="black" points="324.22,-305.08 331.27,-297.17 320.83,-298.96 324.22,-305.08"/>
</g>
<!-- ndBlock0_3 -->
<g id="node11" class="node">
<title>ndBlock0_3</title>
<ellipse fill="none" stroke="black" cx="360.81" cy="-353.34" rx="61.83" ry="18"/>
<text text-anchor="start" x="320.9" y="-352.87" font-family="Monaco" font-size="11.00">@a</text>
<text text-anchor="start" x="334.1" y="-352.87" font-family="Monaco" baseline-shift="super" font-size="8.00" fill="#00dd33">U10</text>
<text text-anchor="start" x="348.5" y="-352.87" font-family="Monaco" baseline-shift="super" font-size="8.00" fill="#3311ff">r2</text>
<text text-anchor="start" x="358.11" y="-352.87" font-family="Monaco" font-size="11.00">:1000</text>
<text text-anchor="start" x="391.11" y="-352.87" font-family="Monaco" baseline-shift="super" font-size="8.00" fill="#ff4411">q0</text>
</g>
<!-- ndBlock0_3&#45;&gt;ndBlock0_6 -->
<g id="edge10" class="edge">
<title>ndBlock0_3&#45;&gt;ndBlock0_6</title>
<path fill="none" stroke="black" d="M360.56,-335.15C360.45,-327.13 360.31,-317.38 360.19,-308.41"/>
<polygon fill="black" stroke="black" points="363.69,-308.32 360.05,-298.37 356.69,-308.41 363.69,-308.32"/>
</g>
<!-- ndBlock0_5 -->
<g id="node13" class="node">
<title>ndBlock0_5</title>
<ellipse fill="none" stroke="black" cx="359.81" cy="-207.34" rx="46.44" ry="18"/>
<text text-anchor="start" x="331.9" y="-206.87" font-family="Monaco" font-size="11.00">out(@b)</text>
<text text-anchor="start" x="378.11" y="-206.87" font-family="Monaco" baseline-shift="super" font-size="8.00" fill="#ff4411">q2</text>
</g>
<!-- ndBlock0_6&#45;&gt;ndBlock0_5 -->
<g id="edge11" class="edge">
<title>ndBlock0_6&#45;&gt;ndBlock0_5</title>
<path fill="none" stroke="black" d="M359.81,-262.15C359.81,-254.13 359.81,-244.38 359.81,-235.41"/>
<polygon fill="black" stroke="black" points="363.31,-235.37 359.81,-225.37 356.31,-235.37 363.31,-235.37"/>
</g>
<!-- ndBlock1_0 -->
<g id="node15" class="node">
<title>ndBlock1_0</title>
<ellipse fill="none" stroke="black" cx="635.81" cy="-353.34" rx="57.34" ry="18"/>
<text text-anchor="start" x="599.2" y="-352.87" font-family="Monaco" font-size="11.00">acc</text>
<text text-anchor="start" x="619" y="-352.87" font-family="Monaco" baseline-shift="super" font-size="8.00" fill="#00dd33">S64</text>
<text text-anchor="start" x="633.41" y="-352.87" font-family="Monaco" baseline-shift="super" font-size="8.00" fill="#3311ff">r1</text>
<text text-anchor="start" x="643.01" y="-352.87" font-family="Monaco" font-size="11.00">:in</text>
<text text-anchor="start" x="662.81" y="-352.87" font-family="Monaco" baseline-shift="super" font-size="8.00" fill="#ff4411">q2</text>
</g>
<!-- ndBlock1_1 -->
<g id="node16" class="node">
<title>ndBlock1_1</title>
<ellipse fill="none" stroke="black" cx="635.81" cy="-280.34" rx="50.43" ry="18"/>
<text text-anchor="start" x="604.6" y="-279.87" font-family="Monaco" font-size="11.00">out(acc)</text>
<text text-anchor="start" x="657.41" y="-279.87" font-family="Monaco" baseline-shift="super" font-size="8.00" fill="#ff4411">q4</text>
</g>
<!-- ndBlock1_0&#45;&gt;ndBlock1_1 -->
<g id="edge12" class="edge">
<title>ndBlock1_0&#45;&gt;ndBlock1_1</title>
<path fill="none" stroke="black" d="M635.81,-335.15C635.81,-327.13 635.81,-317.38 635.81,-308.41"/>
<polygon fill="black" stroke="black" points="639.31,-308.37 635.81,-298.37 632.31,-308.37 639.31,-308.37"/>
</g>
<!-- ndBlock2_0 -->
<g id="node17" class="node">
<title>ndBlock2_0</title>
<ellipse fill="none" stroke="black" cx="1094.81" cy="-280.34" rx="61.83" ry="18"/>
<text text-anchor="start" x="1054.9" y="-279.87" font-family="Monaco" font-size="11.00">@c</text>
<text text-anchor="start" x="1068.1" y="-279.87" font-family="Monaco" baseline-shift="super" font-size="8.00" fill="#00dd33">S27</text>
<text text-anchor="start" x="1082.5" y="-279.87" font-family="Monaco" baseline-shift="super" font-size="8.00" fill="#3311ff">r0</text>
<text text-anchor="start" x="1092.11" y="-279.87" font-family="Monaco" font-size="11.00">:a[i]</text>
<text text-anchor="start" x="1125.11" y="-279.87" font-family="Monaco" baseline-shift="super" font-size="8.00" fill="#ff4411">q6</text>
</g>
<!-- ndBlock2_6 -->
<g id="node23" class="node">
<title>ndBlock2_6</title>
<ellipse fill="none" stroke="black" cx="941.81" cy="-207.34" rx="82.55" ry="18"/>
<text text-anchor="start" x="885.7" y="-206.87" font-family="Monaco" font-size="11.00">@d</text>
<text text-anchor="start" x="898.9" y="-206.87" font-family="Monaco" baseline-shift="super" font-size="8.00" fill="#00dd33">S64</text>
<text text-anchor="start" x="913.3" y="-206.87" font-family="Monaco" baseline-shift="super" font-size="8.00" fill="#3311ff">r0</text>
<text text-anchor="start" x="922.9" y="-206.87" font-family="Monaco" font-size="11.00">:a64*</text>
<text text-anchor="start" x="955.91" y="-206.87" font-family="Monaco" baseline-shift="super" font-size="8.00" fill="#3311ff">Bin2</text>
<text text-anchor="start" x="975.11" y="-206.87" font-family="Monaco" font-size="11.00">@c</text>
<text text-anchor="start" x="988.31" y="-206.87" font-family="Monaco" baseline-shift="super" font-size="8.00" fill="#ff4411">q7</text>
</g>
<!-- ndBlock2_0&#45;&gt;ndBlock2_6 -->
<g id="edge13" class="edge">
<title>ndBlock2_0&#45;&gt;ndBlock2_6</title>
<path fill="none" stroke="black" d="M1063.48,-264.8C1040.68,-254.22 1009.56,-239.78 984.49,-228.15"/>
<polygon fill="black" stroke="black" points="985.76,-224.88 975.22,-223.84 982.81,-231.22 985.76,-224.88"/>
</g>
<!-- ndBlock2_1 -->
<g id="node18" class="node">
<title>ndBlock2_1</title>
<ellipse fill="none" stroke="black" cx="948.81" cy="-280.34" rx="65.83" ry="18"/>
<text text-anchor="start" x="905.6" y="-279.87" font-family="Monaco" font-size="11.00">a64</text>
<text text-anchor="start" x="925.4" y="-279.87" font-family="Monaco" baseline-shift="super" font-size="8.00" fill="#00dd33">S64</text>
<text text-anchor="start" x="939.8" y="-279.87" font-family="Monaco" baseline-shift="super" font-size="8.00" fill="#3311ff">r3</text>
<text text-anchor="start" x="949.41" y="-279.87" font-family="Monaco" font-size="11.00">:a[i]</text>
<text text-anchor="start" x="982.41" y="-279.87" font-family="Monaco" baseline-shift="super" font-size="8.00" fill="#ff4411">q5</text>
</g>
<!-- ndBlock2_1&#45;&gt;ndBlock2_6 -->
<g id="edge14" class="edge">
<title>ndBlock2_1&#45;&gt;ndBlock2_6</title>
<path fill="none" stroke="black" d="M947.11,-262.15C946.32,-254.13 945.36,-244.38 944.47,-235.41"/>
<polygon fill="black" stroke="black" points="947.95,-234.97 943.49,-225.37 940.98,-235.66 947.95,-234.97"/>
</g>
<!-- ndBlock2_2 -->
<g id="node19" class="node">
<title>ndBlock2_2</title>
<ellipse fill="none" stroke="black" cx="1020.81" cy="-34" rx="46.44" ry="18"/>
<text text-anchor="start" x="992.9" y="-33.53" font-family="Monaco" font-size="11.00">out(@e)</text>
<text text-anchor="start" x="1039.11" y="-33.53" font-family="Monaco" baseline-shift="super" font-size="8.00" fill="#ff4411">q9</text>
</g>
<!-- ndBlock2_3 -->
<g id="node20" class="node">
<title>ndBlock2_3</title>
<ellipse fill="none" stroke="black" cx="1099.81" cy="-207.34" rx="57.34" ry="18"/>
<text text-anchor="start" x="1063.2" y="-206.87" font-family="Monaco" font-size="11.00">acc</text>
<text text-anchor="start" x="1083" y="-206.87" font-family="Monaco" baseline-shift="super" font-size="8.00" fill="#00dd33">S64</text>
<text text-anchor="start" x="1097.41" y="-206.87" font-family="Monaco" baseline-shift="super" font-size="8.00" fill="#3311ff">r1</text>
<text text-anchor="start" x="1107.01" y="-206.87" font-family="Monaco" font-size="11.00">:in</text>
<text text-anchor="start" x="1126.81" y="-206.87" font-family="Monaco" baseline-shift="super" font-size="8.00" fill="#ff4411">q2</text>
</g>
<!-- ndBlock2_7 -->
<g id="node24" class="node">
<title>ndBlock2_7</title>
<ellipse fill="none" stroke="black" cx="1020.81" cy="-120.67" rx="82.55" ry="18"/>
<text text-anchor="start" x="964.7" y="-120.2" font-family="Monaco" font-size="11.00">@e</text>
<text text-anchor="start" x="977.9" y="-120.2" font-family="Monaco" baseline-shift="super" font-size="8.00" fill="#00dd33">S64</text>
<text text-anchor="start" x="992.3" y="-120.2" font-family="Monaco" baseline-shift="super" font-size="8.00" fill="#3311ff">r0</text>
<text text-anchor="start" x="1001.9" y="-120.2" font-family="Monaco" font-size="11.00">:acc+</text>
<text text-anchor="start" x="1034.91" y="-120.2" font-family="Monaco" baseline-shift="super" font-size="8.00" fill="#3311ff">Bin3</text>
<text text-anchor="start" x="1054.11" y="-120.2" font-family="Monaco" font-size="11.00">@d</text>
<text text-anchor="start" x="1067.31" y="-120.2" font-family="Monaco" baseline-shift="super" font-size="8.00" fill="#ff4411">q8</text>
</g>
<!-- ndBlock2_3&#45;&gt;ndBlock2_7 -->
<g id="edge15" class="edge">
<title>ndBlock2_3&#45;&gt;ndBlock2_7</title>
<path fill="none" stroke="black" d="M1084.2,-189.61C1072.51,-177.08 1056.36,-159.77 1043.28,-145.76"/>
<polygon fill="black" stroke="black" points="1045.76,-143.29 1036.38,-138.36 1040.64,-148.06 1045.76,-143.29"/>
</g>
<!-- ndBlock2_4 -->
<g id="node21" class="node">
<title>ndBlock2_4</title>
<ellipse fill="none" stroke="black" cx="948.81" cy="-353.34" rx="48.84" ry="18"/>
<text text-anchor="start" x="918.8" y="-352.87" font-family="Monaco" font-size="11.00">i</text>
<text text-anchor="start" x="925.4" y="-352.87" font-family="Monaco" baseline-shift="super" font-size="8.00" fill="#00dd33">U10</text>
<text text-anchor="start" x="939.8" y="-352.87" font-family="Monaco" baseline-shift="super" font-size="8.00" fill="#3311ff">r0</text>
<text text-anchor="start" x="949.41" y="-352.87" font-family="Monaco" font-size="11.00">:in</text>
<text text-anchor="start" x="969.21" y="-352.87" font-family="Monaco" baseline-shift="super" font-size="8.00" fill="#ff4411">q2</text>
</g>
<!-- ndBlock2_4&#45;&gt;ndBlock2_0 -->
<g id="edge16" class="edge">
<title>ndBlock2_4&#45;&gt;ndBlock2_0</title>
<path fill="none" stroke="black" d="M977.3,-338.48C999.53,-327.67 1030.65,-312.54 1055.28,-300.56"/>
<polygon fill="black" stroke="black" points="1056.91,-303.66 1064.37,-296.14 1053.84,-297.36 1056.91,-303.66"/>
</g>
<!-- ndBlock2_4&#45;&gt;ndBlock2_1 -->
<g id="edge17" class="edge">
<title>ndBlock2_4&#45;&gt;ndBlock2_1</title>
<path fill="none" stroke="black" d="M948.81,-335.15C948.81,-327.13 948.81,-317.38 948.81,-308.41"/>
<polygon fill="black" stroke="black" points="952.31,-308.37 948.81,-298.37 945.31,-308.37 952.31,-308.37"/>
</g>
<!-- ndBlock2_9 -->
<g id="node26" class="node">
<title>ndBlock2_9</title>
<ellipse fill="none" stroke="black" cx="790.81" cy="-280.34" rx="74.05" ry="18"/>
<text text-anchor="start" x="741.3" y="-279.87" font-family="Monaco" font-size="11.00">@g</text>
<text text-anchor="start" x="754.5" y="-279.87" font-family="Monaco" baseline-shift="super" font-size="8.00" fill="#00dd33">U10</text>
<text text-anchor="start" x="768.9" y="-279.87" font-family="Monaco" baseline-shift="super" font-size="8.00" fill="#3311ff">r2</text>
<text text-anchor="start" x="778.5" y="-279.87" font-family="Monaco" font-size="11.00">:i+</text>
<text text-anchor="start" x="798.31" y="-279.87" font-family="Monaco" baseline-shift="super" font-size="8.00" fill="#3311ff">Bin1</text>
<text text-anchor="start" x="817.51" y="-279.87" font-family="Monaco" font-size="11.00">@f</text>
<text text-anchor="start" x="830.71" y="-279.87" font-family="Monaco" baseline-shift="super" font-size="8.00" fill="#ff4411">q5</text>
</g>
<!-- ndBlock2_4&#45;&gt;ndBlock2_9 -->
<g id="edge18" class="edge">
<title>ndBlock2_4&#45;&gt;ndBlock2_9</title>
<path fill="none" stroke="black" d="M919.09,-338.98C895.02,-328.17 860.79,-312.78 833.74,-300.63"/>
<polygon fill="black" stroke="black" points="835.06,-297.38 824.5,-296.48 832.19,-303.77 835.06,-297.38"/>
</g>
<!-- ndBlock2_5 -->
<g id="node22" class="node">
<title>ndBlock2_5</title>
<ellipse fill="none" stroke="black" cx="790.81" cy="-207.34" rx="46.44" ry="18"/>
<text text-anchor="start" x="762.9" y="-206.87" font-family="Monaco" font-size="11.00">out(@g)</text>
<text text-anchor="start" x="809.11" y="-206.87" font-family="Monaco" baseline-shift="super" font-size="8.00" fill="#ff4411">q9</text>
</g>
<!-- ndBlock2_6&#45;&gt;ndBlock2_7 -->
<g id="edge19" class="edge">
<title>ndBlock2_6&#45;&gt;ndBlock2_7</title>
<path fill="none" stroke="black" d="M957.41,-189.61C969.1,-177.08 985.25,-159.77 998.33,-145.76"/>
<polygon fill="black" stroke="black" points="1000.97,-148.06 1005.23,-138.36 995.85,-143.29 1000.97,-148.06"/>
</g>
<!-- ndBlock2_7&#45;&gt;ndBlock2_2 -->
<g id="edge20" class="edge">
<title>ndBlock2_7&#45;&gt;ndBlock2_2</title>
<path fill="none" stroke="black" d="M1020.81,-102.53C1020.81,-90.94 1020.81,-75.39 1020.81,-62.13"/>
<polygon fill="black" stroke="black" points="1024.31,-62.11 1020.81,-52.11 1017.31,-62.11 1024.31,-62.11"/>
</g>
<!-- ndBlock2_8 -->
<g id="node25" class="node">
<title>ndBlock2_8</title>
<ellipse fill="none" stroke="black" cx="790.81" cy="-353.34" rx="45.66" ry="18"/>
<text text-anchor="start" x="763.2" y="-352.87" font-family="Monaco" font-size="11.00">@f</text>
<text text-anchor="start" x="776.4" y="-352.87" font-family="Monaco" baseline-shift="super" font-size="8.00" fill="#00dd33">U1</text>
<text text-anchor="start" x="786.01" y="-352.87" font-family="Monaco" baseline-shift="super" font-size="8.00" fill="#3311ff">r2</text>
<text text-anchor="start" x="795.61" y="-352.87" font-family="Monaco" font-size="11.00">:1</text>
<text text-anchor="start" x="808.81" y="-352.87" font-family="Monaco" baseline-shift="super" font-size="8.00" fill="#ff4411">q2</text>
</g>
<!-- ndBlock2_8&#45;&gt;ndBlock2_9 -->
<g id="edge21" class="edge">
<title>ndBlock2_8&#45;&gt;ndBlock2_9</title>
<path fill="none" stroke="black" d="M790.81,-335.15C790.81,-327.13 790.81,-317.38 790.81,-308.41"/>
<polygon fill="black" stroke="black" points="794.31,-308.37 790.81,-298.37 787.31,-308.37 794.31,-308.37"/>
</g>
<!-- ndBlock2_9&#45;&gt;ndBlock2_5 -->
<g id="edge22" class="edge">
<title>ndBlock2_9&#45;&gt;ndBlock2_5</title>
<path fill="none" stroke="black" d="M790.81,-262.15C790.81,-254.13 790.81,-244.38 790.81,-235.41"/>
<polygon fill="black" stroke="black" points="794.31,-235.37 790.81,-225.37 787.31,-235.37 794.31,-235.37"/>
</g>
</g>
</svg>
