<?xml version="1.0" encoding="UTF-8" standalone="no"?>
<!DOCTYPE svg PUBLIC "-//W3C//DTD SVG 1.1//EN"
 "http://www.w3.org/Graphics/SVG/1.1/DTD/svg11.dtd">
<!-- Generated by graphviz version 2.43.0 (0)
 -->
<!-- Title: Program_ Pages: 1 -->
<svg width="4383pt" height="772pt"
 viewBox="0.00 0.00 4382.71 771.93" xmlns="http://www.w3.org/2000/svg" xmlns:xlink="http://www.w3.org/1999/xlink">
<g id="graph0" class="graph" transform="scale(1 1) rotate(0) translate(4 767.93)">
<title>Program_</title>
<polygon fill="white" stroke="transparent" points="-4,4 -4,-767.93 4378.71,-767.93 4378.71,4 -4,4"/>
<g id="clust1" class="cluster">
<title>cluster_dfg_Block0</title>
<polygon fill="none" stroke="black" points="192.71,-663.93 192.71,-755.93 426.71,-755.93 426.71,-663.93 192.71,-663.93"/>
<text text-anchor="start" x="288.1" y="-742.33" font-family="Monaco" font-size="12.00">Block0</text>
<text text-anchor="start" x="295.31" y="-726.33" font-family="Monaco" font-size="12.00">(=&gt;)</text>
</g>
<g id="clust2" class="cluster">
<title>cluster_dfg_Block0_4</title>
<polygon fill="none" stroke="black" points="434.71,-663.93 434.71,-755.93 1325.71,-755.93 1325.71,-663.93 434.71,-663.93"/>
<text text-anchor="start" x="851.4" y="-742.33" font-family="Monaco" font-size="12.00">Block0_4</text>
<text text-anchor="start" x="865.81" y="-726.33" font-family="Monaco" font-size="12.00">(=&gt;)</text>
</g>
<g id="clust3" class="cluster">
<title>cluster_dfg_Block0_5</title>
<polygon fill="none" stroke="black" points="1333.71,-590.93 1333.71,-755.93 2383.71,-755.93 2383.71,-590.93 1333.71,-590.93"/>
<text text-anchor="start" x="1829.9" y="-742.33" font-family="Monaco" font-size="12.00">Block0_5</text>
<text text-anchor="start" x="1844.31" y="-726.33" font-family="Monaco" font-size="12.00">(=&gt;)</text>
</g>
<g id="clust4" class="cluster">
<title>cluster_dfg_Block0_6</title>
<polygon fill="none" stroke="black" points="2391.71,-590.93 2391.71,-755.93 3702.71,-755.93 3702.71,-590.93 2391.71,-590.93"/>
<text text-anchor="start" x="3018.4" y="-742.33" font-family="Monaco" font-size="12.00">Block0_6</text>
<text text-anchor="start" x="3032.81" y="-726.33" font-family="Monaco" font-size="12.00">(=&gt;)</text>
</g>
<g id="clust5" class="cluster">
<title>cluster_dfg_Block1_8</title>
<polygon fill="none" stroke="black" points="3710.71,-517.93 3710.71,-755.93 3948.71,-755.93 3948.71,-517.93 3710.71,-517.93"/>
<text text-anchor="start" x="3800.9" y="-742.33" font-family="Monaco" font-size="12.00">Block1_8</text>
<text text-anchor="start" x="3815.31" y="-726.33" font-family="Monaco" font-size="12.00">(=&gt;)</text>
</g>
<g id="clust6" class="cluster">
<title>cluster_dfg_Block1_9</title>
<polygon fill="none" stroke="black" points="3956.71,-517.93 3956.71,-755.93 4366.71,-755.93 4366.71,-517.93 3956.71,-517.93"/>
<text text-anchor="start" x="4132.9" y="-742.33" font-family="Monaco" font-size="12.00">Block1_9</text>
<text text-anchor="start" x="4147.31" y="-726.33" font-family="Monaco" font-size="12.00">(=&gt;)</text>
</g>
<!-- Jump0 -->
<g id="node1" class="node">
<title>Jump0</title>
<polygon fill="none" stroke="black" points="182.22,-707.93 85.19,-707.93 85.19,-703.93 81.19,-703.93 81.19,-699.93 85.19,-699.93 85.19,-679.93 81.19,-679.93 81.19,-675.93 85.19,-675.93 85.19,-671.93 182.22,-671.93 182.22,-707.93"/>
<polyline fill="none" stroke="black" points="85.19,-703.93 89.19,-703.93 89.19,-699.93 85.19,-699.93 "/>
<polyline fill="none" stroke="black" points="85.19,-679.93 89.19,-679.93 89.19,-675.93 85.19,-675.93 "/>
<text text-anchor="start" x="95.9" y="-693.13" font-family="Monaco" baseline-shift="super" font-size="8.00" fill="#ff4411">q0</text>
<text text-anchor="start" x="105.5" y="-693.13" font-family="Monaco" font-size="11.00">StartFun.0</text>
<text text-anchor="start" x="93.2" y="-682.13" font-family="Monaco" font-size="11.00">i</text>
<text text-anchor="start" x="99.8" y="-682.13" font-family="Monaco" baseline-shift="super" font-size="8.00" fill="#00aa11">U10</text>
<text text-anchor="start" x="114.2" y="-682.13" font-family="Monaco" baseline-shift="super" font-size="8.00" fill="#3311ff">r?</text>
<text text-anchor="start" x="123.81" y="-682.13" font-family="Monaco" font-size="11.00">,acc</text>
<text text-anchor="start" x="150.21" y="-682.13" font-family="Monaco" baseline-shift="super" font-size="8.00" fill="#00aa11">S64</text>
<text text-anchor="start" x="164.61" y="-682.13" font-family="Monaco" baseline-shift="super" font-size="8.00" fill="#3311ff">r?</text>
</g>
<!-- Block0 -->
<g id="node2" class="node">
<title>Block0</title>
<polygon fill="none" stroke="black" points="161.32,-634.93 106.1,-634.93 106.1,-598.93 161.32,-598.93 161.32,-634.93"/>
<text text-anchor="middle" x="133.71" y="-615.46" font-family="Monaco" font-size="11.00">Block0</text>
</g>
<!-- Jump0&#45;&gt;Block0 -->
<g id="edge1" class="edge">
<title>Jump0&#45;&gt;Block0</title>
<path fill="none" stroke="black" d="M133.71,-671.74C133.71,-663.72 133.71,-653.98 133.71,-645"/>
<polygon fill="black" stroke="black" points="137.21,-644.96 133.71,-634.96 130.21,-644.96 137.21,-644.96"/>
</g>
<!-- Jump1_7 -->
<g id="node3" class="node">
<title>Jump1_7</title>
<path fill="none" stroke="black" d="M170.34,-561.93C170.34,-561.93 97.07,-561.93 97.07,-561.93 91.07,-561.93 80.91,-557.61 76.75,-553.28 76.75,-553.28 58.75,-534.58 58.75,-534.58 54.59,-530.25 56.43,-525.93 62.43,-525.93 62.43,-525.93 204.98,-525.93 204.98,-525.93 210.98,-525.93 212.82,-530.25 208.66,-534.58 208.66,-534.58 190.66,-553.28 190.66,-553.28 186.5,-557.61 176.34,-561.93 170.34,-561.93"/>
<text text-anchor="start" x="95.9" y="-543.46" font-family="Monaco" baseline-shift="super" font-size="8.00" fill="#ff4411">q?</text>
<text text-anchor="start" x="105.5" y="-543.46" font-family="Monaco" font-size="11.00">Branch.1_7</text>
</g>
<!-- Block0&#45;&gt;Jump1_7 -->
<g id="edge2" class="edge">
<title>Block0&#45;&gt;Jump1_7</title>
<path fill="none" stroke="black" d="M133.71,-598.74C133.71,-590.72 133.71,-580.98 133.71,-572"/>
<polygon fill="black" stroke="black" points="137.21,-571.96 133.71,-561.96 130.21,-571.96 137.21,-571.96"/>
</g>
<!-- Block1_7 -->
<g id="node4" class="node">
<title>Block1_7</title>
<polygon fill="none" stroke="black" points="125.02,-475.22 56.4,-475.22 56.4,-433.38 125.02,-433.38 125.02,-475.22"/>
<text text-anchor="start" x="64.3" y="-462.46" font-family="Monaco" font-size="11.00">Block1_7</text>
<text text-anchor="middle" x="90.71" y="-447.79" font-family="Monaco" font-size="11.00">(0行)</text>
</g>
<!-- Jump1_7&#45;&gt;Block1_7 -->
<g id="edge3" class="edge">
<title>Jump1_7&#45;&gt;Block1_7</title>
<path fill="none" stroke="black" d="M125.21,-525.62C119.45,-513.86 111.68,-498.04 104.97,-484.37"/>
<polygon fill="black" stroke="black" points="108.09,-482.77 100.54,-475.34 101.8,-485.86 108.09,-482.77"/>
<text text-anchor="middle" x="133.21" y="-499.13" font-family="Monaco" font-size="11.00">@b&lt;a&gt;</text>
</g>
<!-- Block0_4 -->
<g id="node5" class="node">
<title>Block0_4</title>
<polygon fill="none" stroke="black" points="229.02,-472.3 160.4,-472.3 160.4,-436.3 229.02,-436.3 229.02,-472.3"/>
<text text-anchor="middle" x="194.71" y="-452.84" font-family="Monaco" font-size="11.00">Block0_4</text>
</g>
<!-- Jump1_7&#45;&gt;Block0_4 -->
<g id="edge4" class="edge">
<title>Jump1_7&#45;&gt;Block0_4</title>
<path fill="none" stroke="black" d="M145.76,-525.62C154.62,-512.89 166.8,-495.4 176.79,-481.04"/>
<polygon fill="black" stroke="black" points="179.84,-482.78 182.68,-472.58 174.1,-478.79 179.84,-482.78"/>
<text text-anchor="middle" x="188.51" y="-499.13" font-family="Monaco" font-size="11.00">!@b&lt;a&gt;</text>
</g>
<!-- Jump2_4_11 -->
<g id="node13" class="node">
<title>Jump2_4_11</title>
<polygon fill="none" stroke="black" points="111.62,-376.67 17.79,-376.67 17.79,-382.67 -0.21,-364.67 17.79,-346.67 17.79,-352.67 93.62,-352.67 93.62,-346.67 111.62,-346.67 111.62,-376.67"/>
<text text-anchor="start" x="8" y="-364.21" font-family="Monaco" baseline-shift="super" font-size="8.00" fill="#ff4411">q?</text>
<text text-anchor="start" x="17.6" y="-364.21" font-family="Monaco" font-size="11.00">Return.2_4_11</text>
</g>
<!-- Block1_7&#45;&gt;Jump2_4_11 -->
<g id="edge13" class="edge">
<title>Block1_7&#45;&gt;Jump2_4_11</title>
<path fill="none" stroke="black" d="M82.59,-432.98C77.76,-420.89 71.58,-405.42 66.37,-392.36"/>
<polygon fill="black" stroke="black" points="69.56,-390.92 62.6,-382.93 63.06,-393.52 69.56,-390.92"/>
<text text-anchor="middle" x="95.51" y="-406.54" font-family="Monaco" font-size="11.00">acc&lt;a&gt;</text>
</g>
<!-- Jump1_8 -->
<g id="node6" class="node">
<title>Jump1_8</title>
<path fill="none" stroke="black" d="M249.34,-382.67C249.34,-382.67 176.07,-382.67 176.07,-382.67 170.07,-382.67 159.91,-378.35 155.75,-374.03 155.75,-374.03 137.75,-355.32 137.75,-355.32 133.59,-351 135.43,-346.67 141.43,-346.67 141.43,-346.67 283.98,-346.67 283.98,-346.67 289.98,-346.67 291.82,-351 287.66,-355.32 287.66,-355.32 269.66,-374.03 269.66,-374.03 265.5,-378.35 255.34,-382.67 249.34,-382.67"/>
<text text-anchor="start" x="174.9" y="-364.21" font-family="Monaco" baseline-shift="super" font-size="8.00" fill="#ff4411">q?</text>
<text text-anchor="start" x="184.5" y="-364.21" font-family="Monaco" font-size="11.00">Branch.1_8</text>
</g>
<!-- Block0_4&#45;&gt;Jump1_8 -->
<g id="edge5" class="edge">
<title>Block0_4&#45;&gt;Jump1_8</title>
<path fill="none" stroke="black" d="M198.26,-435.99C200.78,-423.75 204.2,-407.08 207.08,-393.05"/>
<polygon fill="black" stroke="black" points="210.58,-393.45 209.16,-382.95 203.72,-392.04 210.58,-393.45"/>
</g>
<!-- Block1_8 -->
<g id="node7" class="node">
<title>Block1_8</title>
<polygon fill="none" stroke="black" points="200.02,-296.01 131.4,-296.01 131.4,-260.01 200.02,-260.01 200.02,-296.01"/>
<text text-anchor="middle" x="165.71" y="-276.54" font-family="Monaco" font-size="11.00">Block1_8</text>
</g>
<!-- Jump1_8&#45;&gt;Block1_8 -->
<g id="edge6" class="edge">
<title>Jump1_8&#45;&gt;Block1_8</title>
<path fill="none" stroke="black" d="M200.78,-346.51C197.07,-340.92 193.07,-334.62 189.7,-328.67 185.52,-321.29 181.36,-313.07 177.7,-305.48"/>
<polygon fill="black" stroke="black" points="180.81,-303.86 173.38,-296.3 174.48,-306.84 180.81,-303.86"/>
<text text-anchor="middle" x="205.21" y="-319.87" font-family="Monaco" font-size="11.00">@b&lt;b&gt;</text>
</g>
<!-- Block0_5 -->
<g id="node8" class="node">
<title>Block0_5</title>
<polygon fill="none" stroke="black" points="307.02,-296.01 238.4,-296.01 238.4,-260.01 307.02,-260.01 307.02,-296.01"/>
<text text-anchor="middle" x="272.71" y="-276.54" font-family="Monaco" font-size="11.00">Block0_5</text>
</g>
<!-- Jump1_8&#45;&gt;Block0_5 -->
<g id="edge7" class="edge">
<title>Jump1_8&#45;&gt;Block0_5</title>
<path fill="none" stroke="black" d="M224.85,-346.54C233.39,-334.49 244.96,-318.16 254.59,-304.57"/>
<polygon fill="black" stroke="black" points="257.66,-306.3 260.58,-296.11 251.95,-302.25 257.66,-306.3"/>
<text text-anchor="middle" x="265.51" y="-319.87" font-family="Monaco" font-size="11.00">!@b&lt;b&gt;</text>
</g>
<!-- Jump2_4_12 -->
<g id="node14" class="node">
<title>Jump2_4_12</title>
<polygon fill="none" stroke="black" points="181.62,-203.34 87.79,-203.34 87.79,-209.34 69.79,-191.34 87.79,-173.34 87.79,-179.34 163.62,-179.34 163.62,-173.34 181.62,-173.34 181.62,-203.34"/>
<text text-anchor="start" x="78" y="-190.87" font-family="Monaco" baseline-shift="super" font-size="8.00" fill="#ff4411">q?</text>
<text text-anchor="start" x="87.6" y="-190.87" font-family="Monaco" font-size="11.00">Return.2_4_12</text>
</g>
<!-- Block1_8&#45;&gt;Jump2_4_12 -->
<g id="edge14" class="edge">
<title>Block1_8&#45;&gt;Jump2_4_12</title>
<path fill="none" stroke="black" d="M157.61,-259.87C152.03,-248.05 144.5,-232.11 138.15,-218.68"/>
<polygon fill="black" stroke="black" points="141.23,-216.99 133.79,-209.45 134.9,-219.98 141.23,-216.99"/>
<text text-anchor="middle" x="168.51" y="-233.21" font-family="Monaco" font-size="11.00">acc&lt;b&gt;</text>
</g>
<!-- Jump1_9 -->
<g id="node9" class="node">
<title>Jump1_9</title>
<polygon fill="#fbb4ae" stroke="black" points="387.49,-196.9 293.71,-209.34 199.93,-196.9 200.02,-176.77 387.4,-176.77 387.49,-196.9"/>
<text text-anchor="start" x="242.7" y="-190.87" font-family="Monaco" baseline-shift="super" font-size="8.00" fill="#ff4411">q?</text>
<text text-anchor="start" x="252.3" y="-190.87" font-family="Monaco" font-size="11.00">ForLoopTop.1_9</text>
</g>
<!-- Block0_5&#45;&gt;Jump1_9 -->
<g id="edge8" class="edge">
<title>Block0_5&#45;&gt;Jump1_9</title>
<path fill="none" stroke="black" d="M276.96,-259.87C279.87,-248.13 283.79,-232.32 287.11,-218.95"/>
<polygon fill="black" stroke="black" points="290.6,-219.42 289.61,-208.87 283.8,-217.73 290.6,-219.42"/>
</g>
<!-- Block0_6 -->
<g id="node10" class="node">
<title>Block0_6</title>
<polygon fill="none" stroke="black" points="281.02,-122.67 212.4,-122.67 212.4,-86.67 281.02,-86.67 281.02,-122.67"/>
<text text-anchor="middle" x="246.71" y="-103.2" font-family="Monaco" font-size="11.00">Block0_6</text>
</g>
<!-- Jump1_9&#45;&gt;Block0_6 -->
<g id="edge9" class="edge">
<title>Jump1_9&#45;&gt;Block0_6</title>
<path fill="none" stroke="black" d="M281.42,-176.71C276.23,-170.5 270.41,-162.86 266.1,-155.34 262.01,-148.19 258.42,-140.01 255.47,-132.37"/>
<polygon fill="black" stroke="black" points="258.69,-130.99 251.99,-122.79 252.12,-133.38 258.69,-130.99"/>
<text text-anchor="middle" x="285.51" y="-146.54" font-family="Monaco" font-size="11.00">!@b&lt;c&gt;</text>
</g>
<!-- Block1_9 -->
<g id="node12" class="node">
<title>Block1_9</title>
<polygon fill="none" stroke="black" points="393.02,-122.67 324.4,-122.67 324.4,-86.67 393.02,-86.67 393.02,-122.67"/>
<text text-anchor="middle" x="358.71" y="-103.2" font-family="Monaco" font-size="11.00">Block1_9</text>
</g>
<!-- Jump1_9&#45;&gt;Block1_9 -->
<g id="edge11" class="edge">
<title>Jump1_9&#45;&gt;Block1_9</title>
<path fill="none" stroke="black" d="M304.15,-176.73C313.66,-164.35 327.94,-145.75 339.5,-130.69"/>
<polygon fill="black" stroke="black" points="342.28,-132.81 345.6,-122.75 336.73,-128.55 342.28,-132.81"/>
<text text-anchor="middle" x="346.21" y="-146.54" font-family="Monaco" font-size="11.00">@b&lt;c&gt;</text>
</g>
<!-- Jump1_10 -->
<g id="node11" class="node">
<title>Jump1_10</title>
<polygon fill="#fbb4ae" stroke="black" points="56.92,-12.44 171.71,0 286.5,-12.44 286.39,-32.56 57.02,-32.56 56.92,-12.44"/>
<text text-anchor="start" x="107.5" y="-17.53" font-family="Monaco" baseline-shift="super" font-size="8.00" fill="#ff4411">q?</text>
<text text-anchor="start" x="117.1" y="-17.53" font-family="Monaco" font-size="11.00">ForLoopBottom.1_10</text>
</g>
<!-- Block0_6&#45;&gt;Jump1_10 -->
<g id="edge12" class="edge">
<title>Block0_6&#45;&gt;Jump1_10</title>
<path fill="none" stroke="black" d="M231.53,-86.53C219.79,-73.29 203.47,-54.86 190.84,-40.6"/>
<polygon fill="black" stroke="black" points="193.14,-37.92 183.89,-32.76 187.9,-42.56 193.14,-37.92"/>
</g>
<!-- Jump1_10&#45;&gt;Jump1_9 -->
<g id="edge10" class="edge">
<title>Jump1_10&#45;&gt;Jump1_9</title>
<path fill="none" stroke="#fbb4ae" d="M271.35,-32.57C333.2,-41.23 401.4,-51.32 403.71,-54 423.62,-77.14 414.39,-94.9 401.71,-122.67 391.13,-145.83 368.24,-161.84 346.25,-172.45"/>
<polygon fill="#fbb4ae" stroke="#fbb4ae" points="344.59,-169.36 336.92,-176.67 347.47,-175.74 344.59,-169.36"/>
</g>
<!-- Jump2_4_13 -->
<g id="node15" class="node">
<title>Jump2_4_13</title>
<polygon fill="none" stroke="black" points="416.62,-30 322.79,-30 322.79,-36 304.79,-18 322.79,0 322.79,-6 398.62,-6 398.62,0 416.62,0 416.62,-30"/>
<text text-anchor="start" x="313" y="-17.53" font-family="Monaco" baseline-shift="super" font-size="8.00" fill="#ff4411">q?</text>
<text text-anchor="start" x="322.6" y="-17.53" font-family="Monaco" font-size="11.00">Return.2_4_13</text>
</g>
<!-- Block1_9&#45;&gt;Jump2_4_13 -->
<g id="edge15" class="edge">
<title>Block1_9&#45;&gt;Jump2_4_13</title>
<path fill="none" stroke="black" d="M359.11,-86.53C359.39,-74.94 359.75,-59.39 360.07,-46.13"/>
<polygon fill="black" stroke="black" points="363.57,-46.19 360.3,-36.11 356.57,-46.02 363.57,-46.19"/>
<text text-anchor="middle" x="379.51" y="-59.87" font-family="Monaco" font-size="11.00">acc&lt;c&gt;</text>
</g>
<!-- 11 -->
<g id="node16" class="node">
<title>11</title>
<ellipse fill="none" stroke="black" cx="309.71" cy="-689.93" rx="109.35" ry="18"/>
<text text-anchor="start" x="232.9" y="-689.46" font-family="Monaco" baseline-shift="super" font-size="8.00" fill="#ff4411">q1</text>
<text text-anchor="start" x="242.5" y="-689.46" font-family="Monaco" font-size="11.00">@b&lt;a&gt;</text>
<text text-anchor="start" x="275.5" y="-689.46" font-family="Monaco" baseline-shift="super" font-size="8.00" fill="#00aa11">U1</text>
<text text-anchor="start" x="285.1" y="-689.46" font-family="Monaco" baseline-shift="super" font-size="8.00" fill="#3311ff">r?</text>
<text text-anchor="start" x="294.71" y="-689.46" font-family="Monaco" font-size="11.00">:i&lt;a&gt;==</text>
<text text-anchor="start" x="340.91" y="-689.46" font-family="Monaco" baseline-shift="super" font-size="8.00" fill="#3311ff">?</text>
<text text-anchor="start" x="345.71" y="-689.46" font-family="Monaco" font-size="11.00">1000</text>
<text text-anchor="start" x="372.12" y="-689.46" font-family="Monaco" baseline-shift="super" font-size="8.00" fill="#00aa11">U10</text>
</g>
<!-- 14 -->
<g id="node17" class="node">
<title>14</title>
<ellipse fill="none" stroke="black" cx="1254.71" cy="-689.93" rx="63.43" ry="18"/>
<text text-anchor="start" x="1213.6" y="-689.46" font-family="Monaco" baseline-shift="super" font-size="8.00" fill="#ff4411">q3</text>
<text text-anchor="start" x="1223.2" y="-689.46" font-family="Monaco" font-size="11.00">req a[i&lt;a&gt;]</text>
</g>
<!-- 13 -->
<g id="node18" class="node">
<title>13</title>
<ellipse fill="none" stroke="black" cx="1081.71" cy="-689.93" rx="92.36" ry="18"/>
<text text-anchor="start" x="1018.1" y="-689.46" font-family="Monaco" baseline-shift="super" font-size="8.00" fill="#ff4411">q2</text>
<text text-anchor="start" x="1027.7" y="-689.46" font-family="Monaco" font-size="11.00">@g&lt;a&gt;</text>
<text text-anchor="start" x="1060.7" y="-689.46" font-family="Monaco" baseline-shift="super" font-size="8.00" fill="#00aa11">U10</text>
<text text-anchor="start" x="1075.11" y="-689.46" font-family="Monaco" baseline-shift="super" font-size="8.00" fill="#3311ff">r?</text>
<text text-anchor="start" x="1084.71" y="-689.46" font-family="Monaco" font-size="11.00">:i&lt;a&gt;+</text>
<text text-anchor="start" x="1124.31" y="-689.46" font-family="Monaco" baseline-shift="super" font-size="8.00" fill="#3311ff">?</text>
<text text-anchor="start" x="1129.12" y="-689.46" font-family="Monaco" font-size="11.00">1</text>
<text text-anchor="start" x="1135.72" y="-689.46" font-family="Monaco" baseline-shift="super" font-size="8.00" fill="#00aa11">U1</text>
</g>
<!-- 12 -->
<g id="node19" class="node">
<title>12</title>
<ellipse fill="none" stroke="black" cx="908.71" cy="-689.93" rx="63.43" ry="18"/>
<text text-anchor="start" x="867.6" y="-689.46" font-family="Monaco" baseline-shift="super" font-size="8.00" fill="#ff4411">q2</text>
<text text-anchor="start" x="877.2" y="-689.46" font-family="Monaco" font-size="11.00">req a[i&lt;a&gt;]</text>
</g>
<!-- 16 -->
<g id="node20" class="node">
<title>16</title>
<ellipse fill="none" stroke="black" cx="718.71" cy="-689.93" rx="109.35" ry="18"/>
<text text-anchor="start" x="641.9" y="-689.46" font-family="Monaco" baseline-shift="super" font-size="8.00" fill="#ff4411">q3</text>
<text text-anchor="start" x="651.5" y="-689.46" font-family="Monaco" font-size="11.00">@b&lt;b&gt;</text>
<text text-anchor="start" x="684.5" y="-689.46" font-family="Monaco" baseline-shift="super" font-size="8.00" fill="#00aa11">U1</text>
<text text-anchor="start" x="694.1" y="-689.46" font-family="Monaco" baseline-shift="super" font-size="8.00" fill="#3311ff">r?</text>
<text text-anchor="start" x="703.71" y="-689.46" font-family="Monaco" font-size="11.00">:i&lt;b&gt;==</text>
<text text-anchor="start" x="749.91" y="-689.46" font-family="Monaco" baseline-shift="super" font-size="8.00" fill="#3311ff">?</text>
<text text-anchor="start" x="754.71" y="-689.46" font-family="Monaco" font-size="11.00">1000</text>
<text text-anchor="start" x="781.12" y="-689.46" font-family="Monaco" baseline-shift="super" font-size="8.00" fill="#00aa11">U10</text>
</g>
<!-- 15 -->
<g id="node21" class="node">
<title>15</title>
<ellipse fill="none" stroke="black" cx="516.71" cy="-689.93" rx="74.33" ry="18"/>
<text text-anchor="start" x="466.9" y="-689.46" font-family="Monaco" baseline-shift="super" font-size="8.00" fill="#ff4411">q3</text>
<text text-anchor="start" x="476.5" y="-689.46" font-family="Monaco" font-size="11.00">a64&lt;a&gt;</text>
<text text-anchor="start" x="516.11" y="-689.46" font-family="Monaco" baseline-shift="super" font-size="8.00" fill="#00aa11">S64</text>
<text text-anchor="start" x="530.51" y="-689.46" font-family="Monaco" baseline-shift="super" font-size="8.00" fill="#3311ff">r?</text>
<text text-anchor="start" x="540.11" y="-689.46" font-family="Monaco" font-size="11.00">:a[]</text>
</g>
<!-- 20 -->
<g id="node22" class="node">
<title>20</title>
<ellipse fill="none" stroke="black" cx="2161.71" cy="-616.93" rx="111.48" ry="18"/>
<text text-anchor="start" x="2083.09" y="-616.46" font-family="Monaco" baseline-shift="super" font-size="8.00" fill="#ff4411">q5</text>
<text text-anchor="start" x="2092.7" y="-616.46" font-family="Monaco" font-size="11.00">@d&lt;a&gt;</text>
<text text-anchor="start" x="2125.7" y="-616.46" font-family="Monaco" baseline-shift="super" font-size="8.00" fill="#00aa11">S64</text>
<text text-anchor="start" x="2140.1" y="-616.46" font-family="Monaco" baseline-shift="super" font-size="8.00" fill="#3311ff">r?</text>
<text text-anchor="start" x="2149.71" y="-616.46" font-family="Monaco" font-size="11.00">:a64&lt;a&gt;*</text>
<text text-anchor="start" x="2202.51" y="-616.46" font-family="Monaco" baseline-shift="super" font-size="8.00" fill="#3311ff">?</text>
<text text-anchor="start" x="2207.32" y="-616.46" font-family="Monaco" font-size="11.00">@c&lt;a&gt;</text>
</g>
<!-- 21 -->
<g id="node23" class="node">
<title>21</title>
<ellipse fill="none" stroke="black" cx="2312.71" cy="-689.93" rx="63.43" ry="18"/>
<text text-anchor="start" x="2271.6" y="-689.46" font-family="Monaco" baseline-shift="super" font-size="8.00" fill="#ff4411">q5</text>
<text text-anchor="start" x="2281.2" y="-689.46" font-family="Monaco" font-size="11.00">req a[i&lt;b&gt;]</text>
</g>
<!-- 17 -->
<g id="node24" class="node">
<title>17</title>
<ellipse fill="none" stroke="black" cx="2161.71" cy="-689.93" rx="70.33" ry="18"/>
<text text-anchor="start" x="2115.2" y="-689.46" font-family="Monaco" baseline-shift="super" font-size="8.00" fill="#ff4411">q4</text>
<text text-anchor="start" x="2124.8" y="-689.46" font-family="Monaco" font-size="11.00">@c&lt;a&gt;</text>
<text text-anchor="start" x="2157.81" y="-689.46" font-family="Monaco" baseline-shift="super" font-size="8.00" fill="#00aa11">S27</text>
<text text-anchor="start" x="2172.21" y="-689.46" font-family="Monaco" baseline-shift="super" font-size="8.00" fill="#3311ff">r?</text>
<text text-anchor="start" x="2181.81" y="-689.46" font-family="Monaco" font-size="11.00">:a[]</text>
</g>
<!-- 17&#45;&gt;20 -->
<g id="edge16" class="edge">
<title>17&#45;&gt;20</title>
<path fill="none" stroke="black" d="M2161.71,-671.74C2161.71,-663.72 2161.71,-653.98 2161.71,-645"/>
<polygon fill="black" stroke="black" points="2165.21,-644.96 2161.71,-634.96 2158.21,-644.96 2165.21,-644.96"/>
</g>
<!-- 22 -->
<g id="node25" class="node">
<title>22</title>
<ellipse fill="none" stroke="black" cx="1998.71" cy="-689.93" rx="74.33" ry="18"/>
<text text-anchor="start" x="1948.9" y="-689.46" font-family="Monaco" baseline-shift="super" font-size="8.00" fill="#ff4411">q5</text>
<text text-anchor="start" x="1958.5" y="-689.46" font-family="Monaco" font-size="11.00">a64&lt;b&gt;</text>
<text text-anchor="start" x="1998.11" y="-689.46" font-family="Monaco" baseline-shift="super" font-size="8.00" fill="#00aa11">S64</text>
<text text-anchor="start" x="2012.51" y="-689.46" font-family="Monaco" baseline-shift="super" font-size="8.00" fill="#3311ff">r?</text>
<text text-anchor="start" x="2022.11" y="-689.46" font-family="Monaco" font-size="11.00">:a[]</text>
</g>
<!-- 18 -->
<g id="node26" class="node">
<title>18</title>
<ellipse fill="none" stroke="black" cx="1842.71" cy="-689.93" rx="63.43" ry="18"/>
<text text-anchor="start" x="1801.6" y="-689.46" font-family="Monaco" baseline-shift="super" font-size="8.00" fill="#ff4411">q4</text>
<text text-anchor="start" x="1811.2" y="-689.46" font-family="Monaco" font-size="11.00">req a[i&lt;b&gt;]</text>
</g>
<!-- 23 -->
<g id="node27" class="node">
<title>23</title>
<ellipse fill="none" stroke="black" cx="1652.71" cy="-689.93" rx="109.35" ry="18"/>
<text text-anchor="start" x="1575.9" y="-689.46" font-family="Monaco" baseline-shift="super" font-size="8.00" fill="#ff4411">q5</text>
<text text-anchor="start" x="1585.5" y="-689.46" font-family="Monaco" font-size="11.00">@b&lt;c&gt;</text>
<text text-anchor="start" x="1618.5" y="-689.46" font-family="Monaco" baseline-shift="super" font-size="8.00" fill="#00aa11">U1</text>
<text text-anchor="start" x="1628.1" y="-689.46" font-family="Monaco" baseline-shift="super" font-size="8.00" fill="#3311ff">r?</text>
<text text-anchor="start" x="1637.71" y="-689.46" font-family="Monaco" font-size="11.00">:i&lt;c&gt;==</text>
<text text-anchor="start" x="1683.91" y="-689.46" font-family="Monaco" baseline-shift="super" font-size="8.00" fill="#3311ff">?</text>
<text text-anchor="start" x="1688.71" y="-689.46" font-family="Monaco" font-size="11.00">1000</text>
<text text-anchor="start" x="1715.12" y="-689.46" font-family="Monaco" baseline-shift="super" font-size="8.00" fill="#00aa11">U10</text>
</g>
<!-- 19 -->
<g id="node28" class="node">
<title>19</title>
<ellipse fill="none" stroke="black" cx="1433.71" cy="-689.93" rx="92.36" ry="18"/>
<text text-anchor="start" x="1370.1" y="-689.46" font-family="Monaco" baseline-shift="super" font-size="8.00" fill="#ff4411">q4</text>
<text text-anchor="start" x="1379.7" y="-689.46" font-family="Monaco" font-size="11.00">@g&lt;b&gt;</text>
<text text-anchor="start" x="1412.7" y="-689.46" font-family="Monaco" baseline-shift="super" font-size="8.00" fill="#00aa11">U10</text>
<text text-anchor="start" x="1427.11" y="-689.46" font-family="Monaco" baseline-shift="super" font-size="8.00" fill="#3311ff">r?</text>
<text text-anchor="start" x="1436.71" y="-689.46" font-family="Monaco" font-size="11.00">:i&lt;b&gt;+</text>
<text text-anchor="start" x="1476.31" y="-689.46" font-family="Monaco" baseline-shift="super" font-size="8.00" fill="#3311ff">?</text>
<text text-anchor="start" x="1481.12" y="-689.46" font-family="Monaco" font-size="11.00">1</text>
<text text-anchor="start" x="1487.72" y="-689.46" font-family="Monaco" baseline-shift="super" font-size="8.00" fill="#00aa11">U1</text>
</g>
<!-- 29 -->
<g id="node29" class="node">
<title>29</title>
<ellipse fill="none" stroke="black" cx="3631.71" cy="-689.93" rx="63.43" ry="18"/>
<text text-anchor="start" x="3590.6" y="-689.46" font-family="Monaco" baseline-shift="super" font-size="8.00" fill="#ff4411">q9</text>
<text text-anchor="start" x="3600.2" y="-689.46" font-family="Monaco" font-size="11.00">req a[i&lt;c&gt;]</text>
</g>
<!-- 27 -->
<g id="node30" class="node">
<title>27</title>
<ellipse fill="none" stroke="black" cx="3438.71" cy="-689.93" rx="111.48" ry="18"/>
<text text-anchor="start" x="3360.09" y="-689.46" font-family="Monaco" baseline-shift="super" font-size="8.00" fill="#ff4411">q9</text>
<text text-anchor="start" x="3369.7" y="-689.46" font-family="Monaco" font-size="11.00">@e&lt;a&gt;</text>
<text text-anchor="start" x="3402.7" y="-689.46" font-family="Monaco" baseline-shift="super" font-size="8.00" fill="#00aa11">S64</text>
<text text-anchor="start" x="3417.1" y="-689.46" font-family="Monaco" baseline-shift="super" font-size="8.00" fill="#3311ff">r?</text>
<text text-anchor="start" x="3426.71" y="-689.46" font-family="Monaco" font-size="11.00">:acc&lt;a&gt;+</text>
<text text-anchor="start" x="3479.51" y="-689.46" font-family="Monaco" baseline-shift="super" font-size="8.00" fill="#3311ff">?</text>
<text text-anchor="start" x="3484.32" y="-689.46" font-family="Monaco" font-size="11.00">@d&lt;a&gt;</text>
</g>
<!-- 31 -->
<g id="node31" class="node">
<title>31</title>
<ellipse fill="none" stroke="black" cx="3036.71" cy="-616.93" rx="114.66" ry="18"/>
<text text-anchor="start" x="2955.69" y="-616.46" font-family="Monaco" baseline-shift="super" font-size="8.00" fill="#ff4411">q10</text>
<text text-anchor="start" x="2970.1" y="-616.46" font-family="Monaco" font-size="11.00">@d&lt;b&gt;</text>
<text text-anchor="start" x="3003.1" y="-616.46" font-family="Monaco" baseline-shift="super" font-size="8.00" fill="#00aa11">S64</text>
<text text-anchor="start" x="3017.5" y="-616.46" font-family="Monaco" baseline-shift="super" font-size="8.00" fill="#3311ff">r?</text>
<text text-anchor="start" x="3027.11" y="-616.46" font-family="Monaco" font-size="11.00">:a64&lt;b&gt;*</text>
<text text-anchor="start" x="3079.91" y="-616.46" font-family="Monaco" baseline-shift="super" font-size="8.00" fill="#3311ff">?</text>
<text text-anchor="start" x="3084.72" y="-616.46" font-family="Monaco" font-size="11.00">@c&lt;b&gt;</text>
</g>
<!-- 30 -->
<g id="node32" class="node">
<title>30</title>
<ellipse fill="none" stroke="black" cx="3216.71" cy="-689.93" rx="92.36" ry="18"/>
<text text-anchor="start" x="3153.1" y="-689.46" font-family="Monaco" baseline-shift="super" font-size="8.00" fill="#ff4411">q9</text>
<text text-anchor="start" x="3162.7" y="-689.46" font-family="Monaco" font-size="11.00">@g&lt;c&gt;</text>
<text text-anchor="start" x="3195.7" y="-689.46" font-family="Monaco" baseline-shift="super" font-size="8.00" fill="#00aa11">U10</text>
<text text-anchor="start" x="3210.11" y="-689.46" font-family="Monaco" baseline-shift="super" font-size="8.00" fill="#3311ff">r?</text>
<text text-anchor="start" x="3219.71" y="-689.46" font-family="Monaco" font-size="11.00">:i&lt;c&gt;+</text>
<text text-anchor="start" x="3259.31" y="-689.46" font-family="Monaco" baseline-shift="super" font-size="8.00" fill="#3311ff">?</text>
<text text-anchor="start" x="3264.12" y="-689.46" font-family="Monaco" font-size="11.00">1</text>
<text text-anchor="start" x="3270.72" y="-689.46" font-family="Monaco" baseline-shift="super" font-size="8.00" fill="#00aa11">U1</text>
</g>
<!-- 28 -->
<g id="node33" class="node">
<title>28</title>
<ellipse fill="none" stroke="black" cx="3036.71" cy="-689.93" rx="70.33" ry="18"/>
<text text-anchor="start" x="2990.2" y="-689.46" font-family="Monaco" baseline-shift="super" font-size="8.00" fill="#ff4411">q9</text>
<text text-anchor="start" x="2999.8" y="-689.46" font-family="Monaco" font-size="11.00">@c&lt;b&gt;</text>
<text text-anchor="start" x="3032.81" y="-689.46" font-family="Monaco" baseline-shift="super" font-size="8.00" fill="#00aa11">S27</text>
<text text-anchor="start" x="3047.21" y="-689.46" font-family="Monaco" baseline-shift="super" font-size="8.00" fill="#3311ff">r?</text>
<text text-anchor="start" x="3056.81" y="-689.46" font-family="Monaco" font-size="11.00">:a[]</text>
</g>
<!-- 28&#45;&gt;31 -->
<g id="edge17" class="edge">
<title>28&#45;&gt;31</title>
<path fill="none" stroke="black" d="M3036.71,-671.74C3036.71,-663.72 3036.71,-653.98 3036.71,-645"/>
<polygon fill="black" stroke="black" points="3040.21,-644.96 3036.71,-634.96 3033.21,-644.96 3040.21,-644.96"/>
</g>
<!-- 33 -->
<g id="node34" class="node">
<title>33</title>
<ellipse fill="none" stroke="black" cx="2870.71" cy="-689.93" rx="77.51" ry="18"/>
<text text-anchor="start" x="2818.5" y="-689.46" font-family="Monaco" baseline-shift="super" font-size="8.00" fill="#ff4411">q10</text>
<text text-anchor="start" x="2832.9" y="-689.46" font-family="Monaco" font-size="11.00">a64&lt;c&gt;</text>
<text text-anchor="start" x="2872.51" y="-689.46" font-family="Monaco" baseline-shift="super" font-size="8.00" fill="#00aa11">S64</text>
<text text-anchor="start" x="2886.91" y="-689.46" font-family="Monaco" baseline-shift="super" font-size="8.00" fill="#3311ff">r?</text>
<text text-anchor="start" x="2896.51" y="-689.46" font-family="Monaco" font-size="11.00">:a[]</text>
</g>
<!-- 32 -->
<g id="node35" class="node">
<title>32</title>
<ellipse fill="none" stroke="black" cx="2708.71" cy="-689.93" rx="66.1" ry="18"/>
<text text-anchor="start" x="2665.2" y="-689.46" font-family="Monaco" baseline-shift="super" font-size="8.00" fill="#ff4411">q10</text>
<text text-anchor="start" x="2679.6" y="-689.46" font-family="Monaco" font-size="11.00">req a[i&lt;c&gt;]</text>
</g>
<!-- 34 -->
<g id="node36" class="node">
<title>34</title>
<ellipse fill="none" stroke="black" cx="2511.71" cy="-689.93" rx="112.03" ry="18"/>
<text text-anchor="start" x="2432.49" y="-689.46" font-family="Monaco" baseline-shift="super" font-size="8.00" fill="#ff4411">q10</text>
<text text-anchor="start" x="2446.9" y="-689.46" font-family="Monaco" font-size="11.00">@b&lt;d&gt;</text>
<text text-anchor="start" x="2479.9" y="-689.46" font-family="Monaco" baseline-shift="super" font-size="8.00" fill="#00aa11">U1</text>
<text text-anchor="start" x="2489.5" y="-689.46" font-family="Monaco" baseline-shift="super" font-size="8.00" fill="#3311ff">r?</text>
<text text-anchor="start" x="2499.11" y="-689.46" font-family="Monaco" font-size="11.00">:i&lt;d&gt;==</text>
<text text-anchor="start" x="2545.31" y="-689.46" font-family="Monaco" baseline-shift="super" font-size="8.00" fill="#3311ff">?</text>
<text text-anchor="start" x="2550.11" y="-689.46" font-family="Monaco" font-size="11.00">1000</text>
<text text-anchor="start" x="2576.52" y="-689.46" font-family="Monaco" baseline-shift="super" font-size="8.00" fill="#00aa11">U10</text>
</g>
<!-- 24 -->
<g id="node37" class="node">
<title>24</title>
<ellipse fill="none" stroke="black" cx="3829.71" cy="-689.93" rx="70.33" ry="18"/>
<text text-anchor="start" x="3783.2" y="-689.46" font-family="Monaco" baseline-shift="super" font-size="8.00" fill="#ff4411">q6</text>
<text text-anchor="start" x="3792.8" y="-689.46" font-family="Monaco" font-size="11.00">@c&lt;a&gt;</text>
<text text-anchor="start" x="3825.81" y="-689.46" font-family="Monaco" baseline-shift="super" font-size="8.00" fill="#00aa11">S27</text>
<text text-anchor="start" x="3840.21" y="-689.46" font-family="Monaco" baseline-shift="super" font-size="8.00" fill="#3311ff">r?</text>
<text text-anchor="start" x="3849.81" y="-689.46" font-family="Monaco" font-size="11.00">:a[]</text>
</g>
<!-- 25 -->
<g id="node38" class="node">
<title>25</title>
<ellipse fill="none" stroke="black" cx="3829.71" cy="-616.93" rx="111.48" ry="18"/>
<text text-anchor="start" x="3751.09" y="-616.46" font-family="Monaco" baseline-shift="super" font-size="8.00" fill="#ff4411">q7</text>
<text text-anchor="start" x="3760.7" y="-616.46" font-family="Monaco" font-size="11.00">@d&lt;a&gt;</text>
<text text-anchor="start" x="3793.7" y="-616.46" font-family="Monaco" baseline-shift="super" font-size="8.00" fill="#00aa11">S64</text>
<text text-anchor="start" x="3808.1" y="-616.46" font-family="Monaco" baseline-shift="super" font-size="8.00" fill="#3311ff">r?</text>
<text text-anchor="start" x="3817.71" y="-616.46" font-family="Monaco" font-size="11.00">:a64&lt;a&gt;*</text>
<text text-anchor="start" x="3870.51" y="-616.46" font-family="Monaco" baseline-shift="super" font-size="8.00" fill="#3311ff">?</text>
<text text-anchor="start" x="3875.32" y="-616.46" font-family="Monaco" font-size="11.00">@c&lt;a&gt;</text>
</g>
<!-- 24&#45;&gt;25 -->
<g id="edge18" class="edge">
<title>24&#45;&gt;25</title>
<path fill="none" stroke="black" d="M3829.71,-671.74C3829.71,-663.72 3829.71,-653.98 3829.71,-645"/>
<polygon fill="black" stroke="black" points="3833.21,-644.96 3829.71,-634.96 3826.21,-644.96 3833.21,-644.96"/>
</g>
<!-- 26 -->
<g id="node39" class="node">
<title>26</title>
<ellipse fill="none" stroke="black" cx="3829.71" cy="-543.93" rx="111.48" ry="18"/>
<text text-anchor="start" x="3751.09" y="-543.46" font-family="Monaco" baseline-shift="super" font-size="8.00" fill="#ff4411">q8</text>
<text text-anchor="start" x="3760.7" y="-543.46" font-family="Monaco" font-size="11.00">@e&lt;a&gt;</text>
<text text-anchor="start" x="3793.7" y="-543.46" font-family="Monaco" baseline-shift="super" font-size="8.00" fill="#00aa11">S64</text>
<text text-anchor="start" x="3808.1" y="-543.46" font-family="Monaco" baseline-shift="super" font-size="8.00" fill="#3311ff">r?</text>
<text text-anchor="start" x="3817.71" y="-543.46" font-family="Monaco" font-size="11.00">:acc&lt;a&gt;+</text>
<text text-anchor="start" x="3870.51" y="-543.46" font-family="Monaco" baseline-shift="super" font-size="8.00" fill="#3311ff">?</text>
<text text-anchor="start" x="3875.32" y="-543.46" font-family="Monaco" font-size="11.00">@d&lt;a&gt;</text>
</g>
<!-- 25&#45;&gt;26 -->
<g id="edge19" class="edge">
<title>25&#45;&gt;26</title>
<path fill="none" stroke="black" d="M3829.71,-598.74C3829.71,-590.72 3829.71,-580.98 3829.71,-572"/>
<polygon fill="black" stroke="black" points="3833.21,-571.96 3829.71,-561.96 3826.21,-571.96 3833.21,-571.96"/>
</g>
<!-- 35 -->
<g id="node40" class="node">
<title>35</title>
<ellipse fill="none" stroke="black" cx="4243.71" cy="-689.93" rx="114.66" ry="18"/>
<text text-anchor="start" x="4162.69" y="-689.46" font-family="Monaco" baseline-shift="super" font-size="8.00" fill="#ff4411">q11</text>
<text text-anchor="start" x="4177.1" y="-689.46" font-family="Monaco" font-size="11.00">@e&lt;a&gt;</text>
<text text-anchor="start" x="4210.1" y="-689.46" font-family="Monaco" baseline-shift="super" font-size="8.00" fill="#00aa11">S64</text>
<text text-anchor="start" x="4224.5" y="-689.46" font-family="Monaco" baseline-shift="super" font-size="8.00" fill="#3311ff">r?</text>
<text text-anchor="start" x="4234.11" y="-689.46" font-family="Monaco" font-size="11.00">:acc&lt;a&gt;+</text>
<text text-anchor="start" x="4286.91" y="-689.46" font-family="Monaco" baseline-shift="super" font-size="8.00" fill="#3311ff">?</text>
<text text-anchor="start" x="4291.72" y="-689.46" font-family="Monaco" font-size="11.00">@d&lt;a&gt;</text>
</g>
<!-- 36 -->
<g id="node41" class="node">
<title>36</title>
<ellipse fill="none" stroke="black" cx="4037.71" cy="-689.93" rx="73.01" ry="18"/>
<text text-anchor="start" x="3988.8" y="-689.46" font-family="Monaco" baseline-shift="super" font-size="8.00" fill="#ff4411">q11</text>
<text text-anchor="start" x="4003.2" y="-689.46" font-family="Monaco" font-size="11.00">@c&lt;b&gt;</text>
<text text-anchor="start" x="4036.21" y="-689.46" font-family="Monaco" baseline-shift="super" font-size="8.00" fill="#00aa11">S27</text>
<text text-anchor="start" x="4050.61" y="-689.46" font-family="Monaco" baseline-shift="super" font-size="8.00" fill="#3311ff">r?</text>
<text text-anchor="start" x="4060.21" y="-689.46" font-family="Monaco" font-size="11.00">:a[]</text>
</g>
<!-- 37 -->
<g id="node42" class="node">
<title>37</title>
<ellipse fill="none" stroke="black" cx="4079.71" cy="-616.93" rx="114.66" ry="18"/>
<text text-anchor="start" x="3998.69" y="-616.46" font-family="Monaco" baseline-shift="super" font-size="8.00" fill="#ff4411">q12</text>
<text text-anchor="start" x="4013.1" y="-616.46" font-family="Monaco" font-size="11.00">@d&lt;b&gt;</text>
<text text-anchor="start" x="4046.1" y="-616.46" font-family="Monaco" baseline-shift="super" font-size="8.00" fill="#00aa11">S64</text>
<text text-anchor="start" x="4060.5" y="-616.46" font-family="Monaco" baseline-shift="super" font-size="8.00" fill="#3311ff">r?</text>
<text text-anchor="start" x="4070.11" y="-616.46" font-family="Monaco" font-size="11.00">:a64&lt;b&gt;*</text>
<text text-anchor="start" x="4122.91" y="-616.46" font-family="Monaco" baseline-shift="super" font-size="8.00" fill="#3311ff">?</text>
<text text-anchor="start" x="4127.72" y="-616.46" font-family="Monaco" font-size="11.00">@c&lt;b&gt;</text>
</g>
<!-- 36&#45;&gt;37 -->
<g id="edge20" class="edge">
<title>36&#45;&gt;37</title>
<path fill="none" stroke="black" d="M4047.87,-671.74C4052.83,-663.37 4058.89,-653.13 4064.39,-643.83"/>
<polygon fill="black" stroke="black" points="4067.56,-645.35 4069.63,-634.96 4061.53,-641.78 4067.56,-645.35"/>
</g>
<!-- 38 -->
<g id="node43" class="node">
<title>38</title>
<ellipse fill="none" stroke="black" cx="4079.71" cy="-543.93" rx="114.66" ry="18"/>
<text text-anchor="start" x="3998.69" y="-543.46" font-family="Monaco" baseline-shift="super" font-size="8.00" fill="#ff4411">q13</text>
<text text-anchor="start" x="4013.1" y="-543.46" font-family="Monaco" font-size="11.00">@e&lt;b&gt;</text>
<text text-anchor="start" x="4046.1" y="-543.46" font-family="Monaco" baseline-shift="super" font-size="8.00" fill="#00aa11">S64</text>
<text text-anchor="start" x="4060.5" y="-543.46" font-family="Monaco" baseline-shift="super" font-size="8.00" fill="#3311ff">r?</text>
<text text-anchor="start" x="4070.11" y="-543.46" font-family="Monaco" font-size="11.00">:acc&lt;b&gt;+</text>
<text text-anchor="start" x="4122.91" y="-543.46" font-family="Monaco" baseline-shift="super" font-size="8.00" fill="#3311ff">?</text>
<text text-anchor="start" x="4127.72" y="-543.46" font-family="Monaco" font-size="11.00">@d&lt;b&gt;</text>
</g>
<!-- 37&#45;&gt;38 -->
<g id="edge21" class="edge">
<title>37&#45;&gt;38</title>
<path fill="none" stroke="black" d="M4079.71,-598.74C4079.71,-590.72 4079.71,-580.98 4079.71,-572"/>
<polygon fill="black" stroke="black" points="4083.21,-571.96 4079.71,-561.96 4076.21,-571.96 4083.21,-571.96"/>
</g>
</g>
</svg>
