<?xml version="1.0" encoding="UTF-8" standalone="no"?>
<!DOCTYPE svg PUBLIC "-//W3C//DTD SVG 1.1//EN"
 "http://www.w3.org/Graphics/SVG/1.1/DTD/svg11.dtd">
<!-- Generated by graphviz version 2.43.0 (0)
 -->
<!-- Title: Program_ Pages: 1 -->
<svg width="873pt" height="441pt"
 viewBox="0.00 0.00 872.81 441.26" xmlns="http://www.w3.org/2000/svg" xmlns:xlink="http://www.w3.org/1999/xlink">
<g id="graph0" class="graph" transform="scale(1 1) rotate(0) translate(4 437.26)">
<title>Program_</title>
<polygon fill="white" stroke="transparent" points="-4,4 -4,-437.26 868.81,-437.26 868.81,4 -4,4"/>
<g id="clust1" class="cluster">
<title>cluster_dfg_Block0</title>
<polygon fill="none" stroke="black" points="153.81,-317.26 153.81,-425.26 355.81,-425.26 355.81,-317.26 153.81,-317.26"/>
<text text-anchor="start" x="233.2" y="-412.66" font-family="Monaco" font-size="12.00">Block0</text>
<text text-anchor="start" x="209.2" y="-400.66" font-family="Monaco" font-size="12.00">(acc</text>
<text text-anchor="start" x="238" y="-400.66" font-family="Monaco" baseline-shift="super" font-size="8.00" fill="#00aa11">S64</text>
<text text-anchor="start" x="252.41" y="-400.66" font-family="Monaco" baseline-shift="super" font-size="8.00" fill="#3311ff">r1</text>
<text text-anchor="start" x="262.01" y="-400.66" font-family="Monaco" font-size="12.00">,i</text>
<text text-anchor="start" x="276.41" y="-400.66" font-family="Monaco" baseline-shift="super" font-size="8.00" fill="#00aa11">U10</text>
<text text-anchor="start" x="290.81" y="-400.66" font-family="Monaco" baseline-shift="super" font-size="8.00" fill="#3311ff">r0</text>
<text text-anchor="start" x="247.6" y="-388.66" font-family="Monaco" font-size="12.00">=&gt;</text>
<text text-anchor="start" x="188.8" y="-376.66" font-family="Monaco" font-size="12.00">acc</text>
<text text-anchor="start" x="210.4" y="-376.66" font-family="Monaco" baseline-shift="super" font-size="8.00" fill="#00aa11">S64</text>
<text text-anchor="start" x="224.8" y="-376.66" font-family="Monaco" baseline-shift="super" font-size="8.00" fill="#3311ff">r1</text>
<text text-anchor="start" x="234.4" y="-376.66" font-family="Monaco" font-size="12.00">,i</text>
<text text-anchor="start" x="248.81" y="-376.66" font-family="Monaco" baseline-shift="super" font-size="8.00" fill="#00aa11">U10</text>
<text text-anchor="start" x="263.21" y="-376.66" font-family="Monaco" baseline-shift="super" font-size="8.00" fill="#3311ff">r0</text>
<text text-anchor="start" x="272.81" y="-376.66" font-family="Monaco" font-size="12.00">,@b</text>
<text text-anchor="start" x="294.41" y="-376.66" font-family="Monaco" baseline-shift="super" font-size="8.00" fill="#00aa11">U1</text>
<text text-anchor="start" x="304.01" y="-376.66" font-family="Monaco" baseline-shift="super" font-size="8.00" fill="#3311ff">r2</text>
<text text-anchor="start" x="313.62" y="-376.66" font-family="Monaco" font-size="12.00">)</text>
</g>
<g id="clust2" class="cluster">
<title>cluster_dfg_Block1</title>
<polygon fill="none" stroke="black" points="363.81,-317.26 363.81,-425.26 443.81,-425.26 443.81,-317.26 363.81,-317.26"/>
<text text-anchor="start" x="382.2" y="-412.66" font-family="Monaco" font-size="12.00">Block1</text>
<text text-anchor="start" x="377.4" y="-400.66" font-family="Monaco" font-size="12.00">(acc</text>
<text text-anchor="start" x="406.21" y="-400.66" font-family="Monaco" baseline-shift="super" font-size="8.00" fill="#00aa11">S64</text>
<text text-anchor="start" x="420.61" y="-400.66" font-family="Monaco" baseline-shift="super" font-size="8.00" fill="#3311ff">r1</text>
<text text-anchor="start" x="396.6" y="-388.66" font-family="Monaco" font-size="12.00">=&gt;</text>
<text text-anchor="start" x="377.4" y="-376.66" font-family="Monaco" font-size="12.00">acc</text>
<text text-anchor="start" x="399.01" y="-376.66" font-family="Monaco" baseline-shift="super" font-size="8.00" fill="#00aa11">S64</text>
<text text-anchor="start" x="413.41" y="-376.66" font-family="Monaco" baseline-shift="super" font-size="8.00" fill="#3311ff">r1</text>
<text text-anchor="start" x="423.01" y="-376.66" font-family="Monaco" font-size="12.00">)</text>
</g>
<g id="clust3" class="cluster">
<title>cluster_dfg_Block2</title>
<polygon fill="none" stroke="black" points="451.81,-81.63 451.81,-425.26 856.81,-425.26 856.81,-81.63 451.81,-81.63"/>
<text text-anchor="start" x="632.7" y="-412.66" font-family="Monaco" font-size="12.00">Block2</text>
<text text-anchor="start" x="608.7" y="-400.66" font-family="Monaco" font-size="12.00">(acc</text>
<text text-anchor="start" x="637.5" y="-400.66" font-family="Monaco" baseline-shift="super" font-size="8.00" fill="#00aa11">S64</text>
<text text-anchor="start" x="651.91" y="-400.66" font-family="Monaco" baseline-shift="super" font-size="8.00" fill="#3311ff">r1</text>
<text text-anchor="start" x="661.51" y="-400.66" font-family="Monaco" font-size="12.00">,i</text>
<text text-anchor="start" x="675.91" y="-400.66" font-family="Monaco" baseline-shift="super" font-size="8.00" fill="#00aa11">U10</text>
<text text-anchor="start" x="690.31" y="-400.66" font-family="Monaco" baseline-shift="super" font-size="8.00" fill="#3311ff">r0</text>
<text text-anchor="start" x="647.1" y="-388.66" font-family="Monaco" font-size="12.00">=&gt;</text>
<text text-anchor="start" x="608.7" y="-376.66" font-family="Monaco" font-size="12.00">@g</text>
<text text-anchor="start" x="623.1" y="-376.66" font-family="Monaco" baseline-shift="super" font-size="8.00" fill="#00aa11">U10</text>
<text text-anchor="start" x="637.5" y="-376.66" font-family="Monaco" baseline-shift="super" font-size="8.00" fill="#3311ff">r2</text>
<text text-anchor="start" x="647.1" y="-376.66" font-family="Monaco" font-size="12.00">,@e</text>
<text text-anchor="start" x="668.71" y="-376.66" font-family="Monaco" baseline-shift="super" font-size="8.00" fill="#00aa11">S64</text>
<text text-anchor="start" x="683.11" y="-376.66" font-family="Monaco" baseline-shift="super" font-size="8.00" fill="#3311ff">r1</text>
<text text-anchor="start" x="692.71" y="-376.66" font-family="Monaco" font-size="12.00">)</text>
</g>
<!-- Jump0 -->
<g id="node1" class="node">
<title>Jump0</title>
<polygon fill="none" stroke="black" points="144.32,-361.26 47.29,-361.26 47.29,-357.26 43.29,-357.26 43.29,-353.26 47.29,-353.26 47.29,-333.26 43.29,-333.26 43.29,-329.26 47.29,-329.26 47.29,-325.26 144.32,-325.26 144.32,-361.26"/>
<polyline fill="none" stroke="black" points="47.29,-357.26 51.29,-357.26 51.29,-353.26 47.29,-353.26 "/>
<polyline fill="none" stroke="black" points="47.29,-333.26 51.29,-333.26 51.29,-329.26 47.29,-329.26 "/>
<text text-anchor="start" x="58" y="-346.46" font-family="Monaco" baseline-shift="super" font-size="8.00" fill="#ff4411">q0</text>
<text text-anchor="start" x="67.6" y="-346.46" font-family="Monaco" font-size="11.00">StartFun.0</text>
<text text-anchor="start" x="55.3" y="-335.46" font-family="Monaco" font-size="11.00">i</text>
<text text-anchor="start" x="61.9" y="-335.46" font-family="Monaco" baseline-shift="super" font-size="8.00" fill="#00aa11">U10</text>
<text text-anchor="start" x="76.3" y="-335.46" font-family="Monaco" baseline-shift="super" font-size="8.00" fill="#3311ff">r0</text>
<text text-anchor="start" x="85.9" y="-335.46" font-family="Monaco" font-size="11.00">,acc</text>
<text text-anchor="start" x="112.31" y="-335.46" font-family="Monaco" baseline-shift="super" font-size="8.00" fill="#00aa11">S64</text>
<text text-anchor="start" x="126.71" y="-335.46" font-family="Monaco" baseline-shift="super" font-size="8.00" fill="#3311ff">r1</text>
</g>
<!-- Block0 -->
<g id="node2" class="node">
<title>Block0</title>
<polygon fill="none" stroke="black" points="123.41,-288.26 68.2,-288.26 68.2,-252.26 123.41,-252.26 123.41,-288.26"/>
<text text-anchor="middle" x="95.81" y="-268.79" font-family="Monaco" font-size="11.00">Block0</text>
</g>
<!-- Jump0&#45;&gt;Block0 -->
<g id="edge1" class="edge">
<title>Jump0&#45;&gt;Block0</title>
<path fill="none" stroke="black" d="M95.81,-325.07C95.81,-317.04 95.81,-307.3 95.81,-298.32"/>
<polygon fill="black" stroke="black" points="99.31,-298.28 95.81,-288.28 92.31,-298.28 99.31,-298.28"/>
</g>
<!-- Jump1 -->
<g id="node3" class="node">
<title>Jump1</title>
<path fill="none" stroke="black" d="M125.41,-215.26C125.41,-215.26 66.2,-215.26 66.2,-215.26 60.2,-215.26 50.39,-210.62 46.57,-205.99 46.57,-205.99 32.19,-188.52 32.19,-188.52 28.38,-183.89 30.57,-179.26 36.57,-179.26 36.57,-179.26 155.05,-179.26 155.05,-179.26 161.05,-179.26 163.23,-183.89 159.42,-188.52 159.42,-188.52 145.04,-205.99 145.04,-205.99 141.23,-210.62 131.41,-215.26 125.41,-215.26"/>
<text text-anchor="start" x="64.6" y="-196.79" font-family="Monaco" baseline-shift="super" font-size="8.00" fill="#ff4411">q1</text>
<text text-anchor="start" x="74.2" y="-196.79" font-family="Monaco" font-size="11.00">Branch.1</text>
</g>
<!-- Block0&#45;&gt;Jump1 -->
<g id="edge2" class="edge">
<title>Block0&#45;&gt;Jump1</title>
<path fill="none" stroke="black" d="M95.81,-252.07C95.81,-244.04 95.81,-234.3 95.81,-225.32"/>
<polygon fill="black" stroke="black" points="99.31,-225.28 95.81,-215.28 92.31,-225.28 99.31,-225.28"/>
</g>
<!-- Block1 -->
<g id="node4" class="node">
<title>Block1</title>
<polygon fill="none" stroke="black" points="86.41,-128.55 31.2,-128.55 31.2,-86.71 86.41,-86.71 86.41,-128.55"/>
<text text-anchor="start" x="39" y="-115.79" font-family="Monaco" font-size="11.00">Block1</text>
<text text-anchor="middle" x="58.81" y="-101.12" font-family="Monaco" font-size="11.00">(0行)</text>
</g>
<!-- Jump1&#45;&gt;Block1 -->
<g id="edge3" class="edge">
<title>Jump1&#45;&gt;Block1</title>
<path fill="none" stroke="black" d="M88.5,-178.94C83.58,-167.3 76.98,-151.67 71.25,-138.1"/>
<polygon fill="black" stroke="black" points="74.38,-136.52 67.27,-128.66 67.93,-139.24 74.38,-136.52"/>
<text text-anchor="start" x="80.81" y="-152.46" font-family="Monaco" font-size="11.00">@b</text>
</g>
<!-- Block2 -->
<g id="node5" class="node">
<title>Block2</title>
<polygon fill="none" stroke="black" points="184.41,-125.63 129.2,-125.63 129.2,-89.63 184.41,-89.63 184.41,-125.63"/>
<text text-anchor="middle" x="156.81" y="-106.16" font-family="Monaco" font-size="11.00">Block2</text>
</g>
<!-- Jump1&#45;&gt;Block2 -->
<g id="edge4" class="edge">
<title>Jump1&#45;&gt;Block2</title>
<path fill="none" stroke="black" d="M107.86,-178.94C116.71,-166.22 128.89,-148.72 138.89,-134.37"/>
<polygon fill="black" stroke="black" points="141.94,-136.11 144.78,-125.9 136.19,-132.11 141.94,-136.11"/>
<text text-anchor="start" x="130.81" y="-152.46" font-family="Monaco" font-size="11.00">!@b</text>
</g>
<!-- Jump2_4 -->
<g id="node6" class="node">
<title>Jump2_4</title>
<polygon fill="none" stroke="black" points="91.42,-30 18.19,-30 18.19,-36 0.19,-18 18.19,0 18.19,-6 73.42,-6 73.42,0 91.42,0 91.42,-30"/>
<text text-anchor="start" x="8" y="-17.53" font-family="Monaco" baseline-shift="super" font-size="8.00" fill="#ff4411">q2</text>
<text text-anchor="start" x="17.6" y="-17.53" font-family="Monaco" font-size="11.00">Return.2_4</text>
</g>
<!-- Block1&#45;&gt;Jump2_4 -->
<g id="edge5" class="edge">
<title>Block1&#45;&gt;Jump2_4</title>
<path fill="none" stroke="black" d="M55.79,-86.3C54.03,-74.45 51.79,-59.35 49.88,-46.45"/>
<polygon fill="black" stroke="black" points="53.3,-45.64 48.37,-36.26 46.37,-46.67 53.3,-45.64"/>
<text text-anchor="start" x="53.81" y="-59.87" font-family="Monaco" font-size="11.00">acc</text>
</g>
<!-- Jump2_5_6 -->
<g id="node7" class="node">
<title>Jump2_5_6</title>
<polygon fill="none" stroke="black" points="227.82,-36 109.79,-36 109.79,-32 105.79,-32 105.79,-28 109.79,-28 109.79,-8 105.79,-8 105.79,-4 109.79,-4 109.79,0 227.82,0 227.82,-36"/>
<polyline fill="none" stroke="black" points="109.79,-32 113.79,-32 113.79,-28 109.79,-28 "/>
<polyline fill="none" stroke="black" points="109.79,-8 113.79,-8 113.79,-4 109.79,-4 "/>
<text text-anchor="start" x="117.8" y="-21.2" font-family="Monaco" baseline-shift="super" font-size="8.00" fill="#ff4411">q8</text>
<text text-anchor="start" x="127.4" y="-21.2" font-family="Monaco" font-size="11.00">TailCall.2_5_6</text>
<text text-anchor="start" x="129.2" y="-10.2" font-family="Monaco" font-size="11.00">norm2(@g,@e)</text>
</g>
<!-- Block2&#45;&gt;Jump2_5_6 -->
<g id="edge6" class="edge">
<title>Block2&#45;&gt;Jump2_5_6</title>
<path fill="none" stroke="black" d="M159.18,-89.32C160.85,-77.07 163.14,-60.41 165.06,-46.38"/>
<polygon fill="black" stroke="black" points="168.55,-46.66 166.44,-36.28 161.62,-45.71 168.55,-46.66"/>
</g>
<!-- 1 -->
<g id="node8" class="node">
<title>1</title>
<ellipse fill="none" stroke="black" cx="254.81" cy="-343.26" rx="92.9" ry="18"/>
<text text-anchor="start" x="190.6" y="-342.79" font-family="Monaco" baseline-shift="super" font-size="8.00" fill="#ff4411">q1</text>
<text text-anchor="start" x="200.2" y="-342.79" font-family="Monaco" font-size="11.00">@b</text>
<text text-anchor="start" x="213.4" y="-342.79" font-family="Monaco" baseline-shift="super" font-size="8.00" fill="#00aa11">U1</text>
<text text-anchor="start" x="223" y="-342.79" font-family="Monaco" baseline-shift="super" font-size="8.00" fill="#3311ff">r2</text>
<text text-anchor="start" x="232.6" y="-342.79" font-family="Monaco" font-size="11.00">:i==</text>
<text text-anchor="start" x="259.01" y="-342.79" font-family="Monaco" baseline-shift="super" font-size="8.00" fill="#3311ff">Bin0</text>
<text text-anchor="start" x="278.21" y="-342.79" font-family="Monaco" font-size="11.00">1000</text>
<text text-anchor="start" x="304.61" y="-342.79" font-family="Monaco" baseline-shift="super" font-size="8.00" fill="#00aa11">U10</text>
</g>
<!-- dummy -->
<!-- 5 -->
<g id="node10" class="node">
<title>5</title>
<ellipse fill="none" stroke="black" cx="516.81" cy="-270.26" rx="57.34" ry="18"/>
<text text-anchor="start" x="480.2" y="-269.79" font-family="Monaco" baseline-shift="super" font-size="8.00" fill="#ff4411">q5</text>
<text text-anchor="start" x="489.8" y="-269.79" font-family="Monaco" font-size="11.00">@c</text>
<text text-anchor="start" x="503" y="-269.79" font-family="Monaco" baseline-shift="super" font-size="8.00" fill="#00aa11">S27</text>
<text text-anchor="start" x="517.41" y="-269.79" font-family="Monaco" baseline-shift="super" font-size="8.00" fill="#3311ff">r3</text>
<text text-anchor="start" x="527.01" y="-269.79" font-family="Monaco" font-size="11.00">:a[]</text>
</g>
<!-- 6 -->
<g id="node11" class="node">
<title>6</title>
<ellipse fill="none" stroke="black" cx="597.81" cy="-197.26" rx="82.55" ry="18"/>
<text text-anchor="start" x="541.7" y="-196.79" font-family="Monaco" baseline-shift="super" font-size="8.00" fill="#ff4411">q6</text>
<text text-anchor="start" x="551.3" y="-196.79" font-family="Monaco" font-size="11.00">@d</text>
<text text-anchor="start" x="564.5" y="-196.79" font-family="Monaco" baseline-shift="super" font-size="8.00" fill="#00aa11">S64</text>
<text text-anchor="start" x="578.9" y="-196.79" font-family="Monaco" baseline-shift="super" font-size="8.00" fill="#3311ff">r0</text>
<text text-anchor="start" x="588.5" y="-196.79" font-family="Monaco" font-size="11.00">:a64*</text>
<text text-anchor="start" x="621.51" y="-196.79" font-family="Monaco" baseline-shift="super" font-size="8.00" fill="#3311ff">Bin2</text>
<text text-anchor="start" x="640.71" y="-196.79" font-family="Monaco" font-size="11.00">@c</text>
</g>
<!-- 5&#45;&gt;6 -->
<g id="edge8" class="edge">
<title>5&#45;&gt;6</title>
<path fill="none" stroke="black" d="M535.19,-253.14C545.81,-243.84 559.35,-231.96 571.13,-221.64"/>
<polygon fill="black" stroke="black" points="573.72,-224.02 578.94,-214.8 569.11,-218.75 573.72,-224.02"/>
</g>
<!-- 7 -->
<g id="node14" class="node">
<title>7</title>
<ellipse fill="none" stroke="black" cx="597.81" cy="-107.63" rx="82.55" ry="18"/>
<text text-anchor="start" x="541.7" y="-107.16" font-family="Monaco" baseline-shift="super" font-size="8.00" fill="#ff4411">q7</text>
<text text-anchor="start" x="551.3" y="-107.16" font-family="Monaco" font-size="11.00">@e</text>
<text text-anchor="start" x="564.5" y="-107.16" font-family="Monaco" baseline-shift="super" font-size="8.00" fill="#00aa11">S64</text>
<text text-anchor="start" x="578.9" y="-107.16" font-family="Monaco" baseline-shift="super" font-size="8.00" fill="#3311ff">r1</text>
<text text-anchor="start" x="588.5" y="-107.16" font-family="Monaco" font-size="11.00">:acc+</text>
<text text-anchor="start" x="621.51" y="-107.16" font-family="Monaco" baseline-shift="super" font-size="8.00" fill="#3311ff">Bin3</text>
<text text-anchor="start" x="640.71" y="-107.16" font-family="Monaco" font-size="11.00">@d</text>
</g>
<!-- 6&#45;&gt;7 -->
<g id="edge9" class="edge">
<title>6&#45;&gt;7</title>
<path fill="none" stroke="black" d="M597.81,-178.94C597.81,-166.7 597.81,-150.04 597.81,-136.01"/>
<polygon fill="black" stroke="black" points="601.31,-135.9 597.81,-125.9 594.31,-135.9 601.31,-135.9"/>
</g>
<!-- 9 -->
<g id="node12" class="node">
<title>9</title>
<ellipse fill="none" stroke="black" cx="772.81" cy="-343.26" rx="75.92" ry="18"/>
<text text-anchor="start" x="721.8" y="-342.79" font-family="Monaco" baseline-shift="super" font-size="8.00" fill="#ff4411">q3</text>
<text text-anchor="start" x="731.4" y="-342.79" font-family="Monaco" font-size="11.00">@g</text>
<text text-anchor="start" x="744.6" y="-342.79" font-family="Monaco" baseline-shift="super" font-size="8.00" fill="#00aa11">U10</text>
<text text-anchor="start" x="759" y="-342.79" font-family="Monaco" baseline-shift="super" font-size="8.00" fill="#3311ff">r2</text>
<text text-anchor="start" x="768.61" y="-342.79" font-family="Monaco" font-size="11.00">:i+</text>
<text text-anchor="start" x="788.41" y="-342.79" font-family="Monaco" baseline-shift="super" font-size="8.00" fill="#3311ff">Bin1</text>
<text text-anchor="start" x="807.61" y="-342.79" font-family="Monaco" font-size="11.00">1</text>
<text text-anchor="start" x="814.21" y="-342.79" font-family="Monaco" baseline-shift="super" font-size="8.00" fill="#00aa11">U1</text>
</g>
<!-- 2 -->
<g id="node13" class="node">
<title>2</title>
<ellipse fill="none" stroke="black" cx="628.81" cy="-343.26" rx="50.43" ry="18"/>
<text text-anchor="start" x="597.6" y="-342.79" font-family="Monaco" baseline-shift="super" font-size="8.00" fill="#ff4411">q3</text>
<text text-anchor="start" x="607.2" y="-342.79" font-family="Monaco" font-size="11.00">req a[i]</text>
</g>
<!-- 3 -->
<g id="node15" class="node">
<title>3</title>
<ellipse fill="none" stroke="black" cx="653.81" cy="-270.26" rx="61.83" ry="18"/>
<text text-anchor="start" x="613.9" y="-269.79" font-family="Monaco" baseline-shift="super" font-size="8.00" fill="#ff4411">q4</text>
<text text-anchor="start" x="623.5" y="-269.79" font-family="Monaco" font-size="11.00">a64</text>
<text text-anchor="start" x="643.3" y="-269.79" font-family="Monaco" baseline-shift="super" font-size="8.00" fill="#00aa11">S64</text>
<text text-anchor="start" x="657.71" y="-269.79" font-family="Monaco" baseline-shift="super" font-size="8.00" fill="#3311ff">r0</text>
<text text-anchor="start" x="667.31" y="-269.79" font-family="Monaco" font-size="11.00">:a[]</text>
</g>
<!-- 2&#45;&gt;3 -->
<g id="edge10" class="edge">
<title>2&#45;&gt;3</title>
<path fill="none" stroke="black" d="M634.86,-325.07C637.74,-316.87 641.26,-306.88 644.48,-297.74"/>
<polygon fill="black" stroke="black" points="647.79,-298.88 647.81,-288.28 641.19,-296.55 647.79,-298.88"/>
</g>
<!-- 3&#45;&gt;6 -->
<g id="edge7" class="edge">
<title>3&#45;&gt;6</title>
<path fill="none" stroke="black" d="M640.53,-252.43C633.73,-243.8 625.3,-233.12 617.74,-223.53"/>
<polygon fill="black" stroke="black" points="620.31,-221.14 611.37,-215.45 614.82,-225.47 620.31,-221.14"/>
</g>
<!-- 4 -->
<g id="node16" class="node">
<title>4</title>
<ellipse fill="none" stroke="black" cx="509.81" cy="-343.26" rx="50.43" ry="18"/>
<text text-anchor="start" x="478.6" y="-342.79" font-family="Monaco" baseline-shift="super" font-size="8.00" fill="#ff4411">q4</text>
<text text-anchor="start" x="488.2" y="-342.79" font-family="Monaco" font-size="11.00">req a[i]</text>
</g>
<!-- 4&#45;&gt;5 -->
<g id="edge11" class="edge">
<title>4&#45;&gt;5</title>
<path fill="none" stroke="black" d="M511.5,-325.07C512.29,-317.04 513.25,-307.3 514.14,-298.32"/>
<polygon fill="black" stroke="black" points="517.63,-298.58 515.13,-288.28 510.66,-297.89 517.63,-298.58"/>
</g>
</g>
</svg>
