<?xml version="1.0" encoding="UTF-8" standalone="no"?>
<!DOCTYPE svg PUBLIC "-//W3C//DTD SVG 1.1//EN"
 "http://www.w3.org/Graphics/SVG/1.1/DTD/svg11.dtd">
<!-- Generated by graphviz version 2.43.0 (0)
 -->
<!-- Title: Program_ Pages: 1 -->
<svg width="866pt" height="435pt"
 viewBox="0.00 0.00 865.81 435.34" xmlns="http://www.w3.org/2000/svg" xmlns:xlink="http://www.w3.org/1999/xlink">
<g id="graph0" class="graph" transform="scale(1 1) rotate(0) translate(4 431.34)">
<title>Program_</title>
<polygon fill="white" stroke="transparent" points="-4,4 -4,-431.34 861.81,-431.34 861.81,4 -4,4"/>
<g id="clust1" class="cluster">
<title>cluster_dfg_Block0</title>
<polygon fill="none" stroke="black" points="153.81,-311.34 153.81,-419.34 355.81,-419.34 355.81,-311.34 153.81,-311.34"/>
<text text-anchor="start" x="233.2" y="-406.74" font-family="Monaco" font-size="12.00">Block0</text>
<text text-anchor="start" x="209.2" y="-394.74" font-family="Monaco" font-size="12.00">(acc</text>
<text text-anchor="start" x="238" y="-394.74" font-family="Monaco" baseline-shift="super" font-size="8.00" fill="#00aa11">S64</text>
<text text-anchor="start" x="252.41" y="-394.74" font-family="Monaco" baseline-shift="super" font-size="8.00" fill="#3311ff">r1</text>
<text text-anchor="start" x="262.01" y="-394.74" font-family="Monaco" font-size="12.00">,i</text>
<text text-anchor="start" x="276.41" y="-394.74" font-family="Monaco" baseline-shift="super" font-size="8.00" fill="#00aa11">U10</text>
<text text-anchor="start" x="290.81" y="-394.74" font-family="Monaco" baseline-shift="super" font-size="8.00" fill="#3311ff">r0</text>
<text text-anchor="start" x="247.6" y="-382.74" font-family="Monaco" font-size="12.00">=&gt;</text>
<text text-anchor="start" x="188.8" y="-370.74" font-family="Monaco" font-size="12.00">acc</text>
<text text-anchor="start" x="210.4" y="-370.74" font-family="Monaco" baseline-shift="super" font-size="8.00" fill="#00aa11">S64</text>
<text text-anchor="start" x="224.8" y="-370.74" font-family="Monaco" baseline-shift="super" font-size="8.00" fill="#3311ff">r1</text>
<text text-anchor="start" x="234.4" y="-370.74" font-family="Monaco" font-size="12.00">,i</text>
<text text-anchor="start" x="248.81" y="-370.74" font-family="Monaco" baseline-shift="super" font-size="8.00" fill="#00aa11">U10</text>
<text text-anchor="start" x="263.21" y="-370.74" font-family="Monaco" baseline-shift="super" font-size="8.00" fill="#3311ff">r0</text>
<text text-anchor="start" x="272.81" y="-370.74" font-family="Monaco" font-size="12.00">,@b</text>
<text text-anchor="start" x="294.41" y="-370.74" font-family="Monaco" baseline-shift="super" font-size="8.00" fill="#00aa11">U1</text>
<text text-anchor="start" x="304.01" y="-370.74" font-family="Monaco" baseline-shift="super" font-size="8.00" fill="#3311ff">r2</text>
<text text-anchor="start" x="313.62" y="-370.74" font-family="Monaco" font-size="12.00">)</text>
</g>
<g id="clust2" class="cluster">
<title>cluster_dfg_Block1</title>
<polygon fill="none" stroke="black" points="363.81,-311.34 363.81,-419.34 437.81,-419.34 437.81,-311.34 363.81,-311.34"/>
<text text-anchor="start" x="379.2" y="-406.74" font-family="Monaco" font-size="12.00">Block1</text>
<text text-anchor="start" x="374.4" y="-394.74" font-family="Monaco" font-size="12.00">(acc</text>
<text text-anchor="start" x="403.21" y="-394.74" font-family="Monaco" baseline-shift="super" font-size="8.00" fill="#00aa11">S64</text>
<text text-anchor="start" x="417.61" y="-394.74" font-family="Monaco" baseline-shift="super" font-size="8.00" fill="#3311ff">r1</text>
<text text-anchor="start" x="393.6" y="-382.74" font-family="Monaco" font-size="12.00">=&gt;</text>
<text text-anchor="start" x="374.4" y="-370.74" font-family="Monaco" font-size="12.00">acc</text>
<text text-anchor="start" x="396.01" y="-370.74" font-family="Monaco" baseline-shift="super" font-size="8.00" fill="#00aa11">S64</text>
<text text-anchor="start" x="410.41" y="-370.74" font-family="Monaco" baseline-shift="super" font-size="8.00" fill="#3311ff">r1</text>
<text text-anchor="start" x="420.01" y="-370.74" font-family="Monaco" font-size="12.00">)</text>
</g>
<g id="clust3" class="cluster">
<title>cluster_dfg_Block2</title>
<polygon fill="none" stroke="black" points="445.81,-78.67 445.81,-419.34 849.81,-419.34 849.81,-78.67 445.81,-78.67"/>
<text text-anchor="start" x="626.2" y="-406.74" font-family="Monaco" font-size="12.00">Block2</text>
<text text-anchor="start" x="602.2" y="-394.74" font-family="Monaco" font-size="12.00">(acc</text>
<text text-anchor="start" x="631" y="-394.74" font-family="Monaco" baseline-shift="super" font-size="8.00" fill="#00aa11">S64</text>
<text text-anchor="start" x="645.41" y="-394.74" font-family="Monaco" baseline-shift="super" font-size="8.00" fill="#3311ff">r1</text>
<text text-anchor="start" x="655.01" y="-394.74" font-family="Monaco" font-size="12.00">,i</text>
<text text-anchor="start" x="669.41" y="-394.74" font-family="Monaco" baseline-shift="super" font-size="8.00" fill="#00aa11">U10</text>
<text text-anchor="start" x="683.81" y="-394.74" font-family="Monaco" baseline-shift="super" font-size="8.00" fill="#3311ff">r0</text>
<text text-anchor="start" x="640.6" y="-382.74" font-family="Monaco" font-size="12.00">=&gt;</text>
<text text-anchor="start" x="602.2" y="-370.74" font-family="Monaco" font-size="12.00">@g</text>
<text text-anchor="start" x="616.6" y="-370.74" font-family="Monaco" baseline-shift="super" font-size="8.00" fill="#00aa11">U10</text>
<text text-anchor="start" x="631" y="-370.74" font-family="Monaco" baseline-shift="super" font-size="8.00" fill="#3311ff">r2</text>
<text text-anchor="start" x="640.6" y="-370.74" font-family="Monaco" font-size="12.00">,@e</text>
<text text-anchor="start" x="662.21" y="-370.74" font-family="Monaco" baseline-shift="super" font-size="8.00" fill="#00aa11">S64</text>
<text text-anchor="start" x="676.61" y="-370.74" font-family="Monaco" baseline-shift="super" font-size="8.00" fill="#3311ff">r1</text>
<text text-anchor="start" x="686.21" y="-370.74" font-family="Monaco" font-size="12.00">)</text>
</g>
<!-- Jump0 -->
<g id="node1" class="node">
<title>Jump0</title>
<polygon fill="none" stroke="black" points="144.32,-355.34 47.29,-355.34 47.29,-351.34 43.29,-351.34 43.29,-347.34 47.29,-347.34 47.29,-327.34 43.29,-327.34 43.29,-323.34 47.29,-323.34 47.29,-319.34 144.32,-319.34 144.32,-355.34"/>
<polyline fill="none" stroke="black" points="47.29,-351.34 51.29,-351.34 51.29,-347.34 47.29,-347.34 "/>
<polyline fill="none" stroke="black" points="47.29,-327.34 51.29,-327.34 51.29,-323.34 47.29,-323.34 "/>
<text text-anchor="start" x="58" y="-340.54" font-family="Monaco" baseline-shift="super" font-size="8.00" fill="#ff4411">q0</text>
<text text-anchor="start" x="67.6" y="-340.54" font-family="Monaco" font-size="11.00">StartFun.0</text>
<text text-anchor="start" x="55.3" y="-329.54" font-family="Monaco" font-size="11.00">i</text>
<text text-anchor="start" x="61.9" y="-329.54" font-family="Monaco" baseline-shift="super" font-size="8.00" fill="#00aa11">U10</text>
<text text-anchor="start" x="76.3" y="-329.54" font-family="Monaco" baseline-shift="super" font-size="8.00" fill="#3311ff">r0</text>
<text text-anchor="start" x="85.9" y="-329.54" font-family="Monaco" font-size="11.00">,acc</text>
<text text-anchor="start" x="112.31" y="-329.54" font-family="Monaco" baseline-shift="super" font-size="8.00" fill="#00aa11">S64</text>
<text text-anchor="start" x="126.71" y="-329.54" font-family="Monaco" baseline-shift="super" font-size="8.00" fill="#3311ff">r1</text>
</g>
<!-- Block0 -->
<g id="node2" class="node">
<title>Block0</title>
<polygon fill="none" stroke="black" points="123.41,-282.34 68.2,-282.34 68.2,-246.34 123.41,-246.34 123.41,-282.34"/>
<text text-anchor="middle" x="95.81" y="-262.87" font-family="Monaco" font-size="11.00">Block0</text>
</g>
<!-- Jump0&#45;&gt;Block0 -->
<g id="edge1" class="edge">
<title>Jump0&#45;&gt;Block0</title>
<path fill="none" stroke="black" d="M95.81,-319.15C95.81,-311.13 95.81,-301.38 95.81,-292.41"/>
<polygon fill="black" stroke="black" points="99.31,-292.37 95.81,-282.37 92.31,-292.37 99.31,-292.37"/>
</g>
<!-- Jump1 -->
<g id="node3" class="node">
<title>Jump1</title>
<path fill="none" stroke="black" d="M125.41,-209.34C125.41,-209.34 66.2,-209.34 66.2,-209.34 60.2,-209.34 50.39,-204.7 46.57,-200.07 46.57,-200.07 32.19,-182.6 32.19,-182.6 28.38,-177.97 30.57,-173.34 36.57,-173.34 36.57,-173.34 155.05,-173.34 155.05,-173.34 161.05,-173.34 163.23,-177.97 159.42,-182.6 159.42,-182.6 145.04,-200.07 145.04,-200.07 141.23,-204.7 131.41,-209.34 125.41,-209.34"/>
<text text-anchor="start" x="64.6" y="-190.87" font-family="Monaco" baseline-shift="super" font-size="8.00" fill="#ff4411">q1</text>
<text text-anchor="start" x="74.2" y="-190.87" font-family="Monaco" font-size="11.00">Branch.1</text>
</g>
<!-- Block0&#45;&gt;Jump1 -->
<g id="edge2" class="edge">
<title>Block0&#45;&gt;Jump1</title>
<path fill="none" stroke="black" d="M95.81,-246.15C95.81,-238.13 95.81,-228.38 95.81,-219.41"/>
<polygon fill="black" stroke="black" points="99.31,-219.37 95.81,-209.37 92.31,-219.37 99.31,-219.37"/>
</g>
<!-- Block1 -->
<g id="node4" class="node">
<title>Block1</title>
<polygon fill="none" stroke="black" points="86.41,-122.67 31.2,-122.67 31.2,-86.67 86.41,-86.67 86.41,-122.67"/>
<text text-anchor="middle" x="58.81" y="-103.2" font-family="Monaco" font-size="11.00">Block1</text>
</g>
<!-- Jump1&#45;&gt;Block1 -->
<g id="edge3" class="edge">
<title>Jump1&#45;&gt;Block1</title>
<path fill="none" stroke="black" d="M88.32,-173.2C83.15,-161.38 76.19,-145.44 70.32,-132.01"/>
<polygon fill="black" stroke="black" points="73.49,-130.54 66.28,-122.78 67.08,-133.34 73.49,-130.54"/>
<text text-anchor="start" x="79.81" y="-146.54" font-family="Monaco" font-size="11.00">@b</text>
</g>
<!-- Block2 -->
<g id="node5" class="node">
<title>Block2</title>
<polygon fill="none" stroke="black" points="184.41,-122.67 129.2,-122.67 129.2,-86.67 184.41,-86.67 184.41,-122.67"/>
<text text-anchor="middle" x="156.81" y="-103.2" font-family="Monaco" font-size="11.00">Block2</text>
</g>
<!-- Jump1&#45;&gt;Block2 -->
<g id="edge4" class="edge">
<title>Jump1&#45;&gt;Block2</title>
<path fill="none" stroke="black" d="M108.15,-173.2C116.83,-161.15 128.6,-144.82 138.39,-131.23"/>
<polygon fill="black" stroke="black" points="141.47,-132.94 144.48,-122.78 135.79,-128.84 141.47,-132.94"/>
<text text-anchor="start" x="130.81" y="-146.54" font-family="Monaco" font-size="11.00">!@b</text>
</g>
<!-- Jump2_4 -->
<g id="node6" class="node">
<title>Jump2_4</title>
<polygon fill="none" stroke="black" points="91.42,-30 18.19,-30 18.19,-36 0.19,-18 18.19,0 18.19,-6 73.42,-6 73.42,0 91.42,0 91.42,-30"/>
<text text-anchor="start" x="8" y="-17.53" font-family="Monaco" baseline-shift="super" font-size="8.00" fill="#ff4411">q3</text>
<text text-anchor="start" x="17.6" y="-17.53" font-family="Monaco" font-size="11.00">Return.2_4</text>
</g>
<!-- Block1&#45;&gt;Jump2_4 -->
<g id="edge5" class="edge">
<title>Block1&#45;&gt;Jump2_4</title>
<path fill="none" stroke="black" d="M56.18,-86.53C54.4,-74.94 52.01,-59.39 49.97,-46.13"/>
<polygon fill="black" stroke="black" points="53.41,-45.46 48.43,-36.11 46.49,-46.52 53.41,-45.46"/>
<text text-anchor="start" x="53.81" y="-59.87" font-family="Monaco" font-size="11.00">acc</text>
</g>
<!-- Jump2_5_6 -->
<g id="node7" class="node">
<title>Jump2_5_6</title>
<polygon fill="none" stroke="black" points="227.82,-36 109.79,-36 109.79,-32 105.79,-32 105.79,-28 109.79,-28 109.79,-8 105.79,-8 105.79,-4 109.79,-4 109.79,0 227.82,0 227.82,-36"/>
<polyline fill="none" stroke="black" points="109.79,-32 113.79,-32 113.79,-28 109.79,-28 "/>
<polyline fill="none" stroke="black" points="109.79,-8 113.79,-8 113.79,-4 109.79,-4 "/>
<text text-anchor="start" x="117.8" y="-21.2" font-family="Monaco" baseline-shift="super" font-size="8.00" fill="#ff4411">q9</text>
<text text-anchor="start" x="127.4" y="-21.2" font-family="Monaco" font-size="11.00">TailCall.2_5_6</text>
<text text-anchor="start" x="129.2" y="-10.2" font-family="Monaco" font-size="11.00">norm2(@g,@e)</text>
</g>
<!-- Block2&#45;&gt;Jump2_5_6 -->
<g id="edge6" class="edge">
<title>Block2&#45;&gt;Jump2_5_6</title>
<path fill="none" stroke="black" d="M159.23,-86.53C160.88,-74.94 163.08,-59.39 164.96,-46.13"/>
<polygon fill="black" stroke="black" points="168.44,-46.5 166.38,-36.11 161.51,-45.52 168.44,-46.5"/>
</g>
<!-- 1 -->
<g id="node8" class="node">
<title>1</title>
<ellipse fill="none" stroke="black" cx="254.81" cy="-337.34" rx="92.9" ry="18"/>
<text text-anchor="start" x="190.6" y="-336.87" font-family="Monaco" baseline-shift="super" font-size="8.00" fill="#ff4411">q1</text>
<text text-anchor="start" x="200.2" y="-336.87" font-family="Monaco" font-size="11.00">@b</text>
<text text-anchor="start" x="213.4" y="-336.87" font-family="Monaco" baseline-shift="super" font-size="8.00" fill="#00aa11">U1</text>
<text text-anchor="start" x="223" y="-336.87" font-family="Monaco" baseline-shift="super" font-size="8.00" fill="#3311ff">r2</text>
<text text-anchor="start" x="232.6" y="-336.87" font-family="Monaco" font-size="11.00">:i==</text>
<text text-anchor="start" x="259.01" y="-336.87" font-family="Monaco" baseline-shift="super" font-size="8.00" fill="#3311ff">Bin0</text>
<text text-anchor="start" x="278.21" y="-336.87" font-family="Monaco" font-size="11.00">1000</text>
<text text-anchor="start" x="304.61" y="-336.87" font-family="Monaco" baseline-shift="super" font-size="8.00" fill="#00aa11">U10</text>
</g>
<!-- 2 -->
<g id="node9" class="node">
<title>2</title>
<ellipse fill="none" stroke="black" cx="400.81" cy="-337.34" rx="29.45" ry="18"/>
<text text-anchor="start" x="386.1" y="-336.87" font-family="Monaco" baseline-shift="super" font-size="8.00" fill="#ff4411">q2</text>
<text text-anchor="start" x="395.71" y="-336.87" font-family="Monaco" font-size="11.00">nop</text>
</g>
<!-- 5 -->
<g id="node10" class="node">
<title>5</title>
<ellipse fill="none" stroke="black" cx="791.81" cy="-337.34" rx="50.43" ry="18"/>
<text text-anchor="start" x="760.6" y="-336.87" font-family="Monaco" baseline-shift="super" font-size="8.00" fill="#ff4411">q4</text>
<text text-anchor="start" x="770.2" y="-336.87" font-family="Monaco" font-size="11.00">req a[i]</text>
</g>
<!-- 6 -->
<g id="node12" class="node">
<title>6</title>
<ellipse fill="none" stroke="black" cx="735.81" cy="-264.34" rx="57.34" ry="18"/>
<text text-anchor="start" x="699.2" y="-263.87" font-family="Monaco" baseline-shift="super" font-size="8.00" fill="#ff4411">q5</text>
<text text-anchor="start" x="708.8" y="-263.87" font-family="Monaco" font-size="11.00">@c</text>
<text text-anchor="start" x="722" y="-263.87" font-family="Monaco" baseline-shift="super" font-size="8.00" fill="#00aa11">S27</text>
<text text-anchor="start" x="736.41" y="-263.87" font-family="Monaco" baseline-shift="super" font-size="8.00" fill="#3311ff">r0</text>
<text text-anchor="start" x="746.01" y="-263.87" font-family="Monaco" font-size="11.00">:a[]</text>
</g>
<!-- 5&#45;&gt;6 -->
<g id="edge11" class="edge">
<title>5&#45;&gt;6</title>
<path fill="none" stroke="black" d="M778.82,-319.87C771.85,-311.04 763.12,-299.97 755.35,-290.12"/>
<polygon fill="black" stroke="black" points="758.05,-287.89 749.11,-282.21 752.56,-292.23 758.05,-287.89"/>
</g>
<!-- 10 -->
<g id="node11" class="node">
<title>10</title>
<ellipse fill="none" stroke="black" cx="647.81" cy="-337.34" rx="75.92" ry="18"/>
<text text-anchor="start" x="596.8" y="-336.87" font-family="Monaco" baseline-shift="super" font-size="8.00" fill="#ff4411">q4</text>
<text text-anchor="start" x="606.4" y="-336.87" font-family="Monaco" font-size="11.00">@g</text>
<text text-anchor="start" x="619.6" y="-336.87" font-family="Monaco" baseline-shift="super" font-size="8.00" fill="#00aa11">U10</text>
<text text-anchor="start" x="634" y="-336.87" font-family="Monaco" baseline-shift="super" font-size="8.00" fill="#3311ff">r2</text>
<text text-anchor="start" x="643.61" y="-336.87" font-family="Monaco" font-size="11.00">:i+</text>
<text text-anchor="start" x="663.41" y="-336.87" font-family="Monaco" baseline-shift="super" font-size="8.00" fill="#3311ff">Bin1</text>
<text text-anchor="start" x="682.61" y="-336.87" font-family="Monaco" font-size="11.00">1</text>
<text text-anchor="start" x="689.21" y="-336.87" font-family="Monaco" baseline-shift="super" font-size="8.00" fill="#00aa11">U1</text>
</g>
<!-- 7 -->
<g id="node13" class="node">
<title>7</title>
<ellipse fill="none" stroke="black" cx="569.81" cy="-191.34" rx="82.55" ry="18"/>
<text text-anchor="start" x="513.7" y="-190.87" font-family="Monaco" baseline-shift="super" font-size="8.00" fill="#ff4411">q7</text>
<text text-anchor="start" x="523.3" y="-190.87" font-family="Monaco" font-size="11.00">@d</text>
<text text-anchor="start" x="536.5" y="-190.87" font-family="Monaco" baseline-shift="super" font-size="8.00" fill="#00aa11">S64</text>
<text text-anchor="start" x="550.9" y="-190.87" font-family="Monaco" baseline-shift="super" font-size="8.00" fill="#3311ff">r0</text>
<text text-anchor="start" x="560.5" y="-190.87" font-family="Monaco" font-size="11.00">:a64*</text>
<text text-anchor="start" x="593.51" y="-190.87" font-family="Monaco" baseline-shift="super" font-size="8.00" fill="#3311ff">Bin2</text>
<text text-anchor="start" x="612.71" y="-190.87" font-family="Monaco" font-size="11.00">@c</text>
</g>
<!-- 6&#45;&gt;7 -->
<g id="edge8" class="edge">
<title>6&#45;&gt;7</title>
<path fill="none" stroke="black" d="M703.01,-249.31C677.91,-238.57 642.99,-223.64 615.2,-211.75"/>
<polygon fill="black" stroke="black" points="616.27,-208.4 605.7,-207.69 613.52,-214.84 616.27,-208.4"/>
</g>
<!-- 8 -->
<g id="node15" class="node">
<title>8</title>
<ellipse fill="none" stroke="black" cx="569.81" cy="-104.67" rx="82.55" ry="18"/>
<text text-anchor="start" x="513.7" y="-104.2" font-family="Monaco" baseline-shift="super" font-size="8.00" fill="#ff4411">q8</text>
<text text-anchor="start" x="523.3" y="-104.2" font-family="Monaco" font-size="11.00">@e</text>
<text text-anchor="start" x="536.5" y="-104.2" font-family="Monaco" baseline-shift="super" font-size="8.00" fill="#00aa11">S64</text>
<text text-anchor="start" x="550.9" y="-104.2" font-family="Monaco" baseline-shift="super" font-size="8.00" fill="#3311ff">r1</text>
<text text-anchor="start" x="560.5" y="-104.2" font-family="Monaco" font-size="11.00">:acc+</text>
<text text-anchor="start" x="593.51" y="-104.2" font-family="Monaco" baseline-shift="super" font-size="8.00" fill="#3311ff">Bin3</text>
<text text-anchor="start" x="612.71" y="-104.2" font-family="Monaco" font-size="11.00">@d</text>
</g>
<!-- 7&#45;&gt;8 -->
<g id="edge9" class="edge">
<title>7&#45;&gt;8</title>
<path fill="none" stroke="black" d="M569.81,-173.2C569.81,-161.61 569.81,-146.06 569.81,-132.8"/>
<polygon fill="black" stroke="black" points="573.31,-132.78 569.81,-122.78 566.31,-132.78 573.31,-132.78"/>
</g>
<!-- 3 -->
<g id="node14" class="node">
<title>3</title>
<ellipse fill="none" stroke="black" cx="503.81" cy="-337.34" rx="50.43" ry="18"/>
<text text-anchor="start" x="472.6" y="-336.87" font-family="Monaco" baseline-shift="super" font-size="8.00" fill="#ff4411">q5</text>
<text text-anchor="start" x="482.2" y="-336.87" font-family="Monaco" font-size="11.00">req a[i]</text>
</g>
<!-- 4 -->
<g id="node16" class="node">
<title>4</title>
<ellipse fill="none" stroke="black" cx="539.81" cy="-264.34" rx="61.83" ry="18"/>
<text text-anchor="start" x="499.9" y="-263.87" font-family="Monaco" baseline-shift="super" font-size="8.00" fill="#ff4411">q6</text>
<text text-anchor="start" x="509.5" y="-263.87" font-family="Monaco" font-size="11.00">a64</text>
<text text-anchor="start" x="529.3" y="-263.87" font-family="Monaco" baseline-shift="super" font-size="8.00" fill="#00aa11">S64</text>
<text text-anchor="start" x="543.71" y="-263.87" font-family="Monaco" baseline-shift="super" font-size="8.00" fill="#3311ff">r3</text>
<text text-anchor="start" x="553.31" y="-263.87" font-family="Monaco" font-size="11.00">:a[]</text>
</g>
<!-- 3&#45;&gt;4 -->
<g id="edge10" class="edge">
<title>3&#45;&gt;4</title>
<path fill="none" stroke="black" d="M512.34,-319.51C516.58,-311.15 521.8,-300.85 526.55,-291.48"/>
<polygon fill="black" stroke="black" points="529.69,-293.04 531.09,-282.54 523.44,-289.87 529.69,-293.04"/>
</g>
<!-- 4&#45;&gt;7 -->
<g id="edge7" class="edge">
<title>4&#45;&gt;7</title>
<path fill="none" stroke="black" d="M547.07,-246.15C550.53,-237.95 554.75,-227.96 558.62,-218.82"/>
<polygon fill="black" stroke="black" points="561.94,-219.94 562.61,-209.37 555.49,-217.21 561.94,-219.94"/>
</g>
</g>
</svg>
